<svg xmlns="http://www.w3.org/2000/svg" viewBox="0 0 1941.09 2073.79"><defs><style>.cls-1{fill:#81c6d8;}.cls-2{fill:#38301f;}.cls-3{fill:#eae3ca;}.cls-4{fill:#f6bc3c;}.cls-5{fill:#ad968a;}.cls-6{fill:#723a29;}.cls-7{fill:#a34928;}.cls-8{fill:#f26633;}</style></defs><title>bigb_2</title><g id="Layer_2" data-name="Layer 2"><g id="Layer_3" data-name="Layer 3"><path class="cls-1" d="M251.5,1385.73c-41.18-48.13-91.05-48-150,2.19-11.46,14.32,4.13,31.75,19.27,22.12,93.09-87.73,170.14,23.92,71.54,83.23-15.6,12.61,2.29,33.71,16,24.08l50-38.52c9.45-6.6,24.06-8.49,34.21-5.72,70.47,9,171.53,69.56,275.34,127.7C494,1517.92,394.05,1444.25,251.5,1385.73Zm78.88,78-49.08-16-8.71-35.31L330.38,1438Zm83.92,33-67.42-27.06v-23.84l67.42,44C426.68,1499.21,427.6,1501.3,414.3,1496.71Z"/><path class="cls-2" d="M255,1382.2c-21.86-25.29-51.44-41.64-85.54-36-17.64,2.94-34.23,11.15-49,21-12.84,8.56-35.7,22-25.51,40.53a19.52,19.52,0,0,0,17.13,10c9.56-.13,15.23-7.35,22.12-12.88,12.21-9.81,26.37-17.89,41.83-21.07,20.47-4.22,42.48,2.81,52.45,22.12,10.88,21.07,1.87,45.8-13.05,62.29a105.31,105.31,0,0,1-18.11,15.81c-6.5,4.51-13.34,8-15.5,16.24-3.36,12.87,8.68,26.3,21.82,24.21,7-1.11,12.94-7.27,18.36-11.44l27.05-20.85c5.89-4.53,11.8-10.17,18.87-12.78,14.74-5.44,31.77-.74,46.47,2.94,36,9,70.12,25,103.15,41.62,39.67,20,78.3,41.93,117,63.75q15.42,8.68,30.86,17.36c5.06,2.84,9.81-3.65,6.05-7.85-64.87-72.56-144-130.76-230.21-175.55-28.83-15-58.39-28.46-88.42-40.82-6-2.45-8.54,7.22-2.66,9.64,95.22,39.18,185.76,91.37,262,161a733.85,733.85,0,0,1,52.18,52.77l6.06-7.85c-38.59-21.63-76.94-43.73-116-64.57-33.77-18-68.16-35.46-104.14-48.72a290.82,290.82,0,0,0-45.07-13.09c-15.55-3-31.07-5.47-45.8,2.22-5.95,3.1-11.17,8-16.45,12.07l-26,20c-4,3.08-10.61,10.37-16.15,10.33-5.24,0-9.93-5.38-9.54-10.56.54-7.22,10.67-11,15.73-14.86,20-15.19,36.71-37.67,36.26-63.82-.34-20.2-11.83-39.24-30.43-47.67-23.58-10.7-50.31-3.45-71.34,9.68A152.61,152.61,0,0,0,121,1403.08c-3.09,2.75-6.12,5.31-10.52,4.62a9.39,9.39,0,0,1-7-5.38c-4.3-9.44,7.91-16.22,14.07-20.77A175.83,175.83,0,0,1,142,1366.17c14.28-7.28,30.11-12,46.26-11.1,15.07.85,29.19,7.1,41.09,16.2a126.2,126.2,0,0,1,18.61,18C252.18,1394.14,259.22,1387.05,255,1382.2Z"/><path class="cls-2" d="M331.7,1458.87l-49.07-16,3.5,3.49L277.41,1411l-7.34,5.65,57.78,25.68-2.47-4.32v25.68c0,6.44,10,6.45,10,0V1438a4.92,4.92,0,0,0-2.48-4.32L275.12,1408c-3.89-1.73-8.47,1.12-7.35,5.65l4.12,16.69c1.49,6,2.37,12.73,4.57,18.54,1.63,4.28,8.38,5.16,12.27,6.44l23.67,7.74,16.65,5.44C335.18,1470.52,337.8,1460.87,331.7,1458.87Z"/><path class="cls-2" d="M415.63,1491.89l-67.42-27.06,3.67,4.82v-23.84l-7.52,4.32,65.08,42.5c1.63,1.06,3.14,2.12,4.68,3.32,1,.77,4.87,4.64,5.31,4.6,0,0,3.36-6.52,3.36-6.51a9.84,9.84,0,0,0-1.86-.46c-1.64-.73-3.6-1.11-5.3-1.69-6.11-2.07-8.73,7.58-2.66,9.64,4.14,1.41,11.34,4.73,14.79.34s-1.24-8.6-4.38-11.22a147.22,147.22,0,0,0-14-10l-46.31-30.24-13.66-8.92c-3.23-2.11-7.53.67-7.53,4.32v23.84c0,2.41,1.6,4,3.68,4.83l67.41,27C418.94,1503.93,421.54,1494.26,415.63,1491.89Z"/><path class="cls-2" d="M119.24,1409.56c1.94,3.28,4.82,6.21,7.22,9.13q7.81,9.51,15.73,18.91,18.31,21.87,36.76,43.65c3.88,4.59,7.77,9.17,11.62,13.79,2.06,2.48,5.58-1.08,3.53-3.53-20.42-24.53-41.26-48.71-61.59-73.31-3-3.57-6.62-7.23-8.95-11.16-1.64-2.77-6-.25-4.32,2.52Z"/><polygon class="cls-3" points="610.78 1733.41 545.67 1677.46 601.17 1741.92 610.78 1733.41"/><path class="cls-2" d="M612.55,1731.64l-57-49-8.13-7a2.5,2.5,0,0,0-3.54,3.54l55.5,64.46a2.55,2.55,0,0,0,3.54,0l9.61-8.51c2.41-2.14-1.14-5.67-3.54-3.54l-9.61,8.52h3.54l-55.5-64.47-3.54,3.54,57,49,8.13,7C611.44,1737.26,615,1733.74,612.55,1731.64Z"/></g><g id="Layer_6" data-name="Layer 6"><path class="cls-4" d="M267.56,1039.69c-1.9-.8-4.08-.45-6.08.06-7.76,2-14.77,6.14-21.66,10.22-9.44,5.61-19,11.28-26.86,18.93-4.94,4.8-9.14,10.3-13.44,15.69-6.37,8-13,15.76-19.64,23.54-5.72,6.71-11.48,13.46-18.21,19.16a119,119,0,0,1-14.12,10.07c-12.43,7.77-26.63,14.54-41.16,12.72a38.12,38.12,0,0,1-28.56-19.89,16.38,16.38,0,0,1-2.21-8,17.82,17.82,0,0,1,2.49-7.5,53.76,53.76,0,0,1,8.11-11.55c8.86-9.5,21.19-14.83,33.15-19.9l26.32-11.16c16.93-7.18,35-15.28,44.42-31a31.9,31.9,0,0,0,3.49-7.85,25.8,25.8,0,0,0-9.66-27.26l-8.39,9c4.3,0,10.17,9,9.92,13.28-.5,8.89-6.27,16.81-13.45,22.07s-15.73,8.28-24.13,11.23l-25.32,8.89c-12.73,4.47-25.71,9.07-36.42,17.29s-19,20.82-18.48,34.31c.44,12.63,8.7,24.26,19.75,30.39s24.46,7.13,36.82,4.51c10.89-2.32,21-7.27,30.84-12.55,10-5.39,20-11.28,27.84-19.49,6.83-7.1,11.86-15.69,17.73-23.61,8.89-12,19.69-22.48,30.7-32.61,10-9.2,20.8-18.48,34-21.55,1.68-.39,3.61-.82,4.43-2.34C270.81,1042.88,269.46,1040.5,267.56,1039.69Z"/><path class="cls-2" d="M268.2,1037.36c-5.66-1.55-11.67,1.18-16.77,3.52-6.53,3-12.67,6.84-18.79,10.57a118.27,118.27,0,0,0-32.15,28c-9.63,12.09-19.47,24.12-29.86,35.57a116.53,116.53,0,0,1-36.73,27.1c-13.62,6.41-29.29,8.55-42.38-.27-5.65-3.81-11.69-10.18-13.21-17.06-1.66-7.54,6.34-16.9,11.33-21.74,10.21-9.91,24.23-14.94,37.09-20.39,13.34-5.66,27.13-10.79,39.86-17.75,11.6-6.34,23.12-15.28,28.21-27.9,4.87-12.06.58-25.52-9.64-33.25a2.43,2.43,0,0,0-2.94.38l-8.38,9c-1.55,1.66-.33,3.89,1.71,4.13,2.66.33,5,4.26,6.14,6.39,1.65,3.2,1.45,6.18.37,9.59-2.43,7.69-8.66,13.59-15.44,17.59-7.44,4.39-15.79,7-23.9,9.84s-16.53,5.77-24.78,8.71c-13.87,4.94-28.18,10.57-38.8,21.15-9.49,9.46-15.81,22.77-13.35,36.35,2.31,12.76,11.73,23.62,23.34,29,13.34,6.17,28.71,5.79,42.54,1.48,14.77-4.6,29.64-12.59,42.16-21.63,13.38-9.67,20.94-23.19,30.9-35.94A224.51,224.51,0,0,1,245.06,1060a70.19,70.19,0,0,1,11-7c4.05-2,8.47-2.63,12.54-4.4,5.35-2.33,4.77-8.21.21-11-2.66-1.65-5.09,2.54-2.44,4.19.75.46-.69,2.58-.95,2.76a8.5,8.5,0,0,1-2.22.55,49.46,49.46,0,0,0-5.34,1.84,58.52,58.52,0,0,0-8.48,4.27,114,114,0,0,0-16.69,12.91c-11.37,10.22-22.55,20.89-31.94,33-10,12.9-17.66,26.5-31.44,35.92-12.44,8.51-26.86,16.39-41.43,20.42-14.87,4.12-32.37,3.19-44.74-7-11.55-9.46-16.28-24.65-10.23-38.59,6.34-14.61,20.3-23.42,34.47-29.32,14.74-6.15,30.12-10.79,45.13-16.2,13.21-4.77,27.36-11.36,33.21-25.09,2.22-5.2,3-10.39.44-15.55-2.11-4.24-5.61-8.7-10.58-9.3l1.71,4.14,8.39-9-2.94.38a23.7,23.7,0,0,1,9.29,17.57c.4,7.71-3.59,14.79-8.51,20.45-8.81,10.13-21.27,16.22-33.35,21.52-13.85,6.07-28,11.49-41.72,17.85-12.32,5.71-23.47,13.17-30.66,25-3.11,5.13-5.64,10.51-3.88,16.56,1.56,5.36,5.16,10.34,9.1,14.22a40.69,40.69,0,0,0,32.94,11.38c14.14-1.54,27.13-9,38.67-16.87,12.32-8.44,21.75-19.63,31.35-30.92,11-12.9,20.71-28,33.91-38.71,6.79-5.52,14.42-10,21.93-14.4,3.46-2.05,6.93-4.08,10.54-5.83,4.05-2,10-5,14.59-3.77C269.93,1042.85,271.21,1038.18,268.2,1037.36Z"/><path class="cls-5" d="M174.91,998.1a7.9,7.9,0,0,1,4-2.86,2.74,2.74,0,0,1,2,0c1.63.87.71,3.35-.41,4.8a121.64,121.64,0,0,1-15.49,16.59c-1.4,1.24-3.67,2.42-4.9,1a3,3,0,0,1-.56-2.1,8.67,8.67,0,0,1,4.06-7l1.68-1.57c-1.64,0-3.29-.08-4.94-.06l-.65.81a46.26,46.26,0,0,0-9.88,12.55c-1.61,3-2.84,6.84-.92,9.65,1.78,2.61,5.64,3,8.56,1.84s5.12-3.65,7.21-6q8.26-9.37,16.55-18.74l21.39-24.22q9.66-10.93,19.28-21.9c13.43-15.33,26.72-30.77,40-46.21L329.69,836c-9,4.92-15.41,13.34-22,21.21-10.51,12.62-22,24.37-33.51,36.11L257.93,910c-29.31,29.93-58.65,59.87-89.78,87.89,2.1.15,4.18.39,6.22.72Z"/><path class="cls-2" d="M175.77,999c1.2-1.38,4.67-4.11,4.38-.48-.07.95-3,4-3.73,4.81q-3.39,4-7.11,7.72c-1.23,1.23-2.49,2.46-3.79,3.62-2.32,2.08-6.66,2.67-3.69-2.45.91-1.57,3-3,4.39-4.32a1.23,1.23,0,0,0-.86-2.07c-3.25-.08-4.83-.56-7,1.65a54.6,54.6,0,0,0-8.28,10.16c-2.75,4.55-5.74,12.1.58,15.24,7.28,3.61,13.41-4.44,17.52-9.1l22.18-25.11q45.09-51.06,89.44-102.74l50.79-59a1.22,1.22,0,0,0-1.47-1.9c-7.19,4.15-12.77,10.09-18.06,16.4-5.87,7-11.75,13.93-18,20.62-13.25,14.28-27.09,28-40.73,42-27.73,28.3-55.6,56.51-85,83.06a1.23,1.23,0,0,0,.85,2.07c2.45.19,5.66,1.67,7.62-.15,1.14-1.06-.58-2.77-1.72-1.71-.59.55-5.1-.5-5.9-.57l.86,2.07c29-26.12,56.4-53.83,83.68-81.68,13.43-13.7,27-27.26,40.15-41.26q9.5-10.12,18.33-20.82c5.63-6.8,11.39-13.43,19.13-17.9l-1.47-1.9c-50.08,58.17-100.14,116.33-150.95,173.87q-5.08,5.76-10.18,11.53c-3.09,3.5-6.93,9.41-11.79,10.45l-3.42-.06-3.07-6.18c0-1.2,1-2.89,1.51-3.89a41.52,41.52,0,0,1,4.32-6.56,26.89,26.89,0,0,1,4.78-5.2c1.75-1.25,3-1,5.33-.94l-.85-2.07c-2.87,2.67-7.73,6.5-5.85,11.16,2.45,6.08,9.68-1.94,11.74-4a119.69,119.69,0,0,0,9.4-10.35c1.33-1.65,3.5-3.88,3.25-6.22-.56-5.42-7-1.78-9,.49C173,998.41,174.74,1000.13,175.77,999Z"/><path class="cls-2" d="M152.73,1016.15c.32,4.11,3.5,5.25,6.92,3.14,5.57-3.43,10.5-9.84,14.62-14.81,1.82-2.21,6.87-7.5,3-10.33-3.16-2.34-6.85,1.51-8.93,3.44a1.5,1.5,0,0,0,.66,2.49c1.59.27,3.15.57,4.73.91l-.66-2.49-4.73,3.66c-1.44,1.12-3.65,3.66-5.4,4.18-.51.15-2.44-.83-3.59-.32a10.72,10.72,0,0,0-2.25,2,11.56,11.56,0,0,0-4.41,8.16c-.21,1.9,2.78,1.89,3,0,.29-2.77,1.77-4.42,3.75-6.18,1.3-1.14,1.12-1,2.6-1.11,2-.11,2.4,0,3.93-1.11,3.13-2.3,6.15-4.77,9.23-7.15a1.5,1.5,0,0,0-.66-2.49c-1.57-.33-3.14-.63-4.73-.9l.66,2.49c1.24-1.16,5.06-5.11,4.71-1.3-.18,2-4.4,5.62-5.76,7.15-1.66,1.88-3.39,3.71-5.16,5.49-1,1-2,2-3,2.92-.61.57-5.34,5-5.56,2.19C155.56,1014.25,152.57,1014.23,152.73,1016.15Z"/><path class="cls-4" d="M194.71,872.93a35.73,35.73,0,0,0-8.32-10.32c-18.23-16.28-47.34-18.82-68.11-6-9,5.58-15.76,9.49-20.11,12.83-1.18.91-8.89,10-11.28,10.83-4.21,1.52-6.86,1.44-9.15-2.41s-2.51-8.57-2.14-13c.29-3.57,1-7.25,3.06-10.16s5.89-4.84,9.32-3.81l.87-.49c3.16.14,6.55.22,9.2-1.51s3.79-6,1.35-8a6.73,6.73,0,0,0-3.24-1.24A28.81,28.81,0,0,0,70,887.42c2.49,2.74,5.68,5.05,9.35,5.51,5.31.67,13-1.86,17.38-5,8.28-5.93,13.75-12.59,22-18.52,8-5.72,16.61-11.67,26.43-12.1,8.78-.39,17.11,3.73,24.47,8.52,4.85,3.16,9.57,6.76,12.71,11.62,6.63,10.22,4.91,23.73,1.06,35.29a57.47,57.47,0,0,1-5.9,13c-3.84,6-9.24,10.74-14.82,15.1a177.41,177.41,0,0,1-45.65,25.75c-32,12.23-67.27,15.08-98,30.1-3.47,1.7-7,3.6-9.56,6.45a25,25,0,0,0-5.13,9.65c-3.92,12.75-1.43,27.43,7,37.79s22.58,15.89,35.67,13.32c7.52-1.48,14.32-5.36,21-9.17l29.55-17c8-4.57,16-9.17,23.17-14.85,5.78-4.56,11.14-9.87,17.91-12.77,5.19-2.22,10.82-2.84,16.51-2.92,1.7,0,3.4,0,5.1.06l3.82.14,10.19-7.89c-1.54-.36-3.13-.65-4.72-.9q-3.16-.51-6.42-.74a64.81,64.81,0,0,0-15.81.78c-14.4,2.56-27.07,10.88-38.76,19.68-12.3,9.27-24.23,19.43-38.41,25.41a109.14,109.14,0,0,1-19.32,5.82A45.47,45.47,0,0,1,39.85,1051a25.59,25.59,0,0,1-22.36-36.77c5.65-11.61,18.92-17.15,31.31-20.79,21.55-6.34,43.83-9.91,65.36-16.3s42.77-16,58.32-32.17A174.24,174.24,0,0,0,185,929.81c2.93-3.85,5.9-7.74,7.93-12.14,2.52-5.45,3.5-11.48,4.24-17.45C198.31,891,198.88,881.21,194.71,872.93Z"/><path class="cls-2" d="M196.86,871.67c-13-23.89-47-31.09-70.93-21.6-6.69,2.65-12.67,6.71-18.76,10.47-4.28,2.63-8.88,5.16-12.39,8.81-2.82,2.93-7.47,10.18-12.23,9.18-4.47-.93-4.72-8.21-4.56-12,.19-4.62,1-10.78,5.82-12.85,1.71-.74,5.43-.64,7.44-.73,3-.15,6.08-.38,8.57-2.3,3.44-2.66,4.87-8.34,1.35-11.57-3.85-3.53-11.67-2.59-16.27-1.58a32.48,32.48,0,0,0-16.44,9.19c-8.65,9.1-10.52,22.82-5.56,34.21,2.45,5.62,6.86,11.37,12.76,13.61,5.64,2.14,12.21.55,17.53-1.78,7-3.1,12.64-9,18.26-14a99.56,99.56,0,0,1,21.1-15.13,29.58,29.58,0,0,1,26.59-.73c7.37,3.28,15.53,8.27,20.34,14.89,9.74,13.41,3.75,35.64-5,48.12-5,7.11-12.33,12.58-19.34,17.56a176,176,0,0,1-20.93,12.78c-30.78,16-65.46,19.45-97.89,30.73-13.49,4.69-29.23,9.67-34.13,24.48a44.17,44.17,0,0,0,6,39.25A40.45,40.45,0,0,0,42.55,1067c15.9-1,30.5-12.3,43.86-20,14.88-8.54,29.2-16.94,42.57-27.73,7.66-6.17,15.33-9.28,25.22-9.52,3-.07,7.91,1.09,10.73,0a15.09,15.09,0,0,0,3-2.22l8-6.19c1.48-1.15.6-3.81-1.1-4.18-13.84-3-27.94-2.44-41.11,3s-24.23,14.32-35.38,22.86c-12.14,9.29-24.51,17.74-39.37,22-7.65,2.19-16.46,4.87-24.38,2.69a23.3,23.3,0,0,1-16.11-15.47c-4.74-15.55,7.15-27.09,20.27-32.65,14.31-6.06,30.19-8.86,45.28-12.29,28.16-6.4,57.35-13.58,80.5-31.8a105.43,105.43,0,0,0,17.29-17.53c4.93-6.2,10.41-12.51,13.6-19.82s4.15-15.33,4.79-23.11c.67-8.08.09-15.92-3.35-23.33-1.35-2.92-5.66-.38-4.31,2.52,3.54,7.65,3.24,16.11,2.31,24.3-1,9.1-3,17.33-8.26,24.94-8.93,12.85-19.22,24.71-32.4,33.32-27,17.63-59.51,22.53-90.26,30-21.81,5.32-57.72,15-50.69,45.2a28.39,28.39,0,0,0,25.1,21.4c7.58.61,15.65-1.73,22.83-3.85a91,91,0,0,0,20-8.58c14.56-8.46,26.81-20.24,41-29.18,15.84-9.94,32.83-13.78,51.27-9.82l-1.11-4.18-7.65,5.93a9.63,9.63,0,0,1-1.92,1.49c-1,.36-.21-.36-.76-.33-4,.23-8.06-.24-12.1.12a39.1,39.1,0,0,0-19.28,6.76c-6.48,4.5-12.16,10-18.75,14.38-14,9.31-29.07,17.15-43.64,25.52-7.27,4.17-14.71,8.75-23.14,10a34.38,34.38,0,0,1-21.25-3.87c-13.24-7.11-20.13-22-18.7-36.71.84-8.72,4.26-16.31,12.11-20.71,7.16-4,15.05-6.91,22.82-9.5,29.89-10,61.57-13.76,90.29-27.27A169.46,169.46,0,0,0,168.92,939c11.17-9.65,17.63-22.74,19.79-37.3,2-13.3-1.39-25.39-12.11-33.93S152,852.16,138.15,856c-14.15,3.89-25.39,15.1-36.08,24.49-5.81,5.12-12.61,10.19-20.79,10.07s-13.67-9.08-15.37-16.26a26.36,26.36,0,0,1,21-32.08,25.36,25.36,0,0,1,5-.43c2.94,0,4.61-.44,5,2.57.32,2.34-.08,2.7-2.39,3.35a13.86,13.86,0,0,1-3.28.29c-1.32,0-2.67.34-3.88.4-.84,0-3.44-.16-5.22.55a12.78,12.78,0,0,0-5.65,4.53c-4.89,7-6.62,28.18,4.94,30.16,8.79,1.51,13.45-8.41,19.28-12.93,5.32-4.11,11.44-7.34,17.16-10.84a57.75,57.75,0,0,1,19-7.78,57.15,57.15,0,0,1,39.6,6.43c6.56,3.81,12.45,9,16.11,15.7C194.09,877,198.4,874.5,196.86,871.67Z"/></g><g id="Layer_4" data-name="Layer 4"><path class="cls-5" d="M1731.16,383.51l-27.53-16.09c-2-1.18-2.87-6.71-4.9-7.89l-4,7.4a91.76,91.76,0,0,0-13.48,19,7.73,7.73,0,0,0-1.13,3.32c-.07,2.82,2.66,4.79,5.09,6.21q15.35,9,31.35,16.76c1.23.59,2.6,1.2,3.9.79a5.26,5.26,0,0,0,2.21-1.74A52.63,52.63,0,0,0,1734,389c.19-.79,4.91-4.7,4.73-5.49C1738.41,382.08,1732.45,384.26,1731.16,383.51Z"/><path class="cls-2" d="M1731.79,382.43l-20.64-12.07c-3.3-1.92-7-3.39-8.65-7-.81-1.74-1.39-3.48-2.89-4.76a1.26,1.26,0,0,0-2,.26c-1.84,3.42-3.47,6.68-6,9.64-4.48,5.26-9.94,11.79-12.22,18.38-1.85,5.34,2.71,8.18,6.79,10.57,7.8,4.57,15.79,8.84,23.86,12.91,5.15,2.6,9.59,6.29,14,1.12a52.67,52.67,0,0,0,10-18.11,17,17,0,0,1,4.31-7.27c.65-.73,1.74-1.67,1.56-2.77-.52-3.28-6.8-.6-8.49-1.07a1.25,1.25,0,0,0-.66,2.41,7.17,7.17,0,0,0,2.81.07,15.52,15.52,0,0,1,2.79-.41c1.13.12.65-.59-.09.33-2.33,2.94-3.25,3.52-4.39,7.24-1.68,5.52-4.68,13.15-9.07,17.17-3.57,3.27-6.93,1.44-10.7-.45q-4.61-2.31-9.15-4.72c-5.51-2.91-11-5.9-16.36-9.08-1.14-.68-3.48-1.78-4-2.86-1.15-2.2-.18-5.65.93-7.62q2.07-3.63,4.45-7.06c2.53-3.64,5.86-6.79,8.22-10.5,1.34-2.11,2.39-4.46,3.58-6.66l-2,.25c2.05,1.75,2.18,4.66,3.79,6.7s4.33,3.12,6.53,4.41l22.37,13.07A1.25,1.25,0,0,0,1731.79,382.43Z"/><path class="cls-6" d="M1608.43,618.47c68.12-123.8,111.75-203.94,111.75-203.94-3.07-3.13-35.75-16-38.13-19.13-.12.49-148.84,251.29-162.44,274.23L1487.42,724h0c-3.83,6.47-8.68,14.66-14.11,23.85l-.19.32h0l-50.42,85.25h0C1399.78,872.05,760.45,1958.55,711,2057.15c-1.42,2.84,11.33,11.81,16.54,12.07,4.4.22,15.08-9.73,111.6-128.64,93.81-115.56,405-665.38,631-1072.1h0l.09-.15,14.46-26h0l12.71-22.91h0c10.53-19,20.94-37.74,26.17-47.2h0c30.88-55.71,77.85-140.46,85.12-153.64Z"/><path class="cls-2" d="M1612.75,621q56.05-101.86,111.75-203.94c1-1.83.91-4.59-.78-6.05-5.17-4.47-12.55-6.84-18.68-9.62-5.67-2.57-15-5-19.45-9.51-2.1-2.15-6.47-1.92-7.85,1-5.07,10.68-12.25,20.78-18.26,30.94q-21.24,35.88-42.5,71.75-44.82,75.65-89.68,151.29-22.11,37.3-44.2,74.62l6.84-1.79h0a5.06,5.06,0,0,0-6.84,1.79q-32.38,54.69-64.71,109.41l4.31-2.47c-4.58.42-7.12,7.14-9.23,10.73l-10.83,18.38q-18.27,31-36.53,62.09-60,102-119.88,204.09-78,132.93-155.83,265.94Q1009.61,1527.73,929.12,1666q-68.25,117.27-136,234.83c-27,46.94-54.3,93.77-79.94,141.46-4.17,7.76-10.76,15.56-2.79,23.14,7.81,7.43,17,11.9,25.51,4.85,8-6.63,14.7-15.08,21.46-22.88,18.78-21.69,36.93-43.93,55.09-66.13,28-34.25,54.52-68.58,79-105.45,28.59-43.14,55.84-87.17,82.76-131.36,75.12-123.3,147.37-248.34,219.06-373.65Q1314.43,1158.94,1433,945.59q28.08-50.36,56.06-100.78c1.21-2.18.71-5.69-1.79-6.84h0l1.8,6.84q19.44-35.07,38.88-70.13c1.43-2.58.4-5.16-1.79-6.84h0l1.8,6.84Q1570.48,697.86,1613,621c1.39-2.51.35-6.88-3-7.35l-.28,0c-6.3-.88-9,8.76-2.66,9.65l.29,0-3-7.35q-42.44,76.89-85.13,153.64c-1.43,2.59-.4,5.17,1.8,6.84v0l-1.79-6.85q-19.43,35.08-38.89,70.13c-1.21,2.18-.71,5.69,1.8,6.84h0l-1.8-6.85q-116.11,209.19-234,417.39C1172,1388.33,1097,1519.2,1020,1648.84c-52.7,88.67-105,178.56-165,262.55-30.66,42.88-65.51,83.15-99.74,123.19-7.94,9.29-15.83,18.82-24.76,27.19-1.83,1.71-1.31,2.05-3.8,2.78.68-.2.7-.5,1-.33-2.69-1.58-5.72-2.42-8.33-4.38-.88-.66-2.1-2.22-3-2.63s-1,3.62-.41,1.38c1.57-5.78,6.26-11.92,9.11-17.15q7-12.9,14.23-25.71,20.76-37.12,42-74,62.55-109.36,126-218.2,77.78-133.87,156-267.51,78.48-134.28,157.17-268.44,64.82-110.52,129.74-221,35.72-60.75,71.46-121.48,2.7-4.59,5.41-9.16l-4.32,2.47c3.64-.33,4.66-3,6.38-5.88q4.59-7.74,9.16-15.49l18.65-31.53q17.45-29.5,34.9-59l-6.84,1.79h0a5.07,5.07,0,0,0,6.84-1.8q39-65.82,78-131.63,47.05-79.38,94.09-158.78c7.42-12.54,16.3-25,22.55-38.2l-7.85,1c9.77,10,28,10.4,38.13,19.13l-.79-6.06q-55.59,102.12-111.75,203.93C1601,621.58,1609.64,626.63,1612.75,621Z"/><path class="cls-5" d="M1702.59,344.08c-2.81,4.72-5.71,10.27-3.86,15.45,1.12,3.16,3.83,5.47,6.55,7.45,8.49,6.17,18.1,10.6,27.63,15,1.86.85,3.81,1.72,5.85,1.58,3.94-.29,6.53-4.11,8.48-7.54,13.64-23.92,26.12-48.48,38.6-73l55.74-109.62,9.88-19.43,33.71-66.31c-12.76,4.56-24.58,3-38.12,3.46C1847.05,111.08,1748.25,267.3,1702.59,344.08Z"/><path class="cls-2" d="M1701.51,343.45c-5,8.6-6.83,16.71,1.72,23.54,8.79,7,20,12.63,30.46,16.68,9.49,3.67,13.48-4.95,17.47-12.06,6.58-11.72,12.91-23.59,19.12-35.52,25.14-48.32,49.48-97.08,74.17-145.63l41.8-82.21c.46-.9-.31-2.21-1.41-1.84-8.82,3-17.82,3.35-27,3.34-3.11,0-9.52-1.3-11.91.83-1.67,1.49-2.89,4.58-4.07,6.45q-11.68,18.51-23.33,37.05-38.82,61.79-77.17,123.86c-13.4,21.76-26.74,43.55-39.81,65.51a1.25,1.25,0,0,0,2.16,1.26c24.31-40.85,49.43-81.23,74.56-121.58q31.39-50.4,63.08-100.61,2-3.22,4.07-6.45c.64-1,1.36-2.87,2.29-3.64.18-.14.23-.55.42-.66-.39.22,2.54.48,2.61.48a64.68,64.68,0,0,0,7.1,0c9.45,0,18.67-.38,27.71-3.42l-1.42-1.84L1818,236.93c-21.82,42.9-42.91,86.28-66.22,128.39-2.69,4.84-5.65,13.29-10.77,16s-15.22-3.95-20.15-6.46a104.08,104.08,0,0,1-15-9c-3.19-2.38-6.26-5.23-6.51-9.51s2.27-8.25,4.27-11.68A1.25,1.25,0,0,0,1701.51,343.45Z"/><path class="cls-7" d="M1847.82,111.82l29-.92a14.47,14.47,0,0,0,4.55-.63c3.17-1.16,5.09-4.3,6.76-7.23,9.58-16.72,19.21-33.58,25.46-51.81,1.6-4.64,3-9.41,5.58-13.58,5.5-8.84,15.86-14.14,20.19-23.6a12.43,12.43,0,0,0,1.13-8.27c-.74-2.74-3.19-5.15-6-5.15a10.52,10.52,0,0,0-4.88,1.65l-39.82,21.29a10.47,10.47,0,0,0-3.75,2.8,17.85,17.85,0,0,0-1.42,2.75c-3.33,6.61-11.77,8.49-19.14,9.27s-15.7,1.7-20.19,7.59c-2.68,3.52-3.37,8.1-4.15,12.45-1.67,9.17-4.16,18.28-4.18,27.6s2.89,19.19,10.13,25"/><path class="cls-2" d="M1847.82,112.44l21.26-.67c4.85-.15,11,.79,15-2.39,3.8-3,6-8.47,8.25-12.51,3.38-6,6.72-11.93,9.85-18,5.9-11.46,9.9-23.29,14.69-35.18,4.39-10.92,14.56-16.25,20.91-25.64,3.36-5,6.5-17.88-3.36-18-4.69-.07-9.93,4.27-13.85,6.37l-20.78,11.11c-4.5,2.4-11,4.39-14.27,8.45-1.62,2-2.08,4.37-4.07,6.25-2.63,2.47-6.14,3.73-9.58,4.54-8.49,2-19,.72-25.72,7.3-4.34,4.22-5,10.44-6,16.08-1.3,6.76-2.94,13.49-3.57,20.36-1,11.29,1.08,23.33,10,31.07.6.52,1.49-.36.88-.89-8.17-7.07-10.5-17.93-9.81-28.33.4-6.15,1.73-12.19,3-18.22,1.07-5.34,1.38-11.66,4.25-16.43,5.33-8.87,17.22-7.69,26-9.45a26.11,26.11,0,0,0,9.35-3.51c3.91-2.57,4.8-7.07,8.42-9.82,4.13-3.13,9.79-5.26,14.37-7.71l16.45-8.79c4-2.14,11.57-8.12,16.17-7,6.94,1.76,4.41,10.22,2.17,14.19a33.58,33.58,0,0,1-5,6.53c-5.76,6.06-12.49,11-16.08,18.8-4.48,9.68-7.24,20.07-11.86,29.76-5.31,11.15-11.33,22-17.65,32.66-2.37,4-4.61,6.36-9.63,6.88-3.11.32-6.34.21-9.47.31l-20.29.64c-.81,0-.81,1.28,0,1.25Z"/><path class="cls-2" d="M1847.21,112.06c4.16-12.09,7.62-24.87,13.5-36.27,5.72-11.1,15-18.51,24.58-26.09,10.09-7.94,20.3-15.76,30.27-23.86,8.53-6.92,16.53-14.49,21.54-24.41.36-.71-.72-1.35-1.08-.63-5.48,10.84-14.55,18.78-23.91,26.22-10.62,8.43-21.34,16.73-32,25.15-9,7.16-16.65,14.73-21.63,25.25-5.19,11-8.58,22.86-12.52,34.31-.26.76,1,1.09,1.21.33Z"/><path class="cls-3" d="M1868,116.07l-21.79,32.18a146.07,146.07,0,0,0-9.42,15.2,5.27,5.27,0,0,0-.8,2.72c.15,2.22,3,3.38,5.12,2.67s3.56-2.59,4.88-4.38l9.57-12.92c6.75-9.12,13.6-18.43,17.22-29.18.75-2.23,1.3-4.85,0-6.79s-5.22-1.61-5.27.74"/><path class="cls-2" d="M1867.48,115.75c-9.57,14.13-19.92,28-28.61,42.7-1.7,2.86-5.91,8.28-1.35,10.7,3.52,1.86,6.65-1.3,8.63-3.84,9.16-11.77,19.4-24.2,25.38-38,1.34-3.08,4.85-10,1-12.9a3.51,3.51,0,0,0-5.6,1.71.62.62,0,0,0,1.2.33q5.91,1.84,4.09,5.71c-.37,1.07-.76,2.13-1.18,3.18a69.67,69.67,0,0,1-3.61,7.49,121.84,121.84,0,0,1-7.34,11.47c-2.68,3.78-5.47,7.48-8.22,11.2l-4.25,5.74c-1.28,1.73-2.71,4.66-4.65,5.67q-2.81,3.21-5.6-3.17c.54-1.06,1.11-2.11,1.7-3.15,1.18-2.07,2.45-4.1,3.74-6.1,2.71-4.18,5.55-8.27,8.34-12.39l17.43-25.75c.45-.67-.63-1.29-1.08-.63Z"/><path class="cls-3" d="M1822,187.32c-15.8,17.75-28.47,38-40.59,58.47q-30.63,51.69-57.16,105.67c-2.61,2.21-5.33,5.47-4.15,8.45l-.09.19.09-.18a4.84,4.84,0,0,0,.21.47c1.28,2.34,4.66,2.77,7.07,1.62s4-3.44,5.53-5.64c28.12-41.32,45.93-88.85,73-130.85,9.42-14.63,20.09-28.83,25.53-45.36C1827.64,181.28,1824.7,184.32,1822,187.32Z"/><path class="cls-2" d="M1821.59,186.88c-22.69,25.71-39.66,56.11-56.45,85.83q-13.16,23.25-25.47,47-6.17,11.83-12.12,23.79c-1,2-1.83,4.11-3,6s-2.72,3.16-3.89,5a8.41,8.41,0,0,0-1.31,2.75c.06-.32,0,2.87.12,2.64-.35.71.71,1.35,1.08.63-.41.81-.91,0,0,1.3a4.45,4.45,0,0,0,2.09,1.22,6.94,6.94,0,0,0,4.91-.33c5.2-2.28,8.52-9.75,11.37-14.22,8.42-13.19,15.94-26.92,23.17-40.79,14.61-28,28.07-56.7,45.32-83.23,9.2-14.15,19.15-27.92,24.66-44a.63.63,0,0,0-.77-.77c-4,1.46-6.88,4.17-9.73,7.32-.54.59.34,1.48.89.88,1.58-1.75,3.3-3.87,5.34-5.09,3.2-1.91,2.3-.35,1.28,2.22a113,113,0,0,1-6.78,13.85c-4.31,7.59-9.26,14.8-14.06,22.08a534.79,534.79,0,0,0-27.42,47.53c-8.49,16.3-16.58,32.81-25.3,49-4.28,7.94-8.7,15.81-13.39,23.52q-3.75,6.17-7.73,12.18c-2.21,3.33-10.17,14.52-13.75,6.55a.63.63,0,0,0-1.08,0l-.09.19,1.08.63a3.8,3.8,0,0,0,.15-.67l1.82-5.73a19.75,19.75,0,0,1,2.17-2.12c2.12-3,3.54-7.08,5.18-10.38q5.56-11.08,11.29-22.08,12.12-23.26,25-46.1c16.75-29.62,33.65-59.95,56.27-85.58C1823,187.16,1822.12,186.27,1821.59,186.88Z"/><path class="cls-3" d="M1711.08,377.68"/><path class="cls-2" d="M1711.08,378.3a.63.63,0,0,0,0-1.25.63.63,0,0,0,0,1.25Z"/><path class="cls-3" d="M1711.08,377.68c-4.49-1.2-9.25-1.79-13.42.09a4.48,4.48,0,0,0-2.5,2.23,4.64,4.64,0,0,0-.18,2.16c.47,4.85,3.33,9.69,7.89,11.43s10.55-.58,11.88-5.27C1715.82,384.53,1713.8,380.62,1711.08,377.68Z"/><path class="cls-2" d="M1711.25,377.07c-4.26-1.06-14.41-2.95-16.66,2.69-1.87,4.66,2.62,11.41,6.46,13.63,4.08,2.36,9.79,1.64,12.83-2.11,3.69-4.54,1-10.24-2.36-14-.53-.61-1.41.28-.88.88,3.07,3.52,5.74,9,1.73,13a9.06,9.06,0,0,1-10.69,1.22c-3.17-1.81-6.27-6.33-6.07-10.15.37-7.14,11.49-4.84,15.3-3.88A.63.63,0,0,0,1711.25,377.07Z"/><path class="cls-3" d="M1670.38,474.49s-2.42-8.76-6.67-9.77c-11.07-2.63-28.68,34.84-34.72,47.43-25.74,53.72-217.59,373.21-219,373.27-38.19,60.35-57.9,91.5-47.63,102.06,5.82,6,25.47-.84,25.47-.84s16.39-29.24,42.54-76.4h0q5.3-9.54,11.09-20l-.16-.06c32.75-60,126.73-231.9,131.14-240.22C1587.86,627.06,1670.38,474.49,1670.38,474.49Z"/><path class="cls-2" d="M1671,474.32c-1.13-3.93-3.48-10.22-8.36-10.36s-9.22,5.24-11.94,8.65c-9.4,11.78-15.78,25.88-22.3,39.37-7,14.51-15.09,28.55-23,42.6-27.86,49.47-56.73,98.38-85.64,147.25q-42.3,71.49-85.24,142.6c-7.41,12.25-14.77,24.54-22.41,36.64-14,22.17-29.93,45.82-42.69,69.93-4.6,8.7-11.36,20.09-10.32,30.4,1.15,11.54,14.55,9.58,22.82,7.58,2.41-.58,5.21-.82,6.81-2.67,2.35-2.72,3.88-6.95,5.63-10.08q14.58-26.09,29.08-52.23,9.29-16.72,18.55-33.47a.63.63,0,0,0-.37-.92c1.49.51,9.48-16.11,10.67-18.28q6.42-11.77,12.85-23.53l30.39-55.63q29-53.13,58-106.28c9-16.43,18-32.69,27.48-48.8,17.66-30,34.31-60.6,51.06-91.11q12.47-22.69,24.84-45.44c4.4-8.09,9.57-16.13,13.33-24.55.18-.41.43-.79.64-1.19.38-.7-.69-1.33-1.08-.63q-15.93,29.46-32,58.83c-17.41,31.79-34.81,63.61-52.92,95-9.12,15.82-18.31,31.42-27.06,47.46q-27.7,50.79-55.45,101.56Q1474,829,1445.64,880.9q-2.45,4.47-4.88,9a.62.62,0,0,0,.37.91c-1.88-.63-17.05,29.51-18.77,32.61q-8.28,14.89-16.57,29.8c-5.91,10.62-11.94,21.18-17.77,31.84-.19.35-1.12,1.59-.42,1-1.41,1.1-4.81,1.44-6.47,1.83-5.64,1.32-16,3.76-19.58-2.5-4.51-7.85,2.27-20.29,5.64-27.24,12.5-25.8,28.85-50.4,44.58-74.21,6.39-9.69,12.24-19.77,18.26-29.69q39.45-65,78.13-130.4c29.07-49,58-98.05,86.31-147.5,9.63-16.85,19.25-33.72,28.38-50.84,3.17-6,6.16-12,9.1-18.08,3.41-7,7-14,10.9-20.79,3.74-6.42,7.81-13.34,13.46-18.28,2.32-2,5.25-4.1,8.26-2.42s4.33,5.66,5.21,8.72A.63.63,0,0,0,1671,474.32Z"/><path class="cls-3" d="M1166.66,1354.36c12.4,13.16-25.56,63.91-81.16,150.57-24,37.42-56.52,88.12-92.21,151.55-32.14,57.14-71.19,110.45-100.41,169.14-6.23,12.5-24.4,49.7-35.43,46.91-4.24-1.08-6.52-9.88-6.52-9.88s84.81-151.3,100.59-174c69.67-126.81,189.66-333.88,189.66-333.88S1160.93,1348.28,1166.66,1354.36Z"/><path class="cls-2" d="M1166.22,1354.81c6.73,7.46-2.14,22.8-5.62,29.71-9.52,18.9-21.39,36.66-32.89,54.38-30.19,46.51-60.68,92.82-89.63,140.13-16.86,27.56-32.91,55.56-49,83.59-16.19,28.19-33.88,55.48-51.09,83.05-16.67,26.71-32.75,53.75-46.81,81.94-4.2,8.44-8.54,16.83-13.5,24.86a93,93,0,0,1-9.28,13c-2.24,2.54-5.63,6.48-9.34,6.57-3,.06-4.75-2.73-5.92-5.17a19.71,19.71,0,0,1-1.24-3.14c-.09-.3-.32-1.57-.43-.78a4.88,4.88,0,0,1,.75-1.33c1.62-2.93,3.28-5.85,4.92-8.77q9.92-17.64,19.9-35.26c17.86-31.57,35.78-63.12,54.14-94.41,6.18-10.54,12.31-21.15,19-31.38,10.78-16.49,19.49-34.69,29.11-51.91q36.33-65,73.33-129.7,31.27-54.82,62.79-109.51,9.67-16.8,19.39-33.61l5.22-9a19.61,19.61,0,0,1,1.29-2.23c.49-.62.4-.57.25-.47,2.33-1.47,6.7-1.82,9.32-2.26,4.73-.8,11.47-1.85,15.33,1.72.59.54,1.48-.34.89-.89-5.6-5.17-16-2.43-22.54-.73-2.49.65-3.37.67-4.63,2.52-4.48,6.58-8.09,14-12.06,20.87q-28.39,49.17-56.59,98.44-38.28,66.87-76.12,134Q977,1641.33,959,1673.75c-6.41,11.6-13.4,22.71-20.21,34.07-18.76,31.31-36.75,63.1-54.77,94.85q-11.94,21-23.81,42.13-3.62,6.4-7.22,12.83c-.72,1.28-2.39,3.23-2.64,4.71-.35,2,1.65,5.38,2.67,7,1.54,2.46,3.61,4.31,6.66,3.86,6.77-1,12-9.56,15.53-14.66,13.76-20.18,23.19-43.31,35.19-64.51,16.77-29.64,35.32-58.21,53.35-87.08,18.26-29.25,35-59.36,52.43-89.07,29.83-50.73,61.59-100.32,93.78-149.57,14.36-22,29.06-43.79,42.41-66.41,6.75-11.45,15.9-25.08,17.14-38.74.3-3.32-.14-6.69-2.44-9.25C1166.57,1353.32,1165.68,1354.21,1166.22,1354.81Z"/></g><g id="tablets"><path class="cls-1" d="M537.45,1039.34l-50.76-20.88,19.63-47.72,50.76,20.88C581,1001.44,561.34,1049.16,537.45,1039.34Z"/><path class="cls-2" d="M538.78,1034.52,488,1013.64l3.49,6.15,19.63-47.72-6.15,3.5,40.48,16.64c4.89,2,10.73,3.46,13.91,6.87,5.62,6,3.81,16.22.71,23-3.83,8.36-11.57,16.17-21.31,12.45-6-2.3-8.62,7.36-2.66,9.64,23,8.81,40.32-21.57,36.11-41.1-1.9-8.76-7.94-13.84-15.86-17.1l-25.63-10.54-23.09-9.5c-2.71-1.11-5.23,1.25-6.15,3.49l-19.63,47.72c-1.11,2.71,1.25,5.23,3.49,6.15l50.76,20.88C542.07,1046.61,544.66,1036.94,538.78,1034.52Z"/><path class="cls-3" d="M545.11,1024.91a4.3,4.3,0,0,0,1.86-4.52l-47.5-19.54-1.86,4.53Z"/><path class="cls-2" d="M545.55,1025.35a5.35,5.35,0,0,0,2.05-5,.66.66,0,0,0-.46-.6l-47.5-19.54c-.34-.14-.66.16-.77.44l-1.86,4.52c-.14.34.15.65.43.77L545,1025.52c.74.3,1.06-.91.33-1.21l-42.91-17.65c-1.16-.47-2.38-.89-3.52-1.44-1.53-.74-.58.24-.35-.38a14.43,14.43,0,0,1,1.28-3.11c.63-.89-.47-.21-.33-.21.61,0,1.66.68,2.21.9l24.13,9.93,14.59,6c3.37,1.38,9,1.78,4.29,6.12C544.08,1025,545,1025.9,545.55,1025.35Z"/><path class="cls-3" d="M445.66,978.47A4.27,4.27,0,0,0,443.8,983l47.5,19.54,1.86-4.53Z"/><path class="cls-2" d="M445.21,978a5.37,5.37,0,0,0-2,5,.67.67,0,0,0,.46.61l47.5,19.53c.34.14.66-.16.77-.44l1.86-4.52c.14-.34-.15-.65-.43-.77l-47.51-19.53c-.74-.31-1.06.9-.33,1.2l42.91,17.65c1.16.48,2.38.9,3.51,1.44,1.54.75.59-.24.36.39a14.86,14.86,0,0,1-1.28,3.11c-.63.89.47.2.33.2-.61,0-1.66-.68-2.21-.9L465,991l-14.6-6c-3.36-1.38-9-1.78-4.28-6.12C446.69,978.37,445.81,977.48,445.21,978Z"/><path class="cls-8" d="M459.2,953.84l46.24,19-17.88,43.48-46.25-19C419.55,988.37,437.43,944.89,459.2,953.84Z"/><path class="cls-2" d="M458.53,956.25l46.25,19L503,972.2l-17.88,43.48,3.08-1.75-36.49-15c-4.2-1.73-9.76-3.14-13.24-6.23-6.46-5.75-5.13-16.18-2.08-23.31,3.73-8.74,12-17,22.11-13.14,3,1.15,4.31-3.68,1.33-4.82-19.38-7.35-33.95,18.49-30.36,34.94,1.57,7.2,6.41,11.41,12.94,14.1l23.61,9.71,20.85,8.57c1.35.56,2.61-.62,3.07-1.74l17.89-43.48c.55-1.35-.63-2.62-1.75-3.08l-46.25-19C456.89,950.21,455.59,955.05,458.53,956.25Z"/></g></g></svg>