<svg xmlns="http://www.w3.org/2000/svg" viewBox="0 0 374.55 245.54"><defs><style>.cls-1{fill:#723a29;}.cls-2{fill:#38301f;}.cls-3{fill:#da9b36;}.cls-4{fill:#f5bb3a;}.cls-5{fill:#a5c08a;}.cls-6{fill:#eae3ca;}.cls-7{fill:#c97529;}.cls-8{fill:#979b3d;}.cls-9{fill:#82c6d7;}.cls-10{fill:#ad9689;}.cls-11{fill:#bfcbc8;}.cls-12{fill:#a34a27;}.cls-13{fill:#f26733;}</style></defs><title>bleft</title><g id="Layer_2" data-name="Layer 2"><g id="glasses"><path class="cls-1" d="M349.71,219.27c-8.35-8.2-16.75-16.35-24.65-25-14.25-15.4-27.1-32-39.45-49-7.9-7.4-15.95-1.65-24.05,12.7,1.2,1.8,3.25,4.95,4.5,6.75,5.7,8,12.35,15.2,19,22.35q12.22,13.13,24.5,26.1c13.3,14.05,18.2,18.5,25.1,23.6a140,140,0,0,0,12.2,8l26.75-7.8C364.31,233.47,356.86,226.27,349.71,219.27ZM318,203.57a1.77,1.77,0,0,1-3.4-.4,1.22,1.22,0,0,1,0-.6,2,2,0,0,1,1.8-1.7h.4C316.71,200.77,318.36,202.57,318,203.57Zm6.2,7.75a1.9,1.9,0,0,1-.65.45,1.6,1.6,0,0,1-1.5-.55,2.13,2.13,0,0,1-.7-1.15,1.52,1.52,0,0,1,.3-1.3,2.24,2.24,0,0,1,1.95-.35s1.05,1.15,1.05,1.6A2,2,0,0,1,324.16,211.32Zm7.2,7.3a1.7,1.7,0,1,1-1.6-3,1,1,0,0,1,.65,0c.2.1,1.6,1.2,1.55,1.9A1.52,1.52,0,0,1,331.36,218.62Zm8.55,6.7a2.51,2.51,0,0,1-2.05,1.1,2.15,2.15,0,0,1-1.35-.4,1.74,1.74,0,0,1,0-2.45c.75-.7,3-.4,3-.4A1.68,1.68,0,0,1,339.91,225.32Z"/><path class="cls-2" d="M350.31,218.67c-14.3-14-28.3-28.25-40.95-43.8-6.3-7.7-12.35-15.6-18.25-23.6-3.5-4.75-7.15-11.1-14.1-10-7.65,1.25-12.75,10.15-16.25,16.2a1,1,0,0,0,0,.9,174.51,174.51,0,0,0,11.1,15.25c4.75,5.7,9.85,11.15,14.95,16.55,10.35,11.1,20.65,22.3,31.35,33.1a139.33,139.33,0,0,0,19.15,16.4c2.35,1.6,4.7,3.15,7.15,4.65,1.1.65,1.85,1.35,3.1,1.2a65.59,65.59,0,0,0,7.4-2.15c6.3-1.85,12.65-3.65,19-5.5a.89.89,0,0,0,0-1.7c-9.3-3.65-16.55-10.65-23.6-17.5a.88.88,0,0,0-1.25,1.25c7.25,7.1,14.75,14.2,24.35,18v-1.7c-3.8,1.1-7.65,2.2-11.45,3.35-4.8,1.4-9.55,3.1-14.45,4.2a3.23,3.23,0,0,1-.65.2c-.5,0,.2,0,0-.1-2-.6-4.15-2.5-5.85-3.65a116.9,116.9,0,0,1-9.6-6.95A169.74,169.74,0,0,1,316.26,219c-8.4-8.65-16.6-17.5-24.85-26.3s-16.5-17.25-23.55-26.9c-1.3-1.8-2.55-3.6-3.75-5.45-.4-.6-1.45-1.6-1.5-2.3-.05-1,1.85-3.25,2.35-4,2.45-3.75,5.5-7.9,9.6-10.05a8.7,8.7,0,0,1,10.85,2.5c3.7,4.6,7,9.6,10.65,14.35,7.75,10.15,15.75,20.1,24.25,29.6,9.15,10.25,18.95,19.9,28.75,29.5A.88.88,0,0,0,350.31,218.67Z"/><path class="cls-2" d="M317.21,203.12a.93.93,0,1,1-1.75-.6c.35-1,1.25-.5,1.9-1h-1.25c.4.35,1.15,1.3,1,1.85-.35,1.1,1.35,1.55,1.7.45s-.55-2.8-1.45-3.55a.92.92,0,0,0-1.25,0c.2-.1.4-.15.6-.25a2.88,2.88,0,0,0-3,3.7,2.67,2.67,0,0,0,5,.3C319.21,203,317.71,202.07,317.21,203.12Z"/><path class="cls-2" d="M323.51,210.72c-.5.5-1.35-.3-1.45-.9-.15-.8.95-.55,1.45-.5-.2-.1-.4-.15-.6-.25.4.45,1.1,1.05.6,1.65-.7.9.55,2.15,1.25,1.25a2.45,2.45,0,0,0,.65-2.15,3.29,3.29,0,0,0-.7-1.3,2.49,2.49,0,0,0-.75-.85,3.32,3.32,0,0,0-2.2,0,2.3,2.3,0,0,0-.95,3.55c.95,1.35,2.7,2,3.95.75C325.56,211.17,324.31,209.92,323.51,210.72Z"/><path class="cls-2" d="M330.91,217.87a.82.82,0,1,1-1-1.3c.15-.15.1-.15.3,0a4.06,4.06,0,0,1,.5.45,1.72,1.72,0,0,1,.45.6s0-.15-.05,0-.2.3-.35.45c-.85.75.4,2,1.25,1.25a2.35,2.35,0,0,0,.85-2.05,2.65,2.65,0,0,0-.8-1.35,5,5,0,0,0-1.1-1,1.93,1.93,0,0,0-2,.3,2.59,2.59,0,0,0,2.95,4.25C332.71,218.77,331.86,217.22,330.91,217.87Z"/><path class="cls-2" d="M339.11,224.87c-.35.55-1.65,1-2.15.4a.75.75,0,0,1,.45-1.2,5.11,5.11,0,0,1,1.75,0c.6,0-.05-.05-.05,0a2.08,2.08,0,0,1,.1.3.69.69,0,0,1-.1.55c-.55,1,1,1.9,1.5.9.6-1.2.4-3.3-1.25-3.5a5.15,5.15,0,0,0-3.35.5,2.57,2.57,0,0,0,0,4,3.42,3.42,0,0,0,4.6-1C341.31,224.82,339.76,223.92,339.11,224.87Z"/><path class="cls-3" d="M270.86,119a22.27,22.27,0,0,0-7.7-7.85,21,21,0,0,0-5.15-2.1,29.93,29.93,0,0,0-14.25-.8,22.78,22.78,0,0,0-12.4,6.8,36.47,36.47,0,0,0-3.8,5.3c-2.4,3.95-4.7,8.3-4.8,12.85a12.42,12.42,0,0,0,0,4.3,21.74,21.74,0,0,0,1.8,5.25c2,4.3,4.45,8.55,8,11.75A25.1,25.1,0,0,0,256,160a26.89,26.89,0,0,0,17.55-16.75A28.83,28.83,0,0,0,270.86,119Z"/><path class="cls-2" d="M271.61,118.57A22.83,22.83,0,0,0,259,108.42a30,30,0,0,0-17.8-.45,23.89,23.89,0,0,0-12.65,9.2c-3.6,5.1-6.35,10.5-6.8,16.75-.45,5.9,2.8,11.9,6.15,16.6a26,26,0,0,0,12.1,9.6,26.3,26.3,0,0,0,28.9-7.4c8.4-9.5,9-23.4,2.7-34.15a.87.87,0,0,0-1.5.9c5.2,8.9,5.55,20.2-.15,29a24.86,24.86,0,0,1-24.75,11.25C234.61,158,227,149.07,224,139.07c-1.7-5.55.45-11.6,3.2-16.4,2.6-4.55,5.55-8.7,10.25-11.25,5.65-3,12.35-3.45,18.6-2a21.74,21.74,0,0,1,14.05,10C270.71,120.42,272.21,119.52,271.61,118.57Z"/><path class="cls-4" d="M255.61,103.67c-1.4-.6-2.7-1.35-4.1-2a39.53,39.53,0,0,0-5.8-2c-1.35-.35-2.65-.75-4-1.1-.05,0-.1-.05-.15,0a.5.5,0,0,0-.2.25,11.61,11.61,0,0,0-.55,3.2c0,1.75.7,5.5-.2,7,1.85-2.35,13.55-1.55,28.15.1a15.26,15.26,0,0,0-6.25-3.4A52.5,52.5,0,0,1,255.61,103.67Z"/><path class="cls-2" d="M256.06,102.92a72.7,72.7,0,0,0-7.6-3.3,34.11,34.11,0,0,0-7-1.9.82.82,0,0,0-.75.45c-2.15,3.1.5,7.3-.9,10.5-.4.85.65,1.85,1.4,1,1.85-2,7.3-1.25,9.7-1.15,6,.2,11.9.85,17.8,1.55.75.1,1.15-1,.6-1.5-3.75-3.5-8.9-3.9-13.5-5.75-1.05-.4-1.5,1.3-.45,1.7,4.25,1.7,9.25,2.05,12.75,5.3l.6-1.5a187.49,187.49,0,0,0-19.8-1.55c-2.55,0-7-.4-9,1.7.45.35.9.7,1.4,1a8.4,8.4,0,0,0,.55-3.85c-.05-1-.85-5.25.1-5.75s4.8,1,6,1.45a70.94,70.94,0,0,1,7.2,3.1C256.16,104.87,257.06,103.37,256.06,102.92Z"/><path class="cls-4" d="M283.91,132.32c-.65-1.15-1.35-2.2-2-3.3-2.55-4.45-3.65-9.8-7.15-13.55a9.51,9.51,0,0,0-1.5-1.65c2.5,12.65,3.55,24.05.1,31.65a10.27,10.27,0,0,0,4.15-1.6,12.32,12.32,0,0,1,1.7-1.1,5,5,0,0,1,5.6.95c.3.3.85.65,1.1.3a.37.37,0,0,0,0-.25A18.23,18.23,0,0,0,283.91,132.32Z"/><path class="cls-2" d="M284.66,131.92a94,94,0,0,1-5.1-10,23.65,23.65,0,0,0-5.75-8.65.88.88,0,0,0-1.45.85c1.9,9.7,4.3,21.5.2,30.95a.91.91,0,0,0,1,1.3,11.88,11.88,0,0,0,3.4-1.15c1.4-.7,2.55-2,4.2-2.05s2.3,1,3.6,1.6a1.38,1.38,0,0,0,1.45,0c1.4-.8.9-4,.8-5.3a20.69,20.69,0,0,0-2.35-7.6c-.5-1-2.05-.1-1.5.9a18.07,18.07,0,0,1,2.15,8.05c0,.55,0,1.15-.05,1.7-.05.75.35.45-.05.35s-1.25-.9-1.8-1.1c-3.9-1.45-6.65,2.2-10.3,2.9l1,1.3c4.3-10,2-22.05,0-32.35-.5.3-1,.55-1.45.85,2.8,2.5,4.45,5.9,5.85,9.3a77.6,77.6,0,0,0,4.7,9.05C283.71,133.77,285.26,132.87,284.66,131.92Z"/><path class="cls-1" d="M156.11,57.37c-.85-1-1.7-2-2.6-3.1a2.22,2.22,0,0,1-.7-1.4c0-.65.55-1.15,1.05-1.6a53.71,53.71,0,0,0,7-7.3c2.85,1.35,4.45.75,3.35-4.2,1.5-1.75,3.65-3.9,5.1-5.65,1.95,2.05,4,4.05,6.15,5.9a19.39,19.39,0,0,0-5.35,3,33.87,33.87,0,0,0-2.8,2.55,65.7,65.7,0,0,0-6.95,7.5c-.65.85-1.3,1.75-2,2.6-1.25,1.4-2.9,2.65-3.35,4.5a5.25,5.25,0,0,0,.9,4.1,15.74,15.74,0,0,0,3,3.1,81.85,81.85,0,0,1,8.75-12.3,40.13,40.13,0,0,1,11.75-9.35,1.8,1.8,0,0,0,.5-.35c.35-.45-.05-1.1-.45-1.55a44.85,44.85,0,0,0-3.85-3.7"/><path class="cls-2" d="M156.76,56.72a10.71,10.71,0,0,1-2-2.5c-.9-2.25.65-3,2-4.35a53.39,53.39,0,0,0,4.8-5.3l-1.05.15c1.65.75,3.9,1.35,4.75-.8.5-1.3-.25-2.65.05-3.85.2-.85,1.55-1.85,2.15-2.55.85-1,1.7-1.85,2.55-2.85h-1.25c2,2,4,4,6.15,5.9.15-.5.25-1,.4-1.45-6.9,2.7-12.05,9-16.5,14.65-1.65,2.1-4.45,3.95-4.65,6.9s2.1,5.35,4.2,7.25a.88.88,0,0,0,1.4-.2c3.9-6.35,8.15-12.65,14.05-17.35a29.23,29.23,0,0,1,4.65-3.15c.75-.45,1.95-.8,2.35-1.65,1-2.15-3.25-5-4.5-6.1-.85-.75-2.1.5-1.25,1.25s3.25,2.35,3.6,3.65c.6.5.5.8-.35,1-.25.15-.5.25-.75.4-.75.4-1.45.85-2.15,1.3a41.79,41.79,0,0,0-6.3,5.25c-4.3,4.3-7.7,9.45-10.9,14.6.45-.05.9-.1,1.4-.2-2.5-2.2-5.1-5.15-2.45-8.35,1.6-2,3.25-3.8,4.85-5.75,3.7-4.55,8.3-9.55,13.8-11.7.55-.2.95-1,.4-1.45-2.15-1.9-4.15-3.85-6.15-5.9a.88.88,0,0,0-1.25,0c-1,1.15-2.05,2.3-3.1,3.4-.65.7-1.9,1.65-2.2,2.55-.65,1.8,1.55,5.45-2.1,3.8a.83.83,0,0,0-1,.15,54.46,54.46,0,0,1-3.9,4.4c-1.15,1.15-2.8,2.2-3.7,3.5-1.8,2.5,1.35,4.85,2.85,6.7C156.21,58.87,157.46,57.62,156.76,56.72Z"/><path class="cls-1" d="M184.21,49.47a16.21,16.21,0,0,0-4.2-3.85c-8.4,3.9-15.25,11.1-20.5,21.5a4.69,4.69,0,0,0,1.35,4.3,12.61,12.61,0,0,0,3.95,2.5,1.55,1.55,0,0,0,.4.1c.2,0,.25-.3.3-.5a25,25,0,0,1,7-12.4,64.46,64.46,0,0,1,11.35-8.8,2,2,0,0,0,.95-1C185,50.72,184.61,50,184.21,49.47Z"/><path class="cls-2" d="M184.86,48.87c-.9-1.15-2.8-3.6-4.35-3.95-1.15-.25-2.3.7-3.3,1.25a36.8,36.8,0,0,0-7.9,5.95,49.24,49.24,0,0,0-7.2,8.9c-1.7,2.7-4.45,5.95-3,9.25a7.9,7.9,0,0,0,3.25,3.4c.8.5,2.4,1.65,3.4,1.15s1-2.45,1.3-3.35A21.46,21.46,0,0,1,170,65.62c2.75-4.05,6.6-7.2,10.6-10,2.35-1.65,6.65-3.15,4.45-6.55-.6-1-2.15,0-1.5.9,1.1,1.7-2.5,3.25-3.45,3.9-1.15.8-2.35,1.65-3.45,2.55a38.63,38.63,0,0,0-6.8,6.6,26.4,26.4,0,0,0-3.9,6.55c-.25.6-.45,1.25-.65,1.9-.1.4-.2.75-.3,1.15,0,.85-.15,1-.25.55-.95,0-3.65-2.5-3.9-3.35-1.05-3.2,2.4-7.35,4.15-9.8a47.09,47.09,0,0,1,5.6-6.6,37.94,37.94,0,0,1,6.1-4.8c.7-.45,2.45-1.85,3.25-1.8,1.3.1,3,2.45,3.75,3.4C184.31,51,185.56,49.72,184.86,48.87Z"/><path class="cls-1" d="M240.86,99.77c-3.5.25-6.75-1.7-9.75-3.6l-11.6-7.4c-2.25-1.45-4.5-2.85-6.6-4.5s-3.9-3.3-5.8-5c-6.7-6.15-13.4-12.3-19.45-19-1.9-2.1-3.85-4.6-3.65-7.45-8.35,4.1-14.65,10-17.75,19.1a238.09,238.09,0,0,0,58.35,51.95,60,60,0,0,1,15.95-16.35Z"/><path class="cls-2" d="M240.86,98.87c-5.9.15-11.6-5-16.35-8-5.35-3.4-10.65-6.7-15.4-11-4.4-4-8.8-8-13.05-12.25-2.25-2.2-4.45-4.45-6.55-6.75s-4.65-4.85-4.65-8.2a.87.87,0,0,0-1.3-.75,37,37,0,0,0-13.85,11.25c-1.6,2.25-3.6,5.25-4.15,8-.25,1.2.4,1.6,1.2,2.55,1.25,1.55,2.55,3.1,3.9,4.6a236.82,236.82,0,0,0,33,31.55,246.63,246.63,0,0,0,20.6,14.55.94.94,0,0,0,1.2-.3,58.5,58.5,0,0,1,7.55-9.3c1.4-1.4,2.85-2.7,4.4-4,1-.85,3.2-1.85,3.9-3,.55-.9.25-2.7.3-3.65.05-1.5.1-3,.2-4.55.05-1.15-1.7-1.15-1.75,0,0,1.45-.1,2.9-.15,4.3a15.67,15.67,0,0,1-.1,2.65c-.2.95-.35.45-1.5,1.35a61.22,61.22,0,0,0-14.35,15.25l1.2-.3a240.93,240.93,0,0,1-41.8-33.5q-4.73-4.73-9.15-9.75c-1.35-1.5-2.65-3-3.95-4.55a28.11,28.11,0,0,1-2.2-2.65c-.8-1.3-.5-1.6.15-3.1,3.25-7.3,9.25-12.45,16.3-16-.45-.25-.9-.5-1.3-.75,0,5.65,5.75,10.2,9.4,13.9,4.95,5,10.15,9.8,15.4,14.55,4.95,4.5,10.55,7.95,16.15,11.55,5,3.15,10.6,8.1,16.8,8A.88.88,0,0,0,240.86,98.87Z"/><path class="cls-4" d="M266,164.67h-11.5l-5.15-3,11.5-2.9Z"/><path class="cls-2" d="M266,163.82h-9.85a7.51,7.51,0,0,1-1.5,0c.5.1-.15-.15-.65-.45-1.4-.8-2.8-1.6-4.15-2.4-.05.55-.15,1.05-.2,1.6a107.51,107.51,0,0,0,10.5-2.65c.1,0,.7-.1.75-.2.15-.3-.55-.35-.55-.15,0,.4,1.3,1.45,1.5,1.75,1.15,1.35,2.35,2.65,3.5,4,.75.85,2-.4,1.25-1.25-1.7-1.95-3.4-3.9-5.15-5.85a.89.89,0,0,0-.85-.25c-3.85.95-7.65,1.9-11.5,2.9a.88.88,0,0,0-.2,1.6c2.1,1.2,4.2,3.1,6.7,3.1H266A.88.88,0,1,0,266,163.82Z"/><path class="cls-4" d="M220.46,121.47l1.2,13.05,3-10.15Z"/><path class="cls-2" d="M219.56,121.47l1.2,13.05a.9.9,0,0,0,1.75.25c1-3.4,2-6.75,3-10.15a1,1,0,0,0-.4-1c-1.4-1-2.75-2-4.15-2.9-.95-.65-1.8.85-.9,1.5,1.4,1,2.75,2,4.15,2.9-.15-.35-.25-.65-.4-1-1,3.4-1.95,6.75-2.95,10.15.6.1,1.15.15,1.75.25l-1.2-13.05C221.21,120.37,219.46,120.37,219.56,121.47Z"/><path class="cls-5" d="M271.21,131.07a22.9,22.9,0,0,0-2-6,26.61,26.61,0,0,0-2.55-4.7,20.13,20.13,0,0,0-11.6-7.55,23.08,23.08,0,0,0-17.8,2.6,21.86,21.86,0,0,0-9.7,17.55,25.26,25.26,0,0,0,7.8,18.7s7,7.75,21.75,4.4c4.45-1,7.75-4.9,10.2-8.75a27.25,27.25,0,0,0,4.1-12.85C271.36,133.37,271.36,132.22,271.21,131.07Z"/><path class="cls-2" d="M271.61,131c-.95-5.5-4-11.45-8.45-14.8a23.29,23.29,0,0,0-13.7-4.5,21.88,21.88,0,0,0-21.7,16.45c-2.25,8.6,1,18.25,7.5,24.25,4.85,4.45,12,5.6,18.35,4.85,5.9-.7,9.75-3.45,13.1-8.3a26.91,26.91,0,0,0,4.9-17.8c-.05-.55-.95-.55-.9,0,1,9.35-4.6,22.75-14.75,24.8-6.45,1.3-13.9.7-19.25-3.45-5.5-4.25-8.85-11.75-8.85-18.65A21.13,21.13,0,0,1,244.71,113a23.35,23.35,0,0,1,16.25,2.8c5.3,3.2,8.7,9.45,9.8,15.45C270.86,131.77,271.71,131.52,271.61,131Z"/><path class="cls-2" d="M234.31,122.42c1.4,1.35,2.75,2.75,4,4.2.35.45,1-.2.6-.6-1.25-1.45-2.6-2.85-4-4.2A.42.42,0,0,0,234.31,122.42Z"/><path class="cls-2" d="M236.66,121.37c.4-1,2-3.4,3-1.75a3.81,3.81,0,0,1,.1,3.45.48.48,0,0,1-.3.45,5.23,5.23,0,0,1,.85-.2,7.73,7.73,0,0,0,1.15-.3,2.25,2.25,0,0,0,1.2-1.15c.25-.5-.5-1-.75-.45-.65,1.3-2.25.75-3.25,1.45a1.06,1.06,0,0,0-.45,1.4,1,1,0,0,0,1.35.4c.7-.3,1-1.25,1.15-1.9.4-1.45.25-4-1.45-4.55s-3,1.7-3.5,2.9C235.56,121.67,236.41,121.92,236.66,121.37Z"/><path class="cls-2" d="M259.46,141.57a5.75,5.75,0,0,0,1.2,5.55c1.3,1.15,3.1.25,3.65-1.25.4-1.15-.2-3.25-1.8-2.6s-1.05,2.85-.45,4c.25.5,1,0,.75-.45s-.85-2-.25-2.55c.8-.65,1.05.5,1,.95a1.85,1.85,0,0,1-.7,1.2c-1.25,1-2.15-.45-2.5-1.55a5.28,5.28,0,0,1-.05-3.05A.44.44,0,0,0,259.46,141.57Z"/><path class="cls-2" d="M246.71,120.37c-.6-.8-.6-2.2-.75-3.1a11.72,11.72,0,0,1-.3-3.5c.05-.55-.8-.55-.9,0a11.5,11.5,0,0,0,.35,3.7c.2,1,.2,2.45.85,3.3C246.31,121.27,247.06,120.82,246.71,120.37Z"/><path class="cls-2" d="M254.61,119.82c.35-1.45.7-2.9,1.1-4.35a.44.44,0,0,0-.85-.25c-.4,1.45-.8,2.9-1.1,4.35C253.66,120.12,254.46,120.37,254.61,119.82Z"/><path class="cls-2" d="M260.06,123.42a38,38,0,0,0,3.55-3.4c.4-.4-.25-1-.6-.6-1.15,1.2-2.3,2.3-3.55,3.4C259,123.17,259.61,123.82,260.06,123.42Z"/><path class="cls-2" d="M262.26,130.17a17.56,17.56,0,0,0,6.35-1.65c.5-.25.05-1-.45-.75a17.4,17.4,0,0,1-5.9,1.5C261.71,129.32,261.71,130.22,262.26,130.17Z"/><path class="cls-2" d="M264,137.57a20.71,20.71,0,0,1,4.6.85.44.44,0,0,0,.25-.85,21.94,21.94,0,0,0-4.8-.85C263.41,136.62,263.41,137.52,264,137.57Z"/><path class="cls-2" d="M253.41,148.27q1.05,2.78,1.8,5.55a.44.44,0,0,0,.85-.25,51.36,51.36,0,0,0-1.8-5.55C254.06,147.52,253.21,147.77,253.41,148.27Z"/><path class="cls-2" d="M245.86,149.42a21.8,21.8,0,0,1-1.45,4.65c-.25.5.55,1,.75.45a22.87,22.87,0,0,0,1.55-4.85C246.81,149.12,246,148.87,245.86,149.42Z"/><path class="cls-2" d="M236,149.42c1.05-1.35,2.1-2.7,3.2-4,.35-.45-.25-1.05-.6-.6q-1.73,2.1-3.3,4.2C234.91,149.42,235.71,149.87,236,149.42Z"/><path class="cls-2" d="M233.21,139.32a32.19,32.19,0,0,1,3.7-1.25.44.44,0,0,0-.25-.85c-1.25.35-2.5.8-3.7,1.25C232.46,138.67,232.71,139.52,233.21,139.32Z"/><path class="cls-2" d="M231.16,129.22c1.8-.35,3.55.6,5.4.65.55,0,.55-.85,0-.9-1.9-.05-3.7-.95-5.6-.6A.44.44,0,1,0,231.16,129.22Z"/><path class="cls-2" d="M250.76,133.47c-1.45-1.55-2.65,1.9-.35,2a1.09,1.09,0,0,0,1.05-1.6c-.1-.25-.55-.25-.7-.4a6.53,6.53,0,0,1-.35-.95c-1.45-4.6-2.1-9.6-3-14.35-.1-.55-.95-.3-.85.25.5,2.6,1,5.25,1.55,7.85l1.35,6a11.52,11.52,0,0,0,.3,1.4c.1.25.85,1,.4.45C250.51,134.52,251.16,133.92,250.76,133.47Z"/><path class="cls-2" d="M250.91,133.82c.5-1.6,1-3.2,1.45-4.8a21.15,21.15,0,0,0,1.2-3.4c.1-.55-.75-.8-.85-.25a21.15,21.15,0,0,1-1.2,3.4c-.55,1.6-.95,3.2-1.45,4.8A.44.44,0,1,0,250.91,133.82Z"/><path class="cls-6" d="M274.46,110.82a4.6,4.6,0,0,0-.3-1.65A3.78,3.78,0,0,0,273,108a3.48,3.48,0,0,0-1.95.15,5.79,5.79,0,0,0-1.3,1.15,13.05,13.05,0,0,1-1.35,1,17,17,0,0,0-2.15,2.1l3.6-3.15a2,2,0,0,0,0,.55,2.48,2.48,0,0,0,1.25,2.7,2.26,2.26,0,0,0,2.1.25A2.05,2.05,0,0,0,274.46,110.82Z"/><path class="cls-2" d="M274.71,110.82c-.1-1.7-1-3.3-2.9-3.1-1.2.15-1.75,1-2.7,1.75a20,20,0,0,0-3.05,2.75.21.21,0,0,0,.3.3l3.6-3.15-.4-.15c0,1.65.25,3.4,2.25,3.85a2.4,2.4,0,0,0,2.9-2.25c0-.3-.4-.3-.45,0-.2,2.35-3,2.25-4,.55a5.1,5.1,0,0,1-.25-2.15.23.23,0,0,0-.4-.15l-3.6,3.15.3.3a22.85,22.85,0,0,1,3.3-2.9c.8-.65,1.45-1.6,2.6-1.5,1.45.1,2,1.4,2.05,2.65C274.31,111.12,274.71,111.12,274.71,110.82Z"/><path class="cls-2" d="M270,116.42a33.49,33.49,0,0,0,3.55-3.5c.15-.2-.15-.55-.3-.3a33.55,33.55,0,0,1-3.55,3.5C269.46,116.27,269.76,116.62,270,116.42Z"/><path class="cls-2" d="M313.26,150.87a.23.23,0,1,0,0-.45C313,150.47,313,150.87,313.26,150.87Z"/><path class="cls-7" d="M286.16,138.27c-.75-2.2,1.4.5-3.7-8.3-4.35-7.45-5-11-7.75-14.5a19.12,19.12,0,0,0-1.75-2,.17.17,0,0,1-.1,0,4,4,0,0,1-.8.8c-.25.2-.45.5-.75.75a1.56,1.56,0,0,1-.45.35c-.05,0-.05,0-.1,0a.69.69,0,0,1-.2.15c-.05.05-.15.05-.2.1a.52.52,0,0,1-.55.2,2.24,2.24,0,0,1-1.3-1.15c-.05,0-.05,0-.1,0a9.24,9.24,0,0,0-.7-.7,1.67,1.67,0,0,1-.65-.35.43.43,0,0,1-.15-.3c-.05,0-.05,0-.1,0a.54.54,0,0,1-.4-.65,2,2,0,0,1,.85-1.15,1.33,1.33,0,0,1,.25-.3,9.13,9.13,0,0,1,.8-.65,8,8,0,0,1,.65-.65l-1.2-.9c-2.75-2-4.85-2.35-12.2-5.25-5.75-2.25-14.45-5-14.6-4.6-.1.15.65.5,1.2,1.7a8.91,8.91,0,0,0,3.55,3.65,26.52,26.52,0,0,0,4.75,2l3,1c12.3,3,20,10,21.7,21.85a28.14,28.14,0,0,0,1.9,5.55c.4.85,3.65,7.7,6.45,7.3.05,0,2.1,2.2,2.45,1.6C286.51,142.92,286.36,138.82,286.16,138.27Z"/><path class="cls-2" d="M286.41,138.17c-.2-.6-.1-1.15-.25-1.75-.55-2.4-2.55-4.9-3.75-7-1.85-3.25-3.4-6.7-5.05-10-.85-1.7-2.6-5.4-4.45-6.15-.05,0-.15,0-.2,0-.45.55-1.3,1.7-2,1.9-1,.35-1.85-.65-2.65-1.3-.3-.25-.9-.55-1.05-.9-.5-1.1,1.55-2.5,2.1-3.1.1-.1.1-.25,0-.3-4.2-3.3-9.5-4.7-14.45-6.55-3.2-1.2-6.4-2.3-9.65-3.25-.85-.25-3.25-1.4-4.2-1a.18.18,0,0,0-.1.25,11.43,11.43,0,0,0,1.4,2.05,9.6,9.6,0,0,0,2.85,3c2.75,1.85,6.3,2.85,9.45,3.7,6.15,1.65,12.1,4.7,16,9.9s3.8,11.55,6.5,17.2a30.82,30.82,0,0,0,2.8,4.8,8.64,8.64,0,0,0,2,2.05,17.2,17.2,0,0,0,1.85.7c.7.4,1.65,2.1,2.55,1.35,1.1-.75.55-4.55.35-5.65-.05-.3-.5-.15-.4.1a10.92,10.92,0,0,1,.15,2.85c0,.6.15,1.85-.45,2.1s-1-.5-1.5-.85c-.25-.15-.4-.4-.65-.5-.75-.35-1.35-.25-2.05-.85a10.9,10.9,0,0,1-1.7-2,26.31,26.31,0,0,1-2.85-5.2c-1.3-3.1-1.6-6.35-2.65-9.5a23.37,23.37,0,0,0-8.1-11.45c-4.5-3.45-9.65-4.65-14.85-6.5a27.22,27.22,0,0,1-5.45-2.25c-1.9-1.15-2.55-2.6-3.85-4.2-.65-.85-1.1-.85.1-.55s2.1.55,3.15.9c5.9,1.8,11.65,4,17.45,6.2,1.4.55,4.8,1.5,5.3,3.15.35,1.2-1.15,1.3-1.5,2.45-.15.5-.25.5-.05,1a5,5,0,0,0,1.1,1c.55.5,1.45,1.85,2.3,2,1.4.15,1.85-1.8,2.9-2,1.9-.3,4.35,5.65,5,7,1.5,3.2,3.05,6.35,4.8,9.4,1.05,1.85,2.8,4.05,3.25,6.2a8.75,8.75,0,0,0,.2,1.6C286.06,138.57,286.46,138.47,286.41,138.17Z"/><path class="cls-4" d="M161.56,44.12c-2.45-3.2-4.95-6.3-7.6-9.35a6.15,6.15,0,0,0,1-2.15c2.8,2.35,5.6,4.65,8.45,7a1.08,1.08,0,0,1,.45.6,3.27,3.27,0,0,1,0,.7,10.68,10.68,0,0,0,.3,1.75,2.16,2.16,0,0,1-1.05,2.2,1.42,1.42,0,0,1-1.95-1"/><path class="cls-2" d="M161.76,44c-1.35-1.75-2.65-3.45-4-5.15-.6-.7-4.8-5-2.45-5.5.7-.15,2.2,1.5,2.75,2l2.8,2.35c.9.75,2.2,1.5,2.65,2.6a2.4,2.4,0,0,1,.25,1.15c0,.1,0,.2,0,.3.35,1.1-.45,1.7-2.4,1.9-.1-.25-.5-.15-.4.1.75,2.55,3.45.9,3.4-1.2a4.11,4.11,0,0,0-1.9-4.05c-2.45-2-4.9-4-7.4-6.1a.21.21,0,0,0-.35.1,6.27,6.27,0,0,1-1,2.1c-.05.1-.05.2,0,.25,2.6,3,5.15,6.1,7.6,9.3C161.56,44.42,162,44.22,161.76,44Z"/><path class="cls-6" d="M273,126.82a1.69,1.69,0,0,0-1.2-.15,2.86,2.86,0,0,0-.85.65,1.64,1.64,0,0,0-.2.85,1.32,1.32,0,0,0,2.6.35C273.51,128,273.66,127.27,273,126.82Z"/><path class="cls-2" d="M273.11,126.67a1.79,1.79,0,0,0-2.3.5,1.69,1.69,0,0,0,.4,2.35c1.75,1.2,3.45-1.75,1.9-2.85-.25-.15-.45.2-.2.4,1.15.85-.35,3.15-1.55,2-1.05-1,.35-2.65,1.55-2C273.16,127.17,273.36,126.77,273.11,126.67Z"/><path class="cls-6" d="M253.11,108.92h-.25a1,1,0,0,0-1,.45,1.49,1.49,0,0,0,.55,2.2,1.53,1.53,0,0,0,2-1A1.44,1.44,0,0,0,253.11,108.92Z"/><path class="cls-2" d="M253.11,108.67a2.1,2.1,0,0,0-1.1.25,1.4,1.4,0,0,0-.55,1.1,1.67,1.67,0,1,0,1.7-1.4c-.3-.05-.4.4-.1.4.65.1,1.3.5,1.3,1.2a1.2,1.2,0,0,1-1.35,1.1,1.25,1.25,0,0,1-1.1-1.25,1,1,0,0,1,.5-.95,1.7,1.7,0,0,1,.7-.1C253.36,109.12,253.36,108.67,253.11,108.67Z"/><path class="cls-6" d="M258.51,110.77a1.79,1.79,0,0,0-.75-.75,2.1,2.1,0,0,0-1.95.2,1.41,1.41,0,0,0,.1,2,1.62,1.62,0,0,0,1.8.45,1.42,1.42,0,0,0,.8-.9C258.51,111.52,258.61,110.92,258.51,110.77Z"/><path class="cls-2" d="M258.71,110.67a2,2,0,0,0-2-1,1.48,1.48,0,0,0-1.45,1.75,1.89,1.89,0,0,0,2.4,1.45,1.71,1.71,0,0,0,1-2.15c-.1-.25-.5-.15-.4.1a1.3,1.3,0,0,1-.85,1.6,1.43,1.43,0,0,1-1.75-1.45c0-.75.7-1,1.4-1a1.52,1.52,0,0,1,1.25.8C258.46,111.12,258.86,110.87,258.71,110.67Z"/><path class="cls-6" d="M261.86,111.52a1.71,1.71,0,0,0-1.7,0,1.41,1.41,0,0,0-.7,1.5,1.57,1.57,0,0,0,.8.9,1.6,1.6,0,0,0,1.35,0,1.32,1.32,0,0,0,.8-1A1.44,1.44,0,0,0,261.86,111.52Z"/><path class="cls-2" d="M261.91,111.32a1.88,1.88,0,0,0-2.5.55,1.46,1.46,0,0,0,.65,2.15,1.74,1.74,0,0,0,2.45-.75,1.64,1.64,0,0,0-.55-1.9c-.25-.15-.45.2-.2.4a1.32,1.32,0,0,1,.45,1,1.29,1.29,0,0,1-2,.9,1.05,1.05,0,0,1-.1-1.75,1.59,1.59,0,0,1,1.75-.05C262.06,111.82,262.21,111.42,261.91,111.32Z"/><path class="cls-6" d="M264.86,113.82a1.71,1.71,0,0,0-1.4,0s-.55,0-.75,1.05a1.25,1.25,0,0,0,.25.95,1.24,1.24,0,0,0,.45.2,1.8,1.8,0,0,0,1.7-.55A1.18,1.18,0,0,0,264.86,113.82Z"/><path class="cls-2" d="M265,113.67a2,2,0,0,0-1.5,0,.9.9,0,0,0-.45.2,1.62,1.62,0,0,0-.15,2.2,1.89,1.89,0,0,0,2.35-.25,1.47,1.47,0,0,0-.25-2.15c-.25-.15-.45.2-.2.4a1,1,0,0,1-.05,1.55c-.5.35-1.55.5-1.75-.25-.3-1.1.85-1.75,1.8-1.3C265,114.17,265.21,113.77,265,113.67Z"/><path class="cls-6" d="M268.21,117.27a1.26,1.26,0,0,0-.6-1c-.55-.1-1-.3-1.5,0a1.38,1.38,0,0,0-.65,1.4,1.24,1.24,0,0,0,.8.85,1.65,1.65,0,0,0,1.2,0,1.4,1.4,0,0,0,.7-.5C268.31,117.82,268.21,117.52,268.21,117.27Z"/><path class="cls-2" d="M268.46,117.27c-.1-1.8-2.85-1.8-3.15,0a1.45,1.45,0,0,0,1.35,1.65,1.91,1.91,0,0,0,1.45-.4,1.45,1.45,0,0,0,.35-1.2.23.23,0,1,0-.45,0c0,.35,0,.75-.35,1a1.46,1.46,0,0,1-1,.2,1,1,0,0,1-.8-1.5c.5-.85,2.1-.8,2.2.3C268,117.52,268.46,117.52,268.46,117.27Z"/><path class="cls-6" d="M270.21,119.77a1.89,1.89,0,0,0-1.35-.35.94.94,0,0,0-.95.6,1.53,1.53,0,0,0,0,1.15,1,1,0,0,0,.75.6,1.83,1.83,0,0,0,1.15.1,1.17,1.17,0,0,0,.8-.8A1.73,1.73,0,0,0,270.21,119.77Z"/><path class="cls-2" d="M270.36,119.57a2.06,2.06,0,0,0-2-.3,1.47,1.47,0,0,0-.5,2.2,2,2,0,0,0,2.55.4,1.65,1.65,0,0,0-.05-2.3.21.21,0,0,0-.3.3,1.13,1.13,0,0,1-.05,1.65,1.37,1.37,0,0,1-1.9-.65c-.4-1.25,1.15-1.7,2-1A.2.2,0,1,0,270.36,119.57Z"/><path class="cls-6" d="M271.66,123c-.1,0-.8-.35-1.1-.3a2.1,2.1,0,0,0-1.05.65,1.94,1.94,0,0,0-.1,1.05,1.8,1.8,0,0,0,1.25,1,1.42,1.42,0,0,0,1.6-1.4C272.26,123.47,271.66,123,271.66,123Z"/><path class="cls-2" d="M271.71,122.77a4,4,0,0,0-1.1-.3,2.1,2.1,0,0,0-.95.45,1.43,1.43,0,0,0-.1,2,1.64,1.64,0,0,0,2.6,0,1.45,1.45,0,0,0-.35-2.15c-.2-.2-.55.15-.3.3a1.08,1.08,0,0,1,.25,1.65,1.28,1.28,0,0,1-2.1-.5,1.11,1.11,0,0,1,.9-1.35c.4-.1.75.15,1.1.25C271.86,123.27,272,122.82,271.71,122.77Z"/><path class="cls-6" d="M255.11,158.32a1.47,1.47,0,0,0-.25-.65,1.49,1.49,0,0,0-.85-.4,6.89,6.89,0,0,0-1.1.1l-.65.45a3.18,3.18,0,0,0-.3.9,4.21,4.21,0,0,0,.3.7,1.68,1.68,0,0,0,1.15.55,1.78,1.78,0,0,0,1.35-.45A1.5,1.5,0,0,0,255.11,158.32Z"/><path class="cls-2" d="M255.31,158.27a1.74,1.74,0,0,0-2.4-1.15,1.61,1.61,0,0,0-1.2,1.65c.25,2.1,3.9,1.7,3.6-.5-.05-.3-.45-.15-.4.1.25,1.85-3.25,1.75-2.6-.15a1.13,1.13,0,0,1,.7-.65,2.77,2.77,0,0,1,.9-.1,1,1,0,0,1,1,.9C255,158.67,255.41,158.52,255.31,158.27Z"/><path class="cls-6" d="M258.91,156.17c-.5-.2-.65-.1-.65-.1a2.73,2.73,0,0,0-1.2.75,1.24,1.24,0,0,0-.2,1.35,1.26,1.26,0,0,0,1.2.6,2.18,2.18,0,0,0,1.25-.65,1.45,1.45,0,0,0,.45-.75A1.21,1.21,0,0,0,258.91,156.17Z"/><path class="cls-2" d="M259,156a2,2,0,0,0-2.1.8,1.38,1.38,0,0,0,.4,2.15,2.09,2.09,0,0,0,2.45-.85,1.32,1.32,0,0,0-.65-2c-.25-.1-.5.25-.2.4a1,1,0,0,1,.35,1.65c-.45.45-1.25.85-1.85.4s-.2-1.4.35-1.75a1.19,1.19,0,0,1,1.2-.25C259.11,156.47,259.26,156.07,259,156Z"/><path class="cls-6" d="M266.31,152.47c-.05-.5-.1-.75-.55-1a1.55,1.55,0,0,0-1.25-.05l-.8.9a1.94,1.94,0,0,0,.5,1.25c.65.25,1.15.3,1.5,0A2,2,0,0,0,266.31,152.47Z"/><path class="cls-2" d="M266.51,152.47a1.4,1.4,0,0,0-1.65-1.35.85.85,0,0,0-.8.45c-.15.2-.45.4-.55.65s.05.75.2,1.05a.92.92,0,0,0,.85.65,1.59,1.59,0,0,0,1.95-1.45.23.23,0,1,0-.45,0,1.32,1.32,0,0,1-.8,1.05,1.27,1.27,0,0,1-1.05-.2c-.2-.2-.2-.5-.3-.7s0-.2-.05-.15h0c0-.05.1-.1.1-.15.15-.2.4-.65.65-.75a1.25,1.25,0,0,1,.85.05.81.81,0,0,1,.55.85C266.11,152.72,266.56,152.72,266.51,152.47Z"/><path class="cls-6" d="M267.81,148.57s-.75,0-.9.1a1.65,1.65,0,0,0-.55,1.55,1.07,1.07,0,0,0,1.05.85,1.4,1.4,0,0,0,1.35-1.2A1.33,1.33,0,0,0,267.81,148.57Z"/><path class="cls-2" d="M267.81,148.37a1.35,1.35,0,0,0-1.55.8,1.42,1.42,0,0,0,.65,2.05,1.56,1.56,0,0,0,1.95-.9,1.51,1.51,0,0,0-.95-1.9c-.25-.1-.5.25-.2.4.5.25.9.6.8,1.2a1.06,1.06,0,0,1-1.6.7,1.18,1.18,0,0,1-.05-1.65,1,1,0,0,1,.95-.25A.22.22,0,1,0,267.81,148.37Z"/><path class="cls-6" d="M271,146.57a1.18,1.18,0,0,0-1.05-1.3,1.41,1.41,0,0,0-1.45.9c-.25.45.05,1,.35,1.35a1.2,1.2,0,0,0,1.4.4A1.53,1.53,0,0,0,271,146.57Z"/><path class="cls-2" d="M271.21,146.57c0-.75-.35-1.4-1.2-1.5a1.75,1.75,0,0,0-1.75,1.05c-.35.8.45,1.85,1.25,2s1.75-.75,1.7-1.6a.23.23,0,1,0-.45,0c0,.75-.75,1.5-1.45,1a1.13,1.13,0,0,1-.45-1.6,1,1,0,0,1,1.4-.35c.4.2.45.55.5.95S271.26,146.87,271.21,146.57Z"/><path class="cls-6" d="M272.86,138.17a1,1,0,0,0-1.05.2,1.45,1.45,0,0,0-.6,1.55,1,1,0,0,0,1.05.7,1.67,1.67,0,0,0,1.15-.7c.1-.15.2-.3.15-.45S273.41,138.27,272.86,138.17Z"/><path class="cls-2" d="M272.91,138c-1.75-.5-2.9,2.6-1,2.9.75.1,1.85-.6,1.8-1.4-.05-.55-.25-1.35-.85-1.5-.25-.05-.4.35-.1.4s.45.65.5.95a1.12,1.12,0,0,1-.95,1.1c-.75.15-1.15-.55-.9-1.2a1.2,1.2,0,0,1,1.35-.8C273.06,138.47,273.16,138,272.91,138Z"/><path class="cls-6" d="M242.06,158.17a1.48,1.48,0,0,0,1.6,1.25,1.44,1.44,0,0,0,1.15-1,1.71,1.71,0,0,0-.15-1.35,1.63,1.63,0,0,0-2.35-.2A1.78,1.78,0,0,0,242.06,158.17Z"/><path class="cls-2" d="M241.86,158.22a1.75,1.75,0,0,0,2.15,1.35,1.8,1.8,0,0,0,1.15-1.55,1.68,1.68,0,0,0-2-1.75,1.51,1.51,0,0,0-1.3,1.95c0,.3.5.15.4-.1-.35-2,2.9-1.75,2.4.1a1.31,1.31,0,0,1-.8.9,1.24,1.24,0,0,1-1.6-1C242.21,157.82,241.76,158,241.86,158.22Z"/><path class="cls-6" d="M234.41,154.62a1.48,1.48,0,0,0,1.6,1.25,1.44,1.44,0,0,0,1.15-1,1.71,1.71,0,0,0-.15-1.35,1.63,1.63,0,0,0-2.35-.2A1.78,1.78,0,0,0,234.41,154.62Z"/><path class="cls-2" d="M234.21,154.67a1.75,1.75,0,0,0,2.15,1.35,1.8,1.8,0,0,0,1.15-1.55,1.68,1.68,0,0,0-2-1.75,1.51,1.51,0,0,0-1.3,1.95c0,.3.5.15.4-.1-.35-2,2.9-1.75,2.4.1a1.31,1.31,0,0,1-.8.9,1.24,1.24,0,0,1-1.6-1C234.56,154.27,234.11,154.42,234.21,154.67Z"/><path class="cls-6" d="M237.91,156.77a1.48,1.48,0,0,0,1.6,1.25,1.44,1.44,0,0,0,1.15-1,1.71,1.71,0,0,0-.15-1.35,1.63,1.63,0,0,0-2.35-.2A1.57,1.57,0,0,0,237.91,156.77Z"/><path class="cls-2" d="M237.71,156.87a1.75,1.75,0,0,0,2.15,1.35,1.8,1.8,0,0,0,1.15-1.55,1.68,1.68,0,0,0-2-1.75,1.49,1.49,0,0,0-1.3,2c0,.3.5.15.4-.1-.35-2,2.9-1.75,2.4.1a1.31,1.31,0,0,1-.8.9,1.24,1.24,0,0,1-1.6-1A.21.21,0,1,0,237.71,156.87Z"/><path class="cls-6" d="M231.36,152a1.48,1.48,0,0,0,1.6,1.25,1.44,1.44,0,0,0,1.15-1,1.71,1.71,0,0,0-.15-1.35,1.63,1.63,0,0,0-2.35-.2A1.56,1.56,0,0,0,231.36,152Z"/><path class="cls-2" d="M231.16,152a1.75,1.75,0,0,0,2.15,1.35,1.8,1.8,0,0,0,1.15-1.55,1.68,1.68,0,0,0-2-1.75,1.51,1.51,0,0,0-1.3,2c.05.3.5.15.4-.1-.35-2,2.9-1.75,2.4.1a1.31,1.31,0,0,1-.8.9,1.24,1.24,0,0,1-1.6-1C231.51,151.62,231.06,151.77,231.16,152Z"/><path class="cls-6" d="M228.81,148.82a1.48,1.48,0,0,0,1.6,1.25,1.44,1.44,0,0,0,1.15-1,1.71,1.71,0,0,0-.15-1.35,1.63,1.63,0,0,0-2.35-.2A1.8,1.8,0,0,0,228.81,148.82Z"/><path class="cls-2" d="M228.61,148.87a1.75,1.75,0,0,0,2.15,1.35,1.8,1.8,0,0,0,1.15-1.55,1.68,1.68,0,0,0-2-1.75,1.53,1.53,0,0,0-1.3,2c0,.3.5.15.4-.1-.35-2,2.9-1.75,2.4.1a1.31,1.31,0,0,1-.8.9,1.24,1.24,0,0,1-1.6-1C229,148.52,228.51,148.62,228.61,148.87Z"/><path class="cls-6" d="M227,145.72a1.48,1.48,0,0,0,1.6,1.25,1.44,1.44,0,0,0,1.15-1,1.71,1.71,0,0,0-.15-1.35,1.63,1.63,0,0,0-2.35-.2A1.54,1.54,0,0,0,227,145.72Z"/><path class="cls-2" d="M226.76,145.77a1.75,1.75,0,0,0,2.15,1.35,1.8,1.8,0,0,0,1.15-1.55,1.68,1.68,0,0,0-2-1.75,1.55,1.55,0,0,0-1.3,2c.05.3.5.15.4-.1-.35-2,2.9-1.75,2.4.1a1.31,1.31,0,0,1-.8.9,1.24,1.24,0,0,1-1.6-1C227.16,145.37,226.71,145.47,226.76,145.77Z"/><path class="cls-6" d="M225.26,141.92a1.48,1.48,0,0,0,1.6,1.25,1.44,1.44,0,0,0,1.15-1,1.71,1.71,0,0,0-.15-1.35,1.63,1.63,0,0,0-2.35-.2A1.8,1.8,0,0,0,225.26,141.92Z"/><path class="cls-2" d="M225.06,142a1.75,1.75,0,0,0,2.15,1.35,1.8,1.8,0,0,0,1.15-1.55,1.68,1.68,0,0,0-2-1.75,1.55,1.55,0,0,0-1.3,2c.05.3.5.15.4-.1-.35-2,2.9-1.75,2.4.1a1.31,1.31,0,0,1-.8.9,1.24,1.24,0,0,1-1.6-1C225.41,141.62,225,141.72,225.06,142Z"/><path class="cls-6" d="M224.11,137.87a1.48,1.48,0,0,0,1.6,1.25,1.44,1.44,0,0,0,1.15-1,1.71,1.71,0,0,0-.15-1.35,1.63,1.63,0,0,0-2.35-.2A1.38,1.38,0,0,0,224.11,137.87Z"/><path class="cls-2" d="M223.86,137.92a1.75,1.75,0,0,0,2.15,1.35,1.8,1.8,0,0,0,1.15-1.55,1.68,1.68,0,0,0-2-1.75,1.55,1.55,0,0,0-1.3,1.95c0,.3.5.15.4-.1-.35-2,2.9-1.75,2.4.1a1.31,1.31,0,0,1-.8.9,1.24,1.24,0,0,1-1.6-1C224.26,137.52,223.81,137.62,223.86,137.92Z"/><path class="cls-6" d="M224,134.07a1.48,1.48,0,0,0,1.6,1.25,1.44,1.44,0,0,0,1.15-1,1.71,1.71,0,0,0-.15-1.35,1.63,1.63,0,0,0-2.35-.2A1.8,1.8,0,0,0,224,134.07Z"/><path class="cls-2" d="M223.76,134.17a1.75,1.75,0,0,0,2.15,1.35,1.8,1.8,0,0,0,1.15-1.55,1.68,1.68,0,0,0-2-1.75,1.55,1.55,0,0,0-1.3,1.95c.05.3.5.15.4-.1-.35-2,2.9-1.75,2.4.1a1.31,1.31,0,0,1-.8.9,1.24,1.24,0,0,1-1.6-1C224.11,133.77,223.71,133.87,223.76,134.17Z"/><path class="cls-6" d="M224.31,130.22a1.48,1.48,0,0,0,1.6,1.25,1.44,1.44,0,0,0,1.15-1,1.71,1.71,0,0,0-.15-1.35,1.63,1.63,0,0,0-2.35-.2A1.76,1.76,0,0,0,224.31,130.22Z"/><path class="cls-2" d="M224.11,130.27a1.75,1.75,0,0,0,2.15,1.35,1.8,1.8,0,0,0,1.15-1.55,1.68,1.68,0,0,0-2-1.75,1.55,1.55,0,0,0-1.3,2c0,.3.5.15.4-.1-.35-2,2.9-1.75,2.4.1a1.31,1.31,0,0,1-.8.9,1.24,1.24,0,0,1-1.6-1C224.46,129.87,224.06,130,224.11,130.27Z"/><path class="cls-6" d="M225.51,126.32a1.48,1.48,0,0,0,1.6,1.25,1.44,1.44,0,0,0,1.15-1,1.71,1.71,0,0,0-.15-1.35,1.63,1.63,0,0,0-2.35-.2A1.76,1.76,0,0,0,225.51,126.32Z"/><path class="cls-2" d="M225.31,126.37a1.75,1.75,0,0,0,2.15,1.35,1.8,1.8,0,0,0,1.15-1.55,1.68,1.68,0,0,0-2-1.75,1.52,1.52,0,0,0-1.3,2c.05.3.5.15.4-.1-.35-2,2.9-1.75,2.4.1a1.31,1.31,0,0,1-.8.9,1.24,1.24,0,0,1-1.6-1C225.66,126,225.26,126.07,225.31,126.37Z"/><path class="cls-6" d="M227.51,122.32a1.48,1.48,0,0,0,1.6,1.25,1.44,1.44,0,0,0,1.15-1,1.71,1.71,0,0,0-.15-1.35,1.63,1.63,0,0,0-2.35-.2A1.76,1.76,0,0,0,227.51,122.32Z"/><path class="cls-2" d="M227.31,122.37a1.75,1.75,0,0,0,2.15,1.35,1.8,1.8,0,0,0,1.15-1.55,1.68,1.68,0,0,0-2-1.75,1.55,1.55,0,0,0-1.3,2c.05.3.5.15.4-.1-.35-2,2.9-1.75,2.4.1a1.31,1.31,0,0,1-.8.9,1.24,1.24,0,0,1-1.6-1C227.66,122,227.26,122.07,227.31,122.37Z"/><path class="cls-6" d="M229.81,118.82a1.48,1.48,0,0,0,1.6,1.25,1.44,1.44,0,0,0,1.15-1,1.71,1.71,0,0,0-.15-1.35,1.63,1.63,0,0,0-2.35-.2A1.78,1.78,0,0,0,229.81,118.82Z"/><path class="cls-2" d="M229.61,118.87a1.75,1.75,0,0,0,2.15,1.35,1.8,1.8,0,0,0,1.15-1.55,1.68,1.68,0,0,0-2-1.75,1.51,1.51,0,0,0-1.3,2c0,.3.5.15.4-.1-.35-2,2.9-1.75,2.4.1a1.31,1.31,0,0,1-.8.9,1.24,1.24,0,0,1-1.6-1C230,118.47,229.56,118.62,229.61,118.87Z"/><path class="cls-6" d="M232.71,115.72a1.48,1.48,0,0,0,1.6,1.25,1.44,1.44,0,0,0,1.15-1,1.71,1.71,0,0,0-.15-1.35,1.63,1.63,0,0,0-2.35-.2A1.76,1.76,0,0,0,232.71,115.72Z"/><path class="cls-2" d="M232.51,115.77a1.75,1.75,0,0,0,2.15,1.35,1.8,1.8,0,0,0,1.15-1.55,1.68,1.68,0,0,0-2-1.75,1.49,1.49,0,0,0-1.3,2c.05.3.5.15.4-.1-.35-2,2.9-1.75,2.4.1a1.31,1.31,0,0,1-.8.9,1.24,1.24,0,0,1-1.6-1C232.86,115.37,232.46,115.47,232.51,115.77Z"/><path class="cls-6" d="M235.86,113.47a1.48,1.48,0,0,0,1.6,1.25,1.44,1.44,0,0,0,1.15-1,1.71,1.71,0,0,0-.15-1.35,1.63,1.63,0,0,0-2.35-.2A1.76,1.76,0,0,0,235.86,113.47Z"/><path class="cls-2" d="M235.66,113.52a1.75,1.75,0,0,0,2.15,1.35,1.8,1.8,0,0,0,1.15-1.55,1.68,1.68,0,0,0-2-1.75,1.55,1.55,0,0,0-1.3,2c.05.3.5.15.4-.1-.35-2,2.9-1.75,2.4.1a1.31,1.31,0,0,1-.8.9,1.24,1.24,0,0,1-1.6-1C236.06,113.12,235.61,113.22,235.66,113.52Z"/><path class="cls-6" d="M239.56,111.72a1.48,1.48,0,0,0,1.6,1.25,1.44,1.44,0,0,0,1.15-1,1.71,1.71,0,0,0-.15-1.35,1.63,1.63,0,0,0-2.35-.2A1.8,1.8,0,0,0,239.56,111.72Z"/><path class="cls-2" d="M239.36,111.77a1.75,1.75,0,0,0,2.15,1.35,1.8,1.8,0,0,0,1.15-1.55,1.68,1.68,0,0,0-2-1.75,1.53,1.53,0,0,0-1.3,2c0,.3.5.15.4-.1-.35-2,2.9-1.75,2.4.1a1.31,1.31,0,0,1-.8.9,1.24,1.24,0,0,1-1.6-1C239.71,111.42,239.26,111.52,239.36,111.77Z"/><path class="cls-6" d="M243.26,110.82a1.48,1.48,0,0,0,1.6,1.25,1.44,1.44,0,0,0,1.15-1,1.71,1.71,0,0,0-.15-1.35,1.63,1.63,0,0,0-2.35-.2A1.57,1.57,0,0,0,243.26,110.82Z"/><path class="cls-2" d="M243.06,110.87a1.75,1.75,0,0,0,2.15,1.35,1.8,1.8,0,0,0,1.15-1.55,1.68,1.68,0,0,0-2-1.75,1.53,1.53,0,0,0-1.3,2c.05.3.5.15.4-.1-.35-2,2.9-1.75,2.4.1a1.31,1.31,0,0,1-.8.9,1.24,1.24,0,0,1-1.6-1C243.41,110.52,243,110.62,243.06,110.87Z"/><path class="cls-6" d="M247.36,110.27a1.48,1.48,0,0,0,1.6,1.25,1.44,1.44,0,0,0,1.15-1,1.71,1.71,0,0,0-.15-1.35,1.63,1.63,0,0,0-2.35-.2A1.76,1.76,0,0,0,247.36,110.27Z"/><path class="cls-2" d="M247.16,110.32a1.75,1.75,0,0,0,2.15,1.35,1.8,1.8,0,0,0,1.15-1.55,1.68,1.68,0,0,0-2-1.75,1.55,1.55,0,0,0-1.3,1.95c.05.3.5.15.4-.1-.35-2,2.9-1.75,2.4.1a1.31,1.31,0,0,1-.8.9,1.24,1.24,0,0,1-1.6-1C247.51,109.92,247.11,110,247.16,110.32Z"/><path class="cls-6" d="M274.11,131.52a2.47,2.47,0,0,0-.3-.7,1.58,1.58,0,0,0-1.25-.15,2,2,0,0,0-1.15,1.35,1.18,1.18,0,0,0,.95,1.35,1.56,1.56,0,0,0,1.5-1A1.45,1.45,0,0,0,274.11,131.52Z"/><path class="cls-2" d="M274.36,131.47c-.35-2-3.3-.85-3.15.85a1.35,1.35,0,0,0,1.55,1.25,2.19,2.19,0,0,0,1.6-2,.22.22,0,1,0-.45,0,1.82,1.82,0,0,1-1.05,1.55.91.91,0,0,1-1.25-.9,1.42,1.42,0,0,1,.9-1.2,1.18,1.18,0,0,1,1.15.05c.15.1.2.45.25.6S274.41,131.72,274.36,131.47Z"/><path class="cls-6" d="M273.91,134.77a1.66,1.66,0,0,0-1.45-.2c-.5.15-.6.6-.75,1.1a1,1,0,0,0,.6,1.25c.5.2,1.45.1,1.65-.4C274.41,135.22,273.91,134.77,273.91,134.77Z"/><path class="cls-2" d="M274,134.57a1.57,1.57,0,0,0-2.3.4,1.43,1.43,0,0,0,.6,2.15,1.82,1.82,0,0,0,1.15-.05,1,1,0,0,0,.75-.85,1.66,1.66,0,0,0-.2-1.65c-.15-.15-.45.15-.25.35s.15.5.15.75-.1.75-.35.9a1.47,1.47,0,0,1-.8.2c-.85-.05-1-.75-.75-1.4a.85.85,0,0,1,.8-.65,1.44,1.44,0,0,1,1,.25C274,135.12,274.26,134.72,274,134.57Z"/><path class="cls-6" d="M249,157.42c-1-.75-2.9,1.35-2.15,2.1.15.15.2.35.35.45a2.49,2.49,0,0,0,1.8.15,1.26,1.26,0,0,0,.7-.3,1.28,1.28,0,0,0,.25-.6C250.16,158.12,249.71,157.57,249,157.42Z"/><path class="cls-2" d="M249.11,157.22c-.75-.5-1.65.1-2.1.65a1.45,1.45,0,0,0,0,2.1c.7.7,2.75.65,3.15-.4a1.72,1.72,0,0,0-1.05-2.4c-.25,0-.4.35-.1.4a1.08,1.08,0,0,1,.75.55,1.7,1.7,0,0,1-.05,1.4,1.91,1.91,0,0,1-2.7-.25c-.45-.85,1.1-2.25,1.9-1.75C249.11,157.72,249.36,157.37,249.11,157.22Z"/><path class="cls-6" d="M262.81,154c-.4-.3-1.45.2-1.45.25a1.44,1.44,0,0,0-.45,1,1,1,0,0,0,.7.9,1,1,0,0,0,1-.35,1.35,1.35,0,0,0,.5-.9A1,1,0,0,0,262.81,154Z"/><path class="cls-2" d="M262.91,153.87a1.82,1.82,0,0,0-1.6.2A1.42,1.42,0,0,0,261,156c1.05,1.45,3.3-.95,2-2.1-.15-.15-.45.15-.25.3a1,1,0,0,1-.1,1.45.93.93,0,0,1-.9.35.8.8,0,0,1-.55-.7,1,1,0,0,1,.55-1c.3-.1.75-.3,1-.15S263.11,154,262.91,153.87Z"/><path class="cls-6" d="M272.66,142.92c-.05-.65-1-1.15-1-1.15a1.52,1.52,0,0,0-1.65.7,1,1,0,0,0-.15.65,1.29,1.29,0,0,0,.4.65,2,2,0,0,0,1.25.5A1.27,1.27,0,0,0,272.66,142.92Z"/><path class="cls-2" d="M272.86,142.87a2,2,0,0,0-1.15-1.3,1.7,1.7,0,0,0-2,1.25c-.15.85.85,1.55,1.65,1.65a1.44,1.44,0,0,0,1.55-1.55.2.2,0,0,0-.4,0c.1,2.2-3.5.65-2-.6a1.18,1.18,0,0,1,1.25-.25,1.43,1.43,0,0,1,.75,1C272.51,143.22,272.91,143.12,272.86,142.87Z"/><path class="cls-6" d="M160.86,40.62a5,5,0,0,0-.7-.75,18,18,0,0,1-4.3-5.4,1,1,0,0,1,1.15-.15,2.45,2.45,0,0,1,.9.85c1.45,1.8,2.85,3.65,4.2,5.5a5.43,5.43,0,0,1-.9-.05"/><path class="cls-2" d="M160.91,40.57c-.65-.85-1.55-1.45-2.3-2.25a10.79,10.79,0,0,1-1.35-1.65,5.4,5.4,0,0,1-1-1.65q-.37-.52.6-.15a.66.66,0,0,1,.85.2,3.78,3.78,0,0,1,.55.7c.45.55.85,1.1,1.3,1.65s.85,1.1,1.25,1.65c.2.3,1.45,1.6.45,1.45-.15,0-.2.2-.05.2a2.73,2.73,0,0,0,.9.05c.1,0,.15-.1.1-.15-1.25-1.7-2.5-3.35-3.8-5-.65-.8-1.55-2.1-2.65-1.2a.09.09,0,0,0,0,.15,20.61,20.61,0,0,0,2.2,3.25c.85,1,2.05,1.8,2.85,2.9A.11.11,0,0,0,160.91,40.57Z"/><path class="cls-6" d="M172.81,45.87c-3.55,1.55-5.95,4.85-8.15,8.05-1.45,2.1-2.9,4.2-4.35,6.25l.55-.55c1.55-.55,2.55-2,3.55-3.25s1.9-2.3,2.9-3.4a42.15,42.15,0,0,1,4.15-4.3,9.09,9.09,0,0,0,2.4-2.6C173.66,45.67,173.16,45.72,172.81,45.87Z"/><path class="cls-2" d="M172.76,45.77c-5.75,2.75-9.1,9.35-12.6,14.35,0,.1.1.2.15.15.85-.85,1.95-1.25,2.75-2.15,1.3-1.4,2.35-3,3.6-4.4a56.91,56.91,0,0,1,4.1-4.4,16.79,16.79,0,0,0,3.05-3.2c.05,0,0-.1-.05-.15-.45-.4-.3-.35-1-.2-.1,0,0,.25.1.2,1.4-.3-1.15,2.3-1,2.1-.6.55-1.2,1-1.8,1.65-1.1,1.1-2.15,2.3-3.2,3.5-2,2.25-3.55,4.8-6.15,6.35-.35.2-.8,1.1.2-.1.5-.6.9-1.3,1.35-1.95,1-1.4,2-2.8,2.9-4.15,2.1-2.95,4.35-5.75,7.7-7.35C173,45.92,172.86,45.72,172.76,45.77Z"/><path class="cls-6" d="M163.56,72c0-3,1.75-5.6,3.45-8l3.9-5.7A15.1,15.1,0,0,1,172.66,56a17.11,17.11,0,0,1,4.2-2.8,5.25,5.25,0,0,1,3.3-.9c-2.1,2.55-4.9,4.4-7.35,6.6a33.13,33.13,0,0,0-9.15,13.55"/><path class="cls-2" d="M163.66,72c.3-4.85,4.15-9,6.8-12.85a15.76,15.76,0,0,1,4.95-5c.75-.45,3.5-2.4,4.1-1.25.1.2-1.85,1.8-2,2-3.05,2.65-6.2,5-8.75,8.15a35.41,35.41,0,0,0-5.25,9.4c-.05.15.15.2.2,0A33.82,33.82,0,0,1,171,60.72c2.9-2.95,6.45-5.15,9.15-8.3a.14.14,0,0,0-.1-.2c-4.15-.15-7.7,3.65-9.85,6.8-2.7,3.9-6.55,8-6.8,13C163.46,72.12,163.66,72.12,163.66,72Z"/><path class="cls-6" d="M245.06,131a1.81,1.81,0,0,0-.15-.9c-.35-.6-1.15-.65-1.8-.65a1.27,1.27,0,0,0-.6.1c-.45.25-.45.85-.5,1.35s-.2,1.15-.7,1.2c-.35,0-.6-.25-.95-.3a.92.92,0,0,0-1,.6,2.13,2.13,0,0,0-.15,1.25,5.35,5.35,0,0,0,2.3,3.7l.1.15a1.62,1.62,0,0,0,.85,1.45,2.52,2.52,0,0,0,1.7.25,1.24,1.24,0,0,0,.45-.2c.2-.2.15-.6.1-.9a11.19,11.19,0,0,1-.25-2.9C244.51,133.77,245,132.42,245.06,131Z"/><path class="cls-2" d="M245.16,131c0-1.55-2.6-2.6-3.2-.9,0-.15-.35,1.35-.1.8-.35.3-.7.65-1.05,1a1.78,1.78,0,0,1-.45-.2c-.4.1-.5,0-.85.25-.75.65-.45,2-.2,2.8.45,1.25,1.55,2,2.15,3s.8,1.55,2,1.55c1.05,0,1.25-.3,1.25-1.25a27.72,27.72,0,0,1-.15-3.55c.15-1.15.45-2.3.55-3.45a.1.1,0,1,0-.2,0c-.1,1.15-.4,2.3-.55,3.45-.1.85.05,1.7,0,2.5,0,.5-.35,1.95-.9,2.1l-1.85-1.65c-.15-.15-.5-.45-.55-.5a5.32,5.32,0,0,1-1.3-1.7c-.5-1.05-.45-.95.3-2.05,1.25-1.8.55-.45,1.55-1a1.08,1.08,0,0,0,.3-.35c.1-.1,0-.3.15-.4v-.2c0-1.1,1-1.1,2.85-.1C245,131.17,245.16,131.17,245.16,131Z"/><path class="cls-6" d="M252.76,142.52l-.5-.3a1.23,1.23,0,0,0-1.4.85,1.41,1.41,0,0,0,.7,1.55,1.6,1.6,0,0,0,1.7-.15,1.56,1.56,0,0,0,.45-.55C253.91,143.37,253.31,142.87,252.76,142.52Z"/><path class="cls-2" d="M252.81,142.47a1.12,1.12,0,0,0-.65-.3,1.32,1.32,0,0,0-1,.4,1.39,1.39,0,0,0,.3,2.1,1.75,1.75,0,0,0,2.25-.3c.65-.8-.2-1.55-.85-1.9a.11.11,0,0,0-.1.2c.6.35,1.4,1.05.65,1.7a1.53,1.53,0,0,1-2.05-.05,1.14,1.14,0,0,1,.3-1.85c.45-.25.7-.05,1.1.2C252.86,142.72,253,142.52,252.81,142.47Z"/><path class="cls-6" d="M263.11,124.22s-.4-.6-.95-.45a1.73,1.73,0,0,0-1.15,1,1.33,1.33,0,0,0,.7,1.6,1.47,1.47,0,0,0,1.7-.45A1.43,1.43,0,0,0,263.11,124.22Z"/><path class="cls-2" d="M263.21,124.17a1.12,1.12,0,0,0-1.7-.2,1.45,1.45,0,0,0-.35,2.15,1.47,1.47,0,0,0,2,.2,1.43,1.43,0,0,0,0-2.15c-.1-.1-.3,0-.15.15a1.21,1.21,0,0,1,.1,1.75,1.25,1.25,0,0,1-1.85-.15,1.21,1.21,0,0,1,.3-1.7c.5-.35,1.05-.45,1.4,0C263.11,124.37,263.26,124.27,263.21,124.17Z"/><path class="cls-8" d="M294.91,101.77a.53.53,0,0,0,.3.35.56.56,0,0,0,.4-.05l1.9-.75a.71.71,0,0,0,.85.25,1,1,0,0,0,.5-1.2,1.76,1.76,0,0,0-.85-1.05c-.2-.15-.45-.25-.55-.5a3,3,0,0,1-.1-.7c-.2-.6-1.15-.45-1.6,0A3.18,3.18,0,0,0,294.91,101.77Z"/><path class="cls-2" d="M294.81,101.82c.3.6.7.4,1.25.2.4-.15,1.05-.55,1.5-.45.25.05.35.25.65.2a1.06,1.06,0,0,0,.85-1,1.69,1.69,0,0,0-.75-1.45c-.45-.35-.45-.25-.8-1-.05-.1,0-.2-.05-.25s-.15-.3-.35-.4a1.44,1.44,0,0,0-1.4.3,3.31,3.31,0,0,0-.9,3.8.11.11,0,0,0,.2-.1c-.5-1.25-.2-3.5,1.4-3.85.8-.2.75.9,1.2,1.3.2.2.5.3.7.5a1.45,1.45,0,0,1,.45.75c.15.75-.25,1-1.2.8,0,0-.05,0-.1,0-.45.15-2.15,1.15-2.45.5C294.91,101.62,294.76,101.72,294.81,101.82Z"/><path class="cls-8" d="M171.11,93.32a2.19,2.19,0,0,0,.95.35,3.22,3.22,0,0,0,2.05-.35,1.71,1.71,0,0,0,.8-1.8,4.25,4.25,0,0,0-1.85-1,2.51,2.51,0,0,0-2.1.75A1.47,1.47,0,0,0,171.11,93.32Z"/><path class="cls-2" d="M171.06,93.42a3,3,0,0,0,3.55-.4,1.72,1.72,0,0,0,.45-1.35c-.05-.35-.25-.45-.55-.65a2.7,2.7,0,0,0-3.2-.15,1.63,1.63,0,0,0-.25,2.55c.1.1.25-.1.15-.15a1.52,1.52,0,0,1,.75-2.5,2.65,2.65,0,0,1,2.35.4c.15.1.45.25.5.4.25.5-.3,1.25-.6,1.55a2.81,2.81,0,0,1-3.05.15C171.06,93.17,171,93.32,171.06,93.42Z"/><path class="cls-9" d="M158.71,202a34.45,34.45,0,0,1,3.95-11.15l138.1,30c-3.3,4.1-5,8-3.45,12.8Z"/><path class="cls-2" d="M159.56,202.22a36.62,36.62,0,0,1,3.85-10.95l-1,.4q23.47,5.1,47,10.15,37,8,74.15,16.1c5.65,1.25,11.35,2.45,17,3.7-.15-.5-.25-1-.4-1.45-3.2,4.1-5.2,8.4-3.7,13.65l1.1-1.1c-15.65-3.55-31.35-7.15-47-10.7l-74.4-17-17.2-3.9c-1.1-.25-1.55,1.45-.45,1.7,15.65,3.55,31.35,7.15,47,10.7l74.4,17,17.2,3.9a.9.9,0,0,0,1.1-1.1c-1.35-4.6.4-8.35,3.25-11.95.35-.5.35-1.3-.4-1.45q-23.47-5.1-46.95-10.15-37-8-74.15-16.1c-5.65-1.25-11.35-2.45-17-3.7a.88.88,0,0,0-1,.4,36.52,36.52,0,0,0-4,11.4C157.61,202.82,159.31,203.32,159.56,202.22Z"/><path class="cls-1" d="M306.41,221.47c-3.55,3.25-4.4,7.7-4,12.65C313.06,237,314.81,221.72,306.41,221.47Z"/><path class="cls-2" d="M305.81,220.82c-3.65,3.6-4.6,8.3-4.25,13.25a.92.92,0,0,0,.65.85c4.7,1.15,9.25-.9,10.2-5.9.8-4.2-1.6-8.15-6-8.45-1.15-.1-1.15,1.7,0,1.75,3.4.25,4.95,3.5,4.25,6.6-.9,3.85-4.4,5.2-8,4.3.2.3.45.55.65.85-.35-4.5.35-8.75,3.7-12A.87.87,0,0,0,305.81,220.82Z"/><path class="cls-10" d="M160.26,202.67l-1.3,5.5c3.8,3.8,40,9,60.75,12,3,.45,4.95-2.15,4.15-2.2-1.7-.1-20.15-4-36.7-7.45C163.26,205.47,161.71,202.77,160.26,202.67Z"/><path class="cls-2" d="M159.86,202.52c-.45,1.85-.85,3.65-1.3,5.5a.51.51,0,0,0,.1.45c1.7,1.6,4.65,2.15,6.8,2.75,4.75,1.3,9.6,2.2,14.45,3.1,11.8,2.15,23.65,3.9,35.5,5.6,2.15.3,4.75,1.15,6.8.3.65-.25,2.5-1.3,2.2-2.25-.2-.7-1.25-.6-1.85-.7-2.05-.35-4.1-.8-6.1-1.2-14-2.85-28.05-5.4-41.8-8.95a80.29,80.29,0,0,1-11.3-3.6,15.12,15.12,0,0,0-3.1-1.3c-.55-.05-.55.8,0,.9a9.29,9.29,0,0,1,2.5,1.1,64.53,64.53,0,0,0,8.1,2.8c13,3.75,26.5,6,39.75,8.8,2.65.55,5.25,1.1,7.9,1.6,1.5.3,3.2.4,4.65.85.1,0,.5,0,.55,0-.1-.15-.65.45-1,.65-1.55,1.1-3.5.65-5.25.4-2.65-.4-5.25-.75-7.9-1.15-11.4-1.65-22.8-3.35-34.1-5.6a97.83,97.83,0,0,1-13.2-3.25,16.25,16.25,0,0,1-2.15-.9,1.58,1.58,0,0,1-.6-.4c-.35-.35-.05.4-.1-.15-.1-1.55.85-3.65,1.2-5.15C160.81,202.22,160,202,159.86,202.52Z"/><path class="cls-10" d="M153.66,193a5.48,5.48,0,0,0-.8,4.3l4,.1v4.3l1.65.5a97.33,97.33,0,0,1,3.95-11.6h-2.2l-1.85,3.2Z"/><path class="cls-2" d="M153.26,192.77a6.55,6.55,0,0,0-.85,4.55c.05.25.2.45.45.45.7,0,1.35,0,2,0,.45,0,2.15.2,1.8-.15s-.2,1.5-.2,1.9v2.15a.44.44,0,0,0,.3.4c.55.15,1.1.3,1.65.5a.47.47,0,0,0,.55-.3,103.71,103.71,0,0,1,3.9-11.5.43.43,0,0,0-.4-.65c-.65,0-1.85-.25-2.4.05s-1.1,1.75-1.45,2.35-.9,1-.15.8a4.65,4.65,0,0,1-1.45-.25c-1.1-.2-2.2-.35-3.3-.55-.55-.1-.8.75-.25.85,1.6.25,3.2.5,4.85.8a.41.41,0,0,0,.5-.2,25.74,25.74,0,0,1,1.65-2.8c.1-.1.3-.35.05-.25s.35.05.45.1c.5.05,1,0,1.5,0-.15-.2-.25-.45-.4-.65-.75,1.8-1.45,3.65-2.1,5.5-.35,1.05-.7,2.15-1,3.25a10.93,10.93,0,0,0-.5,1.7c-.05.65.15.8-.25.85s-1.25-.75-.9,0a4.82,4.82,0,0,1,0-1.2v-3.05a.45.45,0,0,0-.45-.45c-1,0-1.9-.05-2.9-.05a4,4,0,0,1-1.1,0c.2.2.3-1.45.35-1.5a4.9,4.9,0,0,1,.8-2.15C154.36,192.72,153.56,192.27,153.26,192.77Z"/><path class="cls-10" d="M306.41,221.47c-3.35,2.25-4.55,7.15-4,12.65l-5.15-.55c-1.1-5.3.05-9.6,3.3-12.9Z"/><path class="cls-2" d="M306.21,221.07A11.12,11.12,0,0,0,302,229a13.32,13.32,0,0,0-.15,3.45c.15.9.65,1,.1,1.15a11.66,11.66,0,0,1-3.9-.4c-.15,0-.5,0-.6,0-.3-.25.2-.2.05-.55a10.24,10.24,0,0,1-.15-4.45c.25-2.1,1.1-5.35,2.95-6.7.5-.35.2-.3,1-.3.65,0,1.35.2,2,.3,1,.15,1.95.3,2.95.4.55.1.8-.75.25-.85-1.75-.25-5.1-1.5-6.55-.45s-2.65,3.8-3.15,5.65a16.09,16.09,0,0,0,0,7.4.42.42,0,0,0,.4.3c1.7.2,3.45.35,5.15.55a.48.48,0,0,0,.45-.45c-.4-4.3-.05-9.45,3.75-12.25C307.11,221.52,306.66,220.72,306.21,221.07Z"/><path class="cls-11" d="M161.41,195.07l135.45,29.85-.95,4.55-135.7-30.55Z"/><path class="cls-2" d="M161.31,195.27l48.25,10.65q36.9,8.1,73.75,16.25c3.35.75,6.7,1.5,10.1,2.2a24.08,24.08,0,0,0,2.6.55c1,.1.6.05.55.45s-.7,3.85-.7,3.9c.15-.1.05-.1-.15-.1a6.84,6.84,0,0,1-2-.45c-3-.65-6-1.35-9-2q-36.22-8.17-72.5-16.3c-11.7-2.65-23.4-5.25-35.1-7.9L165.76,200c-1.2-.25-2.35-.55-3.55-.8-.45-.1-1.4-.1-1.75-.4s.1.5.1-.15a14.43,14.43,0,0,1,1.05-3.45c.1-.25-.35-.4-.4-.1-.4,1.3-.8,2.55-1.15,3.85a.19.19,0,0,0,.15.25c15.25,3.45,30.55,6.85,45.8,10.3q36.53,8.25,73.05,16.45c5.6,1.25,11.2,2.5,16.85,3.8.1,0,.25-.05.25-.15.3-1.5.65-3,.95-4.55,0-.1-.05-.25-.15-.25-15.3-3.35-30.6-6.75-45.9-10.1l-72.85-16c-5.55-1.25-11.15-2.45-16.7-3.7C161.16,194.82,161.06,195.22,161.31,195.27Z"/><path class="cls-6" d="M153.06,194.07l5,.75,1.5-1.2h1.35l-3.25,8.3v-5.55l-4.85-.5Z"/><path class="cls-2" d="M153.06,194.17l3.3.45a5.54,5.54,0,0,0,1.8.2c.9-.25,1.3-1.6,2.5-1.15.2.1.15-.25,0,.35-.15.45-.35.9-.55,1.35-.85,2.1-1.75,4.25-2.5,6.4-.05.1.2.1.2,0v-5.45a.11.11,0,0,0-.1-.1c-1.2-.15-2.45-.25-3.65-.4-.25,0-1.15-.2-1,0-.15-.3.2-1.35.25-1.7,0-.15-.2-.2-.2,0-.1.6-.15,1.2-.25,1.8,0,.1.05.15.1.15l2.75.3,1.55.15a1.24,1.24,0,0,1,.45.05c.1.05-.15-.15-.05.05.3.6,0,2.3,0,2.95v2.45c0,.15.15.15.2.05,1.1-2.75,2.15-5.5,3.25-8.3.05,0,0-.15-.1-.15a4.28,4.28,0,0,0-1.4,0c-.6.2-1,1.05-1.55,1.15a9.73,9.73,0,0,1-2.65-.4l-2.15-.3C153,194,152.91,194.17,153.06,194.17Z"/><path class="cls-6" d="M160.36,206.72l52,9.9c-5.3,2.15-31.6-4.5-52.45-8.75Z"/><path class="cls-2" d="M160.36,206.87l33,6.3c5.7,1.1,11.4,2.15,17.1,3.25a7.73,7.73,0,0,1,1.55.3c.05,0,.25,0,.3.05-.25-.3-1.7.15-2.1.2-4,.25-8.15-.55-12.1-1.2-6.45-1.1-12.8-2.5-19.2-3.85l-10.4-2.25-5.55-1.2a8.56,8.56,0,0,1-2.3-.5c-.75-.45-.6-.25-.2-1.15,0-.15-.15-.25-.2-.1a11.44,11.44,0,0,1-.5,1.15.1.1,0,0,0,.05.15c10.95,2.25,21.8,4.8,32.8,6.95,4,.8,8.1,1.55,12.2,2,2.35.25,5.25.7,7.55-.15.1,0,.1-.2,0-.2-15.2-2.9-30.35-5.8-45.55-8.65-2.15-.4-4.3-.8-6.45-1.25C160.26,206.62,160.21,206.82,160.36,206.87Z"/><path class="cls-6" d="M298.11,225.27l4.6.55-.8,3.9-4.5-.8Z"/><path class="cls-2" d="M298.11,225.37c.65.1,1.35.15,2,.25a13.67,13.67,0,0,1,2.5.3c.2.05-.05-.15,0,0a2.17,2.17,0,0,1-.05.25,10.69,10.69,0,0,0-.3,1.35l-.3,1.35c0,.2,0,.75-.2.85.1-.15-.1-.1-.4-.15s-.8-.15-1.2-.25a15.32,15.32,0,0,1-2.55-.5c-.25-.1-.1.2-.05-.1a11.91,11.91,0,0,1,.25-1.3c.15-.7.25-1.4.4-2.15.05-.15-.2-.2-.2-.05-.25,1.2-.45,2.45-.7,3.65,0,.05,0,.1.1.15,1.5.3,2.95.55,4.45.85.05,0,.1,0,.15-.1.3-1.3.55-2.65.85-3.95,0-.1-.05-.15-.1-.15-1.55-.2-3.05-.35-4.6-.55C298,225.12,298,225.37,298.11,225.37Z"/><path class="cls-10" d="M325.76,32.62v-6.3c-1.95-9-4.5-19.6-2.2-22.85,1.7-2.4,6.8-3.1,9.2-1.55,2.85,1.85,2.45,12.45,4.85,23.2l1.25,5C334.21,31.17,329.81,32,325.76,32.62Z"/><path class="cls-2" d="M326.66,32.62V27.37c0-2.45-.8-4.85-1.3-7.2a73.11,73.11,0,0,1-1.8-11.4c-.15-3.15.2-5.65,3.7-6.55a7.34,7.34,0,0,1,4.4,0c1.3.55,1.65,1.7,1.95,2.95a70,70,0,0,1,1.5,10.15A137.34,137.34,0,0,0,338,30.27c.2-.35.4-.7.6-1.1-4.35.95-8.7,1.8-13.1,2.5-1.1.15-.65,1.85.45,1.7,4.4-.65,8.75-1.5,13.1-2.5a.93.93,0,0,0,.6-1.1,129.29,129.29,0,0,1-2.8-14.45c-.4-3-.65-6-1.2-8.9-.3-1.7-.7-3.85-2.05-5-2.7-2.45-8.75-1.4-10.75,1.45-2.6,3.7-.65,10.4.1,14.35.6,3.15,1.75,6.5,1.9,9.7.1,1.85,0,3.75,0,5.6C324.91,33.72,326.66,33.72,326.66,32.62Z"/><path class="cls-4" d="M333.51,72.42l20.6,107.85a43.55,43.55,0,0,1,12.85-2l-20.9-108.4C340.46,69.82,337.26,70.12,333.51,72.42Z"/><path class="cls-2" d="M332.66,72.67c2.3,12.2,4.65,24.35,6.95,36.55q5.55,29,11.05,57.95l2.55,13.35a.88.88,0,0,0,1.1.6,45,45,0,0,1,12.6-1.9.89.89,0,0,0,.85-1.1l-7.05-36.6L349.46,83.17c-.85-4.45-1.75-9-2.6-13.4a.86.86,0,0,0-.85-.65c-4.65-.1-8.9.15-12.95,2.6a.87.87,0,0,0,.9,1.5c3.8-2.25,7.75-2.45,12.05-2.35-.3-.2-.55-.45-.85-.65l7,36.6,11.25,58.35c.85,4.45,1.75,9,2.6,13.4.3-.35.55-.75.85-1.1a47.94,47.94,0,0,0-13.05,1.95c.35.2.7.4,1.1.6-2.3-12.2-4.65-24.35-6.95-36.55Q342.46,114.52,337,85.52l-2.55-13.35C334.16,71.07,332.46,71.57,332.66,72.67Z"/><path class="cls-10" d="M354.61,180.32l.7,2.5a42.15,42.15,0,0,1,11.55-1.5l-.3-2.4A25.64,25.64,0,0,0,354.61,180.32Z"/><path class="cls-2" d="M354.21,180.42c.25.85.5,1.65.7,2.5a.43.43,0,0,0,.55.3,46.41,46.41,0,0,1,11.45-1.5.48.48,0,0,0,.45-.45l-.3-2.4a.53.53,0,0,0-.45-.45,28.91,28.91,0,0,0-12.05,1.45c-.55.2-.3,1,.25.85a26.27,26.27,0,0,1,8.35-1.55c.75,0,2.9-.2,3.1.1a3.58,3.58,0,0,1,.15,1.25c-.05.55.2.35-.1.5,0,0-1.8-.15-1.9-.1-.75.05-1.45.1-2.15.2-1.25.15-2.5.35-3.7.6a21.21,21.21,0,0,1-2.3.5c-.7.05,0,.65-.55-.05a7.62,7.62,0,0,1-.55-1.9C354.91,179.62,354.06,179.87,354.21,180.42Z"/><path class="cls-12" d="M325.76,32.62l7.75,39.85c3.2-2,7.05-2.7,12.5-2.45l-6.85-40A91.14,91.14,0,0,0,325.76,32.62Z"/><path class="cls-2" d="M325.36,32.72c2.6,13.3,5.15,26.55,7.75,39.85a.42.42,0,0,0,.65.25c3.75-2.25,8-2.55,12.3-2.4a.44.44,0,0,0,.4-.55c-2.3-13.35-4.55-26.65-6.85-40a.45.45,0,0,0-.55-.3,109.35,109.35,0,0,0-13.4,2.6.44.44,0,0,0,.25.85,92.05,92.05,0,0,1,11-2.25c1.65-.25,1.75-1.2,2,.3.5,2.8,1,5.6,1.45,8.45,1.4,8.1,2.8,16.2,4.15,24.3.35,2.1.7,4.15,1.05,6.25a3.82,3.82,0,0,0,.4-.55c-4.45-.15-8.85.2-12.75,2.5a3.47,3.47,0,0,0,.65.25c-2.6-13.3-5.15-26.55-7.75-39.85C326.11,31.92,325.26,32.17,325.36,32.72Z"/><path class="cls-7" d="M328,37.37c.1-.6,2-2.55,4.55-2.75a6.79,6.79,0,0,1,5.1,2.2,10.51,10.51,0,0,1,2.85,4.85c.9,2.7,1.85,5.35.45,7.55-1.65,2.55-5.2,2.6-5.7,2.6-3.25,0-5.6-2-5.8-2.6C328.46,46.12,327.31,40.67,328,37.37Z"/><path class="cls-2" d="M328.21,37.42c1-2.55,5-3.05,7.15-2a9.25,9.25,0,0,1,4,3.95c2.05,3.85,3.8,10.3-1.7,11.9-2.7.8-7,.2-8.15-2.65a22,22,0,0,1-1.3-11.2c.05-.3-.4-.4-.4-.1a21.56,21.56,0,0,0,.45,8c.35,1.75.5,3.85,2,5,2.8,2.25,8.05,2.45,10.55-.45,1.65-1.9,1.2-4.45.55-6.65-.8-2.55-1.7-5-3.75-6.8-2.6-2.25-8.15-3.1-9.75.9C327.66,37.57,328.11,37.67,328.21,37.42Z"/><path class="cls-6" d="M330.76,31.87,338,70.07h3.1l-7.3-38.2C333,32.07,331.66,31.67,330.76,31.87Z"/><path class="cls-2" d="M330.66,31.92c2.4,12.75,4.8,25.45,7.25,38.2a.11.11,0,0,0,.1.1h3.1c.1,0,.1,0,.1-.15-2.45-12.75-4.85-25.45-7.3-38.2a.11.11,0,0,0-.1-.1c-1,.1-2-.1-3.05,0-.15,0-.15.25,0,.2a11.78,11.78,0,0,1,2.95,0c.1,0,.05.4.1.5a8.16,8.16,0,0,1,.45,2.45c.6,3.05,1.15,6.1,1.75,9.15,1.35,7.2,2.75,14.35,4.1,21.55.1.55,1.25,4,.85,4.5a27.15,27.15,0,0,0-2.9-.1c-.25-.25-.25-1.35-.3-1.65-1.25-6.5-2.45-13-3.7-19.55-1.05-5.65-2.15-11.25-3.2-16.9C330.86,31.72,330.61,31.77,330.66,31.92Z"/><path class="cls-12" d="M358.31,179.27,337.86,70.52l3.2-.65L362,178.72Z"/><path class="cls-2" d="M358.41,179.22c-2.4-12.85-4.85-25.75-7.25-38.6Q345.61,111,340,81.37c-.5-2.7-1-5.4-1.55-8.1a10.36,10.36,0,0,1-.4-2.1c0-.85-.35-.35.5-.65,2.6-1,2.35-.75,2.75,1.45.5,2.5.95,5,1.45,7.45q5.63,29.17,11.2,58.3c1.8,9.35,3.6,18.65,5.4,28,.55,3,1.15,5.95,1.7,8.95.15.7,1.1,3.35.8,4.05a34.76,34.76,0,0,1-3.6.5c-.15,0-.1.25.05.2,1.25-.2,2.45-.35,3.7-.55.05,0,.1-.1.1-.15-2.35-12.25-4.7-24.55-7.1-36.8q-5.62-29.32-11.3-58.65c-.85-4.45-1.7-9-2.6-13.4,0-.05-.1-.1-.15-.1-1,.2-2.1.45-3.15.65-.05,0-.1.1-.1.15q3.45,18.38,6.9,36.7,5.47,29.25,11,58.55c.85,4.5,1.7,9,2.55,13.45C358.21,179.42,358.46,179.37,358.41,179.22Z"/><path class="cls-6" d="M360.11,179.47l-1.9.5v.35l.1.45.2,1.3,2-.1Z"/><path class="cls-2" d="M360.11,179.37c-.65.15-1.25.3-1.9.5a.11.11,0,0,0-.1.1,15.88,15.88,0,0,0,.3,2.15.11.11,0,0,0,.1.1c.65-.05,1.3-.1,1.95-.1.1,0,.1-.05.1-.15-.1-.8-.25-1.65-.35-2.45,0-.15-.25-.1-.2,0,.1.8.25,1.65.35,2.45.05-.05.05-.1.1-.15-.55,0-1.1,0-1.65.1h-.25c-.05,0,.1.1.05.05v-.15a8.1,8.1,0,0,0-.15-1,2.51,2.51,0,0,1-.1-.6c0-.15.05-.3-.05-.2.05,0,.2,0,.25,0,.55-.15,1.1-.3,1.6-.4C360.31,179.57,360.21,179.37,360.11,179.37Z"/><path class="cls-2" d="M334.41,79.67a36.16,36.16,0,0,1,13.4-2.45.23.23,0,0,0,0-.45,38,38,0,0,0-13.55,2.5C334,79.37,334.16,79.77,334.41,79.67Z"/><path class="cls-2" d="M333.21,69.07a22.72,22.72,0,0,1,12.4-2.6c.3,0,.3-.4,0-.45A23.63,23.63,0,0,0,333,68.67C332.76,68.82,333,69.22,333.21,69.07Z"/><path class="cls-5" d="M.91,195c10.85-10.35,20.9-20.75,31.75-31.1l12.9-12.3c15.45-14.7,30.9-29.45,46.75-43.75,3.75,7.85,8.7,12.65,14.75,14.45a5.58,5.58,0,0,1-1.55,2.05q-29.17,26.7-58.4,53.35c-8.6,7.85-17.55,15.3-26.45,22.8-4.15,3.5-15.95,13.8-19.15,16.3Z"/><path class="cls-2" d="M1.51,195.67c11.65-11.15,22.9-22.7,34.6-33.8,12-11.45,24-23,36.15-34.3,6.85-6.4,13.7-12.75,20.65-19-.45,0-.9-.1-1.4-.2,3.25,6.65,8,12.6,15.3,14.85-.2-.45-.35-.85-.55-1.3-1,2-3.45,3.7-5.1,5.2-2,1.8-3.9,3.55-5.85,5.35l-12,11c-7.9,7.25-15.8,14.45-23.75,21.7-7.7,7.05-15.4,14.2-23.3,21-6.65,5.7-13.4,11.25-20,17-5,4.35-10,8.9-15.3,13.05l1.5.6c-.2-7.25-.4-14.55-.6-21.8-.05-1.15-1.8-1.15-1.75,0,.2,7.25.4,14.55.6,21.8a.88.88,0,0,0,1.5.6c4.75-3.75,9.25-7.8,13.8-11.75,6.3-5.4,12.7-10.7,19.05-16.1,16.3-13.95,31.95-28.75,47.8-43.25,4.4-4,8.75-8,13.15-12l7-6.35c1.7-1.55,4-3,5-5.2a.89.89,0,0,0-.55-1.3c-6.85-2.15-11.2-7.85-14.25-14a.9.9,0,0,0-1.4-.2q-36.6,33.08-71.8,67.85c-6.5,6.45-13,13-19.6,19.25C-.54,195.22.71,196.47,1.51,195.67Z"/><path class="cls-12" d="M122,193.62c-.9-1-45.25,42.85-46.5,44.2,2.6,2.9,6.75,4.15,13.7,1.25.3-.15.65.2,1,.1a2.08,2.08,0,0,0,.9-.95c1.35-2.35,34-36.55,34.9-37.65,1.25-1.55,1-1.15,2.7-1a2.89,2.89,0,0,0,2-.75,5.48,5.48,0,0,0,1.65-2.45,3.64,3.64,0,0,1,.75-1.6,3.91,3.91,0,0,1,1-.55,4.8,4.8,0,0,0,2.4-2.65,7.29,7.29,0,0,1,.35-.95,5.76,5.76,0,0,1,1.55-1.75c4.85-4.15,8.9-9.15,13.25-13.85,6.05-6.5,12.7-12.4,19.35-18.3-2-1.9-2.4-2.1-5.25-4.55l-1.4-1c-9.65,10.3-19.3,20.65-29.4,30.55a21.74,21.74,0,0,1-3.7,3.1,8.46,8.46,0,0,0-2.9,2.15c-.45.65-.6,1.5-1.15,2.05a5.52,5.52,0,0,1-1.3.75,12,12,0,0,0-3.2,2.75,1.2,1.2,0,0,0-.35.6"/><path class="cls-2" d="M122.46,192.87c-1.3-.9-4.35,2.6-5.1,3.3-3.6,3.2-7.1,6.55-10.6,9.9-8.55,8.15-17,16.45-25.45,24.75-2.15,2.15-4.4,4.2-6.45,6.45a.88.88,0,0,0,0,1.25c3.5,3.75,8.2,3.55,12.8,2.15,2-.6,3-.45,4.25-2.15.45-.6,1-1.15,1.45-1.75,4.55-5.2,9.35-10.25,14.1-15.3q7.88-8.4,15.75-16.7c1.1-1.15,2.1-2.4,3.25-3.45,1.4-1.3,3.1-.5,4.7-1.8a8,8,0,0,0,1.85-2.8,4.09,4.09,0,0,1,1.3-1.6,13.16,13.16,0,0,0,1.9-1.5c1-1.3,1.4-2.75,2.65-4,1.5-1.5,3.15-2.85,4.65-4.4,3-3.05,5.7-6.3,8.6-9.45,6-6.5,12.7-12.4,19.35-18.3a.88.88,0,0,0,0-1.25,67.86,67.86,0,0,0-6.85-5.7.84.84,0,0,0-1.05.15c-7.45,8-14.9,15.95-22.55,23.75-3.55,3.6-6.95,7.7-11.3,10.3a7.14,7.14,0,0,0-2.1,1.75,9.31,9.31,0,0,1-1.6,2.35c-1.65,1.3-3.35,2-4.55,3.95-.6,1,1,1.85,1.5.9,1.25-2.1,3.65-2.55,5-4.35.65-.85.9-1.8,1.75-2.5s1.9-1.15,2.75-1.8c3.8-2.8,7.05-6.65,10.4-10,7.45-7.55,14.65-15.3,21.9-23.05l-1.05.15a67,67,0,0,1,6.5,5.45v-1.25c-5.7,5.05-11.4,10.1-16.7,15.55-5.15,5.25-9.7,11.1-15.2,16a10.35,10.35,0,0,0-2.4,2.5c-.3.5-.35,1.1-.65,1.6-.6,1.05-1.4,1.25-2.3,1.9a3.68,3.68,0,0,0-1.4,1.85c-.7,1.35-1,2.95-2.9,3.1-.45.05-.9-.25-1.4-.15-1.35.2-2.6,2.1-3.5,3.1-9.65,10.25-19.4,20.4-28.85,30.8-1.45,1.6-2.85,3.35-4.3,5-1.15,1.25-4,1.8-5.75,2.15-3.3.65-6.35.15-8.65-2.35v1.25c4.9-5.25,10.25-10.15,15.35-15.2,8-7.8,15.9-15.55,24.1-23.1,1.5-1.35,3-2.75,4.5-4.05a16.79,16.79,0,0,0,1.45-1.2c.7-.7.75,0,0-.5C122.51,195,123.41,193.52,122.46,192.87Z"/><path class="cls-13" d="M141.76,156.32c1.55,1.15,6.5,4.8,6.55,5.85a3.43,3.43,0,0,1-1.45,2.45c-16.7,15.9-34.5,30.65-50.75,47-1.35,1.35-2.65,2.7-4,4q-11.48,11.7-23,23.35l-20.4-.75Z"/><path class="cls-2" d="M141.31,157.07q2,1.43,3.9,3a8.88,8.88,0,0,1,1.75,1.6c.5.85.9.25-.15,1.8a16.6,16.6,0,0,1-1.9,1.85c-4.15,3.9-8.3,7.75-12.55,11.55-8.65,7.85-17.4,15.6-26,23.6-8.7,8.15-17,16.7-25.3,25.2-2.1,2.1-4.15,4.25-6.25,6.35-1,1-2.1,2.1-3.15,3.2-.55.6-1.25,1.15-1.75,1.75a9.84,9.84,0,0,0-.8,1.15c-1.15.5-3.75-.15-5-.2l-15.4-.6.6,1.5c10.45-9.2,20.9-18.45,31.35-27.65q25-22,50.05-44.1l11.55-10.2c.85-.75-.4-2-1.25-1.25-10.45,9.2-20.9,18.45-31.35,27.65q-25,22-50.05,44.1l-11.55,10.2a.88.88,0,0,0,.6,1.5c4.9.2,9.85.35,14.75.55,1.65,0,4.05.6,5.65.2s3-2.65,4.1-3.8l7.65-7.8c9-9.2,18-18.45,27.4-27.25,9.25-8.65,18.75-16.95,28.05-25.5,2.8-2.55,5.6-5.1,8.35-7.7,1.4-1.3,4.65-3.4,4.45-5.7-.1-1.25-1.45-2.25-2.3-2.95-1.5-1.3-3.1-2.5-4.7-3.65C141.31,154.92,140.41,156.42,141.31,157.07Z"/><path class="cls-4" d="M144.56,139.77c.05-.05.1-.05.1-.1S144.36,139.62,144.56,139.77Z"/><path class="cls-2" d="M145,140.52c.05-.05.1-.05.1-.1a.88.88,0,0,0,.4-.9.91.91,0,0,0-.65-.75,1.26,1.26,0,0,0-1,.15.93.93,0,1,0,1.2.15c0,.05,0,.1.1.1a1.46,1.46,0,0,1,.1.45c-.1.2-.15.4-.25.6l-.4.25a.82.82,0,0,1-.35,0h.05c-.05-.55-.15-1.05-.2-1.6,0,0-.1,0-.1.1a.89.89,0,0,0-.3,1.2A.93.93,0,0,0,145,140.52Z"/><path class="cls-4" d="M144.56,139.77c-6.95,5.1-13.95,10.15-20.9,15.25-3,2.2-6,4.4-9,6.75-3.55,2.85-6.95,5.95-10.35,9-25.35,23.05-50.7,46.1-75.6,69.65a61.58,61.58,0,0,0,15.75.7,8.85,8.85,0,0,0,3.6-.85,11.23,11.23,0,0,0,3-3c4.85-6.25,11.4-10.85,17.4-16,5.6-4.85,10.75-10.3,15.9-15.6a486.65,486.65,0,0,1,45.85-42c7.25-5.75,14.85-11.4,20-19.1C148.31,142.87,146.46,141.32,144.56,139.77Z"/><path class="cls-2" d="M144.11,139c-8.25,6-16.5,11.95-24.7,18-7.5,5.55-14.3,11.9-21.2,18.15q-22.5,20.47-44.85,41.05c-8.45,7.85-16.9,15.7-25.25,23.6a.88.88,0,0,0,.4,1.45,63.17,63.17,0,0,0,16,.75,8.53,8.53,0,0,0,4.8-1.5c1.8-1.35,3.05-3.55,4.5-5.2a109.51,109.51,0,0,1,11.3-10.2c4.2-3.45,8.2-7.1,12-10.9,15.8-15.8,31.3-31.7,48.55-45.95,8.85-7.25,18.65-13.8,25.2-23.4a.83.83,0,0,0-.15-1.05l-5.6-4.7c-.85-.7-2.1.5-1.25,1.25l5.6,4.7-.15-1c-5.6,8.2-13.7,13.95-21.3,20.1-8.2,6.6-16.15,13.55-23.85,20.7S89,199.42,81.61,207c-3.75,3.9-7.55,7.8-11.55,11.45-3.6,3.3-7.5,6.3-11.25,9.5a76.07,76.07,0,0,0-5.85,5.5c-1.7,1.8-3.05,4.3-5.05,5.75-2.4,1.7-6.4,1.3-9.2,1.3a66.31,66.31,0,0,1-9.95-.9c.15.5.25,1,.4,1.45q21.9-20.7,44.2-41,11-10,21.9-20c7.2-6.55,14.25-13.4,21.95-19.35,9-6.95,18.35-13.5,27.55-20.2C145.91,139.87,145.06,138.32,144.11,139Z"/><path class="cls-8" d="M83.81,175.37l-.5-.1c-2.6,2.6-5.8,4.55-8.8,6.65-8.85,6.05-16.8,13.25-24.8,20.45-4.55,4.1-9.1,8.25-13.7,12.35-6.3,5.65-12.6,11.35-18.85,17a34.82,34.82,0,0,0-6.75,7.35l15.65-.15a4.14,4.14,0,0,0,1.75-.25,5.29,5.29,0,0,0,1.75-1.4c4.2-4.3,9.7-7.1,14.3-11a82.31,82.31,0,0,0,6.9-7c12.45-13.15,28-23.85,38.85-38.3a.37.37,0,0,0-.25-.55C88.11,180.52,86.11,178.87,83.81,175.37Z"/><path class="cls-2" d="M84.06,174.52c-1-.2-1.2,0-2,.7a57.44,57.44,0,0,1-5.2,4c-3.25,2.25-6.55,4.5-9.65,6.95-6.8,5.3-13.15,11.1-19.55,16.85-6.75,6.1-13.5,12.15-20.2,18.25-3.4,3-6.75,6.1-10.15,9.15a40.81,40.81,0,0,0-7.6,8.2.86.86,0,0,0,.75,1.3c5.2,0,10.45.05,15.65-.15a5.24,5.24,0,0,0,4.1-1.9,53.29,53.29,0,0,1,4.8-4.1c3.4-2.5,7-4.7,10.15-7.5,3.35-3,6.3-6.5,9.5-9.7,6.3-6.2,13.1-11.9,19.6-17.9,3.25-3,6.4-6,9.45-9.25,1.55-1.65,3-3.35,4.45-5.1.85-1,2.25-2.25,2.4-3.65a.82.82,0,0,0-.45-.75,24.66,24.66,0,0,1-2.3-1.15,18.72,18.72,0,0,1-3.25-3.9c-.65-1-2.15-.05-1.5.9,1.3,1.9,2.85,4.35,5,5.3a7.71,7.71,0,0,0,.85.25c-.15-.3-1.45,1.05-1.75,1.4-1.25,1.55-2.55,3.05-3.85,4.5A205.19,205.19,0,0,1,68,202c-5.4,4.85-10.9,9.65-16,14.8-2.55,2.6-4.95,5.4-7.65,7.9a80.32,80.32,0,0,1-8.8,6.55c-1.5,1-3,2.15-4.4,3.35-.7.6-1.35,1.35-2.1,1.95a6.68,6.68,0,0,1-4.35,1.4l-14.15.15c.25.45.5.9.75,1.3,2.15-3.3,5.15-5.85,8-8.5,3.15-2.85,6.3-5.65,9.45-8.5,6.4-5.75,12.75-11.5,19.15-17.25,5.95-5.35,11.9-10.8,18.1-15.85,3.25-2.6,6.6-5.1,10-7.45,1.55-1.05,3-2.05,4.55-3.15.65-.5,2.8-2.6,3-2.55C84.66,176.47,85.16,174.77,84.06,174.52Z"/><path class="cls-7" d="M92.11,107.67c3-4,6-8,8.6-12.25a50.09,50.09,0,0,1,3.1-4.65c3.35-4,8.35-6.25,13.25-8.15a17.2,17.2,0,0,1,3.85-1.2,19,19,0,0,1,5,0,16,16,0,0,1,3.45.55,9.35,9.35,0,0,1,5.5,5.9,18.57,18.57,0,0,1,.5,8.3,10.16,10.16,0,0,1-.95,3.4,15.82,15.82,0,0,1-2.75,3.3c-.85.95-1.65,1.95-2.45,2.9A55.64,55.64,0,0,1,106,122.27C100.36,120.07,95.56,115.57,92.11,107.67Z"/><path class="cls-2" d="M92.46,107.87c2.5-3.4,5-6.75,7.35-10.3s4.35-7.3,8-9.85a42.6,42.6,0,0,1,10.15-5c3.65-1.35,9.35-1.8,12.8.35,3.85,2.4,4.7,7.25,4.4,11.4a10.5,10.5,0,0,1-2.5,6.75c-1.45,1.6-2.85,3.2-4.25,4.85A56.38,56.38,0,0,1,110.31,120a15.6,15.6,0,0,1-3.65,1.6,5,5,0,0,1-2.9-.8,21.29,21.29,0,0,1-4.25-3,31.56,31.56,0,0,1-7.05-10.25c-.25-.5-1,0-.75.45a31.08,31.08,0,0,0,7,10.2,27.12,27.12,0,0,0,3.85,2.95c.9.55,2.5,1.7,3.6,1.65,1.7-.1,4.3-1.8,5.75-2.55a50.76,50.76,0,0,0,6.35-3.8,58.83,58.83,0,0,0,10.25-9.05c1.5-1.75,2.95-3.5,4.55-5.2a9.65,9.65,0,0,0,2.7-5c.75-4,.7-8.55-1.65-12-4.8-7.15-14.9-4.15-21.25-1.25-4.35,2-8.15,4.55-10.8,8.6-3.4,5-6.65,10.1-10.3,15C91.36,107.92,92.11,108.32,92.46,107.87Z"/><path class="cls-7" d="M87.26,179.67a4.36,4.36,0,0,1-2.5-1.7,4.12,4.12,0,0,1-.65-2.95,2.12,2.12,0,0,1,.2-.6,1.56,1.56,0,0,1,.55-.45c2.9-1.85,4.8-4.85,6.6-7.8.3-.5.7-1.1,1.3-1.15s1.3.55,2,.7c1,.2,2-.7,3-.6a2.94,2.94,0,0,1,1.65.95,4.1,4.1,0,0,1,.85,1,3.73,3.73,0,0,1,.4,2.45,6.65,6.65,0,0,1-.5,1.7A8.47,8.47,0,0,1,99,173a26.24,26.24,0,0,1-6,5.75,9.93,9.93,0,0,1-2.7,1.4,3.78,3.78,0,0,1-3-.25"/><path class="cls-2" d="M87.36,179.27A2.71,2.71,0,0,1,85,177c-.9-1.15-.65-2.2.7-3.15.3-.3.7-.55,1-.8a21,21,0,0,0,2.45-2.7c.85-1.15,1.5-2.6,2.45-3.65,1.55-1.7,2.25-.45,3.8-.6.35-.05.65-.25,1-.3a3.27,3.27,0,0,1,3.8,2.05c.75,2.45-1.55,5-3,6.65-2.2,2.4-6.1,6.3-9.65,4.85-.5-.2-.75.65-.25.85,4.55,1.9,9.7-3.75,12.1-6.95,1.15-1.55,2.25-3.6,1.7-5.6a4.24,4.24,0,0,0-3.55-3,7.76,7.76,0,0,0-1.05.2,11.49,11.49,0,0,1-2.9-.2c-.75,0-.9-.2-1.6.2s-1.25,1.7-1.75,2.4a26.53,26.53,0,0,1-3,4c-1.55,1.65-3.9,2.25-3.6,4.8a4.77,4.77,0,0,0,3.45,3.95A.43.43,0,1,0,87.36,179.27Z"/><path class="cls-7" d="M141.66,155.92a.3.3,0,0,0-.2,0C141.41,155.87,141.41,156.27,141.66,155.92Z"/><path class="cls-2" d="M141.76,155.52a.3.3,0,0,0-.2-.05.44.44,0,0,0-.55.4.75.75,0,0,0,.2.55.52.52,0,0,0,.8-.25c.3-.5-.45-.9-.75-.45,0,.05,0,0,.05,0s.15-.05.2-.05.15.05.2.05l.15.15s0,0,0,.1v-.05a3.82,3.82,0,0,1-.55.4c.05,0,.15.05.2.05a.45.45,0,0,0,.55-.3A.45.45,0,0,0,141.76,155.52Z"/><path class="cls-7" d="M163.16,147.47c-.6-.9-1.25-1.8-1.85-2.65a5.58,5.58,0,0,0-1.35-1.5c-1.5-1-3.5-.4-5.1.4a30.74,30.74,0,0,0-13.2,12.3c2,.8,3.15,2,4.85,3.5,1.25,1.1,1.45,2.8,3,2.15A39.15,39.15,0,0,0,163,152a3.85,3.85,0,0,0,1.15-2.05A4.18,4.18,0,0,0,163.16,147.47Z"/><path class="cls-2" d="M163.51,147.22c-1-1.55-2.2-4.05-4.15-4.75-2.2-.75-4.7.65-6.55,1.7a32,32,0,0,0-11.6,11.5.46.46,0,0,0,.15.6,16.08,16.08,0,0,1,4.75,3.45c.65.65,1.15,1.85,2,2.25,1.85.85,5.2-1.85,6.65-2.75a38.58,38.58,0,0,0,7.85-6.4c1.9-1.9,2.45-3.3.9-5.6-.3-.45-1-.05-.75.45,2.75,4.15-6.25,9.55-9,11.2a16.84,16.84,0,0,1-3,1.6,3.31,3.31,0,0,1-3.5-.9c-1.3-1-2.35-2.25-3.75-3.2-1-.7-1.15-.5-.65-1.65a15.58,15.58,0,0,1,2.3-3.1,31.22,31.22,0,0,1,4.55-4.35,28.25,28.25,0,0,1,5.35-3.35c2.1-.95,4.3-1.1,5.85,1,.65.85,1.25,1.8,1.85,2.65C163.06,148.17,163.86,147.72,163.51,147.22Z"/><path class="cls-7" d="M150.71,145c-1.4-1.35-2.8-2.8-4.1-4.2a1.77,1.77,0,0,1-.65-1.4,1.57,1.57,0,0,1,.65-1c3.8-3.6,7.55-7.25,11.35-10.85a12.41,12.41,0,0,1,3.35-2.55,10.6,10.6,0,0,1,5.15-.7c2.45.15,5.3.9,6.15,3.2.75,2-.5,4.25-1.8,6a42.52,42.52,0,0,1-9.45,9,2.38,2.38,0,0,1-1,.45,3.36,3.36,0,0,1-1.2-.2c-2.9-.6-5.45,2.65-8.4,2.4"/><path class="cls-2" d="M151,144.62c-.9-.9-1.8-1.8-2.65-2.7-.4-.4-1.25-1-1.45-1.55-.45-1.1.15-1.65.7-2.4,1.6-2.25,4.4-4.2,6.4-6.1,2.15-2.05,4.25-4.65,6.8-6.15a10.66,10.66,0,0,1,9.15-.25c7,3.25-3.5,12.45-6.75,15-1.4,1.1-2.05,1.7-4,1.75a6.88,6.88,0,0,0-2.25.2c-2.15.65-3.85,2.25-6.15,2.2a.45.45,0,0,0,0,.9,7.43,7.43,0,0,0,3.25-.8c2.1-.95,3.35-1.65,5.6-1.5,2.5.15,5-2.75,6.7-4.35,3-2.8,10.75-10.4,4.45-14a12.72,12.72,0,0,0-8.05-1c-3.6.8-6.2,4.15-8.75,6.6-1.65,1.6-3.3,3.15-4.95,4.75-1.05,1-3.25,2.3-3.55,3.75a1.89,1.89,0,0,0,.5,1.6,31.22,31.22,0,0,0,4.35,4.55A.44.44,0,1,0,151,144.62Z"/><path class="cls-7" d="M181.86,136.92a8.36,8.36,0,0,0-3.15.1c-2.65.45-5.5,1-7.45,2.85-2.65,2.45-3,6.65-5.75,9-.55.5-1.25,1.05-1.1,1.75a1.58,1.58,0,0,0,.55.85,22.2,22.2,0,0,0,4.75,3.9l-1.3-.65c1.6,1.2,3.4,2.5,5.4,2.35s3.75-1.75,5.1-3.3c1.05-1.2,2.1-2.4,3.1-3.65,1.65-2.1,3.3-4.4,3.6-7S184.51,137.52,181.86,136.92Z"/><path class="cls-2" d="M181.86,136.47a17.3,17.3,0,0,0-8.4,1.45c-2.7,1.2-4.05,3.35-5.3,6a17.1,17.1,0,0,1-2.45,4.25c-.65.75-1.85,1.4-1.75,2.6.2,2.05,3.95,4.15,5.5,5.15l.45-.75c-.45-.2-.85-.45-1.3-.65a.44.44,0,0,0-.45.75c2.2,1.65,4.55,3.15,7.35,2,3.15-1.3,5.7-5.1,7.65-7.7,2.8-3.75,5.05-11.15-1.2-13a.44.44,0,0,0-.25.85c6.5,1.95,2.3,9.7-.3,12.95a30.26,30.26,0,0,1-4.5,5c-2.95,2.4-5.7,1.15-8.3-.85l-.45.75c.45.2.85.45,1.3.65a.44.44,0,0,0,.45-.75,24,24,0,0,1-3.45-2.6c-.9-.8-1.35-.95-1-2.25a3.6,3.6,0,0,1,1.05-1.8,21.54,21.54,0,0,0,2.7-4.8,9.26,9.26,0,0,1,5.25-5.2,17,17,0,0,1,7.4-1.1C182.41,137.42,182.41,136.57,181.86,136.47Z"/><path class="cls-2" d="M43,154c-2,1.35,2.9,6.15,4,7.15a38.51,38.51,0,0,0,5,4.05c1.8,1.25,3.6,2.85,5.9,2.9a.23.23,0,0,0,0-.45c-3-.1-6.9-3.6-9.1-5.5-.8-.7-7-6.75-5.5-7.8C43.46,154.27,43.26,153.87,43,154Z"/><path class="cls-2" d="M47.36,149.62a20.38,20.38,0,0,0,6.15,8.6c2.3,2.05,5.3,6,8.65,5.75a.22.22,0,0,0,0-.45c-3.4.25-6.75-4.2-9-6.25a19,19,0,0,1-5.3-7.8C47.66,149.22,47.26,149.32,47.36,149.62Z"/><path class="cls-2" d="M52.41,144.32c0,3.9,2.05,7.2,5,9.7,2.6,2.2,6.55,5.3,10,5.5.3,0,.3-.4,0-.45-3.25-.2-7.35-3.3-9.75-5.35-2.8-2.4-4.8-5.6-4.8-9.4A.23.23,0,1,0,52.41,144.32Z"/><path class="cls-2" d="M102.56,99.12c3.25-3.8,6.7-7.4,10.25-10.9a.21.21,0,1,0-.3-.3c-3.55,3.5-7,7.15-10.25,10.9A.21.21,0,0,0,102.56,99.12Z"/><path class="cls-2" d="M107.31,102c1.75-2.25,3.6-4.45,5.55-6.55a.21.21,0,1,0-.3-.3c-2,2.1-3.8,4.3-5.55,6.55A.21.21,0,0,0,107.31,102Z"/><path class="cls-2" d="M115.26,90.57a31.23,31.23,0,0,1,3.2-3.1.21.21,0,1,0-.3-.3,31.23,31.23,0,0,0-3.2,3.1A.21.21,0,1,0,115.26,90.57Z"/><path class="cls-2" d="M109.61,105c1.85-2,3.65-4.1,5.5-6.2a.21.21,0,1,0-.3-.3c-1.85,2-3.65,4.1-5.5,6.2A.21.21,0,0,0,109.61,105Z"/><path class="cls-2" d="M116.56,94.52l3-3.45a.21.21,0,0,0-.3-.3l-3,3.45A.21.21,0,0,0,116.56,94.52Z"/><path class="cls-2" d="M114.61,105.22c3.9-4.4,7.75-8.85,11.4-13.45.2-.2-.15-.55-.3-.3-3.7,4.6-7.5,9-11.4,13.45A.21.21,0,0,0,114.61,105.22Z"/><path class="cls-2" d="M119.86,107.17q2-1.73,3.75-3.6a.21.21,0,1,0-.3-.3q-1.8,1.88-3.75,3.6C119.31,107,119.61,107.37,119.86,107.17Z"/><path class="cls-2" d="M118.26,112.37c1.35-1.25,2.7-2.45,4-3.7a.21.21,0,1,0-.3-.3c-1.35,1.25-2.7,2.45-4.05,3.7A.21.21,0,1,0,118.26,112.37Z"/><path class="cls-2" d="M127.61,102.22c2-2.2,3.9-4.4,5.8-6.6.2-.2-.15-.55-.3-.3-1.9,2.25-3.85,4.45-5.8,6.6A.21.21,0,0,0,127.61,102.22Z"/><path class="cls-2" d="M88.41,174.27c1.45-1.55,3-3.1,4.45-4.6a.21.21,0,0,0-.3-.3c-1.5,1.5-3,3-4.45,4.6A.21.21,0,0,0,88.41,174.27Z"/><path class="cls-2" d="M90.51,174.92c1.5-1.45,3-2.9,4.55-4.35a.21.21,0,0,0-.3-.3c-1.5,1.45-3,2.9-4.55,4.35C90,174.77,90.31,175.12,90.51,174.92Z"/><path class="cls-2" d="M98.36,165.27a31.32,31.32,0,0,1-2.25,2.85.21.21,0,1,0,.3.3,26,26,0,0,0,2.3-2.95C98.86,165.27,98.51,165.07,98.36,165.27Z"/><path class="cls-2" d="M92,177.32c1.05-1.1,2.15-2.2,3.3-3.25a.21.21,0,0,0-.3-.3c-1.15,1-2.2,2.15-3.3,3.25A.21.21,0,1,0,92,177.32Z"/><path class="cls-2" d="M97.61,170.77c-.4.5-.8.95-1.2,1.45-.2.2.15.55.3.3.4-.5.8-1,1.2-1.45C98.11,170.87,97.76,170.57,97.61,170.77Z"/><path class="cls-2" d="M93.11,165.27a12,12,0,0,1-1.8,2.95c-.2.2.15.55.3.3a15.66,15.66,0,0,0,1.85-3C93.61,165.27,93.26,165,93.11,165.27Z"/><path class="cls-2" d="M99.36,176.52c2.2,2.5,3.85,6.2,7.2,7.45.25.1.4-.35.1-.4-3.25-1.2-4.85-4.9-7-7.35C99.51,176,99.16,176.32,99.36,176.52Z"/><path class="cls-2" d="M104,171.47c.4,1.6,2.05,2.95,3.1,4.15a19.92,19.92,0,0,0,4.4,4c.25.15.45-.25.2-.4a22.27,22.27,0,0,1-4-3.55c-1-1.2-2.95-2.85-3.35-4.4C104.31,171.07,103.91,171.22,104,171.47Z"/><path class="cls-2" d="M107.21,167.87a34,34,0,0,0,4.35,4.55c1.3,1.25,2.55,2.8,4.35,3.4.25.1.4-.35.1-.4-1.8-.6-3.25-2.45-4.6-3.75a36.86,36.86,0,0,1-3.85-4C107.41,167.42,107,167.67,107.21,167.87Z"/><path class="cls-2" d="M152,135.52c3.8-2.8,7.5-5.7,11.1-8.65a.21.21,0,1,0-.3-.3c-3.6,3-7.3,5.8-11,8.6C151.56,135.32,151.81,135.67,152,135.52Z"/><path class="cls-2" d="M160.36,132.72l8.1-6.45a.21.21,0,0,0-.3-.3l-8.1,6.45C159.81,132.57,160.11,132.87,160.36,132.72Z"/><path class="cls-2" d="M163.66,134.32c3.2-1.75,5.9-4.7,8.6-7.1a.21.21,0,1,0-.3-.3c-2.7,2.4-5.35,5.35-8.55,7C163.21,134.07,163.41,134.47,163.66,134.32Z"/><path class="cls-2" d="M163.41,137.67c1.25,0,2.5-1.55,3.4-2.3,1.6-1.3,3.15-2.6,4.65-4a.21.21,0,1,0-.3-.3c-1.15,1-2.35,2-3.55,3l-1.8,1.5c-.6.45-1.65,1.6-2.45,1.6C163.11,137.22,163.11,137.67,163.41,137.67Z"/><path class="cls-2" d="M145.36,154.57a16.78,16.78,0,0,1,3.3-3.75c1.2-1.15,2.4-2.25,3.6-3.35a.21.21,0,1,0-.3-.3c-1.35,1.25-2.65,2.5-4,3.75a15,15,0,0,0-3,3.45C144.86,154.57,145.26,154.82,145.36,154.57Z"/><path class="cls-2" d="M148.26,154.62c1.65-1.85,3.4-3.65,5.25-5.35a.21.21,0,1,0-.3-.3c-1.8,1.7-3.55,3.5-5.25,5.35C147.76,154.52,148.11,154.82,148.26,154.62Z"/><path class="cls-2" d="M160.41,143.87a16.31,16.31,0,0,1-2.55,2.7c-1,.9-1.9,1.85-2.8,2.75a.21.21,0,0,0,.3.3c1-1,2.1-2.05,3.15-3.05a13.66,13.66,0,0,0,2.3-2.5C160.91,143.87,160.56,143.62,160.41,143.87Z"/><path class="cls-2" d="M158,149.87c-1,.8-2,1.6-2.95,2.5a23.13,23.13,0,0,1-3.25,3c-.25.15,0,.55.2.4a15.46,15.46,0,0,0,2.7-2.4,34,34,0,0,1,3.5-3.05C158.41,150.12,158.21,149.72,158,149.87Z"/><path class="cls-2" d="M162.26,149.17a43.23,43.23,0,0,1-4,4,.21.21,0,1,0,.3.3,50.33,50.33,0,0,0,4.05-3.95C162.76,149.27,162.46,148.92,162.26,149.17Z"/><path class="cls-2" d="M172.46,142.57a33,33,0,0,0-4,3.45,45.93,45.93,0,0,1-3.25,3.75.21.21,0,0,0,.3.3c1.25-1.1,2.1-2.55,3.25-3.75a33,33,0,0,1,4-3.45C173,142.72,172.71,142.37,172.46,142.57Z"/><path class="cls-2" d="M173.46,144.22c-2.5,2.7-5.05,5.4-7.55,8.1a.21.21,0,0,0,.3.3c2.5-2.7,5-5.4,7.55-8.1C174,144.32,173.66,144,173.46,144.22Z"/><path class="cls-2" d="M179.46,141.07c-2.5,2.35-5.05,4.65-7.7,6.8a.21.21,0,1,0,.3.3c2.65-2.2,5.2-4.45,7.7-6.8A.21.21,0,1,0,179.46,141.07Z"/><path class="cls-2" d="M173.26,150.87a57.48,57.48,0,0,1-4.25,4.3.21.21,0,0,0,.3.3,57.48,57.48,0,0,0,4.25-4.3A.21.21,0,0,0,173.26,150.87Z"/><path class="cls-2" d="M183.41,141.77a66.44,66.44,0,0,1-7.65,7.35.21.21,0,1,0,.3.3,66.44,66.44,0,0,0,7.65-7.35C183.91,141.87,183.56,141.57,183.41,141.77Z"/><path class="cls-2" d="M178.61,149.67a45.27,45.27,0,0,1-3.25,3.7,24.73,24.73,0,0,0-3.05,3c-.15.25.2.45.4.2a29,29,0,0,1,3.3-3.25,36.62,36.62,0,0,0,2.9-3.35A.21.21,0,1,0,178.61,149.67Z"/><path class="cls-2" d="M130.91,184.82c.1,1,1.25,1.55,2,2.15a10.63,10.63,0,0,1,1.5,1.5c.75.85,1.7,1.5,2.5,2.25a.21.21,0,1,0,.3-.3c-.7-.7-1.55-1.25-2.25-2a15.42,15.42,0,0,0-1.2-1.35c-.7-.6-2.35-1.35-2.45-2.25C131.36,184.52,130.91,184.52,130.91,184.82Z"/><path class="cls-2" d="M126.76,189.32c.7.85,1.85,1.2,2.6,2,.95,1.05,1.9,2.15,2.85,3.2a.21.21,0,1,0,.3-.3c-.95-1.05-1.85-2.15-2.85-3.2-.75-.8-1.9-1.15-2.6-2A.21.21,0,1,0,126.76,189.32Z"/><path class="cls-2" d="M122.06,193.92c1.65,1.8,2.75,4.1,4.9,5.35.25.15.45-.25.2-.4-2.15-1.2-3.2-3.55-4.85-5.25C122.21,193.37,121.91,193.72,122.06,193.92Z"/><path class="cls-6" d="M56.46,152.87l-.7-1a16.27,16.27,0,0,0,3.1,3,9.91,9.91,0,0,0,1.55,1,9.12,9.12,0,0,0,1.25.35c.55.15,1.1.25,1.65.4a4.94,4.94,0,0,0-1.3-1.4c-1.95-1.6-3.85-3.2-5.8-4.75-.2-.15-.45-.3-.65-.15s-.1.2-.1.3A2,2,0,0,0,56.46,152.87Z"/><path class="cls-2" d="M56.56,152.82c-.2-.3-1-1.4-.55-.45a9.91,9.91,0,0,0,2.55,2.45,11.33,11.33,0,0,0,4.75,1.9c.1,0,.2-.1.1-.15-.9-1.4-2.5-2.4-3.75-3.45-.8-.65-1.6-1.35-2.4-2-.3-.25-.9-1.05-1.35-1-1.45,0-.25,2.4.5,2.85.1.05.2-.15.15-.15A2.09,2.09,0,0,1,55.51,151a1.23,1.23,0,0,1,1.6.35,15.1,15.1,0,0,1,2,1.6c.65.55,1.3,1.05,1.95,1.6.4.35,1.5.95,1.7,1.45.35.9-.85.25-1.4.1a7.22,7.22,0,0,1-2-.9,15.45,15.45,0,0,1-3.45-3.3.11.11,0,1,0-.15.15,12.13,12.13,0,0,1,.7,1C56.46,153,56.66,152.92,56.56,152.82Z"/><path class="cls-6" d="M55.26,159.37a2.08,2.08,0,0,0,1.5.9.45.45,0,0,0,.25-.05c.1-.05.1-.15.1-.25a1.66,1.66,0,0,0-.25-.8,8.16,8.16,0,0,0-3.45-3.55c-.4-.2-.95-.35-1.2,0s0,.85.3,1.2A7.83,7.83,0,0,0,55.26,159.37Z"/><path class="cls-2" d="M55.21,159.47c.4.45,2.2,1.7,2,.25a6.68,6.68,0,0,0-2.8-3.6c-.45-.35-2.35-1.45-2.35-.1,0,.6.65,1.25,1,1.65a6.11,6.11,0,0,0,2.1,1.8c.15.1.25-.1.15-.15a8.06,8.06,0,0,1-2.15-1.75,2,2,0,0,1-.4-.5c-.55-.45-.5-.9.2-1.45a2.55,2.55,0,0,1,1.15.6,8,8,0,0,1,2.05,2.05,3,3,0,0,1,.6,1c.3,1.65-1.1.45-1.45,0A.11.11,0,1,0,55.21,159.47Z"/><path class="cls-6" d="M50.61,163.77a6.41,6.41,0,0,1,.9,1c.6.35,1.15.7,1.75,1.05a18.54,18.54,0,0,0-3.55-4.35,1.86,1.86,0,0,0-1.6-.65,3,3,0,0,0,.8,1.25A17.57,17.57,0,0,0,50.61,163.77Z"/><path class="cls-2" d="M50.51,163.87c.35.3.6.75.9,1A10.14,10.14,0,0,0,53.16,166a.11.11,0,0,0,.15-.15,24.13,24.13,0,0,0-2.55-3.4c-.7-.75-1.55-1.8-2.7-1.7-.05,0-.15.05-.1.15a8.7,8.7,0,0,0,2.55,3,.11.11,0,1,0,.15-.15c-.45-.4-.85-.8-1.25-1.2-.25-.25-1.4-1.25-.75-1.5.35-.15,1.4,1,1.6,1.25a11.46,11.46,0,0,1,1.05,1.15c.35.45.75.9,1,1.35a3.92,3.92,0,0,1,.5.75c0,.2.2.1-.1,0a7.3,7.3,0,0,1-2.1-1.8A.11.11,0,0,0,50.51,163.87Z"/><path class="cls-6" d="M101.11,120.47a1,1,0,0,0-.15-.4,4.67,4.67,0,0,0-2.8-1.85l-.35.2a208.89,208.89,0,0,1-14.55,15.2,6.75,6.75,0,0,0-1.9,2.4,9.31,9.31,0,0,0-.35,1.7,27.49,27.49,0,0,1-1.25,4.4,79.19,79.19,0,0,1,5.8-6.5,199.42,199.42,0,0,1,15.2-14.6C100.91,120.87,101.11,120.72,101.11,120.47Z"/><path class="cls-2" d="M101.21,120.47c-.4-1-1.95-2.55-3.15-2.35-1,.15-1.9,2-2.5,2.65-1.3,1.5-2.65,3-4,4.4-2.75,2.9-5.6,5.6-8.4,8.4-2.4,2.4-2.45,5.4-3.55,8.5,0,.1.1.2.2.1a128.32,128.32,0,0,1,11.25-12c2-2,3.9-3.85,6-5.7,1.2-1.1,3.6-2.35,4.2-3.9.05-.15-.15-.2-.2,0-.35.9-1.7,1.65-2.4,2.25-1,.9-2,1.85-3,2.75-1.9,1.75-3.75,3.6-5.55,5.45-.9.9-10,10.25-9.85,10.35a31.12,31.12,0,0,1,1-3.5,7.81,7.81,0,0,1,2.25-4.05c1.8-1.85,3.75-3.6,5.55-5.45s3.6-3.75,5.35-5.65c.95-1,1.8-2.05,2.75-3.05.7-.75.75-1,1.75-.95a3.39,3.39,0,0,1,2.3,1.9C101.06,120.67,101.26,120.57,101.21,120.47Z"/><path class="cls-6" d="M84,180.42a8.54,8.54,0,0,0-2,1.6c-9.9,9.9-21.8,17.6-32,27.1a15.34,15.34,0,0,1,1.65,7.45c9-8.35,17.5-17.15,25.95-26,2.5-2.65,5-5.25,7.3-8.1a10.46,10.46,0,0,0,1.45-2.2A2.57,2.57,0,0,0,84,180.42Z"/><path class="cls-2" d="M84,180.32c-2.9,1.9-5.25,4.85-7.85,7.1-2.8,2.45-5.7,4.8-8.6,7.1-6,4.75-12,9.35-17.55,14.55a.09.09,0,0,0,0,.15,16.44,16.44,0,0,1,1.65,7.35c0,.1.1.15.2.1,6.4-5.95,12.5-12.1,18.6-18.35,2.9-3,5.8-5.95,8.65-8.95,2.65-2.8,5.7-5.65,7.55-9.05a.1.1,0,0,0,0-.15,3.35,3.35,0,0,0-2.6.15.11.11,0,0,0,.1.2c.65-.45,1.3-.3,1.9.45a16.6,16.6,0,0,1-1.6,2.1c-.55.7-1.15,1.4-1.75,2.1q-2.1,2.4-4.35,4.65c-3.1,3.25-6.25,6.5-9.35,9.7s-6.3,6.45-9.55,9.6l-4.5,4.35c-.35.3-2.1,2.4-2.45,2.3-.9-.15-.55-1.05-.65-1.85-.2-1.35-1.1-2.85-1.15-4.15,0-1.9,3-3.65,4.3-4.8,3.15-2.7,6.45-5.3,9.7-7.9s6.55-5.15,9.75-7.85c1.6-1.35,3.15-2.7,4.7-4.15,1.7-1.55,3.2-3.45,5.15-4.7C84.21,180.42,84.11,180.27,84,180.32Z"/><path class="cls-6" d="M109.76,177.87c0-.1-.45-.05-.5-.15a3,3,0,0,0-.4-.4c-.6-.55-.45-.55-1-1.1-.4-.4-.8-1.3-1.35-1.45,0,0-.1-.05-.15,0a.3.3,0,0,0,0,.2,6.78,6.78,0,0,1-.05,1.75,1.87,1.87,0,0,1-1,1.35c-.2.1-.45.1-.65.2a2.28,2.28,0,0,0-1.1,1.5s-.6.7-.3,1.2a1.52,1.52,0,0,0,.4.4,7.26,7.26,0,0,0,1.3.85,1.49,1.49,0,0,0,.9.2,1.09,1.09,0,0,0,.65-.75,5.84,5.84,0,0,1,.3-1C107.26,179.37,109.31,179.17,109.76,177.87Z"/><path class="cls-2" d="M109.81,177.77a6.39,6.39,0,0,1-2.1-1.9c-.4-.45-.75-1.25-1.4-1.25a.11.11,0,0,0-.1.1c-.15.45.05.95,0,1.4a2.14,2.14,0,0,1-1.5,2s-.15,0-.2,0a3.3,3.3,0,0,0-1,1.2c-.45.85-.8,1.4,0,2.1,1,.9,2.3,1.65,3,.2.35-.65,0-.8.65-1.55a6,6,0,0,1,1.5-1,3.33,3.33,0,0,0,1.25-1.25c0-.15-.15-.25-.2-.1-.6,1.25-2.25,1.7-3.1,2.85,0,.15-.1.35-.15.5-.9,1-1.7,1.15-2.45.5-.2-.5-.4-1-.65-1.5a1,1,0,0,1,.2-.3c.25-1.2,1.3-1.3,2.1-1.9a2.26,2.26,0,0,0,.7-1.2,8.86,8.86,0,0,1,0-1.2c.55-1,.85,0,1.15.45a8.13,8.13,0,0,0,2.2,1.95C109.86,178,110,177.82,109.81,177.77Z"/><path class="cls-6" d="M109.26,175.87a4.58,4.58,0,0,1,1.25,1.15c.6-1.2,1.9-1.85,2.95-2.7.05,0,.1,0,.1-.15a.26.26,0,0,0-.1-.2c-1-.8-1.85-2.1-2.9-2.85a12.58,12.58,0,0,1-1.25,3.8h0a2.82,2.82,0,0,0-.2.6v.2C109.11,175.82,109.16,175.87,109.26,175.87Z"/><path class="cls-2" d="M109.21,176a6.83,6.83,0,0,1,1.25,1.15c.05,0,.15,0,.15,0a7.22,7.22,0,0,1,2.35-2.25c.2-.15.7-.4.7-.65s-.75-.75-1-1a28.3,28.3,0,0,0-2.1-2.15.12.12,0,0,0-.2.05,12.28,12.28,0,0,1-1.25,3.75.1.1,0,0,0,0,.15c-.45-.1-.2.8,0,.95s.25-.1.15-.15a1,1,0,0,1,0-.85c0-.05,0-.1-.1-.15.4.1,1-2.45,1.15-2.75.2-.8.25-.7.8-.15s.9,1.05,1.4,1.55a8.71,8.71,0,0,1,.7.6c0,.2-.75.75-.9.85-.35.25-.75.55-1.1.85-.2.15-.7.9-.9.9s-.9-.7-1.15-.9S109.06,175.92,109.21,176Z"/><path class="cls-6" d="M114.06,173.62l-.25-.1a1.49,1.49,0,0,0,1.45-.4c.45-.4.7-.9,1.15-1.3a10.1,10.1,0,0,0,1.6-1.3,7.53,7.53,0,0,0,.55-1.1,6.29,6.29,0,0,1,1.7-1.75,80.75,80.75,0,0,1,7.2-5c1-.6,1.9-1.2,2.8-1.9,1.1-.85,2.1-1.8,3.1-2.7,2.4-2.1,5.1-3.85,7.6-5.85a22.84,22.84,0,0,0,6.35-7.15c.2-.35.2-1-.15-1a.45.45,0,0,0-.35.15c-4.7,3.35-9.4,6.7-13.95,10.25-2.4,1.9-4.75,3.8-7.1,5.75-1.75,1.45-3.5,2.9-5.3,4.35a7,7,0,0,0-2.25,2.6c-.3.7-.35,1.45-.65,2.1a1.73,1.73,0,0,1-1.65,1.2c-.25,0-.5-.2-.75-.25a2,2,0,0,0-2.4,1.2A1.8,1.8,0,0,0,114.06,173.62Z"/><path class="cls-2" d="M114.11,173.52c.15.1.65,0,1.2-.35a17.24,17.24,0,0,0,2.75-2.65,14.55,14.55,0,0,1,2.25-2.8c.75-.65,1.6-1.25,2.4-1.85,1.75-1.3,3.6-2.5,5.45-3.65,3.35-2.15,6.15-5,9.35-7.4a40.83,40.83,0,0,0,7.85-6.8c.55-.7,2.9-3.15,1.95-4.05-.65-.6-6.5,4.25-7.25,4.8-6.85,5-13.55,10.3-20,15.85a8.13,8.13,0,0,0-2.25,3.1c-.65,1.4,1.1,1.35-2.7,2.25-.15.05-.45-.15-.6-.1a5.05,5.05,0,0,0-1.15.35c-1.45,1-.8,2.85.6,3.4.15.15.2-.05.1-.1-.35-2.8.25-3.8,1.75-3h0c.25-.1.5-.05.75-.15,1-.45,1.1-1.65,1.4-2.55.7-2,2.35-3.15,4-4.5s3.2-2.65,4.85-4c3.25-2.65,6.5-5.3,9.85-7.8,1.65-1.25,3.35-2.5,5-3.7.9-.65,1.85-1.3,2.75-1.95.55-.4,2.15-2.1,2.35-.3,0,.4-1.85,2.55-1.85,2.6-.5.6-1.1,1.2-1.65,1.75a46.4,46.4,0,0,1-4.85,4c-2.65,2-5.1,4.1-7.65,6.2-3.1,2.55-6.75,4.45-10,6.9a15,15,0,0,0-2.4,2.3c-.7.85-3.15,4.2-4.65,4a.11.11,0,0,0,0,.2c.1,0,.15.1.25.1C114.16,173.77,114.26,173.62,114.11,173.52Z"/><path class="cls-6" d="M144.11,163.42a4.07,4.07,0,0,0,1-1.55,1.7,1.7,0,0,0-.3-1.75c-.85-.75-2.15-.05-3,.6-1.5,1.15-3,2.35-4.5,3.5-2.5,1.95-5,3.85-7.45,5.85-5,4-13.8,12.15-13.8,12.15-2.3,4.55-4.6,9.15-6.8,13.75a24.55,24.55,0,0,1,2.55-2.55c2.35-2,5.25-3.2,7.5-5.3.75-.7,1.4-1.5,2.1-2.25C128.41,177.87,136.86,171.22,144.11,163.42Z"/><path class="cls-2" d="M144.21,163.52c2.3-2.6.5-4.8-2.4-2.8a177.36,177.36,0,0,0-15.25,12.05c-3.3,2.85-6.75,5.7-9.85,8.8a13.78,13.78,0,0,0-2.4,4.05L109.21,196c0,.1.1.25.15.15,2.8-3.05,6.3-4.7,9.4-7.3,2.85-2.35,5.1-5.5,7.7-8.15,5.85-5.85,12.1-11.15,17.75-17.15a.11.11,0,0,0-.15-.15c-6.45,6.9-13.8,12.9-20.25,19.8-1.35,1.45-2.6,3-4,4.45-1.75,1.8-4,2.95-6,4.35-.45.3-4.2,2.9-4,3.4-.15-.3,1-2.3,1.25-2.65.55-1.15,1.1-2.3,1.7-3.45,1.35-2.7,2.35-5.85,4.6-7.9l6.3-5.7c2.55-2.25,5.15-4.45,7.8-6.55l6-4.65c1-.8,2-1.55,3-2.35.65-.55,1.35-1.05,2.05-1.55,2.5.75,3,1.75,1.55,2.9C144,163.47,144.11,163.62,144.21,163.52Z"/><path class="cls-6" d="M134.51,188.22a.61.61,0,0,0,.7.6,2,2,0,0,0,.9-.5c1.45-1.3,2.8-2.65,4.1-4q13.28-13.65,26.55-27.35a1.55,1.55,0,0,0,.6-1.15c-.05-.85-2-2.35-2-2.35a30.18,30.18,0,0,1-3.15,3.55c-9.7,9.8-18.6,20.35-27.5,30.85A.52.52,0,0,0,134.51,188.22Z"/><path class="cls-2" d="M134.41,188.27c1.05,2.4,5.85-3.9,6.55-4.65,4.1-4.2,8.15-8.4,12.25-12.6,3.95-4.1,7.95-8.2,11.9-12.25.7-.75,2.5-1.9,2.3-3.15-.15-.9-1.35-1.75-2-2.25,0-.05-.15-.05-.15,0-2.35,3.15-5.4,5.85-8.1,8.7s-5.45,5.9-8.1,8.9-5.05,5.8-7.55,8.7c-2.3,2.7-5.3,5.4-7.1,8.5a.11.11,0,0,0,.2.1c1-1.85,2.85-3.5,4.25-5.15s2.7-3.15,4-4.75c2.5-2.9,5.05-5.8,7.6-8.7,2.75-3.1,5.6-6.2,8.45-9.2,1.3-1.35,2.6-2.65,3.9-4,.35-.4,2.3-2.85,2.6-2.8s.85.7,1,.9c1.15,1.75-.1,2.65-1.15,3.7-1.35,1.4-2.7,2.8-4.1,4.2-2.85,2.9-5.65,5.85-8.5,8.75s-5.65,5.85-8.5,8.75c-1.35,1.4-2.7,2.8-4.1,4.2-.55.55-4.9,5.45-5.55,4C134.56,188,134.36,188.12,134.41,188.27Z"/><path class="cls-6" d="M134.71,189a2.8,2.8,0,0,0-2.75.75,3.49,3.49,0,0,0-.6,2.05.26.26,0,0,0,.1.2.22.22,0,0,0,.25,0,3.66,3.66,0,0,0,1.5-.95c.5-.45,1-.9,1.5-1.4.15-.1.3-.3.25-.45A1.09,1.09,0,0,1,134.71,189Z"/><path class="cls-2" d="M134.76,188.87c-.6-.4-1.65-.05-2.2.2a2.79,2.79,0,0,0-1.35,2.7c.2.85,1.4-.15,1.75-.45a19,19,0,0,0,1.8-1.65c.25-.3.3-.5,0-.8-.1-.1-.25.1-.15.15.4.35-1.45,1.8-1.75,2a2.32,2.32,0,0,1-1.1.7c-.2.15-.35,0-.4-.3,0-.15,0-.3,0-.45a3.92,3.92,0,0,1,.25-.7,2,2,0,0,1,1.4-1.3,2.09,2.09,0,0,1,1.55-.05C134.76,189.17,134.91,189,134.76,188.87Z"/><path class="cls-6" d="M128.36,194.17a13,13,0,0,1-2.3,2.1s-.1,0-.1.1a.18.18,0,0,0,.1.25c.2.3.45.55.65.85.1.1.15.2.3.25s.4-.1.55-.2a6.76,6.76,0,0,0,1.85-2.1,2.18,2.18,0,0,1,.8-1.15c.2-.1.4-.1.6-.2a1,1,0,0,0,.3-1.35,2.8,2.8,0,0,0-1.15-1c-.1-.05-.25-.1-.3,0a2.44,2.44,0,0,0,0,.65l-.25.15A5.61,5.61,0,0,1,128.36,194.17Z"/><path class="cls-2" d="M128.26,194.07a11.42,11.42,0,0,1-1.1,1.1c-.3.25-1.15.75-1.25,1.05a.69.69,0,0,0,0,.45c.1.3.65,1.1,1,1.15.6.05,1.35-.9,1.65-1.25a3.75,3.75,0,0,0,.75-1,3.48,3.48,0,0,1,1.3-1.4c.3-.2.55-.3.65-.75.15-.75-.95-2.15-1.75-1.9-.05,0-.05,0-.1.1a4.91,4.91,0,0,1-1.2,2.45.11.11,0,0,0,.15.15c.5-.6.8-1.3,1.25-1.85.25-.4-.25-.1.25-.35s1.1.55,1.15.95c.15,1.05-.8,1-1.25,1.45-.65.65-1.65,3.6-3,3-1.55-.7,1.2-2.65,1.65-3.15A.11.11,0,0,0,128.26,194.07Z"/><path class="cls-2" d="M54.46,197.87c-.25,1.9,2.45,4.6,3.7,5.9,1.45,1.55,3.5,3.65,5.75,3.85.3,0,.3-.4,0-.45-2.1-.2-4-2.25-5.45-3.7-1.1-1.15-3.75-3.85-3.55-5.6A.23.23,0,0,0,54.46,197.87Z"/><path class="cls-2" d="M113.41,182c.8.55,1.15,1.6,1.7,2.35a11,11,0,0,0,1.45,1.6,17,17,0,0,0,4.2,2.5c.25.1.5-.25.2-.4a13.72,13.72,0,0,1-4.75-3.1c-.95-1-1.45-2.55-2.6-3.35A.22.22,0,0,0,113.41,182Z"/></g></g></svg>