<svg xmlns="http://www.w3.org/2000/svg" viewBox="0 0 467.01 659.97"><defs><style>.cls-1{fill:#81c6d8;}.cls-2{fill:#38301f;}.cls-3{fill:#ad968a;}.cls-4{fill:#bfcbc8;}.cls-5{fill:#f26633;}.cls-6{fill:#eae3ca;}.cls-7{fill:#f6bc3c;}</style></defs><title>bowl3</title><g id="Layer_2" data-name="Layer 2"><g id="bong"><path class="cls-1" d="M311,150.45c-17.18-3.75-33.85-9.51-50.21-15.95,7.72,19.73,2.93,42.8-8.53,60.63-3.47,5.39-7.76,10.61-13.64,13.15q35.1,11.11,70.62,20.81l5-7.67c-2.35-16.16,5.63-25.5,24.54-27.63,1.91-9.23,10.9-15,24.91-18.36l2-9.24A478.62,478.62,0,0,0,311,150.45Z"/><path class="cls-2" d="M311.42,148.75c-17.19-3.83-33.83-9.53-50.21-15.94A1.77,1.77,0,0,0,259,135c4.7,12.57,4.66,26,1,38.86-3.49,12.1-10.41,27.21-22.33,32.93-1.44.7-.92,2.8.42,3.22q35.1,11.09,70.62,20.8a1.8,1.8,0,0,0,2-.81c1.5-2.29,3.66-4.72,4.72-7.24,1.33-3.16-.17-7.61.53-11.17,2.15-10.95,12.88-14.78,22.77-16a1.84,1.84,0,0,0,1.7-1.29c2.57-10.74,14.1-14.75,23.68-17.13a1.75,1.75,0,0,0,1.23-1.23l2-9.24a1.82,1.82,0,0,0-1.23-2.17,495.18,495.18,0,0,0-54.68-15.74c-2.21-.49-3.15,2.91-.94,3.4a493.88,493.88,0,0,1,54.68,15.73l-1.23-2.16c-.52,2.43-.69,5.34-1.64,7.62-.85,2.08-.15.59-3,1.43a58.8,58.8,0,0,0-6.71,2.39c-7.28,3.14-13.62,8.17-15.54,16.16l1.7-1.29c-9.63,1.2-20.22,4.34-24.62,13.88-2.1,4.55-1.8,8.78-1.91,13.63,0,1.16.23.81-.12,1.9a13.43,13.43,0,0,1-1.64,2.52l-2.77,4.24,2-.81q-35.51-9.72-70.62-20.8l.42,3.21c12.37-5.93,19.57-21,23.47-33.46,4.31-13.81,4.6-28.68-.49-42.3l-2.17,2.16c16.38,6.42,33,12.12,50.21,16C312.69,152.64,313.63,149.24,311.42,148.75Z"/><path class="cls-3" d="M292.86,154.73Z"/><path class="cls-2" d="M293.31,154h0c-1-.61-1.84.91-.89,1.52h0c1,.61,1.84-.91.89-1.52h0c-1-.61-1.84.91-.89,1.52h0C293.38,156.1,294.26,154.58,293.31,154Z"/><path class="cls-3" d="M363.64,174.26c-3.24-.27-70.06-19.28-70.78-19.53,2.24.56-13.3,51.67-15.53,52-1.4.19,30.25,9.62,36.44,10.71-.14-12.66,8.33-20.34,25-23.61,0-7.25,9.13-14.14,24.62-18.64C363,175.19,363.64,174.26,363.64,174.26Z"/><path class="cls-2" d="M363.64,173.38c-4.23-.49-8.57-2.15-12.67-3.26-8-2.16-16-4.39-23.92-6.62-11.31-3.17-22.75-6.08-33.95-9.62a.88.88,0,0,0-.68,1.61c-.34-.2-.48,2.22-.63,3-.39,2.14-.92,4.25-1.46,6.36-1.45,5.75-3.11,11.45-4.84,17.13-1.64,5.4-3.36,10.79-5.26,16.1-.67,1.86-2.17,7.26-3.39,7.85a.87.87,0,0,0-.31,1.2c.73,1,2.72,1.29,3.82,1.66,3.67,1.22,7.39,2.33,11.1,3.44,7.27,2.16,14.62,4.59,22.08,6a.9.9,0,0,0,1.12-.85c.15-14.17,11.9-20.17,24.31-22.76a.9.9,0,0,0,.65-.85c.53-10.55,15.87-15.35,24-17.79a.91.91,0,0,0,.62-1.09c.11.08.18,0,.2-.21a.88.88,0,0,0-1.52-.89c-.09.16-.37,1.18-.46,1.24.33-.23-3.41.49-2.77.33a30.9,30.9,0,0,0-3.22,1.16A49.73,49.73,0,0,0,345.8,182a22,22,0,0,0-5.89,5.66c-1.21,1.81-1.39,4.66-3,5.65-1.4.89-4,1-5.66,1.54a40.83,40.83,0,0,0-4.52,1.79,27.37,27.37,0,0,0-7.82,5.24c-4.25,4.2-6,9.69-6.07,15.57l1.11-.85c-7.63-1.42-15.16-3.93-22.58-6.14-3.65-1.09-7.3-2.17-10.9-3.39-.35-.11-2.27-1.09-2.65-1-.05,0-.64,2,.65.68s1.71-3.62,2.3-5.15c1.31-3.4,2.46-6.85,3.59-10.31,2.63-8,5.07-16.15,7.21-24.33.47-1.8,4.15-11.55,1.69-13l-.68,1.61c11.52,3.64,23.3,6.63,34.93,9.89,7.9,2.21,15.8,4.42,23.71,6.56,4,1.09,8.22,2.63,12.37,3.11C364.76,175.27,364.76,173.51,363.64,173.38Z"/><path class="cls-4" d="M412,233.79l-74.95-40c-7.58.41-17.4,5.25-21.06,11.9a22.92,22.92,0,0,0,.09,21.81,38.14,38.14,0,0,0,5.05,6.69,126.61,126.61,0,0,0,29.15,24c7.34,4.39,15.22,8.06,23.62,9.67s17.38,1,25.06-2.71,13.88-10.93,15.4-19.34C415.12,241.69,414.64,237.09,412,233.79Z"/><path class="cls-2" d="M412.45,233l-67.76-36.16c-2.19-1.17-4.95-3.38-7.4-3.93-4.14-.92-10.5,2.34-13.94,4.43a21.64,21.64,0,0,0-9.54,11c-4.86,13.38,3.62,23.81,12.68,32.62,10,9.75,21.86,18.35,34.77,23.83s28.87,7.33,41.26-.68c9.54-6.16,17.58-20.13,10.25-30.84-.64-.92-2.17-.05-1.52.89,8.87,13-5.25,28.23-17.26,32-13.45,4.2-27.63-.12-39.54-6.63A123.67,123.67,0,0,1,324.1,236.1c-5.08-5.36-9.59-10.95-9.9-18.68a20,20,0,0,1,10-18.53c4.48-2.71,10-5.59,14.87-3l12,6.38L387,221.45l24.54,13.1C412.56,235.08,413.45,233.56,412.45,233Z"/><path class="cls-4" d="M150.05,284.59l45.76-9.84c6.37-1.37,12.74-2.74,19.19-3.64s12.91-1.29,19.38-1.7c12.6-.8,27.95-1.74,40.55-2.53l89.67,33c17.13,8.48,34,17.85,48.68,30.05s27.28,27.44,34.17,45.26c23.29,36.33-12.22,156.84-37,242.72-8.05,10.89-20.11,18.17-32.61,23.36-27.37,11.36-57.49,13.8-87,16a175.06,175.06,0,0,1-22,.73,136.21,136.21,0,0,1-26.26-4.41A295.4,295.4,0,0,1,93.72,562.38c-9-10.23-17.28-21.27-22.24-33.92C15.71,415.23,31.21,339.58,150.05,284.59Z"/><path class="cls-2" d="M150.52,286.29l43.85-9.44a295.44,295.44,0,0,1,44-5.94l18-1.12,10.34-.64c2.26-.14,5.55-.9,7.77-.56s4.92,1.81,7.12,2.62l73.06,26.89A202.36,202.36,0,0,1,390.49,316c22.14,13.55,42.7,31.5,53.54,55.6,2.86,6.36,6,12.26,7.4,19.17a106.22,106.22,0,0,1,1.84,22c-.08,19.58-3.11,39.12-6.74,58.31-8.65,45.75-21.67,90.6-34.55,135.3-1.74,6-2.94,11.19-7.46,15.84a69.39,69.39,0,0,1-15.79,11.87c-12,6.79-25.47,11.06-38.9,14.08A318,318,0,0,1,309,654.08c-13.85,1.26-28.09,3.07-42,2.08-13.43-.95-26.74-4.64-39.54-8.66a289,289,0,0,1-35.93-14,295.89,295.89,0,0,1-62.73-39.59c-19-15.65-38.4-34.14-50.64-55.69C72.34,528.06,67.68,516.82,63.07,506c-4.06-9.48-7.72-19.12-10.85-28.94-10.3-32.28-14.79-67.69-2.5-100.09,12.8-33.7,41.55-58,71.9-75.7,9.51-5.56,19.33-10.55,29.32-15.2,2.05-.95.26-4-1.78-3-35.46,16.49-71.43,38.51-92.63,72.44-17.86,28.6-20.91,62.36-14.76,95,3.71,19.75,10.36,38.87,18.26,57.31,4.82,11.28,9.67,23.12,15.91,33.68,6.61,11.19,15.29,21.15,24.2,30.55A297.85,297.85,0,0,0,226.5,650.89c13.11,4.12,26.71,7.82,40.47,8.79,14.48,1,29.4-.9,43.81-2.25,26.67-2.49,54.43-6.6,78.3-19.53,9.54-5.17,21.15-12.76,24.28-23.64s6.34-22,9.46-33c6.82-24.08,13.42-48.22,19.2-72.57,5.16-21.74,9.77-43.67,12.57-65.85,2.17-17.13,3.74-35.13.41-52.21-1.25-6.38-3.81-11.63-6.46-17.44a118.5,118.5,0,0,0-19.79-30.92,155.8,155.8,0,0,0-30.43-25.54c-10.46-6.87-21.71-13.69-33.26-18.57-7.85-3.31-16.08-5.92-24.07-8.86l-42.35-15.58L282,267.62c-2.09-.77-4.43-2.07-6.63-2.44-5.27-.87-11.93.65-17.27,1l-20.56,1.28a296,296,0,0,0-44.15,6l-43.85,9.43C147.37,283.37,148.3,286.77,150.52,286.29Z"/><path class="cls-4" d="M446.88,127.51a72.4,72.4,0,0,0-42.09-15.62c-5.72-.21-11.6.29-16.79,2.7s-9.6,7-10.72,12.59,1.05,11.18,3.6,16.21a47.18,47.18,0,0,0,9,12.92c4.51,4.33,10.19,7.2,15.78,10A77.8,77.8,0,0,0,417,171.26a79.09,79.09,0,0,0,10.21,2.24L449,177.27Z"/><path class="cls-2" d="M448.13,126.27a75.19,75.19,0,0,0-43.34-16.14c-12.48-.44-29,4.48-29.54,19.54-.24,7.12,3.49,14.27,7.22,20.14a43.48,43.48,0,0,0,16.24,14.87c7.2,4,14.78,7.84,22.88,9.57,8.9,1.89,18,3.17,26.93,4.72a1.78,1.78,0,0,0,2.22-1.7l-2.1-49.76c-.09-2.26-3.61-2.27-3.52,0l2.1,49.76,2.23-1.69c-14-2.43-28.46-3.66-41.31-10-5.93-2.92-12.19-5.87-17-10.52a46.76,46.76,0,0,1-10.95-17.62c-2.62-7.35-1.22-14.51,5.21-19.23,6-4.42,13.87-4.91,21.09-4.47a71.17,71.17,0,0,1,39.16,15C447.41,130.13,449.91,127.66,448.13,126.27Z"/><path class="cls-4" d="M451.15,635.05A464.83,464.83,0,0,1,284.56,521.57c-7.51-8-15-16.69-17.89-27.27-1.74-6.32-1.76-13-1.52-19.52.51-14.09,2.49-28.91,11-40.11s22.32-17,36.14-18.74,27.81.14,41.61,2l111.31,15.29Z"/><path class="cls-2" d="M451.62,633.35a464.81,464.81,0,0,1-150.51-97.47c-10.54-10.21-22.66-21-29.56-34.15-7.24-13.76-5.7-32.89-2.2-47.62,3.76-15.79,13.84-27.39,29.08-33s32.07-4.4,48-2.37c39.51,5,78.93,10.82,118.39,16.24l-1.29-1.7-4.76,68.08L451.15,610l-1.76,25.09c-.15,2.26,3.37,2.25,3.52,0L457.67,567l7.58-108.62L467,433.25a1.78,1.78,0,0,0-1.3-1.7Q409.12,423.78,352.52,416c-28.33-3.87-66.11-6-81.72,23.89-6.9,13.21-8.28,30.05-7.39,44.72.95,15.57,9.59,27.18,19.9,38.19a463.25,463.25,0,0,0,72.6,62.82,468.75,468.75,0,0,0,94.78,51.11C452.79,637.58,453.7,634.18,451.62,633.35Z"/><path class="cls-4" d="M377.28,127.18c-3.65,18-10.68,30.08-13.64,48.25,10.11,21,27.92,30.16,52.19,29.43A27.45,27.45,0,0,0,423,200c8.24-7,17.79-15.65,26-22.69C408,172.51,376.61,156.58,377.28,127.18Z"/><path class="cls-2" d="M375.58,126.71c-3.33,15.81-10.49,30.53-13.33,46.46-.88,5,3.56,10.12,6.49,13.88a49,49,0,0,0,12.18,11.19c9.64,6.19,22,9,33.43,8.42,6.23-.32,11.83-7.13,16.24-11,6.55-5.72,13-11.5,19.64-17.16,1.29-1.11.11-2.85-1.25-3-27.19-3.26-70.24-13.61-69.94-48.33,0-2.27-3.5-2.27-3.52,0-.32,37,44.29,48.35,73.46,51.85l-1.24-3c-5.27,4.51-10.46,9.11-15.68,13.69q-3.9,3.43-7.83,6.84c-2.86,2.47-6,6.05-9.88,6.58-10.5,1.41-23.48-2.52-32.17-8.27a45.83,45.83,0,0,1-11.84-11.52,33.42,33.42,0,0,1-4.23-6.92c-1.11-2.94.46-7,1.22-10,3.37-13.11,8.85-25.53,11.64-38.8C379.44,125.44,376.05,124.49,375.58,126.71Z"/><path class="cls-4" d="M391.16,267.87c-1.27,3.12-10.43,12.32-11.83,14.52-37.55,5.41-68.77-5.76-79.26-34.34.87-4.2,12.66-22.33,13.54-27.64C316.83,243.54,371.82,278.24,391.16,267.87Z"/><path class="cls-2" d="M390.4,267.42c-2.24,4.64-6.75,8.4-10,12.29-3.52,4.15-12.66,3.08-18,3.12-13.63.09-27.71-2.27-39.63-9.18a50.63,50.63,0,0,1-13.56-11.34c-3.09-3.73-9.5-11.71-7.3-16.59,3.72-8.27,10.66-16.1,12.56-25.07h-1.69c1.15,7.17,5.82,13.4,10.61,18.62a107,107,0,0,0,23,18.5c11.68,7.16,31.29,17.86,45.2,10.86,1-.51.12-2-.89-1.52-6.32,3.18-14.15,1.62-20.61-.3a97.44,97.44,0,0,1-23.82-11.19C334,248,317,235.63,314.46,220.18a.88.88,0,0,0-1.69,0c-1.83,8.61-8.48,16.41-12.21,24.28-1.59,3.34-1.15,4.69.45,8.13a50.3,50.3,0,0,0,8.12,12.32c15.08,16.8,39.31,20.91,60.83,19.37,2.62-.18,7.42.27,9.71-1.09,1.21-.72,2.29-2.65,3.21-3.7,3.07-3.46,7-7,9-11.18C392.41,267.29,390.89,266.4,390.4,267.42Z"/><path class="cls-3" d="M238.72,174.77c1.16-1.06,1.26-1.09,1.29-1.29.31-2.15-10.65-2.56-14.61-8.8-3.8-6,1.09-13.9-.88-14.77-1.69-.75-7.06,4.25-7.67,10.33-.8,7.85,6.74,13.33,8.72,14.77,2.69,2,7.59,4.58,9.84,3C236,177.59,236.38,176.92,238.72,174.77Z"/><path class="cls-2" d="M240,176c1.8-1.62,2.56-3.29.31-5-3.63-2.7-8.78-2.39-12.17-5.82-3.16-3.18-2.44-7.12-1.81-11.09.21-1.32.85-3.08.24-4.4-1.18-2.52-3.86-1.58-5.62-.26-8.25,6.18-6.82,17.26-.16,23.82,2.74,2.7,6.32,5.37,10,6.46,4.52,1.32,6.11-.85,9.17-3.74,1.65-1.56-.85-4-2.49-2.49-3.32,3.15-4.37,4-9,1.32a26,26,0,0,1-6-4.79c-2.71-2.94-4.57-6.62-3.74-10.72a12.69,12.69,0,0,1,3.13-6,8.38,8.38,0,0,1,1.85-1.56c-.65-.78-.9-.48-.74.89-.91,5.42-1.67,10.79,2.61,15.05a19.7,19.7,0,0,0,6.68,4,17,17,0,0,0,3.91,1.41c.6.2,1.2.42,1.78.67.6-1.29.43-1.39-.51-.28C235.79,175.05,238.29,177.53,240,176Z"/><polygon class="cls-1" points="433.86 191.85 444.94 182.79 450.27 184.83 450.21 197.85 433.86 191.85"/><path class="cls-2" d="M435.1,193.1,446.18,184l-1.71.45,5.33,2.05-1.29-1.7-.06,13,2.23-1.7-16.36-6c-2.13-.78-3,2.62-.93,3.4l16.35,6a1.77,1.77,0,0,0,2.23-1.69l.06-13a1.82,1.82,0,0,0-1.29-1.7l-5.33-2a1.75,1.75,0,0,0-1.71.45l-11.09,9.07C430.86,192,433.36,194.52,435.1,193.1Z"/><path class="cls-4" d="M289.5,261.32s-11.1,3.47-13.08,4.8c-2.84,1.92-11.52,6.05-11.74,13.63-.08,3,.23,7.75,1.25,10.59a57.08,57.08,0,0,0,4.06,9.35c5.54,9.53,14.05,16.52,23.78,21.71,8.06,4.3,17.89,7.28,26.6,10a52.89,52.89,0,0,0,15.3,2.68c6.56.09,12.47,0,18.77-1.85,5.47-1.59,12.43-4.63,13.55-10.22.31-1.5,1.49-6.92.49-11.51-.43-1.94-5.22-12.07-5.22-12.07Z"/><path class="cls-2" d="M289.27,260.47c-7.13,2.23-14.1,4.46-19.9,9.36-9.26,7.83-5.41,21.11-.14,30.3,6.95,12.12,19.12,20.4,31.8,25.59,14.66,6,29.82,10.66,45.8,8.91,5.82-.64,12.11-2.19,17-5.59,3.95-2.75,5.19-6.29,5.71-10.91.58-5.08-.4-8.79-2.4-13.33-.92-2.09-1.8-5.58-3.52-7.14-2.79-2.56-8.09-4.08-11.43-5.76l-23.13-11.65-39.11-19.69c-1-.51-1.9,1-.88,1.52l66,33.22c2.26,1.14,5.92,2.16,7.77,3.91-.4-.37.86,2.19,1.09,2.67,1,2.12,2,4.23,2.83,6.39,2,4.94,2.17,13.08-1.57,17.34s-10.64,6.07-16,6.95a62.24,62.24,0,0,1-25.17-1c-13.52-3.5-27.69-8.31-39-16.72a51,51,0,0,1-15-17.06c-3.24-6.25-7-16.52-2.67-23.11,4.77-7.29,14.68-10,22.46-12.48C290.81,261.83,290.35,260.13,289.27,260.47Z"/><path class="cls-4" d="M292.27,260.74c.41-.38.79-.77,1.17-1.17C293.37,258,292.27,260.74,292.27,260.74Z"/><path class="cls-2" d="M292.9,261.36c.37-.35.75-.71,1.1-1.1a1.26,1.26,0,0,0,.25-1.25,1,1,0,0,0-1.55-.64,4.45,4.45,0,0,0-1.27,2.14.88.88,0,0,0,.61,1.08.89.89,0,0,0,1.08-.62l0-.06c.07-.17-.08.17,0,0s.17-.38.27-.57a5.29,5.29,0,0,1,.29-.52c.09-.12,0,0,0,0s0-.06,0,0-.35.1-.57-.1c.17,0-.65-.15-.55-.22s0-.09,0,.06l.26-.62q-.57.6-1.17,1.17C290.83,260.9,292.07,262.14,292.9,261.36Z"/><path class="cls-4" d="M334.27,279.54c-6.74-2.18-13.48-4.85-18.92-9.38-6.94-5.77-11.2-14.06-15.28-22.11-1.26,4.29-6,9.44-9.06,12.69.35,8.49,7.78,15.49,14,21.5,13.33,12.78,32.36,18.45,50.82,18.28a8.75,8.75,0,0,0,3.1-.42,9.14,9.14,0,0,0,2.67-1.87l17.69-15.84C364.77,287.09,348.82,284.27,334.27,279.54Z"/><path class="cls-2" d="M334.5,278.7c-7.87-2.61-15.56-5.79-21.42-11.86-5.32-5.52-8.82-12.47-12.25-19.24a.89.89,0,0,0-1.61.21c-1.27,3.55-3.6,6.47-6.05,9.28-.87,1-2.59,2.15-3,3.42-1.12,3.4,2.62,9.18,4.43,11.72a69.61,69.61,0,0,0,24.78,21.1,78.51,78.51,0,0,0,30.95,7.94c5.24.29,8.67.44,12.68-3.08,5.7-5,11.31-10.12,16.95-15.18a.88.88,0,0,0-.85-1.47C364.23,286,349,283.3,334.5,278.7c-1.08-.35-1.55,1.35-.47,1.69,14.78,4.71,30.38,7.42,45.54,2.84l-.86-1.47-13.27,11.88c-2.87,2.58-5.53,5.3-9.57,6-2.19.38-4.92-.07-7.13-.23a75.35,75.35,0,0,1-29.88-8.32,68.35,68.35,0,0,1-22.75-19.75c-1.47-2-3.24-4.69-3.65-7.19-.51-3.14.57-4.21,2.44-6.38a30.84,30.84,0,0,0,6-9.49l-1.61.21c3.74,7.36,7.6,14.94,13.65,20.71,5.89,5.61,13.46,8.67,21.07,11.19C335.11,280.75,335.57,279.05,334.5,278.7Z"/><path class="cls-4" d="M338.08,194.77c1.63-5.81-7.1,6.8-7.1,6.8s-1.59,7.64-.35,13.36c1.93,8.88,6.25,15,12.45,21.66a61.78,61.78,0,0,0,10.11,8c6.28,4.18,16.32,5.95,23.79,7,8.95,1.26,16.12,1.66,24.26-2.29,2-1,4.43-2.19,5.33-4.6,1-2.71.53-8.71-.54-8.16C359.39,238.56,336.5,206.2,338.08,194.77Z"/><path class="cls-2" d="M338.93,195c1.14-4.77-3.08-1.23-4.41.37-3.08,3.71-4.63,5.94-5.06,10.73-1.75,19.35,14.91,38,32.73,43.41,9.12,2.76,20.29,4.84,29.81,3.53,7.92-1.09,16.67-4.4,15.95-13.62-.12-1.58-.27-2.92-1.62-3.72-1.11-.65-5.18.08-6.66,0a86.09,86.09,0,0,1-10.14-.83,73.63,73.63,0,0,1-26.7-9.15,58.7,58.7,0,0,1-18.5-16.52c-2.84-4.05-5.94-9.32-5.37-14.47.12-1.13-1.64-1.12-1.76,0-.76,6.85,4.19,13.95,8.34,18.89,7.6,9.06,18,15.6,29.13,19.47a81.69,81.69,0,0,0,21.94,4.25c2.33.13,4.67.17,7,.13,2.68,0,2.47-.4,2.6,2.46.31,6.6-5.19,9.08-10.78,10.59-9.44,2.54-20.48.39-29.81-1.93a46.71,46.71,0,0,1-24-15c-7.14-8.19-11.56-17.74-10.24-28.79a8.63,8.63,0,0,1,2.14-5.29c.89-1.2,1.77-2.42,2.76-3.54.29-.33.67-.68.92-1l.42-.42c.79-.58.67-.6-.36,0C337,195.63,338.66,196.1,338.93,195Z"/><path class="cls-2" d="M446.51,140.52c-4.94-5.33-18.55-13.54-26.8-16.63-4.43-1.65-10.12-2-14.85-2s-9.66,1.75-12.52,5.51-3.21,9.12-1.7,13.65,4.63,8.35,8.12,11.62a56.36,56.36,0,0,0,48.43,13.95Z"/><path class="cls-2" d="M447.13,139.9c-3.93-4-8.8-7.19-13.61-10.06-5.16-3.09-10.78-6.31-16.69-7.71-10.36-2.46-26.29-1.92-27.84,11.61-1.43,12.46,10.73,22.46,20.53,27.75a58.13,58.13,0,0,0,37.9,6,.89.89,0,0,0,.65-.85l-.68-26.12a.88.88,0,0,0-1.76,0l.57,22c0,.86.48,2.85.1,3.66-.21.44-8,.52-9.81.51a56.09,56.09,0,0,1-24-5.7c-7.3-3.58-14.86-9-19.06-16.1-6.16-10.5-.91-21.64,11.46-22.14,14.6-.59,30.95,8,41,18.35C446.67,142,447.92,140.71,447.13,139.9Z"/><path class="cls-3" d="M433.44,191l-15.12,13.24c5.45,10.21,4.64,21.95-5.34,30.09a18.21,18.21,0,0,1,.83,14.86c11.92,3,24.7,6.25,36.46,9.81l-.06-61.14c-2.39-.61-18.23-5.58-18.23-5.58"/><path class="cls-2" d="M432.82,190.38,417.7,203.61a.91.91,0,0,0-.14,1.07c5.24,10.39,3.74,21.3-5.2,29a.92.92,0,0,0-.14,1.07A19,19,0,0,1,413,249a.88.88,0,0,0,.61,1.08c12.21,3.06,24.4,6.19,36.46,9.82a.89.89,0,0,0,1.11-.85l-.06-61.14a.89.89,0,0,0-.65-.85c-6.13-1.63-12.17-3.68-18.22-5.58-1.09-.34-1.55,1.36-.47,1.7q5.38,1.69,10.78,3.35c1.87.58,4.11,1.65,6.05,1.83,1.61.16.53-.73.75.07.53,2,0,4.87,0,6.89v11.46l0,42.27,1.11-.85c-6.94-2.09-13.92-4-20.93-5.85q-5.06-1.34-10.11-2.6c-1.31-.33-3.73-.33-4.36-1.69a16.31,16.31,0,0,1,.61-2.9,17.79,17.79,0,0,0-.21-6.13c-.82-3.88-1.37-4,1.42-7.24a22.79,22.79,0,0,0,5.36-11.45,25.44,25.44,0,0,0-1.37-12.4c-.31-.87-1.7-3.2-1.68-3.28.16-.56,1.78-1.56,2.22-1.94l12.61-11c.86-.75-.39-2-1.24-1.25Z"/><path class="cls-5" d="M254.6,182.75c-5.21-1.71-9.21-6-13.67-9.14-1.44,1.63-4.16,5.18-5.88,6.51-1.46,1.14-3.27,2.21-5.07,1.77-1.38-.34-2.44-1.51-3.83-1.8a4.24,4.24,0,0,0-3.69,1.3,10.19,10.19,0,0,0-2.06,3.48,40.34,40.34,0,0,0-1.54,4.66,12.9,12.9,0,0,0-.55,4.22c.21,2.82,1.94,5.27,3.6,7.55a12.58,12.58,0,0,0,1.51,1.82c1.5,1.4,3.58,2,5.56,2.51,3.43.91,7.14,1.81,10.43.5a15.85,15.85,0,0,0,3.59-2.21,40.92,40.92,0,0,0,6.58-5.88,9.43,9.43,0,0,0,2.44-4.76,31.18,31.18,0,0,0-.12-3.86A9.51,9.51,0,0,1,254.6,182.75Z"/><path class="cls-2" d="M254.83,181.9c-5.16-2-9.08-5.82-13.45-9.05a.89.89,0,0,0-1.07.14c-1.4,1.63-2.71,3.39-4.22,4.92a9.33,9.33,0,0,1-2.64,2.27c-2.07.81-3.84,0-5.66-.37-2.66-.61-4.37-.82-6.37,1.48-5.39,6.23-4.77,14.88.09,20.93,4,5,13.88,7.16,19.61,4.05a31.49,31.49,0,0,0,9.93-8.68c3.2-4.54.47-9.78,4.17-14.22.72-.86-.52-2.11-1.25-1.24a12.58,12.58,0,0,0-2.95,7.29c-.49,4-.39,6.26-3.26,9.3a38.07,38.07,0,0,1-5.21,4.44c-4.76,3.48-12.37,3.38-17.46.11-5.43-3.49-6.56-10.21-4.68-15.86,1.55-4.65,4.21-5.16,9.13-4.76a10.21,10.21,0,0,0,2,.16c2.54-.28,4.61-2.4,6.24-4.16.55-.61,2.34-3.52,3.06-3.61,1.39-.17,4.35,3,5.4,3.85a31.76,31.76,0,0,0,8.1,4.71C255.42,184,255.88,182.3,254.83,181.9Z"/><path class="cls-3" d="M217,173.65a26.54,26.54,0,0,1-2.15-2.22,15.38,15.38,0,0,1-2.13-2.84,10.52,10.52,0,0,1-.63-7.43,14.78,14.78,0,0,1,6.8-9,29.69,29.69,0,0,1,3.22-1.54l3.42-1.47a11.34,11.34,0,0,0-3-.32l-13.81-.23h-.07a8,8,0,0,0-2.69,2.6,22,22,0,0,0-4.16,9.93,14.63,14.63,0,0,0,2.38,10.37,16.76,16.76,0,0,0,9.83,6.08,50.2,50.2,0,0,0,11.75.94C222.72,177.2,219.54,175.89,217,173.65Z"/><path class="cls-2" d="M217.65,173c-4.61-4.49-6.62-9.64-3.08-15.42,2.59-4.25,7.07-5.87,11.43-7.74a.89.89,0,0,0-.21-1.61c-3.63-.63-7.4-.42-11.08-.48-2.59-.05-5.3-.85-7.47.72-3.75,2.71-6,9-6.32,13.37-1.09,14.56,13.55,17.46,24.91,17.49,1.06,0,1.1-1.37.23-1.73a33.23,33.23,0,0,1-8.41-4.6c-.87-.7-2.13.54-1.24,1.24a36.87,36.87,0,0,0,9.18,5.06l.24-1.73c-10,0-23.62-1.75-23.21-14.95.11-3.39,2.41-11.6,6.17-13.21,1.77-.77,5.92.1,7.89.13a55.51,55.51,0,0,1,8.65.39l-.21-1.61c-5.78,2.48-11.17,4.85-13.42,11.19-2.17,6.08.38,10.51,4.71,14.73C217.22,175.06,218.47,173.82,217.65,173Z"/><path class="cls-2" d="M259.47,183.55c-10.77-6.88-21.61-13.92-33.2-19.37-1-.47-1.91,1-.89,1.52,11.59,5.45,22.43,12.49,33.2,19.37,1,.62,1.84-.91.89-1.52Z"/><path class="cls-3" d="M229.71,122.93a16.65,16.65,0,0,1,2.45.87c1.22.46,1.83.65,2.45.87,4.4,1.56,10.65,5.56,17.87,7.35,5.48,1.36,9.86,1,10.2,2.78.16.85.59,3.08.59,3.08a53.67,53.67,0,0,0,1.12,5.25s.19,5.91.32,13.4c.14,8.43-.84,12.57-2,14-5.9,6.95-31-.18-33.49-11a18.28,18.28,0,0,1,.24-8.31c.85-2.89,1.95-3.42,3.55-6.7,1.25-2.56,2-6.95,2.19-11.3C235.65,123.92,228.94,122.74,229.71,122.93Z"/><path class="cls-2" d="M229.48,123.78c5.15,1.35,9.86,4.09,14.71,6.22a49.85,49.85,0,0,0,8.06,2.87c2.56.64,7.37.34,9.18,2.29,1.43,1.55,1.89,6.6,2.1,8.73a114.65,114.65,0,0,1,.19,18.53c-.35,5.37-1.32,9.15-7.24,9.84-4.75.56-9.82-.65-14.22-2.38s-10.35-4.86-12-9.82c-2.19-6.61,1.55-10.36,3.82-15.93s4.58-20-4.21-22.07a.88.88,0,0,0-.46,1.7l.06,0a.88.88,0,0,0,.47-1.7l-.07,0-.46,1.7c6.52,1.5,5,11.92,4,16.35-1.27,5.84-5.55,9.7-5.52,15.93.05,10.24,11,15.43,19.73,17.31,7.11,1.54,15.87,1.56,17.37-7,1.73-9.78.7-20.28-1.16-30-1.12-5.82-8.91-4.46-13.62-6-7-2.22-13.2-6.51-20.31-8.38A.88.88,0,0,0,229.48,123.78Z"/><path class="cls-4" d="M415.83,204.86c-5.27,46.15-95.36-1.25-52.19-29.43a64.58,64.58,0,0,0-15.18,6.1c-3.19,1.77-6.34,3.95-8.1,7.15s-1.9,7-1.33,10.65c1.76,10.93,9.73,20.09,19.23,25.77s18.33,9.76,29.16,12c7,1.46,17,1.25,23.07-2.55a22.4,22.4,0,0,0,5.69-5.51,27.47,27.47,0,0,0,5.75-12.19C422.62,212.38,419,208.08,415.83,204.86Z"/><path class="cls-2" d="M415,204.86c-4.23,33.14-56.39,16-61.71-8.35-1.91-8.79,4-15.72,10.85-20.32a.89.89,0,0,0-.68-1.61c-7.43,2-16.53,5.08-21.86,11-4.23,4.68-4.29,11.14-2.74,16.95,3.85,14.34,16.71,22.94,29.37,29,11.84,5.65,27.51,10.69,40.3,5.12,6-2.6,10.52-8.71,12.9-14.61,3-7.32.28-12.35-4.93-17.74-.78-.81-2,.43-1.24,1.25,2.33,2.4,5.1,5.25,5.75,8.66.77,4-1.49,8.41-3.57,11.67-4,6.34-9.21,10-16.67,10.94-11.93,1.52-24.14-2.88-34.61-8.27s-20.41-12.3-24.68-23.62c-2.67-7.07-2.81-15,3.63-20.06,5.42-4.23,12.25-6.72,18.82-8.53l-.68-1.61c-6.24,4.17-12,10.13-12.11,18.09-.11,7,4.08,13.31,8.93,18,10.52,10.17,29.07,18.18,43.6,12.66,8.05-3.06,12-10.34,13.09-18.56C416.86,203.74,415.09,203.75,415,204.86Z"/><path class="cls-3" d="M234.71,129.11a9.61,9.61,0,0,0-2.18-4.44A5.14,5.14,0,0,0,228,123a7.62,7.62,0,0,0-3.5,2A59.34,59.34,0,0,0,209,146.78h0s-.42,1-.61,1.52l17.46.26c-3.55,7.1-1.31,17.46.74,15.9l.43-.24.09-2c1.12-4.64,2.36-9.25,3.76-13.81.64-2.1,1.31-4.19,2.09-6.25a46.39,46.39,0,0,0,1.73-5A17.15,17.15,0,0,0,234.71,129.11Z"/><path class="cls-2" d="M235.55,128.88c-1.8-6-6.49-8.75-11.65-4.46a53.67,53.67,0,0,0-8.22,8.88c-.8,1.06-8,12.41-6.5,12.63a.92.92,0,0,0-1.08.62c-.21.5-.41,1-.61,1.52a.88.88,0,0,0,.85,1.11l17.46.26-.76-1.33c-1.92,4.34-2.82,9.81-1.33,14.45.49,1.51,1.69,3.95,3.6,2.48.92-.71.64-2.25.82-3.31a100.15,100.15,0,0,1,3.28-12.22c2.11-7,5.52-13.16,4.14-20.63-.2-1.11-1.9-.64-1.69.47,1.06,5.78-1.12,10.37-2.9,15.7-1.57,4.71-2.89,9.52-4.1,14.34-.24.94-.26,3-.72,3.83-.18.34.11.91-.48-.51-1.74-4.16-.85-9.75.9-13.71a.89.89,0,0,0-.76-1.32l-17.46-.26.85,1.12c.69-.92.54-1.22-.48-.91a.92.92,0,0,0,1-.41,62.38,62.38,0,0,1,7-12.4,59.39,59.39,0,0,1,5-5.87,15.81,15.81,0,0,1,2.86-2.75q1.62-1.86,4.39-.15c3.12-.82,4.75.27,4.91,3.3A.88.88,0,0,0,235.55,128.88Z"/><path class="cls-4" d="M418.32,204.24c-17.45,49.14-94.93-3.16-54.33-30.8A50,50,0,0,0,386.83,199a89.93,89.93,0,0,0,12.25,4.53C402.85,204.46,414.42,204.32,418.32,204.24Z"/><path class="cls-2" d="M417.47,204c-3.62,9.83-10.81,17.69-21.52,19.29-8.93,1.34-18.21-1.52-25.77-6.2-7.12-4.4-13.79-11.06-16.13-19.31-2.78-9.77,2.53-18.08,10.38-23.58l-1.29-.52c4.68,11.53,13.67,22,25.24,26.95,4.53,2,9.26,3.8,14.2,4.24a150.27,150.27,0,0,0,15.74.25.88.88,0,0,0,0-1.76c-9,.18-17.34.19-25.87-3a48.17,48.17,0,0,1-27.61-27.15.9.9,0,0,0-1.3-.53c-6.17,4.32-11.41,10.31-12,18.12-.52,7,2.72,13.59,7.12,18.79,9.66,11.41,27.12,19.14,41.94,14.42,9.31-3,15.27-10.63,18.56-19.54C419.56,203.41,417.86,203,417.47,204Z"/><path class="cls-2" d="M227.63,127.52a2,2,0,0,0-1.74.26,5.15,5.15,0,0,0-1.28,1.27,58.9,58.9,0,0,0-6.54,10.12,6.74,6.74,0,0,0-1,3.77s.61,1.74,1.5,2a5.39,5.39,0,0,0,2.79,0,5.7,5.7,0,0,0,2.58-1.08,6.88,6.88,0,0,0,1.78-3.17l2.07-6a14.44,14.44,0,0,0,1.08-4.78A2.51,2.51,0,0,0,227.63,127.52Z"/><path class="cls-2" d="M227.63,127.08c-2-.17-2.94,1.13-4.11,2.65a57.28,57.28,0,0,0-5.27,8.15c-1.13,2.12-3,6.09.2,7.53,3.9,1.74,6.82-2.09,7.89-5.15s5.26-10.54,1.51-13.12c-.47-.32-.91.44-.45.76,2.59,1.78-.3,7.49-1.08,9.73-.47,1.37-.83,3.45-1.68,4.62-1.11,1.5-5.36,4.39-6.93,1.1-1.1-2.32,2-6.33,3.11-8.17,1.36-2.2,3.83-7.48,6.81-7.22C228.19,128,228.19,127.13,227.63,127.08Z"/><path class="cls-6" d="M159.94,616.38c-22.15-15.48-37.78-38.9-48.21-63.83s-16.07-51.55-21.65-78c-2.54-12-5.09-24.2-4.58-36.48s4.13-24.35,8.91-35.73c13.36-31.84,35.73-59.16,60.62-83.1,20.87-20.07,47.84-44.7,76.67-47.42-29-2.52-77.24,9.53-102.46,24-9,5.15-15.39,6.85-23.59,13.14-32.41,24.81-53.88,46.08-61.31,86.21C37,435,52.34,493.76,71.48,528.46c4.6,8.35,8.63,15.51,13.73,23.56,13.47,21.26,37.92,36.54,57.06,52.89"/><path class="cls-2" d="M160.16,616c-47.17-33.51-60-94-70.85-147.26C86,452.28,84.48,436.42,88.78,420c3.55-13.56,9.58-26.5,16.55-38.63,13.54-23.54,31.58-44.11,51.11-62.85,20.84-20,45.19-43,75.26-46.23a.44.44,0,0,0,0-.88c-14.63-1.17-29.48.79-43.81,3.68a232.59,232.59,0,0,0-45.37,13.76C114.23,300.92,88,318.65,68.18,342.45c-18.87,22.7-27.05,51.36-26.07,80.62,1.09,32.47,9.81,65.53,23.55,94.9,8,17.21,17.71,35.17,30.87,49,13.68,14.38,30.35,25.45,45.43,38.24.43.37,1-.25.62-.62-11.64-9.88-24.13-18.72-35.58-28.83C94.76,565,85.74,552.71,77.65,538.59a265.17,265.17,0,0,1-30.7-82c-5.43-28.1-6.41-57.48,4.39-84.48,10.09-25.23,29.92-43.66,50.93-60a110.51,110.51,0,0,1,19.83-12.06c5.81-2.83,11.34-6.18,17.22-8.87a218.14,218.14,0,0,1,40.61-13.49c13.74-3.25,27.88-5.59,42-5.77,2.51,0,5.56.61,8,.2,1.65-.28-1-.39-1.4-.37a33.13,33.13,0,0,0-6,1.19,85.08,85.08,0,0,0-19.13,7.53c-13.19,7-24.93,16.54-36,26.51a415.93,415.93,0,0,0-33.38,33.41c-20.43,23.16-39.24,50.72-46.59,81.13-4,16.6-2,32.83,1.38,49.33,3.64,17.58,7.33,35.19,12.29,52.46,8.4,29.24,21.1,58.18,42.79,80.08a119.69,119.69,0,0,0,15.78,13.35c.46.33.9-.43.44-.76Z"/><path class="cls-6" d="M245.26,482.74c1.15-3.25-.15-7-2.42-9.56s-5.35-4.32-8.37-6c-16-8.78-32.28-17.69-50.16-21.31-6-1.22-12.29-1.82-18.36-.74-3.16.57-6.88,2.41-6.82,5.63a7.27,7.27,0,0,0,1.15,3.26A68,68,0,0,0,199,485.5C215.24,490.58,245.26,482.74,245.26,482.74Z"/><path class="cls-2" d="M245.68,482.86c1.48-6-2.3-10.68-7.14-13.81-7.82-5.06-16.51-9.28-24.91-13.28A133.31,133.31,0,0,0,188,446.26c-7.46-1.81-17.17-3.77-24.61-.84-5.71,2.25-5.1,6.22-2.33,10.79a67.91,67.91,0,0,0,14.71,17.07c10.55,8.76,23.2,14.36,37,14.37a131.37,131.37,0,0,0,32.63-4.48.44.44,0,0,0-.23-.85A137.4,137.4,0,0,1,216,486.71c-16.1.59-30.65-5.57-42.46-16.53a67.46,67.46,0,0,1-8.86-10c-3.28-4.56-7.87-11.92.18-14.31,9.4-2.79,20.87.36,29.87,3.23A174.81,174.81,0,0,1,223,461.48c7.65,4,24.59,10,21.84,21.15C244.7,483.18,245.55,483.41,245.68,482.86Z"/><path class="cls-6" d="M303.64,389.8c-2.38-9.37-4.93-19.08-11.16-26.47-1.52-1.81-4.21-3.53-6-2a4.81,4.81,0,0,0-1.32,2.46,71.76,71.76,0,0,0-.23,39.05,28.43,28.43,0,0,0,10.38,9.79c2.07,1.13,4.68,2,6.7.77a6.3,6.3,0,0,0,2.35-3.1C307,403.86,305.35,396.54,303.64,389.8Z"/><path class="cls-2" d="M304.06,389.68c-1.6-6.29-3.22-12.65-6.06-18.51-1.59-3.27-4.75-10-9-10.75s-4.76,4.5-5.45,7.58A71.72,71.72,0,0,0,282,388.66c.4,5.64.72,12.44,4.33,17,2.82,3.55,8,8.58,12.86,8.73,10.69.32,6.21-19.21,4.83-24.69a.44.44,0,0,0-.84.23c1.11,4.47,2.27,9.06,2.07,13.7-.17,4.09-1.17,10.49-7.22,9.67-1.78-.24-3.87-1.75-5.29-2.76a19.94,19.94,0,0,1-8.7-13.08,70.94,70.94,0,0,1-1.33-14.17,69.49,69.49,0,0,1,1.5-14.16c.27-1.29.58-4.11,1.31-5.23,3.76-5.83,7.62.78,9.37,3.54,4.3,6.82,6.32,14.76,8.29,22.49A.44.44,0,0,0,304.06,389.68Z"/><path class="cls-6" d="M449.9,540.78c-37.52-34.2-78.07-69.91-128.2-77.92-10.2-1.63-21.69-1.71-29.62,4.9a12.89,12.89,0,0,0-4.35,6.09c-1.42,4.86,1.27,9.87,4,14.15,16.89,26.68,38.56,50.73,65.22,67.66,27.9,17.72,60.56,27.3,87.36,46.65Z"/><path class="cls-2" d="M450.21,540.47c-37.35-34-80.42-73.45-133.17-78.66-9.68-1-24.37.09-29.15,10.41-2,4.41-.47,9,1.68,13,3.39,6.33,7.83,12.3,12.07,18.07,15.47,21,34.3,39.79,56.54,53.62,27.62,17.17,59.3,26.77,85.88,45.73.3.22.64-.08.67-.38l5.61-61.53c.05-.56-.83-.56-.88,0l-4.2,46-1,11.23a14.86,14.86,0,0,1-.29,3.14c-.63,1.82-.3.34-2.28-1.24-6.67-5.3-14.88-9.3-22.42-13.18-8.26-4.26-16.7-8.14-25.12-12.08C378,567.12,362,559.28,347.55,548.73A206.51,206.51,0,0,1,309.46,512,251.28,251.28,0,0,1,293,489.18c-3.07-4.81-6.93-10.74-4.21-16.52,2.44-5.18,8.24-8.1,13.6-9.35,8.91-2.1,18.43-.45,27.22,1.5a148.61,148.61,0,0,1,23.82,7.5c36.87,15,67.13,42.31,96.18,68.78C450,541.48,450.63,540.85,450.21,540.47Z"/><path class="cls-4" d="M60.1,353.74C83.58,322.9,117,301,151.78,283.93c-21.19-2-42.41,2.56-63,7.93-17,4.42-29,9.06-42.61,20.09-12.47,10.1-26.27,25-32.51,39.74C3,376.92-1.85,405.36,4.69,432a196.16,196.16,0,0,0,7.61,22.81c7.18,18.94,14.75,38.48,29,52.85a144.85,144.85,0,0,0,15.59,13L71,531.28s-7.41-15.66-9.89-21.81a277.49,277.49,0,0,1-19.73-87.92c-.84-14.72-.45-29.84,4.7-43.66C49.37,369.14,54.45,361.17,60.1,353.74Z"/><path class="cls-2" d="M61.62,354.63c23.63-30.73,56.62-52.26,91-69.18,1.71-.84.7-3.14-.88-3.28-25.66-2.22-53,3.67-77.16,12.05-21,7.27-38.66,21.81-52.07,39.3C8.29,352.12,1.44,377,.15,400.19-1.27,425.67,7.5,449,17.28,472.14c4.79,11.33,10.46,22.4,18.41,31.89,9.58,11.44,22.65,19.83,34.46,28.77,1.55,1.17,3.06-1,2.4-2.41C61.1,506.17,52,481.45,47.17,455c-3.1-17-5.1-34.65-4.15-51.92,1-18.4,7.62-33.85,18.6-48.44,1.36-1.81-1.69-3.56-3-1.77-10.54,14-17.29,28.93-18.83,46.52s.46,35.61,3.39,52.91c4.75,28.06,14.26,54.26,26.37,79.88l2.41-2.41C61.6,522,50.38,514.62,41.44,505.19c-7.43-7.82-13-17.17-17.57-26.87-5-10.59-9.16-21.67-13.11-32.7C6.62,434.05,3.88,422.3,3.53,410c-.63-22.75,4.94-48.76,17.38-68.07,11.84-18.35,30-34.73,50.48-42.75,11.47-4.51,23.75-7.34,35.78-9.9,14.69-3.11,29.59-4.86,44.61-3.56l-.89-3.28c-35,17.22-68.28,39.19-92.31,70.45C57.2,354.65,60.26,356.41,61.62,354.63Z"/><path class="cls-6" d="M360.45,253.93a4.63,4.63,0,0,0-.82-1.59,2,2,0,0,0-1.1-.92s-2.8-.79-4,.08-1.44,2.63-1.31,4.14a3.26,3.26,0,0,0,.67,2,2.44,2.44,0,0,0,1,.63,4.49,4.49,0,0,0,4.55-1.47A3.34,3.34,0,0,0,360.45,253.93Z"/><path class="cls-2" d="M360.66,253.87a3.82,3.82,0,0,0-3.84-3,3.24,3.24,0,0,0-3.81,3.19c-.26,2.28.46,4.62,3.13,4.55,2.37-.06,4.83-2.26,4.53-4.71,0-.28-.47-.28-.44,0,.27,2.21-2,4.2-4.09,4.27-2.61.09-3.11-2.79-2.56-4.81.51-1.85,2-2.23,3.67-2a3.42,3.42,0,0,1,3,2.6C360.32,254.25,360.75,254.14,360.66,253.87Z"/><path class="cls-6" d="M383.82,257.25a14.79,14.79,0,0,1-2.49,0,14.62,14.62,0,0,1-2.6-.6l-2-.6c.6,1.08,1.48,2.49,2.64,2.91,1.32.47,2.66,1.38,4.05.82,0,0,5.83-.19,7.94-3.11Z"/><path class="cls-2" d="M383.82,257a19.36,19.36,0,0,1-7.07-1.15.22.22,0,0,0-.25.32,7,7,0,0,0,7.37,3.81c2.79-.39,5.7-.87,7.6-3.14.11-.13,0-.39-.15-.38l-7.5.54c-.28,0-.28.46,0,.44l4.29-.31c1.51-.1,3.7-.57,1.4.83a12.64,12.64,0,0,1-5.64,1.58c-.18,0-.37,0-.55,0a8.46,8.46,0,0,1-3.13-.5c-.28-.11-3.33-1.89-2.92-2.45,0,.06,5.76.86,6.55.81C384.11,257.45,384.11,257,383.82,257Z"/><path class="cls-6" d="M384.19,151l-8.38-15.27C373.54,141.45,364,172,364,172c.07,5.32,9.32,15.09,9.77,15.35.92.53,13.4-18.69,18.48-28C389.79,158.12,384.79,152,384.19,151Z"/><path class="cls-2" d="M384.38,150.84,376,135.57a.23.23,0,0,0-.41.05c-3.12,8.12-5.56,16.53-8.19,24.82-1.94,6.1-5.08,11-1.72,17a42.46,42.46,0,0,0,3.9,5.6c.72.89,2.46,3.84,3.66,4.15s1.31-.06,2.46-1.49c6.4-8,11.79-17.31,16.72-26.28a.22.22,0,0,0-.08-.3,27,27,0,0,1-8-8.27c-.15-.24-.53,0-.38.22a35.13,35.13,0,0,0,4.19,5.08c1.67,1.74,3.59,2.42,2.91,4.75s-2.83,4.85-4.12,7q-2.64,4.32-5.41,8.55c-1.4,2.15-2.82,4.3-4.3,6.39-.57.81-2.16,4-3.19,4.11-2.37.31-7.56-8.68-8.54-10.65-1.94-3.9-.86-5.78.35-9.62q2.08-6.57,4.19-13.15c1.49-4.65,3-9.3,4.57-13.92a9.36,9.36,0,0,1,.78-2.23c1-1.35-.59-1.54,1.12.14s2.65,4.84,3.73,6.79l3.72,6.79C384.14,151.31,384.52,151.08,384.38,150.84Z"/><path class="cls-6" d="M316.42,264.61l0,0S316.56,264.74,316.42,264.61Z"/><path class="cls-2" d="M316.23,264.5l0,0a.22.22,0,0,0,.08.3.29.29,0,0,0,.3,0c.14-.06.12-.25,0-.34l-.05-.06c-.19-.22-.5.09-.31.31l.05.06,0-.35h.21l-.06,0,.08.3,0,0C316.77,264.48,316.39,264.26,316.23,264.5Z"/><path class="cls-6" d="M328.55,244.58c-2.24-1.71-10.07-10-12.15-15.09-2.92,5.58-13.47,21.41-13.43,22s6.78,13.64,11.78,17.3C318.7,262.84,328.78,244.75,328.55,244.58Z"/><path class="cls-2" d="M328.71,244.43c-4.81-3.91-9.56-9.4-12.12-15.05a.22.22,0,0,0-.38,0c-2.28,4.25-4.94,8.31-7.52,12.38-1.39,2.19-5.64,6.76-5.89,9.49-.16,1.76,2.05,4.44,2.87,5.86,2.41,4.17,5.11,8.74,8.93,11.79a.22.22,0,0,0,.34,0c3.24-4.92,6.13-10.08,9-15.21,1.4-2.49,4.43-6.17,4.81-9.07,0-.28-.4-.27-.44,0-.33,2.49-3,5.76-4.21,7.88-2.21,4-4.46,7.89-6.8,11.77-.66,1.09-1.72,3.84-3.07,3.83-1.1,0-4.05-4.67-4.46-5.26-2-2.83-5.39-7-6.17-10.41-.52-2.3,1.8-4.65,3.07-6.66,2.44-3.84,4.91-7.68,7.27-11.57.56-.94,1.86-3.89,2.65-3.68s2.6,4.15,3.21,5a53.32,53.32,0,0,0,8.58,9.3C328.62,244.92,328.93,244.61,328.71,244.43Z"/><path class="cls-6" d="M295.57,266.08l-.06-.09S295.46,266.21,295.57,266.08Z"/><path class="cls-2" d="M295.76,266l-.06-.09a.22.22,0,0,0-.4.05.43.43,0,0,0,0,.25.23.23,0,0,0,.37.09l.05,0c.22-.18-.09-.48-.31-.31l-.05,0,.37.1h0l-.4.05.06.09C295.52,266.43,295.91,266.21,295.76,266Z"/><path class="cls-6" d="M302.1,254.27a91.13,91.13,0,0,1-8.33,13.24c2.66,5.08,11.92,14.31,12.18,14.28s7.83-11.37,7.83-11.62S304.58,258.42,302.1,254.27Z"/><path class="cls-2" d="M301.91,254.16a74.05,74.05,0,0,1-8.33,13.24.2.2,0,0,0,0,.22,50.72,50.72,0,0,0,7,9.1c1.53,1.69,3.25,4.06,5.23,5.26a.24.24,0,0,0,.27,0c1.75-1.62,3-4.22,4.32-6.18.75-1.13,3.65-4.19,3.57-5.63s-3.37-4.55-4.26-5.72c-2.57-3.35-5.23-6.68-7.45-10.26-.15-.24-.53,0-.38.22,3,4.92,6.84,9.38,10.32,14,1.37,1.83,1.31,1.31.46,3.16-1.09,2.37-3.06,4.64-4.53,6.8-.43.64-1.06,2.06-1.72,2.48-1.23.76-.18.58-1.44-.17-2.4-1.43-4.76-4.91-6.52-7-1.14-1.35-3.28-3.29-3.81-5s.52-2.63,1.5-4a72.58,72.58,0,0,0,6.12-10.19C302.41,254.13,302,253.9,301.91,254.16Z"/><path class="cls-6" d="M279.86,199.31c-.18-.42-.72-.11-1.16-.22-8.05-2.16-23.67-4.88-23.67-4.88-1.83,2-2.53,4.3-4.35,6.26A59.39,59.39,0,0,1,261,202.2c5.28,1.39,10.22,4.24,15.67,4.59.94-1.79,2-4,2.93-5.76A2.78,2.78,0,0,0,279.86,199.31Z"/><path class="cls-2" d="M280,199.12c-4.06-1.87-9.8-2.26-14.18-3.12q-5.34-1-10.71-2a.23.23,0,0,0-.21.06c-1.6,2-2.74,4.26-4.35,6.26a.22.22,0,0,0,.16.37,61.34,61.34,0,0,1,14.12,3c3.91,1.4,7.66,2.89,11.82,3.34a.25.25,0,0,0,.19-.11c1.18-2.3,3.23-4.92,3.27-7.59a.22.22,0,0,0-.44,0c0,.8-1.45,5.11-2.49,6-2.11,1.73-4.69.62-6.82-.06-3.13-1-6.14-2.35-9.32-3.22-2.28-.63-5-.61-7.22-1.38-1.47-.52-1.59.47-1.95-1.24-.14-.67,3.44-5,3.32-4.91.79-.26,2.94.53,3.69.66,2.27.42,4.55.85,6.82,1.3,4.36.86,10,1.21,14.08,3.08C280,199.61,280.23,199.23,280,199.12Z"/><path class="cls-6" d="M281.9,178a82.73,82.73,0,0,1-18-5.82l-2.69,8.63c6.84,1.39,15.47,5.74,22.07,8,2.55-5.67,2.26-6.68,3.23-10A32.69,32.69,0,0,0,281.9,178Z"/><path class="cls-2" d="M282,177.76A94.19,94.19,0,0,1,264,172a.23.23,0,0,0-.33.13L261,180.72a.21.21,0,0,0,.15.27c7.67,1.75,14.7,5.38,22.07,8a.22.22,0,0,0,.25-.1,72.28,72.28,0,0,0,3.25-10,.23.23,0,0,0-.15-.27c-1.57-.41-3-.59-4.64-.85-.27,0-.39.38-.11.42,2.64.43,4.55.32,3.75,3.5-.6,2.36-1.32,6.35-4.27,6.15s-6.91-2.8-9.67-3.89c-2.53-1-6.77-1.56-9-3.05s-.67.74-.92-1.07a10.1,10.1,0,0,1,.74-2.38c.35-1.11.66-4,1.48-4.76.62-.54,5.19,1.86,6.33,2.27a79.19,79.19,0,0,0,11.53,3.23C282.12,178.24,282.24,177.81,282,177.76Z"/><path class="cls-6" d="M319.58,190.92c-2.29-.52-4.43-1.57-6.69-2.19s-4.76-.8-7.08-1.43c-4.25-1.15-8.06-3.81-12.42-4.36a1.91,1.91,0,0,0-1.41.22,2,2,0,0,0-.55,1c-.33,1.06-.61,2.51-.61,2.51a42.72,42.72,0,0,0,6.73,2.3l12.86,3.64a46.07,46.07,0,0,0,5.43,1.29,13.84,13.84,0,0,1,2.86.59c.83.32,1.56.84,2.38,1.17,3,1.22,6.36-.36,9.22-1.9C327.45,191.33,323.23,191.76,319.58,190.92Z"/><path class="cls-2" d="M319.64,190.71c-4.05-1.14-7.9-2.34-12-3.22-3.89-.84-7.25-2.84-11-4-4.16-1.3-5.14-1.13-6,3.14a.23.23,0,0,0,.11.25,132.07,132.07,0,0,0,23.24,6.9c2.89.63,5.78,2.14,8.66,2.51s5.45-1.1,7.8-2.32a.22.22,0,0,0,0-.38c-3.23-2.26-7-2.16-10.77-2.87-.28-.05-.4.37-.12.43,2.4.45,6.33.15,8.29,1.56,1.34,0,1.64.57.91,1.64l-3,1.2c-7.8,1.51-3.72-.55-6.93-1.25-6.2-1.36-12.28-3-18.4-4.74-1.93-.55-9-1.85-9.13-3.71-.42-5.38,10.18.11,11.35.56,5.35,2.09,11.39,3.17,16.94,4.74A.22.22,0,0,0,319.64,190.71Z"/><path class="cls-6" d="M263.69,166.62a2.41,2.41,0,0,0-1.24-.78,89.37,89.37,0,0,0-23.56-5.2,1.38,1.38,0,0,1-1.67-1.31l-1.64-9.47a26.4,26.4,0,0,1-.56-5.23c.06-2.26.69-4.56.12-6.75a155.56,155.56,0,0,0-7.94,26.58s11,5,16.17,8.82c4.64,3.45,8.77,7.9,14.29,9.61a.47.47,0,0,0,.26,0c.14,0,.2-.19.25-.32l5.4-13.71A2.48,2.48,0,0,0,263.69,166.62Z"/><path class="cls-2" d="M263.8,166.43c-6.11-3.85-14.3-4.24-21.21-5.63a10.37,10.37,0,0,1-5.16-1.53l-.33-1.89c-.9-2.11-.95-5.31-1.31-7.58-.64-4.06.11-8-.43-12,0-.24-.36-.17-.43,0A163.39,163.39,0,0,0,227,164.4a.22.22,0,0,0,.1.25c3.41,1.55,6.78,3.22,10.06,5,5.18,2.86,9.39,6.79,14.2,10.16,1.68,1.18,5,3.85,7,2.86,1.46-.71,2.75-7,3.4-8.62.91-2.32,2.64-5,2.15-7.53-.06-.27-.48-.16-.43.12.52,2.7-1.87,6.59-2.82,9-.38,1-1.27,4.44-2,5.14-1.28,1.17-3.8.53-5.11-.06-4.56-2.06-8.11-6.54-12.36-9.24a106.1,106.1,0,0,0-10.66-5.75c-.51-.25-2.81-.93-3.11-1.47-.75-1.35,1.68-7.25,2.1-8.78.8-3,1.72-6,2.71-8.91.49-1.46,1-2.92,1.53-4.37.6-1.64.77-3.7,1.35-1,.45,2-.3,4.76,0,7,.4,3.11,1,6.24,1.6,9.32.77,4.07,1.65,3.23,5.88,3.75,6.64.83,15.25,1.93,21,5.56C263.82,167,264,166.58,263.8,166.43Z"/><path class="cls-6" d="M229.17,173.61c-6.52-1.06-9.31-7.18-9.31-7.18-1.88-3-1.25-5.52-.16-8.88.65-2,4.36-5.13,4.5-7.21-2.89.8-7.35,2.77-8.91,5.33s-3,4.85-3,7.85c0,3.51,2.48,7.91,5.22,10.09,1,.83,5.42,2.64,6.52,3.39,2.15,1.47,2.66,3.83,5.22,4.33a7.07,7.07,0,0,0,5.51-1.59,20.61,20.61,0,0,0,3.91-4.41C236.22,173.33,232.28,174.12,229.17,173.61Z"/><path class="cls-2" d="M229.23,173.4c-3.82-.86-7.57-3.37-9.18-7.08-2-4.7-.58-8.43,2.24-12.18a10.41,10.41,0,0,0,2.12-3.74.22.22,0,0,0-.27-.27c-5.24,1.61-9,4.05-11.15,9.24-2,4.91-.15,10.52,3.84,13.94,1.69,1.44,3.81,2.08,5.73,3.15,2.16,1.21,3.31,3.57,5.43,4.67,4.49,2.3,8.54-2.57,10.85-5.69a.23.23,0,0,0-.08-.3c-2.94-1.82-6.26-1.39-9.59-1.75-.28,0-.28.41,0,.44,1.5.17,6-.33,7,.59,1.17,1.05.33,3.3-.5,4.19a7,7,0,0,1-9.07.76c-1-.68-1.69-2-2.78-2.72a30.07,30.07,0,0,0-3.5-1.75c-4.71-2.32-8.42-7.27-7.63-12.75a13.51,13.51,0,0,1,4.1-7.63c.93-.89,6.51-5.09,6.53-2.56,0,1.15-2.2,2.74-2.87,3.81a11.25,11.25,0,0,0-1.48,3.34,9.43,9.43,0,0,0,.68,7.43,13.8,13.8,0,0,0,9.44,7.28C229.39,173.89,229.51,173.46,229.23,173.4Z"/><path class="cls-6" d="M244.61,184.38a5.28,5.28,0,0,0-2.12-1.87H242c-1,.08-1.29.84-1.79,1.4a.66.66,0,0,0-.23.59.81.81,0,0,0,.22.3l2.37,2.29a1.77,1.77,0,0,0,1.06.62c.78,0,1.26-.87,1.29-1.65A3.24,3.24,0,0,0,244.61,184.38Z"/><path class="cls-2" d="M244.79,184.28c-.59-1-1.86-2.26-3.11-1.92-.82.22-2.21,1.57-1.72,2.44a5.75,5.75,0,0,0,1.17,1.14c.44.43.87.87,1.33,1.29s1,.84,1.62.62c1.4-.48,1.17-2.54.71-3.57-.11-.24-.46,0-.35.21a3.06,3.06,0,0,1,.23,2c-.16.75-.72,1-1.69.63l-.53-.5-1.19-1.15-.59-.57a.42.42,0,0,1-.21-.68,1.88,1.88,0,0,1,1.8-1.55,3.79,3.79,0,0,1,2.18,1.78A.2.2,0,0,0,244.79,184.28Z"/><path class="cls-6" d="M246.67,181.14a2.76,2.76,0,0,0-.66-.9l-.45,0a1,1,0,0,0-1.14.69c-.09.35.24.66.54.88s1,.64,1.47.32A.9.9,0,0,0,246.67,181.14Z"/><path class="cls-2" d="M246.86,181a2.09,2.09,0,0,0-.76-1,2.14,2.14,0,0,0-.67,0c-.62,0-1.4.53-1.22,1.24A2.16,2.16,0,0,0,246,182.5c.79,0,1.1-.75.91-1.42a.22.22,0,0,0-.43.12c.51,1.75-2.57.31-1.6-.54a1.35,1.35,0,0,1,1-.19c.17,0,.12,0,.24.16a5,5,0,0,1,.4.62C246.59,181.51,247,181.29,246.86,181Z"/><path class="cls-3" d="M387.88,64.5a19.36,19.36,0,0,1,2.53-7.61,72.54,72.54,0,0,1,7.33-11.32c5.53-7,12.73-13.84,13-22.75.3-9.3-7.15-16.9-14.51-22.59,8.12,6.07,17.84,14.67,17.84,14.67a149.77,149.77,0,0,1,13.5,12.8c1.75,1.87,3.49,3.86,4.23,6.31,1.69,5.56-2.26,11.19-6.42,15.24s-9.07,8.14-10,13.87c-1,5.95,2.7,11.63,6.69,16.15,6.12,6.94,13.39,12.85,19,20.2s9.52,16.79,7.43,25.8c-1.62,7-6.75,12.86-13,16.41s-13.52,4.95-20.7,5.16c5.67-9.41,9.61-21,5.8-31.31-2.92-7.92-9.81-13.53-15.56-19.71a83.86,83.86,0,0,1-14.83-22.09C388.89,70.82,387.69,67.7,387.88,64.5Z"/><path class="cls-2" d="M388.1,64.5c1.75-13.57,14.81-21.7,20.57-33.27,4.22-8.45,1.89-16.75-4.09-23.67a37.65,37.65,0,0,0-6.34-6C396,0,399.57,3.05,399.82,3.25c1.25,1,2.48,2,3.71,3,3.37,2.75,6.66,5.59,10,8.43,3.92,3.37,7.76,6.81,11.39,10.5C428.09,28.44,432.11,32,432,37c-.11,4.77-3.57,8.85-6.75,12.06-6.26,6.32-12.92,12.37-8.9,22,5,12,18.13,19.38,25.52,29.81,8.38,11.81,10,27.17-1.79,37.31-5.64,4.85-13,7.23-20.28,8.06a16.69,16.69,0,0,1-3.31.28c-1.34-1.28.32-2.72.94-4a52.82,52.82,0,0,0,3.2-7.8c3.71-11.92.65-22.08-7.63-31.09C407.8,98.05,402.32,93,397.9,86.63s-9.73-14.29-9.8-22.13a.22.22,0,0,0-.44,0c.06,6.54,3.77,12.74,7.11,18.17a95,95,0,0,0,13.45,16.74c6.29,6.4,12.75,13,13.58,22.43.78,8.85-2.79,17.41-7.17,24.89a.22.22,0,0,0,.19.33c12.16-.52,25.18-4.47,31.53-15.73,6.17-10.92,1.54-23.53-5.65-32.7-9.3-11.86-35.11-27.47-20.39-44,4-4.46,9.17-8,11.31-13.8,1.95-5.31-.31-9.38-3.87-13.27C418.48,17.4,407.31,8.32,396.36,0c-.19-.15-.46.19-.26.34,5.24,4.14,10.48,8.86,13,15.19,3,7.41.47,14.31-4,20.46-6.33,8.75-16.05,17.19-17.5,28.47C387.62,64.78,388.06,64.78,388.1,64.5Z"/><path class="cls-7" d="M214.08,116.27c-1.75-.69-3.79-1.41-6.18-2.25-7.9-2.76-12.83-2.61-14.38-2.52-3.35.19-9.47.53-11.4,4.34-.38.74-.94,2.3-.08,5.64,2.41,9.29,11.21,14.65,14.25,16.45,4.93,2.91,8.78,5.18,12.59,5.42C208.32,135,209.24,124.61,214.08,116.27Z"/><path class="cls-2" d="M214.19,115.84c-7-2.66-14.09-5.21-21.65-4.72-4.38.28-10.75,1.19-11.36,6.57-1.42,12.44,17.18,24.84,27.7,26.1a.44.44,0,0,0,.44-.44c-.52-9.3.62-18.59,5.14-26.86.27-.5-.49-.94-.76-.45a47.58,47.58,0,0,0-5.4,23c0,1.55.58,2.49-.9,3.17-1.22.57-2.44-.24-3.57-.72a58,58,0,0,1-6.51-3.47,45.05,45.05,0,0,1-7.65-5.42,23.26,23.26,0,0,1-7.2-11.23c-1.66-6.74,3.75-8.87,9.53-9.33,7.67-.62,14.89,1.95,22,4.65C214.49,116.89,214.72,116,214.19,115.84Z"/><path class="cls-6" d="M222.21,122.19c-1.3-2.7-3.79-4.22-8.13-5.92-4.84,8.34-5.76,18.77-5.2,27.08a10.36,10.36,0,0,0,3.75-.46C220.55,140.39,225.47,129,222.21,122.19Z"/><path class="cls-2" d="M222.4,122.08c-1.84-3.25-4.91-4.65-8.26-6a.24.24,0,0,0-.25.1c-4.57,8.37-5.76,17.79-5.23,27.2a.24.24,0,0,0,.22.22c10-.27,17.34-12.19,13.54-21.44-.1-.26-.53-.15-.42.12a15.16,15.16,0,0,1-1.14,12.91,16.6,16.6,0,0,1-5.14,6,9.2,9.2,0,0,1-3.15,1.56c-2.61.38-3.58-.69-3.6-2.91a53.33,53.33,0,0,1,1.7-14.56c.5-1.86,1.28-6.36,2.83-7.42,3-2.06,7.3,2.35,8.52,4.51C222.16,122.55,222.54,122.32,222.4,122.08Z"/></g></g></svg>