<svg xmlns="http://www.w3.org/2000/svg" xmlns:xlink="http://www.w3.org/1999/xlink" viewBox="0 0 467.01 559.21"><defs><style>.cls-1{fill:none;}.cls-2{fill:#81c6d8;}.cls-3{fill:#38301f;}.cls-4{fill:#ad968a;}.cls-5{fill:#bfcbc8;}.cls-6{fill:#f26633;}.cls-7{fill:#eae3ca;}.cls-8{clip-path:url(#clip-path);}.cls-9{fill:#979b3d;}.cls-10{fill:#a5c08a;}</style><clipPath id="clip-path"><path class="cls-1" d="M446.36,38.77c-4.94-5.33-18.55-13.54-26.8-16.63-4.42-1.66-10.12-2-14.85-2s-9.66,1.74-12.52,5.5-3.21,9.13-1.7,13.66,4.64,8.35,8.12,11.61a56.37,56.37,0,0,0,48.43,14Z"/></clipPath></defs><title>bowl2</title><g id="Layer_2" data-name="Layer 2"><g id="bong"><path class="cls-2" d="M311,49.68c-17.18-3.75-33.85-9.51-50.21-15.94,7.72,19.72,2.93,42.79-8.53,60.62-3.47,5.39-7.76,10.61-13.64,13.15q35.1,11.11,70.62,20.81l5-7.67c-2.35-16.16,5.63-25.5,24.54-27.63,1.91-9.23,10.9-15,24.91-18.36l2-9.24A480.67,480.67,0,0,0,311,49.68Z"/><path class="cls-3" d="M311.42,48c-17.19-3.82-33.83-9.53-50.21-15.94A1.77,1.77,0,0,0,259,34.2c4.7,12.57,4.66,26,1,38.86-3.49,12.1-10.41,27.21-22.33,32.93-1.44.7-.92,2.8.42,3.22q35.1,11.08,70.62,20.8a1.81,1.81,0,0,0,2-.8c1.5-2.3,3.66-4.73,4.72-7.25,1.33-3.15-.17-7.61.53-11.17,2.15-11,12.88-14.78,22.77-16a1.84,1.84,0,0,0,1.7-1.29c2.57-10.74,14.1-14.75,23.68-17.13a1.75,1.75,0,0,0,1.23-1.23l2-9.24a1.82,1.82,0,0,0-1.23-2.17A495.18,495.18,0,0,0,311.42,48c-2.21-.49-3.15,2.91-.94,3.4a491.77,491.77,0,0,1,54.68,15.74L363.93,65c-.52,2.43-.69,5.34-1.64,7.62-.85,2.08-.15.59-3,1.43a58.8,58.8,0,0,0-6.71,2.39C345.29,79.53,339,84.56,337,92.55l1.7-1.29c-9.63,1.2-20.22,4.34-24.62,13.88-2.1,4.55-1.8,8.78-1.91,13.63,0,1.17.23.82-.12,1.9a13.43,13.43,0,0,1-1.64,2.52l-2.77,4.24,2-.81q-35.51-9.7-70.62-20.8l.42,3.21c12.37-5.93,19.57-21,23.47-33.46,4.31-13.81,4.6-28.68-.49-42.3l-2.17,2.16c16.38,6.42,33,12.12,50.21,16C312.69,51.87,313.63,48.47,311.42,48Z"/><path class="cls-4" d="M292.86,54Z"/><path class="cls-3" d="M293.31,53.2h0c-1-.61-1.84.91-.89,1.52h0c1,.61,1.84-.91.89-1.52h0c-1-.61-1.84.91-.89,1.52h0C293.38,55.33,294.26,53.81,293.31,53.2Z"/><path class="cls-4" d="M363.64,73.49c-3.24-.27-70.06-19.28-70.78-19.53,2.24.56-13.3,51.68-15.53,52-1.4.19,30.25,9.63,36.44,10.71-.14-12.66,8.33-20.33,25-23.61,0-7.25,9.13-14.14,24.62-18.64C363,74.42,363.64,73.49,363.64,73.49Z"/><path class="cls-3" d="M363.64,72.61c-4.23-.49-8.57-2.14-12.67-3.26-8-2.16-16-4.39-23.92-6.62-11.31-3.17-22.75-6.08-33.95-9.62a.88.88,0,0,0-.68,1.61c-.34-.2-.48,2.22-.63,3-.39,2.14-.92,4.25-1.46,6.36-1.45,5.75-3.11,11.45-4.84,17.13-1.64,5.4-3.36,10.79-5.26,16.1-.67,1.87-2.17,7.26-3.39,7.85a.87.87,0,0,0-.31,1.2c.73,1,2.72,1.3,3.82,1.66,3.67,1.22,7.39,2.33,11.1,3.44,7.27,2.16,14.62,4.6,22.08,6a.9.9,0,0,0,1.12-.85c.15-14.17,11.9-20.17,24.31-22.76a.9.9,0,0,0,.65-.85c.53-10.55,15.87-15.35,24-17.79a.91.91,0,0,0,.62-1.09c.11.09.18,0,.2-.21.59-1-.93-1.85-1.52-.88-.09.15-.37,1.17-.46,1.24.33-.24-3.41.49-2.77.32a30.9,30.9,0,0,0-3.22,1.16,49.73,49.73,0,0,0-10.63,5.41,22,22,0,0,0-5.89,5.66c-1.21,1.82-1.39,4.66-3,5.65-1.4.89-4,1-5.66,1.54a40.83,40.83,0,0,0-4.52,1.79,27.58,27.58,0,0,0-7.82,5.24c-4.25,4.2-6,9.69-6.07,15.57l1.11-.85c-7.63-1.42-15.16-3.92-22.58-6.14-3.65-1.09-7.3-2.17-10.9-3.39-.35-.11-2.27-1.09-2.65-1-.05,0-.64,2,.65.68s1.71-3.62,2.3-5.15c1.31-3.4,2.46-6.85,3.59-10.31,2.63-8,5.07-16.15,7.21-24.33.47-1.8,4.15-11.55,1.69-13l-.68,1.61c11.52,3.64,23.3,6.63,34.93,9.89,7.9,2.21,15.8,4.42,23.71,6.56,4,1.09,8.22,2.63,12.37,3.11C364.76,74.5,364.76,72.74,363.64,72.61Z"/><path class="cls-5" d="M412,133,337.06,93c-7.58.41-17.4,5.25-21.06,11.9a22.92,22.92,0,0,0,.09,21.81,38.14,38.14,0,0,0,5.05,6.69,126.61,126.61,0,0,0,29.15,24c7.34,4.39,15.22,8.06,23.62,9.67s17.38,1,25.06-2.71,13.88-10.92,15.4-19.34C415.12,140.92,414.64,136.32,412,133Z"/><path class="cls-3" d="M412.45,132.26,344.69,96.1c-2.19-1.17-4.95-3.38-7.4-3.93-4.14-.92-10.5,2.34-13.94,4.43a21.64,21.64,0,0,0-9.54,11c-4.86,13.38,3.62,23.81,12.68,32.62,10,9.75,21.86,18.35,34.77,23.83s28.87,7.33,41.26-.67c9.54-6.17,17.58-20.14,10.25-30.85-.64-.92-2.17,0-1.52.89,8.87,13-5.25,28.23-17.26,32-13.45,4.2-27.63-.11-39.54-6.63a123.87,123.87,0,0,1-30.35-23.48c-5.08-5.37-9.59-11-9.9-18.69a20,20,0,0,1,10-18.53c4.48-2.71,10-5.58,14.87-3l12,6.38L387,120.68l24.54,13.1C412.56,134.31,413.45,132.79,412.45,132.26Z"/><path class="cls-5" d="M150.05,183.82,195.81,174c6.37-1.37,12.74-2.74,19.19-3.63s12.91-1.3,19.38-1.71c12.6-.8,27.95-1.74,40.55-2.53l89.67,33c17.13,8.48,34,17.85,48.68,30s27.28,27.44,34.17,45.27c23.29,36.32-12.22,156.83-37,242.71-8.05,10.89-20.11,18.17-32.61,23.36-27.37,11.36-57.49,13.81-87,16a175.06,175.06,0,0,1-22,.73,136.21,136.21,0,0,1-26.26-4.41A295.4,295.4,0,0,1,93.72,461.61c-9-10.23-17.28-21.27-22.24-33.92C15.71,314.46,31.21,238.81,150.05,183.82Z"/><path class="cls-3" d="M150.52,185.52l43.85-9.43a294.15,294.15,0,0,1,44-6l18-1.12,10.34-.64c2.26-.14,5.55-.9,7.77-.56s4.92,1.81,7.12,2.62l73.06,26.89a203,203,0,0,1,35.8,17.86c22.14,13.55,42.7,31.5,53.54,55.6,2.86,6.36,6,12.26,7.4,19.17a106.22,106.22,0,0,1,1.84,22c-.08,19.58-3.11,39.12-6.74,58.31-8.65,45.75-21.67,90.6-34.55,135.3-1.74,6-2.94,11.19-7.46,15.84a69.39,69.39,0,0,1-15.79,11.87c-12,6.8-25.47,11.06-38.9,14.08A316.22,316.22,0,0,1,309,553.31c-13.85,1.26-28.09,3.07-42,2.09-13.43-1-26.74-4.65-39.54-8.67a289,289,0,0,1-35.93-14,295.85,295.85,0,0,1-62.73-39.58c-19-15.65-38.4-34.14-50.64-55.7-5.79-10.19-10.45-21.43-15.06-32.21-4.06-9.47-7.72-19.12-10.85-28.94-10.3-32.28-14.79-67.69-2.5-100.09,12.8-33.7,41.55-58,71.9-75.7C131.13,195,141,190,150.94,185.34c2.05-1,.26-4-1.78-3-35.46,16.49-71.43,38.51-92.63,72.44-17.86,28.6-20.91,62.36-14.76,95C45.48,369.49,52.13,388.6,60,407c4.82,11.28,9.67,23.12,15.91,33.68,6.61,11.19,15.29,21.15,24.2,30.55A297.85,297.85,0,0,0,226.5,550.12c13.11,4.12,26.71,7.82,40.47,8.8,14.48,1,29.4-.91,43.81-2.26,26.67-2.49,54.43-6.6,78.3-19.53,9.54-5.17,21.15-12.76,24.28-23.64s6.34-22,9.46-33c6.82-24.07,13.42-48.22,19.2-72.57,5.16-21.74,9.77-43.67,12.57-65.85,2.17-17.12,3.74-35.13.41-52.21-1.25-6.38-3.81-11.63-6.46-17.44a118.5,118.5,0,0,0-19.79-30.92A155.8,155.8,0,0,0,398.32,216c-10.46-6.86-21.71-13.69-33.26-18.57-7.85-3.31-16.08-5.92-24.07-8.86L298.64,173,282,166.85c-2.09-.76-4.43-2.07-6.63-2.44-5.27-.87-11.93.65-17.27,1l-20.56,1.27a296,296,0,0,0-44.15,6l-43.85,9.44C147.37,182.6,148.3,186,150.52,185.52Z"/><path class="cls-5" d="M446.88,26.74a72.4,72.4,0,0,0-42.09-15.62c-5.72-.21-11.6.3-16.79,2.71s-9.6,7-10.72,12.58,1.05,11.18,3.6,16.22a47.13,47.13,0,0,0,9,12.91c4.51,4.33,10.19,7.2,15.78,10A77.8,77.8,0,0,0,417,70.49a77.46,77.46,0,0,0,10.21,2.24L449,76.5Z"/><path class="cls-3" d="M448.13,25.5A75.19,75.19,0,0,0,404.79,9.36c-12.48-.44-29,4.48-29.54,19.55C375,36,378.74,43.17,382.47,49a43.48,43.48,0,0,0,16.24,14.87c7.2,4,14.78,7.84,22.88,9.57,8.9,1.89,18,3.17,26.93,4.72a1.78,1.78,0,0,0,2.22-1.7l-2.1-49.76c-.09-2.25-3.61-2.27-3.52,0l2.1,49.76,2.23-1.69c-14-2.42-28.46-3.66-41.31-10-5.93-2.92-12.19-5.87-17-10.52a46.8,46.8,0,0,1-10.95-17.61c-2.62-7.36-1.22-14.52,5.21-19.24,6-4.42,13.87-4.91,21.09-4.47a71.17,71.17,0,0,1,39.16,15C447.41,29.36,449.91,26.89,448.13,25.5Z"/><path class="cls-5" d="M451.15,534.28A464.83,464.83,0,0,1,284.56,420.8c-7.51-8-15-16.69-17.89-27.27-1.74-6.32-1.76-13-1.52-19.52.51-14.09,2.49-28.91,11-40.11s22.32-17,36.14-18.73,27.81.13,41.61,2l111.31,15.29Z"/><path class="cls-3" d="M451.62,532.58a464.48,464.48,0,0,1-150.51-97.47c-10.54-10.21-22.66-21-29.56-34.15-7.24-13.76-5.7-32.89-2.2-47.62,3.76-15.79,13.84-27.39,29.08-33s32.07-4.4,48-2.37c39.51,5,78.93,10.82,118.39,16.24l-1.29-1.7-4.76,68.08-7.58,108.63-1.76,25.09c-.15,2.26,3.37,2.25,3.52,0l4.76-68.08,7.58-108.63L467,332.48a1.76,1.76,0,0,0-1.3-1.69Q409.12,323,352.52,315.24c-28.33-3.87-66.11-6-81.72,23.89-6.9,13.22-8.28,30.05-7.39,44.72.95,15.57,9.59,27.18,19.9,38.19a463.25,463.25,0,0,0,72.6,62.82A468.75,468.75,0,0,0,450.69,536C452.79,536.82,453.7,533.41,451.62,532.58Z"/><path class="cls-5" d="M377.28,26.41c-3.65,18-10.68,30.08-13.64,48.25,10.11,21,27.92,30.16,52.19,29.44A27.73,27.73,0,0,0,423,99.19c8.24-7,17.79-15.65,26-22.69C408,71.74,376.61,55.81,377.28,26.41Z"/><path class="cls-3" d="M375.58,25.94c-3.33,15.81-10.49,30.53-13.33,46.46-.88,4.95,3.56,10.12,6.49,13.88a49,49,0,0,0,12.18,11.2c9.64,6.19,22,9,33.43,8.41,6.23-.32,11.83-7.13,16.24-11,6.55-5.72,13-11.5,19.64-17.16,1.29-1.11.11-2.84-1.25-3C421.79,71.48,378.74,61.13,379,26.41c0-2.27-3.5-2.27-3.52,0-.32,37,44.29,48.35,73.46,51.85l-1.24-3c-5.27,4.51-10.46,9.11-15.68,13.69q-3.9,3.43-7.83,6.84c-2.86,2.47-6,6-9.88,6.58-10.5,1.41-23.48-2.52-32.17-8.27a45.83,45.83,0,0,1-11.84-11.52,33.16,33.16,0,0,1-4.23-6.92c-1.11-2.94.46-7,1.22-10,3.37-13.1,8.85-25.52,11.64-38.8C379.44,24.67,376.05,23.72,375.58,25.94Z"/><path class="cls-5" d="M391.16,167.1c-1.27,3.12-10.43,12.32-11.83,14.52-37.55,5.42-68.77-5.76-79.26-34.34.87-4.2,12.66-22.33,13.54-27.64C316.83,142.77,371.82,177.47,391.16,167.1Z"/><path class="cls-3" d="M390.4,166.65c-2.24,4.64-6.75,8.4-10,12.29-3.52,4.15-12.66,3.08-18,3.12-13.63.09-27.71-2.27-39.63-9.18a50.63,50.63,0,0,1-13.56-11.34c-3.09-3.73-9.5-11.71-7.3-16.59,3.72-8.27,10.66-16.1,12.56-25.07h-1.69c1.15,7.17,5.82,13.4,10.61,18.63a107.2,107.2,0,0,0,23,18.49c11.68,7.17,31.29,17.86,45.2,10.86,1-.51.12-2-.89-1.52-6.32,3.18-14.15,1.62-20.61-.29a98.18,98.18,0,0,1-23.82-11.19c-12.24-7.68-29.33-20-31.82-35.45a.88.88,0,0,0-1.69,0c-1.83,8.61-8.48,16.41-12.21,24.28-1.59,3.34-1.15,4.69.45,8.13a50.3,50.3,0,0,0,8.12,12.32c15.08,16.8,39.31,20.91,60.83,19.37,2.62-.18,7.42.27,9.71-1.09,1.21-.72,2.29-2.65,3.21-3.69,3.07-3.47,7-7,9-11.19C392.41,166.53,390.89,165.63,390.4,166.65Z"/><path class="cls-4" d="M238.72,74c1.16-1.06,1.26-1.08,1.29-1.29.31-2.15-10.65-2.56-14.61-8.8-3.8-6,1.09-13.9-.88-14.77-1.69-.75-7.06,4.25-7.67,10.33-.8,7.85,6.74,13.34,8.72,14.77,2.69,2,7.59,4.58,9.84,3C236,76.82,236.38,76.15,238.72,74Z"/><path class="cls-3" d="M240,75.24c1.8-1.62,2.56-3.29.31-5-3.63-2.7-8.78-2.39-12.17-5.82-3.16-3.18-2.44-7.12-1.81-11.09.21-1.32.85-3.07.24-4.4-1.18-2.52-3.86-1.58-5.62-.26-8.25,6.18-6.82,17.26-.16,23.83,2.74,2.69,6.32,5.36,10,6.45,4.52,1.32,6.11-.85,9.17-3.74,1.65-1.56-.85-4-2.49-2.48-3.32,3.14-4.37,3.95-9,1.31a26,26,0,0,1-6-4.79c-2.71-2.94-4.57-6.62-3.74-10.72a12.69,12.69,0,0,1,3.13-6A8.38,8.38,0,0,1,223.75,51c-.65-.78-.9-.48-.74.89-.91,5.42-1.67,10.8,2.61,15a19.88,19.88,0,0,0,6.68,4,17.4,17.4,0,0,0,3.91,1.4c.6.2,1.2.42,1.78.67.6-1.29.43-1.39-.51-.27C235.79,74.28,238.29,76.76,240,75.24Z"/><polygon class="cls-2" points="433.86 91.08 444.94 82.02 450.27 84.06 450.21 97.09 433.86 91.08"/><path class="cls-3" d="M435.1,92.33l11.08-9.07-1.71.45,5.33,2.05-1.29-1.7-.06,13,2.23-1.7-16.36-6c-2.13-.79-3,2.61-.93,3.39l16.35,6A1.77,1.77,0,0,0,452,97.09l.06-13a1.82,1.82,0,0,0-1.29-1.69l-5.33-2.05a1.8,1.8,0,0,0-1.71.45l-11.09,9.07C430.86,91.27,433.36,93.75,435.1,92.33Z"/><path class="cls-5" d="M289.5,160.55s-11.1,3.47-13.08,4.8c-2.84,1.92-11.52,6.05-11.74,13.63-.08,3,.23,7.75,1.25,10.6a57.35,57.35,0,0,0,4.06,9.34c5.54,9.53,14.05,16.52,23.78,21.71,8.06,4.3,17.89,7.28,26.6,10a52.89,52.89,0,0,0,15.3,2.68c6.56.09,12.47,0,18.77-1.84,5.47-1.6,12.43-4.64,13.55-10.23.31-1.5,1.49-6.92.49-11.51-.43-1.94-5.22-12.07-5.22-12.07Z"/><path class="cls-3" d="M289.27,159.7c-7.13,2.23-14.1,4.46-19.9,9.36-9.26,7.83-5.41,21.11-.14,30.31,6.95,12.11,19.12,20.4,31.8,25.59,14.66,6,29.82,10.65,45.8,8.9,5.82-.64,12.11-2.19,17-5.59,3.95-2.75,5.19-6.29,5.71-10.91.58-5.08-.4-8.79-2.4-13.33-.92-2.09-1.8-5.58-3.52-7.14-2.79-2.56-8.09-4.08-11.43-5.76l-23.13-11.65-39.11-19.69c-1-.51-1.9,1-.88,1.52l66,33.22c2.26,1.14,5.92,2.16,7.77,3.92-.4-.38.86,2.18,1.09,2.67,1,2.11,2,4.22,2.83,6.38,2,4.94,2.17,13.08-1.57,17.34s-10.64,6.07-16,6.95a62.42,62.42,0,0,1-25.17-1c-13.52-3.51-27.69-8.32-39-16.73a51,51,0,0,1-15-17.06c-3.24-6.25-7-16.52-2.67-23.11,4.77-7.29,14.68-10,22.46-12.48C290.81,161.06,290.35,159.36,289.27,159.7Z"/><path class="cls-5" d="M292.27,160c.41-.37.79-.76,1.17-1.16C293.37,157.21,292.27,160,292.27,160Z"/><path class="cls-3" d="M292.9,160.59c.37-.35.75-.71,1.1-1.1a1.26,1.26,0,0,0,.25-1.25,1,1,0,0,0-1.55-.63,4.37,4.37,0,0,0-1.27,2.13.88.88,0,0,0,.61,1.08.89.89,0,0,0,1.08-.61l0-.06c.07-.18-.08.16,0,0s.17-.38.27-.57a5.29,5.29,0,0,1,.29-.52c.09-.12,0,0,0,0s0-.05,0,0-.35.1-.57-.1c.17,0-.65-.15-.55-.22s0-.09,0,.07l.26-.63q-.57.6-1.17,1.17C290.83,160.13,292.07,161.37,292.9,160.59Z"/><path class="cls-5" d="M334.27,178.77c-6.74-2.18-13.48-4.85-18.92-9.37-6.94-5.78-11.2-14.07-15.28-22.12-1.26,4.29-6,9.44-9.06,12.69.35,8.49,7.78,15.49,14,21.5,13.33,12.78,32.36,18.45,50.82,18.28a8.75,8.75,0,0,0,3.1-.42,9.14,9.14,0,0,0,2.67-1.87l17.69-15.84C364.77,186.33,348.82,183.51,334.27,178.77Z"/><path class="cls-3" d="M334.5,177.93c-7.87-2.61-15.56-5.79-21.42-11.86-5.32-5.52-8.82-12.46-12.25-19.24a.89.89,0,0,0-1.61.21c-1.27,3.55-3.6,6.47-6.05,9.28-.87,1-2.59,2.15-3,3.42-1.12,3.4,2.62,9.19,4.43,11.72a69.61,69.61,0,0,0,24.78,21.1,78.51,78.51,0,0,0,30.95,7.94c5.24.29,8.67.44,12.68-3.08,5.7-5,11.31-10.12,16.95-15.18a.88.88,0,0,0-.85-1.47c-14.87,4.48-30.12,1.77-44.6-2.84-1.08-.35-1.55,1.35-.47,1.69,14.78,4.71,30.38,7.42,45.54,2.85l-.86-1.48-13.27,11.89c-2.87,2.57-5.53,5.29-9.57,6-2.19.38-4.92-.07-7.13-.23a75.35,75.35,0,0,1-29.88-8.32,68.23,68.23,0,0,1-22.75-19.75c-1.47-2-3.24-4.69-3.65-7.19-.51-3.14.57-4.21,2.44-6.38a30.72,30.72,0,0,0,6-9.49l-1.61.21c3.74,7.37,7.6,14.94,13.65,20.71,5.89,5.61,13.46,8.67,21.07,11.19C335.11,180,335.57,178.28,334.5,177.93Z"/><path class="cls-5" d="M338.08,94c1.63-5.81-7.1,6.8-7.1,6.8s-1.59,7.64-.35,13.36c1.93,8.89,6.25,15,12.45,21.67a61.72,61.72,0,0,0,10.11,8c6.28,4.18,16.32,5.95,23.79,7,8.95,1.26,16.12,1.66,24.26-2.29,2-1,4.43-2.19,5.33-4.6,1-2.7.53-8.71-.54-8.16C359.39,137.79,336.5,105.43,338.08,94Z"/><path class="cls-3" d="M338.93,94.23c1.14-4.77-3.08-1.23-4.41.37-3.08,3.71-4.63,5.94-5.06,10.73-1.75,19.35,14.91,38,32.73,43.42,9.12,2.75,20.29,4.83,29.81,3.52,7.92-1.09,16.67-4.4,15.95-13.62-.12-1.58-.27-2.92-1.62-3.72-1.11-.65-5.18.08-6.66,0a84,84,0,0,1-10.14-.84,73.8,73.8,0,0,1-26.7-9.14,58.86,58.86,0,0,1-18.5-16.53c-2.84-4-5.94-9.32-5.37-14.47.12-1.13-1.64-1.12-1.76,0-.76,6.85,4.19,14,8.34,18.89,7.6,9.06,18,15.61,29.13,19.47a81.69,81.69,0,0,0,21.94,4.25c2.33.14,4.67.18,7,.13,2.68,0,2.47-.39,2.6,2.46.31,6.6-5.19,9.08-10.78,10.59-9.44,2.54-20.48.4-29.81-1.93a46.71,46.71,0,0,1-24-15c-7.14-8.18-11.56-17.74-10.24-28.79a8.65,8.65,0,0,1,2.14-5.29c.89-1.2,1.77-2.42,2.76-3.54.29-.33.67-.68.92-1l.42-.42c.79-.58.67-.6-.36,0C337,94.86,338.66,95.33,338.93,94.23Z"/><path class="cls-3" d="M446.51,39.75c-4.94-5.32-18.55-13.54-26.8-16.62-4.43-1.66-10.12-2-14.85-2s-9.66,1.75-12.52,5.51-3.21,9.13-1.7,13.65,4.63,8.36,8.12,11.62a56.36,56.36,0,0,0,48.43,14Z"/><path class="cls-3" d="M447.13,39.13c-3.93-4-8.8-7.18-13.61-10.06-5.16-3.09-10.78-6.31-16.69-7.71C406.47,18.9,390.54,19.44,389,33c-1.43,12.46,10.73,22.46,20.53,27.76a58.12,58.12,0,0,0,37.9,6,.89.89,0,0,0,.65-.85l-.68-26.12a.88.88,0,0,0-1.76,0l.57,22c0,.86.48,2.85.1,3.66-.21.44-8,.52-9.81.51a56.09,56.09,0,0,1-24-5.7c-7.3-3.58-14.86-9-19.06-16.1-6.16-10.5-.91-21.64,11.46-22.14,14.6-.59,30.95,8,41,18.35C446.67,41.19,447.92,39.94,447.13,39.13Z"/><path class="cls-4" d="M433.44,90.23l-15.12,13.24c5.45,10.21,4.64,22-5.34,30.1a18.18,18.18,0,0,1,.83,14.85c11.92,3,24.7,6.25,36.46,9.81l-.06-61.14c-2.39-.61-18.23-5.58-18.23-5.58"/><path class="cls-3" d="M432.82,89.61,417.7,102.85a.89.89,0,0,0-.14,1.06c5.24,10.39,3.74,21.3-5.2,29a.92.92,0,0,0-.14,1.07,19,19,0,0,1,.75,14.17.88.88,0,0,0,.61,1.08c12.21,3.06,24.4,6.2,36.46,9.82a.89.89,0,0,0,1.11-.85l-.06-61.14a.89.89,0,0,0-.65-.85c-6.13-1.63-12.17-3.68-18.22-5.58-1.09-.34-1.55,1.36-.47,1.7q5.38,1.69,10.78,3.35c1.87.58,4.11,1.65,6.05,1.84,1.61.15.53-.74.75.06.53,2,0,4.87,0,6.89V116l0,42.26,1.11-.85c-6.94-2.09-13.92-4-20.93-5.85q-5.06-1.34-10.11-2.6c-1.31-.33-3.73-.32-4.36-1.68a16.23,16.23,0,0,1,.61-2.91,17.79,17.79,0,0,0-.21-6.13c-.82-3.88-1.37-4,1.42-7.24a22.79,22.79,0,0,0,5.36-11.45,25.44,25.44,0,0,0-1.37-12.4c-.31-.87-1.7-3.2-1.68-3.28.16-.56,1.78-1.56,2.22-1.94l12.61-11c.86-.75-.39-2-1.24-1.25Z"/><path class="cls-6" d="M254.6,82c-5.21-1.71-9.21-6-13.67-9.14-1.44,1.63-4.16,5.18-5.88,6.51-1.46,1.14-3.27,2.21-5.07,1.77-1.38-.34-2.44-1.51-3.83-1.8a4.24,4.24,0,0,0-3.69,1.3,10.19,10.19,0,0,0-2.06,3.48,40.34,40.34,0,0,0-1.54,4.66,12.9,12.9,0,0,0-.55,4.22c.21,2.82,1.94,5.27,3.6,7.55a12.58,12.58,0,0,0,1.51,1.82c1.5,1.4,3.58,2,5.56,2.51,3.43.91,7.14,1.81,10.43.5a15.85,15.85,0,0,0,3.59-2.21,40.92,40.92,0,0,0,6.58-5.88A9.43,9.43,0,0,0,252,92.51a31.18,31.18,0,0,0-.12-3.86A9.51,9.51,0,0,1,254.6,82Z"/><path class="cls-3" d="M254.83,81.13c-5.16-1.95-9.08-5.82-13.45-9a.89.89,0,0,0-1.07.14c-1.4,1.63-2.71,3.39-4.22,4.92a9.33,9.33,0,0,1-2.64,2.27c-2.07.81-3.84,0-5.66-.37-2.66-.61-4.37-.82-6.37,1.49-5.39,6.22-4.77,14.87.09,20.92,4,5,13.88,7.17,19.61,4a31.49,31.49,0,0,0,9.93-8.68c3.2-4.54.47-9.78,4.17-14.22.72-.86-.52-2.11-1.25-1.24A12.61,12.61,0,0,0,251,88.65c-.49,4-.39,6.26-3.26,9.3a38.07,38.07,0,0,1-5.21,4.44c-4.76,3.48-12.37,3.38-17.46.11-5.43-3.49-6.56-10.21-4.68-15.86,1.55-4.65,4.21-5.16,9.13-4.76a10.21,10.21,0,0,0,2,.16c2.54-.28,4.61-2.4,6.24-4.16.55-.61,2.34-3.52,3.06-3.61,1.39-.17,4.35,3,5.4,3.85a31.76,31.76,0,0,0,8.1,4.71C255.42,83.23,255.88,81.53,254.83,81.13Z"/><path class="cls-4" d="M217,72.88a26.54,26.54,0,0,1-2.15-2.22,14.74,14.74,0,0,1-2.13-2.84,10.52,10.52,0,0,1-.63-7.43,14.81,14.81,0,0,1,6.8-9,29.69,29.69,0,0,1,3.22-1.54l3.42-1.47a11.34,11.34,0,0,0-3-.32l-13.81-.23h-.07a8.15,8.15,0,0,0-2.69,2.6,22,22,0,0,0-4.16,9.93,14.63,14.63,0,0,0,2.38,10.37,16.76,16.76,0,0,0,9.83,6.08,49.67,49.67,0,0,0,11.75.94C222.72,76.43,219.54,75.12,217,72.88Z"/><path class="cls-3" d="M217.65,72.26c-4.61-4.49-6.62-9.63-3.08-15.42,2.59-4.25,7.07-5.87,11.43-7.74a.89.89,0,0,0-.21-1.61c-3.63-.63-7.4-.42-11.08-.48-2.59,0-5.3-.85-7.47.72-3.75,2.72-6,9-6.32,13.37-1.09,14.56,13.55,17.46,24.91,17.49,1.06,0,1.1-1.37.23-1.73a33.23,33.23,0,0,1-8.41-4.6c-.87-.7-2.13.54-1.24,1.25a37.16,37.16,0,0,0,9.18,5l.24-1.73c-10,0-23.62-1.75-23.21-14.95.11-3.39,2.41-11.6,6.17-13.21,1.77-.77,5.92.1,7.89.13a56.77,56.77,0,0,1,8.65.39l-.21-1.61c-5.78,2.48-11.17,4.86-13.42,11.19-2.17,6.08.38,10.52,4.71,14.74C217.22,74.3,218.47,73.05,217.65,72.26Z"/><path class="cls-3" d="M259.47,82.79c-10.77-6.89-21.61-13.93-33.2-19.37-1-.48-1.91,1-.89,1.52,11.59,5.44,22.43,12.48,33.2,19.37,1,.61,1.84-.92.89-1.52Z"/><path class="cls-4" d="M229.71,22.16a16.65,16.65,0,0,1,2.45.87c1.22.46,1.83.65,2.45.87,4.4,1.56,10.65,5.56,17.87,7.35,5.48,1.36,9.86,1,10.2,2.78.16.85.59,3.08.59,3.08a53,53,0,0,0,1.12,5.25s.19,5.91.32,13.4c.14,8.43-.84,12.57-2,14-5.9,7-31-.18-33.49-11a18.31,18.31,0,0,1,.24-8.32c.85-2.89,1.95-3.41,3.55-6.7,1.25-2.56,2-6.95,2.19-11.3C235.65,23.15,228.94,22,229.71,22.16Z"/><path class="cls-3" d="M229.48,23c5.15,1.35,9.86,4.09,14.71,6.22a49.85,49.85,0,0,0,8.06,2.87c2.56.64,7.37.34,9.18,2.3,1.43,1.55,1.89,6.59,2.1,8.72a114.65,114.65,0,0,1,.19,18.53c-.35,5.37-1.32,9.15-7.24,9.85-4.75.55-9.82-.66-14.22-2.38s-10.35-4.87-12-9.83c-2.19-6.61,1.55-10.36,3.82-15.93s4.58-20-4.21-22.07a.88.88,0,0,0-.46,1.7l.06,0a.88.88,0,0,0,.47-1.7l-.07,0-.46,1.7c6.52,1.5,5,11.92,4,16.36-1.27,5.83-5.55,9.69-5.52,15.92.05,10.24,11,15.43,19.73,17.31,7.11,1.54,15.87,1.56,17.37-7,1.73-9.78.7-20.28-1.16-29.95-1.12-5.82-8.91-4.46-13.62-6-7-2.22-13.2-6.51-20.31-8.38A.88.88,0,0,0,229.48,23Z"/><path class="cls-5" d="M415.83,104.1c-5.27,46.14-95.36-1.26-52.19-29.44a64.58,64.58,0,0,0-15.18,6.1c-3.19,1.78-6.34,3.95-8.1,7.15s-1.9,7-1.33,10.65c1.76,10.93,9.73,20.09,19.23,25.77s18.33,9.76,29.16,12c7,1.46,17,1.25,23.07-2.55a22.4,22.4,0,0,0,5.69-5.51,27.42,27.42,0,0,0,5.75-12.19C422.62,111.61,419,107.32,415.83,104.1Z"/><path class="cls-3" d="M415,104.1c-4.23,33.13-56.39,16-61.71-8.36-1.91-8.79,4-15.72,10.85-20.32a.89.89,0,0,0-.68-1.61c-7.43,2-16.53,5.08-21.86,11-4.23,4.68-4.29,11.14-2.74,17,3.85,14.34,16.71,23,29.37,29,11.84,5.65,27.51,10.69,40.3,5.12,6-2.6,10.52-8.71,12.9-14.61,3-7.32.28-12.35-4.93-17.74-.78-.81-2,.43-1.24,1.25,2.33,2.4,5.1,5.25,5.75,8.66.77,4-1.49,8.41-3.57,11.67-4,6.34-9.21,10-16.67,10.94-11.93,1.52-24.14-2.88-34.61-8.27s-20.41-12.3-24.68-23.62c-2.67-7.06-2.81-15,3.63-20.06,5.42-4.22,12.25-6.72,18.82-8.53l-.68-1.61C357,78.08,351.22,84,351.09,92c-.11,7,4.08,13.31,8.93,18,10.52,10.17,29.07,18.18,43.6,12.66,8.05-3.06,12-10.34,13.09-18.55C416.86,103,415.09,103,415,104.1Z"/><path class="cls-4" d="M234.71,28.35a9.6,9.6,0,0,0-2.18-4.45,5.14,5.14,0,0,0-4.5-1.67,7.62,7.62,0,0,0-3.5,2A59.42,59.42,0,0,0,209,46h0s-.42,1-.61,1.53l17.46.25c-3.55,7.1-1.31,17.46.74,15.9l.43-.24.09-2c1.12-4.64,2.36-9.25,3.76-13.81.64-2.1,1.31-4.19,2.09-6.25a46.39,46.39,0,0,0,1.73-5A17.11,17.11,0,0,0,234.71,28.35Z"/><path class="cls-3" d="M235.55,28.11c-1.8-6.05-6.49-8.75-11.65-4.46a54.48,54.48,0,0,0-8.22,8.88c-.8,1.06-8,12.41-6.5,12.63a.92.92,0,0,0-1.08.62c-.21.5-.41,1-.61,1.52a.89.89,0,0,0,.85,1.12l17.46.25L225,47.34c-1.92,4.35-2.82,9.81-1.33,14.45.49,1.51,1.69,3.95,3.6,2.48.92-.71.64-2.25.82-3.3a99.82,99.82,0,0,1,3.28-12.23c2.11-7,5.52-13.16,4.14-20.63-.2-1.11-1.9-.64-1.69.47,1.06,5.78-1.12,10.37-2.9,15.7-1.57,4.71-2.89,9.52-4.1,14.34-.24,1-.26,3-.72,3.84-.18.33.11.9-.48-.52-1.74-4.16-.85-9.75.9-13.71a.89.89,0,0,0-.76-1.32l-17.46-.25.85,1.11c.69-.92.54-1.22-.48-.91a.92.92,0,0,0,1-.4,61.82,61.82,0,0,1,7-12.4,59.5,59.5,0,0,1,5-5.88,15.81,15.81,0,0,1,2.86-2.75c1.08-1.24,2.54-1.28,4.39-.14,3.12-.83,4.75.26,4.91,3.29A.88.88,0,0,0,235.55,28.11Z"/><path class="cls-5" d="M418.32,103.47c-17.45,49.14-94.93-3.16-54.33-30.79a50.05,50.05,0,0,0,22.84,25.51,88.62,88.62,0,0,0,12.25,4.53C402.85,103.69,414.42,103.55,418.32,103.47Z"/><path class="cls-3" d="M417.47,103.23c-3.62,9.83-10.81,17.69-21.52,19.29-8.93,1.34-18.21-1.52-25.77-6.2-7.12-4.4-13.79-11.06-16.13-19.31-2.78-9.77,2.53-18.08,10.38-23.57l-1.29-.53c4.68,11.53,13.67,22,25.24,27,4.53,2,9.26,3.8,14.2,4.24a150.27,150.27,0,0,0,15.74.25.88.88,0,0,0,0-1.76c-9,.18-17.34.19-25.87-3a48.17,48.17,0,0,1-27.61-27.15.9.9,0,0,0-1.3-.52c-6.17,4.31-11.41,10.3-12,18.11-.52,7,2.72,13.59,7.12,18.79,9.66,11.41,27.12,19.15,41.94,14.42,9.31-3,15.27-10.63,18.56-19.54C419.56,102.64,417.86,102.18,417.47,103.23Z"/><path class="cls-3" d="M227.63,26.75a2,2,0,0,0-1.74.26,5.32,5.32,0,0,0-1.28,1.27,58.9,58.9,0,0,0-6.54,10.12,6.76,6.76,0,0,0-1,3.77s.61,1.74,1.5,2a5.39,5.39,0,0,0,2.79,0,5.68,5.68,0,0,0,2.58-1.07A6.91,6.91,0,0,0,225.71,40l2.07-6a14.55,14.55,0,0,0,1.08-4.78A2.52,2.52,0,0,0,227.63,26.75Z"/><path class="cls-3" d="M227.63,26.31c-2-.17-2.94,1.13-4.11,2.65a57.85,57.85,0,0,0-5.27,8.15c-1.13,2.12-3,6.09.2,7.53,3.9,1.74,6.82-2.09,7.89-5.15S231.6,29,227.85,26.37c-.47-.32-.91.44-.45.76,2.59,1.78-.3,7.49-1.08,9.73-.47,1.38-.83,3.45-1.68,4.62-1.11,1.5-5.36,4.39-6.93,1.1-1.1-2.32,2-6.32,3.11-8.17,1.36-2.2,3.83-7.48,6.81-7.22C228.19,27.24,228.19,26.36,227.63,26.31Z"/><path class="cls-7" d="M159.94,515.61c-22.15-15.48-37.78-38.9-48.21-63.83s-16.07-51.55-21.65-78c-2.54-12-5.09-24.2-4.58-36.48s4.13-24.35,8.91-35.73c13.36-31.83,35.73-59.16,60.62-83.09,20.87-20.07,47.84-44.71,76.67-47.43-29-2.52-77.24,9.53-102.46,24-9,5.15-15.39,6.85-23.59,13.14C73.24,233,51.77,254.29,44.34,294.42,37,334.23,52.34,393,71.48,427.69c4.6,8.35,8.63,15.51,13.73,23.56,13.47,21.26,37.92,36.54,57.06,52.89"/><path class="cls-3" d="M160.16,515.23c-47.17-33.51-60-94-70.85-147.26-3.35-16.46-4.83-32.31-.53-48.76,3.55-13.56,9.58-26.5,16.55-38.63,13.54-23.54,31.58-44.11,51.11-62.84,20.84-20,45.19-43,75.26-46.24a.44.44,0,0,0,0-.88c-14.63-1.17-29.48.79-43.81,3.68a232.59,232.59,0,0,0-45.37,13.76C114.23,200.15,88,217.88,68.18,241.69,49.31,264.38,41.13,293,42.11,322.3c1.09,32.47,9.81,65.53,23.55,94.9,8,17.21,17.71,35.17,30.87,49,13.68,14.38,30.35,25.45,45.43,38.24.43.37,1-.25.62-.62C130.94,494,118.45,485.11,107,475c-12.24-10.81-21.26-23.06-29.35-37.18A265.17,265.17,0,0,1,47,355.87c-5.43-28.1-6.41-57.48,4.39-84.48,10.09-25.23,29.92-43.66,50.93-60a109.37,109.37,0,0,1,19.83-12.06c5.81-2.84,11.34-6.19,17.22-8.88a218.14,218.14,0,0,1,40.61-13.49c13.74-3.25,27.88-5.59,42-5.77,2.51,0,5.56.62,8,.2,1.65-.28-1-.39-1.4-.37a33.13,33.13,0,0,0-6,1.19,85.08,85.08,0,0,0-19.13,7.53c-13.19,7-24.93,16.54-36,26.52a414.17,414.17,0,0,0-33.38,33.4c-20.43,23.16-39.24,50.72-46.59,81.13-4,16.6-2,32.83,1.38,49.34,3.64,17.57,7.33,35.19,12.29,52.45,8.4,29.24,21.1,58.18,42.79,80.08A119.69,119.69,0,0,0,159.72,516c.46.33.9-.43.44-.76Z"/><path class="cls-7" d="M245.26,382c1.15-3.24-.15-7-2.42-9.56s-5.35-4.32-8.37-6c-16-8.78-32.28-17.69-50.16-21.31-6-1.22-12.29-1.82-18.36-.74-3.16.57-6.88,2.41-6.82,5.63a7.23,7.23,0,0,0,1.15,3.26A68,68,0,0,0,199,384.73C215.24,389.81,245.26,382,245.26,382Z"/><path class="cls-3" d="M245.68,382.09c1.48-6-2.3-10.68-7.14-13.81-7.82-5-16.51-9.27-24.91-13.28A133.31,133.31,0,0,0,188,345.49c-7.46-1.81-17.17-3.77-24.61-.84-5.71,2.25-5.1,6.22-2.33,10.79a67.73,67.73,0,0,0,14.71,17.07c10.55,8.77,23.2,14.36,37,14.37a131.37,131.37,0,0,0,32.63-4.48.44.44,0,0,0-.23-.85A137.4,137.4,0,0,1,216,385.94c-16.1.6-30.65-5.57-42.46-16.53a67,67,0,0,1-8.86-10c-3.28-4.56-7.87-11.92.18-14.31,9.4-2.79,20.87.37,29.87,3.23A174.81,174.81,0,0,1,223,360.71c7.65,4,24.59,10,21.84,21.15C244.7,382.41,245.55,382.64,245.68,382.09Z"/><path class="cls-7" d="M303.64,289c-2.38-9.37-4.93-19.08-11.16-26.47-1.52-1.81-4.21-3.53-6-2a4.85,4.85,0,0,0-1.32,2.46A71.76,71.76,0,0,0,284.9,302a28.34,28.34,0,0,0,10.38,9.79c2.07,1.13,4.68,2,6.7.77a6.3,6.3,0,0,0,2.35-3.1C307,303.09,305.35,295.77,303.64,289Z"/><path class="cls-3" d="M304.06,288.91c-1.6-6.29-3.22-12.64-6.06-18.51-1.59-3.27-4.75-10-9-10.75s-4.76,4.5-5.45,7.58A71.72,71.72,0,0,0,282,287.89c.4,5.64.72,12.44,4.33,17,2.82,3.56,8,8.58,12.86,8.73,10.69.32,6.21-19.21,4.83-24.69-.13-.55-1-.31-.84.24,1.11,4.46,2.27,9.05,2.07,13.69-.17,4.09-1.17,10.49-7.22,9.67-1.78-.24-3.87-1.75-5.29-2.75a20,20,0,0,1-8.7-13.09,70.94,70.94,0,0,1-1.33-14.17,69.49,69.49,0,0,1,1.5-14.16c.27-1.29.58-4.11,1.31-5.23,3.76-5.83,7.62.78,9.37,3.55,4.3,6.82,6.32,14.76,8.29,22.49A.44.44,0,0,0,304.06,288.91Z"/><path class="cls-7" d="M449.9,440c-37.52-34.2-78.07-69.91-128.2-77.92-10.2-1.63-21.69-1.71-29.62,4.9a12.89,12.89,0,0,0-4.35,6.09c-1.42,4.86,1.27,9.88,4,14.15,16.89,26.69,38.56,50.73,65.22,67.66,27.9,17.72,60.56,27.3,87.36,46.66Z"/><path class="cls-3" d="M450.21,439.7c-37.35-34-80.42-73.45-133.17-78.66-9.68-1-24.37.09-29.15,10.41-2,4.41-.47,9,1.68,13.05,3.39,6.33,7.83,12.3,12.07,18.07,15.47,21,34.3,39.8,56.54,53.62,27.62,17.17,59.3,26.77,85.88,45.74.3.21.64-.09.67-.38L450.34,440c.05-.56-.83-.56-.88,0l-4.2,46-1,11.23a15,15,0,0,1-.29,3.15c-.63,1.81-.3.33-2.28-1.25-6.67-5.3-14.88-9.29-22.42-13.18-8.26-4.26-16.7-8.14-25.12-12.08C378,466.35,362,458.51,347.55,448a206.51,206.51,0,0,1-38.09-36.69A251.28,251.28,0,0,1,293,388.41c-3.07-4.81-6.93-10.73-4.21-16.52,2.44-5.18,8.24-8.09,13.6-9.35,8.91-2.1,18.43-.45,27.22,1.5a149.63,149.63,0,0,1,23.82,7.5c36.87,15,67.13,42.32,96.18,68.79C450,440.71,450.63,440.09,450.21,439.7Z"/><path class="cls-5" d="M60.1,253c23.48-30.85,56.86-52.78,91.68-69.82-21.19-2-42.41,2.56-63,7.93-17,4.43-29,9.06-42.61,20.09-12.47,10.1-26.27,25-32.51,39.74C3,276.16-1.85,304.59,4.69,331.19A196.16,196.16,0,0,0,12.3,354c7.18,18.94,14.75,38.48,29,52.85a144.85,144.85,0,0,0,15.59,13L71,430.51s-7.41-15.65-9.89-21.81a277.49,277.49,0,0,1-19.73-87.91c-.84-14.73-.45-29.85,4.7-43.67C49.37,268.37,54.45,260.4,60.1,253Z"/><path class="cls-3" d="M61.62,253.86c23.63-30.73,56.62-52.26,91-69.18,1.71-.84.7-3.14-.88-3.28-25.66-2.21-53,3.67-77.16,12-21,7.27-38.66,21.81-52.07,39.3C8.29,251.35,1.44,276.26.15,299.42c-1.42,25.48,7.35,48.85,17.13,71.95,4.79,11.33,10.46,22.41,18.41,31.89C45.27,414.7,58.34,423.09,70.15,432c1.55,1.17,3.06-1,2.4-2.41C61.1,405.4,52,380.68,47.17,354.22c-3.1-17-5.1-34.65-4.15-51.92,1-18.4,7.62-33.85,18.6-48.44,1.36-1.81-1.69-3.56-3-1.77C48,266.1,41.29,281,39.75,298.61s.46,35.61,3.39,52.91c4.75,28.07,14.26,54.26,26.37,79.88L71.92,429c-10.32-7.81-21.54-15.14-30.48-24.56-7.43-7.82-13-17.18-17.57-26.88-5-10.59-9.16-21.67-13.11-32.69-4.14-11.58-6.88-23.33-7.23-35.66-.63-22.75,4.94-48.76,17.38-68.07,11.84-18.35,30-34.73,50.48-42.75,11.47-4.51,23.75-7.34,35.78-9.89,14.69-3.12,29.59-4.87,44.61-3.57l-.89-3.28c-35,17.22-68.28,39.19-92.31,70.45C57.2,253.88,60.26,255.64,61.62,253.86Z"/><path class="cls-7" d="M360.45,153.16a4.63,4.63,0,0,0-.82-1.59,2,2,0,0,0-1.1-.92s-2.8-.79-4,.08-1.44,2.63-1.31,4.14a3.26,3.26,0,0,0,.67,2,2.44,2.44,0,0,0,1,.63,4.49,4.49,0,0,0,4.55-1.47A3.34,3.34,0,0,0,360.45,153.16Z"/><path class="cls-3" d="M360.66,153.1a3.82,3.82,0,0,0-3.84-3,3.24,3.24,0,0,0-3.81,3.19c-.26,2.29.46,4.62,3.13,4.55,2.37-.06,4.83-2.26,4.53-4.71,0-.28-.47-.28-.44,0,.27,2.21-2,4.2-4.09,4.27-2.61.09-3.11-2.78-2.56-4.8.51-1.86,2-2.24,3.67-2a3.42,3.42,0,0,1,3,2.6C360.32,153.49,360.75,153.37,360.66,153.1Z"/><path class="cls-7" d="M383.82,156.48a14.79,14.79,0,0,1-2.49,0,14.62,14.62,0,0,1-2.6-.6l-2-.6c.6,1.08,1.48,2.49,2.64,2.91,1.32.47,2.66,1.38,4.05.82,0,0,5.83-.19,7.94-3.1Z"/><path class="cls-3" d="M383.82,156.26a19.36,19.36,0,0,1-7.07-1.15.22.22,0,0,0-.25.32,7,7,0,0,0,7.37,3.81c2.79-.38,5.7-.87,7.6-3.14.11-.13,0-.39-.15-.37l-7.5.53c-.28,0-.28.46,0,.44l4.29-.3c1.51-.11,3.7-.58,1.4.82a12.64,12.64,0,0,1-5.64,1.58c-.18,0-.37,0-.55,0a8.46,8.46,0,0,1-3.13-.5c-.28-.11-3.33-1.89-2.92-2.45,0,.06,5.76.86,6.55.81C384.11,156.68,384.11,156.24,383.82,156.26Z"/><path class="cls-7" d="M384.19,50.18l-8.38-15.27C373.54,40.69,364,71.23,364,71.23c.07,5.32,9.32,15.09,9.77,15.35.92.53,13.4-18.69,18.48-28C389.79,57.35,384.79,51.25,384.19,50.18Z"/><path class="cls-3" d="M384.38,50.07,376,34.8a.23.23,0,0,0-.41.05C372.47,43,370,51.39,367.4,59.67c-1.94,6.1-5.08,11-1.72,17a43,43,0,0,0,3.9,5.59c.72.89,2.46,3.84,3.66,4.15s1.31-.06,2.46-1.49c6.4-8,11.79-17.31,16.72-26.28a.22.22,0,0,0-.08-.3,27,27,0,0,1-8-8.27c-.15-.24-.53,0-.38.22a34.6,34.6,0,0,0,4.19,5.08c1.67,1.74,3.59,2.42,2.91,4.75s-2.83,4.85-4.12,7q-2.64,4.32-5.41,8.55c-1.4,2.15-2.82,4.3-4.3,6.4-.57.8-2.16,4-3.19,4.1-2.37.31-7.56-8.68-8.54-10.65-1.94-3.9-.86-5.78.35-9.61q2.08-6.58,4.19-13.16c1.49-4.65,3-9.3,4.57-13.92a9.36,9.36,0,0,1,.78-2.23c1-1.35-.59-1.54,1.12.15s2.65,4.83,3.73,6.78L384,50.29C384.14,50.54,384.52,50.31,384.38,50.07Z"/><path class="cls-7" d="M316.42,163.84l0,0S316.56,164,316.42,163.84Z"/><path class="cls-3" d="M316.23,163.73l0,0a.22.22,0,0,0,.08.3.27.27,0,0,0,.3,0c.14-.06.12-.25,0-.34l-.05-.06c-.19-.22-.5.09-.31.31l.05.06,0-.35h.21l-.06,0,.08.3,0,0C316.77,163.72,316.39,163.5,316.23,163.73Z"/><path class="cls-7" d="M328.55,143.82c-2.24-1.72-10.07-10-12.15-15.1-2.92,5.59-13.47,21.41-13.43,22s6.78,13.64,11.78,17.3C318.7,162.07,328.78,144,328.55,143.82Z"/><path class="cls-3" d="M328.71,143.66c-4.81-3.91-9.56-9.4-12.12-15a.22.22,0,0,0-.38,0c-2.28,4.25-4.94,8.31-7.52,12.38-1.39,2.19-5.64,6.76-5.89,9.49-.16,1.76,2.05,4.44,2.87,5.86,2.41,4.17,5.11,8.74,8.93,11.79a.21.21,0,0,0,.34,0c3.24-4.92,6.13-10.08,9-15.21,1.4-2.49,4.43-6.17,4.81-9.06,0-.28-.4-.28-.44,0-.33,2.48-3,5.75-4.21,7.88-2.21,4-4.46,7.88-6.8,11.76-.66,1.09-1.72,3.84-3.07,3.83-1.1,0-4.05-4.67-4.46-5.25-2-2.84-5.39-7-6.17-10.42-.52-2.29,1.8-4.65,3.07-6.66,2.44-3.84,4.91-7.67,7.27-11.57.56-.94,1.86-3.89,2.65-3.68s2.6,4.15,3.21,5a53.32,53.32,0,0,0,8.58,9.3C328.62,144.15,328.93,143.84,328.71,143.66Z"/><path class="cls-7" d="M295.57,165.31l-.06-.09S295.46,165.44,295.57,165.31Z"/><path class="cls-3" d="M295.76,165.2l-.06-.09a.22.22,0,0,0-.4,0,.43.43,0,0,0,0,.25.23.23,0,0,0,.37.09l.05,0c.22-.17-.09-.48-.31-.31l-.05,0,.37.1h0l-.4.05.06.09C295.52,165.66,295.91,165.44,295.76,165.2Z"/><path class="cls-7" d="M302.1,153.5a91.13,91.13,0,0,1-8.33,13.24c2.66,5.08,11.92,14.31,12.18,14.28s7.83-11.36,7.83-11.62S304.58,157.65,302.1,153.5Z"/><path class="cls-3" d="M301.91,153.39a74.05,74.05,0,0,1-8.33,13.24.2.2,0,0,0,0,.22,50.72,50.72,0,0,0,7,9.1c1.53,1.69,3.25,4.06,5.23,5.26a.21.21,0,0,0,.27,0c1.75-1.62,3-4.22,4.32-6.18.75-1.13,3.65-4.19,3.57-5.63s-3.37-4.55-4.26-5.72a126.4,126.4,0,0,1-7.45-10.26c-.15-.24-.53,0-.38.22,3,4.93,6.84,9.38,10.32,14,1.37,1.83,1.31,1.31.46,3.16-1.09,2.37-3.06,4.64-4.53,6.8-.43.64-1.06,2.07-1.72,2.48-1.23.76-.18.58-1.44-.17-2.4-1.43-4.76-4.91-6.52-7-1.14-1.35-3.28-3.29-3.81-5s.52-2.63,1.5-4a72.58,72.58,0,0,0,6.12-10.19C302.41,153.36,302,153.13,301.91,153.39Z"/><path class="cls-7" d="M279.86,98.54c-.18-.42-.72-.11-1.16-.22C270.65,96.16,255,93.45,255,93.45c-1.83,2-2.53,4.29-4.35,6.25A59.39,59.39,0,0,1,261,101.43c5.28,1.39,10.22,4.25,15.67,4.59.94-1.79,2-4,2.93-5.76A2.78,2.78,0,0,0,279.86,98.54Z"/><path class="cls-3" d="M280,98.35c-4.06-1.87-9.8-2.26-14.18-3.12q-5.34-1-10.71-2a.23.23,0,0,0-.21.06c-1.6,2-2.74,4.26-4.35,6.26a.22.22,0,0,0,.16.37,61.87,61.87,0,0,1,14.12,3c3.91,1.4,7.66,2.89,11.82,3.34a.25.25,0,0,0,.19-.11c1.18-2.3,3.23-4.92,3.27-7.59a.22.22,0,0,0-.44,0c0,.8-1.45,5.11-2.49,6-2.11,1.73-4.69.62-6.82-.06-3.13-1-6.14-2.35-9.32-3.22-2.28-.62-5-.61-7.22-1.38-1.47-.52-1.59.47-1.95-1.24-.14-.67,3.44-4.95,3.32-4.91.79-.26,2.94.53,3.69.67,2.27.41,4.55.85,6.82,1.29,4.36.86,10,1.21,14.08,3.08C280,98.84,280.23,98.47,280,98.35Z"/><path class="cls-7" d="M281.9,77.2a82.73,82.73,0,0,1-18-5.82L261.24,80c6.84,1.39,15.47,5.74,22.07,8,2.55-5.67,2.26-6.68,3.23-10A32.71,32.71,0,0,0,281.9,77.2Z"/><path class="cls-3" d="M282,77A93.48,93.48,0,0,1,264,71.19a.23.23,0,0,0-.33.13L261,80a.23.23,0,0,0,.15.28c7.67,1.74,14.7,5.37,22.07,8a.22.22,0,0,0,.25-.1,71.85,71.85,0,0,0,3.25-10,.23.23,0,0,0-.15-.27c-1.57-.41-3-.59-4.64-.85-.27,0-.39.38-.11.42,2.64.43,4.55.32,3.75,3.5-.6,2.36-1.32,6.36-4.27,6.15s-6.91-2.8-9.67-3.89c-2.53-1-6.77-1.56-9-3s-.67.74-.92-1.07a10.25,10.25,0,0,1,.74-2.38c.35-1.11.66-4,1.48-4.76.62-.54,5.19,1.86,6.33,2.27a79.19,79.19,0,0,0,11.53,3.23C282.12,77.47,282.24,77,282,77Z"/><path class="cls-7" d="M319.58,90.15c-2.29-.52-4.43-1.57-6.69-2.19s-4.76-.8-7.08-1.43c-4.25-1.15-8.06-3.81-12.42-4.36a1.91,1.91,0,0,0-1.41.22,2,2,0,0,0-.55,1c-.33,1.06-.61,2.51-.61,2.51a42.72,42.72,0,0,0,6.73,2.3l12.86,3.64a46.07,46.07,0,0,0,5.43,1.29,13.84,13.84,0,0,1,2.86.59c.83.32,1.56.84,2.38,1.17,3,1.22,6.36-.36,9.22-1.9C327.45,90.57,323.23,91,319.58,90.15Z"/><path class="cls-3" d="M319.64,89.94c-4.05-1.14-7.9-2.33-12-3.22-3.89-.84-7.25-2.84-11-4-4.16-1.3-5.14-1.13-6,3.14a.23.23,0,0,0,.11.25A133,133,0,0,0,314,93c2.89.62,5.78,2.13,8.66,2.5s5.45-1.1,7.8-2.32a.22.22,0,0,0,0-.38c-3.23-2.25-7-2.16-10.77-2.87-.28,0-.4.37-.12.43,2.4.45,6.33.15,8.29,1.56,1.34,0,1.64.58.91,1.64l-3,1.2c-7.8,1.51-3.72-.55-6.93-1.25-6.2-1.36-12.28-3-18.4-4.74-1.93-.55-9-1.85-9.13-3.71-.42-5.38,10.18.11,11.35.56,5.35,2.09,11.39,3.17,16.94,4.74A.22.22,0,0,0,319.64,89.94Z"/><path class="cls-7" d="M263.69,65.85a2.41,2.41,0,0,0-1.24-.78,89.37,89.37,0,0,0-23.56-5.2,1.38,1.38,0,0,1-1.67-1.31l-1.64-9.47a26.4,26.4,0,0,1-.56-5.23c.06-2.26.69-4.56.12-6.75a155.56,155.56,0,0,0-7.94,26.58s11,5,16.17,8.82c4.64,3.45,8.77,7.9,14.29,9.61a.47.47,0,0,0,.26,0c.14,0,.2-.19.25-.32l5.4-13.71A2.48,2.48,0,0,0,263.69,65.85Z"/><path class="cls-3" d="M263.8,65.66c-6.11-3.85-14.3-4.24-21.21-5.63a10.27,10.27,0,0,1-5.16-1.53l-.33-1.89c-.9-2.1-.95-5.31-1.31-7.58-.64-4.06.11-8-.43-12,0-.24-.36-.17-.43,0A163.39,163.39,0,0,0,227,63.63a.22.22,0,0,0,.1.25c3.41,1.55,6.78,3.23,10.06,5,5.18,2.86,9.39,6.8,14.2,10.16,1.68,1.18,5,3.85,7,2.87,1.46-.72,2.75-7,3.4-8.63.91-2.32,2.64-5,2.15-7.52-.06-.28-.48-.16-.43.11.52,2.7-1.87,6.6-2.82,9-.38,1-1.27,4.44-2,5.14-1.28,1.17-3.8.53-5.11-.06-4.56-2.06-8.11-6.54-12.36-9.24A106.1,106.1,0,0,0,230.51,65c-.51-.25-2.81-.93-3.11-1.47-.75-1.35,1.68-7.25,2.1-8.78.8-3,1.72-6,2.71-8.91.49-1.46,1-2.92,1.53-4.37.6-1.64.77-3.7,1.35-1,.45,2-.3,4.76,0,6.95.4,3.11,1,6.24,1.6,9.32.77,4.07,1.65,3.23,5.88,3.76,6.64.82,15.25,1.92,21,5.55C263.82,66.2,264,65.81,263.8,65.66Z"/><path class="cls-7" d="M229.17,72.84c-6.52-1.06-9.31-7.18-9.31-7.18-1.88-3-1.25-5.52-.16-8.88.65-2,4.36-5.13,4.5-7.21-2.89.8-7.35,2.77-8.91,5.33s-3,4.85-3,7.85c0,3.51,2.48,7.91,5.22,10.09,1,.83,5.42,2.64,6.52,3.39,2.15,1.47,2.66,3.83,5.22,4.33A7,7,0,0,0,234.74,79a20.61,20.61,0,0,0,3.91-4.41C236.22,72.56,232.28,73.35,229.17,72.84Z"/><path class="cls-3" d="M229.23,72.63c-3.82-.86-7.57-3.37-9.18-7.08-2-4.69-.58-8.43,2.24-12.18a10.41,10.41,0,0,0,2.12-3.74.22.22,0,0,0-.27-.27c-5.24,1.61-9,4-11.15,9.24-2,4.91-.15,10.52,3.84,13.94,1.69,1.45,3.81,2.08,5.73,3.15,2.16,1.21,3.31,3.57,5.43,4.67,4.49,2.31,8.54-2.57,10.85-5.68a.24.24,0,0,0-.08-.31c-2.94-1.82-6.26-1.38-9.59-1.75-.28,0-.28.41,0,.44,1.5.17,6-.33,7,.59,1.17,1,.33,3.3-.5,4.2a7,7,0,0,1-9.07.75c-1-.68-1.69-2-2.78-2.72a28.5,28.5,0,0,0-3.5-1.74c-4.71-2.33-8.42-7.28-7.63-12.76a13.54,13.54,0,0,1,4.1-7.63c.93-.89,6.51-5.09,6.53-2.56,0,1.15-2.2,2.74-2.87,3.81A11.25,11.25,0,0,0,219,58.34a9.43,9.43,0,0,0,.68,7.43,13.84,13.84,0,0,0,9.44,7.29C229.39,73.12,229.51,72.69,229.23,72.63Z"/><path class="cls-7" d="M244.61,83.62a5.23,5.23,0,0,0-2.12-1.88H242c-1,.08-1.29.84-1.79,1.4a.67.67,0,0,0-.23.59.81.81,0,0,0,.22.3l2.37,2.29a1.77,1.77,0,0,0,1.06.62c.78,0,1.26-.87,1.29-1.65A3.18,3.18,0,0,0,244.61,83.62Z"/><path class="cls-3" d="M244.79,83.51c-.59-1-1.86-2.25-3.11-1.92-.82.22-2.21,1.57-1.72,2.44a5.75,5.75,0,0,0,1.17,1.14c.44.43.87.87,1.33,1.29s1,.84,1.62.62c1.4-.48,1.17-2.54.71-3.57-.11-.24-.46,0-.35.21a3.06,3.06,0,0,1,.23,2c-.16.75-.72,1-1.69.63l-.53-.5-1.19-1.15-.59-.57a.42.42,0,0,1-.21-.68,1.88,1.88,0,0,1,1.8-1.55,3.79,3.79,0,0,1,2.18,1.78A.2.2,0,0,0,244.79,83.51Z"/><path class="cls-7" d="M246.67,80.37a2.76,2.76,0,0,0-.66-.9l-.45,0a1,1,0,0,0-1.14.69c-.09.35.24.66.54.88s1,.64,1.47.33A.92.92,0,0,0,246.67,80.37Z"/><path class="cls-3" d="M246.86,80.26a2.09,2.09,0,0,0-.76-1,2.14,2.14,0,0,0-.67,0c-.62,0-1.4.53-1.22,1.24A2.16,2.16,0,0,0,246,81.73c.79,0,1.1-.75.91-1.42a.22.22,0,0,0-.43.12c.51,1.75-2.57.31-1.6-.54a1.35,1.35,0,0,1,1-.19c.17,0,.12,0,.24.16a5,5,0,0,1,.4.62C246.59,80.74,247,80.52,246.86,80.26Z"/><g class="cls-8"><path class="cls-9" d="M448,12.47q-1.06-.88-2.1-1.83c-1-.91-1.9-1.87-2.78-2.86a44.87,44.87,0,0,1-6.22.45,48.93,48.93,0,0,1-22-5.27c-2,2.38-4.9,4.41-7.38,2.83-1.14-.72-1.77-2-2.9-2.79s-3.2-.21-3,1.12a3.49,3.49,0,0,1-3.51-2.36l-5.77.42c1.82.91.45,3.65-1.4,4.63.07.84.13,1.68.16,2.51a44.13,44.13,0,0,1-3.29,17.77c5.5,7.6,8.35,17,9.23,26.27a48.67,48.67,0,0,1,7.65,2.23A54.45,54.45,0,0,1,428.61,68a53.3,53.3,0,0,1,19.71-7.92A52.57,52.57,0,0,1,451.61,51a50.51,50.51,0,0,1,3.88-12.52c-.37-1.6-.69-3.22-.94-4.84A55.43,55.43,0,0,1,448,12.47Z"/><path class="cls-3" d="M449.27,11.23c-1.52-1.31-3.45-4.27-5.23-5s-4.44.16-6.33.2a48.38,48.38,0,0,1-21.91-5,1.81,1.81,0,0,0-2.14.27c-1.31,1.87-3.28,2.52-5.89,2a11.14,11.14,0,0,0-1.9-1.92,4.64,4.64,0,0,0-2.21-.84,3.42,3.42,0,0,0-3.72,2.75l1.7-1.3-2-1.49A1.73,1.73,0,0,0,398.13,0l-5.77.42a1.79,1.79,0,0,0-1.25,3c.36.35-1.66,2.27-1.84,2.92-.45,1.56.15,4,.1,5.6a39.64,39.64,0,0,1-1.24,8.46c-.48,1.9-2.18,4.78-2.06,6.68.09,1.34,1.4,2.54,2.07,3.64a45,45,0,0,1,3.48,7,59.37,59.37,0,0,1,3.68,15.65,1.82,1.82,0,0,0,1.3,1.7c11.31,2.51,21.85,6.64,30.76,14.19a1.83,1.83,0,0,0,2.14.27,55.66,55.66,0,0,1,19.29-7.75A1.72,1.72,0,0,0,450,60.54c1.2-4.33,3-8.36,4.05-12.71.8-3.19,3.1-6.67,3.12-9.83,0-4-2.46-7.45-3.87-11a58.84,58.84,0,0,1-3.53-14.51c-.28-2.21-3.8-2.24-3.52,0a63,63,0,0,0,4,16.24c1.05,2.56,2.62,5,3,7.81.45,3-1.29,5.74-2.12,8.57s-1.44,5.65-2.53,8.4c-1.21,3.07-1.05,4.57-4.24,5.64-5.95,2-11.33,3.95-16.67,7.35l2.13.28c-9.41-8-20.35-12.44-32.32-15.1l1.29,1.7a64.38,64.38,0,0,0-3.51-15.81,52.38,52.38,0,0,0-2.9-6.44c-.56-1-1.86-2.4-2.12-3.55-.41-1.86.53-3.56,1-5.31a47.16,47.16,0,0,0,1.42-7.64c.19-2-.55-5.24.16-7,.48-1.23,1.86-1.82,2-3.41A3.44,3.44,0,0,0,393.6.94l-1.24,3c1.24-.09,3.19-.63,4.31-.28s.37.39,1.57,1.12a7.09,7.09,0,0,0,3.4,1.1,1.76,1.76,0,0,0,1.7-1.29c0-.17,3,2.57,3.3,2.72a5.5,5.5,0,0,0,2.81.74c2.78,0,4.92-2,6.7-3.85L414,4.48a54.54,54.54,0,0,0,16.64,5.1,68.38,68.38,0,0,0,9.38.29c3.22,0,4.35,1.8,6.74,3.85C448.49,15.19,451,12.71,449.27,11.23Z"/><path class="cls-10" d="M400.85,54.3a2.9,2.9,0,0,0-2.6-1.95,5.51,5.51,0,0,0-1.27.2c0,.27,0,.54.08.81C398.34,53.62,399.6,53.94,400.85,54.3Z"/><path class="cls-3" d="M401.69,54.07a4.07,4.07,0,0,0-1.86-2.2,4.2,4.2,0,0,0-3.08-.16.89.89,0,0,0-.65.84c0,.27.06.54.08.81a.91.91,0,0,0,.65.85c1.27.26,2.53.58,3.78.94a.88.88,0,0,0,.47-1.7c-1.25-.36-2.51-.68-3.79-.94l.65.85c0-.27-.05-.54-.08-.81l-.64.85c1.16-.28,2.28-.11,2.78,1.13C400.42,55.57,402.12,55.12,401.69,54.07Z"/><path class="cls-10" d="M437.75,31.87c.52-.08.5-.84.34-1.34q-.9-2.88-1.81-5.76a6.39,6.39,0,0,0-1.52-2.93,2.21,2.21,0,0,0-3-.14c-.81.9-.39,2.29-.15,3.48S431.45,28,430.25,28a22.05,22.05,0,0,1-1.37-3.58,4.92,4.92,0,0,0-2.32-2.92c-1.17-.53-2.84,0-3.14,1.2-1.13-.21-1.45-1.77-1-2.82a28.1,28.1,0,0,1,2-2.81c1.34-2.25.63-5.11-.14-7.62a3.94,3.94,0,0,0-.76-1.58c-1.06-1.17-3.12-.65-4.13.57a11.8,11.8,0,0,0-1.73,4.36c-.44,1.52-1.2,3.12-2.65,3.73a42.24,42.24,0,0,0-4.93-5.83,3.54,3.54,0,0,0-1.71-1.1c-.87-.17-1.75.31-2.64.28-1.55-.05-2.73-1.58-4.27-1.68a4.39,4.39,0,0,0-2.26.63,22.94,22.94,0,0,0-6.92,5.5,3.94,3.94,0,0,1,2.4,5.11,8.28,8.28,0,0,0-4.68.66q-.54,2.32-1.32,4.62s0,.09,0,.14l0,0c-.26.75-.53,1.49-.82,2.23A51.35,51.35,0,0,1,396.51,49a3.85,3.85,0,0,0,2.72-.49,1.58,1.58,0,0,0,.8-1.08c.07-.63-.47-1.14-.9-1.61a7.7,7.7,0,0,1-1.93-3.61c-.24-1.06,0-2.48,1-2.74s2,1,2.47,2c1.08,2.15,3,4.41,5.36,4.05,1.86-.28,3.06-2,4-3.64q1.76-2.85,3.49-5.72a2.45,2.45,0,0,1,1.22-1.2c.88-.25,1.75.6,1.91,1.5a6.41,6.41,0,0,1-.39,2.69c-.17.67-.22,1.53.36,1.91.83.54,1.81-.54,2-1.52s.25-2.17,1.12-2.64c1.15-.64,2.51.84,2.39,2.15s-1.09,2.36-1.84,3.44c-.32.46-.6,1.09-.28,1.54s1.11.37,1.67.13a9.55,9.55,0,0,0,3.56-2.57c.67-.76,1.52-1.75,2.48-1.41,1.43.5.6,2.71,1.16,4.11a2.66,2.66,0,0,0,3.47,1.12,6.64,6.64,0,0,0,2.83-2.82,1.93,1.93,0,0,0,.37-.89,2.06,2.06,0,0,0-1-1.51,6.56,6.56,0,0,1-1.92-2.31,2.48,2.48,0,0,1,.47-2.8,3.9,3.9,0,0,1,2.68-.54,3.26,3.26,0,0,0,2.6-.71C439.1,33.18,438.66,31.71,437.75,31.87Z"/><path class="cls-3" d="M438.37,32.49c1.77-2.11-.8-8.35-2.23-10.32-1.73-2.39-4.52-2.48-5.68.33-.21.51.26,1.26.05,1.68-1.08,2.21,0,.81-.87-.17-1.29-1.52-1.39-3.33-3.79-3.54-.61,0-2.41.92-2.6.86s2.36-4.4,2.63-5.64c.6-2.68,0-8.48-3.3-9.25-5.4-1.24-4.82,8.62-7.84,8.26-.7-.09-2.85-3.41-3.49-4a5.93,5.93,0,0,0-2.42-1.79c-1.75-.49-4-.75-5.81-1.1-4.58-.91-8.4,2.72-11.35,6a.89.89,0,0,0,.18,1.38c6.48,3.36.09,3.37-.56,3.64s-1.45.31-2,.83-1.49,4.52-1.52,5.3l1.33-.76,0,0a.89.89,0,0,0-1.29.53c-1.37,3.85,1,5.08,2.8,8.69a56.08,56.08,0,0,1,5.06,15.93.9.9,0,0,0,.85.65c1.53,0,3.79-.18,4.28-2,.4-1.46-.77-1.56-1-2.67-1.69-6.94,1-1.58,2-.64a6.07,6.07,0,0,0,2.71,1.74A4.88,4.88,0,0,0,409,44.86a17.54,17.54,0,0,0,2.7-3.92c1.26-2,2.29-6.52,3.76-2,.33,1-.63,2.11.75,2.9,1.07.61,2,0,2.73-.8-.08.1,1.17-2.24.77-2.25,2.47.06-.57,3.79-.6,4.26-.31,4.25,4.35.73,5.75.22q1.14-2.1,3-.12a13.05,13.05,0,0,0,.25,1.39c.3.31.46.86.81,1.17a3.85,3.85,0,0,0,4,.48c1.34-.55,3.52-2.7,3.6-4.24,0-.54-.36-1-.38-1.51a5,5,0,0,0-.8-.85q-1.38-4.72,2-4.24c1.82-1.11,3.76-3.11.69-4.35-1.05-.43-1.51,1.28-.47,1.69.23.09-4.13,1.26-4.54,1.56a2.45,2.45,0,0,0-1.08,1.21c-.84,1.76.48,2.59.9,4.14A5.79,5.79,0,0,0,434,40.85c-2.86,2.26-4.36,2.55-4.51.85.13.09-.11-1.31-.42-1.45-1.71-.73-1.59-1.19-3.53-.16-1.33.71-1.05,2-3,2.68-3.12,1.1-.29-1.18.06-2.21.44-1.33.61-2.85-.57-3.9a2.36,2.36,0,0,0-2.92-.35,13.44,13.44,0,0,1-.86,1.07c0,1-.23,1.2-.82.71a7.71,7.71,0,0,0,.08-1.59c-1.52-4-4-1.93-5.64.69-.89,1.41-1.69,2.9-2.62,4.29q-1.65,4.16-6.35,1.86A34.88,34.88,0,0,1,400.81,40c-.79-.74-1.57-1.73-2.84-1.37-1.61.44-1.8,2.23-1.65,3.59a6.18,6.18,0,0,0,.54,1.76,4.77,4.77,0,0,0,.79,1.39c1.32,1,1.12,1.53-.59,1.72-.76-.63-1.08-4.7-1.41-5.79a53.36,53.36,0,0,0-2-5.6c-1.25-2.95-5.26-7.47-4.15-10.62l-1.29.53,0,0a.89.89,0,0,0,1.32-.76c.1-3.28,2-4.71,5.13-4.54a.89.89,0,0,0,.85-.65,5,5,0,0,0-2.8-6.1l.18,1.39c1.52-1.69,3.31-3.74,5.44-4.64,2.32-1,3.8-.25,6,.14,1,.18,5.23,1,5.07.87,1.76,1,3.68,4.12,4.79,5.64a.89.89,0,0,0,1.2.32,6.64,6.64,0,0,0,2.66-3.12c1-2.24.2-2.42,3.07-3.58q2.65-2.37,2.69.63a4.63,4.63,0,0,1-.53,5c-1.17,2.57-3.37,5.19-.38,7.25a.89.89,0,0,0,1.21-.31l3.4.54c.4.91.76,1.84,1.07,2.79.31.76.45,1.14.84,2a.87.87,0,0,0,1,.4c1.64-.62,1.27-1.25,2-2.64.46-.82-1.89-4.8,2.9-1.24.47.35,2,5.86,1.69,6.24C436.4,32.11,437.64,33.36,438.37,32.49Z"/><path class="cls-10" d="M455.49,38.47c-.37-1.6-.69-3.22-.94-4.84A50.72,50.72,0,0,1,450,22.52c-.8,1.21-1.48,2.75-2.88,3.1a1.72,1.72,0,0,1,2,2.32,3.55,3.55,0,0,0-5.46,4,1.13,1.13,0,0,0,.39.6c.42.28,1,0,1.47,0,1.39-.08,2.16,1.81,1.61,3.09s-1.81,2.06-2.93,2.89A11.66,11.66,0,0,0,439.5,45c1-.88,2.64.51,2.5,1.83s-1.26,2.3-2.25,3.18c-.31.27-.65.62-.6,1,.08.64,1,.77,1.55.39a7.07,7.07,0,0,0,1.16-1.54,3.27,3.27,0,0,1,5.32.74c-.76,2.37-3.88,3.12-5.13,5.26a.57.57,0,0,0-.11.43.57.57,0,0,0,.25.32c1.14.77,2.65.19,4-.08a3.11,3.11,0,0,1,2.91.82A53.58,53.58,0,0,1,451.61,51,50.51,50.51,0,0,1,455.49,38.47Z"/><path class="cls-3" d="M456.34,38.23c-1.25-5.63-3.87-10.4-5.53-15.95a.9.9,0,0,0-1.61-.21,7.17,7.17,0,0,1-2.57,2.79.89.89,0,0,0,.45,1.64l1.16,1.2,1.29-.52c-3-1.31-9.18.94-6.66,5.19.21.36.76.72.92,1s.86,0,.94.14a18.77,18.77,0,0,1-1,4.21c-.69,1.15-2.34,2-3.18,3.1a12.6,12.6,0,0,0-1.9,3.94.89.89,0,0,0,1.08,1.08c3.33-1.09-1,4.4-1,4,0,.1-.39,1-.38,1a.89.89,0,0,0,.22.86c1.19,1.11,1.29.69,2.8.38q.36-.39.69-.81,1-1.37,3.15.71c-.09.73-3.37,2.26-3.74,3.32-1.46,4.16,5.56,1.59,7.22,2.87.48.37,1.13,0,1.29-.53,2.1-6.19,3.71-12.69,6.31-18.7.45-1-1.07-1.92-1.52-.89-2.67,6.17-4.33,12.76-6.48,19.13l1.29-.53c-1.7-1.31-3-.39-4.85-1-2.49-.81-.05-.91,1.22-2.05a7.88,7.88,0,0,0,2-2.5.91.91,0,0,0,0-.89,4.27,4.27,0,0,0-4.29-2.2,4.17,4.17,0,0,0-1.62.6c-.74.47-2.68,3.67-.67,1.12,1.72-2.17,1.92-6.87-2.1-5.56l1.09,1.08c1.14-3.65,3.59-4.9,6.1-7.41a4.49,4.49,0,0,0,1.71-3.25c-.05-1.34-.62-1.41-1.13-2.41-.19-.38-1.17-.27-1.3-.5l-.24,0c-1.7.27-.65-.7,3.15-2.93.46.19,1.2.1,1.3-.53.31-2.07-.66-3.45-2.86-3.43l.44,1.64c1.6-.79,2.26-1.91,3.2-3.42l-1.61-.21c1.64,5.45,4.3,10.39,5.53,16C454.89,39.81,456.58,39.34,456.34,38.23Z"/><path class="cls-10" d="M448.84,58.26a9.13,9.13,0,0,0-5.91,3.09,50.8,50.8,0,0,1,5.39-1.28C448.48,59.47,448.66,58.87,448.84,58.26Z"/><path class="cls-3" d="M448.84,57.38a10.36,10.36,0,0,0-6.53,3.34.88.88,0,0,0,.85,1.47q2.67-.77,5.4-1.27a.86.86,0,0,0,.61-.61c.16-.61.34-1.21.52-1.81A.88.88,0,0,0,448,58c-.18.6-.35,1.2-.52,1.81l.62-.61a52.08,52.08,0,0,0-5.39,1.27l.85,1.47a8.48,8.48,0,0,1,5.29-2.83C450,59,450,57.24,448.84,57.38Z"/><path class="cls-3" d="M391.33,29.3c1.81,0,1.92,2.75,2.69,4.21a.45.45,0,0,0,.7.09c2.67-2.14,3.43-4.84,5.34-7.54,3.13-4.45.63.5,1,2.63a.44.44,0,0,0,.73.19c.42-.48.81-.66.71-1.25a.44.44,0,0,0-.73-.19c-1.34,1.23,1-.9.5.43a13.21,13.21,0,0,1,.65-1.72c1.3-2.11,3.09-8.87,5.76-4.47,1,1.66.28,4.78,2.88,4.93,2.8.16,5.84-7.34,7.46-.38.95,4.09.16,2.85,4.49,4.93.51.24,1-.52.45-.76-1.65-.79-3.44-.85-4.09-3.14-.27-.93.22-2.1,0-3.08a2.88,2.88,0,0,0-1.91-2.5c-3.32-.83-6.2,7.29-8,1.43-.51-1.63-.59-4.21-2.79-4.21-3.72,0-5.06,7.24-6.05,9.45-.22.51.49.95.76.44a47.58,47.58,0,0,0,1.31-5.62.45.45,0,0,0-.54-.54A4.07,4.07,0,0,0,400,24.42c-.93,1.22-6.28,12.81-6.19,4.54a.45.45,0,0,0-.44-.44,19.52,19.52,0,0,0-2-.1.44.44,0,0,0,0,.88Z"/><path class="cls-3" d="M410.18,54.9c0,.11,1.77-5.16,3.75-5.32,6.9-.55,2,1.2,2.64,2.76.28.67-.39,1,.14,1.76,1.42,2,4.05-.12,4.86-1.53,1.48-2.6-.24-1.09.79-.77.64.2,1,.62,1.75.75,1.45.25,2.8-.67,4.19-.72,2.07-.08.16.35-.9,1.42a18.28,18.28,0,0,0-2.07,2.58.45.45,0,0,0,.38.67c4.6-.49,7.12-4,8.55-8.1.18-.54-.67-.77-.85-.24-.47,1.36-3.23,7.69-5.17,6.34-1-.67,0-.57.64-1.58.11-.17,1.34-1.82,1.21-1.64.24-.35-.15-.71-.49-.65-1.44.25-6.68,2.44-6.71-.49a.44.44,0,0,0-.82-.22c-.86,1.67-3.82,4.6-4.43,1.87-.15-.68.61-1.46.35-2.25A2,2,0,0,0,416.34,48c-3.57-.81-7.42,3.77-7,6.92.07.55.95.56.88,0Z"/><path class="cls-3" d="M425.72,62.83c1.07-1.79,2.78-4.75,5.35-4.08.3.08,1.33,1.09,1.73,1.1a1.91,1.91,0,0,0,1.26-.54c.47-.33,2.39-3,2.91-1.76.22.52,1.07.29.85-.23-.34-.81-.73-1.51-1.72-1.2-1.52.46-1.74,2.85-3.38,2.52-.4-.08-.93-.62-1.41-.74a3.86,3.86,0,0,0-2.59.27c-1.73.8-2.82,2.65-3.76,4.21a.44.44,0,0,0,.76.45Z"/><path class="cls-3" d="M427.5,9.1c5.08-.25,6.74,4.87,7.48,9l.81-.34c-.25-.58-.51-1.14-.79-1.7s-1-.13-.8.34a10.11,10.11,0,0,0,.83,1.8.44.44,0,0,0,.82-.22q3.79-.68,3.51,1.21a3.29,3.29,0,0,0,0,1c.14.33.19.73.33,1.08a10.86,10.86,0,0,0,2.47,3.21.46.46,0,0,0,.7-.09,37.87,37.87,0,0,1,4.11-7c.34-.44-.27-1.07-.62-.62A30.55,30.55,0,0,0,444,20.24c-.8,1.39-1.71,4.38-3,1.45-.81-1.8.22-4.84-1.35-6.31-2.07-1.93-4.48.41-4.63,2.57l.82-.22-.75-1.6-.8.34c.28.56.54,1.13.79,1.7s.89.12.8-.34C435,13.25,433,7.94,427.5,8.22c-.56,0-.56.91,0,.88Z"/><path class="cls-3" d="M420.33,59.86l.23-.51-.3.08a4.81,4.81,0,0,1,1.89,1.48c.17.23.55,0,.38-.22a5.21,5.21,0,0,0-2-1.64.23.23,0,0,0-.3.08l-.23.51c-.12.25.26.48.38.22Z"/></g></g></g></svg>