<svg xmlns="http://www.w3.org/2000/svg" viewBox="0 0 189.55 98.91"><defs><style>.cls-1{fill:#979b3d;}.cls-2{fill:#38301f;}.cls-3{fill:#723a29;}.cls-4{fill:#a5c08a;}</style></defs><title>bowl1</title><g id="Layer_2" data-name="Layer 2"><g id="bong"><path class="cls-1" d="M169.84,61l-2.24-.59a8,8,0,0,0-.42-5l-2.7.88c.88-1-.29-2.57-1.47-3.25s-2.67-1.51-2.57-2.87,1.81-3,.71-3.79c-.88-.94-2.31.43-2.75,1.64s-1.49,2.76-2.61,2.13-.44-2.25-.88-3.37-1.78-1.52-2.27-2.57c-.57-1.21.29-2.63,1.3-3.52,1.9-1.65,4.29-3.27,3.16-6.2-.41-1.08-1.8-1.85-2.76-1.22a2.44,2.44,0,0,1-.41,2.88c-1.53.8-2.48-1.95-1.69-3.48s2.18-3.28,1.24-4.72c-.82.91-2.31-.19-2.76-1.34s-.8-2.62-2-2.88c-2.17.82-5,.46-6.28-1.47s.14-5.23,2.45-5c-.12-1.54-1.84-2.35-2.84-3.53s-.21-3.82,1.14-3.06A19.79,19.79,0,0,0,131,5.37l2.22-2.11a8.57,8.57,0,0,0-10.68.8,4.33,4.33,0,0,0-5.95-1.77c-1.16.73-2,2-3.24,2.5s-3.16-.86-2.35-2a18,18,0,0,1-11.34-.17,6.71,6.71,0,0,0-3-.64C94,2.36,92.74,6.1,90.11,6.2c-2.78.1-5.46-4-7.55-2.14A9.83,9.83,0,0,0,91.33,8.7c-2,2.85-5.45,6-8.37,4.13-1.14-.72-1.77-2.06-2.9-2.79s-3.2-.21-3,1.12A3.5,3.5,0,0,1,73.56,8.8l-5.77.42c1.95,1,.25,4-1.79,4.82s-4.77,1.31-5.16,3.46c-.11.6,0,1.33-.51,1.73s-1.07.22-1.62.29a4.38,4.38,0,0,0-2.56,1.73l-6,6.69-2.1-1.46A4.56,4.56,0,0,0,47,30.78c-1.51-1.67-4.82.18-4.42,2.3-.38-1-2-1-3.12-.74-3.67.9-8,2.39-8.87,6.06a4.2,4.2,0,0,1-.67,1.9c-.46.51-1.53.45-1.62-.23a2.81,2.81,0,0,0-.39-3.36c.16,1.21-1.44,1.89-2.65,1.73s-2.48-.68-3.6-.18c-3.34,1.49.07,8.82-3.55,9.45a2.45,2.45,0,0,0-3.24-.63,7.06,7.06,0,0,0-2.41,2.69Q8.62,55.94,5,62.26c-.89,1.56-3.25,4.38-3.26,6.19s1.72,4.32,2.36,5.89a3.19,3.19,0,0,0,1,1.54c1,.72,2.53,0,3.73.42,1.47.52,1.81,2.37,2.29,3.85s2.1,3,3.36,2.14c1-.71.74-2.34,1.49-3.31,1.13-1.45,3.61-.42,4.5,1.18s1,3.58,2,5.12a5.24,5.24,0,0,0,6.15,1.93,3.15,3.15,0,0,0,1.58,3.51,9.19,9.19,0,0,0,4,1l7.5.68a2.47,2.47,0,0,0,4.7,1.35c.24-.53.29-1.13.53-1.66a3.5,3.5,0,0,1,3.81-1.7,10.23,10.23,0,0,1,4,2c.15,2.34,3,3.75,5.27,3.31S64.2,93.55,65.91,92l-.81,2.92A8.76,8.76,0,0,1,68.6,97c1.39-2.28,4.26-4.5,6.49-3,.91.61,1.4,1.68,2.23,2.38a4.81,4.81,0,0,0,5.4.08,14,14,0,0,0,4-4.11c-.48,1.57,1.72,2.86,3.25,2.25s2.36-2.23,3-3.72c.32,1.42,1.93,2.12,3.36,2.34,1.62.25,3.58,0,4.41-1.42s-1-3.67-2.29-2.63c-.14-1.66,2-2.6,3.64-2.44s3.36.88,5,.38,2.31-3.22.71-3.68l-4,1.29c-.7-1.37,1.25-2.58,2.78-2.72s3.55-.41,3.8-1.93l-3.66-1.85a16.9,16.9,0,0,1,5.77-6.39c1.31,1-.36,2.8-1,4.27-1.21,2.57,2.3,5.74,4.74,4.28,1.06-.64,2.38-1.88,3.26-1,.46,1.93-3.41,1.91-4.06,3.78-.45,1.32,1.18,2.55,2.57,2.4s2.53-1.11,3.76-1.77,2.9-1,3.92,0L124,86.51a19.49,19.49,0,0,1,8.9,8.93c-.94-2.36-1.87-4.71-2.81-7.06,1.18,1.18,3.24.37,4.8,1,1.23.45,2,1.68,3.07,2.41s3.06.48,3.11-.83c2.2,1.2,4.54-1.28,5.83-3.43a10.87,10.87,0,0,1,2.36,8.46c1.36-.17,2-1.86,1.89-3.23s-.64-2.75-.36-4.11,1.94-2.53,3-1.66c.7.57.75,1.72,1.5,2.22,1,.67,2.32-.36,2.87-1.44s.91-2.42,2-2.94c.13.63.27,1.27.4,1.91a5.43,5.43,0,0,1,2-2.09c.22.91.45,1.81.67,2.72,1.69-1.26,3.49-2.67,4.05-4.7s-.95-4.69-3-4.38a9.23,9.23,0,0,1,3.55.22,4.77,4.77,0,0,0-3.22-3.57,4.88,4.88,0,0,0,4.71-2.51C171.08,69,168.4,64.6,169.84,61Z"/><path class="cls-2" d="M170.31,59.34l-2.24-.59,1.29,1.7a12,12,0,0,0-.48-5.43,1.79,1.79,0,0,0-2.17-1.23l-2.7.88,2.17,2.17c.6-2.59-.37-3.09-1.92-5-1-1.16-1.57-1-1.5-2.83,0-.79.63-1.43.45-2.3-1-4.53-4.82-1.1-6.33.47-.77.8.79,1.17-.27-.82-.37-.68-1.31-1.42-1.57-2.07-1-2.6,2.72-3.89,3.68-6.32,1.43-3.58-1.07-7.07-4.85-6.35a1.77,1.77,0,0,0-1.23,2.16c.22.74,2.57-2.85,2.71-3.58a4.64,4.64,0,0,0-.18-2.67A1.77,1.77,0,0,0,153,26.33c-.21.07-2.3-3.36-2.93-3.74a3,3,0,0,0-1.36-.54l-.47.06q-3.25,1.55-3.36-3a1.78,1.78,0,0,0,1.7-2.22c-.44-1.29-1.92-4.19-3.4-4.37,1.51.18,2.33-2,1.25-3A23.36,23.36,0,0,0,131,3.61l1.25,3,2.22-2.1a1.78,1.78,0,0,0-.36-2.77,10.63,10.63,0,0,0-12.81,1.07l2.76.36A6.36,6.36,0,0,0,119,0c-1.63-.07-6,1.37-6.33,3.29a1.79,1.79,0,0,0-2.17-2.17c-4.57,1.23-7.46.2-11.89-.67a5.67,5.67,0,0,0-5,1.14c-1.77,1.28-1.3,1.7-3.74,1.88-2.22.16-2.17-.42-4-1.12a4.26,4.26,0,0,0-4.14.19A1.78,1.78,0,0,0,81,5a12.34,12.34,0,0,0,10.29,5.51L89.81,7.81c-2.25,3-4.34,4-7.5,1.87-1.14-.77-1.5-1.52-3-1.7a3.44,3.44,0,0,0-3.95,2.71l1.7-1.29-2-1.49A1.73,1.73,0,0,0,73.56,7l-5.77.42a1.79,1.79,0,0,0-1.25,3c1,.88-5.36,3.61-5.89,4.1-.91.86-1,2.36-1.76,3.06s-2.34.88-3.24,1.61c-2.5,2-4.62,5.08-6.75,7.46L51,26.42,48.94,25a1.8,1.8,0,0,0-2.41.63,6.94,6.94,0,0,0-1.25,5.66l2.59-2c-3.27-2.06-6.77.18-7.07,3.82l3-1.25c-2.94-2.81-8.28-.67-11.26,1.31-1.24.82-2.87,2.14-3.25,3.65-.22.88.35,3.72,1.13,2.14.41-.84-.63-2.49-1-3.11a1.78,1.78,0,0,0-3.22.43c0,.19-4.66.09-5.43.49a4.61,4.61,0,0,0-2.22,2.86c-.53,1.63.15,3.57-.37,5.12-.44,1.3.86.29-.27.61-.49.14-1.46-.37-2.1-.31C11.47,45.4,9,52,7.15,55.09,5.53,57.82,4,60.58,2.26,63.27,1.28,64.82,0,66.53,0,68.45c0,2.49,2.17,7.77,4.44,9,.88.49,1.71.16,2.49.46,1.53.57,1.78,1.38,2.51,2.66.83,1.45,1.39,2.94,3.18,3.45a3.31,3.31,0,0,0,3.13-.53c.39-.32.75-1.57,1.12-1.73,3.23-1.42,2.66,2,3.5,3.14,2.4,3.14,4.46,5.1,8.75,4l-2.23-1.69c-.33,7.41,9.93,6.5,14.86,7L40,92.4c.26,2.14,1.16,4.09,3.53,4.46,3.53.55,6.17-6,9.48-3.38,2.08,1.68,2.43,3.71,5.64,4,3.41.3,6.18-2.13,8.51-4.28l-2.94-1.71L63.4,94.4a1.82,1.82,0,0,0,1.23,2.17l2.72,1.64a1.81,1.81,0,0,0,2.77-.36l4.53-1.93.68.85c.47.24,1.16,1.1,1.72,1.41a5.9,5.9,0,0,0,3.37.71c3.57-.28,5.8-3,7.79-5.71l-3.28-.89a4,4,0,0,0,3.81,4.13c2.93.23,4.64-2.42,5.77-4.71h-3C93.18,95.19,99.55,96.55,102,93a3.63,3.63,0,0,0-4-5.57l2.16,2.17c.48-2.63,10,1.6,10.23-4.63.2-4.68-4.6-2.8-7.14-2l2.22,1.69c0,.06,5.71-2.56,6.34-3.76a1.79,1.79,0,0,0-.64-2.41l-3.65-1.85.63,2.41a17.46,17.46,0,0,1,5.14-5.77l-2.41-.63c.33.59-1.52,3.58-1.5,4.61a5.29,5.29,0,0,0,1.73,3.68,5.52,5.52,0,0,0,3,1.45c1.56.16,3.59-1.68,4.73-1.37l-1.29-1.7c0,.29-2.94,1.59-3.37,2.2a3.36,3.36,0,0,0-.43,3.42c2.53,5.55,7.78-1.17,10.86.28L124,82.81l-1.56,2.81A1.79,1.79,0,0,0,123.1,88a19.19,19.19,0,0,1,8.27,8.29c.91,1.73,4,.53,3.21-1.35-.93-2.35-1.87-4.7-2.8-7.06l-2.59,2a11.09,11.09,0,0,0,3.15.94c2.18.6,3.6,2.09,5.61,2.77a3.54,3.54,0,0,0,4.63-1.81l-2,.81c3.59,1,5.92-1.41,7.82-4.24h-3a10.61,10.61,0,0,1,2.12,7.57c-.12,1.48,1.54,2,2.64,1.52A4.34,4.34,0,0,0,152.8,94c.25-1.18-.17-2-.17-3.14l.17-2.31a3.45,3.45,0,0,0,.68,1.19c1.22.48,1.54,1.68,3.35,1.28,2.55-.56,2.85-3.53,4.57-5l-2.94-.78.4,1.91c.34,1.63,2.41,1.54,3.22.43l1.72-1.73-2.94-.78c.23.91.45,1.81.67,2.72a1.78,1.78,0,0,0,2.59,1c2.41-1.85,5.23-4.12,5-7.51a5,5,0,0,0-4.88-4.85V80l3.08.16c1.21.19,2.65-.77,2.17-2.17a7.12,7.12,0,0,0-4-4.62l-.89,3.28c2.64-.14,5.07-1.08,6.32-3.59,1.84-3.67-.37-7.73.65-11.55.58-2.2-2.81-3.13-3.4-.94-.85,3.2,1.94,12.27-3.57,12.56-1.6.09-2.59,2.49-.89,3.28l2.41,2.52,2.17-2.17a14.65,14.65,0,0,0-4-.28,1.76,1.76,0,0,0,0,3.52c.94,2.73.31,4.67-1.9,5.8l2.59,1c-.23-.9-.45-1.81-.67-2.71a1.79,1.79,0,0,0-2.95-.78A8.52,8.52,0,0,0,159,85.8l3.22.42-.4-1.91a1.78,1.78,0,0,0-2.94-.78c-.85.72-1,1.45-1.76,2.17-1.79,1.8,0,.92-1.85.35-1-.29-1.55-1.28-2.87-1.11-5.72.77-1.1,8.18-4.08,9.48L151,95.94a13.4,13.4,0,0,0-2.6-9.35,1.8,1.8,0,0,0-3,0,4.15,4.15,0,0,1-3.85,2.62,1.78,1.78,0,0,0-2,.81c-.19.42-3.63-2.17-4-2.3-1.49-.59-3.16-.07-4.59-.86-1.22-.67-3.19.48-2.59,2l2.81,7.05,3.22-1.35A22.6,22.6,0,0,0,124.88,85l.63,2.41,1.56-2.82a1.77,1.77,0,0,0-.63-2.4,5.31,5.31,0,0,0-3.7-.69c-.8.15-5.14,2.44-5.38,1.9.47,1,3.7-3.14,3.76-4.07a1.76,1.76,0,0,0-1.29-1.69c-2.35-.65-6.11,1.54-6-2.44.06-2,1.26-2.22.09-4.31a1.76,1.76,0,0,0-2.41-.63,21.51,21.51,0,0,0-6.4,7,1.79,1.79,0,0,0,.63,2.41l3.66,1.85-.63-2.41c-.66,1.27-4.38,1.29-5.57,2.34a3.27,3.27,0,0,0-1.24,3.2,1.78,1.78,0,0,0,2.22,1.7l2.7-.86a28.35,28.35,0,0,1-4.31-.53,8.53,8.53,0,0,0-2.47.18,4.24,4.24,0,0,0-3.33,3.49,1.78,1.78,0,0,0,2.16,2.17c-1.47,1.2-3,.9-4.43-.88a1.77,1.77,0,0,0-3,0,3.21,3.21,0,0,1-3,2.36,1.78,1.78,0,0,0-3.28-.89c-.81,1.09-2,3-3.33,3.48-4.74,1.9-3.16-.69-5.1-1.82a6.32,6.32,0,0,0-2.81-1.33c-3-.27-5.26,2.14-6.85,4.34l2.76-.35a15.32,15.32,0,0,0-4.27-2.55l1.23,2.17.81-2.93a1.77,1.77,0,0,0-2.94-1.71c-2.59,2.38-3.94,3.94-8.19,1.19-.2-.13-.18-.63-.45-.78-1.69-.91-3-2.19-5-2.45a5.79,5.79,0,0,0-3.82.74c-.48.3-3.62,3.56-3.69,3a1.84,1.84,0,0,0-1.76-1.76c-1.92-.17-11.49-.12-11.34-3.43a1.78,1.78,0,0,0-2.23-1.7c-5.95,1.57-4.48-8.71-10.37-9-1.61-.07-2.14.76-3.33,1.54-1.35.88.42,3-2,.44-.43-.46-.73-2-1.2-2.51C10,74.56,9.21,74.93,7.58,74.4c-3.37-1.09-4.44-5.38-3-8.25,1.18-2.36,2.89-4.65,4.23-6.94.67-1.14,6.33-11.76,8-10.26a1.75,1.75,0,0,0,1.71.45c3.87-1.39,2.32-4.44,3.2-7.54,1-3.61,6.77.14,7.82-4.68l-3.21.42.22,2A1.73,1.73,0,0,0,27,41.32c1.34,1.12,2.85,1.52,4.24,0,1-1,1.16-2.72,2-3.85,1-1.32,6.17-5,8-3.2a1.79,1.79,0,0,0,3-1.24l1.77-.78c1.44.91,2.78-.59,2.59-2l.89-2.94L47.16,28l2.1,1.46a1.77,1.77,0,0,0,2.13-.27c1.58-1.77,3.08-3.72,4.8-5.35,1.43-1.36,3.25-1.83,4.61-2.91,1.65-1.31,1.81-3.41,3.75-4.49C67.42,14.83,73.22,11.86,69,8l-1.24,3c1.24-.09,3.19-.63,4.31-.28s.37.38,1.57,1.12a7.09,7.09,0,0,0,3.4,1.1,1.76,1.76,0,0,0,1.7-1.29s3.23,2.66,3.51,2.81a5.48,5.48,0,0,0,3.41.63c3.13-.46,5.38-3.11,7.16-5.48.85-1.13-.31-2.62-1.52-2.65a8.51,8.51,0,0,1-7.25-3.77l-.63,2.41c1-.56,4.26,2,5.62,2.24a5.32,5.32,0,0,0,4.26-1.19C95.61,5,94.79,4.1,99.14,4.35c1.18.07,2.47.7,3.66.86a21.46,21.46,0,0,0,8.62-.69l-2.17-2.17c-.35,1.93.3,3.47,2.35,4.1,2.84.87,7.21-4.69,9.37-1.5a1.8,1.8,0,0,0,2.77.35,7,7,0,0,1,8.55-.52L131.93,2l-2.22,2.1c-1.21,1.14-.17,2.85,1.24,3A19.19,19.19,0,0,1,142,12l1.24-3a2.93,2.93,0,0,0-3.29,2.78c-.46,3.05,2.46,3.6,3.29,6l1.7-2.23a5.06,5.06,0,0,0-2.75,9c2.32,1.91,5.11.5,6.89,2.6,1.53,1.81,2.21,3.43,4.92,2.57l-2.17-1.23c.72,2.58-4.23,7.63.63,9.43,3.21,1.19,4.3-2.74,3.62-5L154.8,35c2.4-.45-3.41,6.08-3.29,5.88a4.51,4.51,0,0,0-.57,3.84,48.79,48.79,0,0,0,2.56,5.05,3.75,3.75,0,0,0,1.83,2.11,3.26,3.26,0,0,0,2.78-.45,3.85,3.85,0,0,0,1.19-1.25c.06-.13.44-2.64-.16-1.71-2.59,4,4.22,4.94,3.64,7.39A1.79,1.79,0,0,0,165,58.07l2.7-.89L165.48,56a7.11,7.11,0,0,1,.36,4.5,1.76,1.76,0,0,0,1.29,1.7l2.24.58C171.57,63.31,172.5,59.92,170.31,59.34Z"/><path class="cls-3" d="M188.65,38.9c-.14-.66-.86-1-1.16-1.64a9.75,9.75,0,0,0-.41-1.11,3,3,0,0,0-1.25-.86c-.45-.23-.91-.63-.88-1.14a3.85,3.85,0,0,1,.26-.79c.08-.26,0-.61-.21-.72a.68.68,0,0,0-.52,0,41.44,41.44,0,0,0-7.77,3.59,19.93,19.93,0,0,1-2.44,1.33,16.26,16.26,0,0,1-3.08.82,4.75,4.75,0,0,1-3.93-.49L164,36.36a2.88,2.88,0,0,0-2.15-.39c-.23.09-.43.23-.66.31a2.84,2.84,0,0,1-.76.1l-3.28.09c0,1.43-1.11,2.62-2.17,3.62s-2.26,2.29-2.11,3.78a1.69,1.69,0,0,0,.4,1c.62.68,1.7.48,2.6.3a31.52,31.52,0,0,1,5.58-.46l3.84-.11a9.77,9.77,0,0,1-2.41,2,6.13,6.13,0,0,0-2.18,2.2,2.4,2.4,0,0,0,.43,2.88c.56.45,1.34.53,1.91,1a4.57,4.57,0,0,1,1.19,2,2.47,2.47,0,0,0,1.56,1.59c.55.1,1.13-.14,1.67,0,.77.17,1.21,1,1.55,1.68,2.93-1.59,4.57-4.83,5.56-8A10.61,10.61,0,0,1,176.21,46a9.38,9.38,0,0,1,4-2.46L186.81,41a4.42,4.42,0,0,0,1.32-.71A1.44,1.44,0,0,0,188.65,38.9Z"/><path class="cls-2" d="M189.41,38.45c-1.36-2.18-2.91-3.8-3.56-6.05a.88.88,0,0,0-.85-.64c-5.7.45-9.76,6.32-15.67,5.61-2.32-.28-4.14-2.08-6.38-2.3-1.84-.18-3.93.47-5.79.52a.9.9,0,0,0-.85.64c-.48,2.07-6.35,6.33-3.72,9.14a3.49,3.49,0,0,0,2.59.73c3.22.17,6.85-.57,10.12-.66l-.63-1.5c-2.33,2.29-6.8,4.38-4.29,8.15.31.47.86.39,1.26.81.86.87,1.66,2.62,2.59,3.29,1.18.86,3.32.86,4,2.08a.89.89,0,0,0,1.2.32c5.58-3.67,5.1-10.81,11-14.18,2.66-1.52,8.65-1.68,9.06-5.51.12-1.13-1.64-1.12-1.76,0-.23,2.2-9.11,4-11,5.44-3.23,2.48-2.87,7-5.37,10.08-1.58,1.91-1.45,1.51-3,1.29a9.92,9.92,0,0,1-2.57-1,9.8,9.8,0,0,1-2.24-2.77c-1.05-2-2.51,2.91,0-3,1.25-3,.54-1.95,2.34-3.71a.9.9,0,0,0-.62-1.51c-1.9,0-3.82.06-5.71.17s-2,.65-3-1.49c-1.4-2.86-.92-.71.24-2.89a4.34,4.34,0,0,1,2-2.17c3.93-1.5,7.51,2.28,11.33,2.17a14,14,0,0,0,4.58-1.11c1.85-.77,7.71-5.37,9.39-4.45.11.06.2,1.27.49,1.53a18.65,18.65,0,0,1,3.3,3.9C188.49,40.3,190,39.42,189.41,38.45Z"/><path class="cls-3" d="M156.92,36.47h.24v-.14Z"/><path class="cls-2" d="M156.92,37.35h.24a.89.89,0,0,0,.88-.88v-.14a.89.89,0,0,0-1.33-.76l-.24.14c-1,.59-.08,2.11.89,1.52l.24-.14-1.32-.76v.14l.88-.88h-.24C155.79,35.63,155.78,37.39,156.92,37.35Z"/><path class="cls-4" d="M25.88,67.51c1.72,1.47,3.69,3,6,2.91.56,0,1.12-.15,1.68-.12a3,3,0,0,1,2.72,3.4,4.66,4.66,0,0,0,5.47,2.85c1-.29,2.07-1,3.09-.64,1.75.55,1.58,3.2,2.87,4.51,1.92,2,5.2-.22,7.92.14s5.22,3.52,7.87,2.52c1.72-.65,2.36-2.73,2.58-4.55s.34-3.85,1.64-5.15a1.44,1.44,0,0,1,1.12-.51c.73.08,1.27,1,2,.82a1.15,1.15,0,0,0,.62-.53c1.85-2.67,0-7-3.17-7.56a2.22,2.22,0,0,1,2.44-1.69,18.35,18.35,0,0,1,2.21.91,2.77,2.77,0,1,0,.81-5.43c-.91,0-1.78.44-2.68.46a2.91,2.91,0,0,1-1.6-5.38,4,4,0,0,0,5.27,1.1,1.6,1.6,0,0,0,.8-1.07c.06-.64-.47-1.15-.91-1.61a7.7,7.7,0,0,1-1.93-3.61c-.24-1.06,0-2.48,1-2.75s2,1,2.46,2c1.08,2.15,3,4.41,5.36,4.05,1.86-.28,3.07-2,4-3.64L89,43.24A2.38,2.38,0,0,1,90.22,42c.87-.26,1.75.6,1.91,1.5a6.74,6.74,0,0,1-.39,2.69c-.18.67-.23,1.53.35,1.91.83.54,1.81-.54,2-1.52s.24-2.17,1.11-2.65c1.16-.63,2.52.85,2.39,2.16s-1.09,2.35-1.84,3.44c-.32.46-.6,1.09-.28,1.54s1.11.37,1.67.13a9.47,9.47,0,0,0,3.56-2.57c.67-.77,1.53-1.75,2.49-1.41,1.42.5.59,2.71,1.15,4.11a2.67,2.67,0,0,0,3.47,1.12,6.77,6.77,0,0,0,2.84-2.82,2,2,0,0,0,.36-.89c0-.62-.48-1.11-1-1.51A6.61,6.61,0,0,1,108.16,45a2.45,2.45,0,0,1,.48-2.79,3.86,3.86,0,0,1,2.67-.54,3.26,3.26,0,0,0,2.6-.71c.63-.7.19-2.16-.73-2,.52-.08.5-.83.35-1.33l-1.82-5.76a6.3,6.3,0,0,0-1.52-2.93,2.21,2.21,0,0,0-3-.14c-.81.9-.38,2.29-.15,3.48s-.15,2.84-1.36,2.85a22.05,22.05,0,0,1-1.37-3.58A5,5,0,0,0,102,28.56a2.3,2.3,0,0,0-3.14,1.21c-1.13-.21-1.45-1.77-1-2.82a28.1,28.1,0,0,1,2-2.81c1.34-2.25.63-5.11-.14-7.62A4.05,4.05,0,0,0,99,14.94c-1.07-1.17-3.13-.65-4.14.57s-1.29,2.85-1.73,4.36S91.9,23,90.45,23.6a41.55,41.55,0,0,0-4.93-5.83,3.54,3.54,0,0,0-1.71-1.1c-.87-.17-1.75.31-2.64.28-1.54-.05-2.72-1.58-4.27-1.69a4.43,4.43,0,0,0-2.25.64,22.69,22.69,0,0,0-6.92,5.5,3.94,3.94,0,0,1,2.39,5.11,8.38,8.38,0,0,0-7.5,2.7,2.76,2.76,0,0,1,1.5,2.71,19.88,19.88,0,0,0-9.47-2,3.57,3.57,0,0,1,.74,5.34c-1.68-.61-2-2.92-3.51-4a3.23,3.23,0,0,0-4.71,1.77c-.51,1.75.46,3.55,1.17,5.23s1.08,3.89-.27,5.13c0-1.69-1.78-3-3.47-3.06a10,10,0,0,0-4.82,1.37c-.49.24-1,.55-1.15,1.08-.22,1,1,1.55,2,1.68s2.26.55,2.22,1.54c-.05,1.16-1.69,1.25-2.84,1.34a5.73,5.73,0,0,0-5.13,5.17A2.16,2.16,0,0,1,37.07,55a8.22,8.22,0,0,1-4.38-1.66,8.58,8.58,0,0,0-4.36-1.74c-1.59,0-3.28,1.28-3.08,2.85a7.16,7.16,0,0,1,3.6,3.37c-1.5,1.14-4,.22-5.31,1.57a2.82,2.82,0,0,0,0,3.4,8.22,8.22,0,0,0,2.83,2.28,2.36,2.36,0,0,0,0,2.9"/><path class="cls-2" d="M25.25,68.13c3.12,2.56,7.56,3,10.14,5.81.89,1,.87,1.82,2,2.63,1.5,1.05,2.7.6,4.3.86a16.48,16.48,0,0,1,4,1.23c.41.34.38,1.33.84,1.75.7.62,1,1.22,2,1.54,1.92.61,4.67-.27,6.61,0,2.43.27,4,1.81,6.32,2.12a4.25,4.25,0,0,0,4.74-2.85c.7-1.57.26-3.74,1-5.18,1.36-2.57,2.48-.67,3.71-1.45,4.21-2.65,1.29-8.58-2.55-9.79L69,66c.43-.84,5.4-.1,6.59-.82a3.6,3.6,0,0,0,1.59-4c-.55-1.79-1.79-2.06-3.25-2.64-1.71-.68-1.08.66-3.07-1.19-2.83-2.62-.38-.74.75-.49,3.13.68,4.7-1,4.37-3.67,0-.35-.7-.58-.78-.92l.08-1.64c-.2-1.81-.05-2.14.46-1,.86.42,1.58,2.3,2.52,2.94a4.65,4.65,0,0,0,4.94.33c2.22-1.14,3.63-4.38,4.83-6.35s1.69-4.65,2.86-.44c.22.81-.26,1.28.23,2a1.65,1.65,0,0,0,2.18.85,3.09,3.09,0,0,0,1.16-1c.24-.29.24-.9.51-1.15l.19-1,.65,2.2c-.18,1.29-2,2-1.06,3.51.64,1.06,2,.71,2.87.45,1.27-.36,2.11-1.82,3.22-2.19,2.23-.74,1.72.56,2.69,1.79s1.3,1.78,2.82,1.93c2.07.22,4.3-1.53,5.1-3.42.88-2.09-.39-1.81-.73-3.46l.31-2.08q-.65-2.72,1.72-2.16c.11-.07.31,0,.44-.12.93-.68,1.17-.4,1.59-1.15.83-1.49,0-2.55-1.35-3.08l.39,1.47c1.77-2.11-.8-8.35-2.23-10.33-1.73-2.38-4.52-2.48-5.68.34-.21.51.26,1.26.06,1.68-1.08,2.21,0,.81-.88-.17-1.29-1.52-1.38-3.33-3.79-3.54-.61-.06-2.4.92-2.6.85S101,24,101.32,22.73c.59-2.68,0-8.48-3.31-9.25-5.4-1.24-4.81,8.62-7.84,8.26-.7-.09-2.85-3.42-3.49-4a5.93,5.93,0,0,0-2.42-1.79c-1.74-.49-4-.75-5.81-1.1-4.58-.91-8.4,2.71-11.35,6a.89.89,0,0,0,.18,1.38l1.46,3.37-1.37.14a9.38,9.38,0,0,1-1.68.44A10.32,10.32,0,0,0,62,28.59a.87.87,0,0,0,0,1.24l1.24,2.09,1.32-.76a24,24,0,0,0-9.91-2.09A.9.9,0,0,0,54,30.58q.55,3.35-.62,1.06l-.13-.18c-.11,0-.81-.8-1.16-1a3.94,3.94,0,0,0-4,.16c-4.88,3.1,1.71,8.61-.76,12.37l1.61.21c-.78-2.82-3.08-4-6-3.55-1.47.23-5,1.23-5.19,3.18-.17,2.32,3.35,1.93,2.17,3.69-.24.37-2.84,1-3.48,1.5a6.7,6.7,0,0,0-2.38,4.31.9.9,0,0,0,.62,1.08l1.54,1.8,1.08-1.08c-3.33-.48-11.76-7.21-12.9.07a.91.91,0,0,0,.4,1c4.4,2.32-.41,2.12-1.79,3.49a3.39,3.39,0,0,0-.83,3.19c.33,1.69,2.05,2,2.66,3.3.46.92.23,2.1.78,3.22s2,.13,1.52-.89l0-2a.9.9,0,0,0-.32-1.2c-1.49-.91-1-3.91.16-5,.09-.09,2.23-.69,2.35-.75a.88.88,0,0,0,.32-1.2C30,58,27.69,54.51,28,55.19c-.57-1.38-3.23-.4.87-1.41,3.06-.76,4.92,1.62,8,2.06a.89.89,0,0,0,1.08-1.08c-.37-2.31-2.72-2.57-.75-5.07,1.56-2,4.75-.61,6.1-2.4a1.93,1.93,0,0,0,0-2.47c-.28-.44-.83-.47-1.18-.81a3.66,3.66,0,0,0-1.23-.32q-3.09-4.34,6.33,0a.89.89,0,0,0,1.61.21c1.36-2.07,1.06-3.59.31-5.91-.35-.82-.68-1.65-1-2.48,2.39-2.9,4-3.28,5-1.14.56.32,1.23,1.29,1.86,1.68a.89.89,0,0,0,1.2-.31,4.53,4.53,0,0,0-.88-6.41l-.62,1.5a21.53,21.53,0,0,1,9,1.85c.54.24,1.4,0,1.33-.76,0,.53-.64-3.21-.77-2.48.36-2,4-2.18,5.89-2.05a.87.87,0,0,0,.85-.65,5,5,0,0,0-2.8-6.1L68.35,22c1.53-1.68,3.31-3.73,5.44-4.64,2.32-1,3.81-.24,6,.15,1,.17,5.23,1,5.07.86,1.76,1,3.68,4.12,4.79,5.65a.89.89,0,0,0,1.2.32,6.64,6.64,0,0,0,2.66-3.12c1-2.24.21-2.42,3.07-3.58,1.78-1.58,2.67-1.37,2.69.63a4.65,4.65,0,0,1-.52,5c-1.18,2.57-3.37,5.19-.38,7.25a.88.88,0,0,0,1.2-.31l3.4.54c.4.91.76,1.84,1.07,2.79.31.76.45,1.14.84,2a.87.87,0,0,0,1,.4c1.64-.62,1.27-1.26,2-2.64.46-.82-1.89-4.8,2.91-1.24.47.35,2,5.86,1.69,6.24a.89.89,0,0,0,.38,1.47c.28.11-3.42,1.08-3.91,1.3a2.77,2.77,0,0,0-1.15.66,3.41,3.41,0,0,0-.57,3.48c.19.61.94,1.08,1,1.65Q111.87,49.3,105,49c0-.26-.08-.52-.13-.77-.58-.53-.56-1.59-1.65-1.83-1.42-.32-2.19.89-3.11,1.67a3.77,3.77,0,0,1-3.57,2,14,14,0,0,0,1.13-1.64c.23-.8.82-1.26.83-2.24,0-1.91-1.84-4-3.8-2.85-1.2.68-.78,2.28-1.73,1.61-.41-.28,0-2.57-1.08-3.29-3.43-2.33-6,5.17-7.14,6.92q-.93,3.18-3.95,2-3.09.78-3.93-2.41c-.44-.63-.83-1.63-1.58-2a2.15,2.15,0,0,0-2.87.29,3.29,3.29,0,0,0-.66,2.91A6,6,0,0,0,72.29,51a4.82,4.82,0,0,0,.79,1.4Q75.84,55,70,53.85a.89.89,0,0,0-1.25,0C67.64,55,66.81,56.3,67.3,58c.58,2,2,1.83,3.46,2.7.42.23,1.58-.5,1.81-.24q1.08,3.82-.56,3A3,3,0,0,0,70.66,63c-1.51.7-2.29.34-3.2,2.13A.9.9,0,0,0,68,66.45C72.18,67.77,71.55,70.37,69,72c-.32.21-.83,0-1.24.35a6,6,0,0,0-2.32,3.84c-.49,2.15.06,6.35-4,6-1.4-.11-2.92-1.68-4.26-2.13A9.2,9.2,0,0,0,52.52,80c-3.52.48-3.52-.39-5.47-2.83-.3-.37-.41-1-.78-1.28-1.2-1.06-1.67-.57-3.25-.69-9.08-.65-3.8-2.58-7.73-5.13a7.12,7.12,0,0,0-1.66-.59,4.35,4.35,0,0,0-1.79.11,9,9,0,0,1-5.34-2.66c-.87-.71-2.12.53-1.25,1.25Z"/><path class="cls-4" d="M143.39,26.14a9.59,9.59,0,0,1-7.18,6.68c-.67-1.69.25-3.73-.55-5.36s-3.13-2.06-5-1.63a8.94,8.94,0,0,0-5.3,3.71c-.8,1.22-1.48,2.77-2.89,3.12a1.72,1.72,0,0,1,2,2.32,3.55,3.55,0,0,0-5.46,4,1.13,1.13,0,0,0,.39.6c.42.28,1,0,1.47,0,1.39-.08,2.16,1.81,1.61,3.09s-1.81,2.06-2.93,2.89A11.71,11.71,0,0,0,114.93,52c1-.88,2.64.5,2.5,1.83s-1.25,2.3-2.25,3.18c-.31.27-.65.62-.59,1,.08.64,1,.77,1.55.38a7,7,0,0,0,1.15-1.53,3.26,3.26,0,0,1,5.32.74c-.76,2.37-3.88,3.11-5.13,5.26a.56.56,0,0,0-.11.43.55.55,0,0,0,.26.32c1.13.77,2.64.19,4-.08s3.23.28,3.16,1.65a9,9,0,0,0-8.48,10.41,3.79,3.79,0,0,0,1.46,2.71c1.59,1,3.64-.06,5.29-1a29.37,29.37,0,0,1,8-3.07,2.85,2.85,0,0,1,2.51.26,2.31,2.31,0,0,1,.14,2.82c-.5.89-1.28,1.61-1.72,2.53-1.22,2.6.63,5.54,2.4,7.8A3.81,3.81,0,0,0,135.75,89a18.08,18.08,0,0,0,2.34.35c1.17.33,2,1.55,3.25,1.58,2.84.09,2.9-5.64,5.73-5.56a1.8,1.8,0,0,1,.82.23c.94.53,1.55,1.92,2.61,1.7s1.54-2.31,2.66-2c.45.13.68.61,1,1a3.18,3.18,0,0,0,5.21-.48c.46-1,.75-2.55,1.85-2.43-.28,1.06,1.17,1.93,2.2,1.53a3.8,3.8,0,0,0,1.92-2.56,3.35,3.35,0,0,0,.1-2.35c-.57-1.29-2.57-2.06-2.19-3.42a2.66,2.66,0,0,1,1.08-1.23A1.74,1.74,0,0,0,165.1,74c0-.55-.91-.91-1.16-.41a21.81,21.81,0,0,1,2.87-1.93,7.28,7.28,0,0,0,2.64-5.69,15.08,15.08,0,0,0-1.5-6.26,13.33,13.33,0,0,0-3.44-5c-1.83-1.5-4.18-2.14-6.39-3s-4.45-2.11-5.44-4.26c-1.34-2.92.13-6.35,2-9,.53-.78,1.1-1.85.49-2.57a2.36,2.36,0,0,0-.94-.56c-1.5-.66-2.94-2.24-2.36-3.77.32-.85,1.22-1.55,1.06-2.44a2.32,2.32,0,0,0-.66-1.07A13.67,13.67,0,0,0,148,24.49a4.62,4.62,0,0,0-5.14.64"/><path class="cls-2" d="M142.54,25.9c-.69,1.92-3.34,7.09-5.68,4.22.8,1-.8-3.79-.35-2.89a4.34,4.34,0,0,0-3.28-2.35,8,8,0,0,0-5.42,1.19c-2.39,1.42-3.35,4.64-5.74,5.83a.89.89,0,0,0,.44,1.64l1.16,1.2,1.29-.52c-3-1.31-9.18.94-6.66,5.19.21.36.76.72.92,1s.86,0,.94.14a18.77,18.77,0,0,1-1,4.21c-.68,1.15-2.34,1.95-3.18,3.1a12.83,12.83,0,0,0-1.9,3.94.89.89,0,0,0,1.08,1.08c3.33-1.09-1,4.4-1,4,0,.1-.39,1-.38,1a.86.86,0,0,0,.22.85c1.19,1.12,1.29.7,2.8.39a10.55,10.55,0,0,0,.69-.81q1-1.37,3.15.71c-.09.73-3.37,2.26-3.74,3.32-1.61,4.58,6.32.79,7.07,3.18l.85-1.12c-4.3.57-7.92,2.93-9.1,7.31-.76,2.82-.52,7.37,3.11,7.95,1.69.27,3.27-.81,4.7-1.49s4.52-2.93,6.16-2.56l1.22,1.31q2,.84.81,2c0-.44-.77,1.79-.69,1.51-.86,3.15,1.5,7.79,4.32,9.36A27.7,27.7,0,0,0,140,91.38c1.32.39,2.14.52,3.31-.36,1.79-1.36,1.69-4.63,4.84-4.12,1.05.17,1.26,1.5,2.71,1.15,1.75-.42,1.21-1.41,3-.81,1.16.39,1.74,1.19,3.21,1a4.23,4.23,0,0,0,3-2c2-2.81-.8-.56,1.86-.53a4.33,4.33,0,0,0,4.38-5.38c-.17-.82-.6-1.1-.94-1.86-.51-1.12-.77-.14-.65-1.66.08-1,.66-.81.83-1.55.3-1.37.63-1.35-.35-2.51a.86.86,0,0,0-.85-.23l-.66.19.86,1.47c2.26-1.8,4.27-2.52,5.29-5.44s.19-6.43-1.06-9.29a13.39,13.39,0,0,0-5-6.37c-4.62-2.91-12.79-2.9-9.88-11.46.85-2.51,2.71-3.57,2-6.25-.83-3-2.22,3.15-2.59-4.64,0-.55.71-1.31.44-1.91-1.89-4.18-7.22-7.28-11.3-4.45-.92.64,0,2.17.89,1.52,2.92-.95,5.2-.55,6.83,1.22q1.71,1.35.91,3.93c0,.72-.61.32-.21,1.59a7.67,7.67,0,0,0,1.63,2.6c.91,1.17,1.65.87,1.39,2.71-.11.77-1.37,2.23-1.71,3.07a8.67,8.67,0,0,0-.56,5.86c1.14,3.81,4.94,5,8.28,6.37a13.36,13.36,0,0,1,8.3,9.74c1.23,5-1.39,7.19-4.88,10-.71.56.07,1.69.86,1.47a2.69,2.69,0,0,0-1.8,2.61c0,.36.21.69.24,1l.71.9c2.08,2.51,1.64,3.91-1.3,4.2a.88.88,0,0,0-1.08-.61,15,15,0,0,0-1.39.76c-.34.17-.34,1-.64,1.18a18.86,18.86,0,0,1-4.59.6c-1.14-.08-1.13-.51-2.51-.27-.76.13-1.27,1.08-2.44.87-.39-.07-.64-.77-1-.86a5.65,5.65,0,0,0-1.5-.31c-2.36.13-2.2,2.38-3.61,3.6s-3.35,1-5,.36c-4.81-1.86-5.83-5.17-4.15-10,.52-1.49,1.67-2.93.23-4.42s-4.32-.41-5.93.1-3.42,1.77-5,2.08c-1.14.85-2.32.58-3.53-.83q-4.09-.18-2.25-3.19a8,8,0,0,1,7.19-6.07.89.89,0,0,0,.85-1.11c-.57-1.8-1.63-2.15-3.47-2.32-.88-.08-.92.25-2,0-2.1-.52-.65-.51.63-1.59a9.23,9.23,0,0,0,2.61-3,.91.91,0,0,0,0-.89,4.26,4.26,0,0,0-4.29-2.2,4.07,4.07,0,0,0-1.61.6c-.75.47-2.69,3.67-.67,1.12,1.72-2.17,1.91-6.87-2.1-5.56l1.08,1.08c1.14-3.65,3.6-4.9,6.1-7.41a4.49,4.49,0,0,0,1.71-3.25c0-1.34-.62-1.41-1.13-2.41-.19-.38-1.17-.27-1.3-.5l-.24,0q-2.55.4,3.16-2.93c.45.19,1.19.09,1.29-.53.31-2.07-.66-3.45-2.86-3.43l.44,1.64c2-1,2.4-2.68,3.89-4.3,2.44-2.66,6.13-4,8.26,1a25.93,25.93,0,0,1,.26,2.93.89.89,0,0,0,1.08.62,11,11,0,0,0,7.8-7.3c.38-1.07-1.32-1.53-1.7-.47Z"/><path class="cls-2" d="M44.42,57.18c2.11-2,4.38-4.21,7-5.46,1.85-.87.82-1.32,2.18-.36,3.43,2.42-4.78,6.15-4.83,8.12,0,1.29,1,1.76,2.14,1.71.88,0,1.3-.7,2-1,.41-.17,1.15-1.85.72-.47-.33,1.07-1.47,1.44-2.14,2.28-3.24,4.1,1.33,5.15,4.85,3.43,1.37-.67,3.32-1.84,3.61-3.52.17-1-.78-2.44-1.12-3.33-1-2.52-2.57-4.88-.84-7.43,1.54-2.27,1.28-1,2.49,1.13a.44.44,0,0,0,.69.09c1-1.19,2.62-2.49,3.19-3.94-.07.18.46-3,.33-2.76,1.68-2.78,1.92-.73,2.92.29a.45.45,0,0,0,.74-.2c.54-2,.86-8.08-2.81-7.47-1.19.2-2.32,2.95-2.17.35s3.23-2.89,4.89-1.12c-.67-.71,1.48,3.69,1.14,3a.44.44,0,0,0,.76,0c1.65-2.2,3.61-3.62,5-6,.41-.69.64-4.22,2.31-3.63.07,0-1.06,4.36-1.11,4.54-.1.4.44.78.74.43a12.61,12.61,0,0,0,2.29-3.56c.29-.74.33-1.7.67-2.39a11.71,11.71,0,0,0,.11-1.67l4.3-.07c1.28,1.1-.63,5,2.25,5.48,4.14.7-.38-4.11,5.58-.71,5,2.88.82,1.69,2.78,3.28,1.29,1,2.1,1,3.73,1.92.49.28.94-.48.45-.76-1.19-.7-1.94-.66-2.73-1.86s-.28-2.17-.7-3.55a4.22,4.22,0,0,0-2.52-2.88c-1.35-.51-2.07-.06-3.3.39-.12.05-1.67,1.54-1.23,1.44L85.6,29.3,85.42,28c-1.14-1.59-2.74-3.92-5.14-1.84-1.49,1.3-.82,3.44-1.34,5.21-2,7-.11-.17-.64-1.56a.43.43,0,0,0-.31-.3c-1.58-.25-1.78.55-2.63,1.81-1.25,1.85-1.49,4.22-3.12,6s-3.08,3.55-3-1.28a.45.45,0,0,0-.44-.44c-6.19-.37-7.36.07-5.32,5.73a.44.44,0,0,0,.84,0q4.35,4.64,2.57,1.85l-.07-.09c-.16,0-.7-.54-.88-.44a5.14,5.14,0,0,0-1.28.57c-1.48,1.31-1.17,4.45-2.55,6-1.94,2.12-2,.53-3.18-1.43a.44.44,0,0,0-.69-.08c-2.74,3.18-1.82,6.07-.79,9.8.44,1.64,1.45,3.79.92,5.59q-2.82,4-4.85.85-2.47-1.11-.35-2.11c.81-1.67,2.34-2.27,2.9-4.25a.45.45,0,0,0-.65-.5,10.51,10.51,0,0,1-1.2.62c-.72.24-4.38,2.81-3.59,1.09.6-1.28,2.56-2.36,3.36-3.72.68-1.17,2.31-4.53,1-5.78-.87-.82-1.18-.46-2-.12-.44.17-.87,1.14-1.21,1.44a32.62,32.62,0,0,1-2.78,1.75,42.71,42.71,0,0,0-5.13,4.27c-.41.39.21,1,.62.62Z"/><path class="cls-2" d="M68.81,81.93A18.6,18.6,0,0,0,74,76c1-1.67,1.73-3.44,2.61-5.15.21-.39,4-6.59,3.55-3.75,0,.21,0,.51.31.54,1.59.24,2.82.19,4.06-1,1.71-1.7.87-3.18,1-5.15.2-2.9,1-3.24,3.3-4.39,4.24-2.15,2.7-.7,3.08,2,.18,1.26-.19,2.14,1,2.67,1.67.72,2.75-1.38,3.85-2,.63-.35.64-1,1.08-1.09.26,0,.74,1,1.18,1s1,.28,1.55.24,3.58-2.3,3.66-.71c.07,1.26-3.55,1.64-3.34,3.5a.45.45,0,0,0,.32.42c4.35,1.18,7.34-4.55,8.45-7.69.19-.54-.66-.77-.85-.24-.13.37-3.48,7.36-4.52,6.44-1.42-1.25.1-.85.56-1.81.28-.56,1.3-1.25,1.07-2.07-1-3.58-6.18,4.21-7.64-.69A.45.45,0,0,0,97.5,57c-.64,1.12-3.58,2-4.47.74-.18-.24.47-1.14.26-1.37s-.13-.71-.37-1c-1.17-1.19-3.41.35-4.53.92a11.77,11.77,0,0,0-4.47,3.37c-.12.19.33.64.23.82s-2.7,5.28-2.9,5.33c.31-.08-.22-1-.26-1a.45.45,0,0,0-.49-.2c-1.92.42-3,2.77-3.88,4.31-2.5,4.45-4,9.1-8.26,12.27-.45.33,0,1.1.45.76Z"/><path class="cls-2" d="M79.7,88.89c2.84,2.33,5.54-.37,7.72-2.49,1.08-1.07,2.06-2.24,3.19-3.26.78-.71,3.2-3.4,2-1.46-.9,1.39-2.07,2-1.92,3.94A.45.45,0,0,0,91,86c2.21.87,5.1-2.64,6.32-4a13.06,13.06,0,0,0,3.51-7.79c.3-3.24,1.34-8.88,6-8,.25,0,.28,1,.68,1,1.4-.08,4.34-3.54,5-2.53.31.47,1.07,0,.76-.45-.62-1-.43-.77-1.4-1.39a.44.44,0,0,0-.6.16c-2,2.85-1.23,2.17-3.92,2-.34,0-.82-.54-1.18-.48-1.72.28-3.07,1.71-4.19,3a10.11,10.11,0,0,0-2.48,4.82c-.53,2.17.14,4.6-1.06,6.76a19.31,19.31,0,0,1-2.74,3.42c-1.36,1.67-1.6,1.29-.7-1.15a.44.44,0,0,0,0-.76c-5.39-2.42-9.48,11.92-14.61,7.71-.44-.35-1.07.26-.63.62Z"/><path class="cls-2" d="M137.91,39.79c-9.89.88-7.49,12.2-10.35,18.94a.44.44,0,0,0,.69.53c1.74-1.56,3.43-3.16,5-4.88s3.2-4.59,5.16-5.51c.76-1.23,1.24-1.24,1.44,0,.64.77.47,1.44-.53,2a26.28,26.28,0,0,1-2.4,2.78,8,8,0,0,0-1.6,3.45.45.45,0,0,0,.55.54c1.17-.4,2.37-1.1,3.45-1.06-.52,0,2.29.65,1.76.26,4,2.93-1.1,5-3.22,6.12a.42.42,0,0,0-.22.38c.22,2.44,3.81,2.4,5.46,1.43,1.83-1.07.52-.95,2-2.34a9.9,9.9,0,0,0,.32-1.53l2.78.63c.08.18-4.61,3.32-5,4.06-.53,1-1.2,1.7-.43,2.85s2.74-.12,3.59.33c1.93,1,0,2.79,1.22,4,.26.27.37.23.62.37a19,19,0,0,0,2.5,0,14.34,14.34,0,0,1,5.87,1.61c.51.24.95-.52.44-.76a17.76,17.76,0,0,0-4.73-1.56c-.77-.12-2.54.18-3.17-.16-1.76-.94-.9-2.6-.69-4.4,0-.3-.3-.48-.55-.42q-4.94,2.49-3-2.44a12.27,12.27,0,0,1,4.9-2.84.44.44,0,0,0,.1-.8c-1.37-.76-3.22-2-4.84-1.72-.21,0-.29.58-.42.63s-4.43,2.68-4.44,2.6,1.1-.62,1.18-.71c1-1.2,3.45-3.44,2.45-5.36s-3.38-.06-4.36-1.57a.46.46,0,0,0-.61-.16c-2.55,1.81-.17-1.94.23-2.55,1-1.57,1.09-.72,1.95-2.42a4.56,4.56,0,0,0,.63-3.42.44.44,0,0,0-.43-.32c-4,.1-7.92,6.79-10.38,9.25-3.48,3.47-1.17.59-.58-2.47,1-5.35.33-11.86,7.66-12.51.56-.05.56-.93,0-.88Z"/><path class="cls-2" d="M160.6,58.55c-1.64.63-6.83,4.54-3.67,6.33a3.47,3.47,0,0,0,2.06.2c1.14-.15,2.91-1.67,3.76-.36.52.82.23,2.45.71,3.4a3.06,3.06,0,0,0,1.25,1.32c.49.3.93-.46.45-.76-1.73-1.06-1.11-3.19-1.75-4.78-.19-.47-.49-1.06-1.06-1.14-1.32-.18-2.6,2.21-4.15,1.5s-1-2-.11-3a6.73,6.73,0,0,1,2.75-1.83c.52-.2.29-1.06-.24-.85Z"/><path class="cls-2" d="M102.94,16.14c6.38-.58,5.39,5.41,7.52,9.07a.44.44,0,0,0,.82-.22l3.39-.28a7.6,7.6,0,0,0-.26,1.24s.87,3.39.32,1.13c.38,1.56,1.9,3.14,2.88,4.4a.45.45,0,0,0,.69-.09c1.68-3.38,3.41-6.75,6.48-9.06.69-.51,4.68-3.81,2.53-1.47-.6.65-1.3,1.19-1.9,1.85-.27.3,0,.9.42.74,3.8-1.39,8.13-1.59,11.55.57,1.38.87,1.49,1.82,3.24,1.77a.44.44,0,0,0,0-.88c-2.68.07-4-4-6.94-4.11-2.63-.1-11.15,3.39-3.74-.49.36-.19.21-.88-.23-.82a11.25,11.25,0,0,0-5.51,2.08c-2.47,1.8-3.06,4.36-5.1,6.31-.22,1.65-.81,2-1.78.93q-2.28-.91-1.8-3.87c.35,1.51.28-1.29.21-1.41-.6-1-.85-1.59-2.16-1.81-3.87-.65-2.34,5.37-3.43-.75-.67-3.78-3.26-6.07-7.2-5.71-.56.05-.57.93,0,.88Z"/><path class="cls-2" d="M156,41.09a10.45,10.45,0,0,0,2.84.37,3.5,3.5,0,0,0,2.27-.46c.44-.34,0-1.1-.45-.76-1,.78-3.27.34-4.43,0a.44.44,0,0,0-.23.85Z"/><path class="cls-2" d="M163.84,41c2.06.44,4.45,1.35,6.57,1.21.56,0,.57-.92,0-.88-2,.13-4.35-.75-6.33-1.18-.56-.12-.79.73-.24.85Z"/><path class="cls-2" d="M167.08,50.72c2.08-.89,3.77-2.58,6-3,.55-.11.32-1-.23-.85-2.35.46-4.1,2.19-6.26,3.11-.52.23-.07,1,.45.76Z"/><path class="cls-2" d="M172,45.47l2.64.21c.56,0,.56-.84,0-.88L172,44.59c-.56-.05-.56.83,0,.88Z"/><path class="cls-2" d="M175.47,39.46a5.13,5.13,0,0,0,3.32-.71,31.37,31.37,0,0,1,5.57-2.17.44.44,0,0,0-.24-.85A30.67,30.67,0,0,0,180.41,37c-1.44.61-3.08,1.87-4.7,1.6-.56-.1-.79.75-.24.85Z"/><path class="cls-2" d="M179.77,41.57a9.94,9.94,0,0,0,5.76-2.34c.45-.33,0-1.09-.44-.76a9.18,9.18,0,0,1-5.32,2.22.44.44,0,0,0,0,.88Z"/><path class="cls-2" d="M165.76,48a19.15,19.15,0,0,1,1.74-2,16.48,16.48,0,0,1,2.33-1.45.22.22,0,0,0-.22-.38,21.14,21.14,0,0,0-2.23,1.37,14.43,14.43,0,0,0-1.93,2.12c-.18.21.13.53.31.31Z"/><path class="cls-2" d="M172.51,41.48c1,.08,1.93.13,2.91.15.28,0,.28-.43,0-.44-1,0-1.94-.07-2.91-.15-.29,0-.28.42,0,.44Z"/><path class="cls-2" d="M176.28,42.79h1.4a.22.22,0,0,0,0-.44h-1.4a.22.22,0,0,0,0,.44Z"/><path class="cls-2" d="M155.83,43.49h1.62a1.83,1.83,0,0,0,1-.18c.23-.15,0-.54-.23-.38a2.23,2.23,0,0,1-1.18.12h-1.24a.22.22,0,0,0,0,.44Z"/><path class="cls-2" d="M161.19,38.12c.7.74,2,.83,3,.92.28,0,.28-.41,0-.44a4.46,4.46,0,0,1-2.66-.79c-.2-.21-.51.1-.32.31Z"/><path class="cls-2" d="M18,57.41A17.7,17.7,0,0,0,14,68.3a.21.21,0,0,0,.27.21c-.77.23,2.92-.77,1.58-1,1.06.19,1.59,2.57,1.89,3.56a.22.22,0,0,0,.37.1c-.55.65,2.39-3,1.66-2.33q.81-2.82.68.57l-.3,1.34c0,2.21.06,4.17,1.41,6,.77,1.06,1.44,1.86,2.8,1.76s3.82-3.46,4.46-3.13c.21.11.46-.17.26-.34-3.7-3.37,2,1.71,2.52,4.23,0,.09,0,2.61,0,2.74.12,1,.65,4.74,1.94,5.12,1.1.32,9.34-4.15,10.58-2.43.16.23.54,0,.38-.22-.89-1.24-1.24-.77-2.53-.6-1,.13-2.48.06-3.61.22-1.55.23-.92.62-2.4,1-6.16,1.43-2.68-5.63-3.55-8.68-.8-2.83-3.56-3.39-6.11-3.19-.2,0-.32.3-.11.41s2.32,1.43,2.14,1.12c0,0-.72.41-.72.43a.08.08,0,0,0,0,0c-1.24,1.61-3.24,1.86-6,.76-1.41-1.29-.91-4.8-.69-6.47a13.72,13.72,0,0,0,.48-1.8c-.24-1.27,0-.79-.8-1.71a.21.21,0,0,0-.36.09c-.15.63-1,2.82-2.08,2.46-.12,0,.32-1.18,0-1.36s0-.83-.88-1c-.34-.07-.71.29-1,.3-.26.71-.66.89-1.2.53-1.28-.24-1.3-1.24,0-3a17.33,17.33,0,0,1,3.34-6.3c.17-.22-.13-.53-.31-.31Z"/><path class="cls-2" d="M30.53,45.12a38,38,0,0,0,3.9-3.92,15.87,15.87,0,0,0,1.4-2c.87-1.47.4-1.45,2.21-.8.69.25.34.69,1.38.46a13,13,0,0,0,2.47-2c0,.28.42.28.44,0,0-.54.06-.41-.22-.87a.21.21,0,0,0-.34,0c-.7.88-2,2.83-3.47,2-.14-.08-.55-.91-.69-1a1.09,1.09,0,0,0-.92-.11c-.33.11-.36.46-.52.69-.76,1.06-1.2,2.22-2.05,3.25a37.1,37.1,0,0,1-3.9,3.93c-.21.19.1.5.31.31Z"/><path class="cls-2" d="M55.05,25.1c1.31-.09,4.46-2.47,5.09-1.57.5.7-.55,2,1,2,1.38,0,1.69-2,2.64-2.42.07,0,.53.22.69.16,1-.34,1.86-1.1,3-1.34.28-.06.16-.48-.11-.42-.59.12-3.13,1.48-3.46,1a.22.22,0,0,0-.38,0,7.45,7.45,0,0,1-1.23,1.78c-1.5.54-2.07.29-1.72-.76-.5-1.19.3-.31-.23-1.07a.23.23,0,0,0-.25-.1c-1.91.34-2.94,2.16-5.05,2.3-.28,0-.28.46,0,.44Z"/><path class="cls-2" d="M129.31,13.4a11.42,11.42,0,0,0-2.81,1.8.22.22,0,0,0,0,.34c2.56,1.51-1.74.86-2.75,1.11a2.58,2.58,0,0,0-1.53.74.22.22,0,0,0,.1.37c2,.62,4.24,1.59,6.42,1.68,1.27,0,2.37-.19,3.66-.11a2.6,2.6,0,0,1,1.64.13,1.51,1.51,0,0,0,.64.24A2.44,2.44,0,0,0,137,18c.32-.63.23-1.44.55-2.06-.14-1,.12-1.31.78-.94l1.31,2.36a.22.22,0,0,0,.38-.22l-2-3.54a.23.23,0,0,0-.41.06c-.57,2.34-.55,4.83-4,5.1-1,.08-1.89-.05-2.89.08-1.55.2-5.42.29-6.66-1-.86-.89.27-.64,1.16-.86a22.06,22.06,0,0,1,3.36-.24.22.22,0,0,0,.11-.41c-1.55-.92-.53-1.91.82-2.53.26-.11,0-.49-.22-.38Z"/><path class="cls-2" d="M75,80.36c1.33.92,1.92-1.33,3.52-1,1.2.23,1.61,2.54,2.62,2.59,2.82.17,3.62-4.25,3.8-6.29,0-.23-.29-.27-.41-.11-.52.76-.41.46-.48,1.38a.22.22,0,0,0,.41.12c.77-1.35,1.52-2.72,2.36-4,1.48-2.29,1.94-4.17,4.9-3.13,0,0,.12.82.35.81,2-.08,3.61-4.7,5.52-2.68.19.2.5-.11.31-.31a4.59,4.59,0,0,0-2-1.6.22.22,0,0,0-.3.08c-.85,1.76-2,3-3.44,2.69-.09,0-.25-.89-.72-.88-1.66.06-2.12.83-3.2,2.23a28.34,28.34,0,0,0-3.37,5.24c-1.13,2.48-.86,5.35-4.53,4.46-.15,0-.18-.67-.37-.69s-.44-.42-.72-.42c-.66,0-3.56,1.49-4,1.18-.23-.16-.45.23-.22.38Z"/><path class="cls-2" d="M139.38,39.46c1.1-.25,4.89-1.72,5.43.24.14.54-2,3.21-2.36,3.75a.22.22,0,0,0,.25.32l2.87,2.08a3.21,3.21,0,0,0,0,1.07c.1.22,0,.52.15.74.4.76.34.6,1.06,1,.27.15.72-.19,1-.15,1.8.3,3.32.36,4.48,1.7A9.24,9.24,0,0,1,153.86,54a.22.22,0,0,0,.43-.12c-.49-2-1.88-5.66-3.93-6.49-3.17-1.28,1.4,1.1-1.9.26-.48.22-.89-.07-1.25-.87A1.52,1.52,0,0,1,146,44.84c-.42-.61-.32-.93-1-1.39-1.32-.84-2.07.37-.9-1.65.48-.83,2-2.23,1.45-3.34-.79-1.55-5.26.36-6.19.57a.22.22,0,0,0,.11.43Z"/><path class="cls-2" d="M140.07,76.21c-.27,2.33-.21,6,2.91,4.9,1-.33,1.91-2.1,2.84-2.19,1.77-.15,1,.87,1.65,1.59,1.11,1.22-.1,1.07,1.95,1.27.48,0,.94-.5,1.4-.5q1.49-1.4,2.85.36a6.92,6.92,0,0,0,.3.91c.87.55.43.75,1.59.7,1.68-.09,2.36-2.26,3.35-3.17l.56-1.14a1.78,1.78,0,0,1,1.91.57c.38,0-.13.09.82,0,.28,0,.28-.46,0-.44-1.25.11-1.47-1.35-2.69-.94-.34.11-1,1.73-1,1.73-4.35,5-4.05,1.79-5.15-.11a.23.23,0,0,0-.3-.08,2.56,2.56,0,0,1-3.25.14q-2.49.42-2.07-1.62c.06,0-.69-1.25-.27-.52a.23.23,0,0,0-.25-.1c-1.48.45,0,0-1.25.65l-1.44,1.18q-5,.1-4-3.19c0-.28-.4-.28-.44,0Z"/></g></g></svg>