<svg xmlns="http://www.w3.org/2000/svg" viewBox="0 0 429.12 288.58"><defs><style>.cls-1{fill:#da9b38;}.cls-2{fill:#38301f;}.cls-3{fill:#ad968a;}.cls-4{fill:#eae3ca;}</style></defs><title>can2</title><g id="Layer_2" data-name="Layer 2"><g id="can"><path class="cls-1" d="M297.2,15.93c-17.22,5-33,13.85-48.8,22.32-51.47,27.6-99.88,44.11-153.15,68-22.78,10.23-39.41,20.59-63.11,28.44C27,136.44,3,147.45,2.94,147.56c-1,2.67-1.19,14.69-1.14,19.58C2.23,207,6.19,226,24.85,255.45c3.94,6.24,30,29.88,37.28,31.22,10.51,1.94,39-12.23,50-15.63,13.62-4.19,27.13-8.74,40.41-13.91,85.15-33.1,145-47.78,230.06-80.8"/><path class="cls-2" d="M296.74,14.23c-15.1,4.48-29.09,11.67-42.91,19.1-15.17,8.15-30.49,15.92-46.15,23.08-30.09,13.77-61,25.78-91.38,38.76q-23.44,10-46.24,21.3c-13.26,6.59-26.7,12-40.46,17.33-8,3.13-15.87,6.82-23.69,10.43-1.95.89-4,1.32-4.81,3.36-1.6,3.9-.95,9.79-1,13.91-.45,24,1,48.91,10.53,71.25,4,9.33,8.83,19.6,15.63,27.24A167.83,167.83,0,0,0,47.71,279.7c5.31,4.19,11.08,9.36,18.25,8.84,10.49-.77,20.9-5.68,30.52-9.57,11.7-4.73,23.59-8.44,35.53-12.51,16.72-5.69,33.09-12.38,49.68-18.46,58.6-21.49,118.54-39.14,177.09-60.77q12.18-4.5,24.29-9.2c2.09-.81,1.18-4.21-.94-3.39-56.55,21.91-114.53,39.55-171.79,59.42-30.86,10.71-61.06,23.36-92.18,33.26-10.18,3.23-19.91,7.29-29.85,11.13a141,141,0,0,1-16,5.37c-3.54.91-7.75,2-11.29.66-8-3.11-15.31-10.69-21.55-16.35C32.71,262,27,256,22.37,248A128,128,0,0,1,8.5,215.94c-3.16-12-4.21-24.42-4.67-36.78-.22-6.09-.36-12.18-.22-18.27.05-2.65.14-5.31.34-8a26.35,26.35,0,0,0,.32-3.18,3.79,3.79,0,0,1,.22-1.22s-.92.9-.37.4c1.9-1.71,5.78-2.68,8.06-3.72,4.23-1.92,8.47-3.82,12.73-5.66,10.67-4.61,21.73-8.1,32.3-13,14-6.44,27.54-13.7,41.59-20,29.64-13.22,59.89-25,89.69-37.86,14.74-6.36,29.37-13,43.74-20.16s28.1-15.23,42.54-22.07a159.51,159.51,0,0,1,22.9-8.89c2.17-.65,1.25-4-.93-3.4Z"/><path class="cls-3" d="M337.66,4.42C335.3,4,324.61,5.58,322.27,6.06,312,8.17,317.5,8.45,307.44,11.34c-1.47.43-9,3.65-10.24,4.59-1.43,1.11-.22,2-1,3.66-4.76,10.12-6,18.13-6.29,29.31a107,107,0,0,0,1.91,21.65,164.46,164.46,0,0,0,35.41,75.22A117,117,0,0,0,341,159.94a87.37,87.37,0,0,0,12.5,8.93c8.8,5.2,19,8.91,29.14,7.46s19.79-9.22,20.81-19.39"/><path class="cls-2" d="M337.66,2.66c-12.22-1.18-24.92,4.31-35.81,9-2.2,1-5.3,1.83-6.68,4-.8,1.25-.7,3.19-1.2,4.61-1,2.68-2.17,5.22-3,8-3,10.07-3.38,21.13-2.42,31.53,2.07,22.25,9.72,44.13,20.85,63.45,10.87,18.85,25.4,37.24,44.64,48,9.8,5.5,22,9.39,33.11,5.86,9-2.87,16.6-10.09,17.95-19.7.31-2.21-3.08-3.17-3.4-.93-1.31,9.37-9.12,16.14-18.2,17.93-11,2.16-22.23-2.64-31.35-8.39-17.36-10.94-30.58-28.34-40.54-46a156.66,156.66,0,0,1-19.14-56.61c-1.24-9.76-1.34-20.13.76-29.79,1-4.63,3.05-8.65,4.49-13.11.26-.78.26-2.53.62-3.09.53-.83,2.39-1.34,3.25-1.74,5.14-2.37,10.63-4.58,15.91-6.57a50.38,50.38,0,0,1,20.15-2.89c2.25.22,2.24-3.3,0-3.52Z"/><path class="cls-3" d="M409.43,55.16c-6-11.84-12.14-23.74-20.9-33.68S368,3.64,354.87,2a34.47,34.47,0,0,0-11.55.46,29.41,29.41,0,0,0-18.88,14c-4,7-3.6,20.75-3.6,20.75-.32,43.44,22.61,86.38,58.89,110.28,5.76,3.79,12,7.18,18.8,8.21s14.36-.7,19-5.81c3.62-4,5-9.49,6.31-14.74a120.48,120.48,0,0,0,3.27-16.7C429.31,96.35,419.42,75,409.43,55.16Z"/><path class="cls-2" d="M411,54.27C398.74,30.07,380.48-1.1,349.07,0c-11.77.42-23.75,7.7-27.72,19.16-3.23,9.31-2.64,20.61-1.75,30.26a136.61,136.61,0,0,0,30.59,73.74,126.13,126.13,0,0,0,31.57,27.68c10.43,6.33,25,10.71,35.4,1.79,6-5.13,7.53-13.42,9.25-20.71,2.09-8.89,3.31-17.7,2.4-26.83C427,87,419,70.31,411,54.27c-1-2-4.06-.24-3,1.78,6.42,12.79,12.71,25.85,15.86,39.89,3.31,14.75,1.4,29.14-2.89,43.49-10.37,34.61-51.17.31-64.2-14.1a133.47,133.47,0,0,1-31.92-64.22,121.52,121.52,0,0,1-2.08-28.36c.23-4.78.7-10,2.77-14.4,2.93-6.22,9-11.13,15.43-13.33,15-5.13,31.23,2.93,42,13.11C394,28.67,401.1,42.54,407.91,56.05,408.93,58.07,412,56.29,411,54.27Z"/><path class="cls-4" d="M282.5,35.73C255.78,50.24,14.27,150.67,13.29,152.44,6.82,164.1,21,214,25.52,223.37c0,0,276.15-111.09,269.34-112.42C287.32,109.49,276.05,55.8,282.5,35.73Z"/><path class="cls-2" d="M282.39,35.54c-15.74,8.5-32.65,15.15-49,22.29Q191,76.3,148.38,94.31q-42.36,18-84.75,36c-16.11,6.85-32.47,13.35-48.3,20.84-1.49.7-1.93.81-2.71,2.2-3,5.39-1,15-.25,20.64a233.1,233.1,0,0,0,6.48,30c1.8,6.53,3.6,13.32,6.48,19.48a.22.22,0,0,0,.25.1Q44.5,216,63.38,208.32q42.88-17.34,85.7-34.84,45.25-18.49,90.36-37.32c17.69-7.43,36.08-14.23,53.05-23.23.45-.24,2.61-1.06,2.67-1.72,0-.3-.15-.26-.2-.46s-1.68-1.13-1.92-1.38a15.71,15.71,0,0,1-2.32-3.93c-3.78-8-5.62-17.12-7.18-25.76a147.18,147.18,0,0,1-2.68-31.34,49.34,49.34,0,0,1,1.85-12.55.22.22,0,0,0-.43-.12c-4.82,15.83-1.27,35.2,2.2,51,1.5,6.79,3.17,14,6.46,20.22.83,1.57,2,2.56,3,3.93.67.95.94-.32.5.53s-3.3,1.82-4.24,2.28c-2.8,1.37-5.64,2.65-8.48,3.93-8.95,4-18,7.88-27,11.71-54.79,23.28-110,45.63-165.15,68q-28.45,11.53-56.92,23a41.41,41.41,0,0,1-5.72,2.3c-2.32.54-1.47.29-2.6-2.7a199.73,199.73,0,0,1-12.12-51.23c-.37-4-1.79-13,1.49-16.2,1-.94,3-1.44,4.22-2,7.14-3.21,14.35-6.28,21.55-9.36q39.49-16.93,79.09-33.63c52.4-22.25,105.44-43.56,156.87-68,2.42-1.15,4.84-2.31,7.2-3.58C282.86,35.78,282.63,35.4,282.39,35.54Z"/><path class="cls-4" d="M53.28,270.05c1.93-1.63,271.53-111.56,271.53-111.56,6.56,9.53,17.7,16.62,34.92,20.82L65.28,282.21C56.69,279.7,53.5,275.37,53.28,270.05Z"/><path class="cls-2" d="M53.39,270.24c2.55-1.88,6.5-2.86,9.37-4.07q11.81-4.95,23.63-9.82,36.71-15.18,73.46-30.2,73.93-30.32,147.94-60.48c4.93-2,10.1-4.9,15.27-6.23,2.14-.56,1.31-1.2,3,1.08,5.41,7.44,14.16,12.38,22.57,15.6,1.65.63,10,4.16,11,3-.18.21-.77.24-1,.36a47.14,47.14,0,0,1-5.09,1.78l-20.51,7.17-155.11,54.2L103,268.78l-25,8.72c-3.75,1.31-8.23,3.78-12.19,4.26-6.11.75-12-6.09-12.39-11.71,0-.28-.47-.28-.44,0,.53,6.8,7.75,13.95,14.71,11.52l16.82-5.88,68.21-23.83L320,193.43l39.81-13.91a.22.22,0,0,0,0-.42c-13.41-3.39-26.55-9.13-34.79-20.72-.06-.07-.16-.14-.25-.1Q278.91,177,233.1,195.7q-73.14,29.9-146.19,60-12.24,5.05-24.45,10.16c-2.88,1.22-6.75,2.16-9.3,4C52.94,270,53.16,270.41,53.39,270.24Z"/><path class="cls-2" d="M408.79,83.32a143.3,143.3,0,0,0-19-36.19c-6.75-9.49-14.34-18.73-24-25.34-9-6.13-20.87-10.21-31.67-6.84s-12.88,13.58-13.88,23.79c-2.49,25.21,6.76,50.83,20.67,71.52a134.91,134.91,0,0,0,24.34,27.57A106.48,106.48,0,0,0,380,148.46c4.08,2.4,9.29,5.9,14.25,6,11,.11,16.53-16.64,18.25-25.16,3.08-15.34,1.14-31.18-3.68-45.94-.35-1.07-2.05-.61-1.7.47,3.8,11.65,5.8,23.84,4.89,36.11a63.28,63.28,0,0,1-3.43,16.95c-2,5.47-6.2,14.1-12.49,15.61-4.81,1.14-10.49-2.79-14.46-5.09a102.17,102.17,0,0,1-15.17-10.78,133.29,133.29,0,0,1-22.21-24.51c-12.36-17.48-21-38.14-22.47-59.66a79.48,79.48,0,0,1,.74-18c.95-5.93,2.12-12.21,7.52-15.73,9.9-6.47,23.64-2.42,32.87,3.31,10.36,6.44,18.37,16.16,25.36,26a141.57,141.57,0,0,1,18.85,35.77C407.46,84.85,409.16,84.4,408.79,83.32Z"/><path class="cls-2" d="M383.32,100.84c-6.42,4.38-14.47-1.47-17.85-7.25a78.13,78.13,0,0,1-7.72-18.5A125.46,125.46,0,0,1,354.41,56c-.35-3-.72-6-.94-9.05a38.93,38.93,0,0,1-.12-5.61c.24-3.24.79-4.75,3.75-6.39,6.85-3.82,14.25,2.67,18,8.29,3.57,5.42,5.55,12.21,7.23,18.45,1.47,5.44.9,11.08,1.79,16.6s6,20-2,23c-1.05.39-.59,2.09.47,1.69,3.87-1.44,5.09-5.71,5.44-9.54.67-7.35-2.37-14.71-2.72-22-.57-12-4.48-27.52-14.28-35.39-7-5.62-18.24-6.4-19.33,4.61-.7,7.08.82,14.79,1.81,21.81A88.77,88.77,0,0,0,359,84.05a80.37,80.37,0,0,0,5.38,11.18c1.64,2.67,3.93,4.21,6.35,6.13,4.17,3.31,8.9,4.14,13.51,1,.93-.64.05-2.16-.89-1.52Z"/><path class="cls-2" d="M363.61,69.65a.88.88,0,0,0,0-1.76.88.88,0,0,0,0,1.76Z"/><path class="cls-2" d="M364.37,69.21a1.15,1.15,0,0,0,.11-.85.87.87,0,0,0-1-.63.88.88,0,0,0-.76.86l0,.18a.89.89,0,0,0,.88.88.9.9,0,0,0,.88-.88l0-.18-1.73.24,0,.08.09-.68,0,.1a.91.91,0,0,0,.32,1.2A.88.88,0,0,0,364.37,69.21Z"/><path class="cls-2" d="M380.13,84.89c-.94-6.52-2.09-16-9.11-19a6.62,6.62,0,0,0-6.25.21c-2.73,1.81-1.83,3.6-1.1,6.4a100.14,100.14,0,0,0,4.78,13.91c1,2.36,2,4.85,4.43,6,5.59,2.58,7.83-2.67,7.28-7.25-.13-1.11-1.89-1.13-1.76,0q1.25,3.33-3.42,2.55c-2.29,1.8-3.69,1.71-4.18-.28-1.16-1.18-1.78-4.2-2.37-5.74-1.12-3-2.66-6.45-3.06-9.64l-.45-1.79q5.82-4.33,8.54-.2a13.19,13.19,0,0,1,2.86,5.08,53.46,53.46,0,0,1,2.11,10.25C378.6,86.48,380.29,86,380.13,84.89Z"/><path class="cls-2" d="M374.48,51.3a65.17,65.17,0,0,0-7.85-9.3c-1.36-1.34-3.84-4.06-6.12-3.23-4,1.46-.55,12.24.1,15,.28,1.21.36,2.81,1.2,3.75,1,1.16,4.25,1.91,5.77,2.75a19.8,19.8,0,0,0,5.28,2.44c7.8,1.6,3.63-8.14,1.62-11.46a.88.88,0,0,0-1.52.89c1.12,1.86,5.4,8.61-.29,8.72-1.8,0-5.12-2.67-6.71-3.48-.74-.37-2.58-.79-2.95-1.2s-.65-2.62-.81-3.32c-.35-1.57-.68-3.16-.95-4.75-.2-1.17-1.28-4.65-.64-5.8C363,38.18,372.11,51,373,52.19,373.59,53.12,375.12,52.24,374.48,51.3Z"/><path class="cls-2" d="M364,33c-1.61-3.38-6.62-6.51-10.45-6-5,.6-5.19,7.57-5.77,11.35-2.77,18.09-5.91,36.12-4.88,54.49.43,7.78.65,15.87,4.81,22.71,3.57,5.86,9,10.37,14.64,14.13,9.77,6.49,25.87,17.68,35,4,4.62-6.89,2.9-14.92-.07-22.08-3.61-8.7-8.12-17.08-10.39-26.28-.14-.55-1-.31-.85.24,1.73,7,4.76,13.54,7.66,20.1,3.57,8.07,8.56,17.59,3.69,26.26a14,14,0,0,1-13.62,7.42c-4.54-.44-8.55-3.09-12.45-5.3-6.91-3.91-13.9-8.15-19.23-14.14-6.73-7.56-7.67-16.37-8.26-26.11a155.15,155.15,0,0,1,.55-25.23c.9-8.82,2.34-17.58,3.69-26.33.51-3.35.45-9.47,2.56-12.33,3.48-4.7,10.92,0,12.61,3.55.24.51,1,.07.76-.44Z"/><path class="cls-3" d="M356.87,91.39a1.08,1.08,0,0,1,.08.19s0,0,0,0Z"/><path class="cls-2" d="M356.45,91.5a1.67,1.67,0,0,0,.08.2.45.45,0,0,0,.85,0,.57.57,0,0,0-.13-.54.44.44,0,0,0-.76.45l.1.15,0-.34v0h.85a1.54,1.54,0,0,1-.08-.19C357.1,90.75,356.24,91,356.45,91.5Z"/><path class="cls-3" d="M387.83,107a1.94,1.94,0,0,0-1.32,0,19.81,19.81,0,0,1-12.46-1.69,58.76,58.76,0,0,1-10.76-6.87c-1-.72-1.94-1.46-2.84-2.26l-1.9-4.95c-.11-.31-.28-.65-.6-.72s-.69.32-.86.67l-.12.3a31.09,31.09,0,0,0-.08,5.86c.55,3.27,1.11,6.54,2,9.75,1.2,4.48,3.09,8.92,6.41,12.16s8.29,5.08,12.73,3.73c5.73-1.73,8.84-7.89,10.33-13.69C388.54,108.51,388.61,107.39,387.83,107Z"/><path class="cls-2" d="M387.83,106.59c-3.11.07-6,.62-9.11-.08a29.84,29.84,0,0,1-9.24-4.16,35.18,35.18,0,0,1-7.61-6.06c-1.72-1.92-2-4.15-3.61-6a.42.42,0,0,0-.43-.11c-3.22,1.09-1.22,8.3-.8,10.64,1.34,7.36,3.35,15.78,9.82,20.38,5.2,3.7,12,3.69,16.5-1,2.25-2.33,7.63-10.31,4.79-13.44-.38-.42-1,.21-.62.63,2.35,2.59-3,10.4-4.79,12.19-4.9,5-12.33,4.17-17.15-.53-5.72-5.6-8.31-16.12-8.37-24,0-6,1.27-.55,2.86,1.44,1.75,2.2,5.15,4.09,7.44,5.64a35.77,35.77,0,0,0,9.42,4.84c3.79,1.15,7.06.61,10.9.53C388.4,107.45,388.4,106.57,387.83,106.59Z"/></g></g></svg>