<svg xmlns="http://www.w3.org/2000/svg" viewBox="0 0 300.85 645.1"><defs><style>.cls-1{fill:#ad968a;}.cls-2{fill:#38301f;}.cls-3{fill:#979b3d;}.cls-4{fill:#a5c08a;}.cls-5{fill:none;}.cls-6{fill:#f6bc3c;}.cls-7{fill:#eae3ca;}</style></defs><title>candle2</title><g id="Layer_2" data-name="Layer 2"><g id="candle"><path class="cls-1" d="M290.12,401.49c-11.29-46.21-50.37-73.43-67.41-85.3C158.36,271.37,88.5,275.92,66.56,277.67c-14,1.12-35.77,3.06-60.4,11.81C6.33,302.84,6,596.73,5,617.84a197.83,197.83,0,0,0,38.86,15.47,206.95,206.95,0,0,0,176.79-33.7c16.41-12.42,24.61-18.63,30.26-28.9,16.47-29.9,23.88-77.64,27.37-82.76C298.38,458.49,292.65,411.81,290.12,401.49Z"/><path class="cls-2" d="M295,400.16c-10.82-42.88-45.37-74.35-82.12-96.3C172.3,279.67,124.52,269.75,77.63,272c-24.71,1.16-49.37,4.52-72.8,12.71a5.15,5.15,0,0,0-3.67,4.82c.45,36.93,0,73.89,0,110.83Q1,485.26.57,570.21C.47,586.06.73,602,0,617.84a4.93,4.93,0,0,0,2.48,4.32c60.62,31.25,133.65,30.38,194.1-1.42a196.23,196.23,0,0,0,26.59-16.82c13.14-9.87,26.39-19.31,34-34.3,7.71-15.25,12.75-31.79,17.14-48.25,1.8-6.74,3.44-13.53,5.16-20.29.57-2.26,1.14-4.52,1.79-6.75.25-.87.5-1.74.8-2.6.46-1.31-.1-.06.43-1,4.33-8,8.42-15.37,10.87-24.22a128.87,128.87,0,0,0,4.25-27c.77-12.94.38-26.66-2.63-39.34-1.49-6.26-11.14-3.61-9.65,2.66,2.38,10,2.73,20.67,2.51,30.88-.33,15.38-2.72,31.4-9.93,45.17-2.25,4.29-4.82,7.8-6.2,12.47-1.49,5-2.66,10.18-3.93,15.27-3.78,15.13-7.81,30.25-13.45,44.81-2.72,7.05-5.76,14.3-10,20.56-3.91,5.73-9.43,10.3-14.8,14.59a255.27,255.27,0,0,1-28.53,20.26A203.18,203.18,0,0,1,99.2,635.33a194.39,194.39,0,0,1-91.67-21.8L10,617.84c.61-13.09.42-26.26.51-39.37q.27-38.49.37-77,.28-84.18.32-168.36c0-14.54.14-29.09,0-43.64L7.49,294.3C43.92,281.57,85.8,278.71,124,283.81a225.94,225.94,0,0,1,120.87,55.84c19,17.07,34.08,38.14,40.39,63.17C286.88,409.06,296.52,406.42,295,400.16Z"/><path class="cls-3" d="M254.35,348.52c-20.93-24.51-44.12-36.35-59.16-44a227.44,227.44,0,0,0-60.53-20.64c-38.12-7.28-68.13-3-83.24-.69-14.29,2.18-29.13,4.42-45.21,10,.16,12.14,3.64,235,3.3,258.31,40.13,15.35,77.37,16.46,100.39,15.14,8.35-.48,47.65-3.18,92.86-24.08,24.07-11.13,43.4-20.07,60.54-41.27,6.5-8.05,27.19-34.45,26.82-72.23C289.74,390,267.1,363.45,254.35,348.52Z"/><path class="cls-2" d="M256.12,346.76c-21-24.35-49.31-41.36-79-53.15A233.83,233.83,0,0,0,64.6,278.88c-19.9,2.27-40,5.42-59.06,11.85a2.57,2.57,0,0,0-1.83,2.41Q4.3,336.33,5,379.5q1,66,1.77,132.1c.14,13.28.43,26.57.25,39.85a2.58,2.58,0,0,0,1.84,2.41c55.76,21,116.78,20.11,172.58.07A327,327,0,0,0,230,531.87a119.72,119.72,0,0,0,35.34-29.25c16.09-20,26.61-44.29,27.23-70.16.8-33.41-15.5-61.13-36.48-85.7-2.09-2.45-5.61,1.1-3.53,3.53,17.75,20.79,32.59,43.95,34.74,72,2.09,27.17-7.46,53.74-24.07,75-19.07,24.47-47.95,38.19-76.27,49.24-24,9.34-49.54,15.71-75.26,17.44A242.16,242.16,0,0,1,10.18,549L12,551.45c.43-31.44-.51-62.94-.93-94.38q-.86-64.92-1.86-129.85c-.17-11.36-.36-22.72-.51-34.08l-1.84,2.41c17.29-5.85,35.43-8.8,53.49-11.15A239.6,239.6,0,0,1,109,283c33.67,2.53,65.64,13,95.18,29.05,18.32,10,34.75,22.48,48.42,38.29C254.69,352.73,258.22,349.18,256.12,346.76Z"/><path class="cls-4" d="M140.16,385a51.83,51.83,0,0,0-23.63-13c-.89,8.78-2.38,14.11-6.63,17.86-10.72,9.42-34,6.28-42.65-6.88a19.24,19.24,0,0,1-2.76-6.6,109.85,109.85,0,0,0-13.75,5.91c-9.1,4.72-24,12.47-30.27,29.58C14.57,428,18,448.05,30.1,460.65c7.57,7.87,16.19,10.38,25.45,13.07,4.45,1.3,24.55,6.76,50.91,0,18.74-4.8,39.35-10.08,48.15-28.2C164.34,425.47,155,399.35,140.16,385Z"/><path class="cls-2" d="M140.6,384.54a55.46,55.46,0,0,0-23.9-13.21.64.64,0,0,0-.79.61c-.72,6.55-1.68,13.68-7.22,18-4.35,3.4-10,4.66-15.47,4.66-11.92,0-25-6.1-28.13-18.46a.61.61,0,0,0-.76-.43C45.85,382.43,26,393.12,19.4,413c-6.7,20.31.9,45.53,20.47,55.69C56,477.05,76,479.08,93.72,476.8a149,149,0,0,0,35.67-9.36c8.92-3.58,17.38-8.74,22.93-16.77,14.3-20.68,4.72-49.76-11.72-66.13a.62.62,0,0,0-.88.88c21.17,21.09,27.2,59.93-2.17,76.75-12.45,7.13-28.29,11.13-42.4,13.18a95.64,95.64,0,0,1-37.41-1.67C43.71,470,31,464.34,23.86,451c-7.31-13.7-7.63-31.32,0-45,6.06-10.88,16.43-17.68,27.23-23.21,1.59-.81,3.2-1.6,4.83-2.33,1.43-.64,5.4-3.11,7-2.89,2,.27,3.16,4.88,4.43,6.63a27.49,27.49,0,0,0,11.4,8.73c9.52,4.1,22.8,4.68,31.17-2.34,5-4.19,5-9.43,6.83-15.22.72-2.35.86-2.53,3.34-1.71a51.79,51.79,0,0,1,7.11,2.92,52.48,52.48,0,0,1,12.51,8.86C140.31,386,141.19,385.09,140.6,384.54Z"/><path class="cls-5" d="M212.85,182.6c-.46-7.64-3.67-14.84-7.21-21.63a204.68,204.68,0,0,0-20.81-32.15c-15.7-19.87-36.17-39.33-37-64.64-.86-26.43,20.3-48,41.22-64.18C166,17.27,138.39,41.67,138.39,41.67A426.86,426.86,0,0,0,100,78.05C95.07,83.35,90.12,89,88,96c-4.8,15.79,6.41,31.78,18.23,43.31s25.76,23.11,28.44,39.39c2.78,16.91-7.68,33.05-19,45.89-17.38,19.71-38,36.49-54,57.38s-27,47.7-21.11,73.3c4.61,19.87,19.18,36.55,36.93,46.62s38.41,14.06,58.8,14.65c-16.1-26.73-27.31-59.67-16.49-88.95,8.31-22.48,27.88-38.44,44.22-56a239.41,239.41,0,0,0,42.13-62.77C210,200.54,213.39,191.7,212.85,182.6Z"/><path class="cls-2" d="M77.33,376.25a55.42,55.42,0,0,1,12.31,9.52c4.38,4.24,5.84,8,6,14,.21,11.94.38,23.88.58,35.82.1,6.43,10.1,6.45,10,0l-.35-21.3c-.11-6.95.41-14.27-.65-21.15-1.69-11-13.5-20.61-22.79-25.54-5.68-3-10.74,5.61-5,8.63Z"/><path class="cls-1" d="M293.06,401.38c-11.3-46.21-50.37-73.43-67.42-85.3-64.35-44.81-134.2-40.27-156.15-38.52-14,1.12-35.77,3.06-60.39,11.81.17,13.36-.16,307.25-1.16,328.36A197.83,197.83,0,0,0,46.79,633.2a206.95,206.95,0,0,0,176.79-33.7c16.41-12.42,24.62-18.63,30.27-28.89,16.47-29.9,23.87-77.65,27.37-82.77C301.31,458.38,295.58,411.7,293.06,401.38Z"/><path class="cls-2" d="M297.88,400.05c-10.81-42.88-45.36-74.35-82.12-96.3-40.52-24.19-88.31-34.11-135.19-31.91C55.86,273,31.2,276.36,7.77,284.55a5.14,5.14,0,0,0-3.67,4.82c.44,36.93,0,73.89,0,110.83q-.15,84.95-.56,169.9c-.1,15.85.17,31.79-.56,47.63a4.91,4.91,0,0,0,2.47,4.32c60.62,31.25,133.66,30.38,194.1-1.42a195,195,0,0,0,26.59-16.82c13.15-9.87,26.4-19.31,34-34.3,7.71-15.25,12.76-31.79,17.15-48.25,1.8-6.74,3.44-13.53,5.15-20.29.57-2.26,1.14-4.52,1.79-6.75.26-.87.51-1.74.81-2.6.46-1.31-.11-.06.42-1,4.33-8,8.42-15.37,10.88-24.22a130.19,130.19,0,0,0,4.25-27c.76-12.94.37-26.66-2.64-39.34-1.49-6.26-11.13-3.61-9.64,2.66,2.37,10,2.73,20.67,2.51,30.88-.33,15.38-2.73,31.4-9.93,45.17-2.25,4.29-4.82,7.8-6.2,12.47-1.5,5-2.66,10.18-3.94,15.27-3.78,15.13-7.81,30.26-13.44,44.81-2.73,7.05-5.77,14.3-10,20.56-3.9,5.74-9.42,10.3-14.8,14.59a256.07,256.07,0,0,1-28.52,20.26,203.25,203.25,0,0,1-101.75,28.5,194.42,194.42,0,0,1-91.67-21.8l2.48,4.31c.6-13.09.42-26.26.51-39.37q.27-38.49.36-77,.28-84.17.32-168.35c0-14.55.14-29.1,0-43.65l-3.67,4.82C46.85,281.46,88.73,278.6,127,283.7a225.91,225.91,0,0,1,120.87,55.84c19,17.08,34.09,38.14,40.4,63.17C289.81,409,299.46,406.31,297.88,400.05Z"/><path class="cls-3" d="M257.29,348.41c-20.94-24.51-44.12-36.34-59.16-44a227.41,227.41,0,0,0-60.54-20.64c-38.11-7.28-68.13-3-83.23-.69-14.3,2.18-29.13,4.42-45.22,10,.17,12.14,3.64,235,3.31,258.31,40.12,15.35,77.37,16.46,100.38,15.14,8.35-.48,47.66-3.18,92.87-24.08,24.06-11.13,43.4-20.07,60.53-41.27,6.5-8.05,27.2-34.45,26.83-72.23C292.68,389.86,270,363.35,257.29,348.41Z"/><path class="cls-2" d="M259.06,346.65C238,322.3,209.74,305.29,180,293.5A233.81,233.81,0,0,0,67.54,278.77c-19.9,2.27-40.06,5.42-59.06,11.85A2.58,2.58,0,0,0,6.64,293c.39,28.79.87,57.57,1.29,86.36q1,66,1.76,132.1c.15,13.28.43,26.57.26,39.85a2.57,2.57,0,0,0,1.83,2.41c55.76,21,116.78,20.11,172.59.07A327.42,327.42,0,0,0,233,531.76a119.85,119.85,0,0,0,35.34-29.25c16.08-20,26.6-44.29,27.22-70.16.81-33.41-15.5-61.13-36.47-85.7-2.1-2.45-5.62,1.1-3.54,3.53,17.75,20.79,32.59,43.95,34.75,72,2.09,27.17-7.47,53.75-24.07,75-19.08,24.47-47.95,38.19-76.27,49.24-24,9.34-49.55,15.71-75.26,17.44A242.21,242.21,0,0,1,13.11,548.93L15,551.34c.42-31.44-.51-62.94-.93-94.38Q13.15,392,12.15,327.11q-.26-17-.51-34.08l-1.83,2.41c17.29-5.85,35.42-8.8,53.48-11.15a239.6,239.6,0,0,1,48.63-1.45c33.68,2.53,65.64,13,95.18,29.05,18.32,10,34.75,22.48,48.42,38.29C257.63,352.62,261.15,349.07,259.06,346.65Z"/><path class="cls-6" d="M119.47,371.83c.36-3.54.62-7.62.93-12.41,1-15.82-1.81-24.74-2.76-27.52-2-6-5.8-17-13.75-18.57-1.54-.3-4.66-.54-10.32,2.75-15.71,9.13-21,27.93-22.7,34.4-2.79,10.47-5,18.65-3.44,25.73C82.28,370.94,101.77,367.28,119.47,371.83Z"/><path class="cls-2" d="M120.72,371.83c1.12-11.67,2.09-23.71-.48-35.26-1.59-7.14-4.34-15.57-9.63-20.8-6.84-6.79-15.49-2.93-22.1,2.27-7.94,6.22-13.17,15.22-16.54,24.6-3.73,10.38-7.77,22.85-5.75,33.9a1.25,1.25,0,0,0,1.54.87c16.44-5.72,34.23-8.52,51.38-4.38,1.56.38,2.23-2,.66-2.41C102.24,366.38,84,369.14,67.09,375l1.54.88c-1.95-10.71,2.32-23.45,6.1-33.53,4.12-11,12.8-25.22,25.34-27.66,10.44-2,15.08,12.45,17.21,20.29,3.24,11.94,2.11,24.69.94,36.85C118.06,373.43,120.57,373.42,120.72,371.83Z"/><path class="cls-4" d="M143.1,384.87a51.88,51.88,0,0,0-23.63-13c-.89,8.78-2.38,14.11-6.64,17.86-10.71,9.42-34,6.28-42.65-6.88a19.21,19.21,0,0,1-2.75-6.6,111.55,111.55,0,0,0-13.76,5.91c-9.09,4.72-24,12.47-30.27,29.58-5.89,16.14-2.49,36.24,9.63,48.84,7.57,7.87,16.19,10.38,25.46,13.07,4.45,1.3,24.54,6.76,50.9,0,18.74-4.8,39.35-10.08,48.15-28.2C167.28,425.36,157.89,399.24,143.1,384.87Z"/><path class="cls-2" d="M143.54,384.43a55.49,55.49,0,0,0-23.91-13.21.65.65,0,0,0-.79.61c-.71,6.56-1.68,13.68-7.22,18-4.34,3.4-10,4.66-15.47,4.66-11.92,0-25-6.1-28.12-18.46a.62.62,0,0,0-.77-.43c-18.48,6.71-38.38,17.4-44.93,37.28-6.69,20.31.91,45.53,20.48,55.69C58.89,476.94,79,479,96.65,476.69a149.11,149.11,0,0,0,35.68-9.36c8.91-3.58,17.38-8.74,22.93-16.77,14.29-20.68,4.72-49.76-11.72-66.13a.63.63,0,0,0-.88.89c21.16,21.08,27.19,59.92-2.18,76.74-12.45,7.14-28.28,11.13-42.4,13.18a95.59,95.59,0,0,1-37.4-1.67c-14-3.64-26.75-9.34-33.89-22.73-7.31-13.69-7.63-31.32,0-45C32.81,395,43.18,388.19,54,382.66c1.59-.81,3.19-1.6,4.82-2.33,1.43-.64,5.41-3.11,7-2.89,2,.27,3.16,4.88,4.44,6.63a27.34,27.34,0,0,0,11.4,8.73c9.52,4.1,22.79,4.68,31.17-2.34,5-4.19,5-9.43,6.82-15.22.73-2.35.86-2.53,3.35-1.71a50.84,50.84,0,0,1,19.62,11.79C143.24,385.87,144.13,385,143.54,384.43Z"/><path class="cls-7" d="M112.83,389.69c4.26-3.75,5.75-9.08,6.64-17.86-17.7-4.55-37.19-.89-52,4.38a19.21,19.21,0,0,0,2.75,6.6C78.8,396,102.12,399.11,112.83,389.69Z"/><path class="cls-2" d="M113.27,390.13c5.1-4.82,6.09-11.62,6.82-18.3a.62.62,0,0,0-.46-.61C102.18,367,84,369.78,67.26,375.61a.65.65,0,0,0-.44.77c4.65,18.51,32.22,25.52,46.45,13.75.62-.51-.27-1.39-.88-.88-6.71,5.55-16.29,6.24-24.5,4.28a31.15,31.15,0,0,1-12.63-6c-2.48-2-9.31-9.1-5.48-11.43,4-2.43,10.56-3.1,15.09-4a93,93,0,0,1,18-1.7,74.61,74.61,0,0,1,7.91.46c1.11.13,4.55.32,5.93,1,2.32,1.1,1.91,2.38,1.52,4.7-.8,4.81-2.22,9.28-5.85,12.72C111.8,389.8,112.69,390.68,113.27,390.13Z"/><path class="cls-2" d="M80.27,376.14a55.65,55.65,0,0,1,12.31,9.52c4.37,4.24,5.83,7.95,5.94,14,.22,11.94.39,23.88.58,35.82.11,6.43,10.11,6.45,10,0l-.34-21.3c-.12-6.95.4-14.27-.66-21.15-1.69-11-13.5-20.61-22.78-25.54-5.68-3-10.74,5.61-5,8.63Z"/></g></g></svg>