<svg xmlns="http://www.w3.org/2000/svg" viewBox="0 0 297.92 645.75"><defs><style>.cls-1{fill:#ad968a;}.cls-2{fill:#38301f;}.cls-3{fill:#979b3d;}.cls-4{fill:#a5c08a;}</style></defs><title>candle</title><g id="Layer_2" data-name="Layer 2"><g id="candle"><path class="cls-1" d="M290.12,402.14c-11.29-46.22-50.37-73.43-67.41-85.3C158.36,272,88.5,276.57,66.56,278.32c-14,1.11-35.77,3.06-60.4,11.81C6.33,303.49,6,597.37,5,618.49A197.83,197.83,0,0,0,43.86,634a206.91,206.91,0,0,0,176.79-33.71c16.41-12.42,24.61-18.63,30.26-28.89,16.47-29.9,23.88-77.64,27.37-82.77C298.38,459.14,292.65,412.46,290.12,402.14Z"/><path class="cls-2" d="M295,400.81c-10.82-42.88-45.37-74.35-82.12-96.3-40.53-24.2-88.31-34.11-135.2-31.91-24.71,1.16-49.37,4.52-72.8,12.7a5.17,5.17,0,0,0-3.67,4.83c.45,36.93,0,73.89,0,110.82q-.14,85-.55,169.9c-.1,15.86.16,31.79-.57,47.64a4.94,4.94,0,0,0,2.48,4.32c60.62,31.25,133.65,30.38,194.1-1.43a197.15,197.15,0,0,0,26.59-16.81c13.14-9.88,26.39-19.31,34-34.31,7.71-15.25,12.75-31.78,17.14-48.24,1.8-6.75,3.44-13.53,5.16-20.3.57-2.25,1.14-4.51,1.79-6.75.25-.87.5-1.74.8-2.59.46-1.32-.1-.06.43-1,4.33-8,8.42-15.36,10.87-24.21a129,129,0,0,0,4.25-27c.77-12.94.38-26.67-2.63-39.34-1.49-6.26-11.14-3.61-9.65,2.66,2.38,10,2.73,20.66,2.51,30.88-.33,15.37-2.72,31.4-9.93,45.16-2.25,4.3-4.82,7.81-6.2,12.48-1.49,5-2.66,10.17-3.93,15.27-3.78,15.13-7.81,30.25-13.45,44.81-2.72,7-5.76,14.29-10,20.56-3.91,5.73-9.43,10.3-14.8,14.59a256.49,256.49,0,0,1-28.53,20.25A203.29,203.29,0,0,1,99.2,636,194.28,194.28,0,0,1,7.53,614.17L10,618.49c.61-13.1.42-26.26.51-39.37q.27-38.49.37-77,.28-84.18.32-168.36c0-14.55.14-29.1,0-43.64L7.49,295C43.92,282.22,85.8,279.36,124,284.45A225.88,225.88,0,0,1,244.91,340.3c19,17.07,34.08,38.13,40.39,63.17C286.88,409.7,296.52,407.06,295,400.81Z"/><path class="cls-3" d="M254.35,349.17c-20.93-24.52-44.12-36.35-59.16-44a227.89,227.89,0,0,0-60.53-20.63c-38.12-7.29-68.13-3-83.24-.69-14.29,2.17-29.13,4.41-45.21,10,.16,12.15,3.64,235,3.3,258.31,40.13,15.35,77.37,16.47,100.39,15.14,8.35-.48,47.65-3.17,92.86-24.07,24.07-11.13,43.4-20.07,60.54-41.28,6.5-8,27.19-34.44,26.82-72.23C289.74,390.61,267.1,364.1,254.35,349.17Z"/><path class="cls-2" d="M256.12,347.4c-21-24.35-49.31-41.35-79-53.15A234,234,0,0,0,64.6,279.53c-19.9,2.26-40,5.41-59.06,11.84a2.57,2.57,0,0,0-1.83,2.41Q4.3,337,5,380.15q1,66,1.77,132.09c.14,13.28.43,26.57.25,39.85a2.58,2.58,0,0,0,1.84,2.41c55.76,21.06,116.78,20.11,172.58.07A327,327,0,0,0,230,532.51a119.69,119.69,0,0,0,35.34-29.24c16.09-20,26.61-44.29,27.23-70.16.8-33.41-15.5-61.14-36.48-85.71-2.09-2.45-5.61,1.1-3.53,3.54,17.75,20.79,32.59,43.94,34.74,71.95,2.09,27.17-7.46,53.75-24.07,75.05-19.07,24.47-47.95,38.19-76.27,49.23-24,9.35-49.54,15.72-75.26,17.45A242,242,0,0,1,10.18,549.68L12,552.09c.43-31.44-.51-62.94-.93-94.37q-.86-64.94-1.86-129.85c-.17-11.36-.36-22.72-.51-34.09l-1.84,2.41c17.29-5.85,35.43-8.8,53.49-11.15A238.88,238.88,0,0,1,109,283.6c33.67,2.52,65.64,13,95.18,29,18.32,10,34.75,22.48,48.42,38.29C254.69,353.38,258.22,349.83,256.12,347.4Z"/><path class="cls-4" d="M140.16,385.63a51.76,51.76,0,0,0-23.63-13.05c-.89,8.79-2.38,14.12-6.63,17.86-10.72,9.42-34,6.29-42.65-6.88a19.15,19.15,0,0,1-2.76-6.6,109.78,109.78,0,0,0-13.75,5.92c-9.1,4.72-24,12.47-30.27,29.58C14.57,428.59,18,448.7,30.1,461.3c7.57,7.86,16.19,10.37,25.45,13.07,4.45,1.29,24.55,6.75,50.91,0,18.74-4.81,39.35-10.09,48.15-28.21C164.34,426.12,155,400,140.16,385.63Z"/><path class="cls-2" d="M140.6,385.19A55.46,55.46,0,0,0,116.7,372a.63.63,0,0,0-.79.6c-.72,6.56-1.68,13.68-7.22,18-4.35,3.4-10,4.65-15.47,4.66-11.92,0-25-6.1-28.13-18.46a.62.62,0,0,0-.76-.44C45.85,383.08,26,393.76,19.4,413.64c-6.7,20.31.9,45.53,20.47,55.7C56,477.69,76,479.72,93.72,477.44a148.57,148.57,0,0,0,35.67-9.36c8.92-3.57,17.38-8.73,22.93-16.76,14.3-20.69,4.72-49.76-11.72-66.13a.62.62,0,0,0-.88.88c21.17,21.08,27.2,59.93-2.17,76.75C125.1,470,109.26,474,95.15,476a95.64,95.64,0,0,1-37.41-1.68C43.71,470.68,31,465,23.86,451.6c-7.31-13.7-7.63-31.33,0-45,6.06-10.88,16.43-17.68,27.23-23.21q2.39-1.23,4.83-2.33c1.43-.64,5.4-3.11,7-2.89,2,.27,3.16,4.88,4.43,6.62a27.41,27.41,0,0,0,11.4,8.73c9.52,4.11,22.8,4.68,31.17-2.33,5-4.19,5-9.43,6.83-15.22.72-2.35.86-2.54,3.34-1.72a50.84,50.84,0,0,1,19.62,11.79C140.31,386.62,141.19,385.74,140.6,385.19Z"/><path class="cls-1" d="M212.85,183.25c-.46-7.65-3.67-14.84-7.21-21.63a204.22,204.22,0,0,0-20.81-32.15c-15.7-19.87-36.17-39.34-37-64.64-.86-26.43,20.3-48,41.22-64.18C166,17.91,138.39,42.32,138.39,42.32A426.75,426.75,0,0,0,100,78.69c-4.94,5.31-9.89,11-12,17.92-4.8,15.8,6.41,31.79,18.23,43.32S132,163,134.69,179.32c2.78,16.91-7.68,33-19,45.89-17.38,19.7-38,36.49-54,57.37s-27,47.7-21.11,73.3c4.61,19.88,19.18,36.56,36.93,46.63s38.41,14.05,58.8,14.65c-16.1-26.74-27.31-59.67-16.49-89,8.31-22.48,27.88-38.44,44.22-56a239.25,239.25,0,0,0,42.13-62.77C210,201.19,213.39,192.35,212.85,183.25Z"/><path class="cls-2" d="M213.47,183.25c-1.21-14-9.49-27-16.94-38.51S180,122.68,171.22,112s-17.5-22.41-21.1-36.06c-3.75-14.16-.63-28.5,6.84-40.89,8.16-13.51,20.19-24.31,32.54-33.91.55-.43-.19-1.41-.76-1a804.79,804.79,0,0,0-71.21,60C109.79,67.47,101.92,75,95.09,83.28c-5.43,6.56-9.31,14.07-8.78,22.79,1.14,18.66,17.15,31.67,29.37,43.84,6.91,6.88,13.73,14.47,17,23.85,3.71,10.79,1.34,22.08-3.82,32-9.79,18.7-27,33.23-41.74,47.92-26.27,26.16-55.6,60.69-47.45,100.78,3.83,18.85,16.55,34.9,32.34,45.42C90.9,412.45,113.9,417,136.31,417.78a.63.63,0,0,0,.54-.94c-18.43-30.89-30.1-69.63-9.44-102.43,9.12-14.47,22-26,33.77-38.25a244.34,244.34,0,0,0,30.72-39.11,235.64,235.64,0,0,0,14.44-26.49c4-8.67,7.43-17.61,7.13-27.31a.63.63,0,0,0-1.25,0c.49,15.71-8.49,31-16.07,44.3a238.84,238.84,0,0,1-25.66,36.51c-16.9,19.81-39.61,36.3-50,60.87-10.26,24.16-4.83,51.17,5.65,74.26,1.43,3.16,3,6.26,4.59,9.33.79,1.48,4.62,6.68,3.86,8-.47.8-9.33-.6-10.49-.72-4.6-.47-9.18-1.13-13.71-2C96,410.85,82,405.59,70.08,397c-11.41-8.22-21-19.42-26.17-32.57-5.42-13.68-5.38-28.69-1.56-42.78,7.78-28.73,28.77-50.49,49.35-70.84,10.26-10.15,20.91-20.19,29.78-31.62,7.42-9.57,14-20.94,14.28-33.37.66-26.45-26.74-39.87-40-59-4.81-7-8.65-15.19-8.2-23.84.51-9.63,6.65-17,12.92-23.8a429.8,429.8,0,0,1,37-35.2c17.11-14.51,34-29.25,51.94-42.75l-.75-1c-19.88,15.47-41.86,36.62-41.42,63.85S170,111.3,185.46,131.29a204.44,204.44,0,0,1,15.69,23.43c5.09,8.86,10.17,18.18,11.07,28.53C212.29,184.05,213.54,184.05,213.47,183.25Z"/><path class="cls-2" d="M77.33,376.9a55.12,55.12,0,0,1,12.31,9.52c4.38,4.24,5.84,7.95,6,14,.21,11.94.38,23.89.58,35.83.1,6.43,10.1,6.45,10,0l-.35-21.3c-.11-6.95.41-14.28-.65-21.16-1.69-11-13.5-20.6-22.79-25.54-5.68-3-10.74,5.61-5,8.64Z"/></g></g></svg>