<svg xmlns="http://www.w3.org/2000/svg" viewBox="0 0 32.92 80.81"><defs><style>.cls-1{fill:#82c6d7;}.cls-2{fill:#38301f;}.cls-3{fill:#f26733;}.cls-4{fill:#eae3ca;}</style></defs><title>caps</title><g id="Layer_2" data-name="Layer 2"><g id="candle"><path class="cls-1" d="M10.3,71.09l9.25-2.75L22.1,77l-9.25,2.75C8.5,81.09,5.9,72.39,10.3,71.09Z"/><path class="cls-2" d="M10.5,71.94c3.1-.9,6.2-1.8,9.25-2.75-.35-.2-.7-.4-1.1-.6l2.55,8.7c.2-.35.4-.7.6-1.1-2.8.8-5.55,1.7-8.35,2.45-1.45.4-2.65.5-3.65-1s-1.6-4.9.7-5.75c1.05-.4.6-2.1-.45-1.7-4.5,1.65-3.4,9.3,1,10.45,1.65.45,3.6-.5,5.15-1l6.2-1.8a.88.88,0,0,0,.6-1.1l-2.55-8.7a.88.88,0,0,0-1.1-.6c-3.1.9-6.2,1.8-9.25,2.75A.85.85,0,1,0,10.5,71.94Z"/><path class="cls-3" d="M30.45,74.19,22,76.69l-2.35-8,8.45-2.5C32.05,65.09,34.4,73,30.45,74.19Z"/><path class="cls-2" d="M30.3,73.79c-2.8.85-5.65,1.65-8.45,2.5l.55.3c-.8-2.65-1.55-5.3-2.35-8-.1.2-.2.35-.3.55,2.55-.75,5.05-1.55,7.6-2.25,1.5-.4,2.7-.4,3.75,1,1.2,1.7,1.6,4.9-.8,5.8-.55.2-.3,1,.25.85,3.75-1.4,2.75-7.85-.9-8.8-1.4-.35-3.15.45-4.5.85L19.5,68.34a.43.43,0,0,0-.3.55c.8,2.65,1.55,5.3,2.35,8a.43.43,0,0,0,.55.3c2.8-.85,5.65-1.65,8.45-2.5C31.1,74.44,30.85,73.59,30.3,73.79Z"/><path class="cls-4" d="M10.9,74a.79.79,0,0,0,.25.85l8.65-2.55-.25-.85Z"/><path class="cls-2" d="M10.75,74c0,.6-.1.4.25.9a.15.15,0,0,0,.1,0l8.65-2.55c.05,0,.1-.1.1-.15-.1-.3-.15-.55-.25-.85,0,0-.1-.1-.15-.1L10.8,73.89c-.15,0-.1.25,0,.2l4.5-1.35,3-.9c.65-.2,1-.55,1.15,0s-.3.45-.95.6c-.95.3-1.9.55-2.85.85l-3.1.9c-.75.2-1.65.9-1.65-.25C11,73.89,10.75,73.89,10.75,74Z"/><path class="cls-4" d="M29.55,69.49a.79.79,0,0,0-.25-.85l-8.65,2.55.25.85Z"/><path class="cls-2" d="M29.65,69.49c0-.6.1-.4-.25-.9a.15.15,0,0,0-.1,0l-8.65,2.55s-.1.1-.1.15c.1.3.15.55.25.85,0,0,.1.1.15.1l8.65-2.55c.15,0,.1-.25-.05-.2l-4.5,1.35-3,.9c-.65.2-1,.55-1.15,0s.3-.45,1-.6c.95-.3,1.9-.55,2.85-.85l3.1-.9c.75-.2,1.65-.9,1.65.25C29.45,69.64,29.65,69.64,29.65,69.49Z"/><path class="cls-1" d="M6.85,1.14l8.5,4.6-4.35,8L2.5,9.14C-1.5,6.94,2.85-1.06,6.85,1.14Z"/><path class="cls-2" d="M6.4,1.89c2.85,1.55,5.65,3.1,8.5,4.6l-.3-1.2c-1.45,2.65-2.9,5.3-4.35,8l1.2-.3L4.05,8.94c-1.3-.7-2.35-1.35-2.2-3.1.15-2,2.2-5,4.55-3.95,1,.45,1.9-1,.9-1.5-4.35-2-9,4.2-6.65,8.1.9,1.45,3,2.2,4.4,3l5.55,3a.94.94,0,0,0,1.2-.3c1.45-2.65,2.9-5.3,4.35-8a.94.94,0,0,0-.3-1.2C13,3.44,10.2,1.89,7.35.39,6.3-.16,5.4,1.34,6.4,1.89Z"/><path class="cls-3" d="M18.9,17.59l-7.75-4.2L15.1,6.14l7.75,4.2C26.5,12.29,22.55,19.54,18.9,17.59Z"/><path class="cls-2" d="M19.1,17.19l-3.05-1.65c-1.2-.65-2.8-2-4.15-2.25-.15,0-.3-.2-.45-.25.3.15-.15.75.25.3a17.37,17.37,0,0,0,.9-1.65c.8-1.5,1.6-3,2.45-4.45a2.08,2.08,0,0,0,.35-.65c.1-.55.45.35-.45-.1.4.2.75.4,1.1.6,1.5.8,3,1.6,4.45,2.45,1.1.6,2.75,1.2,3.2,2.45.9,2.45-1.85,6.45-4.6,5.2-.5-.25-1,.55-.45.75,3.7,1.65,7.7-3.8,5.5-7-.8-1.2-2.6-1.8-3.8-2.45-1.7-.9-3.35-1.85-5.05-2.75a.46.46,0,0,0-.6.15c-1.3,2.4-2.65,4.85-3.95,7.25a.46.46,0,0,0,.15.6l7.75,4.2A.42.42,0,1,0,19.1,17.19Z"/><path class="cls-4" d="M5.05,3.59a.67.67,0,0,0-.4.75l8,4.3.4-.75Z"/><path class="cls-2" d="M5,3.49a.93.93,0,0,0-.45.85s0,.1,0,.1c2.65,1.45,5.3,2.9,8,4.3.05,0,.1,0,.15-.05.15-.25.25-.5.4-.75,0-.05,0-.1-.05-.15-2.65-1.45-5.3-2.9-7.95-4.3a.11.11,0,0,0-.1.2l4.1,2.25,2.75,1.5c.2.1.7.25.8.45.25.3.3-.15,0,.35s.05.25-.25.2A2.18,2.18,0,0,1,11.6,8c-.9-.5-1.8-1-2.7-1.45S7,5.54,6.05,5c-.6-.35-1.9-.6-1-1.35C5.2,3.54,5.05,3.39,5,3.49Z"/><path class="cls-4" d="M21.5,13.44a.67.67,0,0,0,.4-.75L14,8.39l-.4.75Z"/><path class="cls-2" d="M21.6,13.49a.93.93,0,0,0,.45-.85c0-.05,0-.1-.05-.1-2.65-1.45-5.3-2.9-7.95-4.3-.05-.05-.1,0-.15,0-.15.25-.25.5-.4.75-.05.05,0,.1.05.15,2.65,1.45,5.3,2.9,8,4.3a.11.11,0,0,0,.1-.2L17.5,11l-2.75-1.5c-.2-.1-.7-.25-.8-.45s-.3.15,0-.35,0-.25.25-.2a2.18,2.18,0,0,1,.75.4c.9.5,1.8,1,2.7,1.45s1.9,1,2.85,1.55c.6.35,1.9.6.95,1.35C21.3,13.44,21.45,13.59,21.6,13.49Z"/></g></g></svg>