<svg xmlns="http://www.w3.org/2000/svg" viewBox="0 0 1147.48 974.19"><defs><style>.cls-1{fill:#bfcbc8;}.cls-2{fill:#38301f;}.cls-3{fill:#eae3ca;}.cls-4{fill:#f26633;}</style></defs><title>cat</title><g id="Layer_2" data-name="Layer 2"><g id="cat_paw" data-name="cat paw"><path class="cls-1" d="M687.78,19.84c1.19-1.37,2.34-2.78,3.43-4.23C690.1,17,689,18.45,687.78,19.84Z"/><path class="cls-2" d="M691.31,23.37c1.47-1.69,2.86-3.45,4.22-5.24a4.94,4.94,0,0,0,.5-3.85,5.2,5.2,0,0,0-1.79-2.6c-1.77-1.37-5-1.57-6.56.39-1.12,1.44-2.27,2.84-3.44,4.23a5.37,5.37,0,0,0-1.46,3.54,5.06,5.06,0,0,0,1.46,3.53c1.86,1.71,5.27,2.14,7.07,0q1.76-2.07,3.44-4.23l-7.86-6.05c-.13.17-.25.34-.39.51l.2-.26-.81,1c-.54.66-1.09,1.32-1.65,2a5.32,5.32,0,0,0-1.46,3.54,5.06,5.06,0,0,0,1.46,3.53C686.12,25.1,689.49,25.49,691.31,23.37Z"/><path class="cls-1" d="M636.05,31c1.57-2.16,3.07-4.37,4.48-6.65Z"/><path class="cls-2" d="M640.36,33.57c1.57-2.17,3.08-4.38,4.49-6.65a5.06,5.06,0,0,0-1.8-6.85,5.13,5.13,0,0,0-6.84,1.8l-4.48,6.65a5,5,0,0,0,1.79,6.84,5.12,5.12,0,0,0,6.84-1.79c1.5-2.22,3-4.44,4.49-6.65l-8.64-5.05c-1.41,2.27-2.92,4.48-4.48,6.65s-.44,5.66,1.79,6.84A5.13,5.13,0,0,0,640.36,33.57Z"/><path class="cls-1" d="M711.24,22.64l-7.06,7.94A60.45,60.45,0,0,0,711.24,22.64Z"/><path class="cls-2" d="M707.7,19.1,700.65,27c-1.74,2-2.07,5.17,0,7.07a5.1,5.1,0,0,0,7.07,0,71.08,71.08,0,0,0,7.84-8.95c1.57-2.1.41-5.67-1.8-6.84-2.62-1.38-5.16-.45-6.84,1.8-.35.47-.57.75-1.11,1.41s-1.09,1.28-1.65,1.91c-1.12,1.25-2.3,2.44-3.51,3.6l7.07,7.07,7-7.94c1.74-2,2.07-5.17,0-7.07C712.88,17.36,709.56,17,707.7,19.1Z"/><path class="cls-1" d="M560.79,65.06a59.53,59.53,0,0,0,1-10.6C561.42,58,561.11,61.53,560.79,65.06Z"/><path class="cls-2" d="M565.61,66.39a72.35,72.35,0,0,0,1.13-11.93,5.07,5.07,0,0,0-5-5c-2.91,0-4.76,2.29-5,5-.32,3.53-.63,7.07-1,10.6-.24,2.69,2.47,5,5,5,2.91,0,4.76-2.3,5-5,.32-3.53.63-7.07,1-10.6h-10a56.48,56.48,0,0,1-.77,9.27c-.46,2.66.71,5.39,3.49,6.15C561.87,70.54,565.15,69.07,565.61,66.39Z"/><path class="cls-1" d="M745.16,37.21A112.23,112.23,0,0,0,780.27,18Q762.71,27.61,745.16,37.21Z"/><path class="cls-2" d="M746.49,42A123.13,123.13,0,0,0,783.8,21.55c4.57-3.65-1.25-10.47-6-7.85L742.63,32.89c-5.65,3.09-.61,11.72,5,8.63l35.11-19.19-6.06-7.85a109.46,109.46,0,0,1-32.9,17.91C737.77,34.46,740.37,44.12,746.49,42Z"/><path class="cls-1" d="M817.08,21.71q-4,6.09-8.48,11.8A45.91,45.91,0,0,0,817.08,21.71Z"/><path class="cls-2" d="M812.76,19.18c-2.41,3.7-5,7.32-7.7,10.79-1.67,2.12-2.07,5,0,7.07a5.06,5.06,0,0,0,7.07,0,52.4,52.4,0,0,0,9.26-12.81,5,5,0,1,0-8.63-5.05A43.5,43.5,0,0,1,805.06,30L812.13,37c3.27-4.14,6.38-8.39,9.26-12.81C824.92,18.83,816.27,13.81,812.76,19.18Z"/><path class="cls-1" d="M901.05,14.84q-2.34,7.4-4.66,14.78C900.6,25.64,902.86,20.46,901.05,14.84Z"/><path class="cls-2" d="M896.22,13.51q-2.33,7.4-4.66,14.79c-1.53,4.86,4.9,8.27,8.36,4.86,5.35-5.27,8.06-12.24,6-19.65-1.76-6.18-11.41-3.55-9.65,2.66,1.15,4-.51,7.1-3.37,9.92L901.21,31q2.32-7.39,4.66-14.78C907.81,10,898.15,7.38,896.22,13.51Z"/><path class="cls-1" d="M530.34,696.69a23.34,23.34,0,0,0,5.67,4.14Q533.12,698.85,530.34,696.69Z"/><path class="cls-2" d="M526.81,700.22a29.08,29.08,0,0,0,6.68,4.93c2.31,1.22,5.54.67,6.84-1.79a5.13,5.13,0,0,0-1.79-6.84c-.91-.62-1.8-1.26-2.69-1.9l-1.24-.92c-.15-.11-1.59-1.22-.73-.55a5.47,5.47,0,0,0-3.54-1.46,5.07,5.07,0,0,0-3.53,1.46c-1.65,1.79-2.21,5.36,0,7.07s4.4,3.36,6.68,4.93l5-8.63c-1-.52-1.9-1.14-2.84-1.75-.6-.38.62.53.08.07l-.6-.5c-.45-.38-.88-.78-1.3-1.19a5,5,0,0,0-7.07,7.07Z"/><path class="cls-1" d="M1000.77,439.71a32.41,32.41,0,0,0-5.89-4.26,26,26,0,0,0-.88,2.62A56.1,56.1,0,0,1,1000.77,439.71Z"/><path class="cls-2" d="M1004.31,436.17a40.61,40.61,0,0,0-6.91-5c-3-1.67-6.19,0-7.35,3-.33.86-.62,1.73-.87,2.62-.69,2.43.83,5.68,3.49,6.16a58.5,58.5,0,0,1,6.77,1.63,5.06,5.06,0,0,0,6.15-3.49,5.11,5.11,0,0,0-3.49-6.16,62.92,62.92,0,0,0-6.77-1.63l3.49,6.15c.25-.89.55-1.76.88-2.62l-7.35,3a29.77,29.77,0,0,1,2.79,1.76c1.28.89-.68-.59.55.41.52.42,1,.86,1.55,1.3,2,1.72,5.15,2.09,7.07,0C1006,441.36,1006.42,438,1004.31,436.17Z"/><path class="cls-1" d="M1025.91,455.4a57.63,57.63,0,0,0-25.14-15.69C1008.64,446.6,1016,456.7,1025.91,455.4Z"/><path class="cls-2" d="M1029.45,451.86a65.31,65.31,0,0,0-27.35-17c-4.68-1.5-8.57,5-4.86,8.36,8.22,7.37,16.38,18.16,28.67,17.16,6.37-.52,6.43-10.53,0-10-9,.73-15.57-8.83-21.6-14.23l-4.87,8.36a54.79,54.79,0,0,1,22.94,14.4C1026.84,463.59,1033.91,456.51,1029.45,451.86Z"/><path class="cls-1" d="M352.39,820.2c-1.45-1.36-2.87-2.74-4.29-4.14A54.13,54.13,0,0,0,352.39,820.2Z"/><path class="cls-2" d="M355.92,816.67c-1.44-1.36-2.87-2.75-4.28-4.15a5,5,0,0,0-7.07,7.07,57.79,57.79,0,0,0,4.28,4.15,5.32,5.32,0,0,0,3.54,1.46,5.06,5.06,0,0,0,3.53-1.46c1.73-1.88,2.12-5.25,0-7.07a57.79,57.79,0,0,1-4.28-4.15l-7.07,7.07c1.41,1.4,2.84,2.79,4.28,4.15a5,5,0,0,0,7.07-7.07Z"/><path class="cls-1" d="M177.82,947.56a253,253,0,0,0,.19-31A190.23,190.23,0,0,0,177.82,947.56Z"/><path class="cls-2" d="M182.82,947.56a269.93,269.93,0,0,0,.19-31c-.33-6.49-9.48-6.39-10,0a203.44,203.44,0,0,0-.19,31c.44,6.38,10.45,6.43,10,0a203.44,203.44,0,0,1,.19-31H173a269.93,269.93,0,0,1-.19,31C172.4,954,182.4,954,182.82,947.56Z"/><path class="cls-1" d="M453.77,707.65a41.41,41.41,0,0,0,1.92,6.91A41.14,41.14,0,0,0,453.77,707.65Z"/><path class="cls-2" d="M449,709a43.71,43.71,0,0,0,1.92,6.91c.91,2.44,3.43,4.38,6.15,3.49a5.14,5.14,0,0,0,3.5-6.15,46,46,0,0,0-1.92-6.91c-.89-2.45-3.44-4.37-6.16-3.5-2.41.79-4.44,3.52-3.49,6.16a43.42,43.42,0,0,1,1.92,6.91l9.65-2.66a41.41,41.41,0,0,1-1.92-6.91,5,5,0,0,0-6.16-3.5A5.14,5.14,0,0,0,449,709Z"/><path class="cls-1" d="M952,64.07q10.71-1.66,21.52-2.66A194.55,194.55,0,0,0,952,64.07Z"/><path class="cls-2" d="M953.32,68.89q10.06-1.55,20.19-2.48c6.32-.59,6.47-10.46,0-10a222.09,222.09,0,0,0-22.85,2.84c-6.32,1.1-3.64,10.74,2.66,9.64a198.7,198.7,0,0,1,20.19-2.48v-10Q962,57.49,950.66,59.25C944.32,60.21,947,69.85,953.32,68.89Z"/><path class="cls-1" d="M1084,203.18l58.61,30.41C1132.32,212.31,1107.1,200.33,1084,203.18Z"/><path class="cls-2" d="M1081.43,207.5,1140,237.91a5,5,0,0,0,6.84-6.85c-11.43-22.86-37.86-35.64-62.92-32.88-6.33.69-6.4,10.7,0,10,21.85-2.4,44.27,7.9,54.29,27.93l6.84-6.84-58.61-30.41C1080.78,195.9,1075.71,204.53,1081.43,207.5Z"/><path class="cls-1" d="M1075.54,198.81c0,2.07-.13,4.14-.31,6.2a51.9,51.9,0,0,1,8.73-1.83Z"/><path class="cls-2" d="M1070.54,198.81c0,2.07-.13,4.14-.31,6.2-.28,3.25,3.42,5.68,6.33,4.82a51.27,51.27,0,0,1,7.4-1.65c2.22-.29,4.18-1.36,4.82-3.67a5.07,5.07,0,0,0-2.3-5.65l-8.41-4.37a5.13,5.13,0,0,0-6.85,1.8,5.05,5.05,0,0,0,1.8,6.84l8.41,4.37,2.53-9.32a64.91,64.91,0,0,0-10.06,2l6.33,4.82c.18-2.06.29-4.13.31-6.2a5,5,0,1,0-10,0Z"/><path class="cls-1" d="M1100.94,221.09A117.16,117.16,0,0,1,1066.42,246,71.43,71.43,0,0,0,1100.94,221.09Z"/><path class="cls-2" d="M1097.41,217.56a117.37,117.37,0,0,1-33.51,24.16c-5.06,2.45-1.51,11,3.85,9.14a79,79,0,0,0,37.51-27.25c3.89-5.12-4.79-10.11-8.63-5a67.24,67.24,0,0,1-31.53,22.64l3.85,9.14a125.19,125.19,0,0,0,35.53-25.72C1109,220,1101.89,212.92,1097.41,217.56Z"/><path class="cls-3" d="M1055.62,324.5a61.22,61.22,0,0,1,34.81-47.08,60.38,60.38,0,0,0-29.36,3.12l15.43-.59a36.18,36.18,0,0,1-33-7.22,295.47,295.47,0,0,0,34.6-13.51c-10.59,1.75-21.81-.15-30.81-6.06a116.1,116.1,0,0,0,19.14-7.12,69.53,69.53,0,0,1-9.64,2.47,77.58,77.58,0,0,0,18.45-43.5,49.2,49.2,0,0,0-9.07,3.73c1.25-13,20.48-12.4,32.78-8s31.72,4.35,32.29-8.71c-13,3.95-26.54,7.95-39.84,5.4s-26-14-25-27.47a63.5,63.5,0,0,0,51.75-13,83.71,83.71,0,0,1-70.43,9.31,163.15,163.15,0,0,0,36-20.08,93.67,93.67,0,0,1-25.45,10.29l-11.67-13.64A136,136,0,0,0,1065.38,129a62.07,62.07,0,0,1-9.22,6.18c-16.16,8.78-39.31,7.64-49.81-7.45a180.27,180.27,0,0,1,36.48-23.91l-30.41,14.35-15.37-17.46c1-1,2-2,3.07-3-9.47.81-18.06-2.11-20.56-11l25-8.13a95.83,95.83,0,0,1-77.46-8.33A195.48,195.48,0,0,1,952,64.07q-15.06,2.33-29.87,6a31.94,31.94,0,0,1-6.35,3.53c-10.35,4.21-24.91-.14-27.19-11.08-1-4.77.49-9.68,2-14.33l5.85-18.56a30.62,30.62,0,0,1-19.29,7.82c-12.77.33-26.21-3.92-37.93,1.15a50.82,50.82,0,0,0,20.4-33.72c-9.38,28.07-38.57,48.18-68.13,47A153.29,153.29,0,0,0,808.6,33.51c-17.52,17.72-48.73,22-69.09,6.78l5.65-3.08A113.09,113.09,0,0,1,694,42.09l10.23-11.51A64.59,64.59,0,0,1,654.93,48a135.42,135.42,0,0,0,32.85-28.16A85.58,85.58,0,0,1,623.93,49l12.12-18A111.29,111.29,0,0,1,580.4,71.47l28.91-36.42a508,508,0,0,1-50.43,51.43q1-10.71,1.91-21.42c-5.43,30.58-33.93,56.42-65.32,56.94l12.3-27.88a119.79,119.79,0,0,1-26.72,38.82c-8.05,7.8-25.93,11-26.55-.16a56,56,0,0,1-31.39,14.88l-10-19.18L390,137.38l15.87-25c-14.6,21.24-30.44,43.51-54.12,53.68-7.67,3.3-15.86,5.16-23.81,7.7a196.65,196.65,0,0,0-25.53,10.37A302.78,302.78,0,0,0,217,245.45c-12.57,12.88-25,27.56-42.41,32.27-12.08,3.27-25.89,1.48-36.24,8.52-7.41,5-11.43,13.59-16.16,21.2-18.69,30-81.43,49.66-116.78,48.8V947.56c12.53,3,45.49,9,47.57,21.7a163.31,163.31,0,0,1,23.47-67.45l6.6,19.28,33.15-51.3a25.71,25.71,0,0,0,8.36,12.59l14-13.76,0,24.93A132.47,132.47,0,0,0,164.89,849,252,252,0,0,1,178,916.53,194,194,0,0,1,198.52,845q1.42,13.6,2.84,27.22l17.13-15.41A483.34,483.34,0,0,1,205,920.56a272.65,272.65,0,0,0,27.75-100.22q2,11.24,4,22.49,7.18-13.58,14.38-27.13l2.22,34.17q7.65-29.16,15.29-58.31a253.37,253.37,0,0,0,8.73,68.21l4.23-79.49a19.59,19.59,0,0,1,18.9,14.46q3.6-16.59,7.19-33.18a224.34,224.34,0,0,0,40.45,54.5c-17.76-19.12-21.3-50.56-7.33-72.79q2.91,8,5.83,16.1,4.17-10.57,8.33-21.13a60.82,60.82,0,0,1,14.6,21.68q3.44-23.25,6.85-46.49a157.44,157.44,0,0,0,13.53,74.09q1.8-40.18,3.61-80.38a73.39,73.39,0,0,1,13.87,25.39q1.26-10.51,2.53-21a104.93,104.93,0,0,1,38.53,27.14,75.66,75.66,0,0,1-20.95-57.31,44.61,44.61,0,0,1,26.27,26.32,43.38,43.38,0,0,1,9.37-35.78q12.53,17.61,25.07,35.21c-4.36-9.11-8.83-18.73-8.15-28.81s8.54-20.43,18.63-20a114.78,114.78,0,0,0,31.65,38.45c-6.09-6-9.09-15.2-7.11-23.57a25.51,25.51,0,0,1,23.84-19.06l25.47,30.86c-8.22-15.06,2.89-36.8,19.92-38.95q2.28,16.24,4.57,32.5c-4.84-27.33,24.18-54.66,51.17-48.2,2.47,16.85,24.59,27.21,39.12,18.33-19.16,5-38.68-18.89-29.92-36.66,41.47,26.54,100-31.55,142.38-6.51l.81-14.07a291.07,291.07,0,0,1,81.06-32.91c8.33-10.82,22-15.84,32.94-24s19.55-23.6,12.2-35.11l15.39,3.83a121.47,121.47,0,0,1,34.09-63.29c2.51-2.45,5.25-4.86,8.62-5.81a13,13,0,0,1,10,1.39c8-20.55,39.12-20,61.61-14.7L1035,402.43,1097.76,386a118,118,0,0,1-52.44-13.74l34-12.25-19.82-13.16,59.13-42.38A196.62,196.62,0,0,1,1055.62,324.5Z"/><path class="cls-2" d="M1060.44,325.83A57.28,57.28,0,0,1,1093,281.74c5-2.37,1.77-8.77-2.53-9.32a66.84,66.84,0,0,0-30.69,3.29c-5,1.78-4.61,10.05,1.33,9.83l15.43-.59-1.33-9.82A31.66,31.66,0,0,1,1047,269.2l-2.21,8.35a323,323,0,0,0,35.8-14c5.61-2.58,1.22-9.88-3.85-9.14a39.65,39.65,0,0,1-27-5.56l-1.19,9.14a135.71,135.71,0,0,0,20.34-7.63c5.14-2.39,1.51-10.84-3.85-9.14a82.73,82.73,0,0,1-9.65,2.47l4.86,8.36a85.28,85.28,0,0,0,19.92-47c.33-3.19-3.47-5.74-6.33-4.82a69,69,0,0,0-10.26,4.23l7.35,5.65c2.1-14.62,27.21-3.58,35.44-2.32,12.45,1.9,28.42-.58,29.8-15.7.3-3.22-3.43-5.7-6.33-4.82-12.67,3.85-27,8.57-40.23,4.66-9.8-2.9-18.62-11.14-18.23-21.91l-6.33,4.83a70,70,0,0,0,56.62-14.32c4.45-3.54-1.32-10.86-6.06-7.85a79.75,79.75,0,0,1-66.58,8.8v9.65a175.72,175.72,0,0,0,37.14-20.59c5.1-3.71.67-11.9-5-8.64a95.1,95.1,0,0,1-24.26,9.79l4.86,1.28-11.66-13.63-1,7.85a155.38,155.38,0,0,0,19.79-14.64c5-4.29-2.12-10.93-7.07-7.07-14,10.9-38.9,16.41-51.18-.25l-.78,6.06a182.31,182.31,0,0,1,35.47-23.13c5.79-2.9.72-11.36-5-8.64l-30.41,14.36,6.06.78-15.38-17.46v7.07c1-1,2-2,3.07-3,3-2.87.82-8.81-3.53-8.54-6.4.41-13.45-.41-15.74-7.35l-3.5,6.16,25-8.14c6.09-2,3.51-11.6-2.66-9.64a91.81,91.81,0,0,1-73.61-7.83L928.42,75a212.92,212.92,0,0,1,24.9-6.15c6.38-1.18,3.6-10.64-2.66-9.64a278.8,278.8,0,0,0-27.75,5.47c-6.66,1.76-11,6.39-18.51,5.23-6.14-1-11.42-4.87-11.12-11.55.2-4.43,2.06-8.84,3.38-13q2.26-7.22,4.55-14.44c1.59-5.05-4.83-8-8.36-4.86-15.24,13.39-37.36.77-55,7.68l3.86,9.14c12-9,20.31-21.77,22.69-36.71,1-6.28-7.48-8.84-9.64-2.66-9.15,26.23-35.67,44.07-63.31,43.29L795,55.37A164.32,164.32,0,0,0,812.13,37c3.94-4.91-2.36-11.69-7.07-7.07-16.6,16.27-43.86,19.76-63,6v8.63l5.65-3.09c4.91-2.68,1.59-10.9-3.85-9.13A113.22,113.22,0,0,1,694,37.09l3.54,8.53,10.23-11.51c4.27-4.8-2.31-11.45-7.07-7.07a60.69,60.69,0,0,1-45.72,16l2.53,9.32a145,145,0,0,0,33.85-28.95c4.15-4.84-2.77-11.91-7.07-7.07A81.57,81.57,0,0,1,623.93,44l4.32,7.52,12.11-18c3.65-5.42-4.89-10.13-8.63-5.05a107.34,107.34,0,0,1-52.66,38.13L583.94,75q14.44-18.23,28.9-36.43c3.92-4.94-2.84-12-7.07-7.07A520,520,0,0,1,555.34,83l8.54,3.53q1-10.71,1.91-21.42c.5-5.57-8.76-6.86-9.82-1.33-5.48,28.71-30.82,52.38-60.5,53.27l4.32,7.52,12.3-27.87-8.64-5.05a118.54,118.54,0,0,1-23.25,35.12c-3.6,3.72-7.3,6.5-12.4,7.77-2.11.52-7.91,1.7-8.3-1.71-.47-4.25-5.13-6.66-8.53-3.53a53.64,53.64,0,0,1-29.19,13.59l5.65,2.3-10-19.18a5,5,0,0,0-5.65-2.3l-23,8.9,5.64,7.34,15.86-25c3.48-5.5-5-10.3-8.63-5.05-9.26,13.45-18.73,27-30.94,38A78.62,78.62,0,0,1,350.85,161c-9,4.12-18.91,6-28.24,9.25-33,11.54-63.84,31.11-90.24,53.88-12.82,11-23.75,24-36.33,35.23-5.95,5.33-12.65,10.21-20.29,12.76-8,2.67-16.54,2.68-24.8,4.16-7.48,1.33-14.49,4.2-20,9.58s-9,12.54-13.11,19c-6.31,10-16.31,17.17-26.37,23-25.28,14.55-56.78,23.89-86.09,23.37a5.06,5.06,0,0,0-5,5V874.57c0,23.93-.92,48.06,0,72,0,.33,0,.67,0,1a5.07,5.07,0,0,0,3.67,4.82c8.42,2,16.9,3.75,25.16,6.38,5.75,1.83,17.41,4.85,18.91,11.82,1.29,6,9.2,3.84,9.83-1.32a161.16,161.16,0,0,1,22.79-64.93l-9.14-1.19,6.6,19.28a5.07,5.07,0,0,0,9.14,1.2q16.57-25.65,33.14-51.3l-9.13-1.2a32.78,32.78,0,0,0,9.65,14.8,5.11,5.11,0,0,0,7.07,0l14-13.77-8.54-3.53,0,24.93c0,4.12,5.6,6.86,8.54,3.53a143,143,0,0,0,27.55-46.73h-9.64A254.11,254.11,0,0,1,173,916.53c.39,6.49,9.41,6.36,10,0a192,192,0,0,1,19.83-69L193.52,845q1.42,13.6,2.84,27.22c.45,4.31,5.13,6.6,8.54,3.54L222,860.33l-8.35-4.87a499,499,0,0,1-13.53,63.77c-1.5,5.32,6.57,9,9.14,3.85a283.54,283.54,0,0,0,28.43-102.74l-9.83,1.33q2,11.24,4,22.48c.76,4.26,7.22,4.82,9.14,1.2l14.39-27.13-9.32-2.52,2.22,34.17c.35,5.43,8.33,7,9.82,1.33q7.65-29.16,15.29-58.31l-9.82-1.33a266.17,266.17,0,0,0,8.91,69.53c1.49,5.61,9.53,4.2,9.82-1.32l4.23-79.49-5,5a14.82,14.82,0,0,1,14.08,10.79c1.34,4.51,8.56,5,9.64,0l7.2-33.18-9.14,1.19a234.49,234.49,0,0,0,41.23,55.51c4.58,4.58,11.36-2.31,7.07-7.07-16.27-18-19.17-45.94-6.55-66.73L336,744.6l5.83,16.09c1.75,4.84,7.82,4.63,9.64,0l8.33-21.12-8.36,2.2a58.59,58.59,0,0,1,13.32,19.48c1.61,3.9,8.83,5.52,9.64,0q3.43-23.25,6.86-46.49l-9.83-1.33a166.13,166.13,0,0,0,14.21,76.62c2.15,4.85,9.12,2,9.32-2.53q1.8-40.18,3.61-80.38L390,710.68a71,71,0,0,1,12.58,23.18c1.83,5.65,9.16,4.12,9.82-1.33q1.26-10.51,2.53-21l-6.32,4.82a102.69,102.69,0,0,1,36.31,25.85L452,735.1a71.72,71.72,0,0,1-19.49-53.77l-6.33,4.82A40,40,0,0,1,449,709a5,5,0,0,0,9.65-2.66,38.8,38.8,0,0,1,8.07-30.91l-7.85-1,25.07,35.2a5,5,0,0,0,8.64-5c-3.93-8.23-8.69-17.71-7.35-27.14,1-6.94,6-14.08,13.51-14.18l-4.31-2.48a121.35,121.35,0,0,0,32.43,39.46c4.93,3.91,11.61-2.28,7.07-7.07-11.92-12.58-4.64-33.29,13.19-34.09l-3.53-1.47L569,688.46c3.78,4.58,10.28-1.26,7.85-6.06-6.57-13,3-29.41,16.93-31.61l-6.15-3.49q2.28,16.25,4.57,32.49l9.64-2.65c-3.7-24,21.52-47.13,45-42l-3.49-3.5c3.64,20.33,28.78,31.39,46.47,21.32,5-2.87,1.58-10.37-3.86-9.13-15.08,3.42-30.76-15-24.27-29.32l-6.84,1.8c21.91,13.57,47.81,6.37,70.59-.87,22.33-7.11,49.42-18.41,71.78-5.64a5.06,5.06,0,0,0,7.53-4.32l.81-14.07-2.47,4.32a288.27,288.27,0,0,1,46.65-22.34q11.51-4.26,23.32-7.52c3.27-.91,8.21-1.26,11.08-3.05s4.92-5.29,7.49-7.41c10.63-8.81,24.44-13.29,33.5-24.06,8.13-9.67,12.69-22.84,6-34.5l-5.65,7.35L940.85,508c2.48.62,5.6-.78,6.15-3.49a119.31,119.31,0,0,1,14.93-38.57,113,113,0,0,1,12.21-16.57c4.58-5.15,10.53-13.27,18.21-9.58,3.19,1.53,6,.13,7.35-3,8.13-19.43,39.57-14.86,55.46-11.2,4.51,1,8.9-4.92,4.87-8.36l-21.54-18.32-2.21,8.36,62.81-16.42c5.55-1.45,4.24-9.65-1.33-9.82A115.49,115.49,0,0,1,1047.84,368l-1.19,9.14,34-12.25a5.07,5.07,0,0,0,1.2-9.14L1062,342.55v8.64l59.14-42.38c5.18-3.71.77-11.6-5.05-8.63a197.85,197.85,0,0,1-61.81,19.5c-6.34.92-3.64,10.55,2.66,9.64a205.73,205.73,0,0,0,64.2-20.51l-5.05-8.63L1057,342.55c-3.11,2.23-3.31,6.44,0,8.64l19.81,13.16,1.2-9.14-34,12.25c-3.77,1.36-5.28,7-1.2,9.14a127.23,127.23,0,0,0,55,14.42l-1.33-9.83-62.8,16.42c-3.44.9-5.12,5.89-2.21,8.36L1053,424.29l4.87-8.36c-22.59-5.19-56.94-7.66-67.77,18.19l7.35-3c-17.25-8.29-30.13,9.62-39.08,22.13a126.69,126.69,0,0,0-21,48.57l6.15-3.49-15.39-3.84a5.07,5.07,0,0,0-5.65,7.35c7.77,13.44-7.32,26.71-17.53,33-5.83,3.61-11.87,6.89-17.36,11a85.21,85.21,0,0,0-7.28,6.4c-2.92,2.76-7,3-10.85,4.13a297.46,297.46,0,0,0-46.13,17.21q-11.1,5.19-21.73,11.32c-3.11,1.79-5.32,2.71-6,6.38-.82,4.46-.55,9.54-.81,14.07l7.52-4.32c-22.47-12.83-48.31-5.34-71.28,2-22.22,7.1-49.18,18.08-71.09,4.51-2.12-1.31-5.75-.63-6.84,1.8-10.09,22.31,11.39,49.48,35.56,44l-3.85-9.14c-12.49,7.11-29.3-1.5-31.78-15.34a4.87,4.87,0,0,0-3.49-3.5c-31.5-6.8-62.2,22.74-57.32,54.35,1,6.38,10.52,3.62,9.64-2.65q-2.28-16.26-4.57-32.5c-.41-2.88-3.78-3.87-6.15-3.5-20.67,3.29-32.12,28.08-22.91,46.31l7.86-6.06q-11.69-14.14-23.35-28.3c-3.34-4-5.76-4.44-10.86-3.46a29.65,29.65,0,0,0-11.79,5.2c-15.25,11.09-15.94,32-3.27,45.39l7.07-7.07A114.61,114.61,0,0,1,503,655.71a4.94,4.94,0,0,0-4.32-2.47c-11,.14-19.32,8.3-22.45,18.45-4,13,2.14,26.37,7.65,37.91l8.64-5-25.08-35.21c-1.68-2.37-5.63-3.71-7.85-1A49.8,49.8,0,0,0,449,709l9.65-2.66a51.1,51.1,0,0,0-29.77-29.82c-3.22-1.23-6.16,1.88-6.33,4.83a81.73,81.73,0,0,0,22.41,60.84c4.45,4.69,11.39-2.33,7.08-7.07a113.76,113.76,0,0,0-40.74-28.42c-3.34-1.39-6,2-6.33,4.82q-1.26,10.51-2.53,21l9.82-1.33a84.12,84.12,0,0,0-15.15-27.59c-2.94-3.59-8.36-.42-8.54,3.53q-1.8,40.18-3.61,80.38l9.32-2.52a155.25,155.25,0,0,1-12.85-71.57c.31-5.53-9-7-9.82-1.33q-3.42,23.24-6.85,46.49h9.64a70.41,70.41,0,0,0-15.89-23.89c-2.89-2.85-7-1.21-8.35,2.21q-4.17,10.56-8.33,21.13h9.64q-2.91-8.06-5.83-16.1c-1.44-4-6.79-5.06-9.14-1.2-15,24.74-11.11,57.54,8.12,78.85l7.07-7.07A225.29,225.29,0,0,1,312,759c-2-3.69-8.23-3-9.14,1.2q-3.6,16.59-7.19,33.18h9.64a25.06,25.06,0,0,0-23.72-18.13,5.09,5.09,0,0,0-5,5l-4.23,79.49,9.82-1.33a255.06,255.06,0,0,1-8.55-66.88c0-5.61-8.38-6.83-9.82-1.33l-15.29,58.31,9.82,1.33-2.22-34.17c-.3-4.65-6.85-7.19-9.32-2.53q-7.19,13.58-14.38,27.13l9.14,1.2q-2-11.25-4-22.49c-1.05-5.89-9.4-3.93-9.82,1.33A270.36,270.36,0,0,1,200.64,918l9.14,3.86a499,499,0,0,0,13.53-63.77c.69-4.82-4.39-8.44-8.36-4.86l-17.13,15.41,8.54,3.53q-1.43-13.61-2.84-27.22c-.46-4.47-6.85-7.39-9.31-2.53A205.1,205.1,0,0,0,173,916.53h10a264.25,264.25,0,0,0-13.3-68.83,5,5,0,0,0-9.64,0,130,130,0,0,1-25,42.31l8.53,3.54,0-24.93a5.05,5.05,0,0,0-8.53-3.54l-14,13.77h7.07A22.71,22.71,0,0,1,121,868.47a5.07,5.07,0,0,0-9.14-1.2q-16.57,25.65-33.14,51.3l9.13,1.19q-3.28-9.63-6.59-19.28a5.07,5.07,0,0,0-9.14-1.19,172.73,172.73,0,0,0-24.16,70l9.82-1.33c-2-9.46-12.78-14.06-20.87-17.09-9.79-3.66-20.06-5.68-30.19-8.1l3.67,4.82V365.23c0-2.53.42-5.47,0-8a5.79,5.79,0,0,1,0-1l-5,5c26.75.48,54.35-7.17,78.51-18.26,11.89-5.45,23.49-12.27,33-21.37a66.25,66.25,0,0,0,10.92-13.81c4.28-7.12,8.29-15.19,16.1-19,7.63-3.75,16.71-3.58,25-4.82a57.14,57.14,0,0,0,22.26-8.26c14-8.88,24.42-22.13,36.23-33.49,26.52-25.51,58.47-47.22,92.93-60.47,10.12-3.89,20.8-6.09,30.89-10.07a86.28,86.28,0,0,0,23.23-13.93c14.43-11.9,25.27-27.56,35.79-42.84l-8.63-5.05q-7.94,12.5-15.86,25c-2.2,3.47,1.52,8.94,5.64,7.34l23-8.9L408.75,131l10.05,19.18c1.12,2.14,3.49,2.6,5.64,2.29A62.51,62.51,0,0,0,458,136.32l-8.54-3.54c1.7,15.09,18.92,13.79,29.17,8.05,7.36-4.12,13-11.51,18.07-18.09a125.52,125.52,0,0,0,15.35-26.09c2.55-5.84-6-10.94-8.64-5.05l-12.29,27.88c-1.44,3.26.17,7.64,4.31,7.52,33.86-1,63.82-27.49,70.14-60.61l-9.82-1.33q-1,10.71-1.91,21.42c-.41,4.64,5.58,6.16,8.54,3.54a521,521,0,0,0,50.42-51.44l-7.07-7.07-28.9,36.42c-2.81,3.54-.38,10.09,4.86,8.36a118.83,118.83,0,0,0,58.63-42.72l-8.63-5.05-12.12,18c-2.14,3.19.71,7.56,4.32,7.53a91.44,91.44,0,0,0,67.38-30.65l-7.07-7.07a136.18,136.18,0,0,1-31.83,27.38c-4.38,2.72-2.34,9,2.52,9.32a70.64,70.64,0,0,0,52.79-18.89L700.65,27,690.42,38.55c-3.11,3.5-.73,8,3.53,8.54A120,120,0,0,0,746.49,42l-3.86-9.14L737,36c-3.55,1.94-2.9,6.55,0,8.63C759.75,61,792.58,56.2,812.13,37L805.06,30A165.26,165.26,0,0,1,787.9,48.3c-3.31,3-.61,8.42,3.54,8.53,32.26.91,62.36-20.28,72.95-50.63l-9.64-2.66a47.11,47.11,0,0,1-18.1,30.74c-4.1,3-1.91,11.39,3.85,9.14,10.63-4.17,21.74-1.35,32.75-1a37.55,37.55,0,0,0,26.67-9.26l-8.36-4.86c-3.19,10.12-9.12,22-8.17,32.82.7,7.93,6,14,13.21,16.94a28.22,28.22,0,0,0,21.69-.16c2.48-1.06,4.72-2.69,7.28-3.54a79,79,0,0,1,8.49-1.92c6.39-1.37,12.81-2.53,19.26-3.55l-2.66-9.64a210.94,210.94,0,0,0-24.9,6.15c-4,1.26-5,6.94-1.2,9.14a101.88,101.88,0,0,0,81.32,8.83l-2.66-9.64-25,8.13c-2.47.81-4.38,3.49-3.5,6.15,3.74,11.31,14.15,15.41,25.39,14.69l-3.54-8.53c-1.05,1-2.07,2-3.07,3a5.11,5.11,0,0,0,0,7.07l15.38,17.46c1.55,1.76,4.12,1.69,6.06.78l30.4-14.35-5-8.64a193.85,193.85,0,0,0-37.5,24.69,5,5,0,0,0-.78,6.06c7.36,10,18.51,15.08,30.83,15.43,13.57.39,25.53-4.94,36.05-13.15l-7.07-7.07a140.36,140.36,0,0,1-17.77,13.08,5.07,5.07,0,0,0-1,7.85L1054.72,160a5,5,0,0,0,4.87,1.29,105.22,105.22,0,0,0,26.64-10.79l-5-8.64a165.43,165.43,0,0,1-34.76,19.58c-4.41,1.8-5.06,8.07,0,9.65a89.6,89.6,0,0,0,74.28-9.82l-6-7.85a59,59,0,0,1-46.89,11.74c-3.25-.58-6.2,1.36-6.33,4.82-.49,13.69,9.26,24.88,21.39,30,16,6.77,33.91,1.69,49.73-3.12l-6.33-4.82c-.58,6.43-9.7,6.54-14.47,6.28-6.71-.37-12.7-3.26-19.24-4.46-11.53-2.12-29-1.17-31.18,13.54-.62,4.29,3.19,7.76,7.35,5.64a52.84,52.84,0,0,1,7.87-3.22l-6.33-4.82a73.57,73.57,0,0,1-17,40,5,5,0,0,0,4.87,8.36,86.21,86.21,0,0,0,9.64-2.47l-3.85-9.14a120.29,120.29,0,0,1-18,6.62,5.06,5.06,0,0,0-1.19,9.14c10.57,6.57,22.47,8.32,34.66,6.56l-3.85-9.14a302.91,302.91,0,0,1-33.4,13c-3.26,1-5.3,5.83-2.21,8.36a42.24,42.24,0,0,0,37.86,8.51c5.39-1.4,4.38-10-1.32-9.83l-15.43.59,1.33,9.82a60.15,60.15,0,0,1,28-2.94l-2.52-9.31a66.34,66.34,0,0,0-37.11,50.06C1049.9,329.47,1059.53,332.19,1060.44,325.83Z"/><path class="cls-1" d="M1102.52,246.51q-11.91,6.93-24.43,12.71A42.93,42.93,0,0,0,1102.52,246.51Z"/><path class="cls-2" d="M1100,242.19q-11.92,6.9-24.42,12.71c-5.46,2.56-1.35,10.09,3.85,9.14a49,49,0,0,0,26.63-14c4.48-4.62-2.58-11.7-7.07-7.07-6.11,6.3-13.64,9.86-22.21,11.43l3.85,9.14q12.48-5.84,24.42-12.72C1110.61,247.6,1105.58,239,1100,242.19Z"/><path class="cls-1" d="M1117.5,112.81a163.92,163.92,0,0,1-33.79,33.37A95.34,95.34,0,0,0,1117.5,112.81Z"/><path class="cls-2" d="M1113.18,110.29a160.83,160.83,0,0,1-32,31.57c-5,3.75-.63,12,5,8.64a103.11,103.11,0,0,0,35.59-35.17c3.34-5.52-5.3-10.55-8.64-5a92.42,92.42,0,0,1-32,31.57l5,8.64a177.3,177.3,0,0,0,35.59-35.17C1125.71,110.21,1117,105.22,1113.18,110.29Z"/><path class="cls-1" d="M1078.22,116.12a136.53,136.53,0,0,0,15.09-21A246,246,0,0,1,1078.22,116.12Z"/><path class="cls-2" d="M1081.75,119.66a151.77,151.77,0,0,0,15.88-22c3.3-5.59-5.1-10.36-8.64-5.05-4.54,6.82-9.11,13.62-14.31,20-4,4.94,3,12,7.07,7.07,5.74-7,10.86-14.44,15.88-22L1089,92.63a137.22,137.22,0,0,1-14.31,20C1070.49,117.44,1077.53,124.54,1081.75,119.66Z"/><path class="cls-1" d="M1043.24,75.82a89.63,89.63,0,0,0-43.12,21.88,46.06,46.06,0,0,0,21.84-8C1028.56,85,1035.82,79.4,1043.24,75.82Z"/><path class="cls-2" d="M1041.91,71a96.69,96.69,0,0,0-45.33,23.18c-3,2.74-.81,9,3.54,8.53a52.23,52.23,0,0,0,23-7.81c7.6-4.92,14.47-10.67,22.62-14.76,5.75-2.89.69-11.52-5-8.63-13.79,6.92-24.58,19.48-40.6,21.2l3.53,8.54a86.65,86.65,0,0,1,40.92-20.6C1050.87,79.32,1048.2,69.68,1041.91,71Z"/><path class="cls-1" d="M1078.22,116.12A137.92,137.92,0,0,1,1065.38,129,90.22,90.22,0,0,0,1078.22,116.12Z"/><path class="cls-2" d="M1074.68,112.59a145.52,145.52,0,0,1-12.84,12.85c-2,1.79-1.82,5.25,0,7.07,2.08,2.08,5,1.71,7.07,0a93.93,93.93,0,0,0,12.84-12.85c1.73-2.07,2-5,0-7.07-1.78-1.78-5.33-2.08-7.07,0a93.93,93.93,0,0,1-12.84,12.85l7.07,7.07a144.18,144.18,0,0,0,12.84-12.85C1086,114.85,1078.94,107.75,1074.68,112.59Z"/><path class="cls-1" d="M1066.73,74.34c-7.63-3.91-15.65-2.31-23.49,1.48A86.13,86.13,0,0,1,1066.73,74.34Z"/><path class="cls-2" d="M1069.25,70c-9.74-4.51-19.06-2.91-28.53,1.48-5.45,2.52-1.36,10.12,3.85,9.14a87.57,87.57,0,0,1,22.16-1.3c6.43.41,6.4-9.59,0-10A98.89,98.89,0,0,0,1041.91,71l3.86,9.14c5.88-2.72,12.28-4.32,18.44-1.47C1070,81.34,1075.09,72.72,1069.25,70Z"/><path class="cls-1" d="M939.31,50.46,913.6,72.27c2.83-.78,5.67-1.51,8.52-2.21C929.11,65.11,934.39,57.65,939.31,50.46Z"/><path class="cls-2" d="M935.77,46.92,910.06,68.73c-3.94,3.34.3,9.59,4.87,8.36,3.06-.83,6.9-1.22,9.72-2.72,2.64-1.4,5-4,7.1-6.07,4.51-4.62,8.23-10,11.87-15.32s-5-10.32-8.63-5A107.41,107.41,0,0,1,925.8,60a30.17,30.17,0,0,1-4.67,4.51c-2.46,1.73-6,2.12-8.86,2.9l4.86,8.35L942.84,54C947.76,49.83,940.65,42.78,935.77,46.92Z"/><path class="cls-1" d="M1042.83,103.8l6.13-2.89C1046.89,101.83,1044.85,102.8,1042.83,103.8Z"/><path class="cls-2" d="M1045.35,108.12l6.13-2.89c2.37-1.12,3.17-4.71,1.79-6.84-1.59-2.48-4.28-3-6.84-1.8-2.06.93-4.1,1.9-6.12,2.89a5,5,0,0,0-1.8,6.85,5.13,5.13,0,0,0,6.84,1.79c2-1,4.07-2,6.13-2.89l-5-8.64-6.12,2.89c-2.38,1.12-3.17,4.71-1.8,6.85A5.13,5.13,0,0,0,1045.35,108.12Z"/><path class="cls-4" d="M776.17,138.36c-4.62-6.44-13.07-8.83-21-9.61-32.43-3.22-64,13.21-96.56,12.84-11-.13-23.79-1.52-31.22,6.58C623,153,621.89,160,621.26,166.58a251.22,251.22,0,0,0-.19,45.23l1.62.94c7.93,7.81,12,18.63,18.22,27.85s16.54,17.48,27.47,15.36c4.19-.81,7.94-3.07,11.59-5.3,35.3-21.5,72-44.42,92.87-80.11C778.61,160.68,782.82,147.65,776.17,138.36Z"/><path class="cls-2" d="M777.94,136.59c-9.45-12-28.38-11.56-42.09-10.21-17.43,1.72-34.24,6.85-51.39,10.09a133.62,133.62,0,0,1-26.53,2.6c-7-.09-14.2-.64-21.09,1.06-15.87,3.93-17.69,19.37-18.63,33.32A250.65,250.65,0,0,0,618,203c.14,2.9-.58,7.95,1.14,10.36.47.66,1.28.85,1.89,1.34a26.66,26.66,0,0,1,4.62,5.37c8.76,12.17,13.39,27.74,27.3,35.42,14.58,8.06,27.05-1.79,39.34-9.4a443.35,443.35,0,0,0,38.8-26.37c13.85-10.75,26.65-22.91,37-37.15,8.9-12.31,20-30.59,10.32-45.44-1.76-2.69-6.09-.18-4.32,2.52,9.08,13.92-3.81,31.89-12.21,42.95-9.06,11.92-20,22.29-31.74,31.59-12.12,9.64-25.12,18.13-38.25,26.3-6.42,4-12.9,8.76-19.86,11.73-8.33,3.55-16.5.2-22.77-5.68s-10-13.6-14.19-20.93c-3.2-5.59-6.93-12.59-12.66-15.93l1.24,2.16a259.49,259.49,0,0,1-.8-29.51c.28-8.73,0-18.8,3.26-27.06,3.48-8.89,12.11-11,20.79-11.29,8.41-.24,16.71.36,25.11-.56,17.43-1.9,34.25-7,51.45-10.2a121.34,121.34,0,0,1,27.42-2.26c8.68.41,17.94,2,23.6,9.2C776.38,142.66,779.9,139.1,777.94,136.59Z"/><path class="cls-4" d="M968.5,182.11c-5.47-5.18-27.2-15.09-34.89-15.24-24.34-.48-42.46-1.32-64.2,9.18-21.21,10.25-25.74,24.9-41.28,42.13l-10,21.39c-4.29,11.59-8.45,25-2,35.62,5.43,8.9,17.16,12.87,27.89,12.08s20.68-5.48,30.07-10.51c28-15,52.79-24,77.83-43.17,6.87-5.27,17.57-14.24,21.52-21.77S974.76,188,968.5,182.11Z"/><path class="cls-2" d="M970.27,180.34c-4.25-3.81-9.65-6.42-14.78-8.82a86.9,86.9,0,0,0-17.28-6.47c-7.48-1.71-15.85-1-23.47-.91a129.31,129.31,0,0,0-24.84,2.3c-16.1,3.29-31.51,10.79-42.45,23.23-4.86,5.53-9,11.64-13.43,17.47-3.36,4.4-7.26,8.1-9.6,13.12-9.16,19.62-26.57,52.58.57,65.92,15.63,7.67,32.81,1.85,47.28-5.6,17.06-8.79,34.54-16.86,51.43-26,17.18-9.26,35.8-20.6,48.2-36,8.47-10.53,8-28.3-1.63-38.24-2.25-2.31-5.78,1.23-3.54,3.54,4.34,4.46,5.93,11.54,6.11,17.58.2,7.11-2.66,11.88-7.44,17C954.54,230,940.85,239.16,927.13,247c-14.19,8.09-29.1,14.8-43.68,22.14-14.84,7.48-31.08,18.59-48.56,15.12-7-1.4-14-5.11-17.32-11.72-4-7.9-2-17.31.58-25.32s6.38-15.42,9.92-23a39.57,39.57,0,0,1,6.09-9.23c4.33-5.29,8.22-10.91,12.38-16.32a70.72,70.72,0,0,1,36.22-25.23c16-5,34.53-5.43,51.19-4,5.91.49,11.93,3.25,17.26,5.64s11.17,4.94,15.52,8.85C969.12,186,972.67,182.5,970.27,180.34Z"/><path class="cls-4" d="M980.61,298.8c-7.46-6.38-18.75-4-28.17-1.25-33.49,9.89-89.83,36.15-89.83,36.15a60.59,60.59,0,0,0-22.55,37.12c-1.56,8.77-.86,18.6,4.89,25.42a41.12,41.12,0,0,0,8.33,6.91l39.12,27c2.37,1.65,5,3.36,7.87,3.25,3.24-.13,5.89-2.51,8.22-4.77a487.93,487.93,0,0,0,62.8-74.77c7.71-11.3,15.16-23.63,15.69-37.29C987.23,310.08,985.57,303,980.61,298.8Z"/><path class="cls-2" d="M982.38,297c-11.45-8.92-26.7-3.35-39,.76-13.13,4.38-26,9.5-38.79,14.8q-16.49,6.84-32.75,14.17c-6.55,2.94-11.55,5.05-16.73,10.21-10.42,10.38-17.56,25-18.21,39.8-.3,6.9,1,14.16,5.2,19.81,4.87,6.61,13.08,10.89,19.71,15.47l26.08,18c5.63,3.89,11.42,8.18,18.11,3.9,6.9-4.42,12.67-11.84,18.27-17.74Q933.9,406,943,395.31c13.15-15.59,26.12-32,36.57-49.57,8.08-13.58,16.59-35.73,2.86-48.7-2.34-2.21-5.88,1.31-3.54,3.53,12.37,11.69,2.66,32.39-4.53,44.12-8.46,13.79-18.39,26.85-28.55,39.41s-20.74,24.38-32,35.77c-2.65,2.69-5.26,5.49-8.09,8-4.24,3.75-7.5,3.21-12,.16-7.13-4.78-14.13-9.76-21.19-14.64s-14.59-9.61-21.45-14.93c-6.27-4.85-9.09-11.56-9.17-19.41-.14-14.25,6.82-28.58,16.78-38.53,4.37-4.37,8.34-6.09,13.85-8.58q13-5.87,26.11-11.44c12.63-5.36,25.37-10.52,38.29-15.16,5.6-2,11.23-3.93,16.94-5.57,7.92-2.29,17.88-4.75,25,.81C981.35,302.52,984.92,299,982.38,297Z"/><path class="cls-4" d="M747.34,525.48a4.28,4.28,0,0,1-6.07,2.28,175.09,175.09,0,0,1,86.08-62.35c8.25-2.69,16.88-4.79,25.52-4.11s17.39,4.48,22.36,11.59c8.62,12.32,3.3,29.71-5.57,41.85-15.52,21.25-40.4,34.39-66.19,39.58-11.73,2.37-24.1,3.19-35.5-.42S746.26,541.59,743.21,530"/><path class="cls-2" d="M745.18,524.22c-.67,1.44-1.56,1.9-2.65,1.38l.9,3.42a172.83,172.83,0,0,1,47.85-44,169.82,169.82,0,0,1,29.25-14.51c11.3-4.29,24.06-8.61,36.25-6.11,11.45,2.36,20.19,10.82,20.31,22.89.11,10.85-5.34,21.17-12,29.39-13.48,16.55-32.83,27.44-53.2,33.11-22.53,6.27-58,7.82-66.24-20.4-.89-3.08-5.72-1.77-4.82,1.33,7.28,25,35.49,30.48,58,27,23.91-3.68,47.63-14.31,64.64-31.77,14.15-14.51,28.82-42.6,9.45-59.26-19.73-17-50.38-3.71-70.29,6.26a179.18,179.18,0,0,0-63.51,53.58,2.5,2.5,0,0,0,.9,3.42c3.68,1.6,7.67.63,9.49-3.17,1.38-2.89-2.93-5.43-4.32-2.52Z"/><path class="cls-4" d="M714.71,326c-.2-11.49,9.1-22.85,4.88-33.54-3-7.6-11.69-11.2-19.74-12.54a68.68,68.68,0,0,0-42.29,6.63c-8.11,4.17-16.23,10.17-25.29,9.12-13.56-1.58-19.86-17.11-29.11-27.16-11-12-28.39-16.81-44.61-15.29s-31.44,8.72-45,17.69c-17.17,11.34-33.06,26.9-37.75,46.93s5.9,44.46,26,49.05c9.39,2.15,19.6-.09,28.58,3.37,2.47,1,4.91,2.46,6,4.86.92,2,.82,4.23.69,6.4-1.23,20.55-2,44.24,13.25,58.1,4,3.67,9.12,6.51,11.69,11.34a13.9,13.9,0,0,1-17.67,19.33l-3.21.22c8.15,4.39,9.85,15.49,8.34,24.63s-5.24,18.15-4.16,27.35c1.82,15.66,17.61,26.82,33.3,28.32s31.1-4.47,45.33-11.24A368.57,368.57,0,0,0,667.65,515c6.54-4.3,13.14-9,17.21-15.7,6.43-10.58,5.34-23.84,5.68-36.21s3.5-26.46,14.39-32.34c7.19-3.88,16.08-3.14,23.55-6.45,11.2-5,16.58-17.55,20.62-29.11,1.39-4,2.76-8.05,2.82-12.26C752.25,359.49,715.11,349.45,714.71,326Z"/><path class="cls-2" d="M717.21,326c.17-9.65,6.23-18.22,6-27.91-.2-7.64-4.83-13.68-11.51-17.05-16.72-8.44-39.33-4.84-55.37,3.35-8.78,4.48-18.58,12.12-28.81,7.35-8-3.73-12.77-12.53-17.88-19.28-10.72-14.16-26.42-21.69-44.17-22-20.45-.35-40,9-56.39,20.47-14.52,10.16-27.89,23.35-34,40.37-5.26,14.75-3.25,31.94,6.21,44.6A35.49,35.49,0,0,0,498,368.45c9.72,3.35,20.3.64,30,3.7,3.9,1.23,6.53,3.35,6.55,7.76,0,2.48-.28,5-.4,7.45-.24,5.18-.37,10.37-.16,15.55.37,9.2,1.77,18.55,5.85,26.9a38.59,38.59,0,0,0,8.1,11.11c3.87,3.67,9.29,6.44,11.81,11.33a11.5,11.5,0,0,1-6.45,16c-4.13,1.37-8.07-.47-12.27-.19a2.52,2.52,0,0,0-1.27,4.66c16,9.57,2.47,33.33,2.77,47.07.31,13.54,9.87,24.47,21.85,29.81,15,6.71,31.78,3.9,46.68-1.74,16.87-6.4,33-15.3,48.38-24.72,13-8,27.25-16.23,31.44-31.94,4-15.08-.42-31.29,5.27-46.05,3.21-8.31,9.2-13,17.85-14.81,7.3-1.54,14.57-2.26,20.72-6.87,5.54-4.15,9.37-10.11,12.26-16.31,3.15-6.75,6.36-14.34,7.21-21.77,1.39-12.13-6.8-21.53-15.1-29.23-8.83-8.2-21.38-16.88-21.92-30.11-.13-3.2-5.13-3.22-5,0,.92,22.32,26.48,29.78,35.16,47.88,3.15,6.56,1.9,13.07-.38,19.74-2.34,6.82-5,13.75-9.24,19.63-5.09,7-11.89,9.83-20.19,11.32-6.6,1.18-13.09,2.48-18.25,7-9.85,8.73-11.2,23.16-11.34,35.48-.1,7.84.11,15.88-2.08,23.48-2.48,8.58-8.46,14.56-15.59,19.57a325.59,325.59,0,0,1-45.16,26.05c-15.73,7.63-34.33,15.66-52.13,11.1-7.77-2-15.17-6.31-20.1-12.73-6.22-8.1-5.93-17.37-3.73-26.93,3-13,7.18-30.88-6.85-39.28L541.07,473c3-.21,5.68.87,8.75.81a16.91,16.91,0,0,0,9.76-3.33A16.6,16.6,0,0,0,564.7,451c-3.5-8.16-12.84-11.77-17.76-19s-6.93-16.1-7.64-24.71c-.74-8.9,0-17.71.25-26.6.26-8.63-5.48-12.67-13.44-14.2-9.62-1.86-19.94.37-29.08-3.82-7.26-3.33-12.68-9.77-16-16.95-17.37-38.05,25-72.42,56.26-84.7,18.61-7.32,40.79-8.43,57.74,3.65,12.57,9,17.72,28.1,33.4,32.75,9.65,2.86,18.58-2.27,26.77-6.79,10.85-6,22.61-9.37,35.08-9.1,9.62.21,24.85,2.3,27.5,13.68,2.36,10.12-5.43,20.57-5.61,30.78C712.15,329.25,717.15,329.25,717.21,326Z"/><path class="cls-2" d="M712.87,263.32a277.83,277.83,0,0,1,52-5.83,1.25,1.25,0,0,0,0-2.5,280.73,280.73,0,0,0-52.65,5.92c-1.57.33-.91,2.74.67,2.41Z"/><path class="cls-2" d="M719.07,251.77c18.95-13.09,40.58-21,62.11-28.77,1.5-.54.86-3-.66-2.41-21.73,7.8-43.59,15.81-62.71,29-1.31.91-.06,3.08,1.26,2.16Z"/><path class="cls-2" d="M751.06,212.46Q773.79,200,795.57,186c1.35-.87.09-3-1.26-2.16q-21.78,14-44.51,26.43c-1.41.78-.15,2.94,1.26,2.16Z"/><path class="cls-2" d="M729.47,323.21A113.27,113.27,0,0,1,764.54,300c1.47-.63.2-2.78-1.27-2.16a115.24,115.24,0,0,0-35.57,23.62c-1.15,1.12.62,2.89,1.77,1.77Z"/><path class="cls-2" d="M740.49,339.88l24.74-6.52a1.25,1.25,0,0,0-.67-2.41l-24.74,6.51a1.26,1.26,0,0,0,.67,2.42Z"/><path class="cls-2" d="M752.92,373.57a212.51,212.51,0,0,1,32.68,1.84c1.58.21,2.26-2.2.67-2.41a217.48,217.48,0,0,0-33.35-1.93,1.25,1.25,0,0,0,0,2.5Z"/><path class="cls-2" d="M756.57,405.48l30.28-2.6c1.6-.14,1.61-2.64,0-2.5L756.57,403c-1.59.13-1.6,2.63,0,2.5Z"/><path class="cls-2" d="M727,438.51l25.69,6.37c1.56.38,2.23-2,.67-2.41l-25.7-6.37a1.25,1.25,0,0,0-.66,2.41Z"/><path class="cls-2" d="M705.85,462.32a104.71,104.71,0,0,0,23.23,2.1,1.25,1.25,0,0,0,0-2.5,102.3,102.3,0,0,1-22.56-2c-1.57-.32-2.24,2.09-.67,2.41Z"/><path class="cls-2" d="M696.51,492.2a60.55,60.55,0,0,1,27.68-2.37c1.57.23,2.25-2.18.66-2.41a63.39,63.39,0,0,0-29,2.37c-1.52.5-.87,2.91.67,2.41Z"/><path class="cls-2" d="M556.64,577.2a1.25,1.25,0,0,0,0-2.5,1.25,1.25,0,0,0,0,2.5Z"/><path class="cls-2" d="M490,423.87l30.3-7.22c1.56-.38.9-2.79-.67-2.42l-30.29,7.23c-1.57.37-.91,2.78.66,2.41Z"/><path class="cls-2" d="M509.87,453.38a1.25,1.25,0,0,0,0-2.5,1.25,1.25,0,0,0,0,2.5Z"/><path class="cls-2" d="M494.74,495.88A126.54,126.54,0,0,1,530,488c1.6-.12,1.61-2.62,0-2.5a128.88,128.88,0,0,0-35.94,8c-1.49.56-.85,3,.66,2.41Z"/><path class="cls-2" d="M489.41,537.61l48.62-22c1.46-.66.19-2.82-1.26-2.16l-48.62,22c-1.47.66-.2,2.82,1.26,2.16Z"/><path class="cls-2" d="M426.65,336.33a370.62,370.62,0,0,1-41,17.19c-1.51.52-.86,2.94.66,2.41a375,375,0,0,0,41.61-17.44c1.44-.71.17-2.87-1.27-2.16Z"/><path class="cls-2" d="M452.23,303.64c-25.58-2.74-39.72-26.5-49.73-47.51-.69-1.46-2.85-.19-2.16,1.26,10.47,22,25.3,45.9,51.89,48.75,1.6.17,1.58-2.33,0-2.5Z"/><path class="cls-2" d="M477.2,275.11c-3.31-20.4,3.52-40.26,10.27-59.23.54-1.52-1.88-2.18-2.42-.67-6.92,19.48-13.65,39.65-10.26,60.57.26,1.58,2.67.91,2.41-.67Z"/><path class="cls-2" d="M526.08,250.47q10.26-28.56,22.69-56.26c.65-1.46-1.5-2.73-2.16-1.26q-12.57,28-22.94,56.85c-.54,1.52,1.87,2.18,2.41.67Z"/><path class="cls-2" d="M582.32,217.66a1.25,1.25,0,0,0,0-2.5,1.25,1.25,0,0,0,0,2.5Z"/><path class="cls-2" d="M950.44,243.26a354.08,354.08,0,0,0,49.83-22.12c1.42-.76.16-2.92-1.26-2.16a350.12,350.12,0,0,1-49.23,21.87c-1.51.54-.86,3,.66,2.41Z"/><path class="cls-2" d="M961.24,254.11c17.18-8.52,34.61-19.15,53.47-23.35,1.57-.35.91-2.76-.66-2.41-19.11,4.25-36.68,15-54.07,23.6-1.44.71-.18,2.87,1.26,2.16Z"/><path class="cls-2" d="M907.13,282.33q18.6-11.79,36.84-24.1c1.33-.9.08-3.07-1.26-2.16q-18.26,12.31-36.84,24.1c-1.36.86-.11,3,1.26,2.16Z"/><path class="cls-2" d="M999.44,298.75a94,94,0,0,1,32.85-21.9c1.48-.59.83-3-.67-2.41A97.27,97.27,0,0,0,997.67,297c-1.13,1.15.64,2.92,1.77,1.77Z"/><path class="cls-2" d="M998.38,318.25A159.35,159.35,0,0,1,1035.8,305c1.57-.35.9-2.76-.67-2.41a161.89,161.89,0,0,0-38,13.54c-1.44.72-.18,2.88,1.26,2.16Z"/><path class="cls-2" d="M989,344.52a193,193,0,0,1,44.07-17.39,1.25,1.25,0,0,0-.66-2.41,195.58,195.58,0,0,0-44.67,17.64c-1.41.77-.15,2.93,1.26,2.16Z"/><path class="cls-2" d="M807,473.56a1.25,1.25,0,0,0,0-2.5,1.25,1.25,0,0,0,0,2.5Z"/><path class="cls-2" d="M824.48,439.44q10.42,17.67,21.38,35c.85,1.36,3,.11,2.15-1.26q-10.93-17.36-21.37-35.05a1.25,1.25,0,0,0-2.16,1.27Z"/><path class="cls-2" d="M800.7,448.89a100.67,100.67,0,0,0,12.48,33.29,1.25,1.25,0,0,0,2.16-1.26,98.86,98.86,0,0,1-12.23-32.7c-.29-1.58-2.7-.91-2.41.67Z"/><path class="cls-2" d="M773.51,467.82l-.49,1.44.78,1.73a34.48,34.48,0,0,0,1.55,3.46l3.49,7.78,6.58,14.71c.66,1.46,2.82.19,2.16-1.27l-6.2-13.83c-2-4.36-3.53-10.44-6.41-14.22-1.56-2-5.05-1.29-3.61,1.46.74,1.42,2.9.16,2.15-1.26Z"/><path class="cls-2" d="M759,480.9a67.55,67.55,0,0,0,9.34,23.22c.87,1.36,3,.1,2.16-1.26a65.58,65.58,0,0,1-9.09-22.62c-.31-1.58-2.72-.91-2.41.66Z"/><path class="cls-2" d="M730.68,517a60,60,0,0,0,18.93,23.26c1.29,1,2.54-1.21,1.26-2.16a57.69,57.69,0,0,1-18-22.36c-.67-1.46-2.83-.19-2.16,1.26Z"/><path class="cls-2" d="M429.14,606.25a190.14,190.14,0,0,1,74.51,16.83c1.45.65,2.72-1.5,1.26-2.16a193.2,193.2,0,0,0-75.77-17.17,1.25,1.25,0,0,0,0,2.5Z"/><path class="cls-2" d="M445.86,572.23c12.46-3.47,25.21-1.71,37.82-.16l37.11,4.57c1.59.2,1.58-2.3,0-2.5l-39-4.8c-12.23-1.51-24.53-2.88-36.58.48a1.25,1.25,0,0,0,.66,2.41Z"/><path class="cls-2" d="M303.09,606.47c16.76,16.87,39.57,24.64,61.67,31.86,1.53.5,2.18-1.91.66-2.41-21.69-7.08-44.11-14.66-60.56-31.22a1.25,1.25,0,0,0-1.77,1.77Z"/><path class="cls-2" d="M334.53,580.06a134.32,134.32,0,0,0,50.33,23.42c1.56.36,2.23-2.05.66-2.42A132.29,132.29,0,0,1,335.8,577.9c-1.29-1-2.54,1.21-1.27,2.16Z"/><path class="cls-2" d="M119.91,422.33a343.17,343.17,0,0,0,7.67-36.46q1.24-8.21,2.1-16.45c.69-6.68.8-13.49,4.1-19.51.77-1.41-1.39-2.67-2.16-1.26-2.33,4.25-3.24,8.78-3.75,13.57-.75,7-1.39,14.08-2.42,21.09a340.63,340.63,0,0,1-8,38.35,1.25,1.25,0,0,0,2.41.67Z"/><path class="cls-2" d="M149.66,419.43a571.88,571.88,0,0,1,30.82-79.62c.69-1.44-1.47-2.71-2.16-1.26a575.86,575.86,0,0,0-31.07,80.22c-.47,1.54,1.94,2.2,2.41.66Z"/><path class="cls-2" d="M187.85,408.56q24.35-34.83,50.55-68.32c1-1.25-.78-3-1.77-1.76q-26.4,33.72-50.94,68.82c-.93,1.32,1.24,2.57,2.16,1.26Z"/><path class="cls-2" d="M292.77,283.14l33.49-69c.7-1.44-1.45-2.71-2.16-1.26l-33.49,69c-.7,1.44,1.46,2.71,2.16,1.27Z"/><path class="cls-2" d="M330.45,252.94l37-55.75c.89-1.34-1.27-2.6-2.16-1.26l-37,55.75c-.89,1.34,1.27,2.59,2.16,1.26Z"/><path class="cls-2" d="M357.52,252.1A197,197,0,0,1,402.19,210c1.32-.9.07-3.06-1.26-2.15a198.91,198.91,0,0,0-45.18,42.45c-1,1.26.78,3,1.77,1.77Z"/><path class="cls-2" d="M54.17,652.86l52,58c1.08,1.2,2.84-.57,1.77-1.76l-52-58c-1.07-1.2-2.84.57-1.76,1.77Z"/><path class="cls-2" d="M120.16,649.82a155.76,155.76,0,0,1,43.49,35.64c1,1.23,2.8-.55,1.76-1.77a157.62,157.62,0,0,0-44-36c-1.41-.78-2.68,1.38-1.27,2.16Z"/><path class="cls-2" d="M191.12,652.49a141.38,141.38,0,0,0,49.48,36.19c1.46.64,2.74-1.52,1.27-2.16a139.6,139.6,0,0,1-49-35.8c-1.06-1.21-2.83.56-1.77,1.77Z"/><path class="cls-2" d="M265.66,672.93a74.67,74.67,0,0,0,29,25c1.45.7,2.72-1.46,1.27-2.16a72.13,72.13,0,0,1-28.15-24.07c-.91-1.31-3.08-.07-2.16,1.26Z"/><path class="cls-2" d="M44.57,810.6a153.1,153.1,0,0,1,57.89,20.33,1.25,1.25,0,0,0,1.26-2.16,154.89,154.89,0,0,0-58.48-20.58c-1.58-.22-2.26,2.19-.67,2.41Z"/><path class="cls-2" d="M87,761.43a153.16,153.16,0,0,1,58.81,17.84c1.41.76,2.68-1.4,1.26-2.16A156.39,156.39,0,0,0,87,758.93c-1.6-.15-1.59,2.35,0,2.5Z"/><path class="cls-2" d="M118.77,726.8q31.9,9.42,64.18,17.53a1.25,1.25,0,0,0,.66-2.41q-32.27-8.11-64.18-17.53a1.25,1.25,0,0,0-.66,2.41Z"/><path class="cls-2" d="M226.76,772.36l24.53,13.26c1.42.76,2.68-1.39,1.27-2.16L228,770.2c-1.42-.76-2.68,1.39-1.26,2.16Z"/><path class="cls-2" d="M263.44,719.67a72.56,72.56,0,0,0,33.28,19.91,1.25,1.25,0,0,0,.67-2.41,69.93,69.93,0,0,1-32.18-19.27c-1.11-1.17-2.88.6-1.77,1.77Z"/><path class="cls-2" d="M321.15,701a113.15,113.15,0,0,0,23.28,9.23,1.25,1.25,0,0,0,.66-2.41,110.22,110.22,0,0,1-22.68-9c-1.42-.75-2.68,1.41-1.26,2.16Z"/><path class="cls-2" d="M55,539.16c24.62-9.55,51.24-7.07,76.91-4.42,1.6.17,1.58-2.33,0-2.5-25.88-2.68-52.76-5.12-77.57,4.5-1.49.58-.84,3,.66,2.42Z"/><path class="cls-2" d="M73.82,502.6A96.35,96.35,0,0,1,132,488.47c1.6.12,1.6-2.38,0-2.5a98.73,98.73,0,0,0-59.4,14.47c-1.36.84-.11,3,1.26,2.16Z"/><path class="cls-2" d="M51.6,462.94a246.47,246.47,0,0,1,27-40.34c1-1.24-.75-3-1.77-1.77a249.55,249.55,0,0,0-27.36,40.85c-.76,1.42,1.4,2.68,2.16,1.26Z"/><path class="cls-2" d="M643.05,121.66Q653.87,96.37,666.58,72c.75-1.42-1.41-2.69-2.15-1.26Q651.71,95.1,640.89,120.4c-.63,1.46,1.53,2.74,2.16,1.26Z"/><path class="cls-2" d="M690.89,108.93a276.21,276.21,0,0,0,26.27-46.05c.66-1.45-1.5-2.73-2.16-1.26a275.51,275.51,0,0,1-26.27,46.05c-.93,1.32,1.24,2.57,2.16,1.26Z"/><path class="cls-2" d="M750.39,93.26l15.32-23.12c.89-1.34-1.27-2.59-2.16-1.26L748.23,92c-.89,1.35,1.27,2.6,2.16,1.27Z"/><path class="cls-2" d="M829.6,119.22a410.09,410.09,0,0,0,60.75-45.14c1.2-1.07-.57-2.84-1.76-1.76a408.07,408.07,0,0,1-60.25,44.74c-1.37.84-.12,3,1.26,2.16Z"/><path class="cls-2" d="M851.45,146.43a156.26,156.26,0,0,0,46.06-14.34c1.44-.71.17-2.86-1.27-2.16A153.73,153.73,0,0,1,850.78,144c-1.59.24-.91,2.65.67,2.42Z"/><path class="cls-2" d="M945.11,129.13a311,311,0,0,0,51.26-23,1.25,1.25,0,0,0-1.27-2.16,307,307,0,0,1-50.65,22.8c-1.51.52-.86,2.94.66,2.41Z"/><path class="cls-2" d="M816.54,75.44c8.35-3.26,13-10.67,17.94-17.68a160.81,160.81,0,0,1,23.38-26.2c1.2-1.08-.57-2.85-1.77-1.77A163,163,0,0,0,836,51.49c-5.86,7.63-10.68,17.84-20.15,21.54-1.48.58-.83,3,.67,2.41Z"/><path class="cls-2" d="M1017.15,198.54A191,191,0,0,0,1049.44,184c1.42-.81.17-2.84-1.26-2.16l-10.64,5.06c-1.45.69-.18,2.84,1.26,2.16l10.64-5.06-1.26-2.16a186.75,186.75,0,0,1-31.69,14.29c-1.52.51-.87,2.93.66,2.41Z"/><path class="cls-2" d="M808.87,330.37a273.42,273.42,0,0,0,62.76-10.76,1.25,1.25,0,0,0-.66-2.41,271.05,271.05,0,0,1-62.1,10.67c-1.6.09-1.61,2.59,0,2.5Z"/><path class="cls-2" d="M988.64,412.1a1.25,1.25,0,0,0,0-2.5,1.25,1.25,0,0,0,0,2.5Z"/><path class="cls-2" d="M967.32,398a158.82,158.82,0,0,1,39.85,20.49c1.31.93,2.56-1.23,1.26-2.16A161.59,161.59,0,0,0,968,395.59c-1.52-.52-2.18,1.89-.66,2.42Z"/><path class="cls-2" d="M489.12,172.2l26.47-48.68c.77-1.42-1.39-2.68-2.16-1.26L487,170.94c-.76,1.41,1.39,2.68,2.16,1.26Z"/><path class="cls-2" d="M581.13,123.31A254.47,254.47,0,0,1,598.87,84c.78-1.4-1.38-2.66-2.16-1.26a257.37,257.37,0,0,0-18,39.93c-.54,1.52,1.87,2.18,2.41.67Z"/><path class="cls-2" d="M338.23,338.11a60.06,60.06,0,0,0,9.21,51.3c.94,1.29,3.11,0,2.16-1.26a57.67,57.67,0,0,1-9-49.37,1.25,1.25,0,0,0-2.41-.67Z"/><path class="cls-2" d="M389.77,425.28a219.82,219.82,0,0,1,63.7-29.21,1.25,1.25,0,0,0-.66-2.41,221.43,221.43,0,0,0-64.3,29.47c-1.33.89-.08,3.05,1.26,2.15Z"/><path class="cls-2" d="M405.25,503.4a165.64,165.64,0,0,1,29.37-.84c1.6.1,1.6-2.4,0-2.5a165.64,165.64,0,0,0-29.37.84c-1.58.19-1.59,2.69,0,2.5Z"/><path class="cls-2" d="M153.39,568.61c1.27,11.64,9.42,23.09,15.83,32.56A186.31,186.31,0,0,0,193,629.62a1.25,1.25,0,0,0,1.77-1.77,183.74,183.74,0,0,1-22.4-26.53q-4.62-6.69-8.62-13.77c-3.33-5.89-7.09-12.11-7.83-18.94-.18-1.58-2.68-1.6-2.5,0Z"/><path class="cls-2" d="M214.66,565.15a109.73,109.73,0,0,0,39.69,55.78c1.29,1,2.54-1.21,1.26-2.16a106.87,106.87,0,0,1-38.54-54.29c-.48-1.53-2.89-.87-2.41.67Z"/><path class="cls-2" d="M130.15,662.5a1.25,1.25,0,0,0,0-2.5,1.25,1.25,0,0,0,0,2.5Z"/><path class="cls-2" d="M127,666.53c-4.51,2.71-4.32,8.49-1.06,12.21,2.44,2.77,6,4.4,9.13,6.14q7.19,4,14.38,7.89c16.29,8.89,33.28,17.44,52.21,18,1.61.05,1.6-2.45,0-2.5-14.79-.45-28.45-5.95-41.46-12.62-6-3.09-12-6.4-17.89-9.66-3.26-1.79-6.57-3.51-9.78-5.39s-10.81-8-4.26-11.94a1.25,1.25,0,0,0-1.27-2.15Z"/><path class="cls-2" d="M38.86,699.23a84.31,84.31,0,0,0,37,26.14c1.51.55,2.17-1.86.66-2.41a82,82,0,0,1-35.86-25.49c-1-1.25-2.78.53-1.77,1.76Z"/><path class="cls-2" d="M182,800.13c17.91,3.16,33.24,16.69,52.19,13.68,1.58-.25.91-2.66-.67-2.41-18.25,2.9-33.53-10.63-50.85-13.68-1.57-.28-2.25,2.13-.67,2.41Z"/><path class="cls-2" d="M568.57,361a.63.63,0,0,0,0-1.25.63.63,0,0,0,0,1.25Z"/><path class="cls-2" d="M591.5,350a.63.63,0,0,0,0-1.25.63.63,0,0,0,0,1.25Z"/><path class="cls-2" d="M586.91,376.63a.63.63,0,0,0,0-1.25.63.63,0,0,0,0,1.25Z"/><path class="cls-2" d="M614.43,359.2a.63.63,0,0,0,0-1.25.63.63,0,0,0,0,1.25Z"/><path class="cls-2" d="M585.08,328.93a.63.63,0,0,0,0-1.25.63.63,0,0,0,0,1.25Z"/><path class="cls-2" d="M565.81,356.45a.63.63,0,0,0,0-1.25.63.63,0,0,0,0,1.25Z"/><path class="cls-2" d="M573.15,383.05a.63.63,0,0,0,0-1.25.63.63,0,0,0,0,1.25Z"/><path class="cls-2" d="M591.81,372.87l11-5.5c.72-.36.09-1.44-.63-1.08l-11,5.5c-.72.36-.09,1.44.63,1.08Z"/><path class="cls-2" d="M577.74,326.18a.63.63,0,0,0,0-1.25.63.63,0,0,0,0,1.25Z"/><path class="cls-2" d="M544.72,336.27a.63.63,0,0,0,0-1.25.63.63,0,0,0,0,1.25Z"/><path class="cls-2" d="M560.31,375.71a.63.63,0,0,0,0-1.25.63.63,0,0,0,0,1.25Z"/><path class="cls-2" d="M603.42,347.28a.63.63,0,0,0,0-1.25.63.63,0,0,0,0,1.25Z"/><path class="cls-2" d="M638.27,361a.63.63,0,0,0,0-1.25.63.63,0,0,0,0,1.25Z"/><path class="cls-2" d="M652.47,347.09l7.34-7.33c.57-.57-.31-1.46-.88-.89l-7.34,7.34a.62.62,0,0,0,.88.88Z"/><path class="cls-2" d="M662.12,394.05a.63.63,0,0,0,0-1.25.63.63,0,0,0,0,1.25Z"/><path class="cls-2" d="M651.11,449.09a.63.63,0,0,0,0-1.25.63.63,0,0,0,0,1.25Z"/><path class="cls-2" d="M590.58,491.28a.63.63,0,0,0,0-1.25.63.63,0,0,0,0,1.25Z"/><path class="cls-2" d="M641,495.86a.63.63,0,0,0,0-1.25.63.63,0,0,0,0,1.25Z"/><path class="cls-2" d="M596.08,522.46a.63.63,0,0,0,0-1.25.63.63,0,0,0,0,1.25Z"/><path class="cls-2" d="M611.3,491l9.17-18.35c.36-.71-.72-1.35-1.08-.63l-9.17,18.35c-.36.71.72,1.35,1.08.63Z"/><path class="cls-2" d="M685.05,374.46h-.92a.63.63,0,0,0,0,1.25h.92a.63.63,0,0,0,0-1.25Z"/><path class="cls-2" d="M610.28,336.12l-.92-.92c-.56-.57-1.45.32-.88.89l.92.91a.62.62,0,0,0,.88-.88Z"/><path class="cls-2" d="M539.22,309.67a.63.63,0,0,0,0-1.25.63.63,0,0,0,0,1.25Z"/><path class="cls-2" d="M552.06,355.53a.63.63,0,0,0,0-1.25.63.63,0,0,0,0,1.25Z"/><path class="cls-2" d="M693.3,180.35a.63.63,0,0,0,0-1.25.63.63,0,0,0,0,1.25Z"/><path class="cls-2" d="M665.79,217a.63.63,0,0,0,0-1.25.63.63,0,0,0,0,1.25Z"/><path class="cls-2" d="M652.51,185.7l-.92.92a.62.62,0,0,0,.88.88l.92-.92a.62.62,0,0,0-.88-.88Z"/><path class="cls-2" d="M678.63,185.87a170.23,170.23,0,0,1,33-.05c.8.07.8-1.18,0-1.25a170.23,170.23,0,0,0-33,.05c-.79.07-.8,1.32,0,1.25Z"/><path class="cls-2" d="M661.58,203l4.59,10.09c.33.73,1.41.09,1.08-.64l-4.59-10.08c-.33-.74-1.41-.1-1.08.63Z"/><path class="cls-2" d="M656.62,200.52a.63.63,0,0,0,0-1.25.63.63,0,0,0,0,1.25Z"/><path class="cls-2" d="M686.88,169.34a.63.63,0,0,0,0-1.25.63.63,0,0,0,0,1.25Z"/><path class="cls-2" d="M731.83,161.09a.63.63,0,0,0,0-1.25.63.63,0,0,0,0,1.25Z"/><path class="cls-2" d="M715.7,180.32l-13.76,18.35c-.49.64.6,1.26,1.08.63L716.77,181c.49-.64-.6-1.26-1.07-.63Z"/><path class="cls-2" d="M892.34,233.54a.63.63,0,0,0,0-1.25.63.63,0,0,0,0,1.25Z"/><path class="cls-2" d="M852.9,249.14a.63.63,0,0,0,0-1.25.63.63,0,0,0,0,1.25Z"/><path class="cls-2" d="M865.74,214.28a.63.63,0,0,0,0-1.25.63.63,0,0,0,0,1.25Z"/><path class="cls-2" d="M865.74,245.47a.63.63,0,0,0,0-1.25.63.63,0,0,0,0,1.25Z"/><path class="cls-2" d="M839.14,258.31a.63.63,0,0,0,0-1.25.63.63,0,0,0,0,1.25Z"/><path class="cls-2" d="M887.75,215.2a.63.63,0,0,0,0-1.25.63.63,0,0,0,0,1.25Z"/><path class="cls-2" d="M941,196.86a.63.63,0,0,0,0-1.25.63.63,0,0,0,0,1.25Z"/><path class="cls-2" d="M921.69,226.21a.63.63,0,0,0,0-1.25.63.63,0,0,0,0,1.25Z"/><path class="cls-2" d="M859.32,262.89a.63.63,0,0,0,0-1.25.63.63,0,0,0,0,1.25Z"/><path class="cls-2" d="M861.15,219.79a.63.63,0,0,0,0-1.25.63.63,0,0,0,0,1.25Z"/><path class="cls-2" d="M851.54,228.81l-6.42,6.42a.62.62,0,0,0,.88.88l6.42-6.42a.62.62,0,0,0-.88-.88Z"/><path class="cls-2" d="M860.23,260.14a.63.63,0,0,0,0-1.25.63.63,0,0,0,0,1.25Z"/><path class="cls-2" d="M926.27,212.45a.63.63,0,0,0,0-1.25.63.63,0,0,0,0,1.25Z"/><path class="cls-2" d="M894.17,189.52a.63.63,0,0,0,0-1.25.63.63,0,0,0,0,1.25Z"/><path class="cls-2" d="M952,194.1a.63.63,0,0,0,0-1.25.63.63,0,0,0,0,1.25Z"/><path class="cls-2" d="M894.17,384a.63.63,0,0,0,0-1.25.63.63,0,0,0,0,1.25Z"/><path class="cls-2" d="M898.15,396.35l3.67,11.92c.24.77,1.45.44,1.21-.33L899.36,396a.63.63,0,0,0-1.21.34Z"/><path class="cls-2" d="M930.86,375.71a.63.63,0,0,0,0-1.25.63.63,0,0,0,0,1.25Z"/><path class="cls-2" d="M942.78,334.44a.63.63,0,0,0,0-1.25.63.63,0,0,0,0,1.25Z"/><path class="cls-2" d="M967.55,318.84a.63.63,0,0,0,0-1.25.63.63,0,0,0,0,1.25Z"/><path class="cls-2" d="M903.34,342.69a.63.63,0,0,0,0-1.25.63.63,0,0,0,0,1.25Z"/><path class="cls-2" d="M931.78,332.6a.63.63,0,0,0,0-1.25.63.63,0,0,0,0,1.25Z"/><path class="cls-2" d="M874,370.21a.63.63,0,0,0,0-1.25.63.63,0,0,0,0,1.25Z"/><path class="cls-2" d="M927.19,361a.63.63,0,0,0,0-1.25.63.63,0,0,0,0,1.25Z"/><path class="cls-2" d="M931.78,328.93a.63.63,0,0,0,0-1.25.63.63,0,0,0,0,1.25Z"/><path class="cls-2" d="M963.88,319.76a.63.63,0,0,0,0-1.25.63.63,0,0,0,0,1.25Z"/><path class="cls-2" d="M933.61,362.87a.63.63,0,0,0,0-1.25.63.63,0,0,0,0,1.25Z"/><path class="cls-2" d="M912.52,344.52a.63.63,0,0,0,0-1.25.63.63,0,0,0,0,1.25Z"/><path class="cls-2" d="M882.25,366.54a.63.63,0,0,0,0-1.25.63.63,0,0,0,0,1.25Z"/><path class="cls-2" d="M917.1,381.21a.63.63,0,0,0,0-1.25.63.63,0,0,0,0,1.25Z"/><path class="cls-2" d="M921.37,362.41l2.75-11.92c.18-.79-1-1.12-1.2-.34l-2.75,11.93c-.18.78,1,1.11,1.2.33Z"/><path class="cls-2" d="M932.32,359.81,947,339.63c.47-.65-.61-1.28-1.08-.63l-14.67,20.18c-.48.65.61,1.27,1.08.63Z"/><path class="cls-2" d="M874,362.87a.63.63,0,0,0,0-1.25.63.63,0,0,0,0,1.25Z"/><path class="cls-2" d="M912.52,393.14a.63.63,0,0,0,0-1.25.63.63,0,0,0,0,1.25Z"/><path class="cls-2" d="M795.11,527.05a.63.63,0,0,0,0-1.25.63.63,0,0,0,0,1.25Z"/><path class="cls-2" d="M806.12,519.71a.63.63,0,0,0,0-1.25.63.63,0,0,0,0,1.25Z"/><path class="cls-2" d="M834.87,502.2l7.34-3.67c.72-.36.08-1.44-.63-1.08l-7.34,3.67c-.72.36-.09,1.44.63,1.08Z"/><path class="cls-2" d="M923.52,208.78a.63.63,0,0,0,0-1.25.63.63,0,0,0,0,1.25Z"/><path class="cls-2" d="M891.42,247.3a.63.63,0,0,0,0-1.25.63.63,0,0,0,0,1.25Z"/><path class="cls-2" d="M893.88,229.25l.92-10.09c.07-.8-1.18-.8-1.25,0l-.92,10.09c-.07.8,1.18.8,1.25,0Z"/><path class="cls-2" d="M909.29,230.61l11-10.09c.6-.54-.29-1.43-.88-.88l-11,10.09c-.59.54.3,1.42.89.88Z"/><path class="cls-2" d="M940,225.29a.63.63,0,0,0,0-1.25.63.63,0,0,0,0,1.25Z"/><path class="cls-2" d="M927.91,225.8a29.72,29.72,0,0,1-13.46.41c-.79-.15-1.13,1.06-.34,1.21a31.41,31.41,0,0,0,14.14-.42.62.62,0,0,0-.34-1.2Z"/><path class="cls-2" d="M917.1,196.86a.63.63,0,0,0,0-1.25.63.63,0,0,0,0,1.25Z"/><path class="cls-2" d="M627.27,435.33a.63.63,0,0,0,0-1.25.63.63,0,0,0,0,1.25Z"/><path class="cls-2" d="M663,397.72a.63.63,0,0,0,0-1.25.63.63,0,0,0,0,1.25Z"/><path class="cls-2" d="M656.14,389.32l-3.67-3.67a.62.62,0,0,0-.88.88l3.67,3.67a.62.62,0,0,0,.88-.88Z"/><path class="cls-2" d="M638.27,382.13a.63.63,0,0,0,0-1.25.63.63,0,0,0,0,1.25Z"/><path class="cls-2" d="M564.9,313.34a.63.63,0,0,0,0-1.25.63.63,0,0,0,0,1.25Z"/><path class="cls-2" d="M541.05,355.53a.63.63,0,0,0,0-1.25.63.63,0,0,0,0,1.25Z"/><path class="cls-2" d="M501.61,322.51a.63.63,0,0,0,0-1.25.63.63,0,0,0,0,1.25Z"/><path class="cls-2" d="M526.54,317l23.85-4.59c.79-.15.45-1.36-.33-1.21l-23.85,4.59c-.79.15-.46,1.36.33,1.21Z"/><path class="cls-2" d="M681.38,379.38a.63.63,0,0,0,0-1.25.63.63,0,0,0,0,1.25Z"/><path class="cls-2" d="M648.36,417a.63.63,0,0,0,0-1.25.63.63,0,0,0,0,1.25Z"/><path class="cls-2" d="M653,353.7a.63.63,0,0,0,0-1.25.63.63,0,0,0,0,1.25Z"/><path class="cls-2" d="M667.94,345.36l9.17-4.59c.72-.36.09-1.44-.63-1.08l-9.17,4.59c-.72.36-.09,1.44.63,1.08Z"/><path class="cls-2" d="M687.8,402.31a.63.63,0,0,0,0-1.25.63.63,0,0,0,0,1.25Z"/><path class="cls-2" d="M592.41,406.89a.63.63,0,0,0,0-1.25.63.63,0,0,0,0,1.25Z"/><path class="cls-2" d="M885,362.87a.63.63,0,0,0,0-1.25.63.63,0,0,0,0,1.25Z"/><path class="cls-2" d="M860.23,380.3a.63.63,0,0,0,0-1.25.63.63,0,0,0,0,1.25Z"/><path class="cls-2" d="M901.51,395a.63.63,0,0,0,0-1.25.63.63,0,0,0,0,1.25Z"/><path class="cls-2" d="M424.91,193.59a126.38,126.38,0,0,1,10.38-29.1c.36-.72-.72-1.35-1.08-.63a127.44,127.44,0,0,0-10.5,29.4c-.18.78,1,1.12,1.2.33Z"/><path class="cls-2" d="M203.19,338.05q31.56-36.68,64.82-71.82c.55-.58-.33-1.47-.88-.88q-33.25,35.14-64.82,71.81c-.52.61.36,1.5.88.89Z"/><path class="cls-2" d="M159,330.58a479.86,479.86,0,0,0,41.34-45.81c.49-.62-.39-1.51-.89-.88a481,481,0,0,1-41.33,45.81c-.58.56.3,1.45.88.88Z"/><path class="cls-2" d="M146.29,388.08l3.63-11c.25-.77-.95-1.1-1.2-.34l-3.63,11c-.25.77.95,1.1,1.2.34Z"/><path class="cls-2" d="M166.85,451.48a505.82,505.82,0,0,1,26.24-66c.35-.72-.72-1.36-1.07-.63a507.15,507.15,0,0,0-26.38,66.27c-.24.77,1,1.1,1.21.33Z"/><path class="cls-2" d="M59.09,411.89a219.71,219.71,0,0,1,31.22-53.73c.49-.62-.39-1.51-.88-.88a221.4,221.4,0,0,0-31.54,54.28c-.31.74.9,1.07,1.2.33Z"/><path class="cls-2" d="M70.05,476.79A160.75,160.75,0,0,0,103,457.06c.64-.49-.25-1.37-.88-.89a159.62,159.62,0,0,1-32.69,19.55c-.74.32-.1,1.4.63,1.07Z"/><path class="cls-2" d="M92.54,570.16a.63.63,0,0,0,0-1.25.63.63,0,0,0,0,1.25Z"/><path class="cls-2" d="M221.87,627a.63.63,0,0,0,0-1.25.63.63,0,0,0,0,1.25Z"/><path class="cls-2" d="M276,584.83a.63.63,0,0,0,0-1.25.63.63,0,0,0,0,1.25Z"/><path class="cls-2" d="M370.8,665.8a191,191,0,0,0,52.5,27.77c.76.27,1.09-.94.33-1.2a190.39,190.39,0,0,1-52.2-27.65c-.65-.49-1.27.6-.63,1.08Z"/><path class="cls-2" d="M415.1,637q25.11,14.79,51.32,27.58c.72.35,1.36-.73.64-1.08q-26.21-12.79-51.33-27.58a.63.63,0,0,0-.63,1.08Z"/><path class="cls-2" d="M595.18,584.07a765,765,0,0,0,78.27-40.59.63.63,0,0,0-.63-1.08A765,765,0,0,1,594.55,583c-.74.32-.1,1.4.63,1.08Z"/><path class="cls-2" d="M764.84,418.86a339.29,339.29,0,0,1,39.42,2.05c.8.09.79-1.16,0-1.25a339.29,339.29,0,0,0-39.42-2.05.63.63,0,0,0,0,1.25Z"/><path class="cls-2" d="M799.87,350.92l11.92-3.67c.77-.23.44-1.44-.33-1.2l-11.93,3.67c-.76.23-.44,1.44.34,1.2Z"/><path class="cls-2" d="M762.26,287.63a75,75,0,0,0,33.22-18.57c.59-.56-.3-1.44-.88-.89a73.74,73.74,0,0,1-32.67,18.26.62.62,0,0,0,.33,1.2Z"/><path class="cls-2" d="M603.54,239.27a35.85,35.85,0,0,1,3.31-22.47c.36-.72-.72-1.35-1.08-.63a37.28,37.28,0,0,0-3.43,23.43c.13.79,1.34.46,1.2-.33Z"/><path class="cls-2" d="M858,61.68q-34.68,25.18-66.86,53.56c-.6.53.28,1.42.88.88q32-28.25,66.61-53.36c.65-.47,0-1.56-.63-1.08Z"/><path class="cls-2" d="M928.42,93.48a541.41,541.41,0,0,0-43.8,35.43c-.6.53.29,1.42.89.88a541.16,541.16,0,0,1,43.54-35.23c.64-.47,0-1.55-.63-1.08Z"/><path class="cls-2" d="M917.1,476.6a.63.63,0,0,0,0-1.25.63.63,0,0,0,0,1.25Z"/><path class="cls-2" d="M870.35,541.33c10.31-1,17.16-10.82,23.56-17.92q13.49-15,26.21-30.64c.5-.62-.38-1.51-.89-.88q-11,13.46-22.46,26.44c-6.83,7.69-15.29,20.7-26.42,21.75-.79.07-.8,1.32,0,1.25Z"/><path class="cls-2" d="M920,464.17a203,203,0,0,1,44.2-33.56c.7-.39.07-1.47-.63-1.08a203.93,203.93,0,0,0-44.46,33.76c-.57.57.32,1.45.89.88Z"/></g></g></svg>