<svg xmlns="http://www.w3.org/2000/svg" viewBox="0 0 403.77 342.89"><defs><style>.cls-1{fill:#bfcbc8;}.cls-2{fill:#38301f;}.cls-3{fill:#f26633;}</style></defs><title>cat2</title><g id="Layer_2" data-name="Layer 2"><g id="cat_paw" data-name="cat paw"><path class="cls-1" d="M242,7c.42-.48.82-1,1.21-1.49C242.77,6,242.36,6.48,242,7Z"/><path class="cls-2" d="M243.19,8.21c.52-.59,1-1.21,1.49-1.84a1.76,1.76,0,0,0-2.77-2.13c-.39.5-.79,1-1.2,1.49a1.75,1.75,0,1,0,2.48,2.48c.42-.48.82-1,1.21-1.48l-2.76-2.14s-.18.24-.08.1l-.3.38-.55.66a1.75,1.75,0,1,0,2.48,2.48Z"/><path class="cls-1" d="M223.74,10.91c.55-.76,1.08-1.54,1.58-2.34Z"/><path class="cls-2" d="M225.26,11.8c.55-.76,1.08-1.54,1.58-2.34a1.79,1.79,0,0,0-.63-2.41,1.81,1.81,0,0,0-2.41.63L222.22,10a1.77,1.77,0,0,0,.63,2.4,1.8,1.8,0,0,0,2.41-.63l1.58-2.34-3-1.78c-.5.8-1,1.58-1.58,2.35a1.76,1.76,0,0,0,.63,2.4A1.81,1.81,0,0,0,225.26,11.8Z"/><path class="cls-1" d="M250.21,8l-2.49,2.79A22,22,0,0,0,250.21,8Z"/><path class="cls-2" d="M249,6.71l-2.48,2.8A1.76,1.76,0,0,0,249,12a24.42,24.42,0,0,0,2.76-3.15,1.76,1.76,0,0,0-.63-2.4,1.81,1.81,0,0,0-2.41.63l-.39.5-.58.67c-.4.44-.81.86-1.24,1.27L249,12l2.48-2.79A1.76,1.76,0,0,0,249,6.71Z"/><path class="cls-1" d="M197.25,22.89a20.29,20.29,0,0,0,.33-3.73Z"/><path class="cls-2" d="M199,23.36a24.77,24.77,0,0,0,.39-4.2,1.78,1.78,0,0,0-1.76-1.76,1.8,1.8,0,0,0-1.76,1.76l-.33,3.73a1.78,1.78,0,0,0,1.76,1.76A1.8,1.8,0,0,0,199,22.89l.33-3.73h-3.52a18.79,18.79,0,0,1-.27,3.26,1.8,1.8,0,0,0,1.23,2.16A1.77,1.77,0,0,0,199,23.36Z"/><path class="cls-1" d="M262.15,13.08a39.3,39.3,0,0,0,12.36-6.75Z"/><path class="cls-2" d="M262.61,14.78a44,44,0,0,0,13.14-7.21c1.61-1.28-.44-3.68-2.13-2.76l-12.36,6.75c-2,1.09-.22,4.13,1.78,3l12.35-6.75-2.13-2.77a38.84,38.84,0,0,1-11.58,6.31C259.55,12.12,260.47,15.52,262.61,14.78Z"/><path class="cls-1" d="M287.46,7.63q-1.4,2.15-3,4.15A16.23,16.23,0,0,0,287.46,7.63Z"/><path class="cls-2" d="M285.94,6.74c-.85,1.3-1.74,2.57-2.71,3.8a1.82,1.82,0,0,0,0,2.49,1.79,1.79,0,0,0,2.49,0A18.53,18.53,0,0,0,289,8.52a1.8,1.8,0,0,0-.63-2.41,1.78,1.78,0,0,0-2.41.63,15.14,15.14,0,0,1-2.71,3.8L285.72,13c1.15-1.46,2.25-3,3.26-4.51C290.22,6.61,287.18,4.85,285.94,6.74Z"/><path class="cls-1" d="M317,5.21c-.55,1.73-1.09,3.47-1.64,5.2A4.92,4.92,0,0,0,317,5.21Z"/><path class="cls-2" d="M315.32,4.74,313.68,10a1.77,1.77,0,0,0,2.94,1.71,6.91,6.91,0,0,0,2.1-6.92c-.62-2.17-4-1.25-3.4.94a3.36,3.36,0,0,1-1.19,3.49l2.95,1.71c.54-1.73,1.09-3.47,1.64-5.2C319.4,3.51,316,2.59,315.32,4.74Z"/><path class="cls-1" d="M186.53,245.22a8.22,8.22,0,0,0,2,1.46C187.85,246.21,187.18,245.72,186.53,245.22Z"/><path class="cls-2" d="M185.29,246.46a10.53,10.53,0,0,0,2.35,1.74,1.76,1.76,0,0,0,1.78-3l-.93-.66-.46-.34-.25-.19a1.81,1.81,0,0,0-2.49,0,1.77,1.77,0,0,0,0,2.49c.77.6,1.55,1.18,2.35,1.74l1.78-3a9.06,9.06,0,0,1-1-.61c-.42-.3.23.21-.16-.13l-.49-.45a1.76,1.76,0,0,0-2.49,2.49Z"/><path class="cls-1" d="M352.12,154.76a11.78,11.78,0,0,0-2.07-1.5,6.76,6.76,0,0,0-.31.93A19.61,19.61,0,0,1,352.12,154.76Z"/><path class="cls-2" d="M353.37,153.52a14.65,14.65,0,0,0-2.44-1.78,1.79,1.79,0,0,0-2.58,1c-.12.31-.22.61-.31.93a1.78,1.78,0,0,0,1.23,2.16,21.17,21.17,0,0,1,2.38.58,1.79,1.79,0,0,0,2.17-1.23,1.81,1.81,0,0,0-1.23-2.17,21.67,21.67,0,0,0-2.38-.57l1.23,2.16c.08-.31.19-.62.3-.92l-2.58,1.05a8.87,8.87,0,0,1,1,.62l.23.16c-.09-.06-.09-.06,0,0l.51.43a1.76,1.76,0,0,0,2.49-2.49Z"/><path class="cls-1" d="M361,160.28a20.32,20.32,0,0,0-8.85-5.52C354.89,157.19,357.49,160.74,361,160.28Z"/><path class="cls-2" d="M362.22,159a23.12,23.12,0,0,0-9.63-6,1.78,1.78,0,0,0-1.71,2.95c2.89,2.59,5.76,6.39,10.09,6,2.24-.18,2.26-3.7,0-3.52-3.17.26-5.48-3.1-7.6-5l-1.72,2.94a19.21,19.21,0,0,1,8.08,5.07C361.3,163.17,363.79,160.67,362.22,159Z"/><path class="cls-1" d="M123.9,288.69c-.51-.48-1-1-1.51-1.46A16,16,0,0,0,123.9,288.69Z"/><path class="cls-2" d="M125.14,287.45c-.51-.48-1-1-1.51-1.46a1.78,1.78,0,0,0-2.49,0,1.8,1.8,0,0,0,0,2.49,20.81,20.81,0,0,0,1.51,1.46,1.8,1.8,0,0,0,2.49,0,1.78,1.78,0,0,0,0-2.49,20.81,20.81,0,0,1-1.51-1.46l-2.49,2.49c.5.49,1,1,1.51,1.46a1.76,1.76,0,1,0,2.49-2.49Z"/><path class="cls-1" d="M62.45,333.52a88.41,88.41,0,0,0,.07-10.92A66.36,66.36,0,0,0,62.45,333.52Z"/><path class="cls-2" d="M64.21,333.52a97,97,0,0,0,.07-10.92,1.76,1.76,0,0,0-3.52,0,71.09,71.09,0,0,0-.07,10.92c.15,2.25,3.67,2.27,3.52,0a71.09,71.09,0,0,1,.07-10.92H60.76a97,97,0,0,1-.07,10.92C60.54,335.78,64.06,335.78,64.21,333.52Z"/><path class="cls-1" d="M159.58,249.07a14.72,14.72,0,0,0,.68,2.44A14.72,14.72,0,0,0,159.58,249.07Z"/><path class="cls-2" d="M157.89,249.54a15,15,0,0,0,.67,2.44,1.79,1.79,0,0,0,2.17,1.22A1.81,1.81,0,0,0,162,251a15.64,15.64,0,0,0-.68-2.43,1.76,1.76,0,1,0-3.39.93,16.92,16.92,0,0,1,.67,2.44L162,251a14.6,14.6,0,0,1-.68-2.43,1.77,1.77,0,0,0-2.17-1.23A1.8,1.8,0,0,0,157.89,249.54Z"/><path class="cls-1" d="M335,22.54c2.52-.39,5-.71,7.58-.94A69.12,69.12,0,0,0,335,22.54Z"/><path class="cls-2" d="M335.42,24.24c2.36-.37,4.73-.65,7.11-.88,2.22-.21,2.27-3.68,0-3.52a78,78,0,0,0-8,1c-2.22.39-1.28,3.78.94,3.4a68,68,0,0,1,7.11-.88V19.84c-2.7.26-5.37.59-8,1C332.25,21.18,333.2,24.57,335.42,24.24Z"/><path class="cls-1" d="M381.4,71.5,402,82.21C398.43,74.72,389.55,70.5,381.4,71.5Z"/><path class="cls-2" d="M380.51,73l20.63,10.71a1.78,1.78,0,0,0,2.41-2.41c-4.23-8.09-13.16-12.42-22.15-11.58-2.23.21-2.26,3.74,0,3.52,7.83-.73,15.4,2.75,19.11,9.84l2.41-2.41L382.29,70C380.28,68.94,378.5,72,380.51,73Z"/><path class="cls-1" d="M378.44,70c0,.73,0,1.45-.11,2.18a18.83,18.83,0,0,1,3.07-.65Z"/><path class="cls-2" d="M376.68,70c0,.73-.05,1.45-.11,2.18a1.78,1.78,0,0,0,2.23,1.7,18.9,18.9,0,0,1,2.6-.59A1.83,1.83,0,0,0,383.1,72a1.78,1.78,0,0,0-.81-2l-3-1.53a1.76,1.76,0,1,0-1.78,3l3,1.53.89-3.28a23.86,23.86,0,0,0-3.54.71l2.23,1.7c.06-.73.1-1.45.11-2.18a1.76,1.76,0,1,0-3.52,0Z"/><path class="cls-1" d="M387.38,77.81a41.23,41.23,0,0,1-12.15,8.78A25.13,25.13,0,0,0,387.38,77.81Z"/><path class="cls-2" d="M386.14,76.57a42,42,0,0,1-11.8,8.5c-1.77.87-.53,3.88,1.36,3.22a28.09,28.09,0,0,0,13.2-9.59c1.38-1.8-1.68-3.55-3-1.78a23.84,23.84,0,0,1-11.1,8l1.36,3.22a44.56,44.56,0,0,0,12.51-9.06C390.21,77.43,387.72,74.94,386.14,76.57Z"/><path class="cls-1" d="M371.43,114.21a21.52,21.52,0,0,1,12.25-16.57,21.24,21.24,0,0,0-10.33,1.09l5.43-.2A12.76,12.76,0,0,1,367.16,96a104.16,104.16,0,0,0,12.18-4.76,15.3,15.3,0,0,1-10.85-2.13,41.35,41.35,0,0,0,6.74-2.51,24.79,24.79,0,0,1-3.39.87,27.33,27.33,0,0,0,6.49-15.31,17,17,0,0,0-3.19,1.31c.44-4.58,7.21-4.36,11.53-2.81s11.17,1.53,11.37-3.06c-4.56,1.39-9.34,2.79-14,1.9s-9.14-4.92-8.78-9.67a22.35,22.35,0,0,0,18.21-4.59,29.46,29.46,0,0,1-24.79,3.28,57.59,57.59,0,0,0,12.66-7.07,33.18,33.18,0,0,1-9,3.62l-4.11-4.8a47.69,47.69,0,0,0,6.61-4.87,22.33,22.33,0,0,1-3.24,2.17c-5.69,3.09-13.84,2.69-17.54-2.62a64,64,0,0,1,12.85-8.42l-10.71,5.06-5.41-6.15q.53-.54,1.08-1c-3.33.28-6.35-.75-7.24-3.88l8.8-2.86a33.76,33.76,0,0,1-27.27-2.94A69.71,69.71,0,0,1,335,22.54q-5.29.83-10.51,2.11a11.63,11.63,0,0,1-2.24,1.24c-3.64,1.48-8.77-.05-9.57-3.9a10.09,10.09,0,0,1,.69-5c.69-2.18,1.37-4.36,2.06-6.54a10.84,10.84,0,0,1-6.79,2.76c-4.49.11-9.23-1.39-13.35.4A17.88,17.88,0,0,0,302.42,1.7a24.94,24.94,0,0,1-24,16.53,55,55,0,0,0,6-6.45c-6.17,6.24-17.16,7.73-24.32,2.39l2-1.09a39.82,39.82,0,0,1-18,1.72l3.6-4.05a22.75,22.75,0,0,1-17.33,6.13A47.46,47.46,0,0,0,242,7a30.12,30.12,0,0,1-22.47,10.27l4.26-6.33a39.08,39.08,0,0,1-19.59,14.23q5.1-6.41,10.18-12.82a179.59,179.59,0,0,1-17.75,18.11c.22-2.52.45-5,.67-7.54-1.91,10.76-11.94,19.86-23,20l4.33-9.81a42.21,42.21,0,0,1-9.41,13.66c-2.83,2.75-9.12,3.89-9.34-.05A19.72,19.72,0,0,1,148.79,52l-3.54-6.75-8.11,3.13,5.59-8.8c-5.14,7.48-10.72,15.32-19,18.9-2.7,1.16-5.58,1.81-8.38,2.7a69.4,69.4,0,0,0-9,3.66A106.49,106.49,0,0,0,76.24,86.38c-4.42,4.54-8.81,9.7-14.93,11.36-4.25,1.16-9.11.52-12.76,3-2.6,1.78-4,4.79-5.68,7.46-6.58,10.57-28.67,17.48-41.11,17.18V333.52c4.41,1.07,16,3.16,16.74,7.64a57.53,57.53,0,0,1,8.27-23.74c.77,2.26,1.55,4.52,2.32,6.79l11.67-18.06a9.09,9.09,0,0,0,2.94,4.43l4.94-4.85v8.78a46.65,46.65,0,0,0,9.25-15.67,88.77,88.77,0,0,1,4.62,23.76,68.29,68.29,0,0,1,7.22-25.19l1,9.59,6-5.43A170.37,170.37,0,0,1,72,324a95.94,95.94,0,0,0,9.77-35.28l1.41,7.92q2.52-4.79,5.06-9.55l.78,12q2.69-10.27,5.38-20.53a89.28,89.28,0,0,0,3.08,24q.73-14,1.48-28a6.9,6.9,0,0,1,6.66,5.09q1.26-5.84,2.53-11.68a78.73,78.73,0,0,0,14.24,19.18c-6.26-6.73-7.5-17.79-2.58-25.62q1,2.83,2,5.67l2.93-7.44a21.4,21.4,0,0,1,5.14,7.63q1.2-8.18,2.41-16.36a55.54,55.54,0,0,0,4.76,26.08q.65-14.15,1.27-28.29a25.71,25.71,0,0,1,4.88,8.93l.9-7.4A37.07,37.07,0,0,1,157.71,260a26.58,26.58,0,0,1-7.37-20.17,15.68,15.68,0,0,1,9.24,9.26,15.29,15.29,0,0,1,3.3-12.59l8.82,12.39c-1.53-3.2-3.11-6.59-2.87-10.14s3-7.19,6.56-7a40.44,40.44,0,0,0,11.14,13.54,8.69,8.69,0,0,1,5.89-15l9,10.87c-2.9-5.31,1-13,7-13.72q.79,5.73,1.61,11.44c-1.7-9.62,8.51-19.24,18-17,.87,5.93,8.65,9.58,13.77,6.45-6.75,1.77-13.62-6.65-10.53-12.9,14.59,9.34,35.19-11.11,50.11-2.3.1-1.65.19-3.3.29-5a102.24,102.24,0,0,1,28.53-11.58c2.93-3.81,7.74-5.58,11.6-8.45s6.88-8.31,4.29-12.36l5.42,1.35a42.74,42.74,0,0,1,12-22.28,7.56,7.56,0,0,1,3-2,4.59,4.59,0,0,1,3.52.49c2.8-7.23,13.77-7,21.68-5.17l-7.58-6.45,22.11-5.78A41.6,41.6,0,0,1,367.8,131l12-4.31-7-4.64,20.82-14.91A69.34,69.34,0,0,1,371.43,114.21Z"/><path class="cls-2" d="M373.13,114.68a20.5,20.5,0,0,1,11.44-15.52c1.72-.85.68-3.12-.89-3.28A25.22,25.22,0,0,0,372.88,97c-1.82.58-1.6,3.53.47,3.45l5.43-.2-.47-3.46a11.84,11.84,0,0,1-10.26-2.36l-.42,3.21a123.63,123.63,0,0,0,12.6-4.93c1.55-.7.82-3.48-.89-3.28a15.44,15.44,0,0,1-10-1.89L369,90.79a56.49,56.49,0,0,0,7.16-2.68c1.83-.82.53-3.77-1.36-3.22a24.79,24.79,0,0,1-3.39.87l1.71,2.94a31,31,0,0,0,7-16.55,1.77,1.77,0,0,0-2.23-1.7,34.27,34.27,0,0,0-3.61,1.49l2.59,2c1.68-7.81,20.94,6.11,22.9-5.87a1.79,1.79,0,0,0-2.17-2.17c-6.49,2-20.41,4.75-20.57-6.07l-2.23,1.7a25,25,0,0,0,19.57-4.77c1.75-1.32.22-4.25-1.78-3a28.54,28.54,0,0,1-23.43,3.1v3.4A66,66,0,0,0,382.2,53c1.82-1.3.25-4.16-1.77-3-1.56.87-5.28,3.49-7,3s-2.88-2.67-4-3.93l-.35,2.76a61.43,61.43,0,0,0,7-5.15c1.5-1.28-.54-4-2.14-2.76-5.55,4.21-13.72,6-18.64-.17v2.48A69,69,0,0,1,367.81,38c2-1,.25-4-1.77-3l-10.71,5.06,2.14.27-5.41-6.14v2.48l1.08-1.05a1.78,1.78,0,0,0-1.25-3A5.59,5.59,0,0,1,346.35,30l-1.23,2.17,8.8-2.87c2.14-.69,1.25-4-.93-3.39a32.89,32.89,0,0,1-25.92-2.76l-.42,3.22a85.64,85.64,0,0,1,8.77-2.16c2.24-.44,1.27-3.76-.94-3.4a77.75,77.75,0,0,0-12.94,3.34c-4.44,1.5-7.24-1.28-6.77-5.94.25-2.37,1.59-5.09,2.31-7.36.57-1.84-1.69-2.71-2.95-1.71-5.51,4.39-13,.59-19.36,2.7l1.71,3a20.32,20.32,0,0,0,7.64-12.65,1.77,1.77,0,0,0-3.4-.94,23.44,23.44,0,0,1-22.28,15.24l1.24,3a66.92,66.92,0,0,0,6-6.45,1.76,1.76,0,0,0-2.49-2.49c-6.12,5.71-15.15,6.87-22.18,2.11v3l2-1.09a1.77,1.77,0,0,0-1.36-3.21A42.12,42.12,0,0,1,244.12,13l1.25,3L249,12a1.76,1.76,0,0,0-2.49-2.48,22,22,0,0,1-16.09,5.61l.89,3.28A54.22,54.22,0,0,0,243.19,8.21c1.49-1.69-.94-4.17-2.48-2.48a29.31,29.31,0,0,1-21.23,9.75L221,18.13l4.26-6.33c1.29-1.91-1.71-3.54-3-1.77a38.69,38.69,0,0,1-18.53,13.42l1.71,2.94,10.17-12.82c1.38-1.74-1-4.24-2.49-2.49a190.75,190.75,0,0,1-17.75,18.1l3,1.25c.22-2.52.45-5,.67-7.54.18-2-3-2.4-3.46-.47-2.15,10.23-10.7,18.22-21.29,18.75l1.52,2.65L180.11,34c.9-2-2.11-3.85-3-1.78a43.72,43.72,0,0,1-6.29,10.25c-.61.72-8.28,8.62-9.24,3.78a1.79,1.79,0,0,0-2.95-.78,19.94,19.94,0,0,1-10.27,4.79l2,.8-3.54-6.75a1.77,1.77,0,0,0-2-.81l-8.12,3.14,2,2.58q2.79-4.4,5.59-8.8c1.22-1.93-1.77-3.62-3-1.78-4.35,6.3-9,13-15.74,16.92-6.59,3.8-14.68,5-21.57,8.45A108.6,108.6,0,0,0,85,76.08c-5.9,4.68-10.67,10.42-16.32,15.33a20.92,20.92,0,0,1-11.8,5.31c-2.71.36-5.51.52-8,1.79-5.45,2.76-7.06,9.44-11.61,13.29-9.26,7.83-23.55,11.92-35.55,11.82A1.78,1.78,0,0,0,0,125.38V333.52a1.79,1.79,0,0,0,1.29,1.7c3.84.9,14.2,1.94,15.52,6.41.6,2,3.21,1.4,3.45-.47a58.63,58.63,0,0,1,8-22.85l-3.22-.42q1.17,3.39,2.32,6.78a1.79,1.79,0,0,0,3.22.42l11.67-18-3.22-.42a13,13,0,0,0,3.4,5.2,1.78,1.78,0,0,0,2.49,0L49.88,307l-3-1.25v8.78a1.78,1.78,0,0,0,3,1.24,52.71,52.71,0,0,0,9.69-16.44H56.2a93.86,93.86,0,0,1,4.56,23.29,1.76,1.76,0,0,0,3.52,0,69.76,69.76,0,0,1,7-24.3L68,297.41,69,307a1.79,1.79,0,0,0,3,1.24l6-5.42-2.94-1.72a184.76,184.76,0,0,1-4.77,22.45c-.52,1.87,2.33,3.19,3.22,1.36a102.35,102.35,0,0,0,10-36.17l-3.46.47,1.41,7.91c.26,1.5,2.54,1.7,3.22.42q2.52-4.77,5.06-9.54l-3.28-.89.78,12c.13,1.91,2.93,2.47,3.46.46q2.69-10.26,5.38-20.52l-3.46-.47a97.72,97.72,0,0,0,3.14,24.48c.51,2,3.35,1.47,3.46-.47q.74-14,1.48-28L99,276.4a5.14,5.14,0,0,1,5,3.8c.55,1.5,3,1.83,3.39,0q1.27-5.85,2.54-11.68l-3.22.42a85.69,85.69,0,0,0,14.51,19.54c1.61,1.63,4-.79,2.49-2.49a20.25,20.25,0,0,1-2.3-23.49l-3.22-.42,2,5.67a1.78,1.78,0,0,0,3.4,0q1.45-3.72,2.93-7.44l-2.95.78a23.39,23.39,0,0,1,4.87,7.27,1.78,1.78,0,0,0,3.22-.42q1.2-8.18,2.41-16.36l-3.46-.47a60.37,60.37,0,0,0,5,27c.74,1.72,3.21.69,3.28-.89q.64-14.15,1.27-28.29l-3,1.24a27.07,27.07,0,0,1,4.43,8.16,1.76,1.76,0,0,0,3.45-.47l.9-7.4L143.26,252a38.94,38.94,0,0,1,13.2,9.28c1.56,1.66,4-.82,2.49-2.49a25.79,25.79,0,0,1-6.85-18.93l-2.23,1.7a15,15,0,0,1,8.19,8.45c.86,2,3.46.41,3.22-1.35a14.51,14.51,0,0,1,3.12-11.24h-3l8.82,12.39a1.76,1.76,0,0,0,3-1.77c-1.41-3-3.24-6.68-2.48-10.12.27-1.25,2.36-4.31,3.89-3.88.61.17,1.77,2.87,2.13,3.4a45,45,0,0,0,8.53,9.07,1.76,1.76,0,0,0,2.49-2.49c-2.07-2.41-3-5.69-1.26-8.52,1.57-2.61,3.92-3.89,6.34-2,2.71,2.17,5.07,6.15,7.28,8.83,1.37,1.66,3.52-.46,2.77-2.13a8.09,8.09,0,0,1,6-11.13l-2.17-1.23q.81,5.71,1.61,11.44c.27,1.94,3.7,1.5,3.46-.47a13.7,13.7,0,0,1,6-13.08c1.86-1.27,4.71-2.68,7-2.44s1.87.95,3,2.69a11.59,11.59,0,0,0,14.91,3.84c1.89-1,.48-3.54-1.36-3.22-5.93,1-10.45-5.44-8.36-10.74l-2.59,1.06c16.46,9.69,34-11,50.11-2.3a1.78,1.78,0,0,0,2.65-1.52c.1-1.67-.14-3,1-4.34.82-.95,3.7-2,4.81-2.58A94.62,94.62,0,0,1,298.5,202c3.41-1.29,6.88-2.31,10.39-3.29,2.64-.73,3.26-2,5.47-3.68,6.38-4.93,18.23-9.94,13.24-20.15l-2,2.58,5.42,1.35a1.78,1.78,0,0,0,2.16-1.23,43.18,43.18,0,0,1,5.35-13.71c2-3.26,6.46-10.81,11-8.89a1.76,1.76,0,0,0,2-.81c3.31-7.1,13.45-5.74,19.7-4.36,1.58.35,3.14-1.73,1.71-2.94l-7.58-6.45-.78,2.94,22.11-5.78a1.77,1.77,0,0,0-.47-3.46,42.65,42.65,0,0,1-17.57-4.59l-.42,3.21,12-4.31a1.78,1.78,0,0,0,.42-3.21l-7-4.64v3l20.81-14.91a1.76,1.76,0,0,0-1.77-3A72.82,72.82,0,0,1,371,112.51c-2.23.34-1.28,3.74.94,3.4a75.51,75.51,0,0,0,22.59-7.22l-1.77-3L371.9,120.56a1.79,1.79,0,0,0,0,3l7,4.64.42-3.22-12,4.31c-1.31.47-1.87,2.48-.42,3.22a46.83,46.83,0,0,0,19.35,5.07l-.47-3.45-22.1,5.77a1.78,1.78,0,0,0-.78,2.95l7.58,6.44,1.71-2.94c-7.84-1.73-19.6-2.75-23.67,6l2-.8c-5.53-2.32-9.46,2.86-12.49,6.83a45.62,45.62,0,0,0-8.22,18.23L332,175.4l-5.41-1.35a1.78,1.78,0,0,0-2,2.58c3.55,7.26-6.5,11.54-11,14.62-1.6,1.09-3,2.56-4.62,3.51-2.54,1.44-6,1.94-8.79,2.9a105.89,105.89,0,0,0-14.6,6.3c-5.54,2.91-5.56,3-5.92,9.13l2.65-1.51c-7.34-4-15.32-2.32-22.92,0-8.58,2.63-18.65,7.31-27.19,2.28a1.79,1.79,0,0,0-2.59,1C226.37,223,234,231.44,242.26,230l-1.36-3.22a7.86,7.86,0,0,1-11.18-5.4,1.72,1.72,0,0,0-1.23-1.23c-10.92-2-21.61,7.42-20.24,18.66l3.45-.47q-.8-5.72-1.61-11.44a1.77,1.77,0,0,0-2.16-1.22A11.64,11.64,0,0,0,199.87,242l2.76-2.13-5-6.11c-1.07-1.29-2.61-4.15-4.1-4.89-2.1-1.05-5.15.33-6.93,1.58-5.67,4-5.48,11.13-1.27,16.05l2.49-2.49a42.32,42.32,0,0,1-10.87-13.18,1.71,1.71,0,0,0-1.52-.87c-10.8,1-8.42,13-5.21,19.84l3-1.77-8.82-12.4a1.8,1.8,0,0,0-3,0,17.88,17.88,0,0,0-3.47,13.95l3.21-1.35a18.35,18.35,0,0,0-10.3-10.08c-1.11-.46-2.19.69-2.22,1.7a29.5,29.5,0,0,0,7.88,21.42l2.49-2.49A41.3,41.3,0,0,0,145,248.91a1.8,1.8,0,0,0-2.65,1.52l-.9,7.4,3.46-.46a32.8,32.8,0,0,0-5.33-9.72c-1-1.29-2.94-.12-3,1.25Q136,263,135.34,277.19l3.28-.89a56.41,56.41,0,0,1-4.52-25.19c.09-1.94-3.16-2.45-3.46-.47q-1.2,8.19-2.41,16.37l3.22-.42a26,26,0,0,0-5.42-8,1.78,1.78,0,0,0-2.94.77q-1.45,3.72-2.93,7.44h3.4l-2.06-5.67a1.78,1.78,0,0,0-3.21-.42,23.91,23.91,0,0,0,2.85,27.76l2.49-2.49a82.77,82.77,0,0,1-14-18.83,1.78,1.78,0,0,0-3.22.42q-1.26,5.85-2.53,11.68h3.39A9.1,9.1,0,0,0,99,272.88a1.79,1.79,0,0,0-1.76,1.76q-.74,14-1.48,28l3.45-.47a94,94,0,0,1-3-23.54,1.77,1.77,0,0,0-3.46-.47Q90,288.4,87.32,298.67l3.46.47-.78-12c-.11-1.64-2.41-2.53-3.28-.89q-2.53,4.77-5.06,9.55l3.21.42-1.41-7.92c-.37-2.08-3.29-1.37-3.45.47a97.55,97.55,0,0,1-9.53,34.39l3.22,1.36A184.73,184.73,0,0,0,78.46,302a1.77,1.77,0,0,0-2.94-1.71l-6,5.42,3,1.25-1-9.59c-.17-1.56-2.43-2.61-3.28-.89a74.83,74.83,0,0,0-7.46,26.08h3.52a97.23,97.23,0,0,0-4.69-24.23,1.77,1.77,0,0,0-3.39,0,48,48,0,0,1-8.79,14.89l3,1.25v-8.78a1.78,1.78,0,0,0-3-1.24l-4.93,4.85H45a7.52,7.52,0,0,1-2.5-3.66,1.78,1.78,0,0,0-3.21-.42L27.57,323.32l3.22.42c-.78-2.26-1.55-4.53-2.32-6.79a1.79,1.79,0,0,0-3.22-.42,62.87,62.87,0,0,0-8.51,24.63l3.46-.47c-1.92-6.51-12.49-7.58-18-8.86l1.29,1.69V125.38l-1.76,1.76a63.26,63.26,0,0,0,34.8-10.41,29.25,29.25,0,0,0,6.35-5.6c2.08-2.55,3.2-5.95,5.68-8.16,3.45-3.07,8.29-2.39,12.47-3.37A21.19,21.19,0,0,0,69,95.75c6.28-4.69,11.17-11.14,17.26-16.12a103.48,103.48,0,0,1,22.45-14c7.43-3.39,15.71-4.4,22.26-9.54,5.44-4.27,9.44-10,13.33-15.66l-3-1.78-5.59,8.81c-.77,1.22.54,3.14,2,2.58l8.11-3.13-2-.81,3.54,6.75a1.81,1.81,0,0,0,2,.81A23.17,23.17,0,0,0,161.08,48l-2.94-.78c.87,4.39,5.7,4.38,9.1,2.9,6.06-2.64,10.29-10.38,12.87-16.08l-3-1.78L172.74,42a1.78,1.78,0,0,0,1.52,2.65A26.79,26.79,0,0,0,199,23.36l-3.46-.47c-.22,2.51-.45,5-.67,7.54-.15,1.63,2,2.17,3,1.24a191.94,191.94,0,0,0,17.75-18.1l-2.49-2.49L202.91,23.9c-1,1.23-.13,3.57,1.71,2.94a42.81,42.81,0,0,0,20.64-15l-3-1.77L218,16.35A1.77,1.77,0,0,0,219.48,19,32.82,32.82,0,0,0,243.19,8.21l-2.48-2.48a51.35,51.35,0,0,1-11.21,9.63,1.78,1.78,0,0,0,.89,3.28A25.47,25.47,0,0,0,249,12l-2.49-2.48-3.6,4.05a1.78,1.78,0,0,0,1.24,3,44.34,44.34,0,0,0,18.49-1.78l-1.35-3.22-2,1.09a1.78,1.78,0,0,0,0,3c8.33,5.64,19.25,4.06,26.45-2.66l-2.49-2.49a66.92,66.92,0,0,1-6,6.45,1.78,1.78,0,0,0,1.25,3A27.07,27.07,0,0,0,304.12,2.17l-3.4-.94A17.54,17.54,0,0,1,294,12.33c-1.4,1.09.11,3.47,1.71,2.94C303.09,12.8,310,17,316.62,11.66L313.68,10c-1.76,5.57-5.82,13.78,1.26,17.27a9.91,9.91,0,0,0,7.16.54,103.09,103.09,0,0,1,13.32-3.52l-.94-3.4A84.86,84.86,0,0,0,325.72,23a1.78,1.78,0,0,0-.42,3.21,36.51,36.51,0,0,0,28.62,3.11L353,25.94l-8.8,2.86A1.78,1.78,0,0,0,343,31c1.65,4,4.71,5.29,8.93,5.17l-1.24-3-1.08,1.06a1.77,1.77,0,0,0,0,2.48L355,42.82a1.8,1.8,0,0,0,2.13.28L367.81,38,366,35a73.3,73.3,0,0,0-13.2,8.7,1.78,1.78,0,0,0,0,2.48c5.83,7.3,16.18,5.84,22.91.73l-2.13-2.77a55,55,0,0,1-6.26,4.6,1.79,1.79,0,0,0-.35,2.77l4.1,4.8a1.74,1.74,0,0,0,1.71.45A40.65,40.65,0,0,0,382.2,53l-1.77-3a61.92,61.92,0,0,1-12.24,6.89c-1.51.64-1.81,2.87,0,3.4a32.15,32.15,0,0,0,26.15-3.46l-1.78-3a21.61,21.61,0,0,1-16.85,4.41,1.79,1.79,0,0,0-2.23,1.7,11.53,11.53,0,0,0,7.15,10.4c5.72,2.61,12.2.78,17.88-.93l-2.16-2.17C395.06,75,375.9,61.55,373.44,73A1.79,1.79,0,0,0,376,75l2.77-1.13-2.23-1.7a26.84,26.84,0,0,1-6,14.06,1.78,1.78,0,0,0,1.71,3,24.56,24.56,0,0,0,3.4-.87l-1.36-3.22A49.93,49.93,0,0,1,368,87.4a1.79,1.79,0,0,0-.42,3.22A18.38,18.38,0,0,0,379.34,93l-.89-3.28a117.27,117.27,0,0,1-11.76,4.58,1.79,1.79,0,0,0-.42,3.22,15.23,15.23,0,0,0,13,2.72c1.94-.42,1.52-3.54-.46-3.46l-5.43.2.47,3.46a23.39,23.39,0,0,1,9.86-1l-.89-3.28a23.75,23.75,0,0,0-13.06,17.62C369.37,116,372.76,116.91,373.13,114.68Z"/><path class="cls-1" d="M387.93,86.76q-4.19,2.43-8.59,4.47A15.14,15.14,0,0,0,387.93,86.76Z"/><path class="cls-2" d="M387.05,85.24q-4.2,2.42-8.6,4.47c-1.92.9-.47,3.55,1.36,3.22A17.29,17.29,0,0,0,389.18,88c1.58-1.63-.91-4.12-2.49-2.49a14,14,0,0,1-7.82,4l1.36,3.22q4.39-2.06,8.59-4.47A1.76,1.76,0,0,0,387.05,85.24Z"/><path class="cls-1" d="M393.21,39.7a57.53,57.53,0,0,1-11.89,11.74A33.6,33.6,0,0,0,393.21,39.7Z"/><path class="cls-2" d="M391.69,38.81a57.26,57.26,0,0,1-11.26,11.11c-1.77,1.32-.22,4.24,1.77,3a36.56,36.56,0,0,0,12.53-12.38c1.18-1.94-1.86-3.71-3-1.77a32.8,32.8,0,0,1-11.26,11.11l1.77,3a63.08,63.08,0,0,0,12.53-12.38C396.1,38.78,393.05,37,391.69,38.81Z"/><path class="cls-1" d="M379.38,40.86a47.61,47.61,0,0,0,5.31-7.38A83.52,83.52,0,0,1,379.38,40.86Z"/><path class="cls-2" d="M380.63,42.11a53.71,53.71,0,0,0,5.58-7.74c1.17-2-1.79-3.65-3-1.78a84.74,84.74,0,0,1-5,7c-1.43,1.74,1.05,4.24,2.49,2.49,2-2.47,3.82-5.09,5.58-7.74l-3-1.78a47.82,47.82,0,0,1-5,7C376.66,41.32,379.14,43.82,380.63,42.11Z"/><path class="cls-1" d="M367.07,26.67a31.58,31.58,0,0,0-15.18,7.71,16.24,16.24,0,0,0,7.69-2.83A55,55,0,0,1,367.07,26.67Z"/><path class="cls-2" d="M366.6,25a34.7,34.7,0,0,0-16,8.15c-1.07,1-.29,3.19,1.24,3,6.48-.78,10.49-5.09,16.07-7.95,2-1,.24-4.07-1.78-3-4.84,2.49-8.66,6.8-14.29,7.47l1.25,3a31,31,0,0,1,14.4-7.25C369.75,27.89,368.82,24.5,366.6,25Z"/><path class="cls-1" d="M379.38,40.86a47.14,47.14,0,0,1-4.52,4.53A31.22,31.22,0,0,0,379.38,40.86Z"/><path class="cls-2" d="M378.14,39.62a50.74,50.74,0,0,1-4.52,4.52,1.78,1.78,0,0,0,0,2.49,1.8,1.8,0,0,0,2.49,0,33.87,33.87,0,0,0,4.52-4.52,1.81,1.81,0,0,0,0-2.49,1.77,1.77,0,0,0-2.49,0,33.87,33.87,0,0,1-4.52,4.52l2.49,2.49a52.11,52.11,0,0,0,4.52-4.52C382.12,40.41,379.64,37.91,378.14,39.62Z"/><path class="cls-1" d="M375.34,26.15c-2.69-1.37-5.51-.81-8.27.52A30.59,30.59,0,0,1,375.34,26.15Z"/><path class="cls-2" d="M376.23,24.63c-3.43-1.58-6.71-1-10.05.52-1.91.89-.48,3.57,1.36,3.22a30.9,30.9,0,0,1,7.8-.46c2.26.15,2.25-3.37,0-3.52a34.66,34.66,0,0,0-8.74.59L368,28.19c2.07-1,4.32-1.52,6.49-.52S378.28,25.58,376.23,24.63Z"/><path class="cls-1" d="M330.49,17.75l-9.05,7.67c1-.27,2-.53,3-.77C326.9,22.91,328.76,20.28,330.49,17.75Z"/><path class="cls-2" d="M329.24,16.5l-9.05,7.68c-1.38,1.18.11,3.38,1.72,2.94a18,18,0,0,0,3.42-.95,11.1,11.1,0,0,0,2.42-2.06A40.31,40.31,0,0,0,332,18.64c1.28-1.88-1.77-3.64-3-1.78a39.36,39.36,0,0,1-3.29,4.32,8.37,8.37,0,0,1-1.92,1.7,12.69,12.69,0,0,1-2.79.85l1.71,2.94L331.73,19C333.46,17.53,331,15.05,329.24,16.5Z"/><path class="cls-1" d="M366.93,36.52l2.15-1C368.36,35.83,367.64,36.17,366.93,36.52Z"/><path class="cls-2" d="M367.81,38,370,37a1.76,1.76,0,0,0,.63-2.41,1.81,1.81,0,0,0-2.41-.63c-.72.32-1.44.66-2.15,1a1.77,1.77,0,0,0-.63,2.41,1.79,1.79,0,0,0,2.4.63c.72-.35,1.44-.69,2.16-1l-1.78-3L366,35a1.76,1.76,0,0,0-.63,2.41A1.79,1.79,0,0,0,367.81,38Z"/><path class="cls-3" d="M273.06,48.69c-1.62-2.27-4.6-3.11-7.37-3.39-11.42-1.13-22.52,4.65-34,4.52-3.87,0-8.38-.53-11,2.32-1.57,1.71-2,4.17-2.17,6.48a88.18,88.18,0,0,0-.07,15.92l.57.33c2.79,2.75,4.22,6.56,6.41,9.81s5.83,6.15,9.67,5.4a12.56,12.56,0,0,0,4.08-1.86c12.43-7.57,25.36-15.64,32.69-28.2C273.92,56.55,275.41,52,273.06,48.69Z"/><path class="cls-2" d="M273.68,48.07c-4.49-5-12.44-4.08-18.44-3.11-4.55.74-9,2-13.53,2.88-4.91,1-9.58.78-14.5,1.07-6.26.37-8.87,3.68-9.55,9.71a78.79,78.79,0,0,0-.21,14.16c.22,3.08,1.67,3.23,3.51,6,3.16,4.76,5.85,12.16,12.73,12.31,3.23.07,6-2.12,8.62-3.73,3.58-2.2,7.13-4.44,10.56-6.85a73.72,73.72,0,0,0,16.31-14.92c3.73-4.83,8-11.27,4.64-17.33-.54-1-2.06-.11-1.52.88,3.75,6.83-4.12,15.46-8.55,20a84,84,0,0,1-13.06,10.71c-4.21,2.89-12.77,10.35-18.16,9.29-6.44-1.26-8.06-9.46-11.81-13.74-1.35-1.53-1.5-1.36-1.56-3.53-.08-3.25-.18-6.48,0-9.73.25-4.61.42-9.18,5.4-11.17,2.72-1.08,6.84-.19,9.72-.36,5.56-.32,10.95-1.79,16.37-3,6.38-1.4,16.74-4,21.8,1.65C273.2,50.15,274.44,48.91,273.68,48.07Z"/><path class="cls-3" d="M340.76,64.09c-1.92-1.82-9.57-5.31-12.28-5.37-8.57-.16-15-.46-22.6,3.24-7.46,3.6-9.06,8.76-14.53,14.82l-3.51,7.53c-1.51,4.08-3,8.81-.69,12.54,1.92,3.14,6.05,4.53,9.82,4.26s7.28-1.94,10.58-3.71c9.86-5.27,18.59-8.43,27.4-15.19,2.42-1.85,6.18-5,7.58-7.66S343,66.17,340.76,64.09Z"/><path class="cls-2" d="M341.39,63.47c-8-6.62-19.74-7-29.41-4.65a26.86,26.86,0,0,0-14.73,9c-2.85,3.47-5.92,6.93-7.81,11-3.27,7-8.27,18.17,1.58,22.24,5.24,2.16,10.78.23,15.55-2.15,6.92-3.45,14-6.74,20.74-10.59,7.95-4.58,23.2-14.18,14.08-24.85-.74-.87-2,.38-1.25,1.24,10,11.74-15,23-22.74,26.78-6.17,3-13.43,8.3-20.43,8.74-5.22.32-9.57-2.44-10.12-7.91-.28-2.74,1.14-6.08,2.23-8.58,3.24-7.42,8.65-16.21,15.83-20.28,9.85-5.6,26.09-6.32,35.23,1.25C341,65.43,342.26,64.19,341.39,63.47Z"/><path class="cls-3" d="M345,105.16c-2.63-2.24-6.6-1.42-9.92-.44-11.79,3.49-31.62,12.73-31.62,12.73a21.32,21.32,0,0,0-7.94,13.06c-.55,3.09-.3,6.55,1.72,9a14.85,14.85,0,0,0,2.93,2.43L314,151.41a4.81,4.81,0,0,0,2.78,1.14,4.75,4.75,0,0,0,2.89-1.68,171.8,171.8,0,0,0,22.11-26.32c2.71-4,5.33-8.31,5.52-13.12C347.35,109.13,346.77,106.66,345,105.16Z"/><path class="cls-2" d="M345.47,104.4c-4.2-2.73-9-1.1-13.4.36-5.34,1.77-10.56,3.89-15.74,6.07-6.84,2.88-14.09,4.85-18.35,11.32-2.58,3.92-4.38,9.27-3.25,14,1.26,5.3,7,7.9,11.15,10.74,3.24,2.24,8.59,8.19,12.86,5.84,2.3-1.26,4.2-3.86,6-5.73q4.06-4.26,7.84-8.79c5.93-7.14,22-23.8,13.09-33.66-.77-.84-2,.41-1.25,1.25,5.77,6.35-1.67,15.93-5.49,21.29a168.53,168.53,0,0,1-12.35,15.35c-2.09,2.31-4.34,5.4-6.9,7.19-4.42,3.07-7.87-.79-11.36-3.2-6.24-4.31-13.58-7.55-11.73-16.44,2-9.6,8.62-12.44,16.49-15.85,4.61-2,9.26-3.94,14-5.71,5-1.86,12.64-5.7,17.56-2.5C345.53,106.54,346.42,105,345.47,104.4Z"/><path class="cls-3" d="M262.91,185a1.5,1.5,0,0,1-2.13.8,61.67,61.67,0,0,1,30.3-21.94,23.26,23.26,0,0,1,9-1.45,10.54,10.54,0,0,1,7.87,4.08c3,4.34,1.16,10.46-2,14.73-5.46,7.48-14.22,12.11-23.3,13.94-4.13.83-8.48,1.12-12.49-.16s-7.64-4.33-8.72-8.4"/><path class="cls-2" d="M262.16,184.51l-1.15.39.53,1.3A62,62,0,0,1,281.36,169c7.28-4,28.81-12,27.07,4-1,9.18-10.64,16-18.56,19.07-8.88,3.5-23.65,5.72-27.56-5.76-.36-1.07-2.06-.61-1.7.46,7.53,22.11,47.46,4.69,49.62-13.54a10,10,0,0,0-5.3-10.45c-5.13-2.66-11.28-.92-16.33,1A63.6,63.6,0,0,0,260,185.31a.88.88,0,0,0,.52,1.29,2.55,2.55,0,0,0,3.13-1.2c.67-.92-.85-1.8-1.51-.89Z"/><path class="cls-3" d="M251.43,114.75c-.07-4,3.2-8,1.72-11.81-1.06-2.67-4.12-3.94-7-4.41a24.13,24.13,0,0,0-14.89,2.33c-2.85,1.47-5.71,3.58-8.9,3.21-4.77-.55-7-6-10.24-9.56-3.89-4.22-10-5.92-15.71-5.38s-11.06,3.07-15.85,6.23c-6,4-11.64,9.46-13.29,16.51s2.08,15.66,9.14,17.27c3.31.76,6.9,0,10.06,1.19a3.63,3.63,0,0,1,2.12,1.71,4.62,4.62,0,0,1,.24,2.25c-.43,7.23-.7,15.57,4.67,20.45,1.42,1.29,3.21,2.29,4.11,4a4.9,4.9,0,0,1-6.22,6.81l-1.13.08c2.87,1.54,3.47,5.45,2.93,8.67s-1.84,6.38-1.46,9.62c.64,5.51,6.2,9.44,11.72,10s10.95-1.57,16-4a129.21,129.21,0,0,0,15.4-8.66c2.31-1.52,4.63-3.17,6.06-5.53,2.26-3.72,1.88-8.39,2-12.75s1.23-9.31,5.07-11.38c2.53-1.36,5.66-1.1,8.29-2.27,3.94-1.75,5.83-6.18,7.26-10.25a13.78,13.78,0,0,0,1-4.31C264.64,126.53,251.57,123,251.43,114.75Z"/><path class="cls-2" d="M252.31,114.75c.4-5.26,4.66-11.14-.83-15.14-4-2.93-10.25-2.67-14.81-1.62-3.73.86-6.49,3.12-10,4.28-6.3,2.07-8.7-1.81-12.08-6.21a19.2,19.2,0,0,0-13.66-7.77c-11.91-1.27-26.12,7.3-32,17.48-4.61,8-3.45,21,6.76,24a21.12,21.12,0,0,0,5.07.61c3.56.16,7.36,2.25,7.19,6.07a42.81,42.81,0,0,0,.43,9.86,16.75,16.75,0,0,0,3.61,8c1.57,1.78,3.13,2.64,4.33,4.78,1.93,3.44,2.19,3.18-4.69,5.55a6.65,6.65,0,0,1-1.25.07.89.89,0,0,0-.45,1.64c6.7,4.7-1.44,15.2,2.49,21.78,2.94,5,9,7,14.45,6.62,7.41-.52,14.63-4.61,20.95-8.17,5.49-3.08,12.81-6.48,15-12.84,2.55-7.36-2-19.56,8.15-22.26,6.46-1.71,9.65-2.93,12.44-9.46,2-4.72,3.07-9-.18-13.35-3.45-4.64-10.34-7.62-10.86-13.95-.09-1.12-1.85-1.13-1.76,0,.86,10.39,16,12.48,12.14,24.1-1.4,4.24-3.49,8.54-8,10.11-2.82,1-5.73.69-8.22,2.59-3.27,2.49-4.17,6.9-4.4,10.77-.25,4.32.46,9.07-1.91,13-2.21,3.65-6.65,5.88-10.23,8-6.84,4.1-15,9.16-23.13,9.7-4.12.27-8.41-.77-11.39-3.8-4.48-4.52-2-9.41-1.32-14.7.53-3.81-.07-7.37-3.34-9.66l-.44,1.64c3.22-.23,6.27.8,8.13-2.81,2.27-4.43-1.53-6.89-4.27-9.57-5.84-5.7-4-13.2-4.4-20.41-.25-4.43-4.58-4.77-8.23-5-4.6-.33-8.44-.81-11.2-4.94A15.09,15.09,0,0,1,168,113.26c1.18-8.32,8.42-14.47,15.24-18.51,7-4.17,16.2-6.89,23.94-2.87,5.33,2.76,7,8.83,11.89,11.87,5.66,3.51,11.15-1.94,16.41-3.62,4.15-1.33,10.49-1.95,14.3.67,4.84,3.32,1.11,9.33.76,14C250.46,115.88,252.23,115.87,252.31,114.75Z"/><path class="cls-2" d="M250.78,92.67a102.36,102.36,0,0,1,18.3-2,.44.44,0,0,0,0-.88,103,103,0,0,0-18.53,2.09c-.56.11-.32,1,.23.84Z"/><path class="cls-2" d="M253,88.61c6.73-4.56,14.25-7.39,21.86-10.13.53-.19.3-1-.24-.85-7.67,2.76-15.28,5.62-22.07,10.22-.46.32,0,1.08.45.76Z"/><path class="cls-2" d="M264.23,74.77q8-4.38,15.66-9.3c.48-.31,0-1.07-.44-.76q-7.68,4.92-15.67,9.3c-.5.27,0,1,.45.76Z"/><path class="cls-2" d="M256.63,113.75A40.35,40.35,0,0,1,269,105.58c.52-.22.07-1-.45-.76A41.09,41.09,0,0,0,256,113.13c-.4.4.22,1,.63.62Z"/><path class="cls-2" d="M260.5,119.62l8.71-2.29a.44.44,0,0,0-.23-.85l-8.71,2.29a.44.44,0,0,0,.23.85Z"/><path class="cls-2" d="M264.88,131.48a77.86,77.86,0,0,1,11.62.66c.56.08.56-.8,0-.88a77.86,77.86,0,0,0-11.62-.66.44.44,0,0,0,0,.88Z"/><path class="cls-2" d="M266.17,142.71l10.65-.91c.56-.05.57-.93,0-.88l-10.65.91c-.56,0-.57.93,0,.88Z"/><path class="cls-2" d="M255.74,154.34l9,2.24c.55.14.79-.71.24-.85l-9-2.24a.44.44,0,0,0-.23.85Z"/><path class="cls-2" d="M248.31,162.72a36.8,36.8,0,0,0,8.18.74.44.44,0,0,0,0-.88,35.83,35.83,0,0,1-7.94-.71c-.56-.11-.79.74-.24.85Z"/><path class="cls-2" d="M245,173.24a21.62,21.62,0,0,1,9.75-.84c.55.08.79-.76.23-.84a22.36,22.36,0,0,0-10.21.83c-.54.17-.31,1,.23.85Z"/><path class="cls-2" d="M195.79,203.16a.44.44,0,0,0,0-.88.44.44,0,0,0,0,.88Z"/><path class="cls-2" d="M172.33,149.19,183,146.64c.55-.13.32-1-.23-.85l-10.66,2.55c-.55.13-.32,1,.23.85Z"/><path class="cls-2" d="M179.33,159.57a.44.44,0,0,0,0-.88.44.44,0,0,0,0,.88Z"/><path class="cls-2" d="M174,174.53a45.66,45.66,0,0,1,12.42-2.79c.56,0,.57-.92,0-.88a46.11,46.11,0,0,0-12.65,2.82c-.53.2-.3,1,.23.85Z"/><path class="cls-2" d="M172.13,189.22l17.11-7.74c.51-.23.07-1-.45-.76l-17.11,7.74c-.51.24-.07,1,.45.76Z"/><path class="cls-2" d="M150,118.37a133.06,133.06,0,0,1-14.44,6c-.53.19-.3,1,.24.85a134,134,0,0,0,14.64-6.14c.51-.25.06-1-.44-.76Z"/><path class="cls-2" d="M159,106.87c-9-1.15-13.91-9.22-17.51-16.73-.24-.51-1-.06-.76.45,3.77,7.86,8.87,16,18.27,17.16.56.07.55-.81,0-.88Z"/><path class="cls-2" d="M167.83,96.82c-1-7.26,1.22-14.08,3.61-20.85.19-.53-.66-.76-.85-.23-2.46,7-4.66,13.87-3.61,21.32.08.56.93.32.85-.24Z"/><path class="cls-2" d="M185,88.15q3.63-10.05,8-19.8c.23-.52-.53-1-.76-.45q-4.41,9.87-8.07,20c-.2.53.65.76.84.23Z"/><path class="cls-2" d="M204.83,76.6a.44.44,0,0,0,0-.88.44.44,0,0,0,0,.88Z"/><path class="cls-2" d="M334.41,85.61A129.45,129.45,0,0,0,352,77.83c.49-.27.05-1-.45-.76a128.92,128.92,0,0,1-17.33,7.7c-.53.19-.3,1,.24.84Z"/><path class="cls-2" d="M338.21,89.43c6.08-3,12.17-6.64,18.82-8.22.55-.13.32-1-.23-.85-6.74,1.6-12.88,5.26-19,8.31-.5.25-.06,1,.45.76Z"/><path class="cls-2" d="M319.16,99.37q6.54-4.16,13-8.49c.46-.31,0-1.08-.45-.76q-6.42,4.34-13,8.49c-.48.3,0,1.06.44.76Z"/><path class="cls-2" d="M351.65,105.15a33.46,33.46,0,0,1,11.57-7.71c.52-.21.29-1.06-.24-.85a34.57,34.57,0,0,0-12,7.93c-.4.41.22,1,.62.63Z"/><path class="cls-2" d="M351.28,112a57.56,57.56,0,0,1,13.17-4.68c.55-.12.32-1-.23-.85a58.32,58.32,0,0,0-13.38,4.77c-.51.25-.07,1,.44.76Z"/><path class="cls-2" d="M348,121.26a69.28,69.28,0,0,1,15.51-6.12.44.44,0,0,0-.23-.85,70.1,70.1,0,0,0-15.73,6.21c-.5.27-.05,1,.45.76Z"/><path class="cls-2" d="M283.93,166.68a.44.44,0,0,0,0-.88.44.44,0,0,0,0,.88Z"/><path class="cls-2" d="M290.07,154.67q3.68,6.21,7.52,12.33c.3.48,1.07,0,.76-.44q-3.86-6.12-7.52-12.34a.44.44,0,0,0-.76.45Z"/><path class="cls-2" d="M281.7,158a35.9,35.9,0,0,0,4.39,11.72.44.44,0,0,0,.76-.44,35.23,35.23,0,0,1-4.3-11.51c-.11-.56-1-.32-.85.23Z"/><path class="cls-2" d="M272.17,164.76a.71.71,0,0,0,.1,1.1l.62,1.39,1.09,2.44,2.34,5.22c.23.51,1,.06.76-.45l-2.81-6.26c-.53-1.19-1-3.32-2.1-4.06a.43.43,0,0,0-.45,0l-.24.13a.47.47,0,0,0-.2.5l0,.22c.11.56,1,.32.85-.23Z"/><path class="cls-2" d="M267,169.26a23.85,23.85,0,0,0,3.29,8.17c.31.48,1.07,0,.76-.44a23,23,0,0,1-3.2-8c-.11-.56-1-.32-.85.23Z"/><path class="cls-2" d="M257.05,182a21.16,21.16,0,0,0,6.66,8.19c.46.34.9-.43.45-.76a20.29,20.29,0,0,1-6.35-7.87c-.23-.51-1-.07-.76.44Z"/><path class="cls-2" d="M150.91,213.38a69.38,69.38,0,0,1,26.23,5.93c.51.22,1-.54.44-.76a70.76,70.76,0,0,0-26.67-6.05.44.44,0,0,0,0,.88Z"/><path class="cls-2" d="M156.8,201.41c8.32-2,18,.52,26.37,1.55.56.07.56-.81,0-.88-8.55-1.05-18.09-3.57-26.61-1.52-.55.13-.31,1,.24.85Z"/><path class="cls-2" d="M106.54,213.46c6,5.88,13.86,8.65,21.71,11.22.54.17.77-.68.23-.85-7.71-2.53-15.39-5.21-21.31-11-.41-.4-1,.22-.63.62Z"/><path class="cls-2" d="M117.61,204.16a48.61,48.61,0,0,0,17.71,8.25c.55.13.79-.72.24-.85a47.86,47.86,0,0,1-17.51-8.16c-.45-.33-.89.43-.44.76Z"/><path class="cls-2" d="M42.06,148.64a121.86,121.86,0,0,0,2.66-12.56c.66-4.24.4-9,2.23-12.93.23-.51-.52-1-.76-.44-1.44,3.06-1.42,6.31-1.83,9.62a123.78,123.78,0,0,1-3.14,16.08.44.44,0,0,0,.84.23Z"/><path class="cls-2" d="M52.54,147.62a210.12,210.12,0,0,1,10.84-28c.24-.51-.51-1-.76-.45a211.55,211.55,0,0,0-10.93,28.24c-.17.54.68.77.85.23Z"/><path class="cls-2" d="M66,143.8q8.58-12.26,17.79-24.05c.35-.44-.27-1.07-.62-.62Q73.86,131,65.22,143.35c-.33.47.43.91.76.45Z"/><path class="cls-2" d="M102.91,99.65,114.7,75.36c.25-.51-.51-1-.76-.44L102.15,99.2c-.25.51.51,1,.76.45Z"/><path class="cls-2" d="M116.17,89l13-19.62c.32-.48-.44-.92-.76-.45l-13,19.63c-.31.47.45.91.76.44Z"/><path class="cls-2" d="M125.7,88.72a70.81,70.81,0,0,1,15.72-14.8c.47-.32,0-1.08-.44-.76a71.61,71.61,0,0,0-15.9,14.94c-.35.44.27,1.07.62.62Z"/><path class="cls-2" d="M18.92,229.79,37.24,250.2c.38.43,1-.2.62-.62L19.55,229.17c-.38-.43-1,.2-.63.62Z"/><path class="cls-2" d="M42.15,228.72a55.94,55.94,0,0,1,15.31,12.54c.37.43,1-.19.62-.62A56.67,56.67,0,0,0,42.6,228a.44.44,0,0,0-.45.76Z"/><path class="cls-2" d="M67.13,229.66A50.73,50.73,0,0,0,84.55,242.4c.51.22,1-.53.44-.76A50.3,50.3,0,0,1,67.75,229c-.37-.43-1,.2-.62.62Z"/><path class="cls-2" d="M93.37,236.85a26.25,26.25,0,0,0,10.22,8.79c.51.25,1-.51.44-.76a25.59,25.59,0,0,1-9.9-8.47c-.32-.46-1.09,0-.76.44Z"/><path class="cls-2" d="M15.55,285.31a55.49,55.49,0,0,1,20.37,7.16c.49.28.94-.48.45-.76a56.46,56.46,0,0,0-20.59-7.25c-.55-.08-.79.77-.23.85Z"/><path class="cls-2" d="M30.47,268a55.79,55.79,0,0,1,20.7,6.27c.5.27.94-.49.44-.76a56.89,56.89,0,0,0-21.14-6.39c-.56-.06-.56.82,0,.88Z"/><path class="cls-2" d="M41.66,255.82q11.24,3.3,22.59,6.17c.55.13.79-.71.24-.85Q53.14,258.28,41.9,255a.44.44,0,0,0-.24.85Z"/><path class="cls-2" d="M79.67,271.85l8.64,4.67c.5.27.94-.49.44-.76l-8.63-4.67c-.5-.27-1,.49-.45.76Z"/><path class="cls-2" d="M92.59,253.3a25.64,25.64,0,0,0,11.71,7,.44.44,0,0,0,.24-.85,24.76,24.76,0,0,1-11.33-6.78c-.4-.41-1,.22-.62.62Z"/><path class="cls-2" d="M112.9,246.72a39.6,39.6,0,0,0,8.19,3.25.44.44,0,0,0,.24-.85,39,39,0,0,1-8-3.16c-.5-.26-.94.49-.44.76Z"/><path class="cls-2" d="M19.23,189.77c8.81-3.23,17.93-2.49,27.07-1.56.56.06.56-.82,0-.88-9.21-.94-18.45-1.66-27.3,1.59-.53.19-.3,1,.23.85Z"/><path class="cls-2" d="M25.84,176.9a34.57,34.57,0,0,1,20.47-5c.56,0,.56-.85,0-.88a35.54,35.54,0,0,0-20.91,5.09.44.44,0,0,0,.44.76Z"/><path class="cls-2" d="M18,162.94a89,89,0,0,1,9.49-14.2c.36-.44-.26-1.06-.62-.62a90.12,90.12,0,0,0-9.63,14.37c-.27.5.49.95.76.45Z"/><path class="cls-2" d="M226.2,42.81q3.83-8.89,8.29-17.49c.26-.5-.5-.95-.76-.44q-4.47,8.6-8.28,17.49c-.23.51.53,1,.75.44Z"/><path class="cls-2" d="M243.05,38.33a99.86,99.86,0,0,0,9.24-16.21c.23-.51-.52-1-.76-.44a100.28,100.28,0,0,1-9.24,16.21c-.33.46.43.9.76.44Z"/><path class="cls-2" d="M264,32.81l5.39-8.13c.31-.48-.45-.92-.76-.45l-5.39,8.14c-.31.47.45.91.76.44Z"/><path class="cls-2" d="M291.87,42a148.78,148.78,0,0,0,21.39-15.89c.42-.37-.2-1-.63-.62a148.2,148.2,0,0,1-21.2,15.75c-.48.3,0,1.06.44.76Z"/><path class="cls-2" d="M299.56,51.53a56.48,56.48,0,0,0,16.21-5.05c.51-.24.07-1-.44-.76a55.58,55.58,0,0,1-16,5c-.56.08-.33.93.23.85Z"/><path class="cls-2" d="M332.53,45.44a113.17,113.17,0,0,0,18-8.11.44.44,0,0,0-.44-.76,113.16,113.16,0,0,1-17.83,8c-.53.19-.31,1,.23.85Z"/><path class="cls-2" d="M287.27,26.54c2.55-1.07,4.1-3.07,5.66-5.28a61.87,61.87,0,0,1,8.89-10.16c.42-.39-.21-1-.62-.63A58.88,58.88,0,0,0,294,18.31c-2.05,2.69-3.66,6-6.94,7.38-.52.22-.29,1.07.23.85Z"/><path class="cls-2" d="M357.89,69.87a67.39,67.39,0,0,0,11.36-5.12c.5-.28.06-1-.44-.76l-3.75,1.78c-.51.25-.06,1,.45.76l3.74-1.78-.44-.76a66.17,66.17,0,0,1-11.16,5c-.53.19-.3,1,.24.85Z"/><path class="cls-2" d="M284.57,116.28a100.26,100.26,0,0,0,22.09-3.79.44.44,0,0,0-.23-.85,99.37,99.37,0,0,1-21.86,3.76c-.56,0-.56.91,0,.88Z"/><path class="cls-2" d="M347.85,145.05a.44.44,0,0,0,0-.88.44.44,0,0,0,0,.88Z"/><path class="cls-2" d="M340.35,140.08a57,57,0,0,1,14,7.22c.47.32.91-.44.45-.76a58,58,0,0,0-14.24-7.31c-.54-.18-.77.67-.23.85Z"/><path class="cls-2" d="M172,60.6l9.32-17.14c.27-.49-.49-.94-.76-.44l-9.32,17.14c-.27.49.49.94.76.44Z"/><path class="cls-2" d="M204.41,43.39a92,92,0,0,1,6.24-13.84.44.44,0,0,0-.76-.45,93.41,93.41,0,0,0-6.33,14.06c-.19.53.66.76.85.23Z"/><path class="cls-2" d="M118.91,119a21.48,21.48,0,0,0,3.24,18.06c.33.46,1.09,0,.76-.45a20.55,20.55,0,0,1-3.15-17.38.44.44,0,0,0-.85-.23Z"/><path class="cls-2" d="M137.05,149.68a79.91,79.91,0,0,1,22.43-10.28.44.44,0,0,0-.24-.85,80.76,80.76,0,0,0-22.63,10.37c-.47.32,0,1.08.44.76Z"/><path class="cls-2" d="M142.5,177.18a58.55,58.55,0,0,1,10.34-.29c.56,0,.56-.85,0-.88a58.55,58.55,0,0,0-10.34.29c-.55.07-.56.95,0,.88Z"/><path class="cls-2" d="M53.86,200.25c1.37,8,8.36,15.81,13.92,21.36a.44.44,0,0,0,.62-.62c-5.41-5.4-12.35-13.17-13.69-21-.09-.56-.94-.32-.85.23Z"/><path class="cls-2" d="M75.42,198.92a39.31,39.31,0,0,0,14,19.63c.46.34.9-.42.45-.76a38.35,38.35,0,0,1-13.57-19.11c-.17-.54-1-.31-.84.24Z"/><path class="cls-2" d="M45.67,233.18a.44.44,0,0,0,0-.88.44.44,0,0,0,0,.88Z"/><path class="cls-2" d="M44.49,234.67c-3.77,3.62,2.91,6.38,5.41,7.75,6.64,3.66,13.22,7.34,20.95,7.76.57,0,.57-.85,0-.88-5.64-.31-10.56-2.34-15.53-4.93-1.48-.77-13.45-6-10.21-9.08.41-.39-.21-1-.62-.62Z"/><path class="cls-2" d="M13.54,246.11a30,30,0,0,0,13,9.2c.53.2.76-.65.23-.85a29.15,29.15,0,0,1-12.62-9c-.36-.44-1,.19-.62.62Z"/><path class="cls-2" d="M63.92,281.63c6.26,1.22,11.62,5.69,18.25,4.83.55-.07.56-.95,0-.88-6.52.85-11.85-3.6-18-4.8-.55-.11-.79.74-.23.85Z"/><path class="cls-2" d="M200,127.07a.22.22,0,0,0,0-.44.22.22,0,0,0,0,.44Z"/><path class="cls-2" d="M208.06,123.19a.22.22,0,0,0,0-.44.22.22,0,0,0,0,.44Z"/><path class="cls-2" d="M206.45,132.56a.22.22,0,0,0,0-.44.22.22,0,0,0,0,.44Z"/><path class="cls-2" d="M216.13,126.42a.22.22,0,0,0,0-.44.22.22,0,0,0,0,.44Z"/><path class="cls-2" d="M205.8,115.77a.22.22,0,0,0,0-.44.22.22,0,0,0,0,.44Z"/><path class="cls-2" d="M199,125.45a.22.22,0,0,0,0-.44.22.22,0,0,0,0,.44Z"/><path class="cls-2" d="M201.6,134.82a.22.22,0,0,0,0-.44.22.22,0,0,0,0,.44Z"/><path class="cls-2" d="M208.17,131.24,212,129.3c.26-.13,0-.51-.22-.38L208,130.86c-.25.12,0,.5.22.38Z"/><path class="cls-2" d="M203.22,114.8a.22.22,0,0,0,0-.44.22.22,0,0,0,0,.44Z"/><path class="cls-2" d="M191.59,118.35a.22.22,0,0,0,0-.44.22.22,0,0,0,0,.44Z"/><path class="cls-2" d="M197.08,132.23a.22.22,0,0,0,0-.44.22.22,0,0,0,0,.44Z"/><path class="cls-2" d="M212.26,122.23a.22.22,0,0,0,0-.44.22.22,0,0,0,0,.44Z"/><path class="cls-2" d="M224.52,127.07a.22.22,0,0,0,0-.44.22.22,0,0,0,0,.44Z"/><path class="cls-2" d="M229.52,122.16l2.59-2.58c.2-.2-.11-.51-.32-.31l-2.58,2.58a.22.22,0,0,0,.31.31Z"/><path class="cls-2" d="M232.92,138.69a.22.22,0,0,0,0-.44.22.22,0,0,0,0,.44Z"/><path class="cls-2" d="M229,158.06a.22.22,0,0,0,0-.44.22.22,0,0,0,0,.44Z"/><path class="cls-2" d="M207.74,172.91a.22.22,0,0,0,0-.44.22.22,0,0,0,0,.44Z"/><path class="cls-2" d="M225.49,174.53a.22.22,0,0,0,0-.44.22.22,0,0,0,0,.44Z"/><path class="cls-2" d="M209.67,183.89a.22.22,0,0,0,0-.44.22.22,0,0,0,0,.44Z"/><path class="cls-2" d="M215,172.8l3.23-6.45c.12-.26-.26-.48-.38-.23l-3.23,6.46c-.13.25.25.48.38.22Z"/><path class="cls-2" d="M241,131.79h-.32a.22.22,0,0,0,0,.44H241a.22.22,0,0,0,0-.44Z"/><path class="cls-2" d="M214.67,118.3l-.32-.32a.22.22,0,0,0-.31.31l.32.32a.22.22,0,0,0,.31-.31Z"/><path class="cls-2" d="M189.66,109a.22.22,0,0,0,0-.44.22.22,0,0,0,0,.44Z"/><path class="cls-2" d="M194.18,125.13a.22.22,0,0,0,0-.44.22.22,0,0,0,0,.44Z"/><path class="cls-2" d="M243.9,63.47a.22.22,0,0,0,0-.44.22.22,0,0,0,0,.44Z"/><path class="cls-2" d="M234.21,76.38a.22.22,0,0,0,0-.44.22.22,0,0,0,0,.44Z"/><path class="cls-2" d="M229.53,65.35l-.32.32c-.2.21.11.52.31.32l.33-.33c.2-.2-.11-.51-.32-.31Z"/><path class="cls-2" d="M238.73,65.41a61.79,61.79,0,0,1,11.62,0c.29,0,.28-.41,0-.44a61.79,61.79,0,0,0-11.62,0c-.28,0-.28.47,0,.44Z"/><path class="cls-2" d="M232.73,71.43,234.34,75c.12.26.5,0,.38-.22l-1.61-3.55c-.12-.26-.5,0-.38.22Z"/><path class="cls-2" d="M231,70.57a.22.22,0,0,0,0-.44.22.22,0,0,0,0,.44Z"/><path class="cls-2" d="M241.64,59.59a.22.22,0,0,0,0-.44.22.22,0,0,0,0,.44Z"/><path class="cls-2" d="M257.46,56.69a.22.22,0,0,0,0-.44.22.22,0,0,0,0,.44Z"/><path class="cls-2" d="M251.78,63.46l-4.85,6.46c-.17.22.22.44.38.22l4.85-6.46c.17-.23-.22-.44-.38-.22Z"/><path class="cls-2" d="M314,82.19a.22.22,0,0,0,0-.44.22.22,0,0,0,0,.44Z"/><path class="cls-2" d="M300.07,87.68a.22.22,0,0,0,0-.44.22.22,0,0,0,0,.44Z"/><path class="cls-2" d="M304.59,75.41a.22.22,0,0,0,0-.44.22.22,0,0,0,0,.44Z"/><path class="cls-2" d="M304.59,86.39a.22.22,0,0,0,0-.44.22.22,0,0,0,0,.44Z"/><path class="cls-2" d="M295.23,90.91a.22.22,0,0,0,0-.44.22.22,0,0,0,0,.44Z"/><path class="cls-2" d="M312.34,75.74a.22.22,0,0,0,0-.44.22.22,0,0,0,0,.44Z"/><path class="cls-2" d="M331.06,69.28a.22.22,0,0,0,0-.44.22.22,0,0,0,0,.44Z"/><path class="cls-2" d="M324.28,79.61a.22.22,0,0,0,0-.44.22.22,0,0,0,0,.44Z"/><path class="cls-2" d="M302.33,92.52a.22.22,0,0,0,0-.44.22.22,0,0,0,0,.44Z"/><path class="cls-2" d="M303,77.35a.22.22,0,0,0,0-.44.22.22,0,0,0,0,.44Z"/><path class="cls-2" d="M299.59,80.53l-2.26,2.26a.22.22,0,0,0,.31.31l2.26-2.26a.22.22,0,0,0-.31-.31Z"/><path class="cls-2" d="M302.65,91.56a.22.22,0,0,0,0-.44.22.22,0,0,0,0,.44Z"/><path class="cls-2" d="M325.9,74.77a.22.22,0,0,0,0-.44.22.22,0,0,0,0,.44Z"/><path class="cls-2" d="M314.6,66.7a.22.22,0,0,0,0-.44.22.22,0,0,0,0,.44Z"/><path class="cls-2" d="M334.94,68.31a.22.22,0,0,0,0-.44.22.22,0,0,0,0,.44Z"/><path class="cls-2" d="M314.6,135.14a.22.22,0,0,0,0-.44.22.22,0,0,0,0,.44Z"/><path class="cls-2" d="M316,139.5l1.29,4.2c.09.26.51.15.43-.12l-1.29-4.2a.22.22,0,0,0-.43.12Z"/><path class="cls-2" d="M327.51,132.23a.22.22,0,0,0,0-.44.22.22,0,0,0,0,.44Z"/><path class="cls-2" d="M331.71,117.71a.22.22,0,0,0,0-.44.22.22,0,0,0,0,.44Z"/><path class="cls-2" d="M340.43,112.22a.22.22,0,0,0,0-.44.22.22,0,0,0,0,.44Z"/><path class="cls-2" d="M317.83,120.61a.22.22,0,0,0,0-.44.22.22,0,0,0,0,.44Z"/><path class="cls-2" d="M327.84,117.06a.22.22,0,0,0,0-.44.22.22,0,0,0,0,.44Z"/><path class="cls-2" d="M307.5,130.3a.22.22,0,0,0,0-.44.22.22,0,0,0,0,.44Z"/><path class="cls-2" d="M326.22,127.07a.22.22,0,0,0,0-.44.22.22,0,0,0,0,.44Z"/><path class="cls-2" d="M327.84,115.77a.22.22,0,0,0,0-.44.22.22,0,0,0,0,.44Z"/><path class="cls-2" d="M339.14,112.54a.22.22,0,0,0,0-.44.22.22,0,0,0,0,.44Z"/><path class="cls-2" d="M328.48,127.71a.22.22,0,0,0,0-.44.22.22,0,0,0,0,.44Z"/><path class="cls-2" d="M321.06,121.26a.22.22,0,0,0,0-.44.22.22,0,0,0,0,.44Z"/><path class="cls-2" d="M310.4,129a.22.22,0,0,0,0-.44.22.22,0,0,0,0,.44Z"/><path class="cls-2" d="M322.67,134.17a.22.22,0,0,0,0-.44.22.22,0,0,0,0,.44Z"/><path class="cls-2" d="M324.17,127.55l1-4.19c.07-.28-.36-.4-.42-.12l-1,4.2c-.06.27.36.39.42.11Z"/><path class="cls-2" d="M328,126.64l5.16-7.11c.17-.23-.21-.44-.38-.22l-5.16,7.1c-.17.23.21.45.38.23Z"/><path class="cls-2" d="M307.5,127.71a.22.22,0,0,0,0-.44.22.22,0,0,0,0,.44Z"/><path class="cls-2" d="M321.06,138.37a.22.22,0,0,0,0-.44.22.22,0,0,0,0,.44Z"/><path class="cls-2" d="M279.73,185.5a.22.22,0,0,0,0-.44.22.22,0,0,0,0,.44Z"/><path class="cls-2" d="M283.61,182.92a.22.22,0,0,0,0-.44.22.22,0,0,0,0,.44Z"/><path class="cls-2" d="M293.73,176.76l2.58-1.29c.25-.13,0-.51-.22-.38l-2.59,1.29c-.25.12,0,.5.23.38Z"/><path class="cls-2" d="M324.93,73.48a.22.22,0,0,0,0-.44.22.22,0,0,0,0,.44Z"/><path class="cls-2" d="M313.63,87a.22.22,0,0,0,0-.44.22.22,0,0,0,0,.44Z"/><path class="cls-2" d="M314.5,80.68l.32-3.55c0-.28-.42-.28-.44,0l-.32,3.55c0,.28.41.28.44,0Z"/><path class="cls-2" d="M319.92,81.16l3.87-3.55c.21-.19-.1-.5-.31-.31l-3.87,3.55c-.21.19.1.5.31.31Z"/><path class="cls-2" d="M330.74,79.29a.22.22,0,0,0,0-.44.22.22,0,0,0,0,.44Z"/><path class="cls-2" d="M326.48,79.47a10.41,10.41,0,0,1-4.74.14c-.28,0-.4.37-.12.43a11,11,0,0,0,5-.15.22.22,0,0,0-.11-.42Z"/><path class="cls-2" d="M322.67,69.28a.22.22,0,0,0,0-.44.22.22,0,0,0,0,.44Z"/><path class="cls-2" d="M220.65,153.22a.22.22,0,0,0,0-.44.22.22,0,0,0,0,.44Z"/><path class="cls-2" d="M233.24,140a.22.22,0,0,0,0-.44.22.22,0,0,0,0,.44Z"/><path class="cls-2" d="M230.81,137l-1.29-1.29a.22.22,0,0,0-.31.31l1.29,1.3c.2.2.51-.12.31-.32Z"/><path class="cls-2" d="M224.52,134.49a.22.22,0,0,0,0-.44.22.22,0,0,0,0,.44Z"/><path class="cls-2" d="M198.7,110.28a.22.22,0,0,0,0-.44.22.22,0,0,0,0,.44Z"/><path class="cls-2" d="M190.3,125.13a.22.22,0,0,0,0-.44.22.22,0,0,0,0,.44Z"/><path class="cls-2" d="M176.42,113.51a.22.22,0,0,0,0-.44.22.22,0,0,0,0,.44Z"/><path class="cls-2" d="M185.2,111.56l8.39-1.61c.28,0,.16-.48-.12-.42l-8.39,1.61c-.28,0-.16.48.12.42Z"/><path class="cls-2" d="M239.7,133.53a.22.22,0,0,0,0-.44.22.22,0,0,0,0,.44Z"/><path class="cls-2" d="M228.08,146.76a.22.22,0,0,0,0-.44.22.22,0,0,0,0,.44Z"/><path class="cls-2" d="M229.69,124.49a.22.22,0,0,0,0-.44.22.22,0,0,0,0,.44Z"/><path class="cls-2" d="M235,121.55l3.23-1.61c.25-.13,0-.51-.23-.38l-3.23,1.61c-.25.13,0,.51.23.38Z"/><path class="cls-2" d="M242,141.6a.22.22,0,0,0,0-.44.22.22,0,0,0,0,.44Z"/><path class="cls-2" d="M208.38,143.21a.22.22,0,0,0,0-.44.22.22,0,0,0,0,.44Z"/><path class="cls-2" d="M311.37,127.71a.22.22,0,0,0,0-.44.22.22,0,0,0,0,.44Z"/><path class="cls-2" d="M302.65,133.85a.22.22,0,0,0,0-.44.22.22,0,0,0,0,.44Z"/><path class="cls-2" d="M317.18,139a.22.22,0,0,0,0-.44.22.22,0,0,0,0,.44Z"/><path class="cls-2" d="M149.42,68.13a44.83,44.83,0,0,1,3.66-10.24c.12-.26-.26-.48-.38-.23A45,45,0,0,0,149,68c-.06.28.36.4.42.12Z"/><path class="cls-2" d="M71.38,119Q82.5,106.08,94.19,93.7c.2-.21-.11-.52-.31-.31Q82.2,105.77,71.07,118.67c-.19.21.12.52.31.31Z"/><path class="cls-2" d="M55.83,116.35a173.51,173.51,0,0,0,14.55-16.12c.18-.22-.13-.54-.31-.32A172.36,172.36,0,0,1,55.52,116a.22.22,0,0,0,.31.31Z"/><path class="cls-2" d="M51.35,136.59l1.28-3.88c.09-.27-.34-.39-.43-.12l-1.27,3.88c-.09.27.33.39.42.12Z"/><path class="cls-2" d="M58.59,158.91a185.91,185.91,0,0,1,9.23-23.23c.13-.25-.25-.47-.37-.22a186.08,186.08,0,0,0-9.29,23.33c-.09.27.34.38.43.12Z"/><path class="cls-2" d="M20.66,145a79.1,79.1,0,0,1,11-18.91c.17-.22-.14-.54-.32-.31a80.35,80.35,0,0,0-11.1,19.1c-.11.26.32.38.43.12Z"/><path class="cls-2" d="M24.51,167.82a57.1,57.1,0,0,0,11.56-6.92c.22-.17,0-.55-.23-.38a57.31,57.31,0,0,1-11.55,6.92c-.26.11,0,.49.22.38Z"/><path class="cls-2" d="M32.43,200.68a.22.22,0,0,0,0-.44.22.22,0,0,0,0,.44Z"/><path class="cls-2" d="M78,220.69a.22.22,0,0,0,0-.44.22.22,0,0,0,0,.44Z"/><path class="cls-2" d="M97,205.84a.22.22,0,0,0,0-.44.22.22,0,0,0,0,.44Z"/><path class="cls-2" d="M130.38,234.34a69.27,69.27,0,0,0,18.48,9.78c.26.09.38-.33.11-.42A68.79,68.79,0,0,1,130.6,234c-.23-.17-.45.22-.22.38Z"/><path class="cls-2" d="M146,224.21q8.85,5.19,18.07,9.7c.25.13.47-.25.22-.38q-9.22-4.51-18.07-9.7a.22.22,0,0,0-.22.38Z"/><path class="cls-2" d="M209.36,205.57a280.57,280.57,0,0,0,27.55-14.28.22.22,0,0,0-.23-.38,279.45,279.45,0,0,1-27.55,14.28c-.25.12,0,.5.23.38Z"/><path class="cls-2" d="M269.07,147.42a123.6,123.6,0,0,1,13.88.72c.28,0,.28-.41,0-.44a123.6,123.6,0,0,0-13.88-.72.22.22,0,0,0,0,.44Z"/><path class="cls-2" d="M281.4,123.51l4.2-1.29a.22.22,0,0,0-.12-.43l-4.19,1.3c-.27.08-.16.5.11.42Z"/><path class="cls-2" d="M268.17,101.23a26.68,26.68,0,0,0,11.69-6.54c.21-.19-.1-.5-.31-.31a26.17,26.17,0,0,1-11.5,6.43.22.22,0,0,0,.12.42Z"/><path class="cls-2" d="M212.3,84.21a12.65,12.65,0,0,1,1.16-7.91c.13-.25-.25-.48-.38-.22a13.19,13.19,0,0,0-1.21,8.24c0,.28.48.16.43-.11Z"/><path class="cls-2" d="M301.87,21.7q-12.19,8.88-23.53,18.85c-.22.19.1.5.31.31q11.3-9.93,23.44-18.78c.23-.17,0-.55-.22-.38Z"/><path class="cls-2" d="M326.65,32.89a198,198,0,0,0-15.41,12.47c-.21.19.1.5.31.31a196.28,196.28,0,0,1,15.33-12.4c.22-.16,0-.55-.23-.38Z"/><path class="cls-2" d="M322.67,167.75a.22.22,0,0,0,0-.44.22.22,0,0,0,0,.44Z"/><path class="cls-2" d="M306.27,190.52c3.52-.49,5.69-3.48,7.94-6,3.27-3.62,6.43-7.33,9.52-11.11.18-.22-.13-.53-.31-.31-2.55,3.12-5.15,6.2-7.83,9.22-2.52,2.84-5.43,7.18-9.43,7.75-.28,0-.16.46.11.42Z"/><path class="cls-2" d="M323.68,163.37a73.09,73.09,0,0,1,15.56-11.81.22.22,0,0,0-.22-.38,73.36,73.36,0,0,0-15.65,11.88.22.22,0,0,0,.31.31Z"/></g></g></svg>