<svg xmlns="http://www.w3.org/2000/svg" viewBox="0 0 216.35 122.1"><defs><style>.cls-1{fill:#bfcbc8;}.cls-2{fill:#38301f;}.cls-3{fill:#ad9689;}.cls-4{fill:#eae3ca;}</style></defs><title>charga</title><g id="Layer_2" data-name="Layer 2"><g id="candle"><path class="cls-1" d="M100.9,117.1c-.7,0-1.2.75-1.4,1.45a7,7,0,0,1-.6,2c-.9,1.4-3,1.15-4.55.75q-21.6-5.55-42.9-12a3.92,3.92,0,0,1-1.6-.75c-1.1-1-.9-2.65-.65-4a4.19,4.19,0,0,0-.2,3.7,246.34,246.34,0,0,0-25.8-9,5.86,5.86,0,0,1-2.4-1.1,1.93,1.93,0,0,1-.45-2.4"/><path class="cls-2" d="M100.75,116.7c-1,.25-1.25.85-1.7,1.75-1.1,2.2-1.5,3.1-4,2.65-1.15-.2-2.3-.55-3.45-.85-4.85-1.25-9.7-2.55-14.5-3.9s-9.65-2.7-14.45-4.1c-2.5-.7-4.95-1.45-7.45-2.2-1.25-.35-2.5-.7-3.7-1.1-2-.7-2.25-2.45-2-4.25.05-.45-.6-.85-.8-.35a5.42,5.42,0,0,0-.25,4.05l.55-.55c-4.65-1.95-9.35-3.7-14.1-5.35-2.4-.8-4.75-1.6-7.15-2.35-1.6-.5-8.2-1.45-7-4.3.2-.55-.65-.75-.85-.25-.65,1.65.3,2.9,1.75,3.6,2.5,1.15,5.5,1.65,8.15,2.5,6.45,2,12.8,4.4,19.05,7,.3.15.65-.25.55-.55a4.05,4.05,0,0,1,.15-3.4l-.8-.35c-.2,1.35-.45,2.9.4,4,1.15,1.6,4.15,1.9,5.85,2.4q9.3,2.78,18.6,5.4c6.05,1.7,12.15,3.35,18.25,4.9,1.8.45,4.1,1.4,6,.7S99.3,118,101,117.5C101.55,117.4,101.3,116.55,100.75,116.7Z"/><path class="cls-3" d="M49,105.25c-1,1.45,1.4.35,2.2.8a8,8,0,0,0,2.55.8c14.7,2.6,28.84,8,43.59,9.9a5.14,5.14,0,0,0,2.76-.15c1.4-.6,2-2.25,2.4-3.7l9-30.6c.6-2.1,1.25-4.2,1.85-6.35a5.55,5.55,0,0,0,.15-3.7c-.65-1.45-2.35-2.1-3.85-2.55-4-1.25-8.1-2.55-12.15-3.8C85.25,62.05,73.9,58.7,61.1,58"/><path class="cls-2" d="M48.2,104.85c-.4.75-.55,1.55.35,2,.45.2,1,0,1.45.05,1,.1,2,.6,3.15.8,5.75,1.15,11.45,2.45,17.15,4,5.85,1.55,11.7,3.15,17.65,4.4q4.13.9,8.25,1.5c1.75.25,3.6.6,5.1-.55s1.85-3,2.35-4.7c.95-3.2,1.85-6.35,2.8-9.55,1.8-6,3.55-12.1,5.35-18.15.85-2.85,1.8-5.7,2.5-8.65.45-1.75.6-3.55-.75-5s-3.35-1.85-5.1-2.4c-3.1-1-6.2-2-9.35-3-12.45-3.9-24.9-7.6-38-8.35C60,57.2,60,59,61.1,59c9.75.55,19.25,2.8,28.6,5.55,4.85,1.45,9.65,3,14.5,4.5,2.2.7,4.9,1.1,6.85,2.25,3,1.75,1,5.65.3,8.15-2.9,10-5.85,20-8.8,30-.7,2.4-1,5.95-3.9,6.65-1.1.25-2.8-.3-4-.5-1.4-.2-2.75-.45-4.1-.75-4.75-1-9.4-2.1-14-3.35-5.4-1.4-10.8-2.9-16.3-4.15-2.45-.55-5-.85-7.4-1.5a15,15,0,0,0-2.1-.75,2.15,2.15,0,0,0-.8,0c-.15,0-.3,0-.45,0-.6,0-.55.15.15.55C50.3,104.75,48.75,103.85,48.2,104.85Z"/><path class="cls-3" d="M79.9,60.15c1.8-4.55,3.6-9.15,5.4-13.7A16,16,0,0,1,88,41.55a1.85,1.85,0,0,1,2.15-.65c3,.7,5.6,2.15,8.55,2.85,2.8.65,5.9.6,8.3,2.25a1.33,1.33,0,0,1,.5.55,1.1,1.1,0,0,1,0,.7c-1.75,6.6-3.8,13.1-5.8,19.6"/><path class="cls-2" d="M80.75,60.4c1.8-4.55,3.55-9.15,5.4-13.7a17.56,17.56,0,0,1,1.6-3.4c1.1-1.7,2.1-1.6,3.8-1,2.15.7,4.2,1.65,6.4,2.25,2,.5,4,.6,5.9,1.15S106.3,46.8,106,49a27,27,0,0,1-.9,3.3c-1.4,4.85-2.9,9.65-4.4,14.45-.35,1.1,1.35,1.55,1.7.45,1.95-6.3,4.3-12.7,5.7-19.15,1-4.7-7.15-4.45-10.1-5.3-2.7-.75-5.45-2.5-8.25-2.7-1.7-.1-2.65,1.1-3.5,2.45-1.5,2.4-2.35,5.3-3.4,7.95-1.25,3.2-2.55,6.4-3.8,9.6C78.65,61,80.35,61.45,80.75,60.4Z"/><path class="cls-1" d="M91.9,40.25c.55-.7.6-1.8,1.35-2.2a1.89,1.89,0,0,1,1-.2c2.5,0,4.9,1,7.25,1.95l2.5,1.05a1.13,1.13,0,0,1,.55.4c.1.15.05.35.05.55-.05.65-.1,1.25-.15,1.9"/><path class="cls-2" d="M92.65,40.7c.5-.8.6-1.7,1.65-2,1.2-.3,3.15.45,4.25.85s2.1.8,3.15,1.25a6.08,6.08,0,0,1,1.65.7c.55.6.3,1.15.2,2.1-.1,1.15,1.65,1.1,1.75,0,.15-1.5.55-2.75-.85-3.6a30.63,30.63,0,0,0-6.25-2.45c-1.45-.45-3.5-1-5-.5-1.3.45-1.5,1.65-2.1,2.7A.89.89,0,0,0,92.65,40.7Z"/><path class="cls-1" d="M103,39.5a105.9,105.9,0,0,1,12.85-28.35A18.9,18.9,0,0,1,119.3,6.9a13.14,13.14,0,0,1,10-2.55A28.55,28.55,0,0,1,139.2,8c19.35,10.65,28.7,26.55,47,39l2.95-4c-8-7.2-15.55-13.85-23.6-21-5.6-5-11.25-10-17.6-13.95S134.35,1.2,126.85.9a18.82,18.82,0,0,0-6.45.7,19.78,19.78,0,0,0-5.7,3.1,43.12,43.12,0,0,0-11.9,14.85,131,131,0,0,0-7.15,17.8"/><path class="cls-2" d="M103.85,39.7a107,107,0,0,1,9.3-22.4C115,14,117,10,119.9,7.5c3.35-2.8,8.15-2.8,12.15-1.65C139.4,8,146.3,13.1,152.1,18c5.3,4.4,10.15,9.3,15.1,14.1A145.17,145.17,0,0,0,185.7,47.7a.89.89,0,0,0,1.2-.3c1-1.3,1.95-2.65,2.95-3.95a.83.83,0,0,0-.15-1.05c-7-6.25-14-12.5-21-18.75-6.5-5.8-12.9-11.75-20.35-16.35C141.6,3.15,133.85.05,125.85,0S111.65,5.15,107,11.25c-5.9,7.65-9.1,16.85-12.2,25.85-.35,1,1.35,1.55,1.7.45,2.65-7.65,5.35-15.4,9.8-22.25C110.55,8.7,117,1.9,125.4,1.8c16.7-.2,30,12.45,41.65,22.8q10.72,9.52,21.4,19.1l-.15-1.05c-1,1.3-2,2.65-3,4l1.2-.3c-13.2-9-23.2-21.7-35.75-31.5-5.9-4.6-13-9.7-20.5-11A15,15,0,0,0,120.65,5c-3.15,1.65-5,4.75-6.8,7.7A108,108,0,0,0,102.1,39.4C101.85,40.35,103.55,40.8,103.85,39.7Z"/><path class="cls-1" d="M209.65,54.5c-1.3-1.35-2.6-2.75-3.85-4.1-1.05-1.1-2.1-2.25-3.2-3.35a83.44,83.44,0,0,0-9.3-8l-.75.5c-3.4,4.15-6.85,8.3-10.25,12.45-.1.15-.15.35-.3.45-.5.5-.85.75-.8.9.25.8,3.4,4,5.35,5.7,3.55,3.15,7.1,6.25,10.65,9.4a.43.43,0,0,0,.3.15.51.51,0,0,0,.35-.2c4.1-4.35,8.05-8.8,11.8-13.45,0-.1.15-.2.15-.3Z"/><path class="cls-2" d="M210.3,53.85c-5.25-5.55-10.4-11-16.55-15.55a1,1,0,0,0-.9,0c-2.3,1.6-3.95,4.35-5.75,6.5-2,2.5-4.5,5-6.3,7.6-.75,1.15-.25,1.75.6,2.75a54.44,54.44,0,0,0,5.95,5.8c2.7,2.4,5.45,4.8,8.15,7.2,2.05,1.8,2.4,1.5,4.25-.5,2.6-2.75,5.1-5.6,7.5-8.45.85-1.05,4.15-3.6,3.15-5.2a.87.87,0,0,0-1.5.9,47.49,47.49,0,0,0-3.5,3.8c-1.1,1.3-2.25,2.6-3.4,3.9a36.3,36.3,0,0,1-3.5,3.85c-1.05.85-.9.9-2.1.15a12.93,12.93,0,0,1-1.75-1.55c-2.65-2.3-5.3-4.6-7.9-6.95-.8-.75-1.65-1.55-2.4-2.35-.35-.35-2.35-2-2.25-2.6-.1.7.45,0,.65-.15a15.11,15.11,0,0,0,1.7-2.2c1.1-1.35,2.2-2.7,3.3-4s2.2-2.7,3.3-4a26.41,26.41,0,0,1,1.8-2.2,1.87,1.87,0,0,1,.65-.6v.4a15.53,15.53,0,0,1,2.6,2.05c.7.55,1.35,1.15,2,1.7,1.1,1,2.15,2,3.2,3,2.65,2.6,5.15,5.35,7.7,8.05C209.8,56,211.05,54.7,210.3,53.85Z"/><path class="cls-3" d="M200.9,65.4a36.52,36.52,0,0,0,5.7,6.4c.15.1.3.25.5.2a.5.5,0,0,0,.25-.2c2.65-2.8,5.25-5.65,7.9-8.45a.76.76,0,0,0,.3-.5.82.82,0,0,0-.4-.6,35.84,35.84,0,0,1-5.9-6.1"/><path class="cls-2" d="M200.15,65.85a38.65,38.65,0,0,0,3.1,3.85c.8.9,2,2.55,3.15,3,1.95.75,4.15-3,5.2-4.15a41,41,0,0,0,4.25-4.6c.45-.65.65-1,.4-1.7-.35-1-1.7-1.65-2.4-2.35a41.77,41.77,0,0,1-4-4.4c-.7-.9-1.95.35-1.25,1.25a39.93,39.93,0,0,0,4.65,5c.3.3.65.55.95.85.5.25.45.55-.2.85a14,14,0,0,1-2.65,2.8c-.85.9-3.35,4.55-4.7,4.35-.65-.1-2-1.95-2.4-2.45A39.74,39.74,0,0,1,201.7,65C201,64.05,199.45,64.9,200.15,65.85Z"/><path class="cls-3" d="M22.4,84.55c-2.25-1.55-5-2.1-7.7-2.6-3-.6-6-1.15-9-1.75-2-.4-4.46-1.15-4.86-3.15a22.43,22.43,0,0,1,8,.55C13,78.4,17.2,79.15,21.4,80a1.12,1.12,0,0,0,.9-.1,1,1,0,0,0,.35-.65,104.54,104.54,0,0,0,2.6-10.9,2.85,2.85,0,0,0,0-1.45C25,66,24,65.65,23.15,65.4,17.4,63.7,11.65,62,5.9,60.25c.7-1.5,2.85-1.4,4.45-1l17,4c.85-3.15,1.7-6.3,2.6-9.45a2,2,0,0,1,.9-1.45,1.94,1.94,0,0,1,1.3,0,187.9,187.9,0,0,1,23,4.85c1.95.55,3.95,1.2,5.95.9-.85,2.6-1.75,5.2-2.5,7.8-3.75,12.6-5.35,25.75-8.3,38.55-.1.4-.25.85-.65,1a1.7,1.7,0,0,1-.7-.1,172.63,172.63,0,0,0-28.2-8,1.32,1.32,0,0,1-.95-.45c-.25-.3-.15-.75-.1-1.1C22,84.1,24.7,72.5,28.05,61.1"/><path class="cls-2" d="M22.85,83.8c-3.1-1.9-6.65-2.45-10.2-3.15-2-.4-4-.75-5.91-1.15s-4.49-.65-5.14-2.75c-.3.35-.56.75-.86,1.1,5.7-.75,11.91,1.25,17.46,2.3,1.25.25,3.55,1.2,4.7.25C24.25,79.25,24.55,75.6,25,74c.75-3.25,2.85-7.85-1.25-9.35C18,62.5,12,61.1,6.15,59.35c.2.45.34.85.54,1.3,1-1.6,4-.5,5.41-.15,1.75.4,3.5.8,5.2,1.25,3.3.8,6.65,1.55,10,2.35a1,1,0,0,0,1.1-.6c.45-1.75.95-3.45,1.4-5.2.55-2.1.5-4.8,3.2-5,1.4-.1,3.25.55,4.65.8,1.7.3,3.4.6,5.1.95,3.25.65,6.45,1.35,9.65,2.2,2.95.8,5.8,2,8.9,1.65-.3-.35-.55-.75-.85-1.1a217.43,217.43,0,0,0-7,27.5c-.9,4.75-1.75,9.45-2.75,14.15-.2,1-.4,1.9-.6,2.8-.15.65-.3,1.25-.45,1.9-.3.45-.65.4-1.15-.1-2.25-.45-4.5-1.65-6.7-2.35C37.35,100.3,33,99.05,28.5,98c-1.25-.3-2.45-.55-3.7-.85-.7-.15-3.3-.25-3.7-.75-1.1-1.25.6-5.7.85-7.1,1.95-9.45,4.3-18.75,7-28a.88.88,0,0,0-1.7-.45q-3.6,12.23-6.3,24.7c-.45,2-.85,4.1-1.3,6.15-.3,1.45-1,3.35-.8,4.85A2,2,0,0,0,20.3,98.1a52.19,52.19,0,0,0,6.3,1.35c4,.9,7.95,2,11.9,3.2,2,.6,3.9,1.25,5.85,1.9,1.45.5,3.85,2,5.35,1.75a2,2,0,0,0,1.4-1.3c.85-1.85,1-4.4,1.45-6.4.85-4.1,1.6-8.2,2.35-12.3a206.35,206.35,0,0,1,7.15-27.95.89.89,0,0,0-.85-1.1c-4,.4-8.25-1.6-12.05-2.5s-8-1.7-12-2.4c-1.95-.35-5.9-2-7.4,0-.8,1.1-.95,2.85-1.3,4.15l-1.8,6.6c.35-.2.7-.4,1.1-.6-4.9-1.15-9.8-2.3-14.7-3.5-2.55-.6-6.06-1.85-7.86.85a.89.89,0,0,0,.55,1.3c4.16,1.25,8.31,2.45,12.46,3.7a37.47,37.47,0,0,1,3.85,1.15c1.65.7,2.65,1,2.3,3s-.8,4-1.3,6c-.2.85-.35,2.5-.85,3.15-.9,1.1-2.25.7-3.4.45l-6.3-1.2C8.69,76.7,4.8,75.7.9,76.2A.87.87,0,0,0,0,77.3c1.05,3.3,4.8,3.65,7.75,4.25,4.71.9,10.16,1.25,14.31,3.8C22.9,85.9,23.8,84.4,22.85,83.8Z"/><path class="cls-2" d="M45.15,102.6v.15a.62.62,0,0,0,.2.4s.09,0,.14,0a.55.55,0,0,0,.55,0c.9-1.1,1.2-2.75,1.65-4.05.65-1.8,1.25-3.6,1.8-5.45A104.31,104.31,0,0,0,52.65,81.9,109.61,109.61,0,0,1,55,70.65c1.21-4,2.46-8,3.66-12a.45.45,0,0,0-.86-.25c-2.2,7.3-4.5,14.35-5.75,21.9a89.69,89.69,0,0,1-2.69,10.8C48.8,93,48.2,94.75,47.6,96.55c-.3.9-.6,1.8-1,2.7-.15.45-.3.9-.5,1.35a2.07,2.07,0,0,0-.21,2C46,102.05,45.15,102.05,45.15,102.6Z"/><path class="cls-4" d="M189.25,44.25c3.6.15,17.55,13,17.2,14.25a24.75,24.75,0,0,0,3-3.75c0-.15-6.95-7.1-7.2-7.45s-8.8-7.55-9-7.55S189.25,44.25,189.25,44.25Z"/><path class="cls-2" d="M189.25,44.5c1.6.15,3.15,1.4,4.4,2.3,1.9,1.35,3.75,2.85,5.5,4.35,1.6,1.35,3.1,2.8,4.6,4.3.55.6,2.55,2.15,2.5,3.1a.23.23,0,0,0,.4.15c.65-.65,3.15-2.9,3.1-4-.05-.65-1.45-1.65-1.9-2-2-2.1-4-4.35-6.25-6.25-1.45-1.3-3-2.55-4.45-3.8-.9-.75-2.35-2.6-3.5-2.9-1.4-.35-3.6,3.35-4.5,4.4-.2.2.15.55.3.3,1-1.2,2.2-3.3,3.55-4.1.55-.35.3-.35,1.05.25s1.6,1.3,2.4,2c2.5,2.1,5,4.15,7.2,6.45,1.55,1.6,3.15,3.2,4.7,4.8.5.55.7.7.7,1.1,0,.25-2.6,3.45-2.4,3.45-.05,0-1.65-2.25-1.75-2.4a59.41,59.41,0,0,0-4.8-4.6,69.79,69.79,0,0,0-6.4-5.1c-1.3-.9-2.85-2-4.45-2.2C189,44,189,44.45,189.25,44.5Z"/><path class="cls-4" d="M206.45,60.35a8.09,8.09,0,0,1,4.05,1.95,5,5,0,0,1,1.6,4.1,19.89,19.89,0,0,0,3-3.5,1.06,1.06,0,0,0,.15-.35.51.51,0,0,0-.2-.35,65.66,65.66,0,0,0-5.9-5.3c-.1,0-.2-.15-.3-.15s-.2.1-.3.2c-1.05,1.15-2.1,2.35-3.15,3.5A4.1,4.1,0,0,0,206.45,60.35Z"/><path class="cls-2" d="M206.4,60.55c2.9.65,5.7,2.45,5.5,5.8a.23.23,0,0,0,.4.15c.8-.75,3.15-2.7,3.15-4,0-1.1-2.45-2.65-3.15-3.3s-2.45-2.8-3.55-2.8c-.4,0-.9.75-1.1,1-.85.9-1.65,1.85-2.45,2.75-.15.15,0,.35.15.4a4.48,4.48,0,0,0,1.15-.1c.3,0,.15-.5-.1-.4-1.3.25.5-1.15.9-1.6.65-.7,1-1.45,2.2-1.1.45.15,1,.85,1.4,1.15.9.8,1.8,1.6,2.7,2.45,1.5,1.45.8,3-.65,4.2-.85.7-.45.2-.7-.65a5.05,5.05,0,0,0-.8-1.65,7.84,7.84,0,0,0-4.9-2.85C206.25,60.1,206.15,60.5,206.4,60.55Z"/><path class="cls-4" d="M84.45,110.15a4.71,4.71,0,0,0,2.35.45c4.25-.2,8.1-2.7,10.85-5.9s4.6-7.1,6.45-10.9c-2.5,5.75-2,12.4-3.55,18.45a1.33,1.33,0,0,1-.35.7,1.36,1.36,0,0,1-.8.15c-2.7-.15-5.35-.3-8.05-.4s-5.55-.45-7.25-2.45Z"/><path class="cls-2" d="M84.4,110.35c3.95,1.65,8.9-1.2,11.75-3.8a23.67,23.67,0,0,0,4.4-5.55c.75-1.2,1.4-2.45,2-3.7a16.83,16.83,0,0,0,1-1.9c.1-.45.5-1.4-.15-.5-1.2,1.75-1.3,5.1-1.55,7.15-.4,3-.3,6.45-1.35,9.3-.7,1.9-2,1.45-3.8,1.35-1.5-.1-3-.15-4.45-.25a28.45,28.45,0,0,1-4.1-.4,8.86,8.86,0,0,1-2.3-.75c-.35-.25-.75-.5-1.1-.75q-.82-.15-.3-.15a.22.22,0,0,0,0-.45H84.1a.23.23,0,0,0-.15.4c2,2.05,4.7,2.35,7.4,2.5l5.35.3c.9,0,2.75.6,3.55-.05.6-.4.6-1.45.75-2,.35-1.55.55-3.15.75-4.75.55-4.25.9-8.5,2.5-12.5.1-.25-.3-.4-.4-.15-1.85,3.9-3.75,7.9-6.65,11.15s-8.3,7-12.75,5.15C84.25,109.85,84.15,110.25,84.4,110.35Z"/><path class="cls-4" d="M83.5,57.8c1.75-4.95,3.7-9.9,5.75-14.75A5.71,5.71,0,0,1,89,46.9a54.29,54.29,0,0,1-4.75,12.15c-.15.3-.4.6-.7.6s-.7-.4-.7-.75a1.93,1.93,0,0,1,.4-1Z"/><path class="cls-2" d="M83.7,57.85c.9-2.5,1.8-5,2.75-7.4.45-1.15.9-2.3,1.4-3.45.35-.85,2-4.35,1.2-.9a62.83,62.83,0,0,1-2,6.6,42.07,42.07,0,0,1-1.85,4.35,5.05,5.05,0,0,1-.8,1.55c-.15.55-.35.5-.55-.05-.4-.3-.5-.45-.25-.45s.15-.5-.1-.4c-1.25.25-.65,3.5,1,1.55s2.65-5.6,3.45-8,2.25-5.5,1.5-8.1c0-.15-.3-.25-.4-.05-2,4.9-4,9.8-5.8,14.8C83.2,58,83.6,58.1,83.7,57.85Z"/><path class="cls-4" d="M96.7,63.5c3-4.65,3.45-10.6,6.45-15.25.15-.2.35-.45.55-.35s.25.45.2.7a48.39,48.39,0,0,1-5.1,14.3c-.3.5-.6,1.1-1.2,1.3s-1.35-.15-1.3-.75Z"/><path class="cls-2" d="M96.9,63.6a28.22,28.22,0,0,0,2.75-6.15c.75-2.3,1.35-5.85,2.9-7.75.3-.35.5-1.1,1-.3a7.68,7.68,0,0,1-.5,2.2c-.35,1.3-.7,2.6-1.15,3.85a52.88,52.88,0,0,1-2,4.9,9.56,9.56,0,0,1-.8,1.6,1.6,1.6,0,0,1-1.5,1.25c-1.15.25-1.46.4-.91.5.3,0,.4-.35.1-.4-.1,0-.25,0-.35-.1s-.35.1-.25.25c1.31,3.5,4.16-3,4.51-3.7a46.08,46.08,0,0,0,2.5-6.8c.35-1.2,1.65-4.1.8-5.2,0-.1-.15-.1-.25-.1-1.65.35-2.55,4.1-3,5.5-1.25,3.45-2.15,7.05-4.1,10.2A.2.2,0,1,0,96.9,63.6Z"/><path class="cls-4" d="M35.55,95c3.69.45,7.1-2.15,9.1-5.3S47.49,82.9,49,79.5c.55,3-.14,6.15-.94,9.15-1,3.7-2.05,7.35-3.25,11-.15.45-.36,1-.81,1.15a1.73,1.73,0,0,1-1-.1A56.55,56.55,0,0,1,31,95.4a7.06,7.06,0,0,1,5.15-.3Z"/><path class="cls-2" d="M35.55,95.2c3.55.25,6.55-1.7,8.65-4.5a24.08,24.08,0,0,0,3-6,24,24,0,0,1,1.35-3.6c1,0,.05,4.1.05,4.25-.5,2.65-1.25,5.2-2,7.8-.4,1.4-.8,2.75-1.25,4.1-.55,1.75-.9,3.3-3.15,2.9-2.6-.45-5.35-2-7.7-3.15-.55-.25-2.75-1-2.85-1.8,0-.3,2.55-.3,2.9-.3-.15,0,1.85-.15,1.05-.2a.26.26,0,0,0-.05.5c.15,0,.3,0,.5,0a.23.23,0,0,0,.05-.45,8,8,0,0,0-5.3.3c-.15.05-.25.3-.05.4A56.48,56.48,0,0,0,40.4,100c1.5.55,3.35,1.75,4.45.1.85-1.3,1.2-3.55,1.65-5,.55-1.85,1.1-3.65,1.55-5.5.9-3.4,1.65-6.65,1.2-10.2,0-.2-.35-.2-.4,0-2.6,6-4.8,16-13.25,15.4C35.3,94.75,35.3,95.2,35.55,95.2Z"/><path class="cls-4" d="M198.35,65a11.43,11.43,0,0,1-2-1.4q-5.18-4.35-10.05-9a5.81,5.81,0,0,1-1.45-1.85c-.25-.7-.25-1.45-.55-2.15-.05,0-.05-.15-.15-.15s-.2.05-.25.15c-.35.45-.65,1-1,1.4a4.65,4.65,0,0,0-.8,1.85,3.22,3.22,0,0,0,.9,1.9A46,46,0,0,0,188.5,61c2.65,2.25,5.3,4.55,8,6.8a2.06,2.06,0,0,0,.95.55c.65.1,1.2-.5,1.6-1,.55-.75,1.15-1.5,1.7-2.2A2.71,2.71,0,0,1,198.35,65Z"/><path class="cls-2" d="M198.4,64.9c-3.25-1.8-6.15-4.9-8.9-7.4a31.08,31.08,0,0,1-3.75-3.5c-.8-1.1-.75-2.65-1.55-3.6a.09.09,0,0,0-.15,0c-1.2.7-2.4,2.85-2,4.25.3,1.1,1.5,2.05,2.25,2.8,1.3,1.3,2.7,2.5,4.1,3.7s2.9,2.45,4.35,3.7c1.1,1,2.7,3,4.1,3.45,1.85.7,3.05-1.9,4-3.1,0-.1-.05-.2-.1-.15a17.2,17.2,0,0,0-2.3-.15.11.11,0,0,0-.1.2c-.2,0,1.85.65,1.7.3.95,1.95-5.25,1.25-4.15,1.7-1-.4-2-1.75-2.9-2.45s-1.45-1.25-2.2-1.85c-2.4-2-9.9-6.75-7.95-10.55.25-.45.85-1.35,1.5-.9.1,0,.5,1.85.7,2.15.9,1.45,2.65,2.65,3.9,3.8,2.9,2.65,5.85,5.9,9.3,7.8C198.4,65.15,198.55,65,198.4,64.9Z"/><path class="cls-4" d="M201.45,65.6c-.1,0-.15-.1-.25-.15Z"/><path class="cls-2" d="M201.5,65.65h0c.05-.05,0-.1-.05-.15s-.15-.1-.25-.15a.11.11,0,0,0-.1.2c.1,0,.15.1.25.15s.25-.1.1-.2-.15-.1-.25-.15,0,.15-.1.2c.1,0,.15.1.25.15s0-.1,0-.15C201.25,65.65,201.45,65.75,201.5,65.65Z"/><path class="cls-4" d="M208.05,68.65a5.72,5.72,0,0,1-2.45-1.4,7.56,7.56,0,0,1-2.3-4,11.73,11.73,0,0,0-1.8,2.35,5.48,5.48,0,0,1,1.75,1.8c.45.7.7,1.5,1.1,2.2A10.27,10.27,0,0,0,207,72.25a.38.38,0,0,0,.25.1c.2.05.4-.2.5-.35a14.45,14.45,0,0,1,3.15-3.6A4.36,4.36,0,0,1,208.05,68.65Z"/><path class="cls-2" d="M208.05,68.55a7.28,7.28,0,0,1-4.7-5.35c0-.1-.15-.1-.2-.05a14.59,14.59,0,0,0-1.85,2.4c-.05,0,0,.1,0,.15,1.7,1.25,2,3,3.2,4.5.45.55,1.75,2.25,2.55,2.25.45,0,.35-.15.6-.4a19,19,0,0,0,1.45-1.9,13.67,13.67,0,0,1,1.75-1.65c.1,0,0-.25-.1-.2a5.15,5.15,0,0,1-2.75.25c-.15,0-.2.2-.05.2a11.2,11.2,0,0,0,2.3,0,23.23,23.23,0,0,0-2.05,2.2c-.35.4-.65,1.2-1.25,1.2-.3,0-1.6-1.3-1.9-1.6-1-1.1-1.3-2.55-2.2-3.7-.75-1-1.35-.9-.7-2.15.9-1.9,1.3-.05,1.8.85a7.24,7.24,0,0,0,4,3.3A.13.13,0,0,0,208.05,68.55Z"/></g></g></svg>