<svg xmlns="http://www.w3.org/2000/svg" viewBox="0 0 1511.23 1055.74"><defs><style>.cls-1{fill:#723a29;}.cls-2{fill:#38301f;}.cls-3{fill:none;}.cls-4{fill:#da9b38;}.cls-5{fill:#81c6d8;}.cls-6{fill:#f6bc3c;}</style></defs><title>coolhat</title><g id="Layer_2" data-name="Layer 2"><g id="snake"><path class="cls-1" d="M676.78,804.09,597.64,916.75C631.89,884.79,661.2,847.86,676.78,804.09Z"/><path class="cls-2" d="M672.46,801.56,603.31,900l-10,14.21c-3.37,4.8,3.86,9.81,7.86,6.06,34.47-32.27,64.27-70,80.42-114.86,2.18-6.07-7.48-8.68-9.65-2.66-15.54,43.15-44.69,79.41-77.84,110.45l7.85,6.06,69.15-98.44,10-14.22C684.8,801.33,676.13,796.33,672.46,801.56Z"/><path class="cls-3" d="M443.89,519.11C409,558.9,386.09,563.9,368.58,637.29c-1.08,4.55,3.17,67.16,19.59,74,12.6,5.26,62.18-24.64,57.77-37.53-24.39-71.24,42.83-195.84,65.31-205.87C520.15,463.94,479.46,478.58,443.89,519.11Z"/><path class="cls-3" d="M676.78,804.09,597.64,916.75C631.89,884.79,661.2,847.86,676.78,804.09Z"/><path class="cls-1" d="M1403.74,185.59C1336.07,119.7,1242.83,88.15,1152.08,62,1052.91,33.35,951.66,8.59,848.49,5.35c-285-8.94-557.61,152.31-732.92,377.26C90.72,414.49,67.4,447.84,50,484.33,37.11,511.4,27.58,540,20.36,569.09-5.08,671.56-.79,783.89,47.17,878s143.28,166.32,248.69,172.36c95.08,5.45,186-41,261.28-99.34,13.89-10.76,27.55-22.14,40.5-34.22l79.14-112.66c-15.58,43.77-44.89,80.7-79.14,112.66h0c40.51,54.33,109.52,72.41,176.54,82.35C1006,1033.48,1253,933,1395,746.58c62-81.38,105.06-179.22,110.75-281.37S1477,257,1403.74,185.59ZM511.25,467.91c-22.48,10-89.7,134.63-65.31,205.87,4.41,12.89-45.17,42.79-57.77,37.53-16.42-6.86-20.67-69.47-19.59-74C386.09,563.9,409,558.9,443.89,519.11,479.46,478.58,520.15,463.94,511.25,467.91Zm578,9.89C1010.74,443.17,933.83,425.41,858.9,428l52.66-52.52C1007.59,390.63,1130.89,416.6,1089.27,477.8Z"/><path class="cls-2" d="M1407.28,182.06C1336.45,113.63,1240.56,82.13,1148,55.57,1041.46,25,932-.79,820.58,0c-91.77.67-183,18.82-269,50.74-87.16,32.39-169,78.48-243.07,134.56a1064.11,1064.11,0,0,0-199,197c-32.64,42.17-61.37,86.79-79.5,137.21A517.44,517.44,0,0,0,.49,670.39c-4.4,97,20.63,196.59,83.45,272.18,56.31,67.77,140.23,113.95,229.54,113.16,101.48-.89,195.89-56.36,271-120.55,8.42-7.2,16-13.81,22.29-22.75l19-27.12,46.5-66.2,8.78-12.5L672,802.76a244.2,244.2,0,0,1-33.49,61.53,320.81,320.81,0,0,1-22.63,27.16q-5.83,6.31-12,12.37c-3.38,3.35-7.82,6.53-10.56,10.42a4.83,4.83,0,0,0,0,5c29.27,38.65,72.82,60.29,118.84,72.56,46.89,12.51,96.2,18.22,144.67,18.88,97,1.32,193.89-19.52,282.56-58.65,88.51-39.06,169.13-96.91,232.88-169.82,70.34-80.44,122.07-180,135.69-286.8,12.79-100.19-11.7-206.35-75.56-285.77a318.88,318.88,0,0,0-25.11-27.63c-4.6-4.51-11.67,2.55-7.07,7.07,71,69.65,104.55,170.73,100.85,269.06-4,106.6-49.88,208.85-115.11,292-58.18,74.13-133.28,134.22-217.15,176.93S992.2,995.15,898.25,1000a635.36,635.36,0,0,1-140.85-8.56c-46.11-8-94.34-20.87-131-51.51A157.23,157.23,0,0,1,602,914.24v5c3.22-4.58,9.33-8.68,13.33-12.76S623.21,898.26,627,894a337,337,0,0,0,21.5-26.62,251.88,251.88,0,0,0,33.07-62c2-5.66-6.09-8.2-9.14-3.86l-73,103.87c-5.41,7.7-10.51,12.6-17.86,19a634.63,634.63,0,0,1-63.08,48.29c-41,27.55-85.64,50.55-133.59,63.12-45.45,11.92-93.17,13.48-138.77,1.48-41.82-11-80.72-32.21-113.72-60C59.92,916.12,20,826.68,11.76,733c-9-102,14.53-209.2,70.34-295.39,50.66-78.24,116.7-148.36,187.64-208.51C338.94,170.46,416,120.74,498.68,83.3,581,46.06,669.26,21.22,759.29,13c103.87-9.45,207,5.85,307.73,31,49.85,12.45,99.6,26.27,148.32,42.64,45.11,15.16,89.51,33.46,129.75,59.13a350.42,350.42,0,0,1,55.12,43.3C1404.84,193.6,1411.92,186.54,1407.28,182.06Z"/><path class="cls-2" d="M508.73,463.59c-4.6,2.14-8.4,6.26-11.67,10a160.87,160.87,0,0,0-14.14,19.55,334,334,0,0,0-28.79,58.66c-8.68,22.68-15.22,46.39-17.61,70.62a146.27,146.27,0,0,0,.26,33.33A103,103,0,0,0,439.84,671c.34,1.19.72,2.38,1.11,3.56s.28.3.26,1.06a19,19,0,0,1-1.1,2.63c-4.26,7.28-12.68,12.69-19.66,17-7.7,4.79-16.38,9.62-25.41,11.27-2.79.51-4.48.64-6.06-.54-2.14-1.61-3.85-4.85-5.08-7.46-3.95-8.39-5.8-17.93-7.36-27a225.58,225.58,0,0,1-2.94-25.93c-.5-9.41,1.4-14.25,4.45-24.53,6.34-21.39,15.52-41.44,30.45-58.21,6.23-7,13-13.46,19.66-20,8.81-8.7,16.88-18,25.44-27C470,498.79,489.49,483.6,511,473.34c.84-.4,1.8-.71,2.6-1.19-.55.33-.57.07.24,0L509,470.82h0v-7.08c1.45-1.35.62-.54-.23-.16-5.86,2.64-.78,11.26,5,8.63a7.74,7.74,0,0,0,2.25-1.39,5.07,5.07,0,0,0,0-7.08c-4-3.91-11.86,1.75-15.59,3.75A211.35,211.35,0,0,0,471,486.88c-21.38,16.58-38.71,37.77-57.87,56.78-15.09,15-27.71,31-36.12,50.72-5.64,13.21-10.79,27.65-13.28,41.83-1.07,6,0,12.75.61,18.77a225.18,225.18,0,0,0,4.89,30.66c2.07,8.67,4.74,18.23,10.55,25.22,5.17,6.23,12,6.85,19.47,5,9.79-2.37,19.21-7.41,27.64-12.81,7.94-5.09,16.66-11.25,21.69-19.45s.25-16.15-1.28-24.78c-4.21-23.65-.23-48.55,5.83-71.51a333.93,333.93,0,0,1,27-69.05c7.74-14.84,16.45-31.23,28.93-42.72a15,15,0,0,1,4.76-3.35C519.61,469.51,514.53,460.89,508.73,463.59Z"/><path class="cls-2" d="M1091.8,473.48c-57.83-25.4-118.92-43.86-182.07-49.16A435.53,435.53,0,0,0,858.9,423l3.53,8.53,52.67-52.51-4.87,1.28c36.93,5.83,74,12.27,109.89,23,15.13,4.54,30.23,9.82,44.12,17.43,9.81,5.37,20.08,12.21,25.46,22.35,5.8,10.94,1.69,22.52-4.75,32.15-3.58,5.36,5.07,10.37,8.64,5.05,5.3-7.93,9.38-17.27,9-27-.38-9-4.37-17-10.18-23.69-15.05-17.35-39.53-26.22-60.71-33.15-28.94-9.47-59-15.56-88.91-20.84q-11.41-2-22.87-3.84c-4.34-.7-8.91-2.5-12.46.76-5,4.58-9.64,9.61-14.44,14.4L855.36,424.5c-3,3-.84,8.68,3.54,8.54,78.77-2.59,156.13,17.57,227.85,49.08C1092.58,484.68,1097.68,476.07,1091.8,473.48Z"/><path class="cls-2" d="M687.9,826.9c1.32-18,13.13-22.17,23.59-32,1.38,3.58-1,7.38-2.77,10.78A38.12,38.12,0,0,0,711,844a18.52,18.52,0,0,1,2.85,5c.53,1.85-5.34,8.56-6.94,9.62C694.31,846.79,685.92,836.14,687.9,826.9Z"/><path class="cls-2" d="M692.9,826.9c1.31-14.09,12.68-19.77,22.12-28.43l-8.36-2.21c.79,3.23-2.33,6.88-3.56,9.73a39.17,39.17,0,0,0-2.52,7.84,45.4,45.4,0,0,0-.16,17.27,42,42,0,0,0,6.27,15.43c-.2-.3,2.75,4.06,2.42,1.69.06.44-1.36,2.18-1.57,2.47a21.91,21.91,0,0,1-3.15,3.61l6.06.78c-4.77-4.52-9.61-9.18-13.37-14.59-2.4-3.44-5.11-7.86-4.36-12.26,1.08-6.29-8.55-9-9.64-2.66-2.55,14.94,10.47,27.27,20.3,36.58,1.45,1.37,4.3,2.13,6.06.78,3.43-2.63,6.89-6.35,8.6-10.36,2.67-6.24-3.41-11.11-5.74-16.48a33.58,33.58,0,0,1-1.55-21.86c2-7.19,7.47-12.78,5.56-20.63-.93-3.8-5.69-4.66-8.36-2.2-5.31,4.87-11.6,8.76-16.4,14.17-5.42,6.12-7.9,13.26-8.65,21.33C682.31,833.31,692.31,833.27,692.9,826.9Z"/><path class="cls-2" d="M328,731.28a159.77,159.77,0,0,0,79.52-18.21c24-12.63,43.69-31.68,62.68-50.68,19.74-19.76,39.83-38.68,62.18-55.52s46-32.31,69.36-47.86,46.44-31.16,68.35-48.54c22.42-17.77,43-38.07,68.64-51.37,47.67-24.78,103.7-24.87,155.86-19.19,31.11,3.38,62.24,8.48,92.85,14.94,31.65,6.68,62.9,15.85,91.57,31.09,5.68,3,10.74-5.61,5-8.63-50.54-26.87-108.61-36.38-164.68-44.28-52.46-7.39-108-11.2-159,6.11-26.19,8.89-48.5,23.75-69.64,41.3-22.49,18.67-45.06,36.7-69.19,53.24-46.09,31.59-94.53,60.45-135.38,99-22.22,21-42.34,44.61-67.63,62A150.35,150.35,0,0,1,328,721.28c-6.43-.21-6.43,9.79,0,10Z"/><path class="cls-2" d="M956.85,638.61c29.76-23.81,59.29-48.18,85.34-76.09a356.17,356.17,0,0,0,35.6-44.42c10.21-15.21,19.94-31.83,25.77-49.28,3-8.94,4.61-18.87,2.06-28.11-2.32-8.43-8-15-15.06-19.88s-15.49-8-23.51-11.2q-15-5.91-30.2-11.13a711,711,0,0,0-123.09-30.19,718.92,718.92,0,0,0-126-8.14c-42.43,1-85.75,4.76-126.28,18.06-38.84,12.74-74.67,33-108.74,55.32-33.52,21.93-67.05,44.74-98.18,70-30.24,24.52-58,53.39-74.58,89a167.57,167.57,0,0,0-15.24,53.94c-1.77,17.54-.74,37.38,6.34,53.76,3.16,7.32,8.1,13.17,15.75,15.86,6.08,2.14,8.7-7.51,2.66-9.64-7.68-2.71-10.4-12.09-12.16-19.19a114,114,0,0,1-3.27-27c-.09-17.68,3.67-35.15,9.89-51.64,13.3-35.24,38.29-64.21,66.4-88.64,28.65-24.89,60.52-46.25,91.9-67.52,32-21.72,65.25-42.48,101.24-57.09,37.65-15.28,77.26-21.6,117.63-24.12a705.24,705.24,0,0,1,238,25.81q28.74,8.19,56.72,18.81c14.49,5.5,36.9,11.36,40.56,29,2,9.4-1.38,19.45-5,28a225.94,225.94,0,0,1-11.84,23.46,298.5,298.5,0,0,1-31.26,44.28c-23.19,27.45-50.17,51.4-77.86,74.17q-10.23,8.42-20.59,16.67c-5,4,2.09,11.05,7.07,7.07Z"/><path class="cls-2" d="M854,432l56-55c4.6-4.51-2.47-11.58-7.07-7.07l-56,55c-4.59,4.52,2.48,11.59,7.08,7.07Z"/><path class="cls-4" d="M712.41,854.18c7.85,4.07,10.66,26.29,16.84,32.61,5.74,5.88,16.77.08,18.5-8s-2.49-16.06-6.83-23c-11.46-18.46-25.25-37.28-25.5-59-.11-9.91,2.66-20,.15-29.59-1.92-7.38-6.76-13.57-10.79-20.05-5.78-9.29-10.09-19.75-10.62-30.68s0-27.75,8.06-35.17c-6.31,3.92-6.87,16.27-10.19,22.91C685.12,718,678,732.62,679.22,748c1.29,16.65,17.83,42.61,28.13,55.74"/><path class="cls-2" d="M711.15,856.34c5.64,3.34,7.47,12.83,9.51,18.53,1.85,5.14,3.74,12,8.64,15.15,5.45,3.48,12.58,1,16.8-3.3,6.06-6.2,5.17-15.3,2-22.72-4.22-10-11.2-18.84-16.71-28.15-5.25-8.86-10-18.17-12.25-28.3-2.59-11.75.78-23.14-.2-34.91-.87-10.38-6.74-18.18-12-26.75-6.45-10.44-10.26-21.46-10.42-33.77-.12-9.59.22-21.84,7.47-29,2-1.94-.65-5.61-3-3.93-8.24,5.88-8.48,18.49-12.69,27-6.26,12.68-12.48,26.46-11.6,41,.64,10.61,5.43,20.79,10.37,30a200.48,200.48,0,0,0,18.55,28.37c2,2.54,5.48-1,3.53-3.53a195.81,195.81,0,0,1-16.7-25.4c-4.74-8.58-9.63-18.15-10.65-28-1.38-13.41,4.29-26.47,10-38.24a77.2,77.2,0,0,0,5.36-13.41c1.25-4.51,2.26-10.5,6.33-13.4l-3-3.92c-10.36,10.3-10.34,30.16-8,43.58,1.65,9.58,5.9,18.52,11.08,26.68,2.63,4.14,5.52,8.15,7.64,12.59C713.8,768,714.33,773.9,714,780c-.54,10.4-1.82,20.19.72,30.46,2.26,9.08,6.44,17.62,11.1,25.7,5,8.63,10.92,16.73,15.65,25.49,2.68,5,5.41,11.3,3.71,17.06-1.23,4.16-5.56,8-10.07,8-7.36-.1-9.72-13.54-11.67-18.85-2.06-5.63-4.32-12.59-9.78-15.82-2.77-1.64-5.29,2.68-2.52,4.32Z"/><path class="cls-4" d="M20.38,587.82c3.53,2.18,14.72-9.75,29.89-25.92C68,543,77.87,534.08,81.78,525.06c12.73-29.38-1.15-67,17.1-93.35,10.24-14.76,28-21.85,43.49-31a156.33,156.33,0,0,0,68.91-87.23c4.74-15.27,11.7-34.55,6.37-36.77S197.22,290.87,174.83,320c-27.75,36.15-29.5,31.87-57.79,68.11C95.27,416,81.29,433.94,66.83,461.75c-4,7.72-12.54,29.22-29.58,72.23C21.68,573.27,17.2,585.86,20.38,587.82Z"/><path class="cls-2" d="M19.12,590c2.95,1.39,5.8-.24,8.23-2,5-3.57,9.29-8.18,13.54-12.56,11.2-11.56,22.58-23.13,33.24-35.19a57.26,57.26,0,0,0,14.35-29.06c2.75-15,1.69-30.38,2.79-45.55,1.15-16,5.61-30.85,18-41.69,11.9-10.39,27.07-16.14,40.19-24.75a159.17,159.17,0,0,0,57.72-67.94,215.58,215.58,0,0,0,13.88-42.38c1.14-5.44,2.15-17.36-7-14.42-8,2.57-14.74,11.73-20,17.71-11.12,12.73-21,26.44-31.67,39.52-15.66,19.19-33.12,36.67-48.4,56.23-18.43,23.61-37.38,47.51-50.43,74.65-9.5,19.74-16.88,40.66-24.94,61C33,538,27.07,552.46,21.82,567.1c-2,5.53-5.38,12.61-4.89,18.68a5.26,5.26,0,0,0,2.19,4.2c2.65,1.84,5.15-2.49,2.52-4.32.78.54.2-.51.43-2.15a50.11,50.11,0,0,1,2.25-8.34c3.66-11.33,8.18-22.4,12.55-33.47,9.24-23.44,18.2-47.06,28.2-70.19,9.13-21.13,22.34-40.44,36.12-58.77a778.41,778.41,0,0,1,50-60.41c18.18-19.71,33-42.27,51.24-61.87,1.61-1.73,12.34-13.74,14.52-10.77,1.1,1.5-.34,6.39-.64,7.86-.71,3.36-1.65,6.66-2.62,9.95-2.1,7.07-4.26,14.19-6.74,21.15a154.39,154.39,0,0,1-49.86,69c-21.18,16.63-52.86,24.34-64.73,50.6C80.66,464.09,90.07,493.71,81,520.15c-3.37,9.84-10.8,17.18-17.83,24.57-10.64,11.18-21,22.8-32.12,33.49-1.27,1.22-8,8.14-9.42,7.45C18.75,584.3,16.21,588.61,19.12,590Z"/><path class="cls-4" d="M74.49,658.88a22.25,22.25,0,0,0-6.1-9.61c-4.71-4.12-11.24-5.32-17.47-5.89-9.12-.84-18.54-.61-27.11,2.61s-13.48,1.09-16.23,9.82C8.66,694.47,3.93,740,13.76,763c14.33-5,30.46-15.41,39.27-27.77s14.62-26.61,19.11-41.12C75.67,682.69,78.41,670.21,74.49,658.88Z"/><path class="cls-2" d="M76.9,658.22c-5.18-13.76-17-17-30.56-17.66A60.78,60.78,0,0,0,24,643.28c-4.25,1.43-9.42,1.84-13.32,4.12S5,654,5.14,658.31c.17,7.67.12,15.34,0,23-.17,14.53-.58,29.07-.08,43.59.45,13,1.27,26.67,6.26,38.79a2.54,2.54,0,0,0,3.08,1.74c20.54-7.39,37.24-20.81,47.68-40.05a168.18,168.18,0,0,0,13-32.31c3.38-11.36,5.48-23.3,1.83-34.86-1-3.06-5.79-1.76-4.82,1.33,3.48,11,1.18,22.27-2.09,33.07a161.44,161.44,0,0,1-12.2,30.25c-9.8,18.07-25.36,30.8-44.69,37.75l3.07,1.75c-4.84-11.76-5.64-24.89-6.08-37.46-.53-15.38,0-30.79.11-46.17q.06-5.58.05-11.15c0-3.8-1.11-9.33.43-12.93,2-4.76,9.51-4.84,13.79-6.26,14.82-4.89,40.91-6.62,47.61,11.15C73.21,662.53,78,661.24,76.9,658.22Z"/><path class="cls-4" d="M188.85,837c-2.85-10.82-15.2-16-26.25-17.71s-23.11-2-31.89-9c-7.14-5.65-10.69-14.71-17-21.27-13.33-13.85-36.6-13.4-53.48-4.21s-25,20-36.5,35.4C46.18,870.44,72.08,916.84,107.24,953c9.7,10.08,27.2,8.44,38.35,0S162.9,931.13,168,918.1a439.42,439.42,0,0,0,20-65.92C189.14,847.17,190.15,841.92,188.85,837Z"/><path class="cls-2" d="M191.26,836.29c-3.71-12.2-16.35-17.52-28-19.45-7.65-1.27-15.55-1.61-22.92-4.2-8.46-3-13.16-9.29-18-16.43-7.51-11.09-16.93-18.49-30.56-20.12s-26.89,2.53-38.29,9.79C40.24,794.32,30.83,806.5,21.58,819a2.5,2.5,0,0,0,0,2.52c18.71,41.78,40.39,82.83,70.06,118,6,7.16,12.58,16.55,21.34,20.5,7.58,3.42,16.55,3.08,24.27.27,19.18-7,27.81-27.36,34.55-45q7.53-19.68,13.13-40Q187.72,865,190,854.71c1.38-6.18,2.55-12.13,1.22-18.42-.67-3.14-5.49-1.81-4.82,1.33,1.26,6-.32,11.83-1.65,17.63q-1.92,8.4-4.18,16.73-4.52,16.63-10.31,32.9c-6.29,17.61-13.51,40.74-31.8,49.44-7.9,3.76-18.24,4.63-25.89-.2-3.59-2.27-6.4-5.81-9.26-8.92q-5.31-5.78-10.3-11.83a380.82,380.82,0,0,1-35-50.86A667.24,667.24,0,0,1,25.89,819v2.52c15.06-20.29,34-41.68,61.71-40.72a37.76,37.76,0,0,1,17.82,4.9c6.13,3.62,10,9.2,13.89,15,3.22,4.75,6.62,9.47,11.42,12.76,5.43,3.75,12,5.41,18.38,6.45,12.9,2.11,32.67,2.48,37.33,17.77C187.37,840.69,192.2,839.38,191.26,836.29Z"/><path class="cls-4" d="M177.54,1010.47c-12.59-8.91,22.47-33.11,39-40.5,22.56-10.09,30.5-1.48,60.29-4.86,43.15-4.9,80.71-30.45,120.73-47.32,6.19-2.61,12.92-5.06,19.48-3.6,14.33,3.19,18.3,23.29,11.53,36.32-4.5,8.66-12.31,16.08-13.29,25.8s5.5,12.25,7.16,25.07a78.11,78.11,0,0,0-3.22,24.31C364,1054,235.07,1051.2,177.54,1010.47Z"/><path class="cls-2" d="M178.8,1008.31c-10.47-8.08,32.84-33.39,38.61-36,10.75-4.88,21.09-5.18,32.63-4.38A146.71,146.71,0,0,0,291,965.32c31.09-6.59,59.14-22.44,87.51-36.1,7.34-3.54,14.74-7.08,22.33-10.06,7.32-2.89,16.3-4.93,22.54,1.21,9.18,9,6.57,23.83.32,33.56-4.1,6.37-9.16,12.54-10.57,20.2-1,5.59.46,10.28,2.87,15.26,2.27,4.69,4.53,9.23,3.23,14.32a85.17,85.17,0,0,0-2.46,22l1.24-2.16c-27.1,13.75-59.51,17.33-89.47,18.23-34.56,1-69.85-2.3-103.08-12.13-16.43-4.85-32.52-11.45-46.61-21.32-2.64-1.85-5.14,2.48-2.52,4.32,26.74,18.73,60.43,26.81,92.32,31.07,34.78,4.64,70.68,4.66,105.29-1.42,16-2.82,32-7,46.6-14.43a2.47,2.47,0,0,0,1.23-2.16,80.94,80.94,0,0,1,2.57-21.75c1.21-4.59-.49-9.24-2.34-13.52-2.82-6.49-5.66-11.31-3.08-18.6,2.74-7.76,8.91-13.7,12.37-21.09,4.58-9.78,4.28-22.84-2.4-31.62-9.86-13-25.82-6.51-38.06-1.09-32.38,14.31-63.07,33.55-97.85,41.74-15.61,3.67-30.91,3.93-46.8,2.89a63.36,63.36,0,0,0-32.87,6.11c-9.08,4.38-54.8,30.11-37,43.87C178.82,1014.59,181.31,1010.25,178.8,1008.31Z"/><path class="cls-4" d="M674.75,665c-9.31-15.46-33-14.58-48.24-4.83-30.64,19.67-38.3,60.2-56.58,91.7-21.07,36.31-58.59,63.56-69.3,104.17-4.78,18.08-.31,42.12,17.61,47.46,15.11,4.51,35-5.85,45.4,6,5.7,6.54,4.51,17-.36,24.16-3.9,5.75-9.22,17-15,23.47C610.44,903,662,861.48,668.45,815.93c4-28.09-1.88-70.1,10.64-95.23C685.63,707,682.6,678,674.75,665ZM592,802.57c-1,5.06-4,9.44-7.19,13.53a207.9,207.9,0,0,1-26.59,28.5c-4.61,4.09-11.9,8-16.32,3.67-2.46-2.38-2.6-6.26-2.07-9.64,3.54-22.4,15.72-25,27.52-44.38,5.68-4.24,13.17-8.58,19.38-5.16C591.21,791.58,592.92,797.5,592,802.57Zm53.64-76.71c-2.2,5.81-4.45,11.71-8.19,16.68s-9.24,9-15.44,9.4a8.09,8.09,0,0,1-5.74-1.4c-3-2.43-2.48-7.07-1.41-10.75a73.25,73.25,0,0,1,22.59-35h6c3.27-1.88,3,6.48,4,10.13S646.94,722.33,645.6,725.86Z"/><path class="cls-2" d="M676.91,663.74c-7-11-20-14.42-32.36-12.72-13.74,1.89-25.35,9.81-34.44,20-20.13,22.56-27.18,53.19-42,79-16.26,28.31-41.7,50-58.23,78.09-7.21,12.25-13.2,26.22-13.54,40.62-.28,12,3.13,25.66,13.22,33.2,6.1,4.57,13.6,5.55,21,5.26,8.07-.31,17.26-2.69,25.12,0,10.72,3.72,10.9,16.23,5.78,24.64-4.8,7.89-9,16.53-15,23.57a2.5,2.5,0,0,0,3.54,3.54c21.59-18.8,43.54-37.26,64.24-57.05,16.12-15.4,32-31.83,43.57-51a101.78,101.78,0,0,0,10.92-24.4c2.7-9.49,3.3-19.44,3.65-29.25.81-23-1.41-47.84,6.55-69.86,1.78-4.94,4.19-9.35,5.15-14.58a73.76,73.76,0,0,0,.95-16.66c-.53-11-2.58-22.75-8.15-32.37-1.61-2.79-5.93-.27-4.32,2.52,5.12,8.85,7,19.76,7.47,29.85s-1.24,18.27-5,27.45c-8.28,20.34-7,43.87-7.45,65.38-.21,10.22-.28,20.68-2.35,30.72a88.63,88.63,0,0,1-9.87,25.44c-10.33,18.37-25,34.07-40,48.73-22,21.55-45.7,41.35-68.93,61.57l3.54,3.54c5-5.81,8.58-12.53,12.41-19.1,3.36-5.76,6.93-10.84,7.43-17.74,1-14.35-10.83-21.28-23.68-21-13.86.29-30,4.79-39.06-9-7.61-11.6-6.86-27-2.83-39.72,9.61-30.28,33.76-52.88,52.75-77.35a197.42,197.42,0,0,0,23.25-37.8c6.22-13.31,11.51-27.06,18.33-40.08,7.48-14.28,17.37-28.54,31.88-36.4,13-7,33.16-8.43,42.08,5.54C674.32,669,678.65,666.46,676.91,663.74Z"/><path class="cls-2" d="M589.54,801.9c-1.72,7.25-6.87,13.06-11.53,18.66q-6.54,7.83-13.82,15c-4.22,4.16-10.18,11.59-16.59,12-9.22.51-4.62-13.67-2.71-18.58,3.71-9.49,11.62-16.12,17.85-23.9,3.68-4.59,6.11-9.5,11.5-12.33,3.94-2.07,9-3.67,12.71-.33,2.56,2.27,3,6.36,2.59,9.53s4.37,4.51,4.83,1.33c1.7-11.79-7.07-21.05-19-16.55a32.65,32.65,0,0,0-8.65,4.92c-2.43,1.94-3.81,5-5.66,7.47-3.66,5-8,9.33-12,14-6.79,8-13.42,19.78-11.87,30.68.74,5.21,4.63,9.11,10.06,8.84,6.08-.31,11.06-4.7,15.32-8.61a207.23,207.23,0,0,0,19-19.9c5.22-6.26,10.89-12.75,12.83-20.86C595.11,800.1,590.29,798.77,589.54,801.9Z"/><path class="cls-2" d="M643.19,725.19c-3.61,9.52-8.56,22.13-20,24-14,2.34-.81-22,2.15-26.66A71.13,71.13,0,0,1,634.43,711c.89-.91,3.23-3.63,3.45-3.71,1-.39,2.86,0,4,0a15.19,15.19,0,0,1,2,.06,30.34,30.34,0,0,1,.47,4.18c.19,1.36.47,2.71.65,4.06.45,3.46-.57,6.47-1.75,9.65-1.12,3,3.71,4.33,4.82,1.33,2.43-6.53,2-11.73.82-18.43-.66-3.72-1.85-6-5.66-5.85-1.79,0-3.8-.32-5.56,0-2.75.5-4.81,3.23-6.71,5.18A75.86,75.86,0,0,0,618.13,725c-3.91,7.43-13.51,28.84,2.31,29.48,15.49.64,23-15.92,27.57-27.94C649.16,723.51,644.32,722.21,643.19,725.19Z"/><path class="cls-2" d="M643.37,702.24a33.57,33.57,0,0,0-5.76,0c-2.35.42-3.89,2.38-5.57,4a75.79,75.79,0,0,0-13.13,17.28c-4.08,7.34-14.69,29.07.78,30.82s23.59-15.35,28-27c1.32-3.47,2.69-7.09,2.41-10.87-.18-2.4-.77-4.9-1.13-7.28-.49-3.23-1.76-8.6-6.28-6.84-3,1.15-1.68,6,1.33,4.82-.92.35.62,6.61.81,8,.75,5.6-1.88,11-4,16.1-2,4.74-4.47,9.5-8.28,13.06a19.78,19.78,0,0,1-7.46,4.53c-3.52,1.09-8.09.67-8.58-3.81s2.47-10.06,4.17-13.84a72.07,72.07,0,0,1,6.89-12c2.4-3.38,6.55-9.64,10.4-11.61-.09,0-.41-.15.21-.34a6.68,6.68,0,0,1,1.73,0h3.48C646.59,707.24,646.6,702.24,643.37,702.24Z"/><path class="cls-4" d="M792,544.76q-7-16.41-15-32.42c-1.66-3.35-4.15-7.18-7.89-7-2.24.08-4.12,1.64-5.79,3.15a193.51,193.51,0,0,0-59.78,108.4c-1.37,7.74-2.22,15.95.66,23.27s15.61,20.17,23.29,18.51l64.49-60.36C797.34,586.88,796.93,556.35,792,544.76Zm-27.63,49.67c-4.63,11.19-12.94,23.29-25.05,23.22l-8-.92c-2.24-24.42,11.29-47.2,24.31-68,1.62-2.59,4.17-5.56,7.09-4.66a6.42,6.42,0,0,1,3.32,3.27C774,561.49,770.53,579.39,764.32,594.43Z"/><path class="cls-2" d="M794.11,543.5q-6.51-15.12-13.75-29.9c-2.76-5.6-7-13.22-14.49-10-3.06,1.31-5.55,4.13-7.91,6.39q-5.24,5-10.09,10.46a197,197,0,0,0-40.54,70.67,178.92,178.92,0,0,0-6.67,27.57c-1.24,8-1.79,16.87,2.1,24.33a42,42,0,0,0,12.93,14.22c3.49,2.46,9.42,5.76,13.56,3.12,4.32-2.76,8.14-7.62,11.86-11.11l45.69-42.76c2.05-1.91,4.35-3.74,6.23-5.82,2.53-2.81,3.23-7,3.89-10.68,2.54-14.24,3-32.25-2.56-45.89-1.19-2.94-6-1.66-4.82,1.33,4.54,11.15,4.4,24.89,3.38,36.69-.35,4.13-.56,10.85-2.83,14.45-.69,1.1-2.21,2.07-3.15,2.95l-37.66,35.24-17.85,16.71c-1.46,1.37-3.15,3.63-4.91,4.6-.28.15-.5.67-.8.75.8-.21-2.09-1-2.13-1a17.64,17.64,0,0,1-4.37-2.22c-5-3.26-10.13-8.43-12.56-14-3.67-8.34-1.6-18.36.15-26.91a189.49,189.49,0,0,1,16.44-47.32,191.57,191.57,0,0,1,32-45.6,109.83,109.83,0,0,1,9.81-9.61c2.59-2.1,4.78-3,7.4-.47,1.65,1.58,2.61,4.36,3.6,6.38q7.26,14.76,13.75,29.9C791.06,549,795.37,546.43,794.11,543.5Z"/><path class="cls-2" d="M762.16,593.16c-3.29,7.74-7.93,16.41-15.79,20.3-5,2.47-9.87,1.37-15.12.77l2.5,2.5c-1.68-22,8.69-41.78,19.79-60,1.22-2,2.43-4,3.71-6,.67-1,1.45-2.87,2.63-3.44,2-1,2.81.15,3.93,1.3,3.17,3.23,4.09,11.26,4.3,15.48.5,10.23-2.41,20.27-6.2,29.66-1.21,3,3.62,4.28,4.82,1.33,4.62-11.43,7.86-24,5.8-36.41-1.14-6.86-6.75-23.41-16.19-14.9-4.44,4-7.34,10.7-10.32,15.8a180.09,180.09,0,0,0-9.81,18.91c-5.28,12.12-8.48,25-7.46,38.24a2.59,2.59,0,0,0,2.5,2.5c6.27.72,11.73,1.56,17.65-1.46,8.59-4.38,13.94-13.52,17.58-22.08C767.72,592.76,763.41,590.21,762.16,593.16Z"/><path class="cls-4" d="M618.14,576c-15.78-5.14-32.13,4.85-45.73,14.38l-64,44.81s-28.89,50.51-41.15,77.46c-7.06,15.51-12.59,36.09-.1,47.7,9.38,8.72,24.67,7.13,36,1.13,15.9-8.43,27.08-23.7,35.35-39.68,7.52-14.54,13.45-30.55,25.5-41.64,8.21-7.56,18.6-12.19,28.55-17.25,17.3-8.81,34.7-20.31,42.54-38.08S636.61,582,618.14,576ZM567.71,620.1c-15.27,27.72-41.24,47.64-66.48,66.74l-4,1.45a131,131,0,0,1,50.1-70.56c5.69-4,13.34-7.6,19.27-4a4.32,4.32,0,0,1,2.13,2.55A5.5,5.5,0,0,1,567.71,620.1Z"/><path class="cls-2" d="M618.81,573.55c-23.13-6.77-44.56,12.45-62.07,24.71l-32,22.41c-5.33,3.73-10.69,7.43-16,11.2a10.35,10.35,0,0,0-3,2.94c-6.77,10.05-12.1,21.51-17.88,32.14-7.93,14.59-15.91,29.25-22.75,44.4C458.48,726,451.65,747,464,760.62c13.36,14.81,36.21,7.38,49.68-3,17-13.14,25.74-32.35,35.12-51,5-10,10.74-19.74,19.52-26.86s19.65-11.46,29.61-16.81c18.1-9.72,38.07-24.22,42.17-45.77,3.28-17.26-3.63-37.36-21.24-43.57-3-1.07-4.35,3.76-1.33,4.82,15.75,5.55,21,24.94,17.2,39.87-4.73,18.52-22.11,30.92-38,39.59-8.66,4.74-17.83,8.59-26.1,14a65.42,65.42,0,0,0-18.81,19c-10.71,16.31-16.43,35.26-28.9,50.53-10.84,13.28-30.91,28.72-49,20.37-18.87-8.7-10.72-34.2-4.27-48.4C480.9,688.58,494.54,664.7,508,641a31.49,31.49,0,0,1,2.2-3.88c1.69-2.19,5.15-3.74,7.49-5.38l32-22.41c10.62-7.43,21.05-15.27,32-22.17,10.69-6.72,23-12.5,35.79-8.76C620.57,579.28,621.89,574.46,618.81,573.55Z"/><path class="cls-2" d="M565.55,618.84c-8.46,15.1-20,27.95-32.8,39.48-6.23,5.61-12.73,10.91-19.34,16.07-5.33,4.17-10.5,9.19-16.89,11.49L499.6,689a128.72,128.72,0,0,1,40.73-62.73,83.84,83.84,0,0,1,11-8.14,23.32,23.32,0,0,1,7-3c2-.43,9.57-.83,7.27,3.75-1.44,2.86,2.88,5.4,4.32,2.52,4.86-9.67-7-13-14.48-10.65-10.13,3.19-19.36,12.09-26.71,19.44a135,135,0,0,0-33.91,57.48c-.5,1.73,1.26,3.73,3.08,3.07,6-2.15,10.5-6.12,15.53-10C520.77,675,528.06,669.17,535,663c13.61-12.09,25.9-25.67,34.83-41.61C571.45,618.55,567.13,616,565.55,618.84Z"/><path class="cls-4" d="M640.62,529.52c1.54-5,13.49,1.33,18.53,2.78,9.94,2.87,20,6.54,30.32,5.55,10.92-1,20.67-7.22,29.19-14.13,4.89-4,9.59-8.29,12.94-13.61,7.56-12,3-38.27-5.49-49.66"/><path class="cls-2" d="M642.78,530.78c1.2-2.66,12.91,3,14.94,3.69,7.34,2.44,15,4.77,22.72,5.68,15.63,1.86,28.95-5.58,40.65-15.2,5.45-4.48,11.21-9.76,14.1-16.36a38.34,38.34,0,0,0,2.74-15.47c0-11.54-2.88-24.41-9.66-33.93-1.85-2.61-6.19-.11-4.32,2.52,6.75,9.48,9.46,22.54,8.92,34-.7,14.88-12.36,24.63-24.17,32.18-6.9,4.42-14.55,7.61-22.85,7.6s-16.39-2.75-24.28-5.1c-5.22-1.56-19.59-10-23.11-2.15-1.31,2.91,3,5.46,4.32,2.52Z"/><path class="cls-4" d="M866,495.46c-3.8-4.41-9.85-6-15.51-7.37l-14.36-3.45c-10.8-2.6-23.71-4.69-31.72,3-8.3,8-6.28,21.5-3.64,32.7l11,46.39c.72,3,3,7,5.85,5.71l43.71-25.87c-2-8.7,2.33-17.39,5.52-25.72S871.84,502.22,866,495.46ZM838.32,533a14,14,0,0,1-18.18.3,14.36,14.36,0,0,1-2.44-18.1c2.86-4.36,9.79-6.59,13.24-2.68C835.18,517.59,843.15,528.41,838.32,533Z"/><path class="cls-2" d="M867.79,493.7c-6.54-6.88-16.8-8.06-25.59-10.18s-18.06-4.74-27.2-3.38c-7.74,1.15-14.26,5.72-17.17,13.11-3.1,7.89-1.81,16.87-.09,24.92,2.54,12,5.59,23.81,8.39,35.7,1.22,5.16,1.87,11,4,15.88,1.15,2.61,3.23,5.45,6.4,5.43,2.51,0,5.16-2.26,7.19-3.46l13.58-8,25.25-14.94a2.62,2.62,0,0,0,1.15-2.83c-3.18-17.78,17.3-35.2,4.08-52.21-2-2.54-5.49,1-3.53,3.53,5.79,7.46,2.24,17.66-.84,25.48-3.16,8-6.09,15.79-4.53,24.53l1.14-2.82L820.4,567.88c-3.09,1.83-4.12,3.7-5.91-.64-1.73-4.18-2.27-9.33-3.31-13.73q-1.81-7.72-3.65-15.46c-2.17-9.2-5-18.5-6.15-27.9-1-8.1-.47-17.62,7.1-22.51,7.84-5.06,18.58-2.58,27-.59,9.1,2.14,22,3.08,28.77,10.18C866.48,499.57,870,496,867.79,493.7Z"/><path class="cls-2" d="M836.55,531.19c-4.36,3.74-11.35,3.74-15.44-.46-3.8-3.9-4.35-11.48-.3-15.43,1.76-1.71,4.94-3.17,7.32-1.91,1.91,1,3.56,4,4.73,5.72,1.76,2.59,6.48,9,3.69,12.08-2.15,2.38,1.37,5.93,3.53,3.54,5.4-6-.31-14.65-4.12-19.86-2.16-2.95-4.21-6-8.05-6.74s-7.94,1-10.64,3.64c-6,5.91-5.37,16.62.3,22.5,6.06,6.27,16.14,5.92,22.51.46C842.53,532.63,839,529.11,836.55,531.19Z"/><path class="cls-4" d="M755,450.67c-.52,8.52,44.53,30,79.12,16.57,13.31-5.17,24.11-15.38,41.06-12.79,8.18,1.25,15.1,6.45,22.4,10.34,31.56,16.79,70.09,9,105.36,14.86,64.31,10.65,72.71,3.56,73,1.69,1-5.73-68.54-21.9-109.61-30.14-43-8.62-70.7-14-108.23-14.67C816.12,435.81,755.62,441,755,450.67Z"/><path class="cls-2" d="M752.52,450.67c.06,6.11,8.36,10.39,12.9,12.75a97.32,97.32,0,0,0,32.72,9.89c13,1.63,26.45.69,38.58-4.44,13.12-5.55,25.11-15.12,40.23-11.51,7.86,1.87,14.47,7.2,21.62,10.72a93.07,93.07,0,0,0,20.77,7.19c15,3.34,30.4,3.69,45.66,4.11a416.69,416.69,0,0,1,49.37,4.57,346.69,346.69,0,0,0,36.37,3.8c6.34.26,12.84.34,19.11-.81,2.43-.45,5.53-1.09,7.34-2.95,6.92-7.14-16.2-12.61-19.41-13.59-23.07-7-46.73-12.26-70.28-17.34-28.38-6.12-57-12.15-85.76-15.86-28.4-3.66-57.08-3.92-85.64-2.18-12.39.75-24.79,1.85-37.05,3.83-7.46,1.21-16.65,2.29-23.07,6.66a7.16,7.16,0,0,0-3.46,5.16c-.41,3.19,4.6,3.16,5,0,.15-1.09,4-2.43,4.81-2.75A70.12,70.12,0,0,1,773.18,445a272,272,0,0,1,33.3-4.29c25.76-2.05,51.81-2.53,77.58-.38,28.48,2.38,56.57,8.21,84.54,13.89,22.46,4.56,44.85,9.54,67.05,15.26,9.1,2.35,18.2,4.77,27.11,7.77a63.85,63.85,0,0,1,8.55,3.33c2.18,1.1,2.06,2.07,2.33,0,0-.35.18-.15-.28.08a11.15,11.15,0,0,1-2.6,1c-4.55,1.24-9.48,1.27-14.16,1.25-24.85-.05-49-6.4-73.75-7.83-28.64-1.65-59.41,1.17-85.44-13.22-11.72-6.47-22.14-12.46-36-9.31-12,2.72-21.76,10.9-33.55,14.17-20.74,5.75-47.77,1.51-65.56-10.94-1.35-.95-4.76-3.11-4.78-5.08C757.49,447.46,752.49,447.45,752.52,450.67Z"/><path class="cls-4" d="M1036.65,506.79c-1-3.64-4.23-6.21-7.36-8.35a100.77,100.77,0,0,0-78.87-14.64c-10.76,2.54-21.54,7.22-28.39,15.91s-8.53,22.08-1.56,30.67c5.82,7.17,15.84,9.35,25.08,9.6l61.94,1c6.08,1.33,12.46-1.62,16.83-6s7.11-10.17,9.78-15.79C1036,515.26,1037.83,510.93,1036.65,506.79Zm-43.29,20.27c-8.65,1.69-17.54,3.38-26.23,1.89s-17.28-6.9-20-15.29c-.54-1.68-.71-3.82.67-4.92a4.85,4.85,0,0,1,2.81-.78c5.69-.32,12.75-.94,12.75-.94l32.34,7.48c2.67.62,5.74,1.58,6.66,4.16C1004,523.08,998,526.16,993.36,527.06Z"/><path class="cls-2" d="M1039.06,506.13c-2-5.47-6.5-8.64-11.27-11.66a101.45,101.45,0,0,0-18.29-9.07,103.64,103.64,0,0,0-42-6.54c-22.78,1.21-57.17,12.17-53.85,41.21,2.25,19.78,22.83,22.26,38.88,22.52l46.86.77c6,.1,12.8,1.22,18.37-1.08,7.15-2.95,11.89-9.12,15.43-15.76,3.34-6.25,7.25-13.12,5.82-20.39-.62-3.16-5.44-1.82-4.82,1.33,1.23,6.24-3.82,14.29-7,19.5-3.59,5.88-9.26,11.85-16.72,11.85-3.21,0-6.52-.37-9.75-.43l-39.18-.64c-11.06-.18-24.83,1.26-34.5-4.84-11.51-7.27-10.44-23.19-2.3-32.64,7.75-9,19.78-13,31.12-15.06a98.88,98.88,0,0,1,61.45,9.11c5.6,2.85,14.54,6.87,16.86,13.15C1035.35,510.45,1040.18,509.16,1039.06,506.13Z"/><path class="cls-2" d="M992.7,524.65c-9.85,1.91-20.6,4.09-30.33.43a22.81,22.81,0,0,1-10.63-7.79c-1.21-1.72-3.58-4.95-1.11-6.83,1-.74,5.06-.33,6.34-.42,3.5-.27,6.14-.53,9.55.27l15.22,3.52c4.78,1.11,9.81,1.88,14.48,3.37,3,1,4.53,3,1.71,5.5-1.31,1.17-3.56,1.57-5.23,1.95-3.13.72-1.81,5.54,1.33,4.82,4.23-1,9.94-3.23,11-8.05s-3.34-7.82-7.43-9c-7.82-2.33-16-3.73-24-5.57-3.31-.77-6.94-2.15-10.35-2.28a75.46,75.46,0,0,0-7.79.62c-4.82.34-11.2,0-11.12,6.51.07,5.32,4.32,10.46,8.27,13.58,11.93,9.43,27.65,6.91,41.46,4.23C997.18,528.86,995.85,524,992.7,524.65Z"/><path class="cls-4" d="M769.37,633.6c5.34,11.51,47.6,1.63,52.58.46,15.42-3.61,35.76-6.77,44.64-23.3,4.5-8.4,5.51-18.67,11.65-26,11.06-13.13,31.5-10,48.59-8.43a156.12,156.12,0,0,0,108-31.44c13.25-10.19,20.66-24,19-25.82-2.28-2.47-20.2,17.41-48,25.65-24.33,7.22-35.77-.56-64.21-1.84-50.94-2.28-90.52,19.29-107.31,28.44C800.81,589.6,763.74,621.49,769.37,633.6Z"/><path class="cls-2" d="M767.21,634.86c3.09,5.87,11.19,6.56,17.06,6.73,9,.27,18.14-1.12,27-2.75,16.78-3.08,36.89-5.83,50-17.46a36.51,36.51,0,0,0,9.39-13.55c2.95-7.06,4.32-15.25,9.32-21.27,8.48-10.2,23.39-9.66,35.39-8.73,13.91,1.08,27.44,2.25,41.39.73a159.78,159.78,0,0,0,41-10,155,155,0,0,0,37.57-20.95c8-6.11,17.43-15,20.57-25,1.75-5.57-2.33-7.32-6.72-4.73-8,4.74-15.11,10.88-23.27,15.47-11.8,6.62-25.07,11.65-38.74,11.9-11.79.22-23.41-2.8-35.09-4-28-3-56.46,1.29-82.85,11.06a266.29,266.29,0,0,0-54.66,28.05,226.13,226.13,0,0,0-31.26,24.57c-6.22,6-13.42,13.05-16.25,21.43a11.51,11.51,0,0,0-.17,7.93c1.2,2.94,6,1.65,4.83-1.33-2.49-6.08,5.18-14,8.8-18,7.89-8.79,17.15-16.39,26.66-23.36a275,275,0,0,1,51.54-29.69c22.66-10,47.14-16.11,72-16.6,13.32-.27,26.25,1.55,39.38,3.52,10.13,1.52,20,2.08,30.15-.06,11.72-2.47,22.84-7.61,33-13.87,3.73-2.3,7.34-4.78,10.9-7.32,2.24-1.6,6.64-3.57,8.29-5.74a8.56,8.56,0,0,1,.87-.42c0,.09-1.51-1.32-1.87-1.19s-1.43,3.57-1.69,4a58.6,58.6,0,0,1-11.6,14.53c-9.87,9.29-22.33,16.39-34.6,22a155.16,155.16,0,0,1-78.13,13c-11-1-22.41-2.58-33.28.07s-17.72,9.81-21.67,19.9c-2.8,7.14-4.41,14.89-9.51,20.88-4,4.68-9.3,7.93-14.92,10.26-8.77,3.62-18.3,5.38-27.53,7.43a185.35,185.35,0,0,1-24.89,4c-5.68.47-18.82,2.31-22.12-3.94C770,629.49,765.71,632,767.21,634.86Z"/><path class="cls-4" d="M917.81,647.55c-9.08,2.5-19.2-3.31-23-11.92s-2-19,3.18-26.89a23.71,23.71,0,0,1,8.6-8.17c8.1-4.17,18.13-1.46,26,3.16s14.64,11,22.9,14.86c1.43.67,3.06,1.27,4.55.74,1.9-.67,2.74-2.83,3.41-4.73,2.72-7.62,6.62-15.11,13-20.15s15.47-7.14,22.69-3.5"/><path class="cls-2" d="M917.15,645.14c-7.34,1.68-14.91-2-18.88-8.28-4.26-6.76-3.71-15.68-.46-22.73,3.38-7.32,9.42-13.12,17.87-13.12,7.62,0,14.54,3.93,20.63,8.12,6.57,4.52,23,20.47,28.83,7.89,3.12-6.7,5.14-13.31,10.58-18.66,5.74-5.64,14.38-8.69,22.07-5.25,2.91,1.3,5.46-3,2.52-4.32-11.57-5.17-23.86.08-31.28,9.67a44.73,44.73,0,0,0-5,8.12c-1.2,2.49-1.94,7.13-3.75,9-3.91,4.13-17.17-7.83-20.77-10.33-10-7-23.9-13.35-35.54-6.15-10.25,6.34-15.43,20.36-13.23,32,2.4,12.68,14.93,21.78,27.71,18.86,3.13-.71,1.81-5.54-1.33-4.82Z"/><path class="cls-4" d="M851,838.71c-7.31.69-13.27,6.36-16.94,12.72S822.55,858.3,819.5,865s-1.71,19.84-8.54,22.52-20.7,6.9-23-.07c-6.08-14.21,5.19-29.82,17.31-39.41s26.83-18.38,31.09-33.23c2.55-8.88,1.82-20.35,9.84-24.94,3.11-1.79,7.1-2.09,9.62-4.65,2.1-2.13,2.64-5.3,3.19-8.24,5.75-30.57,23.24-57.44,40.35-83.41,3-4.5,7.4-9.61,12.6-8.24a11.14,11.14,0,0,1,4.65,3,39.12,39.12,0,0,1,10.1,39.39c-3.31,10.34-10.79,18.73-18.07,26.78-11.79,13-29.7,35.09-41.48,48.11"/><path class="cls-2" d="M850.36,836.3c-6.9,1-12.38,5.25-16.41,10.77-2.27,3.11-3.8,5.66-7.07,7.86-2.58,1.73-5.31,3.2-7.39,5.56-3.87,4.41-4.07,10.51-5.14,16-.49,2.49-1,5.84-2.87,7.7s-5.9,2.64-8.5,3.33c-2.91.77-6.16,1.58-9.19,1.13-4.27-.63-4.91-5.41-5-9.13-.21-8.62,5-16.64,10.67-22.72,10.13-10.94,24.25-17.43,33.29-29.5,4.34-5.81,6.34-12.12,7.58-19.19,1.39-8,2.61-14.61,10.93-17.66,7.38-2.71,9-7.21,10.51-14.55a139.67,139.67,0,0,1,7.74-25c7-17,16.72-32.63,26.69-47.94,2.45-3.76,4.73-7.89,7.67-11.29,1.63-1.86,3.23-3.37,5.73-3.68,3.22-.39,5.29,1.94,7.31,4.2a36.79,36.79,0,0,1,9,22.41c1,19.53-14.94,33.22-26.63,46.76-11.33,13.11-22.26,26.59-33.87,39.47-2.15,2.38,1.38,5.93,3.54,3.53,11.77-13.06,22.84-26.73,34.34-40,10.88-12.57,24.9-25,27.26-42.38A42.14,42.14,0,0,0,927.17,699c-2.71-6-8.13-14.89-15.23-16.23-7.91-1.49-13,6.85-16.67,12.44-5.67,8.63-11.29,17.3-16.5,26.23-10,17.17-18.23,35.27-22.16,54.84-.57,2.84-.93,5.78-3.36,7.71-1.66,1.33-3.94,1.77-5.88,2.56a15.7,15.7,0,0,0-7.38,5.83c-4.27,6.4-3.94,14.56-6,21.72-5.12,17.62-24.31,25.35-36.36,37.4-5.75,5.74-10.94,12.85-13,20.84-1.41,5.64-1.73,14.94,3.17,19.15s13.36,1.84,18.79.17c6.87-2.12,10.49-4.88,12.2-12.13.85-3.63,1.12-7.39,2.1-11,1.35-5,5-6.93,9-9.63,8.29-5.62,10.53-16.21,21.75-17.78,3.18-.45,1.83-5.27-1.32-4.83Z"/><path class="cls-4" d="M707.39,955.08c-1.26-8.91,30.83-21.06,42-21.15,16.65-.13,18.74,11.48,30.81,10.74,14.7-.9,21.91-18.41,34.47-26.08,4.18-2.55,9-4,13-6.87,6.17-4.45,9.56-11.7,12.69-18.64q13-28.92,26.08-57.83c5.5-12.19,11.23-24.71,20.93-33.91,6.84-6.49,15.33-11,22.58-17,27.43-22.83,24.58-64,28.8-63.54,2.89.29,7.11,19.71,1.34,40.74-6.48,23.63-23.29,40.93-37.3,55.34-9,9.28-17.64,16.51-25.37,30.27a58.15,58.15,0,0,0-7.95,25.37,62.13,62.13,0,0,0,.61,11.62c1.49,15.93-5.84,29.74-11.31,40-4.69,8.84-14.7,27.12-35.47,38.22a59.61,59.61,0,0,1-19.87,7c-2.35.36-18.61,2.88-31.49-3.06a14.94,14.94,0,0,0-4.58-1.53c-6.77-.94-10.6,4-16.51,6.42-7.37,3-14.49.7-26-3C713.69,964.56,708.08,960,707.39,955.08Z"/><path class="cls-2" d="M709.89,955.08c-.23-3.27,4.41-5.89,6.76-7.35a77.73,77.73,0,0,1,14.88-7c9.44-3.43,19.93-6.56,29.46-1.67,3.83,2,7,5,11,6.65a19.42,19.42,0,0,0,13.62.45c10.65-3.49,16.89-13.89,24.75-21.12,5.52-5.07,12.53-6.91,18.52-11.16,5.16-3.65,8.58-9.09,11.32-14.67,7.63-15.52,14.31-31.57,21.42-47.34,6.67-14.78,12.44-31.29,22.93-43.9,9.35-11.24,23.4-16.86,33.14-27.68,13.81-15.34,17.33-34.56,21.32-54,.14-.68.92-2.48.76-3.1-.06-.22.19-.34.13-.4a22.38,22.38,0,0,1-2.27.19c-.09.15.66,1.2.7,1.45.86,5.87,2.19,11.19,2.07,17.27-.32,16.15-5.83,31.3-14.76,44.64-15.48,23.15-40.87,38.89-52.92,64.35a59.76,59.76,0,0,0-5.56,19.08c-.78,7.18.92,14.15.49,21.31-.79,13.15-7.27,25.33-13.67,36.57-11.78,20.68-31.62,38.1-56.22,39.93a57,57,0,0,1-19.86-1.65c-5.86-1.68-10.51-5-16.82-2.93s-10.48,7-17.33,7.16-14.45-2.85-20.8-5.23c-4.9-1.84-12.05-4.68-13.18-10.49-.62-3.16-5.44-1.82-4.82,1.33,2.28,11.7,20.17,15.64,29.64,18,5.72,1.46,11.58,2,17.17-.25,2.94-1.2,5.45-3.1,8.23-4.59,4.42-2.38,7.75-1.59,12.14.22,24.15,10,52.58-.4,70.28-17.89,7.77-7.69,13.68-16.82,18.78-26.43,6.94-13.09,12.75-26.76,11.22-41.9-1.76-17.41,4.12-32.61,14.9-46.16,9.06-11.38,20.38-20.88,30-31.78,9.79-11.07,18.42-23.29,23.39-37.3,4.67-13.14,7-29.82,2.83-43.45-.71-2.31-2-6.08-5-6-2.26.07-3.2,2.28-3.76,4.13-2.3,7.58-2.78,15.73-4.87,23.4-3.42,12.59-9.12,24.75-18.62,33.91-5.87,5.67-13,9.76-19.49,14.66a66.74,66.74,0,0,0-15.15,15.86c-10.12,14.9-16.45,32.69-23.82,49L841,885.49c-3.28,7.29-6.17,15.58-11.76,21.48-5.34,5.65-13.44,7.28-19.48,12-5.14,4-9.22,9.2-13.76,13.86s-9.69,9.15-16.38,9.32c-5.4.14-9.19-3.17-13.5-5.89-9.11-5.75-18.85-5.51-28.87-2.68-9.65,2.72-20.63,6.65-28.18,13.48-2.28,2.06-4.44,4.75-4.21,8S710.11,958.3,709.89,955.08Z"/><path class="cls-4" d="M606.74,911.85c3.29-3,8.33-6,11.7-3.14,1.45,1.26,8.9,3.17,9.34,5,1.65,6.93-3.62,22.07-2,29"/><path class="cls-2" d="M608.51,913.61c3-2.57,5.29-3.9,9.15-2.41,1.2.47,2.39,1.08,3.6,1.58,1.62.67,3.64,1,4.29,2.78.54,1.43,0,4.09-.21,5.58-.79,7.3-3.34,14.91-1.94,22.27.6,3.16,5.42,1.82,4.82-1.33-1.09-5.74.9-12.08,1.71-17.75.5-3.52,1.79-9-.24-12.31-1.87-3-7.09-3.89-10-5.46-5.51-3-10.28-.26-14.73,3.52-2.45,2.09,1.1,5.61,3.54,3.53Z"/><path class="cls-4" d="M385.53,799.25c-13.26-5.62-29-3.17-41.53,3.86-7.92,4.43-14.79,10.5-22.49,15.29-27.53,17.15-64.74,17.52-87.65,40.49-7.83,7.85-13.26,17.73-18.42,27.55-3.65,6.92-7.31,14.41-6.41,22.18,1.26,10.88,11.51,19,22.21,21.34a46.06,46.06,0,0,1,18.15,8.72A249.76,249.76,0,0,0,377.71,895c5.76-4,11.51-8.39,14.91-14.5,5-9.06,4.08-20.21,7.09-30.13,1.7-5.61,4.68-10.83,5.83-16.58C408.36,819.66,398.78,804.88,385.53,799.25Z"/><path class="cls-2" d="M386.19,796.84c-18.35-7.31-37.23-.89-52.57,10-7.7,5.48-15.15,11-23.77,14.95-8.16,3.77-16.74,6.54-25.3,9.27-15.7,5-32,9.87-45.37,19.92A73.15,73.15,0,0,0,222,869.93c-5.33,8.2-10.7,17.32-13.83,26.62-5.57,16.53,5,31.05,21.05,35.48A56.25,56.25,0,0,1,242,936.76c1.92,1.07,3.66,2.68,5.59,3.66,3,1.54,7.11.45,10.47.16q7.24-.65,14.47-1.7c38.79-5.61,77.34-20.44,109.09-43.61,8-5.82,14.14-12.62,16.52-22.43,1.23-5.07,1.61-10.29,2.51-15.41,1-5.74,3.18-10.87,5.24-16.28,6.72-17.68-2-36.34-19.1-44.06-2.91-1.31-5.46,3-2.53,4.32a33.28,33.28,0,0,1,16.51,15.7c4.16,8.54,2.73,16.69-.69,25.17-3.25,8.06-4.42,15.9-5.82,24.43-1.63,9.93-5.8,17.15-13.85,23.28-27.83,21.19-62.23,35.07-96.37,41.86a240.26,240.26,0,0,1-26.85,3.8,55.93,55.93,0,0,1-6.07.43c-1.18,0,1.07.85-1,0-1.91-.78-3.76-2.63-5.59-3.65-6.81-3.78-14.74-4.43-21.42-8.3-7.92-4.6-13-12.6-11.33-21.94,1.62-8.88,7.21-17.59,11.75-25.27s9.64-14.6,16.43-20.21c12-9.89,27.09-14.8,41.65-19.45,16.22-5.19,32.38-10.34,46.45-20.24,8.49-6,16.53-12.58,26.54-15.86s20.46-3.42,30.27.49C387.85,802.85,389.15,798,386.19,796.84Z"/><path class="cls-4" d="M788.78,970.26c2.87-1.54,4.52.82,7.06,2a9.66,9.66,0,0,1,3.78,3.06,5.88,5.88,0,0,1,.86,1.72c.78,2.4,7.42,23.13.33,25.41-13.07,4.2-79.45-9-107.91-23.57-20.13-10.3-15.42-25.2-15.08-27.3,1.46-9.05,24.31-30.6,21.12-20.32C693.74,948,732.44,1000.49,788.78,970.26Z"/><path class="cls-2" d="M789.44,972.67c3-1,7.86,3.31,8.83,5.67a41.69,41.69,0,0,1,1.58,5.58c.86,3.45,3.77,12.64.81,15.7-1.85,1.9-7.24,1.16-9.59,1.09a144.26,144.26,0,0,1-15.93-1.51c-25.9-3.64-53.11-9.64-77-20.55-10.28-4.69-20.21-12.26-18.25-24.73,1.28-8.15,8.77-15.69,15-20.62a35.67,35.67,0,0,0,3.42-2.25c.05-.64-1.59-1.06-1.61-1s-.23.92-.29,1a7.25,7.25,0,0,0-.34,2.08,22.92,22.92,0,0,0,1.33,9.39c2.8,8.39,8.35,15.9,14.71,21.94a63.09,63.09,0,0,0,32.82,16.66c15.72,2.59,31.19-1.37,45.12-8.69,2.85-1.5.33-5.81-2.52-4.32-15,7.86-32,11.47-48.45,6.53a59.44,59.44,0,0,1-30.4-21.55c-5.08-6.9-8.14-13.8-7-22.27.43-3.36-1.76-5.45-5.09-4.39-4.2,1.35-8,5.69-10.94,8.78-6,6.4-11.22,13.59-11,22.7.39,14,12.77,21.63,24.37,26.55,26.47,11.21,56.33,18.13,84.93,20.79,5.08.48,10.44,1,15.52.08,5.26-.91,7-4.89,7.11-9.93.13-6-1.47-12.29-3.32-17.92s-9.08-11.73-15.12-9.62C785.1,968.9,786.39,973.74,789.44,972.67Z"/><path class="cls-4" d="M900.24,996.69c-3.83-2.37-22.67-14.66-22.44-31.55.25-18.88,23.61-33,33.4-36.7,16.38-6.15,34.24-7.61,50.53-14,17-6.66,33.73-18.82,51.67-15.34,8.75,1.69,16.37,7,23.05,12.92,4.31,3.81,8.56,8.28,9.66,13.93.8,4.14-.19,8.39-1.18,12.48-3.84,15.89-6.94,23.52-10.21,28.67-5.39,8.48-14.42,15.17-39.57,23C954.08,1002.9,925,1012,900.24,996.69Z"/><path class="cls-2" d="M901.5,994.53c-8.07-5-16.21-12.15-19.69-21.22-4.85-12.64,3.32-24.28,12.75-32.06,9.72-8,20.76-12.08,32.89-15.06,16-3.92,31.39-7.27,46.35-14.34s31.36-15.46,47.72-7.29c7,3.52,14.66,9.17,19.27,15.66,5.62,7.91,1.88,17.68-.5,26.17-2.5,8.93-5.44,18.4-12.26,25-8.89,8.66-22,12.66-33.55,16.29-16.63,5.22-33.46,10.82-50.75,13.4-14.63,2.2-29.32,1.18-42.23-6.59-2.76-1.66-5.28,2.66-2.52,4.32,27.82,16.74,62,4.46,90.4-4.31,13.76-4.26,29-8.34,40.27-17.84,7.92-6.68,11.72-16.36,14.62-26,2.3-7.71,6-17.22,4.25-25.35s-8.64-14-14.83-18.79c-6.44-5-13.71-9.09-21.91-10.17-8.37-1.1-16.68.88-24.44,3.93-8.69,3.4-16.84,8-25.5,11.46-9.24,3.7-19,5.78-28.66,8-14.16,3.22-27.52,6.9-39.25,15.71-11,8.26-21.2,20.91-18,35.55,2.62,12.08,13,21.57,23.07,27.87C901.72,1000.56,904.23,996.23,901.5,994.53Z"/><path class="cls-4" d="M874.4,892.88c6.52,3,12.75-14.3,31-17.85,15.14-2.94,18.9,6.74,38.63,7.34,15.24.46,29.9-6.47,41.9-15.86,8.5-6.64,16.22-15,19.44-25.25,4.35-13.94-.37-29.46-8.92-41.3s-20.53-20.68-32.4-29.2c-7.89-5.66-14.41-9.68-17.39-16.43-2.18-4.94-1.21-9.9-1.72-9.93-.8,0,0,13.08-3.37,26-3.76,14.36-11.45,23.72-21.09,35.46-7.86,9.57-9,8.92-27.82,29-13.85,14.84-16.32,18.54-18.35,23.23C868.38,872,868.19,890.07,874.4,892.88Z"/><path class="cls-2" d="M873.73,895.29c4.54,1.69,8.43-2.31,11.44-5.13,6.14-5.76,12.36-11.12,20.93-12.72,8.3-1.56,14.84,2.15,22.44,4.7a53.74,53.74,0,0,0,28.7,1.41c18.91-4.18,39.83-18.22,48.35-36,9.21-19.29.84-40.9-12.63-55.82-8.06-8.94-17.88-16.1-27.62-23.08-5-3.58-10.76-6.94-14.46-12a17.53,17.53,0,0,1-3.2-9.68c-.09-1.25.17-2.69-.56-3.79a2.54,2.54,0,0,0-3.92-.51c-2.41,1.94-1.4,9.52-1.6,12.1-.77,9.41-2.69,18.69-7,27.13-5.56,10.82-13.83,20.86-22.36,29.54-8,8.13-16.09,16.09-23.82,24.47-6,6.46-12.78,13.09-16.32,21.3A56.37,56.37,0,0,0,867.33,881c.16,5,1,11.38,5.81,14.06,2.81,1.56,5.33-2.75,2.52-4.32-4.55-2.53-3.52-11.86-3.08-16.07a49.74,49.74,0,0,1,5-17.5c4.72-9,13.17-16.56,20.06-23.86,14-14.79,29.54-28.32,39.79-46.2a68.53,68.53,0,0,0,8.12-23.34c.59-3.71,1-7.45,1.22-11.2.11-1.59.18-3.19.27-4.78.08-1.44.83-2.49-.29-1.6l-3.92-.51c-.72-1.08,0,.09-.14.75a10.2,10.2,0,0,0,.22,3.16,20.85,20.85,0,0,0,1.39,5.43,25.65,25.65,0,0,0,7,9.24c7.64,6.79,16.65,12,24.63,18.42,16.18,13,32.69,32.43,27.95,54.81-4.2,19.8-26.24,35.23-44.64,40.44a49.42,49.42,0,0,1-29.86-.78c-5.87-2-11.35-4.94-17.69-5.15-8.41-.27-16.48,3.27-23,8.38-2.71,2.13-5.14,4.55-7.66,6.89-1.47,1.36-3.69,4-5.92,3.22C872,889.34,870.74,894.17,873.73,895.29Z"/><path class="cls-4" d="M964,626.83c-17.59,11.81,33.7,18.09,57.27,55.86,18.84,30.21,23.94,74.31,24.43,77.27,2.27,13.63,4,27.55,9.4,40.25s15.36,24.31,28.68,27.94c21.88,6,42.92-10.55,59.62-25.9l46.46-42.74c5.4-5,10.89-10,17.4-13.39,5.32-2.78,11.25-4.42,16.18-7.86,7.56-5.28,11.89-14.37,13-23.53,2.12-18.08-7.43-36-20.77-48.33s-30.14-20.25-46.64-27.92c-49.7-23.11-62.18-32-103.19-48-25.37-9.87-33.08-15.07-39-10.66C1007.94,593.86,975.62,619,964,626.83Z"/><path class="cls-2" d="M962.71,624.67c-14.44,10.06,9.4,20.28,16.7,24.53,10.3,6,20.32,12.59,28.75,21.09,10.6,10.69,17.48,24.15,22.63,38.17,7.51,20.42,10.67,41.55,14.21,62.87,2.64,15.83,6.31,32,16.73,44.69,8.93,10.9,22.06,17.31,36.28,15.56,15.48-1.9,28.85-11.65,40.36-21.53,14.25-12.23,27.8-25.37,41.62-38.08,7-6.44,13.79-13.42,21.4-19.15,6.76-5.09,14.84-7.09,21.92-11.51,12.6-7.85,17.23-23.55,15.46-37.67-4.16-33.36-35.6-51.84-63.12-64.79-25.25-11.88-50.06-24.72-75.38-36.45-12.29-5.69-24.83-10.73-37.41-15.72-6.52-2.59-12.95-5.39-19.49-7.91-3.61-1.39-7.5-3-11.42-3-3.61,0-6,1.58-8.78,3.67q-8.05,6-16.06,12.15c-10.91,8.29-21.78,16.63-32.8,24.78-3.82,2.83-7.65,5.65-11.6,8.31-2.65,1.79-.15,6.13,2.53,4.32,19.27-13,37.39-27.86,56-41.86,2.78-2.09,6.11-5.82,9.72-6.34,3.3-.48,7.15,1.3,10.14,2.42,12.68,4.77,25.26,10,37.76,15.2,21.32,8.85,41.76,19.51,62.48,29.63,14.14,6.91,28.59,13.24,42.63,20.37s27.77,15.6,37.61,28.06c9.52,12.06,15.56,28.34,11.24,43.65a28.78,28.78,0,0,1-14.84,18.45c-6.78,3.43-13.62,5.78-19.74,10.45-13.37,10.23-25.33,22.71-37.71,34.1S1136.08,807,1122,816.37c-12.87,8.61-29,14.56-43.81,7-13.88-7.12-21.25-22.08-25-36.53-5.16-19.88-6.37-40.53-11.61-60.43-6.49-24.68-16.58-48.93-36.54-65.68-8-6.68-16.78-12.16-25.77-17.32-3.42-2-6.88-3.86-10.2-6-1.65-1-5.33-2.91-6-5-.5-1.63.73-2.45,2.1-3.4C967.86,627.16,965.36,622.83,962.71,624.67Z"/><path class="cls-4" d="M1163,881.43c-4.62-1-6.64-6.37-7.45-11-3-17.19.08-36.53,12.61-48.67,5.18-5,11.63-8.54,17.09-13.26,4.23-3.66,7.81-8,11.46-12.24,8.1-9.39,16.85-18.51,27.6-24.7s23.85-9.21,35.76-5.75a10.64,10.64,0,0,1,4.71,2.44c1.58,1.6,2.16,3.92,3.22,5.91,2.53,4.77,7.81,7.71,10,12.63,2.58,5.74.32,12.37-2,18.23l-8,20.7a85.86,85.86,0,0,1-6.5,14.19,73.72,73.72,0,0,1-10.12,12.4c-9.73,10.14-20.5,19.73-33.5,25.08-11,4.51-23,5.77-34.84,6.47-7,.41-14.5.54-20.64-2.93"/><path class="cls-2" d="M1163.67,879c-5.45-1.69-6-9.85-6.41-14.58a63.59,63.59,0,0,1,.58-16.65c1.87-10.63,6.78-20.17,15.2-27,4.09-3.33,8.61-6.1,12.7-9.44,4.78-3.91,8.71-8.65,12.74-13.31,7.58-8.75,15.66-17.39,25.64-23.45s23.74-10.4,35.29-6.36c5.31,1.86,5.94,7.32,9.39,11.28,4.52,5.19,8.91,8.91,7.48,16.54-1.09,5.83-3.84,11.45-6,16.94s-4.26,11.34-6.58,16.93c-4.83,11.62-13.34,20.54-22.51,28.94-10.36,9.48-22,16.72-35.81,19.79a133.85,133.85,0,0,1-20.54,2.61c-7.17.46-14.57.9-21.15-2.48-2.86-1.47-5.39,2.85-2.53,4.32,11.43,5.87,26.35,3.48,38.55,1.65A78.55,78.55,0,0,0,1237,868.91c10.65-8.26,22.1-18.69,28.41-30.78,3.25-6.23,5.51-13,8-19.53,2.67-6.9,6.16-14,7.63-21.25,1.14-5.61.34-10.88-3.24-15.43-1.92-2.44-4.35-4.42-6.24-6.88s-2.46-5.24-4.23-7.54c-3.45-4.47-10.31-5.3-15.58-5.6a48.78,48.78,0,0,0-19.71,3.23c-12.68,4.77-23,13.79-32.09,23.64-4.75,5.16-9,10.78-14.06,15.67s-11.06,8.39-16.44,12.78c-10.47,8.56-15.86,21.12-17.2,34.38-1,9.59-1.67,28.63,10,32.24,3.08.95,4.4-3.87,1.33-4.82Z"/><path class="cls-4" d="M1301.05,752.85c-6.66-6.7-9.18-16.65-8.82-26.08s3.28-18.56,6.19-27.55c2.58-8,5.18-16,8.83-23.61,3.18-6.58,7.56-13.16,14.32-15.92,8.61-3.51,18.35.09,27.63-.39,7-.36,13.72-3.07,20.7-3.74s15.12,1.45,18.18,7.77a20.25,20.25,0,0,1,1.58,7.95,84.89,84.89,0,0,1-12.26,47.65c-5.23,8.56-11.94,16.1-18.66,23.55-7.86,8.7-16.57,17.8-28,20.2"/><path class="cls-2" d="M1302.82,751.08c-14.24-15.21-6.5-37.44-.88-54.62,2.84-8.67,5.72-17.68,10.69-25.4,5.88-9.12,13.92-11,24.26-10,4.39.42,8.77,1.05,13.19.71a88.75,88.75,0,0,0,12.72-2.37c7.61-1.74,20-3.27,23.48,6.14,3,8.12.69,20.06-1.22,28.17a82.81,82.81,0,0,1-10.76,25.5c-5.53,8.67-12.54,16.38-19.5,23.92s-14.52,14.74-24.77,17.18c-3.13.74-1.81,5.56,1.33,4.82,10-2.37,17.81-8.84,24.76-16.1a202.25,202.25,0,0,0,20.54-24.36,87.59,87.59,0,0,0,13-28.79c2.35-9.53,4.55-22.1,1.42-31.67-2.42-7.38-9.92-10.74-17.19-11.19-4.48-.27-9,.76-13.3,1.75-6.58,1.51-12.56,2.4-19.31,1.75-10-1-19.57-1.91-27.51,5.34-7,6.39-10.61,16.08-13.77,24.77-7.57,20.88-18.39,49.17-.74,68,2.21,2.35,5.74-1.19,3.54-3.54Z"/><path class="cls-4" d="M1072.7,536.23c16-7.55,34.66.32,50.06,8.91a494.1,494.1,0,0,1,66.71,44.65c18.53,14.71,37.43,31.41,60.86,34.72,13.57,1.92,27.57-1,39.92-7a85.59,85.59,0,0,0,30.38-24.66c5.22-6.77,9.39-14.26,13.53-21.73l22.63-40.76c6-10.77,12-21.71,14.9-33.7s2.21-25.35-4.55-35.65c-8.39-12.8-24.17-18.42-39.14-21.57-11.9-2.51-24-4-36.06-5.46-14.8-1.81-29.67-3.63-44.57-3.2-6.74.2-13.52.85-20.22.09-6-.7-11.9-2.53-18-2.82-14.73-.72-28.38,7.61-43,9.61-7.53,1-15.22.37-22.74,1.52-8,1.22-15.53,4.46-22.75,8.08-8.69,4.36-17.36,9.57-22.89,17.58-4.46,6.47-6.51,14.24-8.93,21.73a202.62,202.62,0,0,1-23.08,48.34,5.73,5.73,0,0,0,7.26.56"/><path class="cls-2" d="M1074,538.38c13.73-6,28.82-.68,41.41,5.66a372.61,372.61,0,0,1,35.81,21.2q18.07,11.82,35.08,25.18c9.61,7.57,19,15.53,29.17,22.28,9.91,6.54,20.83,12,32.63,14a70.85,70.85,0,0,0,37.93-4.55,87.75,87.75,0,0,0,29.93-20c9.4-9.63,15.8-21.41,22.28-33.08q10.79-19.44,21.59-38.9c6.13-11.09,12.33-22.56,14.81-35.12,2.14-10.85,1.55-22.53-3.68-32.46-5-9.45-14-15.8-23.61-19.86-11.9-5-24.87-7.06-37.57-8.87-14.25-2-28.61-3.91-43-5-14.72-1.08-29.83,1.42-44.37-1.21-6.1-1.11-12-2.47-18.28-2-6.45.52-12.65,2.34-18.78,4.31-7.53,2.41-15,4.95-22.92,5.6-7.41.6-14.86.17-22.18,1.68a89,89,0,0,0-36.51,17.65c-11.41,9.38-14.29,22.82-19,36.11a203.17,203.17,0,0,1-21.11,42.66,2.5,2.5,0,0,0,.39,3c3.24,2.52,6.64,3,10.29.95,2.81-1.57.3-5.89-2.52-4.32l-4.24-.17.39,3a210,210,0,0,0,17.78-33.81c4.75-11.51,6.88-25.11,13.78-35.56s19.93-16.9,31.33-21.45a59.62,59.62,0,0,1,18.28-4.25c6.78-.44,13.54-.21,20.26-1.44,12.29-2.26,23.79-8.64,36.42-9.12,6.42-.25,12.56,1.56,18.86,2.5,7,1,13.86.56,20.85.31,13.6-.49,27.13.81,40.61,2.42,14.26,1.7,28.61,3.28,42.65,6.39,10.57,2.35,21.5,5.82,29.87,13,9.78,8.39,13.12,21,11.87,33.55-1.28,12.82-7.25,24.63-13.34,35.77-6.75,12.34-13.65,24.6-20.47,36.9-6.37,11.47-12.32,23.56-21,33.52a82.81,82.81,0,0,1-31.07,22.38c-12.37,5-26.1,6.83-39.19,3.76-11.53-2.71-21.92-8.66-31.54-15.43-11-7.74-21.16-16.6-31.87-24.72q-17.46-13.24-36-24.91c-20.85-13.09-49-33.18-74.58-21.93-2.94,1.29-.39,5.6,2.53,4.31Z"/><path class="cls-4" d="M1432.42,671a228,228,0,0,0,.41-51.89c-.27-2.53-.66-5.24-2.37-7.13-1.52-1.68-3.81-2.4-5.94-3.17a61,61,0,0,1-21-12.83,44.37,44.37,0,0,1-8.86-11.14c-6.38-11.74-5.58-26-3.32-39.18,1.78-10.36,4.67-21.17,12.19-28.52,3.53-3.44,7.88-5.91,11.68-9a42.73,42.73,0,0,0,13.25-19.2c2.91-8.6,3.12-18.24,8-25.91a25.06,25.06,0,0,1,26.62-10.58,13.15,13.15,0,0,1,6.53,3.5c2.26,2.42,3,5.86,3.29,9.16,1.14,13.33-3.46,28.32,4.34,39.19,4.34,6,11.86,9.48,15.39,16,4.77,8.86.62,19.63-2.74,29.11-5.78,16.31-9.05,33.41-14.86,49.7-3.43,9.61-7.72,18.88-12,28.14l-20.11,43.45c-1.41,3-4.58,6.67-7.37,4.8-1.52-1-1.75-3.1-1.83-4.92"/><path class="cls-2" d="M1434.92,671c2.08-17.6,3.08-36.52.14-54.09-1.27-7.59-6.33-8.93-12.64-11.61A57.26,57.26,0,0,1,1402,590.85c-11.92-13.41-10.82-31.9-7.47-48.38,1.63-8,4.13-16.22,9.73-22.39,5.27-5.81,12.64-9.13,17.83-15.12a46.75,46.75,0,0,0,9.76-18.43c2.1-7.73,2.6-16.42,7.41-23.11A22.75,22.75,0,0,1,1459,454.3c4.39.31,8.71,1.92,10.44,6.23,1.53,3.79,1.24,8.39,1.14,12.41-.39,14.57-1.83,28,10.06,38.51,6.87,6.09,12.66,11.1,11.44,21.22-1,8.56-5,16.71-7.46,24.91-6,19.6-10.55,39.21-18.94,58-4.41,9.87-9,19.64-13.57,29.44l-6.71,14.49-3.35,7.24c-.41.9-.78,1.84-1.25,2.71-.24.44-4.1,7-4.55,1.15-.25-3.19-5.25-3.21-5,0,.44,5.69,4.79,10.61,10.3,6.13,3.11-2.52,4.46-6.69,6.08-10.18l7.12-15.39c8.87-19.17,18.71-38.19,25.07-58.39,3.15-10,5.62-20.24,8.56-30.32,2.71-9.27,7-18.4,8.49-28,1.18-7.76-.47-14.88-6-20.61-2.78-2.88-6.11-5.15-8.92-8a23.14,23.14,0,0,1-6.6-14.12c-1.47-12.63,6.22-35.85-10.15-41.31-15-5-29.77,5-34.41,19.11-2.86,8.73-3.32,17.88-8.06,26C1417.79,504,1410,508,1403,514.3c-12.5,11.15-15.53,31.43-15.77,47.33-.14,9.78,1.76,19.72,7.38,27.89a58.53,58.53,0,0,0,21.1,18.17c4.24,2.22,11.8,3.45,13.86,7.94,1.21,2.64,1.07,6.4,1.3,9.27.26,3.2.45,6.41.58,9.61a234.62,234.62,0,0,1-1.53,36.53c-.38,3.19,4.62,3.16,5,0Z"/><path class="cls-4" d="M1099.21,433.56c15.42-48.09,44.78-91.78,84.11-123.47s88.57-51.14,139-53.91c20.21-1.11,41.18.57,59.21,9.75,8.12,4.14,15.85,10.2,19,18.75,5.57,15-4.47,31.27-3.88,47.25.31,8.17,3.42,16.16,2.79,24.31-.49,6.3-3.22,12.27-6.87,17.43-12.62,17.82-35.37,25.93-57.17,27.2s-43.45-3.22-65.18-5.41a311.17,311.17,0,0,0-82.85,2.73c-17.37,2.92-34.73,7.42-50,16.23s-28.3,22.37-33.73,39.12"/><path class="cls-2" d="M1101.62,434.23c15.29-47.18,43.73-89.93,82.22-121.35,39.84-32.54,90.46-52.38,142-54.36,13.64-.53,27.49.3,40.64,4.15,11.79,3.44,25.92,9.65,31.23,21.59,5.49,12.37-1.08,26.24-2.89,38.72a53,53,0,0,0,.29,16.58c1.26,7.68,3.12,15.05.63,22.73-7.73,23.82-36.07,34.33-58.78,36-28.74,2.09-57.3-5.56-86-6.66-30.92-1.18-63.86,1.26-93.37,11.15-24.72,8.29-47.65,24.57-56.32,50.12-1,3.05,3.79,4.36,4.82,1.33,9.14-26.93,35.19-42.09,61.26-49.17,29.43-8,61-10,91.33-8,28.67,1.82,57.56,9.6,86.35,5.36,22.12-3.25,46.54-14.87,54.91-37.12,4.93-13.13-1.88-25.79-.56-39.12,1.24-12.49,7.11-24.7,4.84-37.42-4.5-25.18-38-33.17-59.26-34.87-52.19-4.17-107,14.34-149.44,44-46.75,32.64-81.19,81-98.72,135.07-1,3.07,3.83,4.38,4.82,1.33Z"/><path class="cls-4" d="M1473.45,298.32c-10.92-6.56-28,6.61-39.24,21-14.23,18.27-11.73,40.26-10.85,47.66,2.92,24.72,17.34,48.43,39.35,60.06,6.86,3.63,14.3,6.07,21.24,9.55,12.34,6.18,14.32,16,17.25,15.09s3.73-9.88-1.94-46.78c-6.83-44.42-9.51-40.75-13.3-69.71C1482.85,311.43,1479.85,302.17,1473.45,298.32Z"/><path class="cls-2" d="M1474.71,296.16c-13.33-7.19-28.45,6-37,15.17A63.29,63.29,0,0,0,1420.14,354c-.68,29.38,13.81,59.87,40,74.44,8.59,4.78,18.63,7.09,26.72,12.72a35.26,35.26,0,0,1,7.67,7.61c1.19,1.54,2.29,3.6,4,4.66,5.28,3.28,7.1-3.86,7.36-7.54.88-12.48-1.78-25.59-3.61-37.86-2.15-14.44-4.61-28.82-8-43-2.73-11.38-4.75-22.67-6.37-34.26-1.55-11-2.55-27.92-13.16-34.63-2.73-1.72-5.24,2.6-2.52,4.32,7.84,5,8.81,18.36,10.1,26.51,1.63,10.32,2.76,20.67,5.09,30.87,5.38,23.5,10.06,47,12.62,71.05a128.88,128.88,0,0,1,.94,14.29c0,1.58-1,4.91-.71,6.12.12.51.21-.29.31-.06.55,1.36.18-.7.23-.45a8.9,8.9,0,0,0-.9-1.14c-.69-.86-1.32-1.77-2-2.65a40.07,40.07,0,0,0-15.08-11.77c-7.58-3.52-15.56-6.17-22.7-10.6a69.26,69.26,0,0,1-16.73-14.7,80.25,80.25,0,0,1-17.54-41.27c-1.62-13.29-.57-27.18,6-39.12,4.29-7.85,10.79-14.85,17.74-20.44,5.88-4.74,15-10.76,22.67-6.64C1475,302,1477.55,297.69,1474.71,296.16Z"/><path class="cls-4" d="M1326.16,197.7a225.43,225.43,0,0,0-109.41-58.46c-13.13-2.8-27.19-4.72-37.61-13.18-9.54-7.75-14.45-19.76-22.42-29.12-12.88-15.13-32.7-22.24-51.89-27.4-16.64-4.46-33.95-8-51-5.74a78.49,78.49,0,0,0-42.76,20C994.37,99.2,985.3,121,977.29,142.17c-20,53.14-36.68,110-27.7,166.11a189.19,189.19,0,0,0,31.67,78.26L977.51,380a132.62,132.62,0,0,0,48.15,15c-11.13-15.72-15.62-35.51-15-54.76s6-38.09,13.23-55.95a283.61,283.61,0,0,1,89-117.5c4-3.11,10.21-6,13.62-2.21,2.47,2.72,1.45,7,.09,10.42-12.64,31.94-40.49,55.08-59.49,83.71a171,171,0,0,0-26.71,116.23c1.29,9.56,3.72,19.6,10.66,26.28,8.73,8.4,22.84,9.78,30.63,19-3.45-20.82-6.79-41.84-5.87-62.92s6.4-42.49,19.08-59.37c14.78-19.68,37.87-31.43,61.21-39.24,20.89-7,42.57-11.36,64.33-14.78a774.18,774.18,0,0,1,81.95-8.45c7.33-.37,14.88-.67,21.58-3.66s12.44-9.4,12.31-16.74C1336.11,208.23,1331.1,202.5,1326.16,197.7Zm-241-86.18c-3.19.61-6.44-.32-9.66-.74a31.84,31.84,0,0,0-17.3,2.58c-3.55,1.63-7.37,4-11.07,2.73-2.76-.93-3.88-4-5.54-6.38-6.77-13.46,2.71-31.5,25.58-26.11,5.3,2.67,11.83,1.64,17,4.64,4.94,2.88,9.53,7.63,9.43,13.35A10.63,10.63,0,0,1,1085.19,111.52Z"/><path class="cls-2" d="M1327.92,195.93c-31.92-30.8-71.88-51.22-115.26-60.08-11-2.24-22.77-4.37-31.75-11.56-8.31-6.65-13-16.59-19.17-25-12.19-16.49-31-24.85-50.17-30.47-22.46-6.57-46.71-11.69-69.77-5.08-20.45,5.86-36.89,19.61-48.17,37.41-11.92,18.79-19.19,40.66-26.45,61.56-8.32,24-15.41,48.51-19.32,73.63-4.15,26.6-4.67,53.82.71,80.29A193.11,193.11,0,0,0,979.1,387.8c1.81,2.61,5.94.31,4.32-2.53l-3.75-6.54-3.42,3.42a140.18,140.18,0,0,0,49.41,15.35c1.85.22,3.17-2.3,2.16-3.76-24.33-35.2-14.36-80.12,1.72-116.49a282.23,282.23,0,0,1,63.93-90.58c6.83-6.47,14-13.24,21.78-18.56,1.55-1.06,4.64-3.2,6.63-2.82,4.25.81,3.74,4.63,2.75,7.73a79.52,79.52,0,0,1-6.41,13.71c-8.86,16.06-21,29.91-32.74,43.92s-22.63,28.13-30.73,44.37a174.77,174.77,0,0,0-16.66,53.72c-2.7,19.23-3.57,41.7,2.81,60.36a33.52,33.52,0,0,0,15,18.8c8.06,4.71,17.57,7,24,14.13,1.83,2,4.55-.19,4.18-2.43-4.75-28.69-9.39-58.5-2.29-87.22,6.59-26.6,23.4-46.59,47.33-59.51,24.27-13.08,52-19.51,78.93-24.32a747.78,747.78,0,0,1,90.4-10.34c12.84-.7,27.89-.58,36.42-11.92,8.23-10.94,1.45-22.09-6.92-30.36-2.29-2.26-5.82,1.28-3.53,3.54,4.71,4.65,10.4,10.63,9.18,17.86s-8.42,12-15.08,13.78c-6.5,1.78-13.39,1.74-20.07,2.1q-11.75.64-23.49,1.64c-28.45,2.43-57,6.13-84.93,12.14-24.77,5.34-50.22,12.64-71.74,26.46a94,94,0,0,0-41.12,56.79c-7.6,29.88-2.85,60.8,2.09,90.69l4.18-2.43c-5.59-6.24-13.27-9.05-20.63-12.62-9.31-4.52-15.17-10.91-18-21-5.36-19.44-4.37-41.8-.85-61.46a168.92,168.92,0,0,1,21.63-57.69c10.3-17,23.89-31.68,36.38-47.08a238,238,0,0,0,16.07-21.83c4.68-7.34,10.06-15.9,12-24.5,1.49-6.7-2.38-13.05-9.8-11.78-8,1.37-15.29,9.27-21.19,14.39a285.82,285.82,0,0,0-70,91.66c-19.09,39.66-32.72,90.32-5.5,129.72l2.16-3.77a133.57,133.57,0,0,1-46.89-14.67,2.52,2.52,0,0,0-3.42,3.42l3.75,6.55,4.32-2.53c-26.66-38.48-37-84.32-32.83-130.7,2.18-24.07,7.81-47.74,14.93-70.79,6.71-21.76,14.14-43.84,23.91-64.45,9.2-19.42,22.15-36.8,42-46.3,22.68-10.88,47.42-7.75,70.94-1.57,19.58,5.15,40.45,12.09,53.61,28.43,6.12,7.59,10.4,16.53,17,23.74s15,11.19,24.09,13.78c11.57,3.28,23.52,4.91,35.08,8.3a220.49,220.49,0,0,1,33.32,12.76,225.1,225.1,0,0,1,59,41C1326.71,201.71,1330.25,198.17,1327.92,195.93Z"/><path class="cls-2" d="M1085.19,109c-5.88.68-11.64-1.46-17.61-.77a34.5,34.5,0,0,0-8.38,2c-2.45.93-5.31,3.13-7.91,3.38-10,1-10.83-15.1-6.94-21.23,5.38-8.48,16-8,24.42-5.51,6,1.76,12.13,1.41,17.18,5.6,5.72,4.75,7.62,14.19-1.43,16.61-3.1.84-1.78,5.66,1.33,4.83,11.26-3,12.78-15.73,5.24-23.48-4.36-4.48-9.46-6.2-15.48-7.2s-11.38-3.41-17.65-3.1c-18.2.9-27.62,21.47-15.38,35.55,4.63,5.33,10.73,2.57,16.14.18a30.64,30.64,0,0,1,14.17-2.84c4.16.23,8.1,1.46,12.3,1C1088.35,113.66,1088.38,108.66,1085.19,109Z"/><path class="cls-2" d="M1085.41,86.08a35.88,35.88,0,0,0-22.23-4.65c-4.81.59-9.49,1.73-14.35,1.81-3.13.06-3.89.62-5.89,3.31-5.91,8-8.88,27,3,31.7,6.64,2.65,13.42-3.39,19.72-4.67,7.29-1.48,15.28,2.46,22.18-.26a13.1,13.1,0,0,0,8.21-13.14c-.55-6.31-5.54-11-10.6-14.1-2.74-1.7-5.26,2.62-2.52,4.31,4.17,2.59,9,6.78,8,12.24-1.35,7.59-9,6.51-14.69,5.74a35,35,0,0,0-12.77.59c-4.36,1-12.15,6.63-16.31,4.36s-4.65-9.54-4.2-13.55a21.54,21.54,0,0,1,2.4-7.66c1.22-2.3,2-3.37,4.42-3.88a124.15,124.15,0,0,1,15.61-2,31.26,31.26,0,0,1,17.54,4.2C1085.7,92,1088.23,87.63,1085.41,86.08Z"/><path class="cls-4" d="M1172.27,69.8A82.12,82.12,0,0,0,1192,93.17c8.36,6.79,18,11.86,27.82,16.23,17.5,7.76,36.61,13.48,55.62,11.21,10.81-1.3,22-5.11,32.27-1.47"/><path class="cls-2" d="M1170.11,71.06c12.88,22.28,34.17,35.24,57.64,44.32,12.26,4.74,25.29,8.13,38.5,8.23,13.53.1,27.55-6.22,40.81-2.06,3.07,1,4.39-3.86,1.32-4.82-12-3.76-23.68.68-35.69,1.64-13.07,1-26-1.63-38.35-5.88-24.13-8.34-46.83-21.31-59.91-44-1.61-2.78-5.93-.27-4.32,2.53Z"/><path class="cls-4" d="M1357.33,152.67c-8.54.71-13.42,11.35-14,12.76-.77,1.89-.8,12.33,3.17,21.36,2.43,5.54,7.18,9.65,11.87,13.46Q1374,213,1390.86,224.13c6.3,4.18,12.82,8.23,20.08,10.32,6.91,2,30.62,12.62,34.43,7.25,0,0-2.47-16.28-31.87-42.73C1374.71,164.07,1362.88,152.21,1357.33,152.67Z"/><path class="cls-2" d="M1356.67,150.26c-7.36,1-14.94,8.73-16.07,16.18-2,13,4.41,25.83,14.1,34a331.71,331.71,0,0,0,40,29.17c9.5,5.84,20.54,9.25,31.1,12.75,4,1.32,19.87,7.38,21.93,0,.8-2.9-2.14-7.63-3.31-10-11.69-23.25-34.44-39.92-53.31-57-7.4-6.7-14.73-13.59-22.64-19.7-3-2.35-7-5.77-11.19-5.54-3.2.17-3.22,5.18,0,5,2.29-.13,5.72,2.6,7.93,4.29,6.29,4.81,12.12,10.26,18,15.55,10.46,9.41,21,18.74,31.32,28.34,8.85,8.26,17.32,17.32,23.5,27.79,2,3.39,4.24,7.26,4.88,11.23l.64-2.44c-2.18,2.51-9.36-.26-11.95-1-4.74-1.36-9.36-3.09-14-4.78-5.64-2.06-11.33-3.72-16.62-6.64a216.64,216.64,0,0,1-20.25-13.31c-7-5-14-10.23-20.64-15.71s-11.59-10.92-13.59-19.63c-1-4.18-2.13-9.76-.27-13.84,2.19-4.82,6.32-9.18,11.71-9.93C1361.17,154.64,1359.82,149.82,1356.67,150.26Z"/><path class="cls-4" d="M913.67,59.44C906.4,53.65,897.18,51,888.18,48.7c-18.22-4.66-37-8.46-55.7-7-13.52,1.06-26.72,4.83-40.23,6-18.54,1.58-37.18-1.79-55.77-1s-38.54,6.78-49,22.18c-10.67,15.71-8.52,37.17-.85,54.55s20.1,32.15,30,48.37a186.29,186.29,0,0,1,26.75,106.83c-.82,14.53-3.36,29.12-1.53,43.56,1.78,14.07,8.76,28.5,21.39,34.77,3.87,8.63,16.08,9.65,25.79,9.08l43.33-2.52c5.64-.33,11.62-.76,16.25-4,5.17-3.63,7.57-10,9.53-16a382.52,382.52,0,0,0,18.6-105.19c.47-13.81.23-27.84,3.79-41.19,4.42-16.55,14.39-31,24-45.14s19.23-28.93,22.79-45.68S927.07,70.1,913.67,59.44Zm-168,34.89a6.42,6.42,0,0,1-2-.59c-5.54-.15-10.43-3.83-10.17-9.92.24-5.58,5.36-13.27,11.7-9.69a7.27,7.27,0,0,1,2.8,3,6,6,0,0,1,2.78-1.67,23,23,0,0,1,5.15-.83,16.39,16.39,0,0,1,5.31-.61,6.54,6.54,0,0,1,2.41.63c7.45.42,7.36,12.13-.27,12-1.06,0-2.12-.08-3.18-.12-1,.22-1.92.39-2.89.52C753.44,89.42,751.18,95,745.67,94.33Z"/><path class="cls-2" d="M914.93,57.28c-12.74-9.68-30.7-12.64-46-15.5a143.62,143.62,0,0,0-51.72-.51c-9.23,1.59-18.41,3.56-27.79,4.12s-18.6,0-27.87-.58c-15.72-.93-31.68-1.71-47,2.84-12.5,3.73-24.31,11-30.88,22.6-7,12.39-7.21,27.4-3.85,40.94,3.8,15.32,12.46,28.77,21.25,41.66,9.52,14,18.73,27.84,25.39,43.44a184,184,0,0,1,13.4,50c2.07,17.22.84,34-.53,51.23-1.21,15.26-1.13,31,6.28,44.87a40.6,40.6,0,0,0,12.63,14.45c4.39,3,6.89,7.36,12.06,9.44,5.67,2.29,12.07,2.48,18.09,2.21,9.08-.4,18.16-1,27.23-1.57,13.35-.78,31.68,1.46,40-11.45,4.05-6.29,5.88-14.17,8-21.25q3.87-13.06,6.81-26.39a389.64,389.64,0,0,0,7.77-51.76c1.48-18.11,0-36.87,3.86-54.7,3.69-17.07,13.48-31.76,23.13-46,16.16-23.85,34.58-53.3,21.51-82.8a40.69,40.69,0,0,0-11.26-14.94c-2.46-2-6,1.47-3.54,3.53C922.49,70,926.64,83.56,926,97c-.74,15.46-8.18,29.71-16.28,42.55-8.38,13.26-18.09,25.73-25,39.84-6.84,13.9-9.36,28.41-10,43.78-.68,16.66-1.13,33.2-3.25,49.77a380.52,380.52,0,0,1-9.84,50c-2,7.58-4.14,15.23-6.82,22.61-2.76,7.63-7,13.22-15.34,14.71-8.06,1.44-16.64,1.24-24.81,1.71-8.74.51-17.49,1.14-26.24,1.52-5.86.26-12.5.3-17.81-2.56-2.83-1.52-3.42-3.82-5.57-5.82s-5.35-3.2-7.64-5.36c-11.11-10.41-13.91-26.3-13.65-40.86.28-16,2.95-31.76,2.32-47.81a189.82,189.82,0,0,0-7.13-44.54A187.79,187.79,0,0,0,721.45,175c-7.45-13-16.75-24.88-24.57-37.69s-14.15-27.19-14.2-42.62c0-14.75,6.44-28.11,19.09-36,27.49-17.14,61.29-5.79,91.4-8.61,16.12-1.51,31.75-6.26,48-6.21,17.27.06,34.52,3.85,51.09,8.48,7.21,2,14.11,4.66,20.12,9.22C915,63.54,917.47,59.2,914.93,57.28Z"/><path class="cls-2" d="M746.33,91.92c-4-.84-9.08-1.29-10.21-6.13-1.21-5.21,5.24-14.44,9.71-7.38a2.54,2.54,0,0,0,3.92.51c2.79-2.51,10.56-2.89,13.88-1.75s4.52,5.79.39,6.9c-3.24.87-6.19-.53-9.18,1.67s-4.91,6.23-9.17,6.09c-3.22-.1-3.22,4.9,0,5A10.54,10.54,0,0,0,753,94.37c1.25-1,2.2-2.29,3.41-3.32,2.36-2,4.1-1.65,7-1.89,4.38-.38,7.82-2.88,8.23-7.53,1.1-12.64-18.84-12.1-25.37-6.25l3.92.51c-5.47-8.67-15.49-4.89-18.37,3.77a12.54,12.54,0,0,0,1.67,11.82c2.92,3.7,7.23,4.35,11.56,5.26C748.14,97.4,749.48,92.58,746.33,91.92Z"/><path class="cls-4" d="M727.16,15.23c-.63,3.65,14.1,7.73,27.86,9.84a74.34,74.34,0,0,0,34.32-2.55c11.11-3.57,22.06-8.22,33.69-9,7.44-.53,14.89.52,22.25,1.64,11,1.67,21.91,3.51,32.55,6.57,17.16,4.94,33.4,13,50.93,16.43,20.39,3.94,41.41,1.31,62-1.34s31.24-2.43,31.35-4c.35-5.2-112.16-19-165.82-23.72-18.81-1.65-22.93-1.75-84.07.39C746.4,10.32,727.84,11.27,727.16,15.23Z"/><path class="cls-2" d="M724.66,15.23c0,3.36,3.33,5.06,6,6.26,5.75,2.57,12.11,3.91,18.27,5.07,13.28,2.5,26.67,2.67,39.71-1.22,15.31-4.57,29.15-10.63,45.51-9.17a224.55,224.55,0,0,1,46.52,9c14.68,4.59,28.75,11.14,43.78,14.59s30.38,3.31,45.59,1.92c14-1.29,28-3.38,42-4.62,2.81-.25,12.58.34,12.52-4.39,0-3-4.26-3.95-6.49-4.6a157.25,157.25,0,0,0-16.21-3.44c-18.21-3.25-36.56-5.69-54.9-8-34.44-4.44-69.25-9.34-104-11-13.85-.67-27.77,0-41.62.38-14.29.44-28.59.87-42.88,1.51-9.36.43-20.32,0-29.28,3.23-2,.71-3.89,1.75-4.51,3.88-.9,3.1,3.93,4.42,4.82,1.33-.1.37,1.24-.46,1.95-.7a28.14,28.14,0,0,1,4.05-.89,141.54,141.54,0,0,1,15.66-1.47c13.52-.8,27.07-1.13,40.61-1.58,15.12-.51,30.29-1.21,45.42-.89,28.24.59,56.65,4.78,84.66,8.1,18.91,2.25,37.82,4.65,56.66,7.44,12.43,1.84,25.15,3.45,37.31,6.74a30.87,30.87,0,0,0,3.68,1.16c1.16,0,.1.35.42.08,0,0-.06-3.49.65-2.91a13.46,13.46,0,0,0-1.74.38c-9.95.3-20.15,1.91-30,3.16-14.06,1.79-28.2,3.51-42.4,3-14.59-.5-28.17-4.2-41.81-9.15-15.18-5.5-30-10.72-46-13.59-14.3-2.58-29.14-5.55-43.61-2.74-14.91,2.88-28.45,10.43-43.8,11.32A91.93,91.93,0,0,1,746.74,21c-3.25-.7-6.5-1.48-9.67-2.49-.92-.29-7.4-2-7.41-3.31C729.64,12,724.63,12,724.66,15.23Z"/><path class="cls-4" d="M646.63,285.88c-14.14-26.11-29.69-52.24-35.1-81.44-4.54-24.48-1.65-49.64,1.16-74.38,1.47-13,2.59-27.29-5.05-37.88-3.56-4.93-8.74-8.51-14.26-11.06-14-6.46-30.32-6.54-45.39-3.2s-29.21,9.9-43.21,16.41l-24.59,11.42c-20.1,9.34-42,20.58-49.78,41.34-7.86,21,1.81,44.54,14.46,63.07,22.82,33.43,55.11,59,83.49,87.87s56.22,95.31,56.22,95.31a44.55,44.55,0,0,0,2.29,17.15,5.55,5.55,0,0,0,2.08,3.17c1.56.92,3.53.23,5.19-.47l71.37-30.09c2.32-1,4.73-2,6.33-4,2.12-2.58,2.37-6.19,2.35-9.53C674,339.91,660.77,312,646.63,285.88Z"/><path class="cls-2" d="M648.79,284.61c-17.21-31.71-35.33-63.12-36.95-100.07-.83-18.77,1.51-37.42,3.52-56,1.49-13.82,2.1-29.41-7.86-40.44-10.14-11.23-27-15-41.58-14.8-16.79.25-32.8,5.77-48,12.39-16.21,7-32.38,14.49-48.2,22.37-12.19,6.07-24.51,13.27-33.26,23.94-20.93,25.49-8.68,58.36,8.27,82.31,19.4,27.42,44.85,49.58,68.91,72.72,10.06,9.67,19.61,19.36,27.63,30.81a335.38,335.38,0,0,1,20.44,33.75q7.76,14.43,14.63,29.32c1.5,3.24,3,6.5,4.41,9.77.39.88.86,1.76,1.16,2.66.45,1.34.18.35.22,1.24.25,6-.24,15.15,4.15,20,4.65,5.18,13.89-1.24,18.63-3.24l54-22.75c5.89-2.49,14-4.38,16.66-10.94s1.05-15.38.14-22.17c-2.24-16.65-8-32.54-15.09-47.7-3.65-7.87-7.66-15.55-11.78-23.18-1.53-2.83-5.85-.31-4.32,2.53,7.83,14.5,15.34,29.28,20.53,45a134.54,134.54,0,0,1,5.69,23.72c1,7.17,3.62,19.48-3.67,23.86-3.71,2.24-8.24,3.57-12.24,5.25L642,390.33l-24.7,10.42-11.9,5-5.49,2.32c-1.89.79-4.94,2.79-7,2.95-7.44.54-4.84-13.88-5.86-18.42-.9-4-3.58-8.23-5.28-11.92q-6-13.15-12.7-26c-10.55-20.23-22.19-41-38.08-57.62-21.48-22.44-45.61-42.19-66.16-65.55-18.87-21.45-43.31-53.37-31.93-83.77,4.78-12.75,15.7-21.85,27-28.7,12.72-7.68,26.58-13.46,40-19.71C528.36,86.11,564.68,67.66,595.51,85c15,8.43,16.66,23.9,15.25,39.54-1.53,16.83-4,33.51-4.09,50.45a151,151,0,0,0,7.1,48.12c4.86,14.89,11.81,29,19.17,42.8,3.79,7.11,7.69,14.14,11.53,21.22C646,290,650.32,287.45,648.79,284.61Z"/><path class="cls-4" d="M248,246.82c6.52-5.62,16.07-5.13,24.6-6.27,16.51-2.22,31.24-11.53,44-22.19,19.21-16,35.95-36.65,40.81-61.16"/><path class="cls-2" d="M249.74,248.59c5.62-4.42,13-4.49,19.78-5.19a70.3,70.3,0,0,0,18.09-4.19c11.85-4.57,22.35-11.94,32-20.11,18.9-16,35.06-36.55,40.23-61.24.66-3.14-4.16-4.48-4.82-1.33-5.24,25-22.08,45.29-41.45,61.12-10.35,8.46-22.05,16-35.15,19.24-10.9,2.71-22.89.83-32.21,8.16-2.52,2,1,5.51,3.54,3.54Z"/><path class="cls-4" d="M538.61,424.1c-15.84-18.61-37.34-31.49-54.62-48.77-36.84-36.8-51.44-89.87-62.23-140.8-3.41-16.09-8.71-34.82-24.17-40.45-8.91-3.24-18.88-1-27.66,2.64-36.63,15-60.83,50.31-94.64,70.89-7.21,4.39-14.83,8.09-22.1,12.4-14.86,8.81-28.82,21.11-33.9,37.63s1.86,37.49,18.14,43.28l134.88.09,113,123.55c-.51-1.06-1.05-2.11-1.59-3.15l2.79,1.37a139.43,139.43,0,0,0,50-28.29c4.27-3.78,8.56-8.3,9.17-14C546.36,434.42,542.58,428.78,538.61,424.1Z"/><path class="cls-2" d="M540.38,422.34C525.05,404.6,505,392.07,488.19,376c-15.7-15-27.71-33.34-36.89-53-9.29-19.88-15.72-41-21-62.25-2.6-10.45-4.7-21-7.16-31.5-2-8.73-4.68-17.75-9.76-25.26-25.65-37.95-77.24,9.53-98.79,29-7.88,7.11-15.73,14.27-24,20.86a199.52,199.52,0,0,1-29.13,18.7c-17.38,9.44-35.17,21.1-43,40.16-6.2,15.12-3.55,34.87,9.56,45.66,6.29,5.17,10.56,5.06,17.91,5.06l68.9.05,36.25,0c6.39,0,13.79,1.05,20.12,0a7.09,7.09,0,0,0,1.13,0c-.59,1.28-2-2-1.24-.17.66,1.53,2.95,3.22,4.05,4.43l17.29,18.9,89.14,97.44,2,2.21c2,2.19,5.14-.59,3.93-3q-.78-1.59-1.59-3.15l-3.42,3.42c2.47,1.21,3.59,1.95,6.34,1.09a124.53,124.53,0,0,0,13.29-5.15,139.49,139.49,0,0,0,26.42-15.38c6.63-4.9,14.72-10.51,18.21-18.26,3.92-8.71-.83-16.85-6.36-23.53-2.06-2.48-5.58,1.07-3.54,3.53,3,3.64,6.34,8,6.43,13,.08,4.17-2.37,7.66-5.08,10.59-5.11,5.51-11.52,10.12-17.75,14.27a140.15,140.15,0,0,1-19.3,10.77q-5.13,2.34-10.43,4.23c-3.29,1.18-2.79,1.95-5.71.52a2.52,2.52,0,0,0-3.42,3.42q.81,1.56,1.59,3.15l3.93-3L410.47,399l-34.92-38.17c-2.08-2.27-3.53-2.34-6.56-2.34l-23.42,0-73.76-.05-27.39,0a43.83,43.83,0,0,1-6.38,0c-5.13-.8-10.1-6.46-12.69-10.65-11.08-17.94-2.85-38.75,11.15-52.23,15.64-15.05,36.87-22.31,54-35.4,15.81-12,29.76-26.29,45.09-38.92a157.08,157.08,0,0,1,25.88-17.77c10.16-5.4,23-11,34.6-7.23,18.68,6.13,21.54,31.37,25.14,47.65,4.55,20.63,9.81,41.17,17.16,61,7.19,19.41,16.38,38.23,28.82,54.84,13,17.34,29.57,30.34,46.17,44a189.36,189.36,0,0,1,23.46,22.19C539,428.31,542.47,424.76,540.38,422.34Z"/><path class="cls-4" d="M389.7,569.4c-14.86-22.73-30-45.79-50.52-63.58-19.08-16.53-42.05-27.83-64.89-38.59-20.54-9.68-41.5-19.18-63.86-23.11-12.16-2.13-24.81-2.56-36.71.7-10.09,2.76-19.3,8.06-28,13.8-6.76,4.44-13.41,9.26-18.48,15.56-9.56,11.87-12.64,27.83-21.63,40.14-4.9,6.71-11.42,12.15-16,19-3.53,5.28-6.81,27-3.71,30.22,3.47,3.61,8.68,4.84,13.61,5.76,8.62,1.6,17.37,2.76,26.14,2.42,30.32-1.19,57.79-20,88.1-21.59,14.43-.73,28.74,2.52,42.73,6.1,18,4.6,36,9.83,52.75,18,22.1,10.85,41.59,26.74,64.34,36.15l16.78-33.87a7.55,7.55,0,0,0,1-3.26A7.69,7.69,0,0,0,389.7,569.4Z"/><path class="cls-2" d="M391.86,568.14c-13.52-20.68-27.23-41.64-45.16-58.84-18.24-17.49-40.56-29.59-63.18-40.45-23.16-11.12-46.91-22.67-72.43-27.14-12.27-2.14-25-2.66-37.14.47-11.78,3-22.47,9.4-32.42,16.21s-17.9,14.72-23.39,25.52c-5.33,10.5-8.85,22-16.37,31.27-6,7.32-14,13.45-16.81,22.77-2,6.89-3.52,15-2.74,22.26,1,8.74,11.17,10.6,18.39,11.89,12.42,2.21,24.8,3,37.28.8,24.22-4.21,46.22-17.06,70.75-19.81,15.33-1.71,30.47,1.4,45.27,5.13,14.44,3.64,28.86,7.64,42.68,13.22,27,10.89,49.46,30.13,76.24,41.43a2.48,2.48,0,0,0,2.82-1.15l12.36-25c3.05-6.16,7.94-12,3.85-18.62-1.69-2.73-6-.22-4.32,2.53,2,3.32-.55,6.92-2.08,10l-4.86,9.81-9.27,18.72,2.83-1.15c-22.31-9.41-41.36-24.76-63-35.5-22-10.93-46.66-17.87-70.69-22.51-11.29-2.19-22.74-3.2-34.19-1.65-11.17,1.5-21.92,5-32.54,8.63s-21.25,7.64-32.28,10.08c-12.57,2.79-25,2.62-37.7.5-4.46-.75-13.28-1.38-16.08-5.62-1.44-2.18-.62-6.83-.41-9.24.7-8.13,2.22-15.84,7.5-22.22,7.16-8.66,14.52-15.94,19.47-26.2,4.86-10.05,8.38-21.13,15.81-29.7,7.69-8.87,18.54-15.57,28.83-21.05A71.37,71.37,0,0,1,195.68,445c25.41.89,49.66,11.45,72.34,22,24.49,11.41,49.56,23.16,70.05,41.12,20.14,17.66,34.93,40.26,49.47,62.51C389.29,573.35,393.62,570.85,391.86,568.14Z"/><path class="cls-4" d="M371.22,646.89c.56-1.9,1-4,.31-5.84a10.33,10.33,0,0,0-2.95-3.76,288.42,288.42,0,0,0-21.92-19.14C328.37,604.22,307,594.83,285,588.2a289.83,289.83,0,0,0-150.57-4.3c-9.45,2.27-18.93,5.08-27.17,10.25-15,9.38-24.51,26-27.7,43.38s-.51,35.41,5,52.19l-1.13-1c.63,3.3,4.92,4.12,8.27,4.07,60.25-.92,114.07-47,174.19-43.07,21.6,1.42,42.2,9.31,62.13,17.75q20.94,8.87,41.45,18.68c-5.44-4.43-6.47-12.49-5-19.35S369.25,653.62,371.22,646.89Z"/><path class="cls-2" d="M373.63,647.55c1.56-6-.24-9.17-4.61-13.27-5.3-5-10.67-9.92-16.31-14.52A166.86,166.86,0,0,0,320,599c-25-12.09-52.35-19.32-79.78-23a293.71,293.71,0,0,0-83.74,1c-24.57,3.81-51.11,9-66.74,30.21-17.84,24.14-16.44,55.85-7.67,83.17L86.27,688l-1.12-1c-1.74-1.58-5-.07-4.18,2.43,2.36,7,11.06,6,17,5.64A156.92,156.92,0,0,0,125,690.66c18.68-4.59,36.55-11.87,54.42-18.85,17.72-6.93,35.64-13.78,54.38-17.39,21-4,41.7-2.58,62.14,3.65,24.86,7.57,48.77,19,72.18,30.2,2.4,1.15,5.27-1.89,3-3.92-10.92-9.87-1-25.82,2.44-36.8,1-3.08-3.87-4.39-4.82-1.33-4.05,13-13.94,30.1-1.16,41.66l3-3.92c-19.44-9.28-39.13-18.32-59.3-25.9-19.14-7.18-39.09-12.07-59.67-10.92-36.79,2.07-70.22,19.6-104.41,31.55a238.59,238.59,0,0,1-29.74,8.55,144.85,144.85,0,0,1-16.45,2.52C98,690,87.17,692.13,85.79,688l-4.18,2.43,1.13,1c1.75,1.59,5,.06,4.18-2.44-7.56-23.51-9.82-50,2.65-72.33a56.28,56.28,0,0,1,23.37-22.94c11.25-5.75,24.31-8.28,36.65-10.56,50.13-9.28,103.28-5.11,151.06,12.91A184.2,184.2,0,0,1,337,614.34,165.23,165.23,0,0,1,354.73,628c4.68,4.1,15.88,11.32,14.08,18.22C368,649.34,372.82,650.67,373.63,647.55Z"/><path class="cls-4" d="M128.55,769A97.1,97.1,0,0,0,151,776.17a109.23,109.23,0,0,0,14.25,1.62c10.41.58,20.51,1.09,30.26-1.35,15.44-3.85,28.42-14.84,37.29-28,5.13-7.62,9.12-16.08,15.35-22.83,12.1-13.12,31.24-17.86,49-16.55,23.85,1.76,28.52,15.47,51.37,14.4,13.78-.64,29.52-6.48,29.87-12.87s-14.35-11.75-42.34-22.15c-19.61-7.29-29.25-9-35.15-9.75-4.7-.61-10.93-1.16-26.52-.71a415,415,0,0,0-59,5.18c-25.69,4.16-38.53,6.25-46.07,10.28C140.22,709,131.45,747.45,128.55,769"/><path class="cls-2" d="M127.29,771.18a100.13,100.13,0,0,0,27.92,8.17c12.21,1.64,25.34,2.47,37.51.25,11.21-2.05,21.42-7.74,29.79-15.38,8.78-8,14.32-17.87,20.62-27.76,7.29-11.45,17.1-19.21,30.27-22.81,11.6-3.16,24.69-3.44,36.18.3,8.51,2.76,15.92,8.13,24.58,10.49,10.22,2.79,21.59,1.63,31.57-1.63,5.41-1.76,15.9-5.68,15.15-13.09-.51-5.1-6.33-8.13-10.36-10.18-9.61-4.92-20-8.44-30.11-12.2s-20.2-7.42-30.7-9.69c-15.19-3.28-30.83-2.48-46.25-1.84-24.2,1-48.13,4.42-71.94,8.8-7.7,1.41-15.8,2.79-22.87,6.33-9.37,4.69-17.1,12.41-23,20.95-11.45,16.51-16.8,36.78-19.49,56.46-.43,3.15,4.39,4.51,4.82,1.33,4.19-30.63,16.38-69.34,50.16-77.8,21.25-5.32,43.72-8.32,65.51-10.07,17.2-1.38,35.26-2.81,52.46-.88,16.77,1.88,32.78,8.47,48.42,14.39,8.18,3.1,17,5.95,24.4,10.73,1.23.8,3.71,2.25,4,3.92.58,3.64-6.84,6.33-9.37,7.29-10,3.79-21.81,5.18-32.18,2-7.76-2.36-14.56-7.06-22.21-9.75-18.55-6.52-42.41-3.71-58.44,7.85-10.15,7.32-15.44,18.09-22.1,28.31-7.05,10.84-16.72,20.32-28.66,25.58-12.9,5.69-27.55,4.89-41.28,3.77a96.36,96.36,0,0,1-31.84-8.19c-2.91-1.31-5.45,3-2.52,4.32Z"/><path class="cls-4" d="M405.87,713c-20.88,11.4-47.83,17.77-81.63,18.5A95.86,95.86,0,0,0,305.61,734c-14.14,3.41-27.3,10-39.93,17.2-11.63,6.64-24,15.48-26,28.73-1.05,7.12,1.19,14.29,3.76,21,2.19,5.75,4.68,11.49,8.58,16.24s9.42,8.48,15.54,9,12-2,16.94-5.54,9.11-8,13.69-12a87.49,87.49,0,0,1,43.53-20.27c6.5-1,13.12-1.3,19.52-2.81,19.84-4.66,35.59-21,43.37-39.79C409,735.4,411,723.05,405.87,713Z"/><path class="cls-2" d="M404.61,710.79a143.85,143.85,0,0,1-39.19,13.83,207.8,207.8,0,0,1-24.85,3.5c-8.56.7-17.19.52-25.71,1.67-16.89,2.27-32.51,9.28-47.28,17.5-11.2,6.24-23.79,13.79-28.74,26.3-2.59,6.58-2.22,13.6-.4,20.33,2,7.48,5.06,15.45,9.43,21.89,8.07,11.88,21.43,16.45,34.37,9.29,7-3.88,12.33-10,18.35-15.13A84.49,84.49,0,0,1,323,796.3a91.74,91.74,0,0,1,24-6c7.64-.92,15.21-1.71,22.42-4.6,13.71-5.5,24.87-16.14,32.38-28.74,8-13.39,13.16-30.4,6.17-45.24-1.37-2.91-5.69-.38-4.32,2.52,6.26,13.29.62,29.06-6.54,40.83-6.57,10.77-16,20-27.63,25.21-13.05,5.86-28,4.57-41.53,8.93a93,93,0,0,0-34.3,20.24c-5.83,5.34-11.64,11.49-19.51,13.67s-15.36-1.46-20.41-7.63-8.12-14.42-10.29-22-2.22-15.12,1.95-22c6.89-11.3,20.53-17.92,31.88-23.77,14.37-7.41,29.69-13,46-13.73,29.06-1.39,57.82-4.88,83.83-18.89C410,713.58,407.44,709.26,404.61,710.79Z"/><path class="cls-1" d="M307,993.64"/><path class="cls-2" d="M307,996.14c3.21,0,3.22-5,0-5s-3.23,5,0,5Z"/><path class="cls-1" d="M379,964.39a9.37,9.37,0,0,0-4.8-4.39c-2.55-.91-5.38-.3-8,.57-11.91,4-21.26,13.12-31.26,20.75-8.22,6.26-18,11.82-28,12.32,16.56,5.16,36.13,6.71,51.81.8,6.44-2.43,12.89-5.57,17.3-10.85S382.39,970.4,379,964.39Z"/><path class="cls-2" d="M381.19,963.13c-7.93-12.53-23.86-2-32.52,4.31-12.83,9.42-24.88,22.4-41.69,23.7-2.75.22-3.48,4.07-.67,4.91,17.25,5.22,36.73,7.09,53.89.51,13.36-5.13,28.77-17.43,21-33.43-1.41-2.9-5.72-.36-4.32,2.52,7.65,15.72-14.05,25.78-25.8,28.48-14.34,3.3-29.51,1.31-43.43-2.9l-.66,4.91c12.72-1,23.29-7.85,33-15.59,6.56-5.2,29.41-26.64,36.84-14.9C378.59,968.36,382.92,965.86,381.19,963.13Z"/><path class="cls-1" d="M183.45,490.72c-.8-5.56-5.67-10-11.15-11.27s-11.33.34-16.07,3.35-8.52,7.32-11.84,11.85c-7.21,9.84-14.17,28.75-14.17,28.75,2.68,3.94,8.62,4.17,13,2.21s7.72-5.55,11.65-8.24c5.75-4,12.62-6,18.53-9.67S184.44,497.62,183.45,490.72Z"/><path class="cls-2" d="M185.86,490.06c-2.47-11.92-15.66-15.89-26.07-11.83-11.72,4.57-19.23,16.38-24.54,27.19-2.12,4.33-4,8.75-5.84,13.22-.92,2.28-2.3,4.26-.95,6.52,2.44,4.12,8.74,4.7,12.89,3.7,6.12-1.47,10.38-6.5,15.47-9.81,11.06-7.2,30.52-11.27,29.13-28.33-.26-3.18-5.26-3.21-5,0,1,12.49-13.2,16.93-22.11,21.44-4.37,2.21-8,5.19-11.83,8.11-4.27,3.2-10.79,6.52-15,1.36l.64,2.43a138.51,138.51,0,0,1,11.49-24.5C148,493.35,153,487,159.7,483.72c8-4,19.26-2.37,21.34,7.67C181.69,494.53,186.51,493.2,185.86,490.06Z"/><path class="cls-1" d="M132.93,616.13s-6.23-.26-8.66,1.63-3.63,5-4.19,8c-1,5.24,0,11.36,4.31,14.55a12.18,12.18,0,0,0,9.91,1.78,7.94,7.94,0,0,0,2.89-1.21,8.8,8.8,0,0,0,2.19-2.55c2.45-3.91,3.85-8.69,2.87-13.2S137.52,616.55,132.93,616.13Z"/><path class="cls-2" d="M132.93,613.63c-7.37-.22-12.88,2.39-14.93,9.92s0,17.31,8,20.41c19.35,7.42,26.92-26.94,7.58-30.24-3.15-.54-4.5,4.28-1.33,4.82,6.21,1.06,8.69,7,7.42,12.72-.76,3.42-2.57,7-6.05,8.39-3,1.18-7.18-.45-9.09-2.75-3.07-3.72-2.94-10.15-.9-14.32,1.83-3.77,5.54-4.06,9.29-4C136.14,618.73,136.14,613.73,132.93,613.63Z"/><path class="cls-1" d="M300.78,764a12,12,0,0,0-3-3.73,7.48,7.48,0,0,0-3-1.9c-2.49-.65-4.92,1.1-6.88,2.77q-6.39,5.46-12.27,11.46s-4.51,5.25-3.72,8.21c.64,2.4,3.11,4,5.58,4.23a15.14,15.14,0,0,0,7.21-1.47,51.45,51.45,0,0,0,8.71-4.61,20.75,20.75,0,0,0,6.54-6.24A9.51,9.51,0,0,0,300.78,764Z"/><path class="cls-2" d="M302.94,762.78c-1.76-3-4.57-6.3-8.18-6.87-4.88-.77-8.89,3.65-12.16,6.58-4.41,4-14.25,11.14-13.21,18.36,2.33,16.17,39.62-.65,33.81-17.47-1.05-3-5.88-1.73-4.83,1.33,2.28,6.58-4.09,11-9.05,13.85-2.42,1.38-5.23,3-7.95,3.57-3.59.75-8.33-.52-6-4.76,1.61-3,4.28-5.24,6.7-7.54,2-1.93,4.07-3.85,6.2-5.66,2-1.68,2.84-2.8,5.62-2.4s3.3,1.05,4.78,3.53C300.27,768.07,304.59,765.56,302.94,762.78Z"/><path class="cls-1" d="M351.64,753.27c4,2.26,9,.57,13.1-1.58,5.46-2.89,10.74-6.82,13.24-12.47a5.82,5.82,0,0,0,.49-4.42c-.55-1.42-4.77-2.67-4.77-2.67a39.4,39.4,0,0,0-22.95,14.65,5.24,5.24,0,0,0-1.41,3.45A4.18,4.18,0,0,0,351.64,753.27Z"/><path class="cls-2" d="M350.38,755.43c8.29,3.7,17.63-1.62,23.86-7.17,4.73-4.23,11.06-13.57,2.9-17.48-6.5-3.11-15.43,2.7-20.53,6.62-5.4,4.16-14.32,12.17-6.23,18,2.61,1.89,5.11-2.45,2.53-4.32-4.6-3.33,16.71-16.93,21-16.29,6,.89-2,9-4.14,10.68-4.2,3.4-11.31,8.08-16.83,5.61C350,749.81,347.45,754.11,350.38,755.43Z"/><path class="cls-1" d="M190.13,713c-5.47.32-10.67,2.39-15.7,4.58a26.37,26.37,0,0,0-7,4,9.55,9.55,0,0,0-3.56,6.95s10.27,2.73,8.42,6.82a5.81,5.81,0,0,0-.73,2.69,3.92,3.92,0,0,0,3.3,3.28,10.5,10.5,0,0,0,4.92-.56,83.7,83.7,0,0,0,17.69-7.4c3.18-1.79,6.35-3.9,8.16-7.05a6.82,6.82,0,0,0,1-3.79,7.13,7.13,0,0,0-1.77-3.88C201.45,714.41,195.6,712.71,190.13,713Z"/><path class="cls-2" d="M190.13,710.52a54.18,54.18,0,0,0-19.89,6.28c-4.83,2.53-8.32,6.16-8.83,11.73a2.51,2.51,0,0,0,1.84,2.41c1.71.47,4.23,1,5.5,2.3,2.18,2.16-.68,5.57,2,8.46,5.45,5.95,17.78-1.05,23.42-3.76,5.9-2.85,16.12-8,15-16.08-1.18-8.42-11.88-11.51-19-11.34-3.21.08-3.22,5.08,0,5,4-.09,8,.53,11.13,3.09,5.25,4.22,1.2,8.68-3,11.38a66.67,66.67,0,0,1-10.86,5.5c-2.55,1-7,3.45-9.88,3.28-5.52-.33-2-2.64-2.61-5.47a6.55,6.55,0,0,0-2.41-3.48,21,21,0,0,0-7.93-3.7l1.83,2.41c.45-4.92,5.35-7,9.29-8.77a46.47,46.47,0,0,1,14.43-4.24C193.31,715.23,193.34,710.23,190.13,710.52Z"/><path class="cls-1" d="M36.31,689c-2-1.67-5-1.43-7.57-.71-5.8,1.65-11.15,5.53-13.63,11S13.54,712,18,716a14.07,14.07,0,0,0,14.74,2.29,17.13,17.13,0,0,0,9.59-11.79C43.59,701.13,36.31,689,36.31,689Z"/><path class="cls-2" d="M37.57,686.85c-8.34-5.23-20.47,3-24.3,10.6-4.48,8.84-1.06,20.79,9,23.78,9.86,2.94,20.48-4,22.49-14,1.31-6.5-3-14.05-6.25-19.45-1.64-2.76-6-.25-4.32,2.52A51.94,51.94,0,0,1,39,700.61a12.51,12.51,0,0,1-8.32,15.79c-8.85,2.72-16.16-5.09-14.09-13.76,1.48-6.19,11.66-15.71,18.43-11.47C37.78,692.89,40.3,688.56,37.57,686.85Z"/><path class="cls-1" d="M293.54,308.23a7.27,7.27,0,0,0-.24-3.59,8.55,8.55,0,0,0-2.52-3c-2.44-2.16-19.1-3.35-26.08-2.8-3.5.27-7.41.88-9.51,3.69-1.54,2.06-1.71,4.81-1.82,7.39-.17,4.08-.24,8.5,2.11,11.85a13.34,13.34,0,0,0,5,4.06,22.89,22.89,0,0,0,33-17.56Z"/><path class="cls-2" d="M296,308.23C297,297.45,284.66,297,277,296.48c-9.32-.67-23.75-2.09-25.79,9.95-.92,5.4-.9,12.51,2.55,17.07,3.73,4.92,10.65,7,16.58,7.18A25.64,25.64,0,0,0,296,308.9c.51-3.15-4.31-4.51-4.82-1.33-1.53,9.5-8.62,17.21-18.5,18.06-4.76.4-10.94-.76-14.34-4.42-3.08-3.31-3.12-9.89-2.15-14.1,1.8-7.83,13.33-6.1,19.55-5.72,4.76.3,16-.39,15.35,6.84C290.77,311.44,295.77,311.42,296,308.23Z"/><path class="cls-4" d="M459.26,561.15l73.76-59c7.79-6.24,15.67-12.53,24.65-16.9,14.65-7.14,31.53-8.75,47.74-7,20.73,2.21,43.25,12.14,49.68,32,5.27-4.8,10.65-9.77,13.78-16.17s3.51-14.67-1-20.23A25.51,25.51,0,0,0,660.5,468c-36.36-20.91-83.74-21.15-120.3-.59-8.92,5-17.18,11.15-25.28,17.41-20,15.5-40,33-49.47,56.48-1.42,3.56-2.25,8.39.9,10.57"/><path class="cls-2" d="M461,562.92c26-20.78,51.76-41.77,77.9-62.32,12.71-10,26.1-17.56,42.36-19.73a92.5,92.5,0,0,1,41.05,3.53c13.19,4.38,25.63,12.83,30.34,26.45a2.54,2.54,0,0,0,4.18,1.1c7.25-6.63,14.91-14,16.56-24.13,1.48-9.18-2.59-16.38-10.3-21.14-17.16-10.61-37.82-16-57.86-16.88a126,126,0,0,0-60.61,12.48c-19.23,9.43-37.15,24-52.73,38.59-8.37,7.84-16.11,16.52-22.12,26.33-3.94,6.42-12.71,19.68-5.21,26.47,2.38,2.16,5.92-1.37,3.53-3.53-3.63-3.29.44-10,2.12-13.42A92.12,92.12,0,0,1,477.18,525,129.88,129.88,0,0,1,494.87,505c13.57-12.83,28.86-25.08,45-34.46,31.16-18.09,70.44-20.69,104-7.67,8.38,3.26,22.44,8.06,24.57,17.91,2.5,11.53-7.5,20.72-15.11,27.67l4.18,1.11c-8.76-25.35-38.25-34.15-62.57-34.44-16.29-.19-32.35,3.54-46.18,12.29-14.65,9.27-27.81,21.24-41.32,32l-49.93,40c-2.52,2,1,5.53,3.53,3.54Z"/><path class="cls-4" d="M745,424c-6.44-2-13.54-1.13-19.85-3.5-9.18-3.44-14.57-12.7-21.79-19.32a45.26,45.26,0,0,0-43.63-9.51,13.06,13.06,0,0,0-5.2,2.76c-1.74,1.68-2.58,4.07-3.23,6.4-2,7.17-2.64,15,.18,21.92,3.88,9.49,13.32,15.23,21.49,21.41s16.21,15,15,25.2c0,0,1.77,8.17,5.65,7.88s6.45-4.47,6.69-8.35c.42-6.51-3.61-12.33-6.28-18.28s-3.57-14,1.56-18.06c4.09-3.21,10.19-2.15,14.68.47s8.11,6.55,12.57,9.25a27.78,27.78,0,0,0,25.68,1.39,11.85,11.85,0,0,0,5.58-4.62C757.46,433.14,751.49,426,745,424Z"/><path class="cls-2" d="M745.71,421.58c-6.83-1.84-14.38-1-20.88-4-6-2.72-10.2-8.11-14.51-12.88-8.22-9.11-18.22-15.39-30.53-17.13-9.39-1.34-25.18-1-29.69,9.18-4.79,10.78-4.1,24.56,3.27,33.92,8,10.19,21.19,15,28.51,25.81a19.94,19.94,0,0,1,3.78,10.58,15.27,15.27,0,0,0,.43,4.54c.92,3,2.56,6.76,5.79,7.81,4,1.31,8-2.06,9.7-5.47,2.44-4.94,1.15-10.59-.88-15.41-2.44-5.82-6.89-11.7-6.2-18.36,1.15-10.95,12.94-6.62,18.6-2.24,5.86,4.52,11.17,8.92,18.71,10.2a29.9,29.9,0,0,0,18.72-2.69c12.47-6.46,5.87-20-4.82-23.89-3-1.1-4.34,3.73-1.33,4.82,6.2,2.23,12,10,4.29,14.41-5.69,3.3-13.2,3.61-19.36,1.62-9.91-3.2-16-14.23-27.15-14.38-8.39-.1-13.22,6.89-12.62,14.78.32,4.3,2,8.17,3.85,12a52.13,52.13,0,0,1,3.75,8.4c.82,2.87,1.9,10-2.31,11.11-3.44.92-4-4.4-4.16-6.5-.45-5.14-1.53-9.5-4.47-13.85-5.7-8.42-14.42-13.32-22.09-19.64-3.91-3.23-7.65-6.9-9.84-11.54-3.09-6.56-2.55-14.55-.52-21.33,1.9-6.3,6.53-7.84,12.54-8.84a42.62,42.62,0,0,1,18.08,1,42,42,0,0,1,16.13,8.34c4.55,3.86,8.11,8.7,12.32,12.91a33,33,0,0,0,11.7,8.06c6.37,2.33,13.36,1.74,19.86,3.49C747.49,427.23,748.82,422.41,745.71,421.58Z"/><path class="cls-4" d="M781.28,381.41c.74-1.79-.24-3.92-1.76-5.12a13.46,13.46,0,0,0-5.36-2.13l-15.85-3.79c-8.9-2.12-19.37-3.91-26.31,2.07,0,0,11.16,1.21,15.49,3.84,12.08,7.34,17.14,22.5,17.78,36.62.09,2.17.13,4.44,1.15,6.36s3.37,3.35,5.39,2.52a6.64,6.64,0,0,0,2.46-2.2c3.77-4.73,7.77-10.43,6.3-16.3-.76-3.08-2.93-5.58-4.4-8.38s-2.13-6.54,0-8.92C777.66,384.23,780.4,383.56,781.28,381.41Z"/><path class="cls-2" d="M783.69,382.08c.82-4.56-1.52-7.73-5.75-9.42-5.89-2.35-12.79-3.25-19-4.7-9.79-2.28-20.29-3.92-28.74,2.71-1.92,1.51-.1,4.06,1.76,4.27,9.37,1.05,17.13,3.59,22.77,11.65a44,44,0,0,1,6.58,15.62c1.27,5.59.23,12.54,2.66,17.72,1.5,3.2,5.21,5.58,8.76,4.14,4.05-1.66,7.5-8,9.11-11.71,2.21-5.11,1.64-9.87-1.08-14.63-2-3.56-5.49-7.3-1.59-11.08,1.54-1.49,3-2,4.23-4,1.67-2.76-2.65-5.27-4.32-2.52-1.16,1.91-3.55,2.61-5,4.31a8.45,8.45,0,0,0-1.86,5.15c-.18,5.72,4.67,9.13,5.86,14.33.85,3.69-1.06,7.33-3,10.31-.6.9-2.28,4.05-3.35,4.43l-3.55-1.58a16.8,16.8,0,0,1-.42-3.38,83.44,83.44,0,0,0-2.15-14.93c-2.39-8.93-7-17.54-14.58-23.1-5.46-4-12.49-5-19.08-5.75l1.77,4.27c6.18-4.84,14.65-3.49,21.74-1.92,3.48.77,24.21,3.76,23.36,8.46C778.3,383.89,783.12,385.24,783.69,382.08Z"/><path class="cls-2" d="M858.32,790.26c-6.17,13-12.49,27-10.71,41.31.53,4.22,2.47,9,6.63,9.9a8.79,8.79,0,0,0,5.73-1.1c8.21-4.22,11.56-14.7,10.24-23.84s-6.3-17.28-11.17-25.12"/><path class="cls-2" d="M854,787.74c-5.61,11.87-11.31,24.23-11.68,37.59-.26,9.57,3.58,23.76,16.17,20.91,10.16-2.31,15.88-13.15,16.82-22.72,1.25-12.71-5.53-24.26-12-34.64-3.38-5.45-12-.44-8.63,5,4.52,7.29,9.76,15.22,10.66,24,.63,6.18-1.08,14-6.74,17.47-8.24,5.08-6.35-12.57-5.59-16.65,1.69-9.12,5.66-17.62,9.59-25.94,2.73-5.79-5.89-10.87-8.63-5Z"/><path class="cls-2" d="M682.9,826.9A34.77,34.77,0,0,0,694.1,854a54.93,54.93,0,0,0,5.68,4.18c2.73,1.89,2.38,2.12,1.38,5.1a173.27,173.27,0,0,0-5.67,19.59c-4.7,22.49-5.26,48.39,4.77,69.58,8.54,18,28.83,32.15,49.32,26.49,5.09-1.41,9.56-4.58,14.7-5.77,6-1.4,11.83,2.39,17.61,3.65a60.65,60.65,0,0,0,32.61-2.24c21.14-7.36,36.82-24.13,48-43,5.94-10,11.51-20.87,13.76-32.35,2.45-12.47-.67-25.54,2.69-37.81,3-11.09,11.11-19.9,19.08-27.8s16.5-15.74,24-24.35c14.62-16.79,25.36-36.32,25.92-59,.65-26.74-11.19-52.47-25-74.71-2.58-4.16-8.62-10.56-6-15.78,2-3.94,7.56-5.92,11.39-7.42,11.75-4.58,22.1-9.43,30.93-18.77,4.41-4.68-2.64-11.77-7.08-7.08-7.6,8-16.36,12.28-26.5,16.21-7.34,2.84-15.94,6.67-18.61,14.8-3.34,10.22,5.07,19.36,9.91,27.53a172.76,172.76,0,0,1,15.17,31.77c7.36,21.46,8.32,44.29-2.63,64.73-10.33,19.27-27.14,33-42,48.49-7.2,7.51-13.75,15.84-17.29,25.74-4,11.34-2.11,23.25-2.9,35-.81,12.11-6.31,23.35-12.26,33.72a110.31,110.31,0,0,1-19.68,25.73,65.94,65.94,0,0,1-28.22,16.15c-11.29,3-21.07,1.42-32-2.06a24.29,24.29,0,0,0-13.64-.77c-5.37,1.33-10,4.6-15.39,5.95-9.63,2.43-20.09-1.61-27.26-8.08-18.92-17.06-18.73-49.17-14.55-72.21a137.42,137.42,0,0,1,5.13-19.75c1.82-5.33,4.1-10.49.37-15.57-3.08-4.21-8.49-5.92-11.78-10.09a25.13,25.13,0,0,1-5.24-16.82c.25-6.43-9.75-6.42-10,0Z"/><path class="cls-2" d="M689.77,813.26c-11.51-13.12-14.2-32.2-14-49.08a124.24,124.24,0,0,1,9.3-45.13,127.59,127.59,0,0,1,26-40.1c11.67-12.16,25.21-19.9,39.92-27.76C758.78,647,765.58,642,771,635s9.69-14.8,15-21.87a164.55,164.55,0,0,1,37.24-35.7c30.84-21.56,67.83-32.54,105.33-33.36a220.7,220.7,0,0,1,33.5,1.81c10.77,1.42,21.67,4.23,32.59,3,8.84-1,16.87-4.5,22.53-11.52,5.19-6.42,7.66-15.06,4.35-22.93-2.46-5.84-12.14-3.27-9.65,2.66,3,7.19-1.08,14.33-7.27,18.34-8.28,5.38-19.35,3.93-28.58,2.52-19.74-3-39.27-4.85-59.25-3.32-37,2.84-73.2,15.12-103.08,37.37a179,179,0,0,0-36.35,36.06c-5.41,7.2-9.61,15.35-15.38,22.26-6.13,7.34-14.44,11.43-22.79,15.71a135,135,0,0,0-63.23,69,132.48,132.48,0,0,0-10.21,51.3c.12,19.07,4,39.28,16.93,54,4.25,4.85,11.3-2.25,7.07-7.07Z"/><path class="cls-5" d="M625.62,683.8a33.87,33.87,0,0,1-2.18-30.86,36.05,36.05,0,0,1,23.69-20.12c9.06-2.37,18.63-1.2,28-2a65.57,65.57,0,0,0,29.31-9.94c.93,4.68-4.52,8-6.23,12.46-2.74,7.1,4.51,13.89,11.13,17.65,40.24,22.88,88.4,26.34,134.69,26.89,9.94.12,20.13.08,29.44-3.37s17.73-11.08,19.29-20.9c1.31-8.21-2.24-16.39-2.61-24.7l1-.07a63.92,63.92,0,0,1,61,16.9c3.83,3.94,7.18,8.43,11.68,11.58s9.83,4.8,14,8.24c8.32,6.79,9.91,20.4,3.39,28.94-2.43,3.17-5.7,5.58-8.67,8.26-4.58,4.14-8.47,9-12.64,13.54-35.67,39-94.22,55.24-144.88,40.26-18.14-5.37-35.46-14.41-54.33-15.83-15.79-1.19-31.41,3.08-46.83,6.69s-31.58,6.6-47,2.88-29.82-15.85-31.34-31.61c-.68-7.12,1.22-14.57-1.2-21.29C632.52,692.3,628.48,688.38,625.62,683.8Z"/><path class="cls-2" d="M629.93,681.28c-9.9-16.8-.75-38.15,17.83-43.44,10.15-2.89,21.06-1.07,31.44-2.53a71.74,71.74,0,0,0,27.72-10.13l-7.52-4.32c.27,3.27-3.51,6-5,8.75a14.48,14.48,0,0,0-1,11.52c2.57,7.8,10.37,12.61,17.19,16.24,16.88,9,35.23,14.94,53.94,18.68s37.77,5.45,56.81,6.24c18,.74,39,3.36,56-4,8.09-3.52,15.26-9.73,18.67-18,4.33-10.52-.08-20.71-.84-31.39l-5,5c3.32-.25,6.52-1.33,9.84-1.72a59.55,59.55,0,0,1,36.6,7.73c7.54,4.37,12.7,10.54,18.74,16.63a42.89,42.89,0,0,0,10.16,7.6c3.91,2.09,8.35,3.77,11.2,7.31a16.77,16.77,0,0,1-.07,20.82c-2.91,3.46-6.81,6.08-10,9.26-3.39,3.37-6.43,7.07-9.64,10.6a134.77,134.77,0,0,1-38.59,29.38c-29.09,14.86-63.65,19.62-95.5,12-18.56-4.47-35.73-13.83-54.68-16.83-20.3-3.22-39.7,2.44-59.34,6.81-20.16,4.49-44.42,7.26-60.27-8.95-7-7.17-8.3-15.13-8-24.81.16-5.39,0-10.71-2.24-15.71-2.08-4.67-5.58-8.45-8.37-12.68-3.52-5.36-12.18-.35-8.63,5,2.67,4.07,6.42,7.81,8.22,12.39,2,5.11.81,11,.87,16.38a37.26,37.26,0,0,0,8.35,23.34c12.18,15.17,32,19.79,50.67,18.24,22.77-1.88,44.5-11.65,67.5-11.14,21.45.47,40.71,11.75,61.1,17,34.4,8.9,71.62,4.21,103.37-11.42a142.94,142.94,0,0,0,42-31.32c3.42-3.73,6.63-7.65,10.21-11.22s7.89-6.57,11.1-10.59a26.42,26.42,0,0,0,4.69-22.62c-2.5-10.4-10.11-15.14-18.93-19.9-9.4-5.08-15.19-14.73-23.85-21a68.11,68.11,0,0,0-28.12-11.64,70.18,70.18,0,0,0-14.83-1c-4.62.21-9.08,1.66-13.59,2-2.55.19-5.21,2.14-5,5,.58,8.25,4.45,17.23,2.34,25.44-1.7,6.62-7.3,11.55-13.26,14.42-7.68,3.7-16.55,4.1-24.92,4.14-8.15,0-16.31-.18-24.46-.47-33.3-1.19-67.52-4.88-98.33-18.41-7.39-3.25-17.34-6.92-22.27-13.66-2.84-3.88-.93-6.25,1.58-9.61,2.25-3,3.93-6,3.61-9.88-.3-3.61-4.07-6.45-7.53-4.32-10.58,6.53-21.91,9.37-34.28,9.6-11.51.22-22.93.39-33,6.73-18,11.38-24.21,34.94-13.3,53.45C624.56,691.86,633.21,686.84,629.93,681.28Z"/><path class="cls-5" d="M699,635.14c-.21-3.92,4.07-6.52,7.87-12.69,6.19-10.06,4.68-12.24,10.77-23.27,4.13-7.48,9.87-13.62,12.3-17.9,9.31-16.38,10.44-25.16,21.36-39.8,16-21.46,26.17-43.19,39.49-55.3,0,0,22.83-17.93,38.7-26.31,6.83-3.6,8.42-4.8,12.2-5.42,20.43-3.36,24.44.68,67.61,21.69,5.1,2.48,17.28,12.37,17.28,12.37.29,1.26,1.52,2.84.08,4.8-1.85,2.51-20.83.29-55.61-6-4.78-.86-8.13-2.43-9.4-.33s6.31,42.88,4.16,49.16c-.52,1.52-3.88,6.22-2.51,7.7.8.87,5.51,0,5,.69-.92,1.27,27.7,58.84,21.86,81-.64,2.42-2.41.54-1.89,3.63,3,17.85,5.63,29.42-5.56,37.22-7.35,5.12-12.16,6.25-18.39,7.67-9.06,2.08-17.83,1.51-20.47,1.54-22.59.31-20.86,4-60.06-2.88,0,0-50.78-6.76-76-24.12C703.84,645.88,699.31,640.54,699,635.14Z"/><path class="cls-2" d="M704,635.14c.06-1.44,1.78-2.93,2.63-4a66.78,66.78,0,0,0,4.56-6.17A64.56,64.56,0,0,0,717,613c3.54-9.52,8.83-17.24,14.77-25.39,5.65-7.77,9.12-17,13.2-25.58,4.7-10,11.24-18.39,17.4-27.45,10-14.68,19.39-34.62,32.62-45.35a261.64,261.64,0,0,1,41.35-27.33c8.4-4.48,18.73-4.42,27.57-1.55a137.32,137.32,0,0,1,17.31,7.51c9,4.35,18.4,8.36,27,13.35a90.88,90.88,0,0,1,9.14,6.35c.82.62,4.6,4.53,5.65,4.42-2.17.22.92-3.58,1.1-2.84a5.74,5.74,0,0,1-1.18.14,55.44,55.44,0,0,1-6.94-.22c-8.15-.64-16.24-1.93-24.3-3.24q-8.23-1.33-16.42-2.8c-4.43-.79-10.39-3.32-14.78-1.29-5.31,2.46-3.91,8.51-3.36,13.16.91,7.71,2.06,15.4,3,23.12.41,3.49.79,7,1,10.5a42.16,42.16,0,0,1,0,6c-.72,2.33-3.89,6.32-2.89,10.09,1.28,4.86,5.76,4,8.76,4.6l-3.49-3.49c-.06-.23-.51-4.69-.15-1.1,0,.25.07.54.09.76a10.61,10.61,0,0,0,.19,1.15,18.45,18.45,0,0,0,1,2.69c1.27,3.24,2.65,6.43,4,9.64,4,9.73,7.87,19.54,11.12,29.55,3.13,9.65,6.31,19.94,6.29,30.18a22.69,22.69,0,0,1-.44,5c0,.12,1.23-1.66.36-.45-.35.5-1,.78-1.4,1.29a6.74,6.74,0,0,0-1.19,4.81c.44,6.93,2.71,13.6,2.62,20.62-.19,14.51-17.08,19.26-29.13,20.48-9.84,1-19.91.53-29.81,1.24a125.28,125.28,0,0,1-26-1.1c-3.71-.51-7.41-1.1-11.11-1.71-2-.34-4-.67-6-1,2.39.37,1.19.16.65.08-2.49-.37-5-.76-7.45-1.2A284.17,284.17,0,0,1,740.72,658a142.51,142.51,0,0,1-20-7.71c-6.15-3-15.78-7.42-16.73-15.15-.78-6.3-10.79-6.38-10,0,2.44,19.83,28.43,27.65,44.67,32.7a282.62,282.62,0,0,0,42,9.51c14,2.07,28,5.08,42.18,4.47,5.6-.25,11.17-.86,16.76-1.06,9.94-.35,19.49-.08,29.24-2.58s21.06-7.95,25.13-17.93a30.63,30.63,0,0,0,1.8-13.46c-.15-2.7-.52-5.38-.91-8-.22-1.49-.45-3-.7-4.44-.21-1.25-1.37-4.36-1-5.52l-2.3,3c6.87-5,5.3-15.36,4.17-22.93-1.46-9.76-4.4-19.3-7.64-28.61-3-8.65-6.42-17.15-9.92-25.61-1.12-2.69-2.27-5.36-3.33-8.07a11.53,11.53,0,0,0-.92-2.46s-.16-.58-.15-.59q-.15,4.25.18,1.06a5.87,5.87,0,0,0-.23-1.51,4.92,4.92,0,0,0-3.49-3.5c-.66-.12-3.58-.77-4.24-.25l2.68,3.58A14.17,14.17,0,0,1,869,541c.29-.58.65-1.14.92-1.73a16.53,16.53,0,0,0,1.34-7c0-6.52-1-13.11-1.79-19.56-.85-6.69-1.87-13.38-2.57-20.09-.11-1,.22-4-.32-4.9v-.14c0,1.55-.87,2.69-2.61,3.4.21.34,2.75.54,3.29.66,3.3.73,6.64,1.27,10,1.85,10.22,1.78,20.46,3.48,30.75,4.75,5.36.66,11,1.51,16.37.94,6.47-.68,10.47-7,6.58-13.19-1.11-1.76-3.3-3-4.9-4.27-3-2.37-6.12-4.73-9.31-6.91-8.26-5.65-18-9.46-27-13.86-6.65-3.27-13.33-6.58-20.27-9.19a51.25,51.25,0,0,0-30.38-1.85c-7.87,1.94-15.67,7.46-22.43,11.76-7.67,4.88-15.09,10.18-22.37,15.64-13.48,10.1-22.15,23.62-31.12,37.74-7.42,11.66-16.38,22.58-23.13,34.63-5.44,9.73-8.94,20.51-14.89,30-3.08,4.89-7,9.2-10,14.1a79,79,0,0,0-7,14.59,55.51,55.51,0,0,1-7.39,14.41c-3,4-6.43,7.11-6.64,12.4C693.76,641.58,703.77,641.57,704,635.14Z"/><path class="cls-2" d="M811.54,538.72c-.63,11.57,8,14.36,17.85,13.15,11.48-1.42,23.29-3.11,34.6-5.58,3.14-.69,1.81-5.51-1.33-4.83-8.11,1.78-16.31,2.53-24.46,3.94-7.77,1.34-22.35,6-21.66-6.68.18-3.21-4.83-3.2-5,0Z"/><path class="cls-2" d="M846,465.16a137.46,137.46,0,0,0,13.87,24c1.88,2.58,6.22.08,4.32-2.52a137.83,137.83,0,0,1-13.87-24c-1.34-2.92-5.65-.38-4.32,2.52Z"/><path class="cls-6" d="M833.64,565.9l-15.3-4.69a1,1,0,0,0-1.29,1.36l5.59,15a1,1,0,0,1-.12,1l-9.19,13.11a1,1,0,0,0,.9,1.64l16-.68a1,1,0,0,1,.88.42l9.63,12.79a1,1,0,0,0,1.84-.35l4.3-15.42a1,1,0,0,1,.67-.71l15.13-5.2a1.05,1.05,0,0,0,.24-1.87l-13.34-8.85a1,1,0,0,1-.46-.85l-.28-16a1,1,0,0,0-1.69-.81l-12.54,10A1.07,1.07,0,0,1,833.64,565.9Z"/><path class="cls-2" d="M834,564.69l-9.92-3c-1.71-.52-5.61-2.6-7.37-1.26-2,1.54,0,4.81.66,6.55l2.28,6.11c.43,1.16,1.82,3.43,1.74,4.68-.14,2.25-4.06,6.07-5.35,7.91-1.07,1.53-4.57,4.89-4.08,7.09.59,2.61,4.33,1.73,6.16,1.65l6.49-.28c1.43-.06,3.8-.64,5.17-.22,1.64.51,4.26,5.09,5.65,6.94,1.26,1.67,3.17,5.71,5.35,6.48,4.71,1.66,5.7-13.38,7-15.86,2.14-4,11.75-3.19,15.65-6.32,4.53-3.64-9.08-10-11.29-11.49-1.4-.93-1.48-.8-1.8-1.93-.54-1.91-.08-4.66-.11-6.65,0-2.31,1-8-.71-9.95-3.3-3.74-13,9-16.21,9.59-1.58.3-.91,2.71.67,2.41,2.27-.43,4.15-2.6,5.92-4l4.75-3.78c.59-.46,2.39-2.46,3.14-2.49-.28,0-.13.53-.17,1.73-.06,1.83.06,3.69.09,5.53,0,2.57-.53,6,.15,8.48.57,2.12,2.58,2.93,4.31,4.07,3,2,6.5,3.75,9.2,6.11,1,.89,1-.09.15.46a23.09,23.09,0,0,1-4.51,1.55c-3,1-6.7,1.75-9.53,3.28-1.77,1-1.93,2.09-2.44,3.91l-3,10.95c-.22.8-.83,2.09-.29,2.14-.49,0-1.92-2.56-2.22-2.94-2.19-2.91-4.23-6.09-6.64-8.83-3.22-3.67-10.29-1.58-14.74-1.39-.38,0-3.36.5-3.69.16.18.19.94-1.1,1.33-1.66l6.52-9.31c1.44-2,1.85-3,1-5.39-1.36-3.86-2.75-7.79-4.32-11.57-.5-1.21-.73-1.48-.5-1.56.92-.32,4,1.22,4.94,1.51l9.92,3C834.85,567.57,835.51,565.16,834,564.69Z"/><path class="cls-6" d="M792.05,619.52l-15.31-4.69a1,1,0,0,0-1.28,1.37l5.59,15a1.05,1.05,0,0,1-.13,1l-9.18,13.1a1,1,0,0,0,.9,1.65l16-.68a1,1,0,0,1,.88.41l9.63,12.79a1,1,0,0,0,1.84-.35l4.29-15.42a1.06,1.06,0,0,1,.67-.7l15.14-5.21a1,1,0,0,0,.24-1.86L808,627.05a1,1,0,0,1-.47-.85l-.27-16a1,1,0,0,0-1.7-.8l-12.53,10A1.07,1.07,0,0,1,792.05,619.52Z"/><path class="cls-2" d="M792.38,618.32l-9.92-3c-1.71-.52-5.61-2.61-7.37-1.27-2,1.54,0,4.82.66,6.55l2.28,6.12c.43,1.15,1.82,3.43,1.75,4.68-.14,2.25-4.07,6.07-5.35,7.9-1.08,1.54-4.58,4.9-4.08,7.1.59,2.61,4.32,1.72,6.15,1.64l6.5-.27c1.43-.06,3.79-.64,5.17-.22,1.64.5,4.25,5.08,5.65,6.93,1.26,1.67,3.17,5.71,5.34,6.48,4.71,1.67,5.71-13.37,7-15.86,2.14-4,11.74-3.18,15.65-6.32,4.53-3.64-9.08-10-11.29-11.48-1.41-.94-1.48-.8-1.8-1.93-.55-1.91-.08-4.67-.12-6.66,0-2.31,1-8-.7-9.95-3.3-3.74-13,9-16.21,9.6-1.58.29-.91,2.7.66,2.41,2.28-.43,4.16-2.61,5.92-4l4.76-3.77c.58-.47,2.38-2.47,3.14-2.5-.28,0-.14.54-.18,1.74-.06,1.83.07,3.69.1,5.52,0,2.58-.53,6,.14,8.49.57,2.11,2.59,2.92,4.31,4.07,3,2,6.51,3.75,9.2,6.1,1,.89,1.05-.09.16.47-1.24.77-3.13,1.07-4.51,1.55-3,1-6.71,1.75-9.53,3.28-1.78,1-1.94,2.09-2.44,3.91l-3.05,10.94c-.23.81-.84,2.1-.29,2.15-.49,0-1.93-2.56-2.22-2.95-2.19-2.91-4.24-6.08-6.64-8.82-3.23-3.67-10.29-1.59-14.75-1.4-.38,0-3.36.5-3.68.16.18.19.93-1.1,1.33-1.66l6.52-9.3c1.43-2.05,1.84-3,1-5.39-1.35-3.87-2.74-7.79-4.31-11.57-.5-1.21-.73-1.48-.51-1.56.92-.33,4,1.21,4.95,1.51l9.92,3C793.26,621.2,793.92,618.79,792.38,618.32Z"/><path class="cls-6" d="M820,493.68,804.69,489a1,1,0,0,0-1.29,1.36l5.59,15a1.08,1.08,0,0,1-.12,1l-9.19,13.1a1,1,0,0,0,.9,1.65l16-.68a1,1,0,0,1,.88.42l9.63,12.78a1,1,0,0,0,1.84-.34l4.3-15.42a1,1,0,0,1,.67-.71L849,511.92a1,1,0,0,0,.24-1.86l-13.34-8.85a1.08,1.08,0,0,1-.47-.85l-.27-16a1,1,0,0,0-1.69-.8L821,493.5A1,1,0,0,1,820,493.68Z"/><path class="cls-2" d="M820.32,492.48l-9.91-3c-1.71-.52-5.61-2.61-7.38-1.27-2,1.55,0,4.82.67,6.55l2.27,6.12c.43,1.15,1.83,3.43,1.75,4.68-.14,2.25-4.06,6.07-5.35,7.9-1.07,1.54-4.57,4.9-4.08,7.1.59,2.61,4.33,1.72,6.15,1.65l6.5-.28c1.43-.06,3.8-.64,5.17-.22,1.64.51,4.26,5.08,5.65,6.94,1.26,1.66,3.17,5.71,5.35,6.48,4.71,1.66,5.7-13.38,7-15.86,2.14-4,11.74-3.19,15.65-6.33,4.53-3.64-9.08-10-11.29-11.48-1.41-.94-1.48-.8-1.8-1.93-.54-1.91-.08-4.67-.11-6.65,0-2.32,1-8-.71-10-3.3-3.74-13,9-16.21,9.6-1.58.3-.91,2.71.66,2.41,2.28-.43,4.16-2.6,5.93-4l4.75-3.77c.59-.46,2.39-2.47,3.14-2.49-.28,0-.13.53-.17,1.73-.07,1.83.06,3.69.09,5.53,0,2.57-.53,6,.14,8.48.58,2.11,2.59,2.93,4.32,4.07,3,2,6.5,3.75,9.19,6.1,1,.9,1-.09.16.47a23.09,23.09,0,0,1-4.51,1.55c-3,1-6.7,1.75-9.53,3.28-1.77.95-1.93,2.09-2.44,3.91l-3,11c-.22.8-.83,2.09-.29,2.14-.49,0-1.92-2.56-2.22-3-2.19-2.91-4.23-6.08-6.64-8.82-3.22-3.67-10.29-1.58-14.75-1.39-.37,0-3.36.49-3.68.15.18.19.94-1.09,1.33-1.66l6.52-9.3c1.44-2.05,1.85-3,1-5.39-1.35-3.87-2.74-7.79-4.31-11.57-.5-1.21-.73-1.48-.5-1.56.91-.33,4,1.22,4.94,1.51l9.92,3C821.2,495.36,821.86,493,820.32,492.48Z"/><path class="cls-6" d="M848.59,617.08A24.54,24.54,0,0,1,866,610.93a23.26,23.26,0,0,0,12.79,41.73A23.23,23.23,0,0,1,869,657c-16.28,3.08-31.81-11.63-26.55-30.46A19,19,0,0,1,848.59,617.08Z"/><path class="cls-2" d="M849.47,618A24.93,24.93,0,0,1,866,612.18l-.88-2.14c-17.48,14.25-8.56,42,13.67,43.87l-.63-2.33c-9.18,6.54-21.77,6-29.61-2.47-8-8.65-7.9-23.15.92-31.15,1.2-1.08-.58-2.85-1.77-1.77-9.48,8.61-9.9,24.1-1.72,33.77,8.42,10,23,11.23,33.44,3.78a1.26,1.26,0,0,0-.63-2.33c-20.3-1.72-27.56-26.84-11.91-39.6.89-.72.12-2.11-.88-2.13-7-.17-12.87,2.21-18.3,6.51C846.44,617.19,848.22,619,849.47,618Z"/><path class="cls-6" d="M770.07,534.2a24.58,24.58,0,0,1,17.41-6.15,23.26,23.26,0,0,0,12.79,41.73,23.1,23.1,0,0,1-9.77,4.35c-16.28,3.08-31.81-11.63-26.55-30.46A19.08,19.08,0,0,1,770.07,534.2Z"/><path class="cls-2" d="M771,535.08a24.93,24.93,0,0,1,16.53-5.78l-.88-2.13c-17.48,14.24-8.56,42,13.67,43.86l-.63-2.33c-9.18,6.55-21.77,6-29.61-2.47-8-8.65-7.9-23.15.92-31.15,1.2-1.08-.58-2.84-1.77-1.76-9.48,8.6-9.9,24.09-1.72,33.77,8.42,10,23,11.23,33.44,3.77a1.26,1.26,0,0,0-.63-2.33c-20.3-1.72-27.56-26.84-11.9-39.6.88-.72.11-2.1-.89-2.13-7-.17-12.87,2.21-18.3,6.52C767.92,534.32,769.7,536.07,771,535.08Z"/><path class="cls-6" d="M745,593.58a24.59,24.59,0,0,1,18.21,3.09,23.26,23.26,0,0,0-9.09,42.69,23.18,23.18,0,0,1-10.65-1c-15.73-5.22-22.16-25.62-8.41-39.52A19.09,19.09,0,0,1,745,593.58Z"/><path class="cls-2" d="M745.3,594.79a24.87,24.87,0,0,1,17.24,3l.3-2.29c-22.16,3.88-27.9,32.5-9.39,45l.63-2.33c-11.46,1.22-22.33-5.57-24.84-17.11-2.46-11.31,4.69-23.56,16.06-26.21,1.56-.37.9-2.78-.67-2.41-12.27,2.86-20.14,15.82-18,28.11,2.26,13.12,14.49,21.5,27.48,20.12a1.26,1.26,0,0,0,.63-2.33c-16.9-11.39-11-36.94,8.79-40.41a1.26,1.26,0,0,0,.3-2.28c-6-3.54-12.32-4.34-19.17-3.21C743.05,592.64,743.72,595.05,745.3,594.79Z"/></g></g></svg>