<svg xmlns="http://www.w3.org/2000/svg" viewBox="0 0 531.93 371.61"><defs><style>.cls-1{fill:#723a29;}.cls-2{fill:#38301f;}.cls-3{fill:none;}.cls-4{fill:#da9b38;}</style></defs><title>coolhat2</title><g id="Layer_2" data-name="Layer 2"><g id="snake"><path class="cls-1" d="M238.22,283l-27.85,39.66C222.42,311.44,232.74,298.44,238.22,283Z"/><path class="cls-2" d="M236.7,282.14,208.85,321.8c-1.18,1.69,1.36,3.46,2.76,2.13,12.17-11.46,22.49-24.62,28.31-40.43.79-2.13-2.62-3.05-3.39-.94-5.61,15.22-15.71,27.86-27.41,38.88l2.77,2.14,27.85-39.66C241.05,282.06,238,280.3,236.7,282.14Z"/><path class="cls-3" d="M156.25,182.72c-12.29,14-20.34,15.77-26.51,41.6-.38,1.6,1.12,23.64,6.9,26.06,4.43,1.85,21.88-8.68,20.33-13.22-8.58-25.07,15.08-68.93,23-72.46C183.09,163.3,168.77,168.46,156.25,182.72Z"/><path class="cls-3" d="M238.22,283l-27.85,39.66C222.42,311.44,232.74,298.44,238.22,283Z"/><path class="cls-1" d="M494.11,65.33c-23.82-23.2-56.64-34.3-88.58-43.52C370.62,11.74,335,3,298.67,1.88c-100.34-3.14-196.28,53.62-258,132.8-8.74,11.22-16.95,23-23.07,35.8A157.28,157.28,0,0,0,7.17,200.31C-1.78,236.38-.27,275.92,16.61,309S67,367.57,104.14,369.7c33.47,1.92,65.47-14.44,92-35,4.89-3.78,9.7-7.79,14.26-12L238.22,283c-5.48,15.41-15.8,28.41-27.85,39.66h0c14.25,19.12,38.54,25.49,62.14,29C354.11,363.78,441,328.41,491,262.79c21.82-28.65,37-63.09,39-99S519.91,90.45,494.11,65.33ZM180,164.7c-7.91,3.53-31.57,47.39-23,72.46,1.55,4.54-15.9,15.07-20.33,13.22-5.78-2.42-7.28-24.46-6.9-26.06,6.17-25.83,14.22-27.59,26.51-41.6C168.77,168.46,183.09,163.3,180,164.7Zm203.46,3.48c-27.64-12.19-54.71-18.44-81.09-17.52l18.54-18.48C354.67,137.5,398.07,146.64,383.42,168.18Z"/><path class="cls-2" d="M495.36,64.08c-25-24-58.56-35.13-91.2-44.5C366.54,8.79,327.87-.33,288.49,0c-65.76.57-129.25,26.56-181.1,66.15a375.07,375.07,0,0,0-69.32,69c-11.5,14.93-21.53,30.74-27.82,48.59a182.6,182.6,0,0,0-10.15,54C-1.09,271.41,7.89,305.84,29.74,332c19.57,23.44,48.56,39.52,79.5,39.61,35.36.11,68.24-18.84,94.65-40.88,3.34-2.79,6.79-5.43,9.29-9l6.53-9.29,16.61-23.64,3.42-4.88-3.21-1.36a87.53,87.53,0,0,1-12.25,22.28,115.43,115.43,0,0,1-8.16,9.64c-2.26,2.41-5.38,4.64-7.27,7.33a1.66,1.66,0,0,0,0,1.77c10.17,13.26,24.86,20.86,40.74,25.25A206.64,206.64,0,0,0,301,355.76a239,239,0,0,0,99.74-20.51c64.83-28.5,120.69-88.47,130-160.6,5.13-39.78-6.5-82-35.4-110.57-1.62-1.59-4.11.9-2.49,2.49,27.65,27.32,39,67.45,34.67,105.58C523.1,211.71,503,248.77,476.2,277.68,427.12,330.57,352.54,358.81,280.73,351c-19.87-2.16-41.59-6.1-58-18.34a55.79,55.79,0,0,1-6.29-5.5c-.7-.7-1.39-1.42-2-2.17-1.61-1.88-1.79-1.44-.46-3.3,3.09-4.32,7.7-7.91,11.05-12.11a93.5,93.5,0,0,0,14.87-26.05c.73-2-2.14-2.88-3.22-1.36l-25.52,36.33a34.64,34.64,0,0,1-6.22,6.74,223.92,223.92,0,0,1-22.23,17.06c-14.51,9.77-30.33,17.93-47.31,22.37-32.26,8.42-65.11,0-90.15-21.81C19.72,320.61,6.19,288.36,3.9,254.93,1.45,219.1,10.25,182.1,30.17,152.12c18-27.1,41-51.42,65.8-72.33C144.49,39,204.61,10,268.26,4.5c36.2-3.15,72.15,2.22,107.23,11,33.06,8.26,68.2,17.08,97.31,35.43a125.6,125.6,0,0,1,20.07,15.66C494.5,68.14,497,65.65,495.36,64.08Z"/><path class="cls-2" d="M179.07,163.18c-3.64,1.82-6.24,6-8.38,9.32a111.84,111.84,0,0,0-9.4,18.15c-5.67,13.61-10.56,30.2-6.64,44.94.87,3.24-.46,4.51-3,6.6a34.78,34.78,0,0,1-10,5.76c-2.69,1-4.48,1.47-6.1-1.23-1.76-2.94-2.39-6.83-3-10.15-1.19-6.75-1.35-11.84.63-18.4,2.29-7.55,5.6-14.5,10.9-20.39,5.79-6.42,12-13,18.28-18.89a74.76,74.76,0,0,1,12.93-9.81c1.6-1,3.68-2.52,5.55-2.9L179.51,163a2.58,2.58,0,0,1-.44.22c-2,.95-.27,4,1.78,3a3.61,3.61,0,0,0,.44-.22,1.77,1.77,0,0,0-1.36-3.22c-5.33,1.09-11.15,6.17-15.2,9.43-7.45,6-13.76,13.5-20.46,20.31-9.94,10.08-17.49,24.6-15.92,39,.64,5.85,1.25,13.82,5.22,18.52,3.73,4.41,9.92,1.21,14-1s11.5-6.41,11.15-11.9c-.23-3.61-1.75-7.13-1.86-10.88a64.1,64.1,0,0,1,1.45-14.68,112.88,112.88,0,0,1,10.7-29.27c2.67-5.09,6.34-13.37,11.8-16.1C182.88,165.2,181.09,162.17,179.07,163.18Z"/><path class="cls-2" d="M384.31,166.66c-25.93-11.31-53.53-18.58-82-17.76l1.24,3,13.32-13.28c1-1,3.68-4.8,5.19-5.17-1.37.34,3.59,1.27,3.95,1.33l4.3.73c3.13.55,6.26,1.13,9.38,1.76,11.75,2.35,55.3,9.79,42.19,30-1.24,1.91,1.81,3.68,3,1.78,14.13-21.8-23.92-30.69-37.87-33.83-7.12-1.6-14.32-2.9-21.52-4.08-4.71-.77-5.26-.89-8.32,2.16l-16.14,16.1a1.77,1.77,0,0,0,1.24,3c27.81-.8,54.85,6.22,80.2,17.28C384.59,170.6,386.38,167.57,384.31,166.66Z"/><path class="cls-2" d="M242.14,291.06c.46-6.33,4.62-7.8,8.3-11.25.49,1.26-.35,2.59-1,3.79a13.42,13.42,0,0,0,.8,13.48,6.33,6.33,0,0,1,1,1.76c.18.65-1.88,3-2.45,3.39C244.4,298.06,241.44,294.31,242.14,291.06Z"/><path class="cls-2" d="M243.9,291.06c.62-5,4.39-7,7.79-10l-3-1.24c.17,2.12-1.72,4.82-2.14,7a15.19,15.19,0,0,0,0,5.42,16.24,16.24,0,0,0,1.91,5.22c1,1.89,1,2-.83,3.56h2.49c-2.67-2.56-6.64-5.83-6.18-9.92.25-2.24-3.27-2.23-3.52,0-.57,5.08,3.89,9.22,7.21,12.41a1.81,1.81,0,0,0,2.49,0c2.36-2,3.61-4,2-6.85-1.71-3-2.72-5.62-2.05-9.13.53-2.79,2.41-4.79,2.17-7.68a1.78,1.78,0,0,0-3-1.25c-4.37,3.9-8,6.32-8.82,12.5C240.1,293.3,243.63,293.28,243.9,291.06Z"/><path class="cls-2" d="M115.45,257.4c19,.43,34-8.46,47.15-21.37,6.89-6.74,13.56-13.58,21.12-19.58,8.08-6.42,16.69-12.12,25.27-17.82,8.24-5.47,16.49-10.94,24.34-17s14.78-13,23.15-18.07c16.77-10.21,37.15-10.84,56.16-9,22.54,2.21,46.89,5.84,67.16,16.44,2,1,3.78-2,1.77-3-17.77-9.3-37.87-12.73-57.53-15.52-18.05-2.57-37.07-4-54.74,1.54-18.68,5.82-31.94,20.85-47.6,31.79-16.31,11.39-33.64,21.48-48.44,34.87-8.1,7.34-15.18,15.85-24,22.41a53.89,53.89,0,0,1-33.84,10.78c-2.27,0-2.27,3.47,0,3.52Z"/><path class="cls-2" d="M336.81,224.78C348,215.86,359,206.72,368.6,196.09c8.31-9.23,17.61-20.9,20.46-33.24,3.13-13.54-10-17.52-20.2-21.21a250,250,0,0,0-46-11.81,253.31,253.31,0,0,0-45.12-3.06c-15.17.34-30.68,1.66-45.16,6.45-13.89,4.59-26.67,11.92-38.84,19.93s-24.4,16.26-35.57,25.6c-11.62,9.72-21.81,21.42-26.89,35.9a51.63,51.63,0,0,0-2.89,22.17c.56,5.5,1.72,12.6,7.36,15.08,2.05.9,3.85-2.13,1.78-3-5.93-2.61-6-13-5.82-18.53a53.16,53.16,0,0,1,5-19.71c5.36-11.69,14.22-21.21,24-29.38,10-8.4,21-15.79,31.89-23.08,11.13-7.47,22.67-14.51,35.17-19.45,24.9-9.84,53.85-9.86,80.16-7.28A247.61,247.61,0,0,1,348.74,139c6.47,1.76,12.88,3.78,19.18,6.06,5.73,2.07,15.52,4.1,17.75,10.63,2.44,7.17-4.28,17-7.95,22.82A115.33,115.33,0,0,1,365,194.81c-9.32,10.12-20,18.9-30.69,27.48-1.77,1.42.73,3.9,2.49,2.49Z"/><path class="cls-2" d="M300.59,152.05l19.7-19.37c1.62-1.59-.87-4.08-2.49-2.49l-19.7,19.37c-1.61,1.59.88,4.08,2.49,2.49Z"/><path class="cls-4" d="M250.77,300.66c2.76,1.44,3.75,9.26,5.92,11.48s5.91,0,6.52-2.8-.88-5.65-2.41-8.11c-4-6.5-8.89-13.12-9-20.77,0-3.48.93-7,0-10.41-.68-2.6-2.38-4.78-3.8-7.06a22.94,22.94,0,0,1-3.74-10.8c-.19-3.85,0-9.77,2.84-12.38-2.22,1.38-2.42,5.73-3.59,8.07-2.43,4.84-4.92,10-4.51,15.4.46,5.86,6.28,15,9.91,19.62"/><path class="cls-2" d="M250.32,301.42c3.63,2.62,2.89,13.29,9.16,12.37,7.36-1.07,4-9.81,1.64-13.7-2.82-4.59-6-9.07-7.56-14.31-1.48-5.08.29-10.07-.68-15.12-.89-4.61-4.49-8.13-6.21-12.44-2-5-2.72-13.41,1.13-17.78a.88.88,0,0,0-1.24-1.25c-2.72,2.36-3.07,6.73-4.54,9.87-2,4.21-4,8.57-3.83,13.32.17,7.6,5.59,15.18,10,21,.68.89,2.21,0,1.52-.88-4-5.2-8.54-11.63-9.62-18.2-.88-5.44,1.6-10.35,3.82-15.13,1.28-2.75,1.51-6.66,3.85-8.69l-1.24-1.25c-3.7,4.2-3.81,11.28-2.6,16.49.92,3.94,3.14,7,5.12,10.48,3,5.24,1.61,9.52,1.91,15.11.42,7.84,5.32,13.87,9.05,20.4a19,19,0,0,1,2.18,4.54q-5.06,7.88-6.43,2.41c-.7-1.37-1-3-1.61-4.38a9.12,9.12,0,0,0-3-4.34c-.92-.66-1.8.87-.89,1.52Z"/><path class="cls-4" d="M7.18,206.91c1.24.76,5.18-3.43,10.52-9.12,6.24-6.65,9.71-9.8,11.09-13,4.48-10.35-.4-23.6,6-32.86,3.6-5.2,9.86-7.69,15.31-10.92a55,55,0,0,0,24.25-30.7C76,105,78.49,98.18,76.62,97.4s-7.2,5-15.08,15.25c-9.77,12.72-10.38,11.22-20.34,24-7.66,9.82-12.58,16.12-17.67,25.91-1.42,2.72-4.42,10.29-10.42,25.43C7.63,201.79,6.06,206.22,7.18,206.91Z"/><path class="cls-2" d="M6.94,207.76c2.12.52,4.18-2,5.53-3.27,4.58-4.39,9-9.14,13.22-13.87,6.44-7.19,5.89-15.73,6.33-24.88.36-7.28,2.17-13.55,8.37-18,4.44-3.2,9.58-5.26,14-8.45a56.11,56.11,0,0,0,19.24-24.36c1-2.35,8.09-18.3,2.29-18.44-1.91,0-4.12,2.62-5.25,3.78a157.34,157.34,0,0,0-10.91,13.23C47.07,129.73,31.5,144,22.4,162.83c-4.16,8.61-7.33,17.77-10.83,26.64-1.83,4.66-4.09,9.44-5.25,14.34-.26,1.11-.8,2.83.23,3.72.86.73,2.11-.51,1.25-1.24-.69-.59.92-4.31,1.13-4.93,1.51-4.44,3.3-8.8,5-13.17,3-7.57,5.85-15.23,9.15-22.68,6.81-15.38,18.61-29,29.9-41.28,6.15-6.69,11.24-14.24,17.32-21,1.36-1.51,5.55-6.92,5.94-3,.2,2.06-1.18,4.88-1.79,6.84a80.83,80.83,0,0,1-3,8.58A54.37,54.37,0,0,1,51,139.48c-6.73,4.26-14.89,7-18.46,14.75-4.37,9.41-.3,20.47-4.44,29.91-1.79,4.07-5.49,7.21-8.51,10.38-2.08,2.18-4.12,4.41-6.23,6.58-.87.89-4.47,5.32-5.94,5A.88.88,0,0,0,6.94,207.76Z"/><path class="cls-4" d="M26.22,231.92a7.79,7.79,0,0,0-2.15-3.38c-1.65-1.45-3.95-1.88-6.14-2.08a21.7,21.7,0,0,0-9.55.92c-3,1.14-4.74.39-5.71,3.46.38,13.61-1.28,29.63,2.18,37.74,5-1.76,10.72-5.42,13.82-9.77a50.06,50.06,0,0,0,6.72-14.48C26.64,240.3,27.6,235.91,26.22,231.92Z"/><path class="cls-2" d="M27,231.48c-2.19-5.2-7-6.13-12.28-6-3.29.06-10.47.69-12.37,4-1.37,2.37-.47,6.32-.49,9,0,3.93-.13,7.86-.12,11.79,0,6.19,0,12.8,2.28,18.67a.89.89,0,0,0,1.08.61c7.19-2.72,13-7.17,16.7-14s7.36-15.9,5.29-23.79a.88.88,0,0,0-1.69.46c2.31,8.86-3.12,21.86-9.26,28.33-1,1-8.54,7.87-10.81,6.86-1.51-.68-1.6-9-1.66-10.11-.43-7.39-.94-15.74,0-23.08.28-2.28.66-4.15,2.72-5.27a20.86,20.86,0,0,1,6.75-1.61c4.86-.44,10.25,0,12.38,5.09C25.9,233.4,27.42,232.51,27,231.48Z"/><path class="cls-4" d="M66.48,294.6c-1-3.81-5.35-5.61-9.24-6.23s-8.14-.71-11.23-3.15c-2.51-2-3.76-5.18-6-7.49-4.69-4.87-12.88-4.71-18.83-1.48s-8.81,7-12.84,12.46c7.9,17.68,17,34,29.39,46.72,3.41,3.55,9.58,3,13.5,0s6.09-7.68,7.89-12.27a155.13,155.13,0,0,0,7-23.2A11.48,11.48,0,0,0,66.48,294.6Z"/><path class="cls-2" d="M67.32,294.37c-1.89-5-6.67-6.36-11.55-7.09-2.71-.41-5.67-.59-8.1-2s-3.59-3.7-5.16-5.84a14.7,14.7,0,0,0-5.83-5.06c-12-5.46-22.59,5.16-29.08,13.9a.87.87,0,0,0,0,.88,207.55,207.55,0,0,0,16.16,30.16,126.07,126.07,0,0,0,9,12c2.6,3,5.16,6.56,9.32,7.32C50,340,55.52,333.4,58.46,327A117.63,117.63,0,0,0,64,311.93c1.64-5.39,4.08-11.64,3.39-17.33-.14-1.11-1.9-1.12-1.76,0,.94,7.74-3.35,17.61-6,24.84-2.54,7-6,16.81-14.75,17.45-7.48.55-13.94-10.35-17.71-15.74a164.13,164.13,0,0,1-11.26-18.77c-1.59-3.07-3.12-6.19-4.59-9.33-2.13-4.57-.83-6.15,2.5-9.81,4.54-5,10.93-9.06,18-8.36,5,.49,7.64,3.22,10.39,7.16a15.21,15.21,0,0,0,4.63,4.75c5.77,3.39,16,.42,18.85,8C66,295.88,67.73,295.43,67.32,294.37Z"/><path class="cls-4" d="M62.5,355.68c-4.43-3.14,7.91-11.66,13.73-14.26,7.94-3.55,10.73-.52,21.22-1.71,15.19-1.72,28.4-10.72,42.49-16.66,2.18-.91,4.55-1.78,6.86-1.26,5,1.12,6.44,8.19,4.06,12.78-1.59,3.05-4.34,5.66-4.68,9.08s1.94,4.31,2.52,8.83a27.42,27.42,0,0,0-1.13,8.55C128.14,371,82.75,370,62.5,355.68Z"/><path class="cls-2" d="M63.12,355.05c-3.93-3.55,12.15-12.38,14.69-13.34,6.46-2.45,13.74-.36,20.48-1.23,7.72-1,15-3.85,22-7.12,3.88-1.8,7.69-3.75,11.54-5.62,4.75-2.31,14.19-8.36,18.18-2.41,4.89,7.27-5.45,12.66-4.74,19.61.27,2.63,2.53,4.81,2.5,7.47,0,1.4-.79,7.41-1.5,8.27-1.29,1.56-6,2.35-7.9,2.87a78.58,78.58,0,0,1-9.71,2,118.64,118.64,0,0,1-21.31,1.11c-15.07-.51-31.75-3-44.44-11.76-.94-.65-1.82.88-.89,1.52,12.41,8.53,28.54,11.19,43.29,11.91,14.09.69,29.81-.17,42.67-6.56a.85.85,0,0,0,.44-.76c0-2.89,1.1-5.76,1.13-8.55,0-3.73-3.28-6.07-2.27-10,1.54-6,7.11-8.88,5.15-15.82-1.26-4.5-4.91-6.46-9.37-5.61-7.87,1.49-15.7,7.06-22.88,10.44-8.71,4.1-17.91,7.59-27.67,7.64-5.85,0-11-1-16.55,1.45C72.7,342,56,351,61.87,356.3,62.71,357.06,64,355.82,63.12,355.05Z"/><path class="cls-4" d="M237.51,234.07c-3.27-5.44-11.63-5.13-17-1.7-10.78,6.93-13.48,21.2-19.91,32.28C193.2,277.43,180,287,176.22,301.32c-1.68,6.36-.11,14.82,6.2,16.71,5.32,1.58,12.34-2.06,16,2.12,2,2.3,1.59,6-.12,8.51-1.38,2-3.25,6-5.29,8.26,21.89-19.07,40-33.69,42.31-49.72,1.4-9.89-.67-24.68,3.74-33.52C241.34,248.85,240.27,238.66,237.51,234.07ZM208.37,282.5a11.69,11.69,0,0,1-2.53,4.76,72.85,72.85,0,0,1-9.36,10c-1.62,1.44-4.19,2.81-5.75,1.29a3.84,3.84,0,0,1-.72-3.39c1.24-7.88,5.53-8.8,9.68-15.62,2-1.49,4.64-3,6.83-1.82A4.47,4.47,0,0,1,208.37,282.5Zm18.88-27a23,23,0,0,1-2.88,5.87,7.86,7.86,0,0,1-5.44,3.31,2.85,2.85,0,0,1-2-.5c-1-.85-.87-2.48-.49-3.78a25.8,25.8,0,0,1,8-12.34h2.1c1.15-.66,1.07,2.28,1.4,3.57A6.59,6.59,0,0,1,227.25,255.5Z"/><path class="cls-2" d="M238.27,233.63c-7.44-10.45-21-1.67-26.26,6.11-4.07,6-6.42,12.89-9.5,19.36-3.41,7.16-8.17,13.18-13.22,19.24-7.33,8.8-17.69,20.83-13.81,33.25,1.41,4.52,4.75,7.41,9.5,7.72,4.14.28,11.94-2.56,13.72,3.33,1.2,3.95-4,10.74-6.34,13.65a.88.88,0,0,0,1.25,1.25c9.68-8.42,19.71-16.62,28.51-26,6-6.36,11.88-13.73,13.73-22.47,2.15-10.16-.26-20.84,2.5-30.94,1.17-4.31,2.9-7.64,2.81-12.26a27,27,0,0,0-2.89-12.24c-.54-1-2.06-.11-1.52.89a25.4,25.4,0,0,1,2.39,15.72c-.73,4.17-2.82,7.88-3.4,12.19-1.22,9,.35,18.42-1.84,27.26s-8.85,16.4-15.15,22.81c-8.3,8.45-17.46,16-26.39,23.79l1.25,1.25c4.08-5.08,12.62-18.69.62-20.29-3.08-.41-6.17.54-9.25.3-4.94-.37-7.6-4.13-8.29-8.78-1.07-7.24,2.64-14.24,6.64-20s8.69-10.67,12.88-16.12A78.81,78.81,0,0,0,205.83,256c2.5-5.64,4.8-11.51,8.5-16.51,4.62-6.24,16.23-13.68,22.42-5C237.4,235.43,238.93,234.55,238.27,233.63Z"/><path class="cls-2" d="M207.52,282.26c-1.3,4.38-5.18,8.09-8.34,11.26-1.18,1.2-3.32,4-5,4.32-5.44,1.21-2.39-6.13-1.83-7.23,1.25-2.47,3.31-4.33,5.06-6.42.82-1,1.5-2.06,2.32-3a6.08,6.08,0,0,1,2.59-2.23q6-.19,5.18,3.57c-.1,1.13,1.67,1.12,1.76,0,.48-5.8-4.61-7.28-8.95-4.43-2.58,1.69-4.16,4.88-6.21,7.2a19.54,19.54,0,0,0-4.19,6.63c-1.28,3.78-.92,10,4.64,7.68,3.34-1.4,6.16-5,8.5-7.59s5.11-5.65,6.18-9.26A.88.88,0,0,0,207.52,282.26Z"/><path class="cls-2" d="M226.4,255.26c-1.14,3-4,10.15-8.09,7.61-1.6-1-1.35-1.13-.89-2.75a20.59,20.59,0,0,1,.9-2.37,25.1,25.1,0,0,1,2.53-4.53c.88-1.26,3.34-5.28,5.4-4.28,1.28.62.62,5,.15,6.32-.38,1.07,1.32,1.53,1.7.47.73-2,1.59-7.91-1.37-8.62-4.34-1-7.74,5.31-9.31,8.4-1.32,2.61-4.32,9,.44,10,5.58,1.14,8.71-5.76,10.24-9.77C228.5,254.67,226.8,254.21,226.4,255.26Z"/><path class="cls-2" d="M226.47,247.18c-2,0-2.44-.08-3.9,1.34a26.2,26.2,0,0,0-5.39,7.47c-1.41,2.92-4,9.77,1.75,9.57,5.26-.18,7.91-6.08,9.34-10.3.54-1.59,1.27-8.83-2-8-1.1.26-.63,2,.47,1.7-.27.06.18,2,.21,2.4a10.21,10.21,0,0,1-.9,5,16.06,16.06,0,0,1-2.87,5.18c-1.43,1.53-5.91,4.11-6-.13-.07-2.92,2.58-6.66,4.29-8.88.74-1,1.86-2.7,3-3.29a4.31,4.31,0,0,1,2.08-.23A.88.88,0,0,0,226.47,247.18Z"/><path class="cls-4" d="M278.77,191.75q-2.49-5.77-5.29-11.41c-.58-1.18-1.46-2.53-2.77-2.48a3.46,3.46,0,0,0-2,1.11,68.06,68.06,0,0,0-21,38.16c-.49,2.72-.79,5.61.23,8.19s5.49,7.1,8.2,6.51l22.7-21.24C280.66,206.58,280.52,195.83,278.77,191.75ZM269,209.23c-1.63,3.94-4.56,8.2-8.82,8.18l-2.82-.33c-.79-8.59,4-16.61,8.56-23.92.57-.92,1.46-2,2.49-1.65a2.3,2.3,0,0,1,1.17,1.15C272.46,197.64,271.22,203.94,269,209.23Z"/><path class="cls-2" d="M279.53,191.31c-1.55-3.57-3.1-7.16-4.89-10.61-.82-1.57-1.8-3.73-3.93-3.72-1.76,0-3.29,1.93-4.39,3a67.45,67.45,0,0,0-6.43,7.29,69.73,69.73,0,0,0-10,18.17c-2,5.5-4.94,13.42-3.11,19.32,1,3.11,4.6,7.76,8.18,8,1.89.1,2.57-1.06,3.9-2.29l17.62-16.5c2.15-2,3.28-2.8,3.94-5.78a31.18,31.18,0,0,0-.81-16.62c-.39-1.05-2.09-.6-1.69.47,1.68,4.51,2.35,12.06.58,16.69-.76,2-2.19,3-3.78,4.48l-16.64,15.57c-3,2.83-3.9,3-7.47-.92-5.2-5.78-1.2-16.25,1.25-22.64a67.18,67.18,0,0,1,11.91-19.91c2.17-2.5,5.28-7.75,9-4.48,1.08.95,1.71,3.49,2.35,4.86,1,2.17,2,4.36,2.94,6.56C278.46,193.23,280,192.34,279.53,191.31Z"/><path class="cls-2" d="M268.28,208.79c-1.44,3.24-4.56,9-9,7.62-1.82-.57-1.45-.26-1-2.73a42.16,42.16,0,0,1,1.94-8c.81-2.09,5.47-13.81,8.67-12.56,2.26.88,1.5,8.09,1.19,9.83a33.14,33.14,0,0,1-1.86,6.06c-.41,1.06,1.29,1.51,1.7.47,1.72-4.45,3.06-9.46,1.74-14.21-.55-2-1.7-5.32-4.39-4.51-3.21,1-6,8.4-7.26,11.07a31.1,31.1,0,0,0-3.46,15.26.89.89,0,0,0,.88.88c6.4.74,9.83-2.5,12.4-8.28C270.25,208.65,268.74,207.75,268.28,208.79Z"/><path class="cls-4" d="M217.59,202.73c-5.56-1.81-11.31,1.71-16.1,5.06L179,223.57s-10.17,17.78-14.48,27.26c-2.48,5.46-4.43,12.71,0,16.79,3.31,3.07,8.69,2.51,12.67.4,5.6-3,9.53-8.34,12.44-14,2.65-5.11,4.74-10.75,9-14.65,2.89-2.66,6.55-4.29,10-6.08,6.09-3.1,12.21-7.14,15-13.4S224.09,204.85,217.59,202.73Zm-17.76,15.54c-5.37,9.76-14.51,16.77-23.4,23.49l-1.42.51a46.11,46.11,0,0,1,17.64-24.83c2-1.42,4.69-2.68,6.78-1.4a1.55,1.55,0,0,1,.75.9A1.91,1.91,0,0,1,199.83,218.27Z"/><path class="cls-2" d="M217.82,201.89c-7.69-1.86-14,3.22-20,7.4l-12.87,9c-2.22,1.55-5.18,3-6.88,5-2.9,3.55-4.86,8.65-7,12.66-3,5.59-6.31,11.25-8.51,17.23-1.9,5.19-2.93,12.21,2.33,15.83,4.72,3.25,11.14,1.09,15.35-1.95,6.31-4.57,9.48-11.56,12.89-18.29,2.28-4.5,4.88-8.38,9.22-11.16,3.79-2.44,8.05-4,11.84-6.5,5.43-3.5,10.66-8.59,11.33-15.35.58-5.92-2-11.66-7.67-13.92-1-.43-1.51,1.28-.47,1.69,10.23,4.1,6.64,16.92.44,22.64-5.49,5.07-12.85,6.9-18.61,11.47-6,4.79-8.12,12.33-11.94,18.7-2.34,3.9-5.3,7.65-9.22,10.08-5,3.13-12.83,3.93-14.86-3s3.22-14.79,6.3-20.72c2.67-5.12,5.46-10.19,8.29-15.23s8.08-7.66,12.91-11.05c7.2-5,17.25-15.13,26.69-12.86C218.45,203.85,218.92,202.15,217.82,201.89Z"/><path class="cls-2" d="M199.07,217.82a56.9,56.9,0,0,1-11.42,13.79c-3.68,3.33-8.19,8.13-12.87,9.81l1.08,1.09a46.65,46.65,0,0,1,7.49-14.86,45.85,45.85,0,0,1,5.11-5.68c.75-.7,1.53-1.39,2.33-2a22.75,22.75,0,0,1,2.94-2.14c1.5-1.14,3.29-1.13,5.34,0-.46,1,1.05,1.92,1.52.89.69-1.49.59-2.55-.93-3.51-3.13-2-7.21,1.21-9.5,3a47.76,47.76,0,0,0-16,23.83.89.89,0,0,0,1.08,1.08c4.54-1.63,8.89-6.09,12.46-9.21a60.19,60.19,0,0,0,12.89-15.2A.88.88,0,0,0,199.07,217.82Z"/><path class="cls-4" d="M225.5,186.39c.54-1.77,4.74.46,6.52,1,3.5,1,7,2.3,10.67,1.95,3.85-.37,7.28-2.54,10.28-5a20.33,20.33,0,0,0,4.55-4.8c2.66-4.22,1-13.47-1.93-17.48"/><path class="cls-2" d="M226.26,186.83c.7-.93,6.33,1.62,7.28,1.9a26.46,26.46,0,0,0,8.25,1.49c5-.14,9.46-3.06,13.07-6.33,6.41-5.79,6.12-15.27,1.49-22.26-.62-.94-2.15-.06-1.52.89,2.48,3.74,3.88,9.27,2.95,13.75-1.16,5.58-8.35,10.73-13.7,11.94s-10.2-1.43-15-2.86c-1.67-.5-3.16-.93-4.3.59-.68.91.85,1.79,1.52.89Z"/><path class="cls-4" d="M304.84,174.4c-1.34-1.56-3.47-2.12-5.46-2.6l-5.06-1.21c-3.8-.92-8.34-1.65-11.16,1.06s-2.21,7.57-1.28,11.51q1.92,8.16,3.85,16.33c.25,1.07,1,2.44,2.06,2l15.38-9.11c-.68-3.06.83-6.12,1.95-9S306.88,176.78,304.84,174.4Zm-9.75,13.2a4.94,4.94,0,0,1-6.4.1,5,5,0,0,1-.86-6.37c1-1.53,3.44-2.32,4.66-.94C294,182.19,296.79,186,295.09,187.6Z"/><path class="cls-2" d="M305.46,173.78c-3.29-2.88-8.17-3.57-12.36-4.37-3.47-.66-7.55-1.12-10.39,1.48-5.83,5.33-.55,17.29.89,23.39,1.21,5.14,1.49,9.83,6.89,6.64l13.13-7.77a.85.85,0,0,0,.43-.76c-.72-6.39,5.59-12.31,1.55-18.44-.62-.94-2.15-.06-1.52.89,3.42,5.19-1.56,9.2-1.81,14.26-.14,2.94.79,1.8-.93,3.35-3.06,2.76-7.87,4.66-11.43,6.77-2,1.18-2,2.05-3.33,0-1.1-1.69-1.25-5.27-1.71-7.25q-.87-3.63-1.72-7.26c-1.26-5.45-3-13.45,5.22-14.1,4.2-.33,12.66,1.59,15.85,4.38C305.07,175.76,306.32,174.52,305.46,173.78Z"/><path class="cls-2" d="M294.46,187a4,4,0,0,1-5.43-.16,4.08,4.08,0,0,1-.11-5.43,2.43,2.43,0,0,1,2.58-.67,6.37,6.37,0,0,1,1.66,2c.62.91,2.28,3.17,1.3,4.25-.75.84.49,2.09,1.25,1.25,1.9-2.1-.11-5.16-1.45-7-.77-1-1.49-2.12-2.84-2.37a4.37,4.37,0,0,0-3.74,1.28,5.7,5.7,0,0,0,8,8.08C296.57,187.48,295.32,186.24,294.46,187Z"/><path class="cls-4" d="M265.77,158.63c-.19,3,15.67,10.56,27.84,5.84,4.69-1.83,8.49-5.42,14.46-4.51,2.88.44,5.31,2.27,7.88,3.64,11.11,5.91,24.68,3.18,37.09,5.23,22.64,3.75,25.59,1.26,25.7.6.34-2-24.12-7.71-38.58-10.61-15.14-3-24.89-4.94-38.1-5.17C287.27,153.4,266,155.22,265.77,158.63Z"/><path class="cls-2" d="M264.89,158.63c.63,5,10.7,7.1,14.45,7.74a29.43,29.43,0,0,0,11.75-.2c5.3-1.28,9.78-5.64,15.4-5.47,5.46.17,10.65,4.94,16,6.32s11,1.54,16.49,1.7c10.75.31,21.26,2.8,32,3,1.76,0,6.94.53,8.21-1.39,1.59-2.39-2.92-3.45-4.47-4-8.27-2.87-17-4.66-25.54-6.52-10.26-2.25-20.61-4.44-31-5.83a162.45,162.45,0,0,0-35.61-.52c-3.51.31-16.44.19-17.62,4.93a.88.88,0,0,0,1.7.47c.45-1.84,5.77-2.3,7.2-2.55A115.27,115.27,0,0,1,286.13,155a165.75,165.75,0,0,1,26.08.13c17.22,1.57,34.55,5.64,51.29,9.9,1.31.33,14.37,4.31,14.45,4.11-.64,1.62-7.7.86-8.88.8-8.7-.44-17.2-2.47-25.92-2.81-10.43-.4-19.92-.53-29.3-5.69-3.35-1.85-6.6-3-10.48-2.14-4.07.86-7.41,3.61-11.36,4.84-5.19,1.62-10.94,1.17-16.11-.31-1.91-.55-8.91-2.46-9.25-5.15C266.51,157.52,264.74,157.51,264.89,158.63Z"/><path class="cls-4" d="M364.9,178.39a5.82,5.82,0,0,0-2.59-2.94,35.51,35.51,0,0,0-27.77-5.16c-3.78.9-7.58,2.55-10,5.6s-3,7.77-.55,10.8c2.05,2.52,5.58,3.29,8.83,3.38l21.8.35a6.66,6.66,0,0,0,5.93-2.13,19.85,19.85,0,0,0,3.44-5.56C364.65,181.37,365.31,179.84,364.9,178.39Zm-15.24,7.13c-3.05.59-6.17,1.19-9.23.66s-6.09-2.42-7-5.38a1.6,1.6,0,0,1,.24-1.73,1.68,1.68,0,0,1,1-.27c2-.12,4.49-.33,4.49-.33l11.38,2.63c.94.22,2,.56,2.34,1.46C353.39,184.12,351.28,185.2,349.66,185.52Z"/><path class="cls-2" d="M365.66,177.94c-2.49-4.91-9.86-7.3-14.89-8.47a34.57,34.57,0,0,0-19.28.8c-4.87,1.75-9.42,5.28-9.88,10.8a8.48,8.48,0,0,0,6.13,9.05c6.59,2.24,15.28,1,22.1,1.11,2.76,0,6.27.62,8.82-.53,4.07-1.85,7.4-8,7.12-12.31-.08-1.13-1.84-1.14-1.76,0,.36,5.48-4.53,11.14-9.76,11.15-1.61,0-3.23,0-4.85-.08-5-.08-10-.13-15-.25-2.28-.05-4.65,0-6.75-1-4.77-2.31-5.29-7.68-2.38-11.68,1.92-2.63,5-4.06,8-5a33.28,33.28,0,0,1,15.37-.67c4.84.89,13,3.17,15.41,8C364.65,179.84,366.17,179,365.66,177.94Z"/><path class="cls-2" d="M349.43,184.67c-3.17.61-6.6,1.32-9.78.44a8.88,8.88,0,0,1-4.07-2.34c-2.41-2.62-.76-2.89,1.48-3.26,2.49-.41,5.1.57,7.51,1.12l3.55.82,2.14.5c.81,1.74.53,2.65-.83,2.72a.88.88,0,0,0,.47,1.7c2.23-.59,5.71-3,2.83-5.3-2.16-1.75-6.49-1.86-9.12-2.47a21.38,21.38,0,0,0-8.37-.72c-4.14.52-3,4.18-.53,6.48,4.14,3.91,10.11,3,15.19,2C351,186.16,350.54,184.46,349.43,184.67Z"/><path class="cls-4" d="M270.81,223c1.89,4,16.76.57,18.51.16,5.43-1.27,12.59-2.38,15.72-8.2,1.58-2.95,1.94-6.57,4.1-9.14,3.89-4.62,11.08-3.5,17.1-3a55,55,0,0,0,38-11.07c4.67-3.59,7.27-8.44,6.68-9.09-.8-.87-7.11,6.13-16.88,9-8.56,2.54-12.59-.2-22.6-.65-17.93-.8-31.86,6.79-37.77,10C281.88,207.54,268.84,218.76,270.81,223Z"/><path class="cls-2" d="M270.06,223.47c2.56,4,10.05,2.29,13.85,1.68,6-1,13.25-1.93,18.22-5.6,3.22-2.37,4.23-5.47,5.6-9.05,3.08-8.07,9.92-7.49,17.1-6.87a57.86,57.86,0,0,0,28.73-4.48,48.12,48.12,0,0,0,12.53-7.72c1.78-1.58,5.86-5.25,5.73-8-.2-4.12-5.57,1-6.89,1.92a37.5,37.5,0,0,1-13.41,6.09c-5.1,1-9.95-.17-15-.8a64.79,64.79,0,0,0-30,3.53,92.87,92.87,0,0,0-24.08,13.1c-3.79,2.85-14.38,9.91-12.49,16,.33,1.07,2,.61,1.69-.47-.93-3,3.17-6.51,5-8.34A75.48,75.48,0,0,1,288,205.58a93,93,0,0,1,17.21-9,64.69,64.69,0,0,1,26.26-4.6c7.15.32,14.14,2.72,21.28,1a41.2,41.2,0,0,0,17.16-9c1-.88.42-.67-.29.35a32,32,0,0,1-3.64,4.75,43.86,43.86,0,0,1-12.54,8.16,56.31,56.31,0,0,1-28.58,4.57c-5.5-.49-12.51-1.32-16.45,3.53-3,3.66-2.8,8.85-6.47,12.1-3.46,3.06-8.46,3.86-12.82,4.84-3.64.81-15,4.21-17.52.24C271,221.63,269.44,222.51,270.06,223.47Z"/><path class="cls-4" d="M323.07,227.93c-3.2.88-6.76-1.16-8.11-4.19a10.1,10.1,0,0,1,1.12-9.47,8.44,8.44,0,0,1,3-2.88c2.85-1.46,6.38-.51,9.14,1.12s5.16,3.87,8.06,5.23a2.25,2.25,0,0,0,1.61.26c.67-.24,1-1,1.2-1.67a15.51,15.51,0,0,1,4.55-7.09c2.23-1.77,5.45-2.51,8-1.23"/><path class="cls-2" d="M322.83,227.08c-11.16,1.81-9.5-18.57,2.22-15.06,4.17,1.25,6.93,5.41,11,6.57,1.68.47,2.1.37,3.36-.82s1.37-3.51,2.24-4.88c2.18-3.44,5.66-5.51,9.75-4,1.07.38,1.53-1.32.47-1.7a8.7,8.7,0,0,0-7.48.53c-3.07,1.7-3.41,4.54-5.55,6.87-3.54,3.86-7-1.05-10.17-2.81-2.49-1.39-5.48-2.47-8.35-1.74-10.33,2.61-8.6,20.64,2.95,18.77,1.12-.18.64-1.88-.47-1.7Z"/><path class="cls-4" d="M299.56,295.22c-2.57.24-4.68,2.24-6,4.47s-4.07,2.42-5.14,4.77-.6,7-3,7.93-7.29,2.43-8.1,0c-2.14-5,1.83-10.49,6.1-13.87s9.44-6.47,10.94-11.7c.9-3.12.64-7.16,3.46-8.77,1.1-.63,2.5-.74,3.39-1.64a5.33,5.33,0,0,0,1.12-2.9c2-10.76,8.18-20.22,14.21-29.36,1-1.58,2.6-3.38,4.43-2.9a4,4,0,0,1,1.64,1,13.78,13.78,0,0,1,3.55,13.87c-1.16,3.64-3.8,6.59-6.36,9.43-4.15,4.58-10.45,12.35-14.6,16.93"/><path class="cls-2" d="M299.32,294.37a9.35,9.35,0,0,0-5.64,3.61c-1.59,1.95-3.81,3.1-5.32,5-1.35,1.72-1.08,3.76-1.75,5.71-1.8,5.22-10.6,5.33-8.59-1.65s10-9.8,14.45-15.05a14.48,14.48,0,0,0,3.07-6.2c.3-1.23.36-2.53.72-3.75.82-2.83,3-2.81,4.92-4.59a6.07,6.07,0,0,0,2-3.77A65.57,65.57,0,0,1,307.57,261a99.65,99.65,0,0,1,5.06-9.09c1.9-3.07,6.84-13.11,11-7.07,5.75,8.31-.67,15.83-6.08,22-4.37,5-8.53,10.14-12.95,15.08-.75.84.49,2.09,1.24,1.24,4.57-5.09,8.86-10.42,13.38-15.56,4-4.5,8.45-9.05,8.45-15.46,0-3.79-2.07-10.37-6.23-11.63-4.67-1.41-8.12,6.94-9.89,9.78-4.15,6.65-7.88,13.64-9.69,21.32-.56,2.37-1,3.64-3.19,5.15a14.31,14.31,0,0,0-2.37,1.4c-1.78,1.75-1.8,4.36-2.36,6.62-2,8.16-9.43,10.43-14.43,16.32-2.36,2.78-5.72,9-2.52,12.44,2.12,2.25,8,.88,9.91-1.08,2.12-2.16,1.4-5.81,3.26-8.17,1.09-1.39,2.48-2.17,3.66-3.44,2-2.15,2.79-4.07,6-4.73,1.11-.23.64-1.93-.47-1.7Z"/><path class="cls-4" d="M249,336.18c-.44-3.14,10.85-7.41,14.79-7.44,5.86-.05,6.59,4,10.84,3.77,5.17-.31,7.71-6.47,12.14-9.17,1.47-.9,3.16-1.41,4.56-2.42,2.17-1.57,3.37-4.12,4.47-6.56L305,294c1.93-4.29,3.95-8.7,7.36-11.93,2.41-2.29,5.4-3.87,8-6,9.66-8,8.65-22.52,10.14-22.37,1,.1,2.5,6.94.47,14.34-2.28,8.32-8.2,14.41-13.13,19.48-3.17,3.27-6.21,5.81-8.93,10.65a20.59,20.59,0,0,0-2.8,8.93,22.8,22.8,0,0,0,.22,4.09c.52,5.61-2.06,10.47-4,14.1-1.65,3.11-5.18,9.55-12.49,13.45a21,21,0,0,1-7,2.48c-.83.13-6.55,1-11.09-1.08a5.27,5.27,0,0,0-1.61-.54c-2.38-.33-3.73,1.41-5.81,2.26-2.59,1.07-5.1.25-9.15-1.07S249.24,337.91,249,336.18Z"/><path class="cls-2" d="M249.88,336.18c.15-3.05,7.66-5.15,9.85-5.79a11.75,11.75,0,0,1,6.56-.47c2,.55,3.24,2,5,2.77,6.33,2.85,10.07-3.76,14.14-7.27,3.15-2.71,6.92-3.36,9.27-7,3-4.69,4.9-10.42,7.18-15.48,2.13-4.72,4-9.63,6.57-14.16,3.08-5.54,7.82-8.12,12.44-12.07,5.37-4.61,7.77-11.2,9.06-18a14.15,14.15,0,0,1,.65-3.5c.41-.78-.34-.13-.26,0,.46.48.5,2.34.56,3a28.34,28.34,0,0,1-4.64,17.95c-5.11,8-13.58,13.35-18.21,21.65a21.36,21.36,0,0,0-2.93,11,29.09,29.09,0,0,1-3.63,16.1c-4.46,8.29-11.77,15.41-21.68,15.77-4.21.15-8.44-2.89-12.45-1.46-2.62.94-4.49,2.63-7.53,2.09s-9-1.93-10-5.31a.88.88,0,0,0-1.7.47c1,3.33,4.59,4.51,7.58,5.49a17.92,17.92,0,0,0,6.32,1.33c2.62-.15,4.5-1.82,7.08-2.1,4.39-.47,8.6,1.67,13.28,1a24.44,24.44,0,0,0,11.17-4.8c6.59-4.92,12.6-14.4,13.5-22.66a43.72,43.72,0,0,0-.17-5.95,20.4,20.4,0,0,1,3.61-11.67c3.43-5.3,8.53-9.29,12.65-14,6.25-7.19,11.85-17.57,9.13-27.47-1.46-5.33-3.3-1.21-3.86,1.83a38.55,38.55,0,0,1-3.9,12.13c-3.36,5.91-9.51,8.18-13.91,13-3.7,4.07-5.71,9.44-7.94,14.38-2.89,6.4-5.37,13.29-8.82,19.4-2.11,3.75-5.33,4.58-8.54,6.91-2.08,1.5-3.56,3.62-5.4,5.37-3,2.84-5.55,3.71-9.28,1.58-1.83-1-3.22-2-5.39-2.27-4.34-.53-16.87,2.63-17.14,8.24C248.06,337.31,249.82,337.31,249.88,336.18Z"/><path class="cls-4" d="M213.57,321c1.16-1,2.94-2.12,4.12-1.1.51.44,3.13,1.12,3.29,1.77.58,2.44-1.28,7.77-.69,10.21"/><path class="cls-2" d="M214.19,321.58c1.2-1,1.83-1.35,3.3-.8.34.12.68.3,1,.44,1.78.77,1.79,1.65,1.56,3.49-.32,2.43-1.05,4.91-.62,7.36.19,1.12,1.89.64,1.69-.46-.37-2.18.38-4.52.66-6.67.16-1.21.56-3.11-.33-4.15-.73-.86-2.85-1.63-3.87-2-1.74-.64-3.35.47-4.64,1.55-.87.73.38,2,1.24,1.24Z"/><path class="cls-4" d="M135.71,281.33c-4.67-2-10.2-1.11-14.62,1.36-2.79,1.56-5.21,3.69-7.92,5.38-9.69,6-22.78,6.17-30.85,14.25a38.88,38.88,0,0,0-6.48,9.7c-1.29,2.43-2.58,5.07-2.26,7.81.45,3.83,4,6.68,7.82,7.51a16.27,16.27,0,0,1,6.39,3.07A88,88,0,0,0,133,315a16.1,16.1,0,0,0,5.24-5.11c1.78-3.18,1.44-7.11,2.5-10.6.6-2,1.64-3.81,2.05-5.84C143.74,288.51,140.37,283.31,135.71,281.33Z"/><path class="cls-2" d="M135.94,280.48c-5.72-2.05-11.57-.92-16.66,2.27-3.07,1.93-5.79,4.3-9,5.95A74.13,74.13,0,0,1,99,292.91c-5.51,1.77-11.18,3.62-15.7,7.37-4.68,3.9-9.94,11.5-10.55,17.68-.41,4.23,2.28,7.67,6,9.39,1.66.76,3.48,1.06,5.17,1.79,1.06.46,2.23,1.54,3.28,1.89,2.15.71,5.24-.08,7.5-.38,14.22-1.86,29.43-7.21,40.71-16.32a13.09,13.09,0,0,0,4.92-7.82c.45-2.05.54-4.16,1.07-6.19s1.52-3.85,2-5.86c1.51-5.9-2-11.3-7.24-13.89-1-.5-1.9,1-.89,1.52,4.91,2.45,7.85,7.11,6.23,12.65a74.13,74.13,0,0,0-2.51,9,14.55,14.55,0,0,1-6.47,10.55,79.11,79.11,0,0,1-9.62,5.75,87.27,87.27,0,0,1-21.67,7.73c-3.55.76-8.71,2.31-12.34,1.79-1.49-.21-2.81-1.42-4.33-2.08-3.69-1.59-8.48-2-9.86-6.63-1.29-4.26,2.56-10,4.8-13.47,4.32-6.66,10.58-9.67,17.88-12.08,5.53-1.83,11.25-3.35,16.25-6.45,7.07-4.39,12.88-9.87,21.85-6.65C136.54,282.56,137,280.86,135.94,280.48Z"/><path class="cls-4" d="M277.65,341.52c1-.54,1.59.29,2.48.71a3.52,3.52,0,0,1,1.34,1.08,2.4,2.4,0,0,1,.3.6c.27.85,2.61,8.15.11,8.95-4.6,1.48-28-3.17-38-8.3-7.09-3.62-5.43-8.87-5.31-9.61.52-3.18,8.56-10.77,7.43-7.15C244.19,333.69,257.82,352.17,277.65,341.52Z"/><path class="cls-2" d="M277.88,342.37c2.71-.45,3.6,3.31,4,5.26s.73,3.84-1.48,4.59a7,7,0,0,1-2.19,0,83.52,83.52,0,0,1-16.89-2.77c-8.16-2-29.44-7-19.1-18.59.74-.83,1.56-1.54,2.36-2.31,1.68-1.62.45-.77.53-.54.29.88,0,2.27.27,3.28a18.84,18.84,0,0,0,5.81,8.63c7.78,7,18,6.89,26.94,2.35,1-.51.12-2-.89-1.52-6.81,3.44-14.49,4.42-21.31.45-3.8-2.22-8.28-6.39-9-11-.27-1.71,1-4.09-1.43-4.19s-6.25,5.28-7.15,7.2c-3.74,8,5.11,12.47,11.34,14.69a119,119,0,0,0,18.19,4.75c4,.73,9.06,2,13.12,1.27,6.09-1.17,2.52-14.27-3.54-13.25C276.3,340.86,276.77,342.56,277.88,342.37Z"/><path class="cls-4" d="M316.88,350.83c-1.35-.84-8-5.16-7.9-11.11.09-6.64,8.31-11.62,11.76-12.92,5.76-2.16,12.05-2.67,17.79-4.92,6-2.34,11.87-6.62,18.18-5.39a17.72,17.72,0,0,1,8.12,4.54c1.52,1.34,3,2.92,3.4,4.91a10.44,10.44,0,0,1-.42,4.39c-1.35,5.59-2.44,8.28-3.59,10.09-1.9,3-5.08,5.34-13.93,8.1C335.83,353,325.58,356.2,316.88,350.83Z"/><path class="cls-2" d="M317.33,350.07c-4.59-2.9-9.11-7.76-6.65-13.53,2.12-5,7.73-8.17,12.68-9.68,5.7-1.75,11.6-2.48,17.11-4.84,7.29-3.12,13.89-7.31,21.45-2.2a11.18,11.18,0,0,1,4.46,5.24c1.31,2.89.74,4.62-.07,7.58a28.09,28.09,0,0,1-2.47,6.7c-2.27,3.91-6.44,5.76-10.54,7.25-10.64,3.87-25.24,9.63-36,3.48a.88.88,0,0,0-.89,1.52c10.6,6.07,23.4,1.19,34.08-2.22,4.41-1.41,9.37-2.95,12.72-6.33,2.83-2.85,4-6.94,5-10.71,1.5-5.74.78-9.12-4-12.94-4.4-3.52-9.24-4.82-14.72-3.19a68.59,68.59,0,0,0-8.46,3.63,65.4,65.4,0,0,1-12.48,3.88c-5.32,1.23-10.25,2.58-14.57,6.05-8.7,7-6.38,16.25,2.42,21.83C317.4,352.19,318.28,350.67,317.33,350.07Z"/><path class="cls-4" d="M307.79,314.29c2.29,1,4.48-5,10.92-6.29,5.33-1,6.65,2.38,13.6,2.59,5.36.16,10.52-2.28,14.75-5.59,3-2.33,5.71-5.26,6.84-8.88,1.53-4.91-.13-10.37-3.14-14.54s-7.23-7.28-11.41-10.28c-2.77-2-5.07-3.41-6.12-5.78-.77-1.74-.42-3.49-.6-3.5s0,4.61-1.19,9.15c-1.32,5.05-4,8.35-7.42,12.48-2.77,3.37-3.19,3.14-9.8,10.23-4.87,5.22-5.74,6.52-6.45,8.18C305.67,306.93,305.6,313.3,307.79,314.29Z"/><path class="cls-2" d="M307.55,315.14c1.77.42,2.84-.8,4.09-1.87,4.12-3.53,7.57-5.52,13-3.59,8.37,2.94,15.86,1.53,22.92-4,6.52-5.09,9.63-12.34,6.31-20.3-1.77-4.25-5-7.65-8.44-10.57-4.54-3.81-11.12-6.25-11.95-12.81a.89.89,0,0,0-1.73-.23c-1.08,2.66-.41,6.32-1.19,9.15-1.15,4.22-3.49,7.51-6.2,10.87-2.92,3.63-6.35,6.75-9.55,10.12s-6.91,6.75-8.44,11.25c-1.15,3.37-2.43,9.38.94,11.87.91.67,1.79-.86.89-1.52-2.62-1.93-.81-8.31.18-10.68a17.86,17.86,0,0,1,3.26-4.86c3.31-3.82,6.93-7.31,10.45-10.92A49.44,49.44,0,0,0,330,277a24.05,24.05,0,0,0,2.68-7.29c.45-2.29,0-5.37.8-7.45l-1.72-.24c1,7.61,7.69,10,13.12,14.61,4.15,3.55,7.73,8,8.51,13.57.91,6.45-3,11.47-8.06,15-4.58,3.22-10.19,5.29-15.83,4.19-2.55-.5-4.82-1.94-7.39-2.34a11.76,11.76,0,0,0-7.92,1.84c-1.41.88-4.58,4.92-6.16,4.54C306.92,313.17,306.45,314.87,307.55,315.14Z"/><path class="cls-4" d="M339.32,220.64c-6.19,4.16,11.86,6.37,20.16,19.66,6.63,10.63,8.42,26.16,8.6,27.2.79,4.8,1.39,9.7,3.3,14.17s5.41,8.55,10.1,9.83c7.7,2.11,15.11-3.71,21-9.11l16.36-15.05a29.29,29.29,0,0,1,6.12-4.71c1.88-1,4-1.56,5.7-2.77a11.72,11.72,0,0,0,4.56-8.28c.75-6.36-2.62-12.65-7.31-17s-10.61-7.13-16.42-9.83c-17.49-8.13-21.88-11.28-36.32-16.89-8.93-3.47-11.64-5.3-13.73-3.75C354.79,209,343.42,217.89,339.32,220.64Z"/><path class="cls-2" d="M338.87,219.88c-3.86,2.88.31,5.39,3.05,7,3.74,2.22,7.54,4.29,10.87,7.13,4.95,4.24,8,9.74,10.21,15.8,3,8.22,3.67,16.67,5.46,25.13,1.88,8.84,7.33,18.84,17.83,17.79,5-.5,9.33-3.45,13.1-6.5,5.57-4.51,10.69-9.65,16-14.5,2.12-2,4.18-4,6.41-5.84,2.89-2.37,6.35-3.15,9.32-5.27a13.11,13.11,0,0,0,5.1-10.63c.16-10.48-8.61-18-17-22.49-9.81-5.26-20.12-9.91-30.19-14.68-5-2.37-10.13-4.43-15.27-6.49-3-1.19-7.66-4.24-11.12-3.62-3.93.71-8.21,5.63-11.28,8-4.1,3.11-8.16,6.29-12.41,9.2-.93.63-.05,2.16.89,1.52,6.39-4.37,12.45-9.26,18.62-13.93,2.77-2.09,4-3.53,7.53-2.38,4.24,1.4,8.39,3.32,12.53,5,7.47,3.05,14.64,6.72,21.89,10.28,9,4.41,19.51,7.87,26.94,14.81,4.66,4.35,8.31,11,6.85,17.53-1.5,6.72-7.46,7.31-12.22,10.82-8.32,6.14-15.16,14.32-23.12,20.92-4.63,3.83-10.73,7.93-17.07,6.2-6.8-1.87-9.94-9-11.35-15.3-1.45-6.41-2-13-3.63-19.35-2.13-8.22-5.37-16.54-11.75-22.4a51.32,51.32,0,0,0-8.82-6.31c-1.23-.73-8.75-4.14-6.4-5.9C340.66,220.73,339.78,219.2,338.87,219.88Z"/><path class="cls-4" d="M409.37,310.26c-1.62-.34-2.33-2.25-2.62-3.88-1.07-6.05,0-12.86,4.44-17.14,1.82-1.76,4.09-3,6-4.66a41.2,41.2,0,0,0,4-4.31,39.22,39.22,0,0,1,9.71-8.7c3.79-2.18,8.4-3.24,12.59-2a3.83,3.83,0,0,1,1.66.86,8.34,8.34,0,0,1,1.13,2.08c.89,1.68,2.75,2.71,3.53,4.45.9,2,.11,4.35-.69,6.41l-2.82,7.29a30.83,30.83,0,0,1-2.28,5A26.22,26.22,0,0,1,440.5,300c-3.42,3.57-7.21,6.94-11.79,8.83-3.86,1.59-8.09,2-12.26,2.27-2.48.15-5.11.2-7.27-1"/><path class="cls-2" d="M409.82,309.5c-4.88-2.4-2.36-13-.41-16.49,2.22-3.94,6.36-5.76,9.49-8.81s5.43-6.44,8.69-9.17c3.75-3.14,12-7.86,16.6-3.91a11.65,11.65,0,0,1,2.34,3.15c2.22,4,2.63,6.62,1.09,10.67-2,5.29-3.78,10.27-7.74,14.44-3.71,3.89-7.9,7.49-13.08,9.21-4.81,1.6-12.31,2.85-17.17.72-1-.45-1.93,1.07-.89,1.52,5.48,2.41,13,1.28,18.53-.54,6.22-2,11.66-6.76,15.76-11.76a25.61,25.61,0,0,0,3.83-6.8c1.45-3.56,3.58-7.54,4.14-11.37a6.81,6.81,0,0,0-1.28-5.23,31.12,31.12,0,0,0-3.45-4.67c-.63-.67-.49-.77-1.4-1.34-4.29-2.68-11.23-.24-15.05,2.13-6.14,3.79-9.79,10.15-15.48,14.42-4.73,3.55-7.84,7.27-8.64,13.34-.5,3.77-.79,10,3.23,12,1,.49,1.9-1,.89-1.52Z"/><path class="cls-4" d="M458,265a12.32,12.32,0,0,1-3.1-9.18,36.55,36.55,0,0,1,2.18-9.7,64.32,64.32,0,0,1,3.11-8.31c1.11-2.32,2.66-4.63,5-5.6,3-1.24,6.46,0,9.72-.14,2.47-.13,4.83-1.08,7.29-1.32s5.32.51,6.4,2.74a7,7,0,0,1,.55,2.79,29.82,29.82,0,0,1-4.31,16.78,56.84,56.84,0,0,1-6.57,8.29c-2.77,3.06-5.83,6.26-9.87,7.11"/><path class="cls-2" d="M458.59,264.37c-5.23-6.13-2-14.71.41-21.39,2.06-5.7,4.2-10.1,11-10.36,2.75-.11,5.15.4,7.93-.12,1.67-.32,3.84-1.19,5.56-.9,5.25.88,5,4.87,4.77,8.2a29,29,0,0,1-3.71,12c-3.35,5.91-9.57,13.81-16.35,15.76a.88.88,0,0,0,.47,1.69c8.52-2.44,16.32-12.74,19.38-20.73,2.41-6.26,4.89-18.83-5.18-18.72-3,0-5.76,1.31-8.74,1.33-2.5,0-5.1-.77-7.59-.25-4.19.88-6.31,4.48-7.89,8.16-3.42,8-7.67,19-1.27,26.53.74.86,2-.39,1.25-1.25Z"/><path class="cls-4" d="M377.59,188.75c5.61-2.66,12.2.11,17.62,3.13a175.08,175.08,0,0,1,23.48,15.72c6.52,5.18,13.17,11.06,21.42,12.22a24.62,24.62,0,0,0,14.05-2.45,30.17,30.17,0,0,0,10.7-8.68,60.73,60.73,0,0,0,4.76-7.65l8-14.35c2.11-3.79,4.24-7.64,5.25-11.86s.78-8.92-1.6-12.55c-3-4.5-8.51-6.48-13.78-7.59-4.19-.88-8.44-1.4-12.69-1.92a104.45,104.45,0,0,0-15.69-1.13,49.77,49.77,0,0,1-7.12,0c-2.12-.24-4.19-.89-6.32-1-5.18-.25-10,2.68-15.13,3.38-2.65.37-5.36.13-8,.54a27.46,27.46,0,0,0-8,2.84c-3.06,1.54-6.11,3.37-8.06,6.19-1.57,2.28-2.29,5-3.14,7.65a71,71,0,0,1-8.13,17,2,2,0,0,0,2.56.2"/><path class="cls-2" d="M377.82,189.6c10.59-4,23.64,6.63,31.92,12.42,7.7,5.38,14.68,12.65,23.32,16.57a25,25,0,0,0,21.55-.46c8.63-4.15,13.06-11.77,17.54-19.83,6.56-11.82,21.7-33.55,2.73-42.21-8.32-3.8-19-4.33-27.95-5.06-5.71-.46-11.46.31-17.11-.6a25.9,25.9,0,0,0-12.83,1c-5.49,1.69-10.93,1.33-16.39,2.66a31.45,31.45,0,0,0-11.77,5.78c-3.43,2.75-4.81,6.31-6.14,10.38a77.37,77.37,0,0,1-8.29,17.6.89.89,0,0,0,.32,1.2c1.59.72,1.52.76,3.23.29a.88.88,0,0,0-.46-1.7c-1.36.37,1.2-3.52,1.5-4.08.95-1.76,1.83-3.57,2.63-5.41,1.77-4.07,2.61-8.76,4.72-12.66s6.17-6.25,10.13-8c4.76-2.15,9.17-1.83,14.15-2.53,4.53-.64,8.71-3.07,13.3-3.34,4.15-.25,8.26,1.16,12.48,1a136.71,136.71,0,0,1,29,2.55c4.28.81,8.85,1.87,12.29,4.69,5,4.09,5.58,10.38,3.84,16.29-2.51,8.55-8.37,16.7-12.69,24.44-4.65,8.31-10.55,15.45-20.23,17.83-10.24,2.53-18.57-2.91-26.25-9a205.08,205.08,0,0,0-22.14-15.65c-6.83-4.09-14.76-9-22.89-5.88-1,.4-.59,2.1.47,1.7Z"/><path class="cls-4" d="M504.2,236.2a79.66,79.66,0,0,0,.15-18.26,4.27,4.27,0,0,0-.83-2.51,4.86,4.86,0,0,0-2.1-1.12,21.37,21.37,0,0,1-7.37-4.51,15.63,15.63,0,0,1-3.13-3.93c-2.24-4.13-2-9.15-1.16-13.79.62-3.65,1.64-7.45,4.29-10,1.24-1.21,2.77-2.08,4.11-3.18a15,15,0,0,0,4.66-6.76c1-3,1.1-6.42,2.81-9.12a8.82,8.82,0,0,1,9.37-3.72,4.66,4.66,0,0,1,2.3,1.23,5.32,5.32,0,0,1,1.16,3.22c.4,4.7-1.22,10,1.53,13.8,1.52,2.13,4.17,3.34,5.41,5.64,1.68,3.12.22,6.91-1,10.25-2,5.74-3.19,11.76-5.23,17.49-1.21,3.38-2.72,6.65-4.23,9.91l-7.07,15.29c-.5,1.07-1.62,2.35-2.6,1.69a2.1,2.1,0,0,1-.64-1.73"/><path class="cls-2" d="M505.08,236.2a85.44,85.44,0,0,0,.55-12.79c-.09-2.14.24-5.26-.75-7.26-.8-1.64-1.62-1.91-3.22-2.69-4.49-2.16-8.51-4.48-10.5-9.36-1.7-4.16-1.2-9.06-.26-13.35a19.28,19.28,0,0,1,2-5.78c1.44-2.43,3.68-3.56,5.69-5.35,4.44-3.94,4.81-8.17,6.62-13.51,2-6,12.16-9.63,12.42-.81.09,3-.5,6,.11,8.95a10.29,10.29,0,0,0,3.42,5.78c1.58,1.51,3.2,2.31,3.92,4.73s-.29,4.78-1,7c-2.53,7.9-4.35,16.1-7.65,23.74-1.46,3.36-3.05,6.67-4.58,10l-2.36,5.1-1.58,3.4c-.13,1.56-.94,2.18-2.42,1.87-.15-1.12-1.84-.65-1.69.46.5,3.64,3.32,2.57,4.85.25,2.15-3.26,3.46-7.48,5.11-11s3.45-7.29,5-11c3.12-7.6,5.28-15.88,7.53-23.78.66-2.33,1.11-4.75.23-7.08s-2.95-3.48-4.58-5.28c-3.84-4.2-2.28-8.8-2.57-13.82-.09-1.68-.3-3.46-1.54-4.71-3-3.08-8.78-1.59-11.52,1-1.83,1.74-2.58,4-3.19,6.36-1.41,5.52-2.82,8.78-7.49,12.47-4.84,3.82-6.4,8.74-7.09,14.77-.78,6.76.71,12.69,6.15,17.08a43.22,43.22,0,0,0,4.94,3,8.69,8.69,0,0,1,4.08,6.14c1,4.84.15,10.69-.39,15.53-.12,1.12,1.64,1.12,1.76,0Z"/><path class="cls-4" d="M386.92,152.61a92.23,92.23,0,0,1,29.6-43.46,86.27,86.27,0,0,1,48.93-19c7.11-.39,14.49.2,20.84,3.44,2.86,1.45,5.58,3.59,6.7,6.59,2,5.28-1.58,11-1.37,16.63.11,2.88,1.21,5.69,1,8.56a12.44,12.44,0,0,1-2.42,6.14c-4.44,6.27-12.44,9.13-20.12,9.57s-15.29-1.13-22.94-1.9a109.55,109.55,0,0,0-29.16,1c-6.12,1-12.23,2.61-17.59,5.71s-10,7.88-11.88,13.77"/><path class="cls-2" d="M387.77,152.84c11.47-34.73,43.51-61.7,81-61.89,9.28,0,25.32,2.52,23.72,15-.46,3.64-1.83,7.13-1.73,10.83.05,1.78.53,3.5.73,5.26a12.7,12.7,0,0,1-3.73,11c-6.74,7-17.22,7.7-26.29,6.91-10-.86-19.79-2.57-29.92-2.15-16.31.67-37.48,4.1-43.89,21.55-.39,1.06,1.31,1.52,1.7.47,4.24-11.56,15.91-16.46,27.18-18.58,12.07-2.26,24.2-2.09,36.33-.54,9.35,1.2,19.07,2.53,28-1.14,6.17-2.51,12.52-7.9,12.58-15.09,0-2.61-.89-5.09-1-7.7a30.82,30.82,0,0,1,1.14-7.44c.68-3.17,1.34-6.5.11-9.63-2.7-6.88-11.85-9.43-18.41-10.22C457,87.32,437.25,93.79,422.12,104c-17.17,11.53-29.59,28.87-36.05,48.43-.36,1.07,1.34,1.54,1.7.46Z"/><path class="cls-4" d="M518.65,105c-3.85-2.31-9.87,2.32-13.81,7.38-5,6.44-4.13,14.17-3.82,16.78,1,8.7,6.1,17.05,13.85,21.14,2.41,1.28,5,2.14,7.47,3.36,4.35,2.18,5,5.64,6.08,5.31s1.31-3.48-.69-16.46c-2.4-15.64-3.34-14.35-4.68-24.54C522,109.62,520.9,106.36,518.65,105Z"/><path class="cls-2" d="M519.09,104.25c-9.33-4.06-18.14,10.48-19,18-1.23,10.27,3.36,21.38,11.89,27.33,2.86,2,6.12,3,9.22,4.53a14.38,14.38,0,0,1,4.54,3.43c.41.46.9,1.56,1.5,1.88,1.27.67,1.87.5,2.57-.76,1.39-2.5,0-7.6-.32-10.18-.76-6.07-1.71-12.14-3.05-18.11-1-4.51-2-8.93-2.63-13.51-.58-4.17-.87-9.93-4.68-12.58-.93-.65-1.81.87-.89,1.52,3.92,2.72,3.69,10.6,4.33,14.77.45,2.92,1.11,5.77,1.79,8.64,1.2,5.1,2.09,10.26,2.85,15.44.34,2.36,2.54,10.38,1.05,13-.57,1,.1.1-.57-.41a17.1,17.1,0,0,1-1.41-1.71,19.05,19.05,0,0,0-6.44-3.9c-6.33-2.76-11.38-6.21-14.72-12.44a29.17,29.17,0,0,1-3.39-15.63,20,20,0,0,1,4.8-11.74c2.58-3,7.31-7.91,11.71-6C519.23,106.21,520.13,104.7,519.09,104.25Z"/><path class="cls-4" d="M466.8,69.59A79.32,79.32,0,0,0,428.29,49c-4.62-1-9.57-1.66-13.24-4.64-3.36-2.73-5.08-6.95-7.89-10.25-4.53-5.32-11.51-7.83-18.26-9.64-5.86-1.58-11.95-2.81-18-2a27.53,27.53,0,0,0-15.05,7C350,34.92,346.82,42.57,344,50c-7.05,18.71-12.91,38.73-9.75,58.47a66.6,66.6,0,0,0,11.15,27.55l-1.32-2.31A46.83,46.83,0,0,0,361,139c-3.92-5.54-5.5-12.5-5.29-19.28a57.73,57.73,0,0,1,4.66-19.69,99.77,99.77,0,0,1,31.32-41.36c1.41-1.1,3.59-2.11,4.79-.78.87,1,.51,2.47,0,3.67C392.09,72.84,382.29,81,375.6,91.06A60.27,60.27,0,0,0,366.2,132c.45,3.36,1.31,6.89,3.75,9.25,3.07,3,8,3.44,10.78,6.7-1.21-7.33-2.39-14.73-2.06-22.15s2.25-15,6.71-20.89c5.21-6.93,13.33-11.07,21.55-13.82a139.93,139.93,0,0,1,22.64-5.2,271.14,271.14,0,0,1,28.85-3c2.58-.13,5.23-.24,7.59-1.29s4.38-3.31,4.34-5.89C470.31,73.29,468.54,71.28,466.8,69.59ZM382,39.25a10.62,10.62,0,0,1-3.4-.26,11.27,11.27,0,0,0-6.09.91c-1.25.57-2.59,1.4-3.89,1-1-.33-1.37-1.4-2-2.25-2.39-4.73,1-11.08,9-9.18,1.87.93,4.16.57,6,1.63s3.35,2.69,3.31,4.7A3.73,3.73,0,0,1,382,39.25Z"/><path class="cls-2" d="M467.42,69A83.65,83.65,0,0,0,426.2,47.68c-4.75-1-9.22-2.19-12.55-5.94-2.41-2.71-3.91-6.11-6.37-8.79-4.72-5.14-11.58-7.55-18.15-9.32C374.8,19.77,360.19,20.87,351,33.82c-4.7,6.6-7.38,14.6-10.05,22.17a151.72,151.72,0,0,0-7.26,27.27c-2.92,18.8.21,37.4,11,53.24a.88.88,0,0,0,1.52-.89l-1.32-2.3-1.2,1.2A52.34,52.34,0,0,0,361,139.92a.89.89,0,0,0,.76-1.33c-11.17-16.93-2.17-38.7,7.62-54.1a99.44,99.44,0,0,1,16.66-19.88,21.94,21.94,0,0,1,3.71-3.23c1.54-1.81,3.51-1.81,5.91,0a37.34,37.34,0,0,1-1.9,4,69.27,69.27,0,0,1-7.5,10.73c-9.8,12-18.5,23.33-20.83,39.16-1,6.75-1.35,14.64.79,21.22,2.35,7.22,9.06,7.23,13.86,12a.88.88,0,0,0,1.47-.85c-2.22-13.5-4.47-29,3.64-41.07,7.59-11.32,22.29-15.51,34.9-18.16,13.79-2.89,27.62-3.25,41.52-4.92,8.88-1.06,12.24-8,5.78-14.58-.79-.81-2,.43-1.24,1.24,2.73,2.78,5.38,6.39.53,10-1.46,1.1-3.57,1.35-5.31,1.56-3.54.44-7.15.45-10.7.73-5.86.45-11.71,1.11-17.53,1.94-11.72,1.67-23.8,3.83-34.53,9-8.8,4.25-15.68,10.91-18.77,20.32-3.67,11.16-1.85,23,0,34.37l1.47-.85c-2-2-4.29-3-6.76-4.21-4.86-2.35-6.8-6.13-7.52-11.34a58.36,58.36,0,0,1,1.81-24c4.37-15.16,15.54-24.74,24-37.41,1.69-2.54,7-9.56,4.39-12.82s-7.43,1.55-9.36,3.18a100.57,100.57,0,0,0-26,33.71c-6.68,14.1-10.89,31.14-1.68,45.11l.76-1.32A49.74,49.74,0,0,1,344.52,133a.89.89,0,0,0-1.2,1.21l1.32,2.3,1.52-.89c-19.3-28.36-11.75-64.93,2.31-94,3.58-7.41,8.84-13.86,16.75-16.81,8.12-3,16.82-1.36,24.89.95s14.49,5.79,19.23,13c3.09,4.66,6.24,7.94,11.75,9.59,8.08,2.42,16,3.61,23.8,7.24a80.45,80.45,0,0,1,21.29,14.69C467,71,468.25,69.75,467.42,69Z"/><path class="cls-2" d="M382,38.37c-3,.16-5.6-.71-8.56.23-1.77.56-3.72,2.15-5.46.45a5.59,5.59,0,0,1-1.11-4.35c.44-3.15,3.24-4.76,6.25-4.73a29.33,29.33,0,0,1,4.81,1,13.27,13.27,0,0,1,2.4.56c1.56.61,7.81,4.67,1.44,6.89-1.06.37-.61,2.07.47,1.69,4.6-1.6,4.35-6.63.69-9.24-2.21-1.58-5.7-2.13-8.33-2.52a9.07,9.07,0,0,0-6.53,1.26,7.36,7.36,0,0,0-2.31,9.13c.81,1.78,2,3.25,4.07,3.09,1.83-.14,3.5-1.47,5.28-1.84,2.31-.49,4.58.28,6.89.15C383.11,40.08,383.12,38.32,382,38.37Z"/><path class="cls-2" d="M382.06,30.3a13.34,13.34,0,0,0-7.72-1.65c-2.29.22-5.64-.19-7.16,1.73-2.19,2.76-3.18,9.55,1,11.24,2.16.88,4.35-1,6.34-1.48,2.83-.73,6.24.93,8.86-.45,4.56-2.39,1.83-7.34-1.29-9.39-.95-.63-1.83.9-.89,1.52q4.08,1.95-.32,6.61l-2-.29a14.64,14.64,0,0,0-2.73-.08,12.28,12.28,0,0,0-2.67.54c-.46.17-.92.35-1.37.54q-1.91,1.77-3.28-.48c-1.9-1.53-2.32-3.33-1-5.63.87-1.58,1.71-1.67,3.3-2.09a13.78,13.78,0,0,1,10.15.88C382.18,32.34,383.07,30.82,382.06,30.3Z"/><path class="cls-4" d="M412.64,24.57a29,29,0,0,0,6.94,8.23,43.61,43.61,0,0,0,9.8,5.71c6.16,2.73,12.88,4.74,19.57,3.94,3.81-.45,7.75-1.8,11.36-.52"/><path class="cls-2" d="M411.88,25c4.4,7.35,11,11.81,18.85,15a43.15,43.15,0,0,0,12.75,3.36c5.57.45,11.16-2,16.6-.62a.88.88,0,0,0,.47-1.69c-2.94-.75-5.6-.42-8.55,0A35.37,35.37,0,0,1,435.65,40c-9-2.86-17.28-7.56-22.25-15.85a.88.88,0,0,0-1.52.89Z"/><path class="cls-4" d="M477.78,53.74c-3,.25-4.73,4-4.93,4.49-.27.66-.28,4.34,1.12,7.52a13.4,13.4,0,0,0,4.17,4.73q5.52,4.48,11.44,8.41a26,26,0,0,0,7.06,3.63c2.44.7,10.78,4.45,12.12,2.56,0,0-.87-5.73-11.21-15C483.89,57.75,479.73,53.57,477.78,53.74Z"/><path class="cls-2" d="M477.54,52.89a7.38,7.38,0,0,0-5.71,6.88c-.24,6.78,4.44,10.47,9.36,14.22,5.53,4.22,10.92,7.84,17.47,10.16,2.73,1,8,3.79,10.72,1.55a.88.88,0,0,0,.23-.86c-1.46-8.26-11.09-15.09-16.73-20.21-3.53-3.19-7-6.54-10.72-9.47-1.24-1-2.7-2.31-4.38-2.3a.88.88,0,0,0,0,1.76c1.38,0,3,1.67,4,2.46,2.45,2,4.78,4.17,7.13,6.29,6.2,5.62,15.58,11.91,18.45,20.18,1,2.9-.86,1.23-3.43.53a51.83,51.83,0,0,1-11.16-4.25,92,92,0,0,1-14-10c-3.93-3.29-9-13.39-.76-15.27C479.11,54.33,478.65,52.64,477.54,52.89Z"/><path class="cls-4" d="M321.61,20.92c-2.56-2-5.8-3-9-3.78-6.41-1.64-13-3-19.61-2.46-4.76.37-9.4,1.7-14.16,2.1-6.53.56-13.09-.62-19.63-.36S245.67,18.81,242,24.23s-3,13.08-.31,19.2,7.08,11.32,10.56,17a65.56,65.56,0,0,1,9.42,37.6c-.29,5.11-1.19,10.25-.54,15.33s3.08,10,7.53,12.24c1.36,3,5.66,3.4,9.08,3.2l15.25-.89c2-.11,4.09-.27,5.72-1.41,1.82-1.28,2.66-3.52,3.35-5.63a134.83,134.83,0,0,0,6.55-37c.17-4.86.08-9.8,1.34-14.5,1.55-5.82,5.06-10.9,8.44-15.89s6.77-10.18,8-16.08S326.33,24.67,321.61,20.92ZM262.47,33.2a2.09,2.09,0,0,1-.71-.21,3.38,3.38,0,0,1-3.57-3.49c.08-2,1.88-4.67,4.11-3.41a2.53,2.53,0,0,1,1,1.06,2.15,2.15,0,0,1,1-.58,8.05,8.05,0,0,1,1.81-.3,5.78,5.78,0,0,1,1.87-.21,2.27,2.27,0,0,1,.85.22c2.62.15,2.59,4.27-.1,4.22l-1.12,0a8.35,8.35,0,0,1-1,.18C265.21,31.47,264.42,33.44,262.47,33.2Z"/><path class="cls-2" d="M322.05,20.16c-9.24-6.45-23.8-7.4-34.57-5.61a91.61,91.61,0,0,1-20.38,1.17c-6-.32-12.11-.49-17.79,1.83C240.92,21,237.33,29,239,37.71c2.19,11.58,11.83,20.19,16.47,30.77a64.58,64.58,0,0,1,5.25,21c.51,6.74-.72,13.34-.68,20.06,0,4.61.93,9.38,3.81,13.1,1.86,2.41,4.88,5.39,7.76,6.42,4.77,1.68,10.75.35,15.68.06,4.2-.24,10,.42,13.18-3.05s4-9.6,5.07-14A135.2,135.2,0,0,0,309,91.4c.71-7.72-.18-15.92,2.25-23.36s7.64-13.16,11.48-19.66c5.11-8.66,8-20.48-.51-28.08-.84-.76-2.09.49-1.24,1.24,9.59,8.57,3.34,21.42-2.44,30.13-5.07,7.64-9.7,14.63-10.49,24-1,11.53-1.12,22.76-3.79,34.12-1.18,5-2.08,12.76-6.54,15.7-4.71,3.1-13.38,2.14-19,2.42-4.19.21-5.71-.08-9.27-2.7a25.6,25.6,0,0,1-3.34-2.57c-4.29-4.48-4.51-11.06-4.15-16.88.63-10.31,1-19.86-1.95-29.91-2.7-9.27-7.74-16.9-13-24.87-5.93-9-11.51-23.62.51-30.58,10.53-6.11,23.73-1.41,35.16-3.2,12.34-1.92,27.59-3.13,38.52,4.5C322.1,22.33,323,20.8,322.05,20.16Z"/><path class="cls-2" d="M262.71,32.35c-1.53-.44-3.34-.39-3.6-2.42-.22-1.72,1.87-4.78,3.42-2.33a.9.9,0,0,0,1.38.18,6.45,6.45,0,0,1,5.06-.59c1.42.71,1,2.29-.55,2.42a5,5,0,0,0-2.69.55c-1.15.77-1.66,2.19-3.26,2.16a.88.88,0,0,0,0,1.76,3.73,3.73,0,0,0,2.51-.81c.54-.41.91-1,1.45-1.4.81-.6,1.39-.41,2.27-.49a2.88,2.88,0,0,0,2.9-2.74c.32-4.46-6.64-4-8.93-2.11l1.38.18c-1.84-2.91-5.2-1.86-6.35,1a4.53,4.53,0,0,0,.27,4.19c1,1.58,2.61,1.64,4.27,2.12A.88.88,0,0,0,262.71,32.35Z"/><path class="cls-4" d="M256,5.36c-.22,1.29,5,2.72,9.81,3.46a26,26,0,0,0,12.08-.9c3.91-1.25,7.76-2.89,11.86-3.18a35,35,0,0,1,7.83.58A90.68,90.68,0,0,1,309,7.63c6,1.74,11.76,4.59,17.93,5.78,7.18,1.39,14.58.46,21.83-.47s11-.85,11-1.41c.13-1.84-39.48-6.69-58.37-8.35-6.62-.58-8.06-.62-29.59.13C262.73,3.63,256.2,4,256,5.36Z"/><path class="cls-2" d="M255.11,5.59c.53,2,3.33,2.49,5,2.95A33.67,33.67,0,0,0,274,9.72c5.39-.81,10.25-3.68,15.74-4.1,6.07-.47,13.17,1.17,19.05,2.86,4.95,1.42,9.64,3.6,14.6,5a47.69,47.69,0,0,0,16.27,1.36c5.09-.36,10.13-1.19,15.21-1.66.89-.08,4.83.16,5.48-.88,1.27-2-2.3-2.51-3.57-2.81C350.59,8,344.22,7.28,338,6.44,324.6,4.63,311.12,2.8,297.66,2c-6.27-.37-12.59,0-18.85.19-6.06.21-12.2.19-18.24.86-1.62.19-4.5.18-5.37,1.87-.52,1,1,1.89,1.52.88.92-1.77,7.9-1.3,9.65-1.39,4.64-.23,9.29-.35,13.94-.5,4.8-.16,9.62-.37,14.43-.26,9.66.21,19.35,1.62,28.93,2.75,6.95.82,13.9,1.7,20.83,2.72,4.27.64,8.6,1.84,12.87,2.31.39,0,1.19.55,1.56.49.91-.15-.28-.78-.6-.85s-.94.16-1.34.14c-4.15-.2-8.68.95-12.79,1.41A59.62,59.62,0,0,1,315.72,9c-8.43-3.08-18.92-6.27-28-4.9-4.83.73-9.21,3.14-14,3.87a28.05,28.05,0,0,1-9.32-.26c-1.38-.25-7.15-1-7.57-2.57A.88.88,0,0,0,255.11,5.59Z"/><path class="cls-4" d="M227.61,100.63c-5-9.2-10.45-18.39-12.35-28.67-1.6-8.62-.58-17.47.4-26.18.52-4.57.92-9.61-1.77-13.33a12.6,12.6,0,0,0-5-3.9c-4.94-2.27-10.67-2.3-16-1.12s-10.28,3.48-15.21,5.77l-8.65,4c-7.08,3.29-14.79,7.25-17.53,14.55s.64,15.68,5.09,22.2c8,11.77,19.4,20.77,29.39,30.93s19.79,33.55,19.79,33.55a15.67,15.67,0,0,0,.81,6,2,2,0,0,0,.73,1.11,2.1,2.1,0,0,0,1.83-.16l25.12-10.59a5.61,5.61,0,0,0,2.23-1.4,5.16,5.16,0,0,0,.82-3.35C237.26,119.64,232.59,109.82,227.61,100.63Z"/><path class="cls-2" d="M228.37,100.18c-7.22-13.28-13.6-25.72-13-41.28.36-9.24,5.52-23.6-4-29.92s-21.53-2.24-30.88,1.94-23,8.34-28.54,17.82c-5.28,9-.66,19.4,4.82,27.08,7.37,10.3,17.16,18.46,26.13,27.29,7.16,7,12.23,15.53,16.76,24.44q2.33,4.59,4.42,9.3c1.11,2.5.06,7.46,2.43,9.2a2.89,2.89,0,0,0,1.89.53c1.36,0,3.31-1.29,4.52-1.81l7.18-3,10.76-4.54c1.83-.77,4.81-1.5,6.21-3.14,2.81-3.31.56-10.86-.38-14.45-1.8-6.85-5-13.23-8.36-19.44-.53-1-2.05-.11-1.52.89a100.69,100.69,0,0,1,7.19,15.7,49.71,49.71,0,0,1,1.75,6.68,22.93,22.93,0,0,1,.62,5.78c-.4,3.79-3.83,5.38-6.87,6.66l-15.25,6.43a18.6,18.6,0,0,1-3.59,1.51l-1.8.76a3.07,3.07,0,0,1-2.08-3.21c-.31-1.16,0-2.34-.33-3.48-1.12-4.55-4.24-9.3-6.39-13.41-3.4-6.48-7.12-13-12-18.55-6.5-7.42-14.36-13.63-21.17-20.77-7.34-7.7-17.26-18.7-15.32-30.27,1.89-11.22,14.88-15.55,23.88-19.73,10-4.64,27-13.3,36.7-3.32,4.82,4.95,2.54,13.45,1.94,19.54a79.21,79.21,0,0,0-.09,18.72c1.57,11.24,7.44,21.16,12.77,31C227.39,102.06,228.91,101.18,228.37,100.18Z"/><path class="cls-4" d="M87.29,86.88c2.29-2,5.65-1.81,8.65-2.21,5.82-.78,11-4.06,15.51-7.81,6.76-5.63,12.65-12.9,14.36-21.53"/><path class="cls-2" d="M87.73,87.64c4-2.7,10-1.93,14.54-3.87A41,41,0,0,0,112.66,77c6.67-5.69,12-12.76,14-21.42.25-1.1-1.44-1.57-1.69-.46-2.09,9.12-8.08,16.38-15.32,22.06-3.67,2.89-7.74,5.41-12.37,6.39-3.71.78-7.18.39-10.44,2.57-.93.62,0,2.15.89,1.52Z"/><path class="cls-4" d="M189.59,149.28c-5.57-6.55-13.14-11.09-19.23-17.17-13-13-18.1-31.63-21.9-49.56-1.2-5.66-3.07-12.26-8.51-14.24-3.13-1.14-6.64-.33-9.73.93-12.9,5.28-21.42,17.71-33.32,25-2.54,1.55-5.22,2.85-7.78,4.37C83.89,101.66,79,106,77.19,111.81S77.85,125,83.58,127l47.47,0,39.79,43.49c-.18-.37-.37-.74-.56-1.11l1,.48a49.13,49.13,0,0,0,17.6-10c1.5-1.33,3-2.92,3.23-4.92C192.32,152.91,191,150.92,189.59,149.28Z"/><path class="cls-2" d="M190.21,148.66c-5.38-6.08-12.2-10.48-18.07-16a63,63,0,0,1-13.88-20.24,129.05,129.05,0,0,1-7.4-23.11c-1.44-6.09-2-13.49-6.12-18.5-8.8-10.66-24.5,2.81-31.59,9.08-6.32,5.59-12.36,11.24-19.79,15.36-5.89,3.27-12,6.66-15.42,12.73s-2.88,18.68,6.06,20c6.8,1,14.48,0,21.34,0,7.91,0,16,.48,23.88,0a5.84,5.84,0,0,1,1.77,0c-1-.34-.2.09.25.62,1.67,2,3.53,3.86,5.28,5.78l33.69,36.83c.71.77,1.82-.21,1.39-1.06L171,169l-1.21,1.2c4.45,2.18,13.6-4.83,16.94-7.39,5.52-4.23,8.1-8.21,3.44-14.16-.7-.89-1.93.36-1.24,1.24,5.51,7-3.68,12.17-8.11,14.78-2,1.16-7.89,5.11-10.14,4a.89.89,0,0,0-1.2,1.21l.56,1.1,1.38-1.06L145,141c-4.08-4.46-7.95-9.68-12.5-13.66-2.19-1.92-5.2-1.14-8.12-1.14l-24.83,0h-11c-1.47,0-3.52.36-5,0-3.74-.93-5.87-6.12-6.07-9.5-.27-4.54,1.92-8.64,5-11.87,5.36-5.7,13.14-8.26,19.33-12.89,5.26-3.94,9.91-8.6,14.91-12.86,5.8-4.93,17.11-14.17,24.9-8.75,6.35,4.42,6.71,16.42,8.47,23.29a119.1,119.1,0,0,0,7.29,21.1,63.26,63.26,0,0,0,12.93,18.62c6,5.82,13.08,10.32,18.65,16.6C189.72,150.75,191,149.5,190.21,148.66Z"/><path class="cls-4" d="M137.17,200.43c-5.22-8-10.55-16.12-17.78-22.39-6.71-5.82-14.8-9.79-22.84-13.58-7.23-3.41-14.61-6.75-22.48-8.13a29.63,29.63,0,0,0-12.92.24,35.31,35.31,0,0,0-9.87,4.86,27.2,27.2,0,0,0-6.5,5.48c-3.37,4.18-4.45,9.79-7.62,14.13-1.72,2.36-4,4.27-5.64,6.7-1.25,1.86-2.4,9.5-1.31,10.64s3.06,1.7,4.79,2a41.92,41.92,0,0,0,9.2.85c10.68-.42,20.34-7.06,31-7.6,5.08-.26,10.12.89,15,2.14a96.43,96.43,0,0,1,18.57,6.35c7.78,3.82,14.64,9.41,22.65,12.73L137.38,203a2.77,2.77,0,0,0,.36-1.14A2.59,2.59,0,0,0,137.17,200.43Z"/><path class="cls-2" d="M137.93,200c-4.79-7.34-9.66-14.78-16.05-20.85-6.72-6.4-15-10.71-23.28-14.67s-16.9-8-26.14-9.26c-8.42-1.13-15.43,1.25-22.33,6a24.65,24.65,0,0,0-7.48,7.29c-2.64,4.25-3.84,9.17-7,13.12-3.83,4.77-6.59,7.52-6.73,14-.13,5.73,6.07,6,10.67,6.43,9.26.93,17.36-2.86,26-5.5,11.76-3.6,23.41-.7,34.75,3.18,11.11,3.8,20,11.34,30.7,16a.89.89,0,0,0,1.2-.32c1.69-3.41,3.39-6.81,5.06-10.22,1-2,1.59-2.81.73-4.91-.42-1-2.12-.58-1.69.47.71,1.74-3.76,12.51-6,12.77-1.23.13-4.42-2.26-5.37-2.8-1.75-1-3.47-2.08-5.19-3.14-6.91-4.28-13.74-8-21.53-10.37-7.57-2.36-15.85-4.89-23.87-4.27-7.74.6-14.74,4.16-22.15,6.16a34.68,34.68,0,0,1-13.44,1.07c-2.6-.3-6.87-.65-8.12-3.58-.54-1.27.29-3.88.57-5.19.8-3.65,3.38-5.71,5.65-8.5a37,37,0,0,0,4.77-8.45C45.43,166,53.1,159.2,62.29,157.21c10.07-2.17,20.59,2,29.63,6.07s18.43,8.4,26.17,14.82c7.57,6.27,13,14.63,18.32,22.77C137,201.81,138.56,200.93,137.93,200Z"/><path class="cls-4" d="M130.67,227.7a3.31,3.31,0,0,0,.11-2.06,3.68,3.68,0,0,0-1-1.32c-2.49-2.33-5-4.67-7.71-6.74A68.22,68.22,0,0,0,100.31,207a102.08,102.08,0,0,0-53-1.51,31.78,31.78,0,0,0-9.56,3.61c-5.27,3.3-8.63,9.15-9.75,15.27s-.18,12.46,1.76,18.37l-.4-.37c.22,1.16,1.73,1.45,2.91,1.44,21.21-.33,40.15-16.56,61.32-15.16,7.6.49,14.85,3.27,21.87,6.24q7.36,3.12,14.59,6.58c-1.92-1.56-2.28-4.4-1.77-6.81S130,230.07,130.67,227.7Z"/><path class="cls-2" d="M131.52,227.93c.87-4.1-3.42-6.45-6.22-8.82a62.65,62.65,0,0,0-16.37-9.93,99.31,99.31,0,0,0-39.65-7.31c-11.18.18-27.07.93-35.5,9.31S25.61,232.34,28.9,243l1.47-.86-.4-.36c-.7-.64-2,.2-1.38,1.07,2.93,4.41,13.57.79,17.59-.32,8.59-2.39,16.68-6.18,25.08-9.1,9.15-3.18,18.52-5,28.15-3,10.51,2.14,20.56,7.29,30.18,11.87a.89.89,0,0,0,1.07-1.39c-3.62-3.81-.48-8.92.86-12.95.36-1.07-1.34-1.54-1.7-.46-1.64,4.92-4.61,10.22-.41,14.66l1.07-1.38c-15.53-7.38-31.69-15.57-49.3-12-8.17,1.67-15.87,5-23.62,8A124.23,124.23,0,0,1,45,241c-2.77.74-12.83,4-14.86.93L28.73,243l.4.36a.89.89,0,0,0,1.47-.86c-3.22-10.44-3.59-23.31,5.47-31.08,8.36-7.18,23.68-7.75,34.14-7.83a100,100,0,0,1,32.34,5.05,68.94,68.94,0,0,1,14.75,6.73c2.72,1.68,13.38,8,12.52,12.06C129.59,228.57,131.28,229,131.52,227.93Z"/><path class="cls-4" d="M45.25,270.69a34.37,34.37,0,0,0,7.9,2.52,38.78,38.78,0,0,0,5,.57c3.66.2,7.22.38,10.65-.48,5.44-1.35,10-5.22,13.13-9.87,1.8-2.68,3.21-5.66,5.4-8,4.26-4.61,11-6.28,17.26-5.82,8.4.62,10,5.44,18.08,5.07,4.85-.23,10.39-2.28,10.52-4.53s-5.05-4.14-14.91-7.8c-6.9-2.56-10.29-3.16-12.37-3.43a54.63,54.63,0,0,0-9.33-.25,145.22,145.22,0,0,0-20.77,1.82c-9,1.47-13.57,2.2-16.22,3.62-10.25,5.48-13.34,19-14.36,26.62"/><path class="cls-2" d="M44.81,271.45a41.35,41.35,0,0,0,22.29,3.08c7.56-1.17,13-6.42,16.9-12.71,3.11-5,6.24-8.88,12.16-10.6a22.34,22.34,0,0,1,15.68,1.27c6.18,2.9,12.3,4.39,18.87,1.16,3.13-1.53,4.58-4,1.52-6.35-2.4-1.86-5.86-2.88-8.65-4a115.84,115.84,0,0,0-13-4.46c-13.24-3.34-28.49-.49-41.65,1.82-7,1.23-12.39,3-16.86,8.82s-6.59,13.59-7.63,20.92c-.15,1.11,1.54,1.59,1.7.47,1.59-11.29,6-24.61,18.39-27.56,12.68-3,27.15-5,40.23-3.74,5.24.5,10.24,2.38,15.14,4.2A70.77,70.77,0,0,1,129.93,248c5.65,3.17-4.48,5.7-7.24,5.8-6.11.22-10.62-4-16.48-4.89s-12.41.28-17.17,3.84c-6.78,5-8.54,14-16.42,18.2-7.69,4.09-19.19,2.42-26.92-1-1-.45-1.93,1.06-.89,1.52Z"/><path class="cls-4" d="M142.87,251c-7.35,4-16.84,6.26-28.74,6.51a33.56,33.56,0,0,0-6.55.92,54.49,54.49,0,0,0-14.06,6.05c-4.09,2.34-8.46,5.45-9.15,10.11-.37,2.51.42,5,1.32,7.4a20.36,20.36,0,0,0,3,5.72,8.36,8.36,0,0,0,5.47,3.18,9.13,9.13,0,0,0,6-1.95c1.74-1.24,3.21-2.82,4.82-4.22a30.89,30.89,0,0,1,15.33-7.13c2.28-.36,4.61-.46,6.87-1,7-1.64,12.52-7.38,15.27-14C144,258.85,144.68,254.51,142.87,251Z"/><path class="cls-2" d="M142.42,250.19c-7.62,4-16.06,5.74-24.61,6.25-8,.47-14.61,1.84-21.74,5.58-5,2.61-11.58,6.11-12.55,12.29-.79,5,2.12,12.13,6,15.34,4.13,3.44,8.74,1.93,12.54-1.13,4.08-3.28,7.46-6.64,12.48-8.54,3.66-1.39,7.37-1.53,11.18-2.25,11.09-2.1,22.88-15.23,18-27-.42-1-2.12-.58-1.69.47,2.75,6.67-1,14.28-5.75,19.1s-10,5.36-16.22,6.4a32.14,32.14,0,0,0-14.33,6.23c-1.74,1.35-3.22,3-4.94,4.36-3,2.4-7.39,3.55-10.55.71a13.87,13.87,0,0,1-3.09-4.89c-1.53-3.47-2.75-7.16-1.06-10.79C87.63,269,90.92,267,94,265.19c6-3.48,12.37-6.28,19.35-6.79,10.52-.78,20.48-1.69,30-6.69C144.31,251.19,143.42,249.67,142.42,250.19Z"/><path class="cls-1" d="M108.06,349.75"/><path class="cls-2" d="M108.06,350.63a.88.88,0,0,0,0-1.76.88.88,0,0,0,0,1.76Z"/><path class="cls-1" d="M133.42,339.46a3.35,3.35,0,0,0-1.69-1.55,4.37,4.37,0,0,0-2.8.2c-4.19,1.42-7.48,4.62-11,7.31-2.9,2.2-6.33,4.16-9.87,4.33,5.83,1.82,12.71,2.36,18.23.28a14.05,14.05,0,0,0,6.09-3.82C133.94,344.35,134.6,341.57,133.42,339.46Z"/><path class="cls-2" d="M134.18,339c-2.22-2.89-4.87-2.24-8-.67-6.36,3.24-10.66,9.64-18.17,10.53a.89.89,0,0,0-.24,1.73c6.58,1.89,13.75,2.56,20.17-.31,4.52-2,8.21-5.86,6.28-11.07-.39-1.05-2.09-.59-1.7.47,2.55,6.89-6.17,9.93-11.18,10.57a32.67,32.67,0,0,1-13.1-1.35l-.23,1.72a20.23,20.23,0,0,0,9.68-4c2.57-1.85,11.65-11,14.92-6.74C133.34,340.79,134.87,339.91,134.18,339Z"/><path class="cls-1" d="M64.58,172.73a5.07,5.07,0,0,0-3.93-4A7.61,7.61,0,0,0,55,169.94a16,16,0,0,0-4.16,4.17c-2.54,3.47-5,10.12-5,10.12.94,1.39,3,1.47,4.56.78a28.18,28.18,0,0,0,4.1-2.9c2-1.39,4.44-2.1,6.52-3.4S64.93,175.16,64.58,172.73Z"/><path class="cls-2" d="M65.42,172.5c-1.61-6-8.51-5.55-12.46-2.1s-6.16,8.75-8,13.6a.87.87,0,0,0,.23.85c3.6,3.79,7.6-.78,10.77-2.63,4.07-2.36,9.59-3.78,9.47-9.49a.88.88,0,0,0-1.76,0c.11,5.09-5.72,6.17-9.12,8.3-1.48.92-2.75,2.37-4.37,3-.58.23-3.25.85-3.44.22-.05-.18.39-.92.4-1,.24-2.2,2.27-5.26,3.41-7.14a16.78,16.78,0,0,1,4-4.73c2.84-2.16,7.92-2.88,9.13,1.6A.88.88,0,0,0,65.42,172.5Z"/><path class="cls-1" d="M46.79,216.87s-2.19-.09-3,.57a4.53,4.53,0,0,0-1.48,2.81c-.34,1.85,0,4,1.52,5.12a4.27,4.27,0,0,0,3.48.63,2.64,2.64,0,0,0,1-.43,3.17,3.17,0,0,0,.78-.89,6.43,6.43,0,0,0,1-4.65A4,4,0,0,0,46.79,216.87Z"/><path class="cls-2" d="M46.79,216c-2.59-.08-4.53.84-5.25,3.5s0,6.09,2.82,7.18c6.81,2.61,9.47-9.48,2.67-10.65-1.11-.18-1.59,1.51-.47,1.7a3.48,3.48,0,0,1,2.61,4.48,3.93,3.93,0,0,1-2.13,3,3.11,3.11,0,0,1-3.25-1,5,5,0,0,1,0-5.32c.71-1,1.89-1.07,3-1S47.92,216,46.79,216Z"/><path class="cls-1" d="M105.88,268.94a4.23,4.23,0,0,0-1.06-1.32,2.7,2.7,0,0,0-1.06-.67,2.9,2.9,0,0,0-2.42,1c-1.5,1.28-2.94,2.63-4.33,4,0,0-1.58,1.85-1.3,2.89a2.21,2.21,0,0,0,2,1.49,5.25,5.25,0,0,0,2.54-.52,17.55,17.55,0,0,0,3.06-1.62,7.25,7.25,0,0,0,2.31-2.2A3.34,3.34,0,0,0,105.88,268.94Z"/><path class="cls-2" d="M106.64,268.49a4.7,4.7,0,0,0-2.88-2.42c-1.67-.27-3,1.21-4.16,2.21-1.61,1.44-5.24,4.06-4.76,6.69,1,5.63,13.76-.46,11.89-6.27-.35-1.07-2-.61-1.7.47.79,2.44-1.56,4-3.39,5a8.78,8.78,0,0,1-2.91,1.23c-1.64.21-2.53-.52-1.71-1.92a12.56,12.56,0,0,1,2.46-2.69c1.51-1.43,4-4.12,5.64-1.4A.88.88,0,0,0,106.64,268.49Z"/><path class="cls-1" d="M123.78,265.14c1.41.8,3.18.2,4.61-.55a9.89,9.89,0,0,0,4.66-4.39,2,2,0,0,0,.17-1.56c-.19-.49-1.68-.94-1.68-.94a13.89,13.89,0,0,0-8.08,5.16,1.85,1.85,0,0,0-.49,1.22A1.43,1.43,0,0,0,123.78,265.14Z"/><path class="cls-2" d="M123.34,265.9c2.86,1.24,6-.45,8.17-2.33,1.6-1.36,4.22-4.76,1.44-6.25-2.37-1.26-5.56.81-7.44,2.25s-5,4.29-2.17,6.33c.91.67,1.79-.86.88-1.52-1.39-1,5.77-6.28,7.48-5.7s-.66,3-1.44,3.65c-1.49,1.24-4,2.91-6,2.05C123.2,263.94,122.3,265.45,123.34,265.9Z"/><path class="cls-1" d="M66.93,251a16.43,16.43,0,0,0-5.53,1.61A9.44,9.44,0,0,0,59,254a3.37,3.37,0,0,0-1.25,2.45s3.61,1,3,2.4a2,2,0,0,0-.26,1,1.4,1.4,0,0,0,1.17,1.15,3.67,3.67,0,0,0,1.73-.2,28.84,28.84,0,0,0,6.23-2.61,7.18,7.18,0,0,0,2.87-2.47,2.37,2.37,0,0,0,.36-1.34,2.46,2.46,0,0,0-.62-1.36A6.27,6.27,0,0,0,66.93,251Z"/><path class="cls-2" d="M66.93,250.1c-3.65.4-9.33,1.93-10.08,6.1a.91.91,0,0,0,.62,1.09,5.94,5.94,0,0,1,1.14.4c1.34.69.74.58,1,1.86a2.32,2.32,0,0,0,.84,1.79c2.13,1.65,6.32-.79,8.29-1.77s5.55-2.94,4.82-5.84-4.14-3.64-6.58-3.63a.88.88,0,0,0,0,1.76c1.67,0,5.42.47,4.71,3.35-.28,1.12-2.36,2.08-3.41,2.62A14.64,14.64,0,0,1,64,259.61a1.82,1.82,0,0,1-2.48-.54,2.86,2.86,0,0,0-3.58-3.48l.62,1.08c.58-3.2,5.7-4.52,8.38-4.81C68,251.74,68.05,250,66.93,250.1Z"/><path class="cls-1" d="M12.78,242.53a2.92,2.92,0,0,0-2.66-.25,7.42,7.42,0,0,0-4.8,3.88,5.25,5.25,0,0,0,1,5.88,4.93,4.93,0,0,0,5.19.8,6,6,0,0,0,3.38-4.14C15.35,246.79,12.78,242.53,12.78,242.53Z"/><path class="cls-2" d="M13.23,241.77c-3.05-1.81-7.37,1.12-8.67,3.95-1.39,3-.22,7,3.11,8.1a6.42,6.42,0,0,0,8-4.59c.65-2.39-.93-5.15-2.12-7.15A.88.88,0,0,0,12,243c1.7,2.86,3.4,6.7-.39,8.84A3.91,3.91,0,0,1,5.77,248c.21-2.43,3.91-6.25,6.57-4.67A.88.88,0,0,0,13.23,241.77Z"/><path class="cls-1" d="M103.33,108.49a2.56,2.56,0,0,0-.09-1.26,3,3,0,0,0-.88-1.07c-.86-.76-6.73-1.18-9.18-1-1.24.1-2.61.31-3.35,1.3a4.64,4.64,0,0,0-.64,2.6,6.69,6.69,0,0,0,.74,4.18,4.73,4.73,0,0,0,1.77,1.42,8,8,0,0,0,11.63-6.18Z"/><path class="cls-2" d="M104.21,108.49c.22-3.86-4.08-3.95-6.92-4.15-3.41-.23-8.36-.61-8.92,3.82-.58,4.64,1.7,8.08,6.62,8.23a9.06,9.06,0,0,0,9.19-7.66c.19-1.11-1.5-1.58-1.7-.47a7.41,7.41,0,0,1-5.18,6.12c-3.56,1-8.14-.91-7.23-5.31.77-3.74,4.11-3.15,6.86-3,1.59.09,5.66-.17,5.52,2.41C102.38,109.63,104.14,109.62,104.21,108.49Z"/><path class="cls-4" d="M161.66,197.52l26-20.77a47.21,47.21,0,0,1,8.68-5.95,30.86,30.86,0,0,1,16.8-2.47c7.3.77,15.23,4.27,17.49,11.25a20.12,20.12,0,0,0,4.85-5.69c1.1-2.26,1.24-5.17-.33-7.12a9.13,9.13,0,0,0-2.62-2,43.67,43.67,0,0,0-42.34-.2,73.91,73.91,0,0,0-8.9,6.12c-7.05,5.46-14.09,11.61-17.41,19.88-.5,1.26-.79,3,.32,3.73"/><path class="cls-2" d="M162.28,198.14l15.27-12.22c5.5-4.39,10.88-9.43,16.9-13.08,10.08-6.12,30.28-6,35.29,7a.89.89,0,0,0,1.47.39c3-2.74,6.54-6.25,5.89-10.73-.55-3.77-3.8-5.45-7-6.95a45,45,0,0,0-29.21-3.07c-10.4,2.41-19.25,9.08-27,16.16-3.64,3.31-14.83,13.76-10.39,19.28.71.88,1.95-.37,1.25-1.25-2.23-2.76,4.52-10.69,5.94-12.31a63.27,63.27,0,0,1,6.83-6.57c6-5.08,12.49-10.06,20-12.55A43.41,43.41,0,0,1,219,160.75,41.25,41.25,0,0,1,229.25,164c3.61,1.71,6.9,5,5.28,9.45-.83,2.25-2.84,3.88-4.56,5.47l1.47.39c-4.36-11.29-19.17-13.71-29.71-11.35-7.34,1.65-12.83,6.6-18.55,11.18L161,196.9c-.89.7.37,1.94,1.24,1.24Z"/><path class="cls-4" d="M262.25,149.24c-2.26-.69-4.76-.4-7-1.23-3.22-1.21-5.12-4.47-7.67-6.8a15.92,15.92,0,0,0-15.35-3.35,4.75,4.75,0,0,0-1.83,1,4.87,4.87,0,0,0-1.14,2.25,12.07,12.07,0,0,0,.06,7.72c1.37,3.34,4.69,5.36,7.57,7.54s5.71,5.28,5.3,8.87c0,0,.62,2.87,2,2.77s2.26-1.57,2.35-2.94c.15-2.29-1.27-4.34-2.21-6.43s-1.26-4.94.55-6.36c1.44-1.13,3.58-.76,5.17.17s2.85,2.3,4.42,3.25a9.77,9.77,0,0,0,9,.49,4.19,4.19,0,0,0,2-1.63C266.62,152.46,264.52,149.93,262.25,149.24Z"/><path class="cls-2" d="M262.49,148.39c-2.55-.54-5.88-.5-8.09-1.78a19.39,19.39,0,0,1-4.12-3.87,20.07,20.07,0,0,0-6.16-4.87c-3.74-1.76-11-2.94-14.33.34s-2.35,10,.14,13.31a26,26,0,0,0,5.43,4.77c2.66,2,4.62,3.67,5.51,7a23.35,23.35,0,0,0,.78,3.18c1,2.29,3.15,3.33,4.95,1,1.18-1.53.86-3.58.34-5.28a21.77,21.77,0,0,0-1.25-2.74q-3.08-4.29,3.91-6.23c1.08.73,2.11,1.51,3.12,2.33,3.37,2.23,9.08,3.94,12.53.61,3-2.86.58-6.26-2.55-7.64-1-.45-1.93,1.06-.89,1.52,1.61.71,1.12,4.79,0,5.85-1.74,1.63-6.39-.75-7.9-1.69s-2.83-2.47-4.68-3.08-3.91-.56-5.33,1c-1.6,1.7-1.32,4.21-.61,6.25.17.51.37.89.59,1.39s.61,1.25.93,1.88l-1.68,3.71c.51,0-.75-3.93-.85-4.13-1.48-3.19-4.43-5.13-7.13-7.19-3-2.32-5.49-4.89-5.57-9-.08-4.47,2.76-6.92,7.08-7,6.19-.06,9.89,3.54,13.9,7.62,3.51,3.57,6.75,3.45,11.47,4.45C263.12,150.32,263.6,148.63,262.49,148.39Z"/><path class="cls-4" d="M275,134.25a1.62,1.62,0,0,0-.62-1.8,4.81,4.81,0,0,0-1.89-.75l-5.57-1.33c-3.14-.75-6.83-1.38-9.27.73,0,0,3.93.42,5.46,1.35,4.25,2.58,6,7.92,6.25,12.89a5.31,5.31,0,0,0,.41,2.24,1.62,1.62,0,0,0,1.89.88,2.22,2.22,0,0,0,.87-.77c1.33-1.67,2.74-3.67,2.22-5.74a14.11,14.11,0,0,0-1.55-2.95,2.86,2.86,0,0,1,0-3.14C273.73,135.24,274.7,135,275,134.25Z"/><path class="cls-2" d="M275.89,134.25c-.05-3.87-5.17-3.89-8-4.56-3.64-.86-7.39-1.65-10.64.65a.89.89,0,0,0,.44,1.64c4.53.52,7.68,2.47,9.46,6.83,1,2.57.95,5,1.45,7.68a3.52,3.52,0,0,0,1.26,2.44c2.37,1.67,4.46-1.69,5.27-3.52a5.75,5.75,0,0,0,.51-3.69c-.25-1.12-1.17-1.9-1.47-3-.47-1.63.49-2.62,1.49-3.87.7-.88-.54-2.14-1.24-1.25-1.83,2.3-3.16,2.61-1.94,5.82.76,2,2.36,4,.61,6-1,1.16-2.17,1.2-2.84-.64-.56-1.55-.42-3.57-.92-5.2-1.83-5.87-5.7-8.74-11.64-9.42l.45,1.64c2.44-1.72,5.29-1.37,8.05-.76,1.51.33,7.95,1.12,8,3.15A.88.88,0,0,0,275.89,134.25Z"/><path class="cls-2" d="M302.13,278.17c-2.17,4.59-4.4,9.5-3.77,14.54.18,1.48.86,3.18,2.33,3.48a3.2,3.2,0,0,0,2-.38c2.89-1.49,4.07-5.18,3.6-8.4s-2.22-6.08-3.93-8.84"/><path class="cls-2" d="M300.61,277.28c-2.09,4.43-4.29,9.15-4.11,14.17.11,3.15,1.57,7.1,5.45,6.45,3.44-.57,5.55-4.15,6.06-7.3.77-4.74-1.72-9.05-4.11-12.92-1.19-1.92-4.24-.16-3,1.78a26.66,26.66,0,0,1,3.36,6.65c.51,1.85.92,6.1-1.23,7.32l-2.76-.29a9.08,9.08,0,0,1-.21-2.32,15.69,15.69,0,0,1,.53-3.86,43.29,43.29,0,0,1,3.1-7.91c1-2-2.08-3.82-3-1.77Z"/><path class="cls-2" d="M240.38,291.06a12.7,12.7,0,0,0,2.3,7.64c.88,1.23,2.39,1.95,3.23,3.09,1.64,2.25-.09,4.77-.69,7.16-1.91,7.69-2.41,16.59.37,24.15,2.21,6,7.11,11.14,13.74,11.8,4.22.42,7.61-2.53,11.71-2.37,1.77.06,3.75,1.26,5.56,1.53a20.17,20.17,0,0,0,5.32.05c14.31-1.64,26.48-17.92,26.95-31.78.17-4.86-.21-9.18,2.57-13.49,2.54-3.93,6.38-7,9.64-10.28,5.54-5.61,10.71-12.1,12.13-20.06,1.59-8.91-1.28-17.77-5.39-25.61-1.15-2.2-3-4.37-3.9-6.65-1.7-4.11-.37-5.29,3.3-6.8,4-1.65,7.34-3.31,10.46-6.44a1.76,1.76,0,0,0-2.49-2.49c-3.21,3.22-6.64,4.44-10.62,6.23-1.75.79-3.64,1.75-4.68,3.45-3,5,3.18,11.08,5.29,15.25,4.3,8.44,6.9,18.31,3.06,27.41-3.22,7.64-9.6,12.94-15.26,18.72-4.44,4.53-7.41,9.31-7.61,15.79-.15,4.69,0,8.76-1.94,13.19a45.37,45.37,0,0,1-6.28,10.52c-6.1,7.58-14.41,11.19-23.89,8.46a10.07,10.07,0,0,0-6.95.24c-5.24,2-9.67,2.32-13.9-2-6.88-7.07-5.91-20-3.56-28.72.65-2.42,2.64-5.6,1.27-8.1a7.07,7.07,0,0,0-2-1.91c-2.66-2.23-4.18-4.35-4.2-8,0-2.26-3.53-2.27-3.52,0Z"/><path class="cls-2" d="M242.8,286.26c-10.17-12.33-4-33.28,5-44.43,5.26-6.51,11.72-9.38,18.53-13.74,6.45-4.12,9.44-11.85,14.65-17.27,12.4-12.93,30-19.37,47.77-19.33a108.33,108.33,0,0,1,14.82,1.4c3.14.43,6.45.74,9.52-.28,4.83-1.61,8.14-6.53,6.51-11.53-.69-2.15-4.09-1.23-3.39.93,3.87,11.91-20.88,6-26.55,6a74.16,74.16,0,0,0-25.54,4A66.6,66.6,0,0,0,285,202.46c-6.75,5.3-10.9,11.73-16,18.42-4.78,6.23-13.47,8.43-19.28,13.81a48.31,48.31,0,0,0-11.34,16.13c-5,11.54-6.51,27.62,2,37.93,1.44,1.75,3.92-.75,2.49-2.49Z"/></g></g></svg>