<svg xmlns="http://www.w3.org/2000/svg" viewBox="0 0 302.83 472.15"><defs><style>.cls-1{fill:#979b3d;}.cls-2{fill:#38301f;}.cls-3{fill:#f6bc3c;}.cls-4{fill:#a5c08a;}</style></defs><title>dandy2</title><g id="Layer_2" data-name="Layer 2"><g id="dandelion"><path class="cls-1" d="M20.28,144.31a7.29,7.29,0,0,0-4.26-.94,2.71,2.71,0,0,1-1.17,0,2,2,0,0,1-.78-.63c-1.72-2.09-2.18-5.48-4.73-6.38A37.79,37.79,0,0,0,14,147.43,23,23,0,0,0,6.68,150a10.47,10.47,0,0,0-4.85,5.81A19.91,19.91,0,0,1,8,152c2.31-.74,5.09-.5,6.79,1.23-1.71.8-3.68.79-5.5,1.26s-3.72,1.76-3.83,3.65a1.5,1.5,0,0,1,1.3,1.67A14.37,14.37,0,0,1,15.8,158a1.7,1.7,0,0,1,.86.29c.7.53.39,1.76,1,2.37s1.46.29,2.2,0a19.21,19.21,0,0,1,7.26-.91,10,10,0,0,0,2.44,0c1.94-.37,3.44-2.19,5.4-2.26-1.79,2.29-4.51,3.62-7,5.2s-4.86,3.71-5.33,6.59c2.7-1.42,5.93-1.41,8.74-2.59,5.48-2.31,8.59-8.84,14.36-10.31A8.86,8.86,0,0,0,44,162.14a12.44,12.44,0,0,0-2.54,4.49,9.05,9.05,0,0,0,3.44-1.3l.92,7.59a3.93,3.93,0,0,1,4.48-2,14.61,14.61,0,0,0,0-4.33l2.42,2.91a3.28,3.28,0,0,0-1.15,3.69,5.56,5.56,0,0,0,2.72,3,3.68,3.68,0,0,0-1,3.12l2.27-.14a5.16,5.16,0,0,0,1.1,7.55c1.92,1.17,4.82,1.22,5.66,3.3.25.63.25,1.34.47,2s.82,1.26,1.49,1.12a1.34,1.34,0,0,0,.84-.71c1-1.71-.35-3.86-2-5s-3.62-1.72-4.93-3.18-1.33-4.32.53-4.94c-.19.82.72,1.52,1.56,1.57a14.1,14.1,0,0,0,2.48-.41c2.6-.31,4.89,1.87,6,4.26A27.07,27.07,0,0,1,71,192.21c1.65,50.72.81,57.12.81,57.12-4.49,34.18.44,27.14-4.17,61.53A503.46,503.46,0,0,1,55.24,373c-6.17,22.77-8.8,31.89-8.8,31.89-6.86,23.76-9.77,31.4-8.2,32.17,1.82.88,9.82-7.39,12.3-17.73,1.38-5.73,0-7.8,2.23-13.76,2.42-6.57,4.72-5.86,7.44-12.33,3.25-7.72.6-10.21,4.33-18.13,2.14-4.53,3.34-4.41,5.25-8.43,3.8-8,2.57-15.94,2.24-18.71-2-16.95,6.84-32.43,8.19-73.67,1-30.75-2.8-56.51-1.69-71.24.37-5,1.27-8.17,0-13.22-1-4-3-7.19-1.77-11.39.11-.37,1-3.51,2.62-3.65,1.36-.12,2.35,2,3.74,1.62.81-.22,1.11-1.09,1.83-1a1.55,1.55,0,0,1,1,.79c1.21,1.85,5.07,5.05,7,4.35,1-.35,1.57-1.78,1.24-2.26-.2-.29-.73-.15-1.4-.14A6,6,0,0,1,87.37,175a2.29,2.29,0,0,1-.16-2,1.63,1.63,0,0,1,1.59-.9c.7.13.69.91,1.46,1.19a1.82,1.82,0,0,0,2.23-.82c.25-.79-.57-1.77-1.35-1.95-.55-.13-.76.21-1.22,0-.69-.25-1-1.3-1-2.12,0-1.13.67-1.58,1-2.42.88-2.27-1.41-5.26-2.3-6.43-.75-1-3.54-4.36-4.08-5.76a.79.79,0,0,1,0-.66c.21-.39,1-.44,1.5-.26.7.24,1,.84,1.26,1.22,1.41,1.74,4.8-.34,6.84,1.17,1.74,1.28,1,4,2.12,4.27.92.2,2.37-1.27,2.28-2.49S96.13,155,94.9,154c-.77-.62-1.34-.94-1.34-1.49,0-.71,1-1,.86-1.52s-1.68-.79-1.88-.81c-1.06-.12-1.88.14-2-.19a.26.26,0,0,1,0-.27c.18-.32,1-.18,1.52-.07,3.27.7,5.61,2.53,7.15,1.72a1.92,1.92,0,0,1,1.26-.39,1.65,1.65,0,0,1,1,.69c2.35,3.22,5.4,8,6.64,7.72.45-.11.67-.88,1.09-2.39.5-1.75.26-2.41.6-2.55,1-.43,5.3,4.7,6.86,5.66a1.35,1.35,0,0,0,1,.25,1.28,1.28,0,0,0,.71-.5c.84-1.05,2.48-3.1,1.84-4.79-.41-1.07-1.55-1.48-2.61-1.94a24.31,24.31,0,0,1-8.9-6.4,8.87,8.87,0,0,0,3.24,1.31c1.45.23,3.31,0,3.45-.56s-2.38-2-4.35-2.68c-3-1-5-.65-5-1s3.77-2.24,7.61-1.21,5.66,4.39,6.77,3.71c.65-.4.67-2,.08-2.88a5.61,5.61,0,0,0-2.58-1.63c-.61-.22-1-.28-1.22-.65-.07-.14-.23-.57.32-1.47,1.15-1.88,3.65-2.87,5.44-4.2,2.8-2.07,4.14-5.16,3.85-5.41s-2,1.68-4.07,3.31c-7.38,5.93-16.69,7.16-16.94,6.51-.08-.21.8-.55,7.13-4.3a62,62,0,0,0,6.25-3.9c4.95-4.46,5.5-11.61,5.06-11.77s-1,3.79-4.68,6.48c-2.84,2.1-6.55,2.77-6.93,2.1-.21-.38.54-1.32.72-1.55a10.1,10.1,0,0,1,1.26-1.16c0-.08-2,1.42-2.57,1s-.14-2,.66-3.11c.52-.71,1-.88,1-1.39a1.68,1.68,0,0,0-1.5-1.34,2.67,2.67,0,0,0-2,1c-2.5,2.29-3.76,4.62-4,4.51s.17-1.06.51-1.84c.49-1.09.93-1.53.77-1.74s-1.12,0-1.67.33c-.9.46-1.3,1-1.41,1s.77-1.25,1.16-2.93c.05-.24.56-2.46-.16-2.86-.94-.53-3.41,2.47-3.78,2.15s.58-1.92,1.38-4.63c.08-.28.2-.72,0-1-.36-.41-1.57-.2-2.25.47-.85.85-.24,1.81-.91,2.73-1,1.34-3.84,1.5-4.67.44-.5-.65.09-1.31.12-3.6,0-1.46-.19-3.49-.64-3.54-.73-.09-2,5.27-2.27,5.2s.53-2-.09-4.18c-.53-1.86-1.92-3.55-2.52-3.34s-.57,2.92,0,5c.71,2.74,1.82,3.23,1.66,4.94-.2,2.07-2.08,3.89-2.91,3.62-1.1-.35-.69-4.42-1.39-4.48-.44,0-.89,1.49-1.52,1.4a.51.51,0,0,1-.3-.19"/><path class="cls-2" d="M21.17,142.79c-2.56-1.14-5.21-.66-6.82-3-1.38-2-1.85-3.76-4.13-5a1.78,1.78,0,0,0-2.58,2,44.88,44.88,0,0,0,4.8,11.51l1.05-2.58c-5.95,1.32-11,3.66-13.36,9.58C-.6,157.15,1.89,158,3.07,157c3.12-2.46,7-5.14,10.8-2.28l.42-3.22c-4.11,1.45-9.28,1-10.56,6.14a1.8,1.8,0,0,0,.81,2l.49.62a1.79,1.79,0,0,0,2.59,1c1.44-.73,4.8-2.29,6.62-1.68,3,1,.26.69,1.93,1.91a4.43,4.43,0,0,0,3,1.12c2,0,4-1.07,6.12-1.16a38.23,38.23,0,0,0,4.28.05c2.16-.35,3.73-1.9,5.87-2.32l-1.71-3C29.53,161,22.87,162.21,21,168.86a1.78,1.78,0,0,0,2.58,2c4.2-1.82,8.42-1.82,12.16-4.7,3.52-2.72,6.13-6.59,10.51-8l-2-2.59c-1.19,1.87-1.4,3.73-2.17,5.73-.64,1.67-1.72,3.16-2.36,4.89-.5,1.33,1,2.45,2.16,2.17a14.69,14.69,0,0,0,3.86-1.48l-2.65-1.52.92,7.59a1.78,1.78,0,0,0,3.28.89l3-1.16c1,.1,1.68-.88,1.76-1.76a20.89,20.89,0,0,0,0-4.33l-3,1.25,2.42,2.91v-2.49c-3.35,3.23-1.43,7.17,1.93,9.46l-.63-2.41a6.17,6.17,0,0,0-1.28,4,1.78,1.78,0,0,0,1.76,1.76l2.27-.14L54,178.27a7.09,7.09,0,0,0,.42,8.9c1.56,1.64,4,1.42,5.56,2.83,1.24,1.15.83,3.14,2.28,4.22,2.19,1.62,4.61-.27,4.88-2.66A5.53,5.53,0,0,0,66,187.91c-.84-1.2-8.13-6-6.43-7.09l-2.59-1c.57,1.53,1,2.44,2.79,2.8.75.14,1.46-.22,2.18-.15,4.5.43,5.2,2.72,6.35,6.1,2.23,6.51,1.31,14.46,1.5,21.29.24,9.22.45,18.43.49,27.65,0,8.52-.92,16.29-1.67,24.81-.67,7.66-.49,15.25-.55,22.92-.1,12.25-1.84,24.49-3.76,36.57-3.44,21.68-8.57,42.87-14.37,64C45.78,401,40.75,416,36.9,431.31c-.59,2.35-2.18,7.93,2.13,7.54,2.68-.24,5.17-3.64,6.63-5.53a34.86,34.86,0,0,0,7.13-16.55c.83-6.28,1.08-11.26,5.16-16.53a27.12,27.12,0,0,0,5.81-13.72c.71-6.06,2-10.65,5.61-15.68A29,29,0,0,0,74.24,354c0-7.49-1-14.3.21-21.82,1.42-8.95,3.43-17.79,4.76-26.75,4.46-30.18,2-60,1-90.26a155.31,155.31,0,0,1,.6-17.12,28.13,28.13,0,0,0-1.1-10.32c-.69-2.4-3.69-10.43.62-10.47.19,0,1.33.78,1.79.84.08,0,3.19-.68,2.26-1,.07,0,1.59,1.89,1.61,1.91a13.88,13.88,0,0,0,3.27,2.49c2.87,1.49,6.82.8,6.6-3.2a1.82,1.82,0,0,0-1.29-1.69c-1.13-.4-7.36-1.78-5.17-1.8,1.17,0,1.83.55,3.06,0a3,3,0,0,0,1-4.75c-.52-.64-1.6-.76-2-1.25a2.31,2.31,0,0,0-.87,0l.92-1.9a6.58,6.58,0,0,0,.41-1.83c.13-3-2-5.46-3.72-7.66-.6-.78-1.38-2.35-2.16-2.89-.4-.27-1.66-1.19-1.21.5.28,1.05,2.18,1.42,3,1.55,2.63.41,3.37-.39,5,2.22.56.89.45,1.77,1.56,2.3,1.84.88,4.1-.88,4.68-2.61a3.79,3.79,0,0,0-.33-3.15c-.68-1.3-3.32-2.46-2.74-3.49a1.8,1.8,0,0,0-.28-2.13c-1.5-1.41-2.8-1-4.69-1.45l1.3,1.7,0-.27-1.3,1.7c1.58-.49,3.83,1.12,5.37,1.53.9.24,2.58-.13,3.31.12,2.46.85,3.75,5.5,6.25,7.21,1.39,1,2.69,1.22,3.9-.16.51-.58,1.64-3.42,1.32-4.06-.42-.81-1.07,0-1,.54a15.59,15.59,0,0,0,2,1.78c3.31,3.19,7,5.93,9.38-.21,2.79-7.34-8.55-7.34-11.32-12.33l-2.41,2.41c2.46,1.35,5.93,2.6,8.47.75a1.79,1.79,0,0,0,.8-2c-.71-1.79-2.21-2.53-3.93-3.28-1.88-.82-4.63-.58-6.24-1.44l.36,2.76c2.33-3,7.78.09,9.92,1.6.83.58,1.67,1.51,2.77,1.5,2.63,0,3.19-3.25,2.22-5.19-.63-1.27-1.82-1.46-2.66-2.4s-1,.51-.43-.67,3.2-2.09,4.25-2.89c1.85-1.4,5-4.29,4.72-6.93a1.78,1.78,0,0,0-2.22-1.7c-2.15.66-4.06,3.22-5.82,4.49a31.38,31.38,0,0,1-10,4.71c-.78.21-2.56.22-3.22.67-1,.69-.92,2.34.07,2.6s4.86-2.82,5.67-3.3c4.33-2.55,8.44-4.61,10.87-9.22,1.19-2.27,3.23-6.73,1.81-9.29a1.79,1.79,0,0,0-2.76-.36c-.83.66-1.09,2.1-1.61,3-.85,1.44-5.54,6.67-7.87,5.32l.81,2a4.58,4.58,0,0,1,1.52-1.92c1.62-1.31-.44-3.65-2.13-2.77-.53.28-1,.75-1.68.72l1.7,1.29c-.39-1.3,1.87-2.94,1.62-4.49a3.37,3.37,0,0,0-2.52-2.49c-3.82-1-5.13,3.92-7.57,5.6l2.65,1.52c.08-.68,1-2.17,1.21-3.12a1.77,1.77,0,0,0-1.69-2.22c-1.61-.09-2.68.65-4,1.55l2.58,2c.79-2.38,2.23-4.7.82-7.15a1.75,1.75,0,0,0-1.52-.87c-2,0-2.57,1.8-4.25,2.22l2.23,1.69c-.2-1.94,2.25-4,1.31-6.06a2.84,2.84,0,0,0-3.82-1.18c-1.26.51-3.09,4.26-4,3.36-.33-.34.12-3.48,0-4.2a4.94,4.94,0,0,0-1-2.26,1.78,1.78,0,0,0-2.14-.27c-1.93,1.15-1.78,4.43-2.62,5.47l3,1.25c0-3.3,0-8-3.9-9.22a1.82,1.82,0,0,0-2,.81c-1.66,2.16-.3,5.72.34,8a19.36,19.36,0,0,1,.77,3.11c.65,4.1.14.72-.11-.26a3.91,3.91,0,0,0-.91-2.1,1.81,1.81,0,0,0-2.49,0c-1.07.88-.59.38.32.94-1.93-1.19-3.7,1.85-1.77,3l.3.19a1.75,1.75,0,0,0,1.77,0,13.52,13.52,0,0,0,1.87-1.68H85.24c.92,1-.13,3.37,1.4,4.49,1.15.85,2.34.46,3.45-.29a6.34,6.34,0,0,0,2.46-4.58c.11-2.69-3.69-6.7-1.87-9.07l-2,.81c2.08.62,1.31,4.36,1.32,5.82s2,2.48,3,1.24c.85-1.05,1.12-4.45,1.91-4.92l-2.13-.28c1.29,1.67-1,4.84.24,6.79.91,1.46,3.06,1.75,4.6,1.44s3.41-1.42,3.63-3.23c.47-3.8-.94-1.29-1.47.49a5.93,5.93,0,0,0-.54,2.36,1.79,1.79,0,0,0,2.23,1.7,7.38,7.38,0,0,0,2.88-1.94c-.55.56-.47-.89-1.11.48a28.11,28.11,0,0,0-1.15,2.94,1.77,1.77,0,0,0,2.58,2,6.19,6.19,0,0,1,2.19-1.06l-1.7-2.23c-.36,1.42-1.16,2.55-1.34,4a1.77,1.77,0,0,0,2.65,1.52c.84-.59,4.54-5,4.37-5.17-.55-.67-1.43,3.25-1.08,4.45a1.82,1.82,0,0,0,1.7,1.29c1.36.07,2.27-.58,3.46-1.2l-2.14-2.76a6.39,6.39,0,0,0-2.43,3.48,1.82,1.82,0,0,0,.81,2c2.42,1.4,6-.37,8.08-1.69a13.47,13.47,0,0,0,3.65-3.45c.57-.78,1.29-3.14,2-3.72l-2.77-.35c-.41-.74-.28,1.26-.43,1.94a15.09,15.09,0,0,1-2,4.91c-2,3.12-5.14,4.59-8.23,6.41-1.44.85-8,3.28-8,5.76,0,3.06,4.81,1.77,6.38,1.41a34.58,34.58,0,0,0,9.18-3.62,33.58,33.58,0,0,0,4.38-3c.85-.68,2.26-2.54,3.3-2.86l-2.23-1.69c.31,3.67-14.93,8.83-7.87,13.16.55.34,3.66,1,3.65,1.41a17.93,17.93,0,0,0-2.23-1.75,12.36,12.36,0,0,0-4.8-2.13c-2.38-.44-6.81-.4-8.51,1.8a1.8,1.8,0,0,0,.36,2.77c2,1.05,7.59.21,8.55,2.61l.81-2c-1.85,1.35-3.49,0-4.91-.75a1.78,1.78,0,0,0-2.41,2.41,12,12,0,0,0,3.06,3.05,31.17,31.17,0,0,0,3,2.17c1,.6,4,1.42,4.48,2.28,2.74,4.48-.84,2.72-1.63,2.23-1.1-.68-2-2-3-2.88a5.53,5.53,0,0,0-3.37-1.78,1.74,1.74,0,0,0-1.52.87,7.52,7.52,0,0,0-.77,3c-.26,2.27-.21.6-.66-.43-.71-1.63-3.31-5.65-5.13-6.48-1.51-.68-2.83.07-4.36-.06-2.5-.22-4.6-2.35-7.24-1.54a1.82,1.82,0,0,0-1.29,1.7l0,.27A1.76,1.76,0,0,0,90,151.7c.93.24,2.45-.1,3.13.54l-.27-2.13c-1,1.77-1.49,2.62-.2,4.37q1.1.87,2.16,1.77c1.23,2.06,1.59,2.26,1.1.6a5.4,5.4,0,0,0-1.61-2.76c-2-1.71-5.14-.87-7.33-1.83-1.76-.76-2.44-1.63-4.41-.57a1.73,1.73,0,0,0-.87,1.52c.13,4.44,5.9,6.69,6.46,10.9.31,2.42-1.9,4.09-.57,6.53.38.7,2.6,2.81,3,1.25.55-2.18-5-1.54-5.24,1.71a5.6,5.6,0,0,0,2.3,4.54c1.94,1.61,3.75,1.13,5.93,1.9l-1.29-1.7c.08,1.52-5.28-3.59-5.53-3.77-1.55-1.15-1.67-.33-3.23-.43-3.2-.21-5.41-2.27-7.6,1.54-2.08,3.61-1.3,7.63-.19,11.38,2.07,7,1,12.94.81,20C76.35,218,77.41,229,78,239.88A380.62,380.62,0,0,1,78,283.53a282.33,282.33,0,0,1-4.45,34.15c-1.34,7.14-3,14.31-3.47,21.58-.63,9.51,2.61,19-2.51,27.89-2.55,4.45-5.61,8-6.66,13.23-1.13,5.69-.87,10.92-4.37,16-3,4.37-5.79,7.75-6.67,13.28-1,6.21-1.06,11.66-4.27,17.38a28.14,28.14,0,0,1-4.94,6.68c-.5.48-1.88,1.15-2.18,1.68l1.1.75v-.23c.92-1.43,1-5,1.51-6.63,4.29-15.19,8.88-30.28,13-45.52a569.71,569.71,0,0,0,13.71-62c1.8-11.52,3.48-23.17,3.72-34.85.14-7-.19-13.92.28-20.9.67-10,2-19.32,2-29.28-.06-10.59-.33-21.18-.63-31.77-.18-6.44.29-12.89-2.07-19-.87-2.25-1.93-4.47-4-5.92-.66-.48-7-1.79-6.78-1.23a1.79,1.79,0,0,0-2.59-1.05c-3.7,2.28-2.43,6.68.57,8.94.69.52,6.07,3.24,5.83,3.8.22-.53-.78-2-1-2.29C61,185.4,53.37,185.41,57,180a1.77,1.77,0,0,0-1.52-2.65l-2.27.14L55,179.29l.8-2.24a1.78,1.78,0,0,0-.63-2.4l-1.22-3.93a1.8,1.8,0,0,0,0-2.49l-2.42-2.91a1.77,1.77,0,0,0-3,1.24,20.89,20.89,0,0,1,0,4.33l1.76-1.76c-2.74-.24-4.43.75-6,2.9l3.28.89-.92-7.59A1.79,1.79,0,0,0,44,163.81a7.64,7.64,0,0,1-3,1.12l2.16,2.17c.61-1.62,1.82-2.75,2.45-4.28.84-2,.43-3.47,1.73-5.5a1.78,1.78,0,0,0-2-2.58c-3.93,1.27-6.49,3.9-9.47,6.64-4.31,4-8.95,4.22-14,6.43l2.58,2c1.53-5.44,8.28-7.08,11.84-11a1.77,1.77,0,0,0-1.71-2.94,19.06,19.06,0,0,0-3.65,1.5c-2,.82-3.49.58-5.57.65a40.7,40.7,0,0,0-4.12.53c-3.26.39-1.05.29-2.79-.76s-1.81-1.6-4.16-1.64a17.79,17.79,0,0,0-8.4,2.16l2.59,1.05a3.41,3.41,0,0,0-2.12-2.72l.81,2c.72-2.87,5.86-2.89,8.11-3.69a1.78,1.78,0,0,0,.42-3.21c-5.24-4-10.66-.65-15.06,2.84l2.94,1.71c1.87-4.67,6.44-6.13,10.9-7.13a1.77,1.77,0,0,0,1.05-2.58A42.2,42.2,0,0,1,11,135.86l-2.58,2c2.49,1.35,2.47,4.32,4.38,6.11s4,.73,6.56,1.87c2.06.91,3.85-2.12,1.78-3Z"/><path class="cls-3" d="M126.25,130.09c-.25-.23-2,1.68-4.07,3.31-7.38,5.93-16.69,7.16-16.94,6.51-.08-.21.8-.55,7.13-4.3a62,62,0,0,0,6.25-3.9c4.95-4.46,5.5-11.61,5.06-11.77s-1,3.79-4.68,6.48c-2.84,2.1-6.55,2.77-6.93,2.1-.21-.38.54-1.32.72-1.55a10.1,10.1,0,0,1,1.26-1.16c0-.08-2,1.42-2.57,1s-.14-2,.66-3.11c.52-.71,1-.88,1-1.39a1.68,1.68,0,0,0-1.5-1.34,2.67,2.67,0,0,0-2,1c-2.5,2.29-3.76,4.62-4,4.51s.17-1.06.51-1.84c.49-1.09.93-1.53.77-1.74s-1.12,0-1.67.33c-.9.46-1.3,1-1.41,1s.77-1.25,1.16-2.93c.05-.24.56-2.46-.16-2.86-.94-.53-3.41,2.47-3.78,2.15s.58-1.92,1.38-4.63c.08-.28.2-.72,0-1-.36-.41-1.57-.2-2.25.47-.85.85-.24,1.81-.91,2.73-1,1.34-3.84,1.5-4.67.44-.5-.65.09-1.31.12-3.6,0-1.46-.19-3.49-.64-3.54-.73-.09-2,5.27-2.27,5.2s.53-2-.09-4.18c-.53-1.86-1.92-3.55-2.52-3.34s-.57,2.92,0,5c.71,2.74,1.82,3.23,1.66,4.94-.2,2.07-2.08,3.89-2.91,3.62-1.1-.35-.69-4.42-1.39-4.48-.44,0-.89,1.49-1.52,1.4a.51.51,0,0,1-.3-.19l-.6.24a1,1,0,0,0-1.64.63l-3.61,1.39c-.1-.19-.19-.38-.28-.58a1.6,1.6,0,0,1-.19-.82c.14-1,1.79-.86,2.35-1.7s-.36-1.86-1.29-1.91a4,4,0,0,0-2.5,1.11,1.28,1.28,0,1,1-1.83.45c.15-.28.41-.49.59-.76a1.32,1.32,0,0,0-.39-1.87c-1-.46-1.94.83-2,1.92s.26,2.28-.33,3.2c-.72.25-1.34-.61-1.51-1.35s-.28-1.66-1-2a1.39,1.39,0,0,0-1.62.44,3,3,0,0,0-.58,1.7,1,1,0,0,0,.2.83,1.66,1.66,0,0,0,.74.28,1.63,1.63,0,0,1,.49,2.75l-1.29-1.53a.87.87,0,0,0-.43-.33c-.41-.1-.72.36-.79.77a2,2,0,0,1-.37,1.16A2.49,2.49,0,0,0,65,121.31a42.61,42.61,0,0,0,1.29,5.21l-.7.27a5.6,5.6,0,0,1-.07-.59,13.33,13.33,0,0,0-.13-1.54,6.08,6.08,0,0,0-2.73-3.52,1.46,1.46,0,0,1-1.27,1.17,1.14,1.14,0,0,1-1.18-1.13.91.91,0,0,1,1.37-.65c0-.71-1.09-1-1.6-.48a2.2,2.2,0,0,0-.45,2,6.44,6.44,0,0,1,.24,2.08,15.67,15.67,0,0,1-3.58-2.63,4.7,4.7,0,0,0,.91,4.13,6.88,6.88,0,0,1,1.5,2c.26.79-.35,1.9-1.15,1.66a1.36,1.36,0,0,1-.62-.47,4.4,4.4,0,0,1-.87-1.64,12.55,12.55,0,0,0-.59-2.38c-.37-.74-1.34-1.28-2-.81-.88.61-.68,2.46-1.75,2.49a1.56,1.56,0,0,0-2.53-1.16l-.1-2.15c0-.36-.09-.81-.44-.91a.66.66,0,0,0-.54.11,2,2,0,0,0-.61,2.23,23.89,23.89,0,0,0,1,2.27c.3.79,0,2.06-.81,1.9-.41-.08-.64-.5-1-.76a1.4,1.4,0,0,0-1.88.29,1.52,1.52,0,0,0-.63-1.77,2,2,0,0,0-2.25.29A2.64,2.64,0,0,0,41,129.1a23.42,23.42,0,0,0-1.58-3.64,1.47,1.47,0,0,0-.55,1.84A7.76,7.76,0,0,0,40,129.05a6.23,6.23,0,0,1,1,4.85c-.78-.31-.72-1.77-1.56-1.85a3.58,3.58,0,0,0-.64.07c-1.32.06-1.61-2.51-2.92-2.33A10,10,0,0,0,38,135.37a38.76,38.76,0,0,0-7.29-4.93,10.09,10.09,0,0,0,3.1,7.22,1.93,1.93,0,0,1-.85,1.68,2,2,0,0,1-2.46-.35,8.46,8.46,0,0,1-.89-1.78c-.32-.58-1-1.1-1.61-.86a1.5,1.5,0,0,0-.62.58,4,4,0,0,0-.5,3.33l-2.09-1.87a5.89,5.89,0,0,0,.28,4.05l-.23.09a2.88,2.88,0,0,0-2.31-.57,2.49,2.49,0,0,0-1.91,2.2l-.38.15a7.29,7.29,0,0,0-4.26-.94,2.71,2.71,0,0,1-1.17,0,2,2,0,0,1-.78-.63c-1.72-2.09-2.18-5.48-4.73-6.38A37.79,37.79,0,0,0,14,147.43,23,23,0,0,0,6.68,150a10.47,10.47,0,0,0-4.85,5.81A19.91,19.91,0,0,1,8,152c2.31-.74,5.09-.5,6.79,1.23-1.71.8-3.68.79-5.5,1.26s-3.72,1.76-3.83,3.65a1.5,1.5,0,0,1,1.3,1.67A14.37,14.37,0,0,1,15.8,158a1.7,1.7,0,0,1,.86.29c.7.53.39,1.76,1,2.37s1.46.29,2.2,0a19.21,19.21,0,0,1,7.26-.91,10,10,0,0,0,2.44,0c1.94-.37,3.44-2.19,5.4-2.26-1.79,2.29-4.51,3.62-7,5.2s-4.86,3.71-5.33,6.59c2.7-1.42,5.93-1.41,8.74-2.59,5.48-2.31,8.59-8.84,14.36-10.31A8.86,8.86,0,0,0,44,162.14a12.44,12.44,0,0,0-2.54,4.49,9.05,9.05,0,0,0,3.44-1.3q.45,3.79.92,7.59a3.64,3.64,0,0,1,1.35-1.51,2.68,2.68,0,0,1-.72-.67c-1.48-2-1-3.73.54-5.49l.27-.31.95.12A2,2,0,0,1,48.7,163a12.66,12.66,0,0,1,2.71-2,13.21,13.21,0,0,0,1.38-.86c.15-.12.52-.67.37-.26.8-2.15,4.15-1.94,4.15.56v5.81a1.92,1.92,0,0,1-.79,1.63,21.37,21.37,0,0,0-.22,3,2.09,2.09,0,0,0,0,.26c.37.06.88.23,1.08.26,1.15.17,2.31.21,3.45.33a2.25,2.25,0,0,1,2,2c.43-.2.87-.38,1.3-.55a2.18,2.18,0,0,1-.56-1.41V168.7a2,2,0,0,1,.34-1.12,2.15,2.15,0,0,1,1.54-1.88c.28-.1.56-.17.84-.24,0-.18.07-.37.1-.55A2.12,2.12,0,0,1,70.47,166c0,.23-.09.46-.14.69,0,0,0,.26-.08.4s0,.19,0,.31l0,0a1.75,1.75,0,0,1,.29,1.07,2.2,2.2,0,0,1,1.54.11l.56.25a1.63,1.63,0,0,1,1.2-.78,33,33,0,0,1,3.58-.6c.19-.57.35-1.16.51-1.75a.79.79,0,0,0-.23-.73,2,2,0,0,1-.84-2.6,2.13,2.13,0,0,1,1.74-3.28,2,2,0,0,1,2,2.41l.42.16a5.48,5.48,0,0,1,2-1.25,4.24,4.24,0,0,1,2.53-.1,1.76,1.76,0,0,1,.48-1c-.39-.61-.76-1.37-1.2-2-.4-.37-.78-.75-1.15-1.13h-.24c-2.72,0-2.71-4.22,0-4.22a2.06,2.06,0,0,1,1.1.29,1.82,1.82,0,0,1,1.42.32l.43.34h0l0,0a8.54,8.54,0,0,1,1.37,1.45,5.25,5.25,0,0,0,.53.43c1.33-1,2.89-1.06,4.53-1.18a7.56,7.56,0,0,1,.14-.83c-2.57-.16-2.52-4.22.15-4.22a2,2,0,0,1,2,1.94h.07a1.93,1.93,0,0,1,1.69.87,19.24,19.24,0,0,1,4,.66,1.85,1.85,0,0,1,1.27.87l.11,0c2.18,3.06,4.64,6.68,5.72,6.43.45-.11.67-.88,1.09-2.39.5-1.75.26-2.41.6-2.55,1-.43,5.3,4.7,6.86,5.66a1.35,1.35,0,0,0,1,.25,1.28,1.28,0,0,0,.71-.5c.84-1.05,2.48-3.1,1.84-4.79-.41-1.07-1.55-1.48-2.61-1.94a24.31,24.31,0,0,1-8.9-6.4,8.87,8.87,0,0,0,3.24,1.31c1.45.23,3.31,0,3.45-.56s-2.38-2-4.35-2.68c-3-1-5-.65-5-1s3.77-2.24,7.61-1.21,5.66,4.39,6.77,3.71c.65-.4.67-2,.08-2.88a5.61,5.61,0,0,0-2.58-1.63c-.61-.22-1-.28-1.22-.65-.07-.14-.23-.57.32-1.47,1.15-1.88,3.65-2.87,5.44-4.2C125.2,133.43,126.54,130.34,126.25,130.09ZM33.7,137a1.71,1.71,0,0,1,.15.71A.94.94,0,0,1,33.7,137Zm55.07,14.17a1.9,1.9,0,0,1-1.69-.88,2.07,2.07,0,0,1-.57.07,2,2,0,0,1-2-1.71,2,2,0,0,1-.33-.24h-.24c-2.72,0-2.72-4.22,0-4.22a2,2,0,0,1,1.37.5h.24a2,2,0,0,1,2,1.7,2,2,0,0,1,.65.63,2.54,2.54,0,0,1,.57-.07C91.49,146.9,91.49,151.12,88.77,151.12Zm10.88,0a1.27,1.27,0,0,1,.81-.14,1.37,1.37,0,0,1,.68.38C100.65,151.27,100.15,151.2,99.65,151.13Z"/><path class="cls-2" d="M126.19,129.88c-1.79.54-4,3.33-5.44,4.33a32.89,32.89,0,0,1-10.34,4.86,14.62,14.62,0,0,1-3.63.73c-1.28,0-1.18.56-.71-.27.73-1.27,4.46-2.58,5.68-3.3,4.11-2.42,8-4.3,10.31-8.66.92-1.76,2.91-5.77,1.81-7.74a.22.22,0,0,0-.34,0c-.82.65-1.11,2.28-1.66,3.15a11.82,11.82,0,0,1-5.48,4.65,7.86,7.86,0,0,1-2.38.84c-.7-1.14-.64-2,.19-2.45.21-.16,0-.46-.26-.35-3,1.56-.13-2.31-.62-3.35-.42-.89-.52-1.34-1.63-1.55s-1.55.55-2.26,1c-1.84,1.29-3.36,5.14-2.34,1.14a.21.21,0,0,0-.21-.27c-1.25-.07-.31.26-1.79.36-1.85.13-.45.72-.17-1,.22-1.36.82-2.46.07-3.77a.21.21,0,0,0-.19-.11c-1,0-1.4.91-2.21,1-2.74.39-.55.73-1,0-.17-.26,1.09-3.06,1.07-3.21-.07-.81.33-1.27-.78-1.44-1.73-.27-1.44,1.33-2.38,1.77l-4.66.18a4.9,4.9,0,0,0,.06-.77c-.34-.56.16-2.34-.09-3s-.16-.88-.56-1.4a.23.23,0,0,0-.27,0c-.56.34-.64.9-1,1.45a13.05,13.05,0,0,0-.73,2.13c-.37,1.15,0,1.24-.2,1-.42-.47-.23-3.88-.71-4.8a3.71,3.71,0,0,0-2.12-2.1.23.23,0,0,0-.25.1c-1.43,1.85.14,4.67.42,6.62.34,2.28,1.41-.84-.72,3.52-2.54,5.17-.56,1.43-1.57-.08-.26-.39-.11-.65-.46-1a.23.23,0,0,0-.31,0,55.16,55.16,0,0,1-7.3,3.32c-.72-.73,2.26-2.48,2-3.71-.51-2.16-3.25-.7-4.2-.07a.23.23,0,0,0-.08.3c2.15,3.57-4.22-5.42-.63-1.47-.22-.24-.32-.79-.66-1-.89-.49-1.52.22-2,.84-1.37,1.82,1.27,2.59-2.13,1.78-1.11-.26-.65-1.52-2.19-.69a2.43,2.43,0,0,0-1.06,2.19c-.06,2,.16.44.29,1,1.45,5.84.76,0-.22.82-1.49,1.21-1.23.67-3-.23a.22.22,0,0,0-.32.25,35.8,35.8,0,0,1,1.09,5.07c0-.33-.61-2.42-.27-1.81A9,9,0,0,0,62.84,121a.23.23,0,0,0-.35,0l-.89-.28c.2,0,.27-.25.16-.38-.61-.67-.88-1.19-1.92-.47-2,1.41,1.45,5.83-3.47,1.42a.23.23,0,0,0-.38.16c-.18,1.86.79,2.64.94,4.24.18.21.06.44-.35.69-.42,1-.63.85-.63-.56-.24-.22-.16-1-.37-1.22-1-1.23-1.54-1.07-2.65-.49s-1.7,2-3.1.55c-.4-.41-.36-2.54-1.22-2.71-1.52-.29-1.28,1.78-1.43,2.56-.24,1.17,2.34,2.17-.47,3.22-.24.09-.89-.21-1.21-.22-1.2,0-.91-1.66-2.65-1.48-3.06.32-.92,3.94-3.26-.71a.22.22,0,0,0-.34,0c-.73.93-.82.75-.62,2,.06.35.43.66.55,1a4.19,4.19,0,0,1,1.21,2.58c1,1.59,1,2.09-.11,1.49-1,.24-3-2.47-4.29-2.81a.21.21,0,0,0-.28.21c.07.53.84,4.52,1.2,4.38-.24.1-5.69-3.73-6-3.92-.14-.07-.35,0-.33.19a10.23,10.23,0,0,0,.56,3.28c.16.47,1.55,2.83,1.53,2.89-1,4.79-2.86-.1-3.63-.35-3.25-1.08-.89,4.76-4,2-.12-.1-.34-.08-.37.09.09-.55-.65,3.46-.13,2.85-1.49,1.73.38-.57-1.92.56-.77.38-1.18,1-1.83,1.38-.09,1.17-.65,1.3-1.69.4a4,4,0,0,0-1.5-.34c-2.44-.79-1.16,1.6-4-1.54-1.7-1.91-1.73-4.19-4.14-5.5a.23.23,0,0,0-.33.25A43.6,43.6,0,0,0,11.36,143c.63,1.41,2.17,3,1,4.58-.43.58-3,.89-3.69,1.19a12.26,12.26,0,0,0-7.08,7c-.09.23.22.33.37.22,2.46-2,6.83-5.41,10.25-3.9s-2.8,2.11-3.59,2.42a4.93,4.93,0,0,0-3.44,3.61.24.24,0,0,0,.1.25l1.21,1.54a.23.23,0,0,0,.32.13,12.54,12.54,0,0,1,5.87-1.76c2.08.08,2.59.59,4.38,1.75.23.15.2.77.54.9,1.59.6,2.34-.1,4.09-.45,2.63-.54,5.35.1,7.9-.42,1.15-.23,2.24-1.42,3.29-1.56,2.23-.31-.73,1.39-1.26,1.77-1,.7-2.08,1.28-3.11,1.94-2.85,1.82-5.11,3.76-6.05,7.11a.23.23,0,0,0,.33.25c3.19-1.39,6.8-1.48,9.87-3.15,2.49-1.35,4.37-3.51,6.45-5.39,1-.88,3.17-3.63,4.44-3.45,2,.29,1,.46.43,2.28-.78,2.38-1.91,4.44-2.78,6.76a.22.22,0,0,0,.27.27c1.48-.34,1.82-.93,2.9-.17,1.24.86,1,4.84,1.18,6.25A.22.22,0,0,0,46,173l1.31-1.46a.23.23,0,0,0,0-.32q-2.56-6.65.89-6a.22.22,0,0,0,.22-.22c.18,3.5,3.64-5.93,4.59-5a.23.23,0,0,0,.35,0c2.67-.8,3.91-.41,3.74,1.18v1.69a15.82,15.82,0,0,1,0,2.92c-.43,2.1-1,3-1,5.35a.22.22,0,0,0,.16.21c1.86.46,5.62.27,6.37,2.42a.21.21,0,0,0,.27.15l1.3-.55c.1,0,.21-.15.16-.27-.92-2.3-1.21-6.56,2-7.44a.2.2,0,0,0,.15-.16c2.79-.44,4,.08,3.53,1.54a1.55,1.55,0,0,0,0,.22c-.14-.08.84,3.34.3,1.32a.24.24,0,0,0,.22.16l2,.33a.23.23,0,0,0,.27,0c1.06-1.13,3.28-1.13,4.68-1.32a.21.21,0,0,0,.15-.15,4.59,4.59,0,0,0,.26-2.66c0-.11-.86-2.29-.81-2.43a.11.11,0,0,0,0-.08c-.16-1.15.94-1.43,3.32-.84a.24.24,0,0,0,.16.21L81,162a.23.23,0,0,0,.22-.06l4.35-1.29a.21.21,0,0,0,.19-.11c.8-1.61.31-1.45-.72-3.2-.17-.28-1.13-.9-1.23-1.21-.74-2.41.23-4.66,2.44-2.92a.22.22,0,0,0,.31,0c-.22.28,1,1.39,1.62,1.9a.23.23,0,0,0,.26,0l4.42-1.15c.09,0,.2-.06.21-.16l.14-.83a.22.22,0,0,0-.15-.27l1.91-2a.21.21,0,0,0,.21.16c1-.08,7.13,2.58,6.9,2.33a.21.21,0,0,0,.22.06c.55-.21,3.64,6.07,5.17,6.27,1.11.15,1-.2,1.54-1.16.92-1.57-.1-3.53,2.11-2.93,1.21.33,2.71,2.54,3.59,3.36.72.67,1.81,2,3,1.82,1.36-.25,2.72-2.94,2.82-4.16.19-2.42-1.71-2.88-3.55-3.82a29.28,29.28,0,0,1-6.18-4c-.43-.38-1.2-.87-1.45-1.38s-.82.05-.19.06c2.28,0,3.94,2.17,6.34.42a.21.21,0,0,0,.1-.24c-.52-1.31-2-1.85-3.22-2.36s-3.37-.51-4.32-1.16-1.56.09-.21-.88c3-2.17,7.65.52,10.06,2.24a8.41,8.41,0,0,0,1.41,1.09c.66,0,.57.51,1.26.1,1-.58.53-2.41.11-3.11-1.16-1.93-2.51-.71-2.7-3.14-.31-3.88,9-5.15,8.53-10.13,0-.28-.46-.29-.44,0,.42,4.93-7.63,5.79-9.26,9.5-.78,1.78-.19.94.26,2.18.08.2,3.19,3.6,2.46,4.22-.08.07-1.83-1.47-2.23-1.75a11,11,0,0,0-4.42-2c-1.9-.34-5.65-.37-7,1.4a.23.23,0,0,0,0,.35c1,.5,2.56.36,3.41.55s3.78.79,4,1.44c1.51,3.88-3.82.94-4.55.54a.22.22,0,0,0-.3.3,11,11,0,0,0,2.82,2.74c2,1.56,5.65,2.54,7.22,4.21,4.58,4.91-1.22,6.16-3.5,4.65a40.38,40.38,0,0,1-3-2.88,4,4,0,0,0-2.28-1.33.2.2,0,0,0-.19.11c-.57,1-.1,2.49-.8,3.24-2.13,2.27-5-3-6.23-4.74a.24.24,0,0,0-.25-.1,35.59,35.59,0,0,0-4-1.37,21.73,21.73,0,0,0-3-1c-.91-.75-1-2.77-3.12-1.73-1.83.89-.9,2.24-.79,3.61s1.32-.16-.18,1.37-3.6.29-4.62-.79a.23.23,0,0,0-.32,0c-.26.32-3.91-2.2-4.91.49-1.2,3.21,6.09,4.28,3,6.68C81.38,162.26,81,159,78.57,159c-3.22,0-1.72,3.63-1.86,5.34-.19,2.39-1.38,4-3.73,3.93-.27,0-.59.29-.9.21-2.24-.54-1.06-1.14-1.4-2.34-.57-2-1.31-3.94-3.86-2.32a7.82,7.82,0,0,0-3.47,5.63c-.08.82.43,3-.66,3.29.37-.09-5.32-1.74-4.87-1.55-2.22-1-1-1.71-.53-3.81a8.66,8.66,0,0,0,.24-1.52,17.9,17.9,0,0,0,0-5.37c-.29-1-.41-1.79-1.56-2.14-.36-.1-3.57.55-2.72,1.38a.22.22,0,0,0-.31,0c-1.51,1.66-3.54,2.63-5,4.34-.48.56-.69.5-1.14,1.12a5.23,5.23,0,0,0-1.3,4.24c0-.36,1.47,2.39.7,2.58-.39.1-1-6.11-1.08-6.63a.22.22,0,0,0-.33-.19c-4.64,2.52-1.26-1.32-.6-2.89,2-4.65-1-1.3,1.82-5.71a.22.22,0,0,0-.25-.32c-6.35,2.06-9.45,8.74-15.8,10.81-2.79.91-10,3-4.12-2.37,2.9-2.69,6.64-4,9.33-7a.22.22,0,0,0-.21-.36c-1.77.35-3.19,1.34-4.93,1.83-2.2.62-4.29.23-6.56.52-.48.06-3,.93-3.62.81-.26-.05-2.35-1.49-2.55-1.6-.65-.36-.25-.68-1-1-3-1.13-5.47,1.13-8.27,1a3.2,3.2,0,0,1-1.49-.39c-3.36-2.39,7.69-4.87,8.29-5.08a.22.22,0,0,0,0-.4,7.72,7.72,0,0,0-8.35-.7c-1.49.67-4.43,4.24-2.92,1,1.74-3.7,6.75-4.92,10.42-5.73a.23.23,0,0,0,.13-.33c-1.19-2-3.78-5.4-3.65-7.73-1-1.89-.69-2.19,1-.91.39.7.75,1.41,1.1,2.13a5.47,5.47,0,0,0,2.79,2.77c3.9,2.13,6.21.44,9.74-.92a.23.23,0,0,0,.16-.27q-.61-4.56,1.43-2a.22.22,0,0,0,.37-.21c-.73-5.13,3.64-.51,4.52-.38a2,2,0,0,0,2.15-1,2,2,0,0,0,.24-1.22c-.07-6.13-2.93.26-1.89-4.33-.46-2.08.06-2.36,1.54-.84,1.44,1,2.84,2,4.2,3.14.17.14.49,0,.34-.26-.32-.48-1.68-3.39-.76-3.83.07,0,.49.64.61.66a5.61,5.61,0,0,1,2.82,2,.22.22,0,0,0,.37-.15,7.25,7.25,0,0,0-.42-3.83c-.22-.52-.79-1-1-1.55-.39-1.15-.8-3.91.88.64a.22.22,0,0,0,.43-.06l3.3-.86a.22.22,0,0,0,.33.19c1.33-.76,2.37,1.08,3.54.19.61-.47.36-6.47.5-3.36a.23.23,0,0,0,.33.19l2.2,1a.23.23,0,0,0,.33.13c-.64.34,2.28-1.13,1-1.11,4-.07,2.11.44,3.37,2.55.29.49.75,1.32,1.41,1.39,4.66.51-5.57-9.76,2.15-5.14a.22.22,0,0,0,.33-.19c0-.83.41-4.42.57-3.76.39,1.6-1.74,0-.2,1.75,2.27,2.64,3.89-4.79,5,4.69,0,.13.13.27.28.21l.7-.27a.22.22,0,0,0,.15-.27c-.27-.85-.51-1.71-.71-2.59-.51-1.07-.24-1.2.81-.38a.22.22,0,0,0,.4.06c.92-1.78,1.34-1.44,2.54,0a.22.22,0,0,0,.34,0c.91-1.29.06-1.41.11-2.59,0-.28-1.41-1.74,1.25-1.41-.88-.11,1.92,1.54,1.65,1.46a.24.24,0,0,0,.27-.16c2-5.94.83.42,3.48-.53.77-.27,1.26-3.49,2.15-.87.16.47-.76,1.21-.18,2.42a.23.23,0,0,0,.25.1c.53-.21,5.18-2.59,6-2.1a.24.24,0,0,0,.23,0c2.68-1.55.9,4.61,4.23,2.52,1.27-.8,1.78-2.8,1.64-4.19s-1.26-2.75-1.61-4.06l-.42-2.55q3.1-.1,2.64,2.4a11.15,11.15,0,0,1,0,2.71c0,.17.25.31.38.15a8.2,8.2,0,0,0,.61-1.43c.39-.7.29-1.88.85-2.45.2-1,.42-1,.67.09a2.61,2.61,0,0,1,.4,2c.1,1.83-1,3.24.73,4.29,1.44.85,3.15-.16,4.23-1,.92-.73,2.77-4.61,2.29-.91-.13,1.09-1,2.07-.91,3.19a.23.23,0,0,0,.28.22c.74-.19,2.11-1.81,2.52-1.79,2.71.14.34,4.1,0,5.16a.22.22,0,0,0,.32.24c2.27-1.58,1.59,1.07,1.47,2.09a.22.22,0,0,0,.33.19c1.83-1.26,2.74-5.45,5.15-3.84,1.94,1.3-.19,2,.41,4a.24.24,0,0,0,.21.16c.52,0,2.63-.43,2.18-.91s-1.71,2-1.8,2.38a.24.24,0,0,0,.1.25c1.68,1,4.39-.43,5.89-1.29.66-.37,6.6-6.78,5.72-7,.35.07-.66,3.85-.78,4.22a15.12,15.12,0,0,1-4.73,7.17c-3.37,2.67-7.52,4.5-11.2,6.72-1.58.94-2.54,1.17-.7,1.71,2.37.7,6.68-1.45,8.74-2.32a32.38,32.38,0,0,0,6.73-3.87c1.4-1.06,3-3.29,4.68-3.79C126.58,130.22,126.47,129.79,126.19,129.88Z"/><path class="cls-2" d="M33.48,137a1.77,1.77,0,0,1,.15.65l.41-.11a.85.85,0,0,1-.12-.6c0-.28-.41-.28-.44,0a1.23,1.23,0,0,0,.18.82c.11.18.43.12.41-.11a2.25,2.25,0,0,0-.16-.77C33.81,136.63,33.38,136.74,33.48,137Z"/><path class="cls-2" d="M88.77,150.9a1.69,1.69,0,0,1-1.5-.77A.24.24,0,0,0,87,150a2,2,0,0,1-1.71-.42c-.37-.32-.35-.75-.6-1.07a1.15,1.15,0,0,0-.48-.39c-.52-.2-1,0-1.52-.43a2,2,0,0,1-.59-1.65,1.87,1.87,0,0,1,.75-1.38c.85-.59,1.52-.07,2.34.16s1.47.05,1.94,1,.13.25.86,1.22a.23.23,0,0,0,.25.1,1.88,1.88,0,1,1,.51,3.72c-.28,0-.28.45,0,.44a2.36,2.36,0,0,0,2.08-3.3,2.18,2.18,0,0,0-1.77-1.35c-.46-.05-.65.06-1-.22s-.5-.95-.86-1.34a2.12,2.12,0,0,0-1.06-.64c-.59-.15-1.16-.4-1.75-.52a2.3,2.3,0,0,0-2.19.73,2.42,2.42,0,0,0,1,3.79c.36.11.63,0,.93.28s.31.5.49.79a2.15,2.15,0,0,0,1.11.85,8.64,8.64,0,0,1,1.48.34,3.41,3.41,0,0,0,1.55.59C89.05,151.36,89.05,150.92,88.77,150.9Z"/><path class="cls-2" d="M99.76,151.32a1.06,1.06,0,0,1,1.22.2l.22-.37c-.52-.1-1-.17-1.55-.24-.28,0-.28.41,0,.44.48.07,1,.14,1.43.23.2,0,.39-.21.22-.37a1.5,1.5,0,0,0-1.76-.27C99.28,151.06,99.5,151.44,99.76,151.32Z"/><path class="cls-2" d="M21.5,144.56l3.35-.81a.88.88,0,0,0,1.38-1.07l-.55-4.05-1.47.39,2.08,1.86a.89.89,0,0,0,1.47-.86c.91-1.8,1.58-2,2-.59a1,1,0,0,0,.31.32c1.08.33,1,.7,1.85.7,2.16,0,2.75-1.69,2.64-3.5l-1.73.23.16.72,1.47-.85a10.14,10.14,0,0,1-2.85-6.61l-1.33.76A46,46,0,0,1,37.42,136c.71.56,2-.16,1.38-1.07a9.26,9.26,0,0,1-2-5.13l-1.12.85c.76.2,1.57,1.6,2.24,2.09a15.18,15.18,0,0,1,2.5,1.79.89.89,0,0,0,1.5-.62,7.81,7.81,0,0,0-.43-4c-.35-.85-2.31-2.77-1.47-3.83l-1.39-.18a21.59,21.59,0,0,1,1.49,3.42.89.89,0,0,0,1.73-.23l1.83-.78c-.17.78.86,1.59,1.47.86.75-.91,2.49,1,3.68-.1a2.67,2.67,0,0,0,.53-1.39c.16-.94-1.28-5.08-1.16-2.43a.89.89,0,0,0,1.32.76l1.24.64a.89.89,0,0,0,1.29.52c-.16.08,1.8-1.47,1.26-1.35,2-.45,1.18.56,1.81,1.52s.86,2.57,2.22,2.75c4.8.6-.29-8.27-.26-8.62l-1.5.62a24.21,24.21,0,0,0,3.75,2.77.89.89,0,0,0,1.33-.76s-.21-3.54.31-3l.62-1.5c-4.27-.24-.72,6.4,1.84,1.94l-1.38.18c3.16,2.57,2.71,7.47,5.63,10.53.74.78,1.75-.21,1.38-1.06a49.84,49.84,0,0,1-3.2-10.17l-1.29,1,1.4,1.6a.89.89,0,0,0,1.61.21c.69-1.34-.59-2.36,1.5.11a.88.88,0,0,0,1.38-.18c1.16-1.64.16-2-.13-3.49,0-.29-1.58-1.43.35-.51,1.19.57.46,1.26,2,1.76a.89.89,0,0,0,1.08-.61,13,13,0,0,0,.38-2.33c.45-2.43,0-.41,0-.4.56.6-.27,1.74,1,2.44,2.31,1.31,2.35-1,3.09-2.21s-.52,1.13-.53,1.19a3.44,3.44,0,0,0,.06,1.9,3,3,0,0,0,1.94,2,8.23,8.23,0,0,0,1.87-.5.86.86,0,0,0,.85-.22c.17-.18,1.56-1.79,1.32-2.08.73.87,2-.38,1.24-1.24-2.26-2.7-3.69,1.55-3.54,1.61a.9.9,0,0,0-1,.41c-.72-.84-.8-1.35-.25-1.55a1.27,1.27,0,0,0,.52-.34c.07-.21.69-.32.73-.61a3.35,3.35,0,0,0,.1-1.72c-.88-2.38-3.66-1.23-5.09-.28a.89.89,0,0,0-.32,1.21c-.47-.79,1.59-2.94-.87-3.51A2.28,2.28,0,0,0,72.85,116c-.27.4-.22,1-.43,1.41-.93,1.76.91,1.16-.46.48s-1.92-2.6-3.79-.6c-2.06,2.2,1.49,4.64.78,5.64l1.39-.17c-2.35-2.77-2.85-2.5-4.27.24l1.61.21a3.76,3.76,0,0,0-2.21-2.65.9.9,0,0,0-1.3,1,52.17,52.17,0,0,0,3.38,10.58l1.38-1.06c-3.34-3.51-1.84-7.46-5.62-10.54a.9.9,0,0,0-1.39.18l-.32.71a.89.89,0,0,0,.62-1.51c-.79-.87-1.55-1.39-2.76-.54-1.43,1-.59,3.45-.55,4.75l1.32-.76a14.25,14.25,0,0,1-3.39-2.49.9.9,0,0,0-1.51.62c-.15,1.63-.12,3.49,1.16,4.75s-.26-2-.93-2.54c-2.69-2.32-2.66,1.06-4.39,2l1.29.53c-.55-1.94-2-2.51-3.81-1.69l1.32.76c-.08-1.88-1.53-6.48-3.37-2.41-.58,1.3,1.08,3.81.44,4.34s-2.08-.53-3.13.74l1.47.86c1-4.58-4.82-4-5.28.31l1.73-.24A36.22,36.22,0,0,0,40.16,125a.88.88,0,0,0-1.38-.18c-2.37,3,1.73,5.6,1.39,9.06l1.51-.62c-1.54-1.62-3.25-3.74-5.52-4.34-.49-.13-1.19.26-1.11.85a12.88,12.88,0,0,0,2.23,6l1.38-1.06a48.36,48.36,0,0,0-7.47-5.07.89.89,0,0,0-1.32.76,12.22,12.22,0,0,0,3.37,7.85c.62.68,1.65,0,1.47-.86l-.16-.72a.89.89,0,0,0-1.73.24l-2,.74a2.41,2.41,0,0,0-.47-1c-.34-.18-.5-.71-.85-.9a2.57,2.57,0,0,0-1.78-.23c-1.9.6-1.85,3.45-1.64,4.94l1.47-.85-2.09-1.87c-.43-.39-1.37-.32-1.47.39a8.49,8.49,0,0,0,.73,5.41l1.39-1.07c-2.34-2.17-5.52-1.78-6.3,1.59-.25,1.11,1.45,1.58,1.7.47Z"/><path class="cls-2" d="M47.28,165.29c1.89-2.59,3.28-3.3,6-4.85a9.76,9.76,0,0,0,2.08-1.26c1.51-1.4,2.29-3.73,3.05-5.59l-1.69-.47c-.69,3.82.28,6.71.59,10.4.25,3-1.78,4.91-.48,7.58a.9.9,0,0,0,1,.4l4.71.77a.9.9,0,0,0,1.33-.76c.08-2.35.2-3.84,2-5.17.85-.65.87.15,1.88-1,1.72-2,.77-6,.41-8.29l-1.7.47c1.34,3.85,2.93,7.58,4.56,11.31a.88.88,0,0,0,1.52,0c0-.05,3,.41,3.49.18,1.47-.61,2.16-2.51,2.38-3.92.8-5.18-4.09-12.32-6-16.76l-1.2,1.2c2,1.3,2.91,4.93,4.15,6.92a45.73,45.73,0,0,0,4.55,6,.88.88,0,0,0,1.38-.18c.5-1.05,3.29.73,4.11-1.7,1-3.16-3.66-9.3-5-11.76L79,150c3.06,1.55,4.69,4,8.24,4.61,1.64.27,5.27.87,6.4-1.06a2.52,2.52,0,0,0-.6-3c-2.57-2.78-10.18-.5-10.43-6.24l-1.11.85c4.19,1.13,7.65,3.59,11.61,5.25,3.3,1.39,7.1,1.13,10.25,2.75,1,.52,1.9-1,.89-1.52-3.66-1.88-7.85-1.61-11.64-3.38-3.58-1.67-6.8-3.77-10.65-4.8a.89.89,0,0,0-1.11.85c.13,3.05,1.92,4.55,4.7,5.56,1,.35,2.1.42,3,.85,1.34-.18,2,.28,1.87,1.4q.69,1.35-.69.9c-2.54,2.14-7.54-3.35-9.88-4.53a.89.89,0,0,0-1.2,1.21,37.85,37.85,0,0,1,3.43,6.55c.54,1.66,1.59,4.21-.67,3.38a.86.86,0,0,0-.86.23,5.33,5.33,0,0,0-1,1.52l1.39-.17A43.76,43.76,0,0,1,74.77,152c-.82-1.64-1.25-3-2.8-4-.82-.52-1.53.47-1.21,1.21,1.73,3.94,8.88,14.77,2.66,17.61-1.36.62-1.69-.56-2.49,1.12h1.52c-1.57-3.6-3.09-7.2-4.38-10.9a.88.88,0,0,0-1.7.47,17.1,17.1,0,0,1,.2,6,2.76,2.76,0,0,1-2.36.75c-.48.25-1,.24-1.37.81-1.16,1.62-.7,4.55-.77,6.42l1.32-.76a23,23,0,0,0-3-1.18c-2.13-.88-1.8.21-1.3-2.82.73-4.44-1.5-8.53-.67-13.16a.88.88,0,0,0-1.69-.47c-1.49,3.6-1.61,3.73-5.3,6.09-.48.31-1.08.45-1.54.81a20.49,20.49,0,0,0-4.09,4.38c-.67.92.86,1.8,1.52.89Z"/><path class="cls-2" d="M105,139.81c-2.15.61-3.84-.38-5.9-.69-1.66-.24-3.36-.24-5-.33l.45,1.64,1.38-.07c1,.45,1.92-1.06.89-1.52a3.29,3.29,0,0,0-3.16.07c-.82.42-.37,1.59.44,1.64a31.24,31.24,0,0,1,6.75.82,8,8,0,0,0,4.65.13.88.88,0,0,0-.47-1.69Z"/><path class="cls-2" d="M57.74,170.49c.14,1.67.77,4.48,2.28,5.51,1,.66,2.39.5,3.46.73,4.89,1.06,6.93,5,8.74,9.19.2.46,1,.13.8-.34l-3.46-9.45-1-2.58,3.52-1.23c.81.14,1.56,1.26,2.46,1.42,1.1.18,3.75-1.32,4.33-1.52,1.72-.59,1.28.43,2.08-2,1-3,1.45-4.79,3.4-7.47a6.72,6.72,0,0,0,1.19-1.61c.45-1.38.2-1.61-.53-2.71-.31-.46-1.07,0-.76.45.65,1-3.35,8.19-4,9.74-2.06,5.13-.44,1-3.23,1.8-2,.61-.22,2.47-3.39,1.92-1.72-.29-3.37-3-5.38-1.2-1.5,1.35-.47,2.82.06,4.38.6,1.73,1.27,3.44,1.89,5.16.49,1.33,2.51,5.91,1.25,1.65-2.06-6.93-12.35-5.05-12.91-11.82,0-.56-.93-.57-.88,0Z"/><path class="cls-2" d="M35.86,148.64a4.79,4.79,0,0,0-4.13,2.26c-.23.35.15.71.5.64a26.38,26.38,0,0,1,11.85.57.45.45,0,0,0,.5-.65,16.4,16.4,0,0,0-6.49-6.41l-.22.82c3.41.34,4.92,3.43,7.91,4.37.54.18.77-.67.23-.84-1.77-.57-3.08-2.32-4.66-3.27A7.87,7.87,0,0,0,37.87,145a.44.44,0,0,0-.23.82,15.48,15.48,0,0,1,6.18,6.09l.5-.64A27.48,27.48,0,0,0,32,150.69l.5.65a3.7,3.7,0,0,1,3.37-1.82c.56,0,.57-.91,0-.88Z"/><path class="cls-2" d="M57,144.38a18.63,18.63,0,0,1-1.42,5.13c-.56,1.26-2,4.38-3.31,5-2.86,1.23-2.1-3.59-1.62-5,.66-1.94,1.84-3.7,2.67-5.57a.44.44,0,0,0-.6-.6c-2.25,1.25-4.32,2.6-5,5.22-.14.55.71.79.84.24.61-2.42,2.55-3.58,4.59-4.7l-.61-.6c-1.14,2.55-3,5-3.22,7.85-.13,1.29,0,4.35,1.68,4.8,1.44.41,3-2.23,3.65-3.18a18.75,18.75,0,0,0,3.18-8.3c.07-.56-.78-.8-.85-.24Z"/><path class="cls-2" d="M62.88,148.78a14.34,14.34,0,0,1,1.73-6.48l-.8-.11a28,28,0,0,1,.18,5.93.44.44,0,0,0,.75.31c.23-.29,1.07-1.68,1.57-1.7s.08.39.43.62.38.92,1.06,1c1.12.09,1-1,1.15-1.77l-.87.12c.23,1,.12.78.85,1.49a.44.44,0,0,0,.69-.09c-.09.15.52-1.61.29-1.3,1.54-2,2.87-.05,3.93.75a7.27,7.27,0,0,0,4.55,1.63.45.45,0,0,0,.38-.67,51.25,51.25,0,0,0-3-5.85l-.69.53,3.31,2.77c.43.36,1.05-.26.62-.63l-3.31-2.76c-.37-.31-1,.08-.69.53a51.39,51.39,0,0,1,3,5.86l.38-.66c-2.8,0-4-1.87-6.1-3.33a2.66,2.66,0,0,0-2-.66,1.71,1.71,0,0,0-1.41,2.15c-.12-.52-.81-.34-.86.12s-1.15-1-1.35-1.21a.44.44,0,0,0-.62,0l-2,2.47.75.31a28.81,28.81,0,0,0-.21-6.16.45.45,0,0,0-.81-.11A15.45,15.45,0,0,0,62,148.78c0,.57.86.57.88,0Z"/><path class="cls-2" d="M73.87,127.48l-.06,0a.44.44,0,0,0-.2.5l0,.08a.45.45,0,0,0,.65.26,5.64,5.64,0,0,0,1.46-2.59l-.65.26c1,.67,1.17,2.34,2.77,1.51a2.27,2.27,0,0,0,1-1.24c.22-.51,0-.39.35-.61s1.52.12,1.9.15c.57,0,.56-.84,0-.88a10.55,10.55,0,0,0-2.63-.15.46.46,0,0,0-.31.31,4.94,4.94,0,0,1-.11.6q.06.67-.78.54c-.48.37-.78.34-.9-.11-.31-.23-.45-.64-.81-.88a.45.45,0,0,0-.65.26c-.19.48-.57,1.74-1.06,2.07l.65.26,0-.08-.21.5.06,0c.51-.25.06-1-.44-.76Z"/><path class="cls-2" d="M59.6,130.62a1.08,1.08,0,0,0,1.79.16,2.32,2.32,0,0,0,.45-1.4c0-.46.08-.92.11-1.38s-.05-1.68.28-1.93l-.54.07c.25.12.51,1.08.61,1.32l.5,1.28a7.45,7.45,0,0,0,.72,1.72c.29.39.43.31.84.45l.12,0q.27-.21.21.21a6.13,6.13,0,0,1,.57,1,.44.44,0,0,0,.76-.44c-.25-.42-.57-1.3-1-1.54-.09,0-.24-.08-.31-.13l-.28,0a2.09,2.09,0,0,1-.51-.84c-.39-.81-.67-1.71-1-2.55-.19-.49-.28-1-.76-1.21a.47.47,0,0,0-.54.07c-.49.38-.4,1.06-.45,1.64L61,128.46l-.08.92a.63.63,0,0,1-.6.8.44.44,0,0,0-.76.44Z"/><path class="cls-2" d="M91.52,127.42A8.52,8.52,0,0,0,94.3,126c.67-.49,3.22-3.21,4-2.87l-.09-.69A54.64,54.64,0,0,0,94.52,127a.44.44,0,0,0,.38.66c1.58-.16,2.95-1.78,4.52-1.54l-.19-.73c-2.13,1.7-3.57,4.42-6.31,5.15-2,.55-4.25-.39-6.42.07-.52.11-.35.83.11.86l6.21.5c1.32.11,5.33-.14,6.15.9.35.44,1-.18.62-.62-.91-1.15-3.1-.86-4.39-1l-8.59-.69.12.87c2.49-.53,4.92.82,7.3-.26s3.81-3.57,5.82-5.19a.43.43,0,0,0-.19-.73c-1.9-.3-2.92,1.32-4.76,1.5l.38.66c1.09-1.51,2.26-3,3.5-4.35a.45.45,0,0,0-.09-.69c-.85-.4-1.22-.05-2,.47-1.88,1.27-3.15,3-5.42,3.73a.44.44,0,0,0,.24.85Z"/><path class="cls-2" d="M89.12,139c2.41-1,5.64-3,8.22-3.2,2-.18-3.14,1.08-3.67,1.13-1.39.12-2.77.11-4.16.28-2.84.35-4.71-1.15-7.29-1.29a2.73,2.73,0,0,0-2.61,1.2.44.44,0,0,0,.31.75l7,.08a.44.44,0,0,0,0-.88c-1.39,0-2.8-.12-4.18,0-3.26.17,1.36.67,2.33.9a9.41,9.41,0,0,0,3.59.32c4-.36,8.54,0,11.53-3,.25-.25.09-.79-.31-.75-3.84.4-7.41,2.25-11,3.67-.52.21-.3,1.06.23.85Z"/><path class="cls-2" d="M90.88,144.89c1.65-.9,4.25-.52,6.05-.41a39.37,39.37,0,0,1,6.21.89l.24-.85a16.74,16.74,0,0,1-5.3-1.9.44.44,0,0,0-.6.6,2.42,2.42,0,0,0,2.06,1.59c.55.09.79-.76.23-.85l-1.53-1.19-.61.61a17.36,17.36,0,0,0,5.51,2c.55.07.8-.73.24-.85a41.57,41.57,0,0,0-7.36-1c-1.79-.06-4-.31-5.58.58-.5.27-.06,1,.44.76Z"/><path class="cls-2" d="M43.52,430.55c3.78-16.13,8.61-32,13.55-47.78,4.61-14.72,10.16-29.55,11.2-45,0-.57-.84-.57-.88,0-1.07,16-7,31.42-11.74,46.64s-9.35,30.45-13,46c-.12.55.72.79.85.23Z"/><path class="cls-2" d="M74.25,195.93c-2.68,9.5-1.84,19.28-1.32,29,.59,10.94,1.14,21.89,1.3,32.85.31,21.32-1.49,42.57-3,63.82,0,.56.84.56.88,0,1.48-20.6,3.26-41.21,3-61.89C75,249.41,74.56,239.1,74,228.8c-.57-10.86-1.92-22,1.07-32.64a.44.44,0,0,0-.84-.23Z"/><path class="cls-2" d="M24.49,151.32c-5.08,2.71-2.61.63-1-.86s3.95-4.52,6.61-4.23c.18,0,.25-.2.19-.33-1.4-3,3.7-.43,4.86-1.68.19-.2.13-.76.27-.82-.87-2.33.39-3.33,3.76-3l2,2.62c.1.13.35.15.4,0,.23-1,.23-2.87.82-3.65,1.42-1.87,3.25-.12,4.46,1.62a.22.22,0,0,0,.38,0,9.88,9.88,0,0,0,1.09-4.33c.12-3.07-1.06-7.85,4-4.86a14.07,14.07,0,0,1,3.24,2.67c2.85,3.14,1.6,2.75,1.52,1.26-.07-1.32-1.29-3.67-2.06-5,.66,1.12,1.26,2.77,1.88,4,.13.25.5,0,.38-.22l-2.73-5.31a.22.22,0,0,0-.4.17A42.46,42.46,0,0,0,57.86,138c.14.24.51,0,.38-.23-1-1.94-6.83-10-9.92-7.55-1.41,1.11-.39,3.48-.48,4.89-.55,8.18-1.5,1.67-4.55,2-.91.1-.75.84-1.14,1.39-1.46,2.06.28,4.26-2.6,1.71A18.42,18.42,0,0,0,37.77,138c-1.27-.63-2-.6-2.87.7-.25.37-.17.9-.35,1.28.65,1.77,0,3.08-2,3.95l-3.34-.1a.22.22,0,0,0-.19.33c.76,1.68-.41,1.28-1.56,2.08-2.71,1.89-5.07,4.6-7.48,6.85a.22.22,0,0,0,.21.37,20.8,20.8,0,0,0,4.52-1.8c.25-.13,0-.51-.22-.38Z"/><path class="cls-2" d="M68.17,137.84c.75-1.27,1.62-3.23,2.74-4.19.78-.67-.26.93-.45,1.41l-1.18,3c-.07.17.12.3.27.27a13,13,0,0,0,5.75-3.17c1-.89,2-1.86,3-2.75.49-.42,3.32-2,1.53-1.35a12.39,12.39,0,0,0-1.36.66c-2.89,2.82,4.73,2.73,5.86,2.69a.22.22,0,0,0,0-.44,20.74,20.74,0,0,1-3.15-.11c-2-.24-2.75.13-1-2.41.51-.75.67-.25,1.09-1.18.08-.19-.1-.43-.3-.3a43,43,0,0,0-6,4.88c-.47.41-4,3.44-4.7,2.87s1.45-4.72,1.78-5.54c.07-.2-.24-.38-.37-.21a48.56,48.56,0,0,0-3.91,5.65.22.22,0,0,0,.38.22Z"/><path class="cls-2" d="M61,152.2a32.45,32.45,0,0,0,.51,9.12.22.22,0,0,0,.42,0A51.71,51.71,0,0,1,63.13,156c.35-1.25,1-2.62,2.53-2.19a12.83,12.83,0,0,1,2.7,1.8c.24.16.46-.22.23-.38-1-.65-2.36-2-3.51-2.28a1.24,1.24,0,0,0-1.46.43c-.67.76-.83,2.19-1.08,3.13a47.9,47.9,0,0,0-1,4.73H62a32,32,0,0,1-.49-9c0-.28-.41-.28-.44,0Z"/><path class="cls-2" d="M100.62,133.24a23.58,23.58,0,0,1,6.66-1.21l-.15-.38a11.11,11.11,0,0,1-2.93,1.86c-.26.11,0,.49.22.38a11.68,11.68,0,0,0,3-1.93.22.22,0,0,0-.16-.37,24.12,24.12,0,0,0-6.78,1.22c-.27.09-.15.52.12.43Z"/><path class="cls-4" d="M253.07,40.69c-5.13.72-2.85,13.86-14.86,31.39-1.81,2.65-3.33,4.49-2.64,6.08,2.11,4.9,24.51,6.31,31.57-5.67C274.73,59.62,259.61,39.78,253.07,40.69Z"/><path class="cls-2" d="M252.83,39.84c-2.18.49-3.06,2.41-3.78,4.34-1.66,4.39-2.52,9-4.21,13.43a66.63,66.63,0,0,1-5.3,10.79c-1.51,2.5-4.76,5.48-5,8.54-.17,2.28,1.71,3.47,3.56,4.27,6.76,2.9,16.22,1.62,22.57-1.68,8.1-4.21,10.84-12.68,8.52-21.25-1.7-6.29-8.07-18.91-16.14-18.47-1.13.07-1.14,1.83,0,1.76,3.74-.2,7.1,3.91,9.13,6.59a29.33,29.33,0,0,1,6.05,14.38c1.13,11.57-9,17.61-19.27,18.27-3.21.21-7.81.33-10.68-1.43-3.05-1.86-.9-4.5.67-6.85a74.8,74.8,0,0,0,5.39-9.35,81.56,81.56,0,0,0,4.71-12.87c.67-2.37,1.3-8.11,4.23-8.77C254.41,41.29,253.94,39.6,252.83,39.84Z"/><path class="cls-4" d="M224.53,95.85c-2.87,1.89-1.28,9.29-4.63,13.09l-3.62,4.27c-.43.51-.84,1-1.23,1.56a41.71,41.71,0,0,0-2.65,4.47c-2.78,5.14-15.33,16.94-13.56,22,1.85,5.34,21.43,8.53,33.92-1.46,10-8,14.17-23.39,8.56-33.74C237.18,98.44,227.8,93.7,224.53,95.85Z"/><path class="cls-2" d="M223.91,95.23c-3.75,3.37-2.1,10-5.4,14-3.76,4.6-6.58,9.67-10.27,14.29-3.26,4-14.83,14.75-8.62,20.2,7.1,6.22,21.3,3.69,28.77-.08,10.67-5.39,17.38-17.82,16.17-29.7a22.37,22.37,0,0,0-8.76-15.55c-3-2.33-7.85-5.23-11.71-3.3-1,.51-.12,2,.89,1.52,5.88-2.94,14.06,6.63,16.06,10.94,3.06,6.6,2.19,14.49-.75,21-5.72,12.64-19.91,19.08-33.36,16.33-2-.41-4.57-1-6.11-2.46-2.18-2.12-.82-4.65.51-6.9,2.61-4.42,6.2-8.17,9.32-12.21,1.64-2.13,2.76-4.37,4.21-6.63,1.57-2.47,3.68-4.47,5.42-6.81a12.91,12.91,0,0,0,2.43-4.94c.67-2.66.25-6.46,2.45-8.44C226,95.71,224.75,94.47,223.91,95.23Z"/><path class="cls-1" d="M118.77,272.64l5-3.24a2.33,2.33,0,0,0,.9-.86,1.83,1.83,0,0,0-.2-1.64,4.37,4.37,0,0,0-4.79-2l6.5-2.95a2.4,2.4,0,0,0,1.17-.84c.52-.88-.2-1.94-.72-2.81s-.61-2.37.39-2.59c.4.91,1.88,0,1.81-1s-.81-1.84-.83-2.83c0-1.26,1.07-2.21,2.07-3a29.22,29.22,0,0,1-11.36-10.2,17.21,17.21,0,0,0-3-4.06c-1.73-1.48-4.07-2-6.26-2.59a36.75,36.75,0,0,1-16.62-10.32c8.69.08,15.67,8.5,24.36,8.41a5.09,5.09,0,0,0,3-.82,4.9,4.9,0,0,0,.95-1,14.38,14.38,0,0,0,2.77-6.45c1.59.9,2.19,2.84,3.09,4.42s2.88,3,4.44,2.08c2.18-1.32.57-5.3,2.53-6.94a7.35,7.35,0,0,0,.78,3.89c.73,1.13,2.38,1.78,3.45,1,1.46-1.11.58-3.52,1.36-5.18.76.46.53,1.75,1.24,2.28,1.35,1,3-2.15,4.45-1.36.5.27.7.92,1.2,1.19.81.44,1.77-.41,2-1.3.62-2.22-1-4.36-2.58-6.07l-7.48-8.26a17.48,17.48,0,0,0,8.6,2.83,2.9,2.9,0,0,0,2.47-.72c.61-.74.42-1.85.71-2.77s1.83-1.47,2.08-.53c1.23-1.47-.28-3.6-1.71-4.89l-5.76-5.2a7.12,7.12,0,0,1-2.26-2.92,12.85,12.85,0,0,1-.18-3.46A10.73,10.73,0,0,0,139.1,183a31.77,31.77,0,0,0-6.24-4.65l.28-.37c-2.83-.74-4.12-3.9-5.41-6.53a60.23,60.23,0,0,0-6.72-10,37.42,37.42,0,0,0,14.56,5,9.78,9.78,0,0,1,3.44.8,2.85,2.85,0,0,1,1.65,2.88c-.2,1-1.09,2.2-.32,2.88s1.77-.24,2.72-.42c1.55-.29,2.71,1.35,3.39,2.77s1.77,3.08,3.33,2.89c1.38-.16,2.09-1.67,2.87-2.82s2.57-2.08,3.44-1a10.92,10.92,0,0,1,.58,1.13c.7,1.1,2.31,1,3.59.77l3.05-.53a2.91,2.91,0,0,0,1.12-.37c1-.7.72-2.26.44-3.48s0-3,1.24-3,2.38,1.47,3.22.67a1.62,1.62,0,0,0,.38-.79l1.76-6.77.57,4.17c.09.65.29,1.44.93,1.62,1.4.4,1.55-2.41,2.95-2.8,1.61-.45,2.74,2.71,4.26,2,.76-.35.91-1.53,1.72-1.78s1.38.47,2,1,1.73.66,1.92-.09-.63-1.07-1.12-1.52a2.25,2.25,0,0,1,1.52-3.7c.85,0,1.64.56,2.48.48,2.55-.23,2.5-5.16,5.06-5.21.8,0,1.54.51,2.33.42,1.18-.14,1.75-1.69,1.31-2.8a5.17,5.17,0,0,0-2.56-2.38c-4.13-2.23-8.84-3.36-12.7-6s-6.79-7.72-4.9-12a6,6,0,0,0,3,4.17,16,16,0,0,0,5,1.76,98.77,98.77,0,0,0,12.69,2,3.87,3.87,0,0,0,1.76-.11,5.9,5.9,0,0,0,1.57-1.17,8,8,0,0,1,6.44-1.39,23.9,23.9,0,0,1,6.32,2.41l-3.53-10.62a5.47,5.47,0,0,1-.41-2.51,2.79,2.79,0,0,1,3.17-2.23l-.76-.31a7,7,0,0,0,2.09-.66l-1-2.15a11.19,11.19,0,0,1,12.4-.75,17.17,17.17,0,0,1-.42-9.45l4.24,3.86c1.11,1,2.73,2.07,4,1.22a26.58,26.58,0,0,1-6.12-5.14,8.94,8.94,0,0,1-2-7.47,10.74,10.74,0,0,1,2.19-4,5,5,0,0,0,1.4-2.56,3.24,3.24,0,0,0-1.19-2.58A17.05,17.05,0,0,0,225.48,94,9.33,9.33,0,0,1,222,90.5a5.25,5.25,0,0,1-.06-4.83,1.49,1.49,0,0,0,2,1,3.1,3.1,0,0,0,1.6-2,21.13,21.13,0,0,1,.81-2.48,2.42,2.42,0,0,1,2-1.47c1,0,1.78.93,2.47,1.69a12.49,12.49,0,0,0,2.34,2c.2.13.46.27.67.15a.73.73,0,0,0,.26-.38,27.4,27.4,0,0,0,1.43-5.1,5.76,5.76,0,0,1,.85-2.55,4.1,4.1,0,0,1,3.37-1.26,30.82,30.82,0,0,0,3.71.18,3.3,3.3,0,0,0,2.92-2l.82.35a15.69,15.69,0,0,1,1.2-17.23c1.66-2.1,4-4,4.37-6.59.29-1.87-.43-4,.58-5.57.43-.69,1.16-1.24,1.28-2s-1.13-1.57-1.45-.82c-.23-2.28,1.11-4.39,2.4-6.28C261.29,27,267,18.66,273.19,10.75a46,46,0,0,1,8.74-9,22.85,22.85,0,0,0,2,7c1.07,2.27,2.51,4.36,3.67,6.59,2.72,5.22,3.86,11.1,4.86,16.91A25.68,25.68,0,0,0,294.29,39a8.39,8.39,0,0,0,5,4.64,1.55,1.55,0,0,1,.53.21c.58.43.17,1.34-.26,1.92A30.21,30.21,0,0,0,295,55.12c-1.08,3.74-1.08,8.49,2.13,10.7a3.93,3.93,0,0,0-2.42,3.3,11.67,11.67,0,0,0,.46,4.26l1,4.24A7.14,7.14,0,0,0,297.67,81a2.47,2.47,0,0,0,3.35.39l-1,1.51c-2.86,2.16-5.89,4.55-6.92,8a17,17,0,0,0-.23,6.49,4.21,4.21,0,0,0,.69,2.35,1.47,1.47,0,0,0,2.16.24c.47.83,0,1.88-.64,2.63a4.64,4.64,0,0,0-1.42,2.44,3.8,3.8,0,0,0,.58,1.88l4.13,8c-1.79.56-3.69-.26-5.52-.69-4.56-1.06-10,1-11.75,5.31-1.34,3.39-.23,7.21,1,10.64-1.76.11-2.92,2.16-2.55,3.88a5.57,5.57,0,0,0,3.5,3.66,13.1,13.1,0,0,0-6.19,1.79,2.86,2.86,0,0,0-1.14,1c-.65,1.19.36,2.58,1.34,3.52a45.92,45.92,0,0,0,8.24,6.24,23.14,23.14,0,0,0-11.77,2.49c-3.54,2-6.36,5.53-6.73,9.57l.19-1.18a46.78,46.78,0,0,1-5.25,14.54,29,29,0,0,1-7.67-8.51,7.46,7.46,0,0,0-1.42-1.95c-1.72-1.45-4.34-.77-6.35.25s-4.11,2.35-6.32,1.93c-1-.18-1.88-.71-2.86-.92a7,7,0,0,0-5.51,1.57c-1,.75-2.09,1.7-3.33,1.53a7.69,7.69,0,0,0-1.8-.37,2.7,2.7,0,0,0-1.3.71,10.11,10.11,0,0,0-3.29,3.72c-.65,1.54-.3,3.64,1.19,4.41.47.25,1.09.41,1.24.93a1.45,1.45,0,0,1-.13.84,15.47,15.47,0,0,0-1.33,3.66,3.08,3.08,0,0,0,1.5,3.31c.56.23,1.26.26,1.62.75s.14,1.26,0,1.89a7,7,0,0,0,11.33,7.29,6.66,6.66,0,0,1,1.63-1.23,1.4,1.4,0,0,1,1.78.51c.44,1-.84,1.82-1.3,2.79a2.65,2.65,0,0,0,1.23,3.22,6.64,6.64,0,0,0,3.66.67c.82,0,1.89.08,2.08.88s-.87,1.49-1.08,2.36c-.28,1.2,1.14,2,2.31,2.44,4,1.38,8.15,2.79,12.34,2.28l-3.66,2.32c-.52.33-1.11.84-1,1.43s1.09.71,1.78.72a7.4,7.4,0,0,1,6.46,4.07c-2.53.16-4.77-2.35-7.26-1.86-1.49.29-2.67,1.61-4.19,1.7s-2.8-1.11-4-2.1-2.83-1.88-4.18-1.14c-.89.48-1.31,1.51-1.93,2.31-2.11,2.76-6.36,2.63-9.6,1.39s-6.23-3.34-9.68-3.75c-1.5-.18-3,0-4.54-.29-1.86-.33-3.55-1.3-5.37-1.83s-4-.49-5.33.88c-.46.48-1,1.18-1.63.95a1.91,1.91,0,0,1-.61-.49,2.84,2.84,0,0,0-4.76,2.71c.17.71.61,1.33.77,2s-.14,1.63-.86,1.75a9.35,9.35,0,0,0-5-3.42,2.26,2.26,0,0,0,2.05,3.48c-.42,1.45-2.31,1.69-3.79,2s-3.24,1.64-2.47,2.94c.54.94,1.89.85,3,.72a25.83,25.83,0,0,1,8.59.34,17.65,17.65,0,0,0-8.11,3.61c-1.21,1-2.38,2.5-1.79,3.92.73,1.75,3.76,2.34,3.44,4.21l-.31-.46a57.89,57.89,0,0,1,1.64,15.57c-.08,3-.35,6.11,1.18,8.64a11.68,11.68,0,0,0,3.77,3.49A36,36,0,0,0,213,271.08c-2.19-.34-4.33.7-6.35,1.61a18.92,18.92,0,0,1-7.64,2.05,7.91,7.91,0,0,1-6.83-3.38,21,21,0,0,0-1.5-2.71c-1.56-1.86-4.4-1.82-6.8-1.46s-5.08.8-7.05-.61c-1.35-1-2.06-2.6-3.31-3.69a6.5,6.5,0,0,0-2.83-1.37A5.92,5.92,0,0,0,165,263c-1.37,1.54-1.3,4.32.45,5.41a3.61,3.61,0,0,1,.76.51,2,2,0,0,1,.21,2,7.14,7.14,0,0,0-.65,2A2.9,2.9,0,0,0,167,275.3a8.54,8.54,0,0,0,2.51,1.15l3.9,1.31c-1.19.57-2.57.44-3.87.61s-2.74.87-3,2.16c-.28,1.59,1.4,2.79,2.87,3.46s3.23,1.59,3.29,3.21l-.95.1-1.12-.24c-1.63-.44-3.86-.61-4.52.94a3.21,3.21,0,0,0,.77,3,14,14,0,0,0,4,3.67c.38.23.82.56.73,1a1.28,1.28,0,0,1-.23.43c-.79,1.19-.27,2.78.24,4.12a38.94,38.94,0,0,1,2.72,11.22A19.28,19.28,0,0,1,172,322.61a20.18,20.18,0,0,0-5.25-16.3c-2.34-2.47-5.31-4.35-7.28-7.12a39.74,39.74,0,0,0-3-4.45c-1.22-1.31-3.18-2.2-4.81-1.47a6.05,6.05,0,0,0-1.59,1.17l-3.26,3a8.37,8.37,0,0,0-2.62,3.47,4.24,4.24,0,0,0,1.12,4.22c-1.71-.29-4.08-.17-4.42,1.53-.3,1.47,1.31,2.55,2.67,3.18a3.2,3.2,0,1,0,1.28,6.23c-.56,1.26-2.66.49-3.73,1.36a1.91,1.91,0,0,0,.13,2.74,4.52,4.52,0,0,0,2.86,1c2.45.2,4.92-.14,7.37,0s5,1,6.54,2.9a20.89,20.89,0,0,0-10.07-1c-1.93.29-4.1,1.13-4.66,3s.74,3.63,1.51,5.37c1.77,4,.91,8.78-1.29,12.55s-5.59,6.7-9.05,9.37a81,81,0,0,0,6.49-10.2c.95-1.79,1.69-4.34.07-5.56-1.2-.9-2.95-.39-4.35-.94-1.9-.75-2.63-3.2-4.47-4.09-1.4-.68-3.07-.29-4.54.25-2.08.77-4.19,1.89-5.3,3.82s-.79,4.8,1.16,5.87a5,5,0,0,0-3.58,8.49c.43-.92,2-.51,2.39.42a5.74,5.74,0,0,1,0,3,9.15,9.15,0,0,0,.89,5.29,1.45,1.45,0,0,1,.24,1.19,1.2,1.2,0,0,1-.66.57,9.76,9.76,0,0,1-12-3.34.74.74,0,0,1,.85-.25l-.47-.24a11.1,11.1,0,0,0-8.09,7.58,15.33,15.33,0,0,1-1.1,3.48c-1.17,2-3.75,2.91-5,4.92a4.86,4.86,0,0,0,3,6.92q-3.13,1.32-6.2,2.82a10.12,10.12,0,0,1-1.33-6.29c-2.77,2.93,1.46,8.94-1.72,11.42-2,1.56-5.91.55-6.63,3-.39,1.32.67,2.69.53,4.07-.18,1.83-2.22,2.74-3.64,3.91a14.7,14.7,0,0,0-3.06,4.12l-6.85,12c-.87,1.53-1.77,3.18-1.65,4.95l3.67.53a34.9,34.9,0,0,0-7.24,7.27l-7.47,9.15a18,18,0,0,0-2.21,3.14,40.4,40.4,0,0,0-1.43,3.85,31.84,31.84,0,0,1-3.85,6.63L37.44,470.46a10.65,10.65,0,0,0-.37-4.14,3.63,3.63,0,0,0-3-2.51,5.32,5.32,0,0,0-1.87.4,53.89,53.89,0,0,0-10.67,4.58c-1.46.9-3.5,1.9-4.68.65,2.54-1.66.67-6.41,3.11-8.22.68-.51,1.65-.73,2-1.51s-.26-2,.26-2.76c.7-1,2.27-.24,3.5-.25,3.42,0,3.3-5.83,6.29-7.47.77-.42,1.69-.52,2.41-1,2.14-1.43,1.49-5.27,3.72-6.57a12.92,12.92,0,0,0,2.06-1c.79-.69.84-1.88,1.17-2.87.8-2.42,3.35-3.81,4.61-6,1.44-2.53,1-5.69,1.53-8.55,1-4.87,4.92-8.74,5.84-13.62.75-4-.34-8.92,2.8-11.49,1-.84,2.36-1.24,3.36-2.11a7.79,7.79,0,0,0,2.16-4.15c1.07-4.23,1-8.67,1.85-12.95s2.88-8.69,6.75-10.7l-1.13-.13c2.16-.44,3.72-2.4,4.45-4.48a39.08,39.08,0,0,0,1.22-6.47,25.43,25.43,0,0,1,7.06-13.57c1.15-1.15,2.48-2.3,2.85-3.88.56-2.37-1.22-4.59-2.79-6.45s-3.14-4.33-2.17-6.56l5.89,4.9a3.64,3.64,0,0,0,2.3,1.12c1.32,0,2.14-1.41,2.7-2.6l8.05-17a.64.64,0,0,0,.07-.55c-.12-.21-.41-.21-.65-.18a22,22,0,0,0-5.42,1.45c3.71-2.28,7.77-5.07,8.53-9.36.47-2.61-.09-6,2.22-7.29a128.11,128.11,0,0,0-30.64-14.48,45.51,45.51,0,0,0,20.44-.33c2.34-.58,4.83-1.35,7.1-.56,1.38.47,2.76,1.5,4.13,1,1.13-.39,1.67-1.63,2.26-2.67s1.68-2.08,2.82-1.71c.66.21,1.25.88,1.9.66.84-.28.61-1.52.85-2.37a3.64,3.64,0,0,1,2-1.89l6-3.26"/><path class="cls-2" d="M119.66,274.16c2.28-1.48,7.44-3.38,6.8-6.91-.56-3.12-4-4.37-6.78-4.15l.89,3.28c2.11-1,6.85-2.21,8.16-4.25.57-.88-.31-5.35-.47-5.21l-2.13.27c1.37.73,2.64.77,3.73-.58,1.81-2.24-1-4.51,1.45-6.54a1.78,1.78,0,0,0-.35-2.77,29.66,29.66,0,0,1-10.73-9.57c-1.43-2.07-2.56-4.11-4.79-5.47-2.6-1.58-5.89-1.94-8.69-3.06A36.57,36.57,0,0,1,94,220.4l-1.24,3c7.83.46,13.62,6.72,21.2,8.11,6.84,1.26,10.24-2.88,11.62-9.24l-2.94.78c2.7,2.22,3.54,7.68,8,7.25s2.83-5.49,4.81-8.05l-3.28-.89c.12,3,1,6.76,4.62,6.92,4.12.17,3.64-4,4.43-6.77l-3.21.42c1.42,1.93,1.72,4,4.65,3,.53-.18,1.47-1.23,1.93-1.23-.16,0,.56.7.58.7,1,.14,1.57.83,2.75.42,8.52-3-6.34-16.38-8.3-18.55l-2.13,2.77c2.91,1.74,6.67,3.41,10.16,3,1.52-.17,5.93-2.36,3.33-4.5a1.8,1.8,0,0,0,3-.78c.81-2.14.28-3.67-1.12-5.49-3-3.85-7.93-5.44-8.74-10.56-1.11-7-4.39-10.19-10.35-13.94l.63,2.41.28-.37c.75-1-.12-2.21-1-2.59-3.17-1.28-4.41-6.06-6-8.72a83,83,0,0,0-5.32-7.34L120.12,163A42.65,42.65,0,0,0,134.25,168a21.08,21.08,0,0,1,3.2.51c1.23.83.72,2.21.89,3.19a4.25,4.25,0,0,0,.62,2.36c.68.77,1.51.69,2.43.87,1.59.32.19-.75,2.36.48,1.33.76,1.56,1.81,2.52,2.86,1.48,1.64,3.54,2.25,5.5,1,1.06-.69,1.95-3,3.38-2.84.63.08,1.75,1.42,2.66,1.64,2.2.55,6.63-.06,8.14-1.76,1-1.17.52-2,.89-3.31.83-3,.51-.88,2-1.57,3.46-1.58,3.35-5.24,4.32-8.95h-3.4c.3,2.19.08,6.78,3.2,7.08a3.1,3.1,0,0,0,2.22-.91c1.91-1.37.17-1.31,2.5-.57,1,.31,1.37.86,2.49.68.83-.13,1.62-1.39,2.12-1.43,1.91-.19,2.73,2.08,4.73,0a1.73,1.73,0,0,0,.45-1.71s-.78-1.53-.76-1.62c.36-2.27.65-.4,1.95-.9s1.91-.5,2.89-1.61c.6-.68.78-1.73,1.37-2.35,1.14-1.22,1.25-.66,2.67-.89s2.43-.43,3.18-1.89c4.86-9.56-24.25-9.12-19.87-22.57h-3.39c1.83,6.71,9.58,7.43,15.46,8.35,2.86.45,6.45,1.41,9.27.59,1.38-.4,2.36-1.87,3.74-2.31,3.1-1,6.35.76,9,2.07,1.28.62,3.1-.42,2.58-2-.38-1.14-5.07-13-2.47-13.13a1.77,1.77,0,0,0,.47-3.46l-.76-.31V127a6.63,6.63,0,0,0,2.08-.65A1.8,1.8,0,0,0,216,123.8l-1-2.16-.63,2.41A9.94,9.94,0,0,1,225,123.3a1.79,1.79,0,0,0,2.59-2,17.29,17.29,0,0,1-.42-8.51l-2.94.78c2.88,2.63,5.66,6.45,9.91,5.52,1.58-.34,1.58-2.41.42-3.21-3.87-2.66-8.47-5.93-6.86-11.24.67-2.22,3.06-4,3.16-6.39.25-5.83-9.73-5.6-7.21-12.12l-3.21.42a3.41,3.41,0,0,0,5.78.56c.79-.88,1.29-4.2,2.68-4.21.93,0,3.08,3.07,4.5,3.38a1.83,1.83,0,0,0,2-.81c.86-1.24.92-2.8,1.5-4.16a4.77,4.77,0,0,1,2.89-4.25,23.48,23.48,0,0,0,2.79.16c2.46-.1,4-.73,5.36-2.82l-2.41.63.83.35a1.77,1.77,0,0,0,2.4-2.41,14.12,14.12,0,0,1,1.09-15.22c2.08-2.8,4.46-4.76,4.75-8.43a25.8,25.8,0,0,1,1.33-5.48c.31-1,.69-1.52.19-2.62a2.54,2.54,0,0,0-3.79-1.14L255,41.61c.24-4.12,4.18-8.37,6.42-11.63s4.66-6.73,7.06-10c4.38-6,8.76-12.38,14.71-17l-2.94-.77c1.21,7.44,6.12,13,8.28,20.13,1.92,6.32,1.4,15,6,20.15a11.21,11.21,0,0,0,2.68,2.21l.42.17c1.55.69,1.72.72.51.06-.4,1.32-2.07,3.2-2.7,4.47a31.69,31.69,0,0,0-1.79,4.46c-1.45,4.6-1.6,9.85,2.31,13.24l.36-2.76c-4.88,3-3.15,8.39-1.93,13.08,1,3.91,3.09,7.59,7.58,5.56l-2.41-2.41c-2.84,4.42-7.75,6-8.46,12-.42,3.5-.2,11,5.18,9.19L294,100c.15,2.43-2.32,3.82-1.83,6.51.56,3.1,3.29,6.59,4.72,9.38l1.05-2.59c-3.1.43-6.15-1.32-9.36-.88a12.18,12.18,0,0,0-6.54,2.93c-4.51,4.16-3.38,10.17-1.61,15.38l1.23-2.16c-6.12,1.75-3.89,8.45.53,10.75l.89-3.28c-3.15.3-9.62,1.39-9.25,5.79s7.42,8.08,10.62,10.05l.88-3.28c-8.85,0-18.63,3.51-20.2,13.35-.35,2.21,3,3.17,3.39.94l.19-1.18c.36-2.19-2.94-3.18-3.39-.94a50.49,50.49,0,0,1-5.07,14.13l2.77-.36c-3.54-2.79-5.37-6.35-8.31-9.55a6.14,6.14,0,0,0-6.24-2.06c-1.68.32-3,1.41-4.55,1.91-4.18,1.33-4.89-.3-8.22-.12a9.41,9.41,0,0,0-3.69,1.11,15.62,15.62,0,0,1-5,1.79c-3.73.74-8.09,4.75-7,9.08.28,1.07,1.64,1.91,1.84,2.69.32,1.23,0,.88-.35,2.47-.7,3,0,4,1.63,6.27,1,1.38.63,0,.92,2.18a21.51,21.51,0,0,0,.26,3.47,8.84,8.84,0,0,0,4.88,5.68,9.22,9.22,0,0,0,6.36.29,7.33,7.33,0,0,0,3-1.69c.17-1.31-.05-1.33-.66-.05a3,3,0,0,0-.34,1.61,4.5,4.5,0,0,0,2.62,4.19c.26.13,4.15.76,4.13.73-.35-.64-.73,1.15-.76,1.48-.48,5.9,12.72,6.7,16.41,6.48l-.89-3.28c-2.05,1.3-4.75,2.3-5.42,4.8a1.76,1.76,0,0,0,.46,1.72c2.56,2.21,5.83,1,8,4.43l1.52-2.65c-2-.18-3.64-1.52-5.56-1.82-1.4-.22-2.16.28-3.45.49-2,.3-.06.94-3.2.11-2.71-.72-1.28-.51-3-1.25-1.17-.51-2.11-1.2-3.47-1.12s-1.85.6-2.95,1.34c-2.49,1.68-3.3,3.68-6.72,3.2-4.25-.58-7.72-3.68-12-4.34-2-.3-4-.09-5.91-.64s-3.49-1.51-5.42-1.75a7.34,7.34,0,0,0-3.93.45c-.63.29-2,1.48-1.63,1.47-1,0-2-1.22-3.31-1.16a4.49,4.49,0,0,0-2.41.86,4.73,4.73,0,0,0-1.85,3c-.11.65.71,3.73.41,4h2.49a13.17,13.17,0,0,0-5.73-3.87,1.76,1.76,0,0,0-2,.81c-1.31,3.09.21,5.78,3.57,6.13L196,220.71c-1.38,2.18-8.35,1.54-6.44,6.27.55,1.37,1.76,1.8,3.07,2,3.14.54,6.46-.31,9.72.26v-3.39c-3.75.78-8.79,2.56-10.66,6.22a4.39,4.39,0,0,0-.38,3.68c.45,1.14,3.19,2.67,3.29,3.53l3.28-.89-.31-.46a1.77,1.77,0,0,0-3.22,1.36,61.86,61.86,0,0,1,1.58,15.1c0,2.76-.27,5.6.8,8.21,2.39,5.83,10.25,8.57,15.77,10.15l.47-3.46c-4.61-.06-8.17,3-12.65,3.49-4.63.53-5.76-2.06-8.15-5a6.48,6.48,0,0,0-2.76-2c-3.89-1.53-8.77,1.49-12.28-1.26-2.8-2.18-3.56-4.74-7.7-4.92-5-.21-9.09,4.57-6.13,9.21,1.23,1.93,1,.91.85,3.18a4.79,4.79,0,0,0,.4,3.19c1.52,2.77,5.69,3.39,8.38,4.3v-3.4c-2.78.84-7.48.29-8.1,4.23-.72,4.58,5.21,4.13,6.19,7.37l1.7-2.22c-2.42.25-5.13-1.35-7.27.58-2.6,2.34-.36,5.86,1.54,7.79.58.58,1.33,1,1.89,1.63l1-.22a5.93,5.93,0,0,0-.38,1.07c.35,1.67.09,3.33.72,5.18,2.32,6.74,3.72,13.63.21,20.25l3.28.89a22.28,22.28,0,0,0-4.8-16.44c-1.87-2.28-4.33-3.91-6.35-6-2.19-2.29-3.33-5.63-5.92-7.53-4-2.94-7-.2-10,2.59-3.56,3.32-6,6.83-2.59,11.19l1.24-3c-6.17-.67-8.24,5-2.64,8l.42-3.21c-5.9,2-4.85,10.46,1.75,9.68l-1.24-3c-1.13,1.05-2.88.35-4,1.73a3.45,3.45,0,0,0-.14,4.07c3.37,5.44,12.78.17,17.32,4.74l1.71-2.94c-4.48-1.39-15.32-3.16-16.92,3.48a6.43,6.43,0,0,0,.38,3.63c1.07,3.36,2.57,5.82,1.7,9.49-1.35,5.71-6,9.7-10.44,13.16l2.77,2.13c2.69-3.67,8.48-10.1,7.69-15.14a4.32,4.32,0,0,0-2.18-3.2c-1.56-1-3.92-.84-5.44-2-.93-.71-1.43-1.86-2.46-2.51-6.62-4.16-18.82,6.33-11.32,12.36l.78-2.94c-5.65.83-8,6.47-4.63,11.07a1.79,1.79,0,0,0,2.41.63c-1.51,1.07.35,5.87.39,7,.06,1.45.76.73-1.29.89-3.14.23-5.66-.56-7.68-3.19l-1,2.59.85-.25a1.78,1.78,0,0,0,.42-3.22c-2.16-1.1-4.78.49-6.54,1.82-3.85,2.9-3.6,7.14-6.34,10.47-2.28,2.76-5.43,4-4.87,8.1a6.76,6.76,0,0,0,4.74,5.48L99,379.12q-3.12,1.35-6.2,2.82l2.41.63a8.53,8.53,0,0,1-1.09-5.4c.07-1.88-2.34-2.23-3.28-.89-2.34,3.34,1.09,9.39-2.73,11.46-3.29,1.78-4.74.47-5.86,4.5-.72,2.6-1.08,4.56-3,6.51a26.08,26.08,0,0,0-3.86,5.75c-2.84,5-7.15,10.3-7.76,16.12a1.74,1.74,0,0,0,1.29,1.69l3.68.54-.42-3.22c-4,3-7,6.77-10.09,10.6-2.85,3.49-6.32,6.87-8.1,11.06-4.34,10.25-11.67,19.14-18,28.28l3.28.89c.09-3.48-.76-8.21-5.17-8.41-2.26-.1-5,1.37-7,2.16s-7.61,4.62-9.3,3.71l.35,2.76c1.39-1.31,1.55-2.49,2-4.29.64-2.59,1.95-3.71,3.38-5.79.41-.6.28-1.84.94-2.3.13-.09,2.11.12,2.62,0a5.59,5.59,0,0,0,2.85-2.51c1.55-2.39,1.56-3.67,4.23-5.48,1.63-1.11,2.4-1.38,3.28-3.28.7-1.51.87-2.94,2.27-4.08.5-.41,1.27-.51,1.77-1,1.82-1.68,2.07-4.49,3.76-6.42,4-4.62,2.7-9,4.86-14.39s5-9.07,5.38-15c.13-2.3.15-3.87,1.58-5.77,1.15-1.52,2.2-1.78,3.56-3,1.77-1.58,2.48-3.73,3-6,1.67-7.4.14-17.08,7.59-21.68a1.78,1.78,0,0,0-.89-3.28l-1.13-.13.47,3.46a9.05,9.05,0,0,0,5.9-6.5c1.6-5.41,1.53-10.37,4.9-15.26,1.86-2.69,5.55-4.9,6.07-8.34.77-5-6-8-5-12.55l-2.94.78c3.44,2.86,8.62,9.58,12.86,4.44,2.35-2.84,3.65-7.37,5.23-10.7,1.34-2.83,3.52-5.94,3.93-9.07a1.78,1.78,0,0,0-1.3-1.7c-2.29-.63-4.88.5-7,1.28l1.36,3.21c2.9-1.82,6-3.79,7.82-6.75,1.75-2.78.92-8.25,3.29-10.17a1.78,1.78,0,0,0-.36-2.77A136.2,136.2,0,0,0,73.23,281l-.93,3.4a50.5,50.5,0,0,0,16.77.55c4.1-.59,7.73-1.83,11.93-1,1.55.33,2.7,1.07,4.32.35s1.68-2.5,2.89-3.3c1.42-.94,2.27.19,3.67-.24,1.2-.37,1.31-1.36,1.85-2.23,1.79-2.83,4.49-3.87,7.47-5.47,2-1.07.22-4.11-1.77-3-2.28,1.23-5.3,2.32-7.27,4-.73.64-1.11,2.23-1.66,2.64-.34.25-.86-.22-2.1,0a4.48,4.48,0,0,0-2.49,1.55c-.43.47-.85,1.75-1.34,2.05-2,1.21-3-.29-4.67-.39a18.78,18.78,0,0,0-5.39.28c-7.25,1.54-13.91,2.19-21.28.77a1.76,1.76,0,0,0-.93,3.4,132.31,132.31,0,0,1,30.22,14.3l-.36-2.76c-1.87,1.52-2.11,3.29-2.45,5.57-.82,5.56-3.34,7.91-7.95,10.8-1.61,1-.6,3.93,1.36,3.22,1.18-.43,3.78-1.64,5.13-1.27L97,312.59c-.46,3.52-3.91,8.25-5.47,11.53-.41.88-1.64,4.53-2.41,5.09-2.78,2-6.37-2.31-8.13-3.78a1.78,1.78,0,0,0-2.94.78c-.57,2.59.06,4.49,1.43,6.74,1.87,3.05,4.77,3.86,2,8.5-.71,1.2-2.2,2.25-3.07,3.37A27.76,27.76,0,0,0,74,352.91c-1.37,4-.53,11.74-5.4,13.49a1.76,1.76,0,0,0,.46,3.45l1.13.13-.88-3.28c-4.61,2.84-6.79,7.45-7.72,12.67-.65,3.61-.4,7.63-1.5,11.12-1.4,4.46-4,4.5-6.3,7.52-1.33,1.74-1.63,3.91-1.84,6-.38,3.88-.57,6.65-2.38,10.2-1.19,2.35-2.69,4.57-3.46,7.11-.91,3-.21,6.85-1.73,9.56-1.21,2.17-3.3,3.88-4.61,6-1,1.66.06,1.1-2.18,3-.58.5-1,.39-1.57,1.15a9,9,0,0,0-1,1.7c-1.37,2.8,0,1.64-3.56,4.72a11.52,11.52,0,0,0-2.95,2.88c-.5.84-.73,1.94-1.31,2.72-1.22,1.65-2.56,1.07-4.13,1.54a4.38,4.38,0,0,0-2.63,1.81c-.09.61-.18,1.21-.26,1.82a5.07,5.07,0,0,1-1.37,1.54,9.47,9.47,0,0,0-1.33,1.63c-1.11,2-.21,5.07-2,6.72a1.78,1.78,0,0,0,.36,2.77c2.44,1.31,4.11.51,6.46-.65,3.3-1.63,13.52-8.25,13.3.15,0,1.85,2.34,2.24,3.28.88l8.91-12.84c2.75-4,6-7.91,8-12.34A45.19,45.19,0,0,1,62.65,435c3.49-4.27,6.77-9,11.24-12.33,1-.77,1.25-3-.42-3.22l-3.67-.53,1.29,1.7c.38-3.65,3.54-7.78,5.33-10.92,1.49-2.61,2.78-5.75,4.8-8,1.14-1.28,2.81-2,3.88-3.33,1.28-1.62.84-2.44,1-4.33.27-3.21,2-2.26,4.25-3.3A5.27,5.27,0,0,0,93,388.38c1.72-3.26-1.22-7.33.88-10.33l-3.28-.88a14.19,14.19,0,0,0,1.57,7.18,1.8,1.8,0,0,0,2.41.63c2.05-1,4.11-1.92,6.2-2.82,1.53-.66.83-2.76-.42-3.22-5.64-2.09,2.72-8.45,3.61-10.58.69-1.66.7-3.18,1.72-4.79.5-.8,3.93-4.6,5-4.07l.42-3.21-.86.24a1.77,1.77,0,0,0-1,2.59,11.94,11.94,0,0,0,8.26,5c2.18.26,6.81,0,7.65-2.64.39-1.25-.43-2.26-.76-3.39-.67-2.27.45-4.63-.3-6.81a3.19,3.19,0,0,0-5-1.71l2.41.63,2.53-5.9a1.77,1.77,0,0,0,.77-2.94l-.88-3.74a6.71,6.71,0,0,1,3.24-2.54,7.41,7.41,0,0,1,6.05.92c1.33,1,2.42,1.74,3.78,2.59,1.71,1.08.7-1.55,1.84,2,.73,2.26.07,2.88-1.06,4.79-1.47,2.48-3.09,4.86-4.79,7.19-1.29,1.75,1.34,3.24,2.76,2.13,5.38-4.2,10.65-9.23,11.64-16.33.4-2.89-.24-5-1-7.72-2.23-7.79,6.59-6.25,11.24-4.8a1.78,1.78,0,0,0,1.71-2.95c-2.44-2.45-5.28-3.29-8.71-3.44-1,0-7.58-.07-7.15-.81a20.73,20.73,0,0,0,2.69-1.31c1-1,.3-3.19-1.25-3l-.81-2.77a1.78,1.78,0,0,0,.42-3.21c-.72-1.46-.43-1.93.86-1.44,1.71.19,2.07-2,1.25-3-2.17-2.74,1.63-5.32,3.13-6.71,2-1.82,4-2.5,6.18-.3s3.11,4.71,5.3,6.73c5.89,5.45,9.87,10.47,9.06,19-.17,1.75,2.5,2.37,3.28.89a22.26,22.26,0,0,0,2.68-11.22c-.12-4.48-1.91-8.25-2.82-12.52-.59-2.77.71-4.23-1.18-6.32-1-1.13-5.53-4-2.78-4.81.78-.23,2.47.42,3.36.33a1.79,1.79,0,0,0,1.7-2.23c-.53-1.73-1.27-2.1-2.45-3.36-.94-1-3.7-.65-1.12-3.35.12-.13,2.88-.52,3-.56a1.78,1.78,0,0,0,0-3.4,20.76,20.76,0,0,1-3.9-1.3c-3.76-2.28-1.81-2-1.73-4.45,0-1.21-1.1-2.13-1.19-2.94q1.66-6.53,4.84-2.93a4.49,4.49,0,0,1,2,1.59,17.42,17.42,0,0,0,2,2.07c2,1.29,4.23,1.25,6.48,1,1.2-.1,2.75-.73,3.95-.39,2.66.75,3.5,2.69,5.09,4.53a9.27,9.27,0,0,0,4.44,2.78c6.32,1.89,11.1-3.31,17.1-3.23a1.76,1.76,0,0,0,.47-3.45,36,36,0,0,1-9.22-3.94c-3.81-2.38-4.86-5.15-4.82-9.54a73.76,73.76,0,0,0-1.65-17.53l-3.22,1.36.31.46c.87,1.3,3.49,1,3.28-.89s-1.18-2-1.84-3.39c-2.18-4.48,4-6,7-6.65,1.65-.34,1.71-3.09,0-3.39-1.29-.23-8.55-1.51-9.09-.62.13-.21,2.28-.48,2.71-.72a4.62,4.62,0,0,0,2.13-2.06,1.77,1.77,0,0,0-1.52-2.64L197,219l-2,.81a7.9,7.9,0,0,1,4.17,3,1.79,1.79,0,0,0,2.49,0c2.27-1.95-.13-5.09,3-6,.24-.07,1,.62,1.48.48.66-.18,1.28-.51,1.88-.7,4.9-1.48,4.41-.8,8.37.32a25.64,25.64,0,0,0,4.87.6c4,.37,7,2.52,10.72,3.79a12.76,12.76,0,0,0,7.43.59,8.14,8.14,0,0,0,3-1.53c2.4-2,.79-3.41,5.72-1.07,2.2,1,3,1.75,5.57,1.29,2.29-.43,4.11-.91,6.55-.28a19.22,19.22,0,0,0,3.34.76,1.77,1.77,0,0,0,1.52-2.65,9.68,9.68,0,0,0-4.69-4.26c-.74-.3-1.94-.26-2.62-.61-1.1-.15-.9-.06.61.29l2.44-1.55c1.39-.88.94-3.39-.89-3.28s-11.94-.3-12.71-2.88c-.16-.53,1.14-1.92.84-2.91a3.49,3.49,0,0,0-2.5-2c-1.54-.56-3,.72-3.67-1.29-.47-1.46.39-1.17.46-2.35.14-2.5-1.11-4.25-3.91-3.61-3.4.78-5.13,5.18-9.27,1.42-2.54-2.31-.61-5.12-1.39-7.7-.44-1.42-1.28-1.16-2.07-2.15-1.94-2.46.82-4.25.34-6.63s-3.85-1.72-1.52-5.9c1.21-2.18,3.27-1.26,5.17-1.69,3.88-.86,3.24-2.8,8.38-2.5,2.23.13,3.53.75,5.82-.07,1-.35,2.24-1.39,3.29-1.59,5-1,5.21,1.13,7.2,3.8a32.59,32.59,0,0,0,6.11,6.14,1.79,1.79,0,0,0,2.76-.36,53.12,53.12,0,0,0,5.42-15l-3.39-.94-.19,1.18,3.39.94c1.33-8.29,9.44-10.73,16.81-10.77a1.77,1.77,0,0,0,.89-3.28,49.55,49.55,0,0,1-6-4.24c-.66-.55-1.31-1.13-1.93-1.73q1.08-3.72,4.75-3.31c1.59-.16,2.57-2.41.88-3.28q-3.37-.93-1.37-4.32a1.77,1.77,0,0,0,1.23-2.16c-1.82-5.36-2.59-12.17,4.42-13.76,3.64-.83,7,1.17,10.64.66,1.2-.17,1.51-1.7,1.05-2.59-1.33-2.59-4.19-6.34-3.85-9.14.24-2,1.58-2.81,1.44-5a1.78,1.78,0,0,0-2.23-1.7c-1.44.48-.39-7.11-.45-6.91a12.07,12.07,0,0,1,4-5.28,16.16,16.16,0,0,0,3.69-3.79c1-1.62-.94-3.08-2.4-2.41C297.75,81,295.72,68.77,298,67.34a1.78,1.78,0,0,0,.36-2.77c-2.94-2.54-2.48-6.43-1.41-9.81s3.76-6,4.65-9.11a3.32,3.32,0,0,0-.39-2.86c-.24-.37-.64-.37-.91-.63-2.11-2-3.86-2.19-5-5.25-2.25-6.06-2.19-12.78-4.57-18.88-2.27-5.83-6.1-10.45-7.14-16.8-.23-1.46-2-1.48-2.94-.78-6.63,5.14-11.52,12.48-16.36,19.24-2.75,3.84-5.43,7.73-8.09,11.63-2.27,3.33-4.53,6.17-4.77,10.29a1.78,1.78,0,0,0,2.65,1.52c-2.25,1.23-2.17-.71-2.89,2.16-.28,1.11,0,2.23-.1,3.33-.56,4.18-4.29,6.46-6,10.14a17.83,17.83,0,0,0,.61,16l2.41-2.41-.82-.35a1.82,1.82,0,0,0-2.41.63c-1.49,2.33-6.93.18-9.26,2.31s-1.46,6.12-3.28,8.77l2-.81c-2.67-.59-3.27-4.27-6.41-3.85A4,4,0,0,0,225.16,81c-.42.58-1.85,3.49-1.68,3.81-.78-1.45-2.7-.9-3.21.42a7.46,7.46,0,0,0,1,7.41,12,12,0,0,0,2.79,2.58c1.56,1.12,1.69.69,1.95,2.93.27,2.39-.54,2.33-1.51,4.35-3.4,7.12,3,12.81,8.27,16.45l.42-3.22c-1.62.35-5.19-3.44-6.48-4.62a1.78,1.78,0,0,0-2.95.77,21.7,21.7,0,0,0,.42,10.38l2.59-2a13.42,13.42,0,0,0-14.18.75,1.83,1.83,0,0,0-.63,2.41l1,2.15L214,123a7.29,7.29,0,0,1-2.08.65c-1.87.43-1.47,2.8,0,3.39l.76.32.46-3.46c-9.29.28-2.37,13.23-.92,17.59l2.58-2c-4.48-2.18-8.57-3.67-13.41-1.76-1.5.59-1.63,1.46-3.57,1.78-2.1.35-4.74-.53-6.81-.87-4-.66-10.82-1-12.1-5.75a1.77,1.77,0,0,0-3.39,0c-2.75,8.43,4.79,14.17,11.65,17.07,1,.4,9.06,3.29,8.2,4.75.22-.37-3,0-3.29.12-1.1.57-1.5,1.65-2.19,2.57-.86,1.15-.37,1.64-2,2.08-.57.16-1.31-.45-1.94-.31-2.25.48-4.05,2.31-3.52,4.82.45,2.11,2.49,1.83,1.56.08-.38-.73-2.11-.61-2.78-.44-1.25.33-1,1.13-2.23.93-1-.15-1.46-1.27-2.69-1.28a3.59,3.59,0,0,0-2.47,1.15c-.67.52-.91,1-.09,1.3-.32-.11-.53-3.86-.57-4.16-.25-1.79-3-1.57-3.4,0-.23.88-.87,5.8-1.61,6.15-.45.21-1.93-.64-2.73-.41-2.3.67-2.15,2.71-2.32,4.65-.43,5.07-4.81.75-7.58.29s-3.12,2.3-5,3.2c-2.5,1.21-3.57-3.69-5.93-4.45-.35-.11-3.34-.23-2.8.43s.57-2.3.48-2.67c-.59-2.47-2.87-3.37-5.08-3.86-5.53-1.22-10.3-2.13-15.32-5-1.86-1-3.3,1.27-2.13,2.77a92.51,92.51,0,0,1,7.58,11.94,10.09,10.09,0,0,0,5.32,5l-1-2.59-.28.37a1.79,1.79,0,0,0,.64,2.41c2.44,1.54,5,3.08,6.69,5.44,2.24,3,1.17,5.63,2.25,8.72,1.22,3.48,11,8.3,9.64,11.86l2.94-.78c-1.41-1.16-2.91-1.33-4.26.16-.86.95-.63,2.33-1.62,3-2.07,1.35-6.53-1.15-8.33-2.22a1.77,1.77,0,0,0-2.13,2.76c2.08,2.3,4.2,4.56,6.23,6.89,1.22,1.39,2.66,2.64,3.21,4.46.86,2.83.37.37-.47.33a8.13,8.13,0,0,0-2.32-.19c-1.93.42-1.42,1.68-2.74-.1a1.78,1.78,0,0,0-3.21.42,5.5,5.5,0,0,0-.37,1.54q.18,2.85-1.77-.75a1.78,1.78,0,0,0-3.28-.89c-.9,1.17-.86,5.16-1.6,5.7-1.54,1.13-4.52-4.64-5.69-5.61a1.78,1.78,0,0,0-2.94.78c-1,4.61-3.56,7.68-8.6,6.49a33.64,33.64,0,0,1-7.76-3.44c-4.2-2.23-8.25-4.23-13.07-4.51a1.78,1.78,0,0,0-1.25,3c5.86,6.08,12.3,8.76,20,11.54,4.32,1.54,5.81,5.91,8.7,9.11a32.81,32.81,0,0,0,8.9,6.8l-.36-2.76c-2.11,1.79-4,4.93-.91,6.57a1.85,1.85,0,0,0-2.14.28c-1.34,1.16-1.28,2.07-1,3.79.23,1.44.76,1.44-.28,2.54s-4.21,1.91-5.69,2.58-.81,3.42.89,3.28c2,1.33,2.22,2.29.7,2.88l-2.5,1.62c-1.89,1.23-.13,4.28,1.78,3Z"/><path class="cls-2" d="M121.27,289.86C104.94,320,92.54,351.92,76.61,382.24A630.94,630.94,0,0,1,23,467.05c-.52.69.34,1.39,1,1.29L34,466.85c1.19-.18,3.22-.08,4.32-.64,1.73-.9,2.69-4,3.61-5.66q13.73-24.85,27.46-49.69,27.71-50.13,55.4-100.25C160.89,245.35,198,180.54,232,114.17c18.53-36.15,35.79-73,50.47-110.85.36-.92-1.22-1.59-1.61-.68-33.41,78.61-79.81,150.54-123.32,223.75-12.45,21-24.66,42.05-36.31,63.47-.54,1,1,1.88,1.52.88C163.54,215.8,211.46,145,251.06,69.38c11.29-21.54,21.85-43.46,31.36-65.85l-1.6-.68C254.7,70.23,220.38,133.94,185.54,197.1q-53.92,97.75-108,195.43L47.18,447.45c-2.56,4.65-5.23,9.25-7.71,13.95-1.58,3-1.48,3.09-4.63,3.56l-11.36,1.68,1,1.3a630.41,630.41,0,0,0,53.66-84.82c15.93-30.32,28.33-62.24,44.66-92.38C123.33,289.75,121.81,288.86,121.27,289.86Z"/><path class="cls-2" d="M270.22,30.89a52,52,0,0,1,8.54-4.35,5.23,5.23,0,0,0,3.15-2.28c.1-.24.2-.49.28-.74A4.45,4.45,0,0,1,285,21.46a7.15,7.15,0,0,0,.64-.69c1-1.5.52-4.54.61-6.23,0-.28-.42-.28-.44,0a27.24,27.24,0,0,1-.18,3.38A3.72,3.72,0,0,1,284,21.34l-.92.26a10.5,10.5,0,0,0-1.18,1.48c-1.92,2.57-3.2,2.92-5.79,4.09A53.35,53.35,0,0,0,270,30.51c-.24.15,0,.53.22.38Z"/><path class="cls-2" d="M270.3,31.15a47.81,47.81,0,0,1,7.3-4c4.28-1.72,7.1-1.92,8.64,2.21s3.13,5.78,7.15,8c.24.14.47-.24.22-.38-2.68-1.48-5.82-3.12-6.72-6.37.48,1.73-.44-3.35-.37-3.24-.77-1.22-.92-.95-2.46-1.4-5-1.48-9.8,2.19-14,4.79-.24.15,0,.53.22.38Z"/><path class="cls-2" d="M264.87,44.31c3.69-1.9,8.36.15,12.31-1.83a10.4,10.4,0,0,0,3.57-3.13c2.23-2.73,4-4.66,7.31-6.14.25-.11,0-.49-.22-.38a17.2,17.2,0,0,0-4.69,3c-2,1.88-3.18,4.6-5.62,6-4.14,2.45-8.94.08-12.88,2.11-.26.13,0,.51.22.38Z"/><path class="cls-2" d="M299,45c-3,2.24-10.66,2.31-13.33.53a47,47,0,0,0-6.93-4.35c-.26-.12-.48.26-.22.38a36.63,36.63,0,0,1,7.32,4.7,4.49,4.49,0,0,0,2.79,1.34c1.67.17,3.72-.51,5.36-.77,1.83-.29,3.71-.31,5.23-1.45.22-.17,0-.55-.22-.38Z"/><path class="cls-2" d="M294.56,40.07c-1.77,3.11-5.38,4.31-6.71,7.72-1.6,4.13-2.32,9.59-5.63,12.85-3.67,3.62-8.18,4.43-12.85,6a57.63,57.63,0,0,1-15.44,2.69c-.28,0-.29.46,0,.44,5.36-.29,9.81-.73,14.88-2.49,4.28-1.49,8.29-2,12-4.84s4.82-5.86,6.29-10.1c1.09-3.14,1.22-5.48,3.84-7.88,1.53-1.4,2.93-2.3,4-4.12a.22.22,0,0,0-.38-.22Z"/><path class="cls-2" d="M260.65,54.93c4.16-.22,9,.09,12.89,1.7,2.6,1.07,4.44,3.31,7.08,4.29,1.65.61,1,.2,2.72.56,3.73.77,3.48.7,5.89,2.2a10.22,10.22,0,0,0,7,1.48c.28,0,.28-.47,0-.44-4.59.54-6.19-2.12-9.86-3.41-1.49-.53-1.56,0-3.07-.27a14.16,14.16,0,0,1-6-2.65c-4.79-3.45-10.79-4.21-16.64-3.9-.28,0-.28.45,0,.44Z"/><path class="cls-2" d="M267.83,55.29c5.41-1,10-3.75,15.56-2.38,4.66,1.15,8.56.89,13.32,1.24.28,0,.28-.42,0-.44-3.39-.25-6.74.42-10.12-.29-2-.43-3.92-1.65-6-2-1.75-.27-3,.33-4.56.92a52.72,52.72,0,0,1-8.35,2.49c-.28.06-.16.48.11.43Z"/><path class="cls-2" d="M252.65,63.33a3.75,3.75,0,0,0-1.26-2.57,5.5,5.5,0,0,0-1.24-.91c-.61-.32-1.41-.43-1.8-1.06-.15-.24-.53,0-.38.22.46.76,1.34.88,2.07,1.29a3.87,3.87,0,0,1,2.17,3,.22.22,0,0,0,.44,0Z"/><path class="cls-2" d="M255.89,34.74c.5,1.06,1.39,1.84,1.8,2.94a7.84,7.84,0,0,0,1.07,2.48,8.28,8.28,0,0,0,4.62,3.2c.27,0,.39-.38.11-.43a7.66,7.66,0,0,1-5.09-4.3,8.92,8.92,0,0,0-.62-1.87,26.58,26.58,0,0,1-1.51-2.24c-.12-.26-.5,0-.38.22Z"/><path class="cls-2" d="M240.35,75.74c1.62.23,2.87,1.77,4,2.82.21.19.52-.12.31-.31-1.22-1.1-2.52-2.69-4.23-2.94-.28,0-.4.39-.12.43Z"/><path class="cls-2" d="M248.08,80.89c1.06-.23,2,.34,3,.42a16.24,16.24,0,0,0,3.6-.32,22.64,22.64,0,0,0,5.92-1.63c.25-.11,0-.49-.23-.38a24.9,24.9,0,0,1-7.85,1.83c-1.59.14-3-.68-4.54-.34-.27.06-.16.48.12.42Z"/><path class="cls-2" d="M240.05,97.47c2.8-1.1,5.41-.39,8.29-.25,2.49.12,5,0,7.49-.08,6-.12,13.44-1.4,18.88,1.64,2,1.11,4.53,4.27,7.11,3.67,2.93-.67,8-10.18,10.91-2.94.1.26.52.15.42-.12a4.53,4.53,0,0,0-5.17-2.7c-1.52.39-2.34,2.23-3.54,3.11-2,1.43-3.68,2.06-6,1-1.48-.67-2.81-2.12-4.28-2.88-4.7-2.4-10.43-1.42-15.5-1.32-3.73.08-7.52.35-11.25.1-2.71-.18-4.95-.7-7.52.3-.26.1-.15.53.12.43Z"/><path class="cls-2" d="M297.78,83.52a11.72,11.72,0,0,1-9.94-1.78c-.4-.25-1.75-1.55-2.35-1.65-1.38-.21.15-.13-1.22.31-1,.32-4.08,4.48-5.46,5.43s-2.63,1.64-3.88,2.57c-3.47,2.57-6.45,5.62-10.29,7.69-.25.13,0,.51.22.38a50.11,50.11,0,0,0,7.86-5.72c3-2.42,6.6-4.2,9.31-6.92,1.38-1.39,1.83-3.07,4.45-2.54,1.07.21,2.61,1.87,3.71,2.32a12,12,0,0,0,7.71.34c.27-.07.15-.5-.12-.43Z"/><path class="cls-2" d="M226.33,124.09c7.38,1.93,16.86.91,24.3-.37,5-.85,10-1.38,15-2.15a23.82,23.82,0,0,0,10.5-4.14c2.78-2,4.15-4.4,5.87-7.24,1.56-2.56,3.31-4,6.25-4.41,2.76-.39,5-1.24,6.56,1.48.36.62,2.32,5.22,2.09,5.74-.42.94.05.07-1.29-.09-4.49-.53-9.14-1.93-13.6-2.79-.28-.05-.39.37-.12.42,4.73.92,11.85,1,15.74,4.12a.22.22,0,0,0,.35-.26,80.85,80.85,0,0,1-3.49-9.75.23.23,0,0,0-.27-.16c-3.92.56-9.7-.15-11.88,3.66-1.48,2.58-2.06,4.88-4.3,7.08a21.47,21.47,0,0,1-10.11,5.42c-3.26.77-6.58.69-9.88,1.14-3.76.51-7.38,1.59-11.18,2-6.34.7-14.19,1.49-20.42-.14-.27-.07-.39.36-.12.43Z"/><path class="cls-2" d="M210.39,153.52c10.23,2.08,22.17-.58,32.22-2.75,5.58-1.21,11.23-2.44,16.71-4,5.91-1.73,11.35-7,17.73-6.11.27,0,.39-.39.11-.43-4-.55-7,1-10.38,2.86-5.42,2.89-11,4.18-17,5.61-12.17,2.93-26.75,7-39.3,4.43-.27-.05-.39.37-.11.43Z"/><path class="cls-2" d="M264.91,144.47c5,3.3,11.41,5.15,17.41,4,.28-.05.16-.48-.12-.42-5.88,1.15-12.14-.7-17.07-3.93-.24-.16-.46.22-.22.38Z"/><path class="cls-2" d="M258.55,146.82c3.5,4.42,7.4,6.62,13.15,6.39.28,0,.28-.45,0-.44-5.6.23-9.46-2-12.84-6.26-.17-.22-.48.09-.31.31Z"/><path class="cls-2" d="M250.81,148.76c1.83,1.89,3.14,4.19,5.23,5.85a30.9,30.9,0,0,0,6.58,3.83c.26.12.49-.26.23-.38a28.26,28.26,0,0,1-7.1-4.26c-1.79-1.56-3-3.65-4.63-5.35-.19-.21-.5.1-.31.31Z"/><path class="cls-2" d="M200,172.52c8.21,5,17.05-1.81,25.74-.64.28,0,.4-.38.12-.42-8.6-1.16-17.6,5.59-25.63.68a.22.22,0,0,0-.23.38Z"/><path class="cls-2" d="M207.53,174.6c-.06.49,1.89,2.55,2.32,3.18.79,1.14,1.59,2.28,2.38,3.43,1.89,2.74,4.06,5.76,2.16,9.2a.22.22,0,0,0,.38.22c1.33-2.4.84-4.79-.49-7.1-1-1.74-2.23-3.35-3.37-5-1-1.43-1.86-3.27-3.2-4.39a.23.23,0,0,0-.22-.06l-.22.09a.24.24,0,0,0-.16.21l0,.21c0,.28.41.28.44,0Z"/><path class="cls-2" d="M180.2,207.12c5.11,1.47,9.2,3.07,14.58,3.17,6.31.11,12.54-.75,18.86-.51,6.91.27,14,.57,20.3,3.82,3.16,1.65,5.53,4.1,9.27,3.39.28-.05.16-.48-.11-.42-4.37.82-9.79-4.15-14-5.4-5-1.46-10.27-1.63-15.43-1.83-5.34-.2-10.58.48-15.91.53a44.27,44.27,0,0,1-9.28-.44c-2.8-.58-5.39-1.94-8.13-2.73a.22.22,0,0,0-.12.42Z"/><path class="cls-2" d="M227.47,196.91c-3.57,1.45-6.47,3.82-9.6,6-2.6,1.82-6.17,2.9-7.81,5.76a.22.22,0,0,0,.38.22c1.65-2.87,5.89-4.33,8.53-6.23a41.87,41.87,0,0,1,8.62-5.34c.26-.1.14-.53-.12-.42Z"/><path class="cls-2" d="M154,259.52c6.09-.61,12.2-1.66,18.22,0,7.9,2.13,15,4.32,20,11.27.16.23.54,0,.38-.22-4.59-6.46-9.82-8.35-17.17-10.56s-13.76-1.65-21.39-.89c-.28,0-.28.47,0,.44Z"/><path class="cls-2" d="M169,258.81c4.25-4,11-1.3,16.21-1.85,3.45-.36,4-1.33,7.8,1,2,1.18,3.76,3.12,5.52,4.58.22.18.53-.13.31-.31-2.11-1.75-5.35-5.86-8.18-6.52-1.68-.39-3.82.6-5.49.78-5.37.57-12.09-2.08-16.48,2-.21.2.11.51.31.31Z"/><path class="cls-2" d="M167.28,240.62c1.85,5,7.54,3.92,11.88,4.61,5.58.88,8.29,6.12,14.38,4,.27-.1.15-.52-.11-.43-5.48,1.94-7.06-2.22-11.26-3.66-4.43-1.52-12.24,1.41-14.47-4.6-.1-.27-.52-.15-.42.11Z"/><path class="cls-2" d="M176.47,233.22c1.8,1.47,3.1,3.33,5.22,4.41a24.81,24.81,0,0,0,6.82,2c.28,0,.4-.37.12-.42a24.87,24.87,0,0,1-6.72-1.92c-2.08-1.07-3.36-2.9-5.13-4.34-.21-.18-.53.13-.31.31Z"/><path class="cls-2" d="M134.12,293.3c3.16-1.29,6.5-1.66,9.85-2.19,1.83-.29,3.79-.75,5.64-.89,4.92-.38,6.24.49,9.33,3.16,5.41,4.68,14,9.76,15,17.37,0,.28.47.28.44,0a14.39,14.39,0,0,0-4.91-9c-3.58-3.35-7.54-6.59-11.34-9.69a9.2,9.2,0,0,0-7-2.49c-5.43.33-12,1.25-17.07,3.31-.25.1-.14.53.12.42Z"/><path class="cls-2" d="M150.63,278.1a10.9,10.9,0,0,0,7.43-4c2.33-2.9,3.18-6.74,6.37-8.95.24-.16,0-.54-.22-.38-2.12,1.47-3.25,3.53-4.45,5.76-2,3.77-4.63,6.57-9.13,7.12-.28,0-.28.48,0,.44Z"/><path class="cls-2" d="M169.4,277.48c-4.1.87-8-2.55-11.94-.56-.25.12,0,.5.22.38,3.85-1.92,7.82,1.45,11.84.6.27-.06.16-.48-.12-.42Z"/><path class="cls-2" d="M125.15,308.83c6.34-4.14,13.87-11,21.62-11.76.28,0,.28-.47,0-.44-8,.82-15.33,7.57-21.85,11.82-.23.15,0,.53.23.38Z"/><path class="cls-2" d="M125.14,321.16a95.8,95.8,0,0,1,16.41-4.8c.27-.06.16-.48-.12-.42a95.43,95.43,0,0,0-16.4,4.8c-.26.1-.15.52.11.42Z"/><path class="cls-2" d="M112.88,333.43c3.86-2.68,8.49-2.43,13-2.25,3.26.13,5.78.18,8.21,3,.86,1,1.15,1.93,2.18,2.79.21.18.53-.13.31-.31-1.57-1.32-2.08-3.35-3.75-4.52s-3.61-1.22-5.42-1.34c-5-.35-10.44-.74-14.72,2.23-.24.16,0,.54.22.38Z"/><path class="cls-2" d="M82.64,387.89C90,383.48,93,375.1,97.34,368.11c2.77-4.43,6.93-12.95,12.42-13.9,3.91-.67,9,4.11,12.77,5.19a.22.22,0,0,0,.12-.42c-4-1.15-7.37-4.3-11.52-5-4-.71-5.57,1.89-7.84,4.83a116.53,116.53,0,0,0-8.94,13.51c-3.26,5.75-6,11.7-11.94,15.23a.22.22,0,0,0,.23.38Z"/><path class="cls-2" d="M75.88,360.16c2.85-3.47,3.46-7.76,3.91-12.1,0-.24-.3-.27-.41-.11-4.2,5.91,2.76,12.29,6.24,16.57.18.22.49-.09.31-.31-2.71-3.34-8-7.93-7.43-12.63,0-.21.39-3.82.69-2.05a10.11,10.11,0,0,1-.51,3.4,15.6,15.6,0,0,1-3.11,6.92c-.18.21.13.53.31.31Z"/><path class="cls-2" d="M63.69,386.09c.94-1.94,2-3,4.43-2.66a18.56,18.56,0,0,0,2,.6,4.93,4.93,0,0,0,4-1.73c.19-.2-.12-.52-.31-.31a4.59,4.59,0,0,1-5.53,1.06,3.64,3.64,0,0,0-1.73-.49c-1.57.14-2.71,2.07-3.31,3.3-.13.26.25.48.38.23Z"/><path class="cls-2" d="M108.62,316.33a46.32,46.32,0,0,1-4.32-14.87c-.25-2.37.35-5.35-.46-7.64s-3.33-3.41-5.29-4.56c-3.54-2.05-7.1-4.08-10.65-6.12a.22.22,0,0,0-.22.38l9.12,5.25a29.32,29.32,0,0,1,4.2,2.45c3.14,2.63,2.5,5.31,2.71,8.5a46.48,46.48,0,0,0,4.53,16.83c.13.26.5,0,.38-.22Z"/><path class="cls-2" d="M112.54,309.14a25.4,25.4,0,0,1-2.94-12.82c.25-5,2.71-6.51,4.85-10.24,2-3.47,2.84-7.94,1.08-11.65-.12-.25-.5,0-.38.22,2.32,4.89-.08,10.4-3.29,14.17a8.49,8.49,0,0,0-2.42,4.94,25.3,25.3,0,0,0,2.72,15.6c.13.26.51,0,.38-.22Z"/><path class="cls-2" d="M95.27,282.1a16.82,16.82,0,0,1,7.31,4.67c2.25,2.6,2.55,5.41,3.57,8.53.09.27.51.16.42-.11-1-3.25-1.33-6.08-3.68-8.73a17.33,17.33,0,0,0-7.5-4.78c-.27-.1-.39.33-.12.42Z"/><path class="cls-2" d="M136.41,264.17c-2-2.78-4.06-5.15-3.62-9.11.11-1,.61-1.9.68-2.87.17-2.58-.82-4.36-2.44-6.38-3.85-4.78-9.87-7.9-14.86-11.3-.23-.16-.45.22-.22.38,4.93,3.36,14.15,7.54,16.31,13.46,1.2,3.32-.7,6.35-.11,9.52.45,2.41,2.5,4.63,3.88,6.52.17.23.55,0,.38-.22Z"/><path class="cls-2" d="M141.31,255.13c-6.59-1.6-4.89-9.53-6.36-14.68a28.24,28.24,0,0,0-5.46-10.11c-.18-.22-.49.09-.31.31a27.58,27.58,0,0,1,5.55,10.71c.7,2.81.45,5.44.88,8.21a6.82,6.82,0,0,0,5.58,6,.22.22,0,0,0,.12-.42Z"/><path class="cls-2" d="M146.58,247.06c-4-3.71-6.16-9.83-7.24-15.05-.06-.28-.48-.16-.43.12,1.1,5.31,3.27,11.47,7.36,15.24.2.2.52-.12.31-.31Z"/><path class="cls-2" d="M149.7,241.38c-1-1.63-2.16-3.11-3.23-4.7-1.52-2.24-1.77-4.91-1.74-7.54a.22.22,0,0,0-.44,0,14.92,14.92,0,0,0,1,6.38c1,2.16,2.73,4.07,4,6.08.15.24.53,0,.38-.22Z"/><path class="cls-2" d="M164.41,216.79c-5-3.88-5.92-9.89-8.51-15.28-2.68-5.57-8.35-7.8-11.4-12.95-2.45-4.13-4.47-9.08-7.47-12.79-3.18-3.93-7.21-9.68-12-11.63-.26-.1-.37.32-.12.43,3.37,1.37,6.32,5.4,8.71,8a30.82,30.82,0,0,1,5.5,7.51c1.9,4,4.46,9.17,7.68,12.2,2,1.9,4.35,3.28,6.15,5.43,2.28,2.71,3.41,5.94,4.65,9.23,1.48,3.93,3.12,7.51,6.51,10.13.22.18.53-.13.31-.31Z"/><path class="cls-2" d="M148.12,178.59a12.37,12.37,0,0,0,1.68,1.79c2.74,2.49,3,5,3.4,8.43.46,3.76,2.24,7.09,1.85,11,0,.28.41.28.44,0,.45-4.58-1.79-8.8-2-13.35s-2.43-4.7-5-8.06c-.17-.22-.56,0-.38.22Z"/><path class="cls-2" d="M177.56,194.91a17.08,17.08,0,0,0-6.89-3.11c-2.48-.65-7.81-2.25-9.58-4.41-2.52-3.06.29-3.71,0-6.25-.19-1.87-3-4.43-4.15-5.69-.19-.21-.5.1-.31.31,2.32,2.54,4.16,4.05,3.25,7.93-.14.59-.67,1.08-.66,1.73,0,1.09.47,1.41,1.22,2.08,4.85,4.3,11.9,4,16.87,7.79.23.17.45-.21.23-.38Z"/><path class="cls-2" d="M162.75,176.1a11.16,11.16,0,0,0,5.06,5.38c4,2.35,4.83,6.67,5.94,10.88a.22.22,0,0,0,.42-.12c-.76-2.9-1.36-6.65-3.35-9a9.76,9.76,0,0,0-2.79-2.1,11,11,0,0,1-4.9-5.22c-.11-.26-.49,0-.38.22Z"/><path class="cls-2" d="M171,183c-.34-1.42,1.16-2.46,2-3.32a5.15,5.15,0,0,0,1.33-1.93c.1-.27-.33-.38-.43-.12-.7,1.94-3.94,3.12-3.36,5.48.06.28.49.16.42-.11Z"/><path class="cls-2" d="M235.74,95c-1.65-2.13-4.28-2.61-6.45-4-2.41-1.59-4.48-2-7.31-2.51-.28,0-.4.38-.12.43,2.71.5,4.87.92,7.2,2.46,2.14,1.42,4.74,1.88,6.37,4,.18.22.49-.09.31-.32Z"/></g></g></svg>