<svg xmlns="http://www.w3.org/2000/svg" viewBox="0 0 244.75 245.27"><defs><style>.cls-1{fill:#f5bb3a;}.cls-2{fill:#38301f;}.cls-3{fill:#da9b36;}.cls-4{fill:#723a29;}.cls-5{fill:#ad9689;}.cls-6{fill:#82c6d7;}.cls-7{fill:#a34a27;}.cls-8{fill:#eae3ca;}.cls-9{fill:#979b3d;}.cls-10{fill:#a5c08a;}.cls-11{fill:#f26733;}</style></defs><title>deskright</title><g id="Layer_2" data-name="Layer 2"><g id="candle"><path class="cls-1" d="M198.05,72.36a13.36,13.36,0,0,1-4.05-5.8,4.3,4.3,0,0,0-1.6-1.7c-1.5-.7-2.65-.75-3.15-1.2L186.4,61c-2.75-2.7-8.85-2.85-12.75-2.65-7,.35-10.9,3.2-13.65,4.9-4.4,2.8-7.7,4.85-9.6,7.75a4.77,4.77,0,0,0-.65,1.7h.05a3.15,3.15,0,0,1,1.6,0c1,.25,1.5,1,2.1,1.45,1.55,1.2,2.95-.15,6.4.4a8.49,8.49,0,0,1,4.3,1.7c1.35,1.15,1.45,2.2,2.4,4,.8,1.45,2.45,3.15,5.8,6.45,2.85,2.8,4.25,4.2,5.4,4.85a4.53,4.53,0,0,1,1.3.8,2.48,2.48,0,0,1,.65.2,23.61,23.61,0,0,0,10,.5,14.93,14.93,0,0,0,6.2-2.25,8.75,8.75,0,0,0,1.65-1.4C196.2,88.71,200.65,79.56,198.05,72.36Z"/><path class="cls-2" d="M198.7,71.76a12.28,12.28,0,0,1-3-3.75c-.7-1.3-1-2.45-2.15-3.4a8.18,8.18,0,0,0-2.5-1.15,9.73,9.73,0,0,1-3.1-2.2c-3.45-3.3-7.8-3.9-12.45-3.85a27.11,27.11,0,0,0-14.75,4.4c-3.85,2.4-10.85,5.7-11.75,10.7a.91.91,0,0,0,1.1,1.1c1.5-.45,2.3,1,3.5,1.6a3.75,3.75,0,0,0,2.1.35c2.9-.1,6.3-.65,8.5,1.8,1.35,1.55,1.8,3.7,3.15,5.3a80.68,80.68,0,0,0,6.15,6.25,25,25,0,0,0,4.55,3.7c2.2,1.35,5.15,1.55,7.7,1.6,4.55.1,9.25-1,12.65-4.25a.91.91,0,0,0-.2-1.4c-.25-.2,1.25-6.25,1.35-7a20.82,20.82,0,0,0-.55-9.45c-.35-1-2-.6-1.7.45,1.35,4.15.65,8.4-.2,12.55-.3,1.45-1.2,3.9.2,5-.05-.45-.1-.9-.2-1.4C193,92.56,186.3,93,181,91.81a11.69,11.69,0,0,1-5.25-3.2c-2.15-2-4.3-4.15-6.35-6.3-1.5-1.6-2.1-3.25-3.2-5.1a7.7,7.7,0,0,0-5.55-3.5,11.74,11.74,0,0,0-3.25-.2c-.85,0-2,.45-2.85.15-1.1-.4-1.65-1.55-2.85-1.85a3.93,3.93,0,0,0-2.15,0l1.1,1.1c.5-2.75,3.55-4.8,5.7-6.25,2-1.35,4-2.65,6.1-3.9a25.55,25.55,0,0,1,14.3-3.6,18,18,0,0,1,7.3,1.3,15.44,15.44,0,0,1,3.7,3c1.9,1.75,4.4,1.6,5.7,4.05a16.22,16.22,0,0,0,3.95,5.4C198.3,73.71,199.55,72.51,198.7,71.76Z"/><path class="cls-3" d="M179.1,92.36a6,6,0,0,0-1.3-.8c-1.15-.65-2.6-2-5.4-4.85-3.35-3.35-5.05-5-5.8-6.45-1-1.85-1-2.9-2.4-4.05a8.33,8.33,0,0,0-4.3-1.7c-3.4-.55-4.85.8-6.4-.4a4.77,4.77,0,0,0-2.1-1.45,3.24,3.24,0,0,0-1.6,0h-.05a4.27,4.27,0,0,0-2.45,2.15,6.59,6.59,0,0,0-.25,5.65c.5,1.25,1.2,1.7,1.85,3.65.35,1,.15.85.4,1.55.6,1.55,1.55,2,3.3,4.2.6.75.65.9,1,1.3,1.95,2.45,5.35,3.15,7.9,3.65a30.83,30.83,0,0,0,9.2.25c3-.3,8.45-1.25,8.45-2.4A.19.19,0,0,0,179.1,92.36Z"/><path class="cls-2" d="M179.75,91.76c-.9-.8-2-1.25-2.95-2.05-1.65-1.4-3.15-3-4.7-4.55-1.15-1.15-2.35-2.3-3.45-3.55a20.38,20.38,0,0,1-2.35-4c-1.55-2.9-4.8-4-8-4-1.65,0-3.2.7-4.65-.4a4.82,4.82,0,0,0-3.2-1.4c-2.7,0-4.4,2.7-4.8,5.1-.5,3.3,1.65,5.65,2.55,8.6a8,8,0,0,0,1.6,2.75c1.2,1.35,2.25,2.9,3.5,4.15,2.45,2.45,6.3,3.15,9.6,3.6,2.05.25,18.45.4,16.9-3.8-.4-1-2.1-.6-1.7.45.15.35-8.15,1.65-9.15,1.7A26.71,26.71,0,0,1,157.8,93a10.05,10.05,0,0,1-4.65-3.75c-1.1-1.35-2.6-2.5-3.2-4.2a23.12,23.12,0,0,0-1.45-3.65c-1.1-2-1.7-4.15-.4-6.25a3.07,3.07,0,0,1,2.4-1.7c1.15,0,1.7.9,2.55,1.45a4.33,4.33,0,0,0,2.95.55,14.57,14.57,0,0,1,5.3.25c2.55.75,3.25,2.5,4.35,4.6,1.3,2.5,3.55,4.4,5.5,6.35,1.45,1.45,2.85,2.9,4.4,4.25.9.8,2,1.25,2.95,2S180.6,92.51,179.75,91.76Z"/><path class="cls-3" d="M214.8,79.91a2.45,2.45,0,0,0-1.35-1.2,15.91,15.91,0,0,1-2.8-2.25c-1.7-1.55-1.6-2.15-3-2.9-1-.55-1.05-.25-2-.8-1.75-1.05-1.45-2.2-3-3-.95-.5-1.2-.15-2.6-.8-.8-.4-.85-.6-1.8-1.15-.25-.15-2.7-1.6-3.15-1.15s1.2,2.4,2.1,4a10.33,10.33,0,0,1,.75,1.7c2.55,7.2-1.85,16.3-.4,17h.05c.25.1.3-.2,1.45-.4,1.45-.3,1.9.1,2.8-.25.6-.2.45-.4,1.8-1.45a10.3,10.3,0,0,1,2.65-1.8c1.25-.5,1.75-.2,2.4-.8.5-.5.35-.8.95-1.35a6.13,6.13,0,0,1,1.7-.9,13.58,13.58,0,0,1,1.7-.65c.85-.2,1.1-.1,1.35-.4A1.25,1.25,0,0,0,214.8,79.91Z"/><path class="cls-2" d="M215.55,79.46c-.7-1.1-1.75-1.5-2.75-2.25-1.4-1.1-2.4-2.5-3.7-3.65-.9-.85-2-1-3-1.6-1.3-.8-1.7-2.35-3.1-3-1.15-.6-2.35-.7-3.5-1.4a12.71,12.71,0,0,0-2.7-1.45c-1.5-.55-3.05-.2-2.4,1.65s2.1,3.15,2.75,4.9a14.78,14.78,0,0,1,.75,5.9c-.1,3-1,6-1.4,9-.15,1-.25,2.6,1.1,2.8,1,.15,2.3-.45,3.3-.5a3.18,3.18,0,0,0,2.1-.75c1.65-1.2,2.7-2.4,4.75-3,1.6-.45,1.45-1.2,2.65-2.15,2-1.6,5.8-.7,5.15-4.25-.2-1.1-1.9-.65-1.7.45.15.8-3.1,1.6-3.75,2-1,.55-1.45,1.6-2.4,2.2s-2.3.6-3.35,1.3c-.9.65-1.75,1.85-2.7,2.3a8.39,8.39,0,0,1-2.25.2c-.5,0-1.25.45-1.65.4.7.1.05.35.4-.35a6.76,6.76,0,0,0,.25-1.45,53,53,0,0,0,1.25-8.9,16.9,16.9,0,0,0-2.85-9.4l-.55-.85c-.1-.35-.25-.35-.4,0a7.58,7.58,0,0,1,1.8.9,16,16,0,0,0,2.85,1.6,5.79,5.79,0,0,1,2,.8,8.19,8.19,0,0,1,1.4,1.55c.95,1,2,1.2,3.2,1.85,1.35.75,2.3,2.3,3.4,3.3.95.85,2.8,1.7,3.45,2.75S216.2,80.41,215.55,79.46Z"/><path class="cls-4" d="M181.05,91.51a13.24,13.24,0,0,0,4.3-.4,11.57,11.57,0,0,0,3.85-1.55,16.37,16.37,0,0,0,3.1-3c.15.1-.4,1.35-1.4,2.5a18.41,18.41,0,0,1-2.4,2,5.58,5.58,0,0,0,2.75-.85c1.45-.75,1.25-1.1,2.75-1.9a8.39,8.39,0,0,0,2.3-1.3c.65-.6.85-1.15.95-1.1.25.1.1,2.25-.85,3.85-2.55,4.35-11,4.25-15.05,2.7-.4-.15-2.15-.85-2.1-1A13,13,0,0,1,181.05,91.51Z"/><path class="cls-2" d="M181.05,91.71A13.84,13.84,0,0,0,190,89.26a9.6,9.6,0,0,0,1.45-1.4c.3-.3,1.45-2,.25-.25a8.07,8.07,0,0,1-1.55,1.9,9.3,9.3,0,0,1-1.4,1s-.35.25-.4.35,0,.3.15.3c2.05.45,4.1-1.9,5.65-2.75.55-.3,1.25-.5,1.8-.85.05,0,1.15-1,1.1-1,.35,0,.2.35-.05,1.25a5.69,5.69,0,0,1-1.5,2.8c-2.15,2.25-5.8,2.65-8.75,2.55a19.11,19.11,0,0,1-4.4-.65,11.25,11.25,0,0,1-1.2-.4c-1.35-.5-1.75-.55-.1-.4.3.05.3-.4,0-.45a7.67,7.67,0,0,0-1.85-.1.2.2,0,0,0-.1.35c1,1.2,3.85,1.65,5.2,1.85a18.86,18.86,0,0,0,6.7-.1,8.45,8.45,0,0,0,5.3-3c.7-1,1.85-3.35,1.15-4.55a.24.24,0,0,0-.3-.1c-.5.35-.35.55-1,1.1A11.13,11.13,0,0,1,193.9,88c-1.5.85-2.7,2.35-4.5,2.6-.85.1-.05,0,.45-.35a8.21,8.21,0,0,0,1.5-1.45,4.12,4.12,0,0,0,1.2-2.3.22.22,0,0,0-.3-.2c-.25.1-.3.35-.5.5-1,.75-1.55,1.8-2.65,2.55a14.14,14.14,0,0,1-8,1.9A.23.23,0,0,0,181.05,91.71Z"/><path class="cls-4" d="M175.45,88.26c.7.15,1.7.3,2.85.5,4.35.75,4.9.75,5.35.7,2.35-.3,3.9-1.55,4.15-1.2s-.35.95-.75,1.35a4,4,0,0,1-2.25,1,15.5,15.5,0,0,1-5.55-.25,26,26,0,0,1-3.45-.85Z"/><path class="cls-2" d="M175.35,88.51c3.05.6,6.65,1.8,9.8.9a14.47,14.47,0,0,1,2.35-1c1.35.55-3.35,2-3.3,2a11.44,11.44,0,0,1-1.85,0,24.85,24.85,0,0,1-4.25-.6c-1.3-.3-2-.35-2.5-1.65-.1-.25-.5-.15-.4.1.35,1,.25,1,1,1.5,1.45.85,4.15,1,5.85,1.1,1.9.1,5.8,0,6-2.65a.38.38,0,0,0-.1-.2c-.35-.15-.55,0-.9.1-1.3.25-2.35,1-3.7,1.1-2.55.1-5.35-.75-7.85-1.25C175.2,88,175.1,88.46,175.35,88.51Z"/><path class="cls-4" d="M168.45,81.41c.25-.2.85.2,1.8.65,1.35.65,2.25,1.1,3.25,1,.75-.1.9-.45,1.65-.4a5.88,5.88,0,0,1,1.5.5,6.5,6.5,0,0,0,2.55.3,17,17,0,0,0,4.4-.75c1.4-.3,2.5-.6,4-1,1.75-.55,3.05-1,3.85-1.35,2.3-.9,1.85-.9,3.45-1.5a6,6,0,0,0,2.2-1.05c.65-.55,1-1.1,1.2-1s.35.9,0,1.55a2.34,2.34,0,0,1-1.35,1.1c-5.3,2.1.3.45-5.95,2.45-3,1-4.4,1.4-5.3,1.6-2.3.55-3.8.7-3.8,1s2.4.3,2.65.3a11,11,0,0,0,3.85-.35c.55-.25,1.45-.7,3.2-1.7.35-.2,1,0,1.5.3.3.15,1.25-.25,1.25.1,0,.55-1.5,1-2,1.3a17.72,17.72,0,0,1-4.5,1.75,36,36,0,0,1-7.2.85,20.63,20.63,0,0,1-4.15-.35c-1.2-.25-2.75-.65-2.7-.85s.65-.1,1.55-.1c1.5,0,2,.15,3.1.1.2,0,2.15,0,2.2-.3s-1.2-.5-2.55-.8a10,10,0,0,0-2.6-.4c-1.2,0-1.2.35-2.15.3-.4,0-.55-.1-2.8-1-1.45-.6-2.1-.85-2.2-1.4C168.35,81.86,168.3,81.56,168.45,81.41Z"/><path class="cls-2" d="M168.5,81.61c1-.2,2.65,1.3,3.7,1.5,1.4.3,2.8-.1,4.3.2a11.63,11.63,0,0,0,3.95.25c5.1-.65,9.7-2.7,14.4-4.55a24.56,24.56,0,0,0,2.3-1.1c.2-.15.35-.35.55-.5,0,1.2-.5,1.9-1.55,2l-1.05.45c-.6.3-1,.65-1.65.9a49.39,49.39,0,0,1-7,2.2c-1.15.3-3.9.3-4.7,1.2-.05.1-.1.25,0,.3a4.53,4.53,0,0,0,2.45.35,10.44,10.44,0,0,0,4.3-.4c1.6-.6,2.75-1.85,4.6-1.4.3.1.75-.25.65.15s-.6.4-.85.55a23.75,23.75,0,0,1-3.65,1.6,26.13,26.13,0,0,1-11.1,1.15c-.35-.05-3.6-.85-3.65-.8.3-.3,2.25.05,2.8.1.95,0,2.65.3,3.45-.3a.25.25,0,0,0,.05-.35c-1-1.1-4.2-1.35-5.65-1.25a8.91,8.91,0,0,1-2.3.15c-1-.2-4.55-1.5-4.2-2.55.1-.25-.35-.4-.4-.1-.7,1.9,4.05,3.15,5.4,3.2a21,21,0,0,1,3.55,0,8.6,8.6,0,0,1,2.3.55c.6.35.6.15-.15.3-1.8.35-3.9-.65-5.6,0-.15.05-.25.25-.1.35,1.15,1,3.75,1.1,5.25,1.25a27.3,27.3,0,0,0,6-.3,21.15,21.15,0,0,0,5.25-1.25c1.25-.5,3.65-1.15,4.3-2.4.05-.1.05-.2-.05-.25-.3-.25-.3,0-.65-.2a5.52,5.52,0,0,0-1.85-.3c-1.8.15-3.2,1.9-5.1,2.1a23.22,23.22,0,0,1-2.65.05c-.55,0-1.8-.05-1.8-.05.45-.4,2.4-.5,2.95-.65.7-.15,1.35-.35,2.05-.55,1.3-.4,13.15-3.25,11-6.55a.18.18,0,0,0-.25-.1c-.55.2-.15.1-.75.55a10.13,10.13,0,0,1-2.7,1.5c-.75.3-1.45.65-2.2,1a48.57,48.57,0,0,1-9.9,3.15,14.2,14.2,0,0,1-3.25.5,6.54,6.54,0,0,1-2.2-.15,10.94,10.94,0,0,0-2.05-.7c-.35,0-.65.15-.95.15a7,7,0,0,1-3.9-.65c-.6-.3-1.25-.8-1.95-.65C168.1,81.26,168.25,81.71,168.5,81.61Z"/><path class="cls-4" d="M195.2,71.61a6.15,6.15,0,0,0-2-.15l-3.25.15c-.7.1-1.1.2-1.55,0s-.6-.7-1-.7-.35.25-.8.35a1.87,1.87,0,0,1-1.05,0,4.5,4.5,0,0,0-1.95.4c-1.4.4-.9.2-2.7.75a25.8,25.8,0,0,1-2.95.9c-.9.1-1.4,0-1.9.45s-.35.7-.8,1a2.54,2.54,0,0,1-1.5.25,15.12,15.12,0,0,0-2.1.1c-1.15.2-1.4.7-3.15,1.55a12.62,12.62,0,0,1-2,.8l.7,1.55c1.1.05,1.95.15,2.6.2a13.67,13.67,0,0,0,1.85.15,8.52,8.52,0,0,0,2-.25c1-.2,1.2-.4,1.85-.55,2.05-.55,2.75.35,4.65-.2,1.1-.3.85-.65,1.85-1,2.25-.65,3.15,1,5.15.35a7.74,7.74,0,0,0,2.9-1.9,6.39,6.39,0,0,1,1.55-1.35c.9-.45,1.1-.1,2.15-.55.75-.35.55-.5,1.85-1.3.3-.2.6-.35.55-.5S195.55,71.71,195.2,71.61ZM187.8,75c-.4.95-.6,1.4-.85,1.4s-.45-.5-.65-1.1-.4-1.1-.2-1.5a1.21,1.21,0,0,1,1-.65,1.1,1.1,0,0,1,1,.45C188.2,73.76,188.25,74,187.8,75Z"/><path class="cls-2" d="M195.25,71.41a25.13,25.13,0,0,0-4.75,0c-.2,0-.45,0-.65,0A2.43,2.43,0,0,1,188,71a1.85,1.85,0,0,0-.55-.25A30.26,30.26,0,0,0,182,71.86c-1.25.35-2.45.85-3.7,1.15a9.84,9.84,0,0,0-2.4.55c-1.9,1-1.1,1.15-2.8,1.2A9.58,9.58,0,0,0,171,75c-1.6.5-3,1.7-4.6,2.25a.22.22,0,0,0-.15.3c.25.5.45,1,.7,1.55a.26.26,0,0,0,.2.1c1.5.1,3,.4,4.55.35a18.52,18.52,0,0,0,3.75-.8c1.55-.35,3.1.3,4.65-.2.45-.15.6-.35,1-.5a5.11,5.11,0,0,1,3.65-.2c2.25.6,3.7-.4,5.35-1.85s5-1.85,6.15-3.8c.05-.1.05-.2-.05-.25-.15-.35-.5-.45-.95-.55-.25-.1-.4.35-.1.4,1.2.35-.45,1.2-.7,1.4a9.62,9.62,0,0,1-2.25.9,6.74,6.74,0,0,0-2.3,1.65c-1.7,1.6-3.15,2.15-5.45,1.55a4.43,4.43,0,0,0-3.1.15,6.44,6.44,0,0,1-2.6.9c-.6,0-1.2-.15-1.75-.15-1.6,0-3.05.8-4.65,1a22.4,22.4,0,0,1-3.65-.25c-.95-.1-1.25.1-1.6-.75s-.25-.4.4-.75a18.79,18.79,0,0,1,4.3-2c1.1-.25,2.3,0,3.4-.35.35-.1.4-.45.7-.65,3.35-2,1.25-.5,2.45-.9,1-.35,2-.65,3-.95a15,15,0,0,1,7-.75c2.25.35,4.6-.35,6.9.1C195.4,71.86,195.55,71.46,195.25,71.41Z"/><path class="cls-2" d="M187.65,74.91a4.43,4.43,0,0,1-.4.85c-.1.25-.2.55-.45.2a3.4,3.4,0,0,1-.55-1.95c.15-.55,1.45-1,1.7-.25.1.35-.25.9-.35,1.2s.3.4.4.1c.25-.55.65-1.35.1-1.8a1.49,1.49,0,0,0-2.2.5,1.93,1.93,0,0,0,0,1.3,3.81,3.81,0,0,0,.65,1.45c.75.6,1.2-1,1.35-1.4C188.1,74.86,187.75,74.61,187.65,74.91Z"/><path class="cls-4" d="M192.6,67.66c0-.35.3-.55.2-.75s-.8-.3-1.2-.25-.45.2-.7.15c-.55,0-.65-.65-1.25-.75a.62.62,0,0,0-.65.25c-.05.2.3.35.25.45s-.85-.2-1.75-.3c-1.15-.15-1.3.25-2.25.05s-.75-.5-1.65-.7-1.5,0-1.65-.3.15-.8.5-1c.15-.1.25-.1,1-.15.55,0,.85-.1.9-.1a4,4,0,0,1,2,.45c.6.35.8.8,1.1.7a.44.44,0,0,0,.3-.5c0-.25-.25-.45-1.75-1.15-.9-.45-1.2-.55-1.2-.7s.6-.4,1.1-.3c.15,0,.5.1,1.15.65.8.65,1.05,1.15,1.2,1.1s.15-.7-.15-1.25a2.85,2.85,0,0,0-2.8-1.35c-.5.1-.7.35-1.15.3-.65-.1-1.25-.7-1.15-1s1.85.25,2,0-.5-.65-1.15-.9a5.2,5.2,0,0,0-2.4-.1c-2.55.2-2.35,0-3,.2a4.26,4.26,0,0,0-2.45,1.4,9.26,9.26,0,0,1-.7.95,2.93,2.93,0,0,1-.75.75c-.5.25-1.15.25-1.25.05s.2-.3.4-.75.25-.85.1-1-.5.35-1.1.85A16.54,16.54,0,0,1,170.65,64a12.46,12.46,0,0,0-2.3,2.05,10.69,10.69,0,0,0-1.4,1.8c-.25.45-.5,1-.6,1.15a10.6,10.6,0,0,1-.5,1.2c-.25.35-.35.4-1.5,1.35-.7.6-.9.8-.95,1.15s.1.5.3.85A8.25,8.25,0,0,0,165,75c.9.9.9,1.2,1.2,1.2s.6-.25,1.5-1.3a23.57,23.57,0,0,1,1.7-2,4.32,4.32,0,0,1,2.45-1.15c1.25,0,1.9.75,2.7.3a3,3,0,0,0,.8-.85c.35-.55.25-.8.5-1.15s.6-.55,1.9-.85c1.05-.25,1.7-.35,2.6-.5,1.8-.3,1.6-.4,2.6-.5a20.31,20.31,0,0,1,3.25,0,21.26,21.26,0,0,1,3.05,0,18,18,0,0,0,3.35.45c.05,0,.6,0,.65-.2C193.1,68.21,192.65,68.06,192.6,67.66Zm-12.15-3.35-1.55.35c-1.45.35-1.55.35-1.8.3a1.46,1.46,0,0,0-.8,0,1,1,0,0,0-.65.55c-.15.45.25.8.1,1.1s-.6.2-.8.15c-.6,0-.85-.4-1.15-.25s-.1.25-.3.45c-.35.3-.7.1-1.15.35a1.57,1.57,0,0,0-.5.5c-.4.45-.4.75-.75,1.2a1.81,1.81,0,0,1-.75.75c-.75.4-1.3-.2-2,.15a1.63,1.63,0,0,0-.75,1c-.15.55.05.75-.1,1.3-.05.1-.3.85-.8.85a.85.85,0,0,1-.75-.7c0-.25.05-.45.3-1.05.6-1.25.45-1.15.75-1.55a4.47,4.47,0,0,1,.95-1.2,5.81,5.81,0,0,1,1.55-1c.85-.4,1-.2,1.4-.55s.35-.65.95-1.2a4,4,0,0,1,1.05-.75,2.62,2.62,0,0,1,1.2-.35c.85,0,1.35.4,1.55.2s-.15-.6,0-1.1c.1-.25.25-.45,1.15-.95a18.16,18.16,0,0,1,1.75-1,3.68,3.68,0,0,1,1.95-.35c.55.05.4.15,1.6.5.85.25,1.2.25,1.4.6a.87.87,0,0,1,.1.85c-.2.3-.65.1-1.55.3S181.3,64,180.45,64.31Z"/><path class="cls-2" d="M192.8,67.71c0-.25.15-.5.2-.75a.18.18,0,0,0-.1-.25,1.74,1.74,0,0,0-.85-.3c-.15,0-.35,0-.5,0a10,10,0,0,1-1.3-.3c-.6-.15-.85-.4-1.4,0-.1.05,0,.2,0,.25.2.45-.8-.15-1.25-.2-.25-.05-.55,0-.85-.05-.75,0-3-.15-3.8-.7-.65.15-.75-.15-.3-.85.25,0,.5,0,.7-.1a4.07,4.07,0,0,1,2,0c-1-.3,1.7,1.2,2,1,.55-.4.5-.7.2-1.2-.2-.35-.85-.5-1.2-.7s-2.1-.7-.75-.6,1.5,1.2,2.45,1.55a.19.19,0,0,0,.25-.15c.45-1.2-.8-2.4-1.8-2.75a21.6,21.6,0,0,0-3.15-.45c.55-.1,1,.25,1.5,0a.24.24,0,0,0,.1-.3c-.95-1.9-4.8-1.25-6.4-1a5.31,5.31,0,0,0-2.55,1.1c-.45.4-.95,1.65-1.5,1.8-1.35.4-.65-.6-.75-1.2a.22.22,0,0,0-.3-.2,12.85,12.85,0,0,0-2.8,1.95,14.13,14.13,0,0,0-3.35,3.1c-.8,1-1.1,2.35-1.85,3.4-.6.85-1.95,1.25-2.3,2.2a1.33,1.33,0,0,0,.2,1.35c.4.75,1.65,2.45,2.35,2.65,1.3.4,2.2-1.45,2.9-2.25A5.06,5.06,0,0,1,171.1,72c1.2-.3,2.3.65,3.4.15s.9-1.75,1.7-2.4c1.05-.9,3.45-.8,4.8-1.1a27.32,27.32,0,0,1,7-.35c1.55,0,3.75,1,5.15.25a.24.24,0,0,0,.1-.3c-.15-.25-.35-.5-.5-.75s-.55,0-.4.2c.75,1.2-2.5.25-3.25.15-.25,0-.5,0-.75,0a29.93,29.93,0,0,0-5.6,0c-1.95.25-4.6.5-6.35,1.35a2.17,2.17,0,0,0-.85.6c-.15.4-.35.8-.5,1.15-.65.2-1.35.45-2,.65-.2,0-1.2-.2-1.35-.2a5,5,0,0,0-3.3,2c-.65.75-1.65,2.65-2.75,2a6.3,6.3,0,0,1-1.55-1.7c-.65-1.1-.4-1.6.55-2.4,1.65-1.45,2-3.35,3.5-5a20,20,0,0,1,3.75-3.05c.9-.65,1.55-1.45.95.1a.18.18,0,0,0,.1.25,1.45,1.45,0,0,0,1.6-.15c1.5-.9,1.85-2.6,3.85-3a17.06,17.06,0,0,1,3.9-.25c.3,0,2,.45,1.75.55s-.3,0-.4,0c-.25.1-.6,0-.9.1a.18.18,0,0,0-.1.25,1.37,1.37,0,0,0,.65.85c.35.2.6.1.95.2,1.1.3,4.65,2.75,3.5,1.5-.85-.9-2-1.85-3.2-1a.24.24,0,0,0-.1.3c.35.7,1.55.6,2.05,1.15.95,1,.25.3-.2.25-.6-.1-1-.4-1.55-.45-1.35-.15-2.9-.1-3.1,1.45a.26.26,0,0,0,.1.2c.35.25.2,0,.65.2a3.5,3.5,0,0,1,2.1.55c.2.1.4.15.65.25a27.6,27.6,0,0,0,4,.3.24.24,0,0,0,.2-.35c-.45-.7,1.1.3,1.4.35.6.1,1.8-.35,1.55.6C192.3,67.86,192.7,68,192.8,67.71Z"/><path class="cls-2" d="M180.35,64.11c-1.2.35-2.5.35-3.65.6-.75.15-.8.1-1.3.75-.1.15.15.55,0,.7-.35.4-1,0-1.35.15a1.54,1.54,0,0,1-.45,0,5.48,5.48,0,0,0-2.45,2,4.56,4.56,0,0,1-2.3,1.3c-.7.25-.7,0-1.2.55a2.18,2.18,0,0,0-.4.75c-.2.55.2,2-.6,1-.55-.7-.2-.55,0-1.25a5,5,0,0,1,1.25-2c.8-.75,1.9-.85,2.7-1.45a14.89,14.89,0,0,0,1.15-1.35c1-1,2.3-.65,3.7-.8a.22.22,0,0,0,.2-.2c.05-2.3,3.55-3.25,5.25-2.85a3.66,3.66,0,0,1,1.25.4c.4,0,.5.2.35.6.2.45,0,.65-.35.55-.1,0-1.95.55-1.85.5-.25.1-.15.5.1.4.7-.25,4.1-.3,3-2-.7-1.1-3.4-1.4-4.6-1.1a7.66,7.66,0,0,0-3,1.55c-.2.2-.35.4-.55.6s.4.4,0,.75-2,0-2.7.4c-1.15.55-1.9,1.7-3,2.35-1.6,1-3.75,2.55-4,4.7,0,.95.5,1.75,1.45,1.2.65-.4.3-.95.55-1.5,1-1.85,2.1-1,3.2-1.95.95-.85,1.3-2.05,2.75-2.5.8-.25,1.45,0,2.2-.35a.26.26,0,0,0,.1-.2c-.1-1.7,3.45-1.75,4.55-2.1C180.75,64.46,180.65,64,180.35,64.11Z"/><path class="cls-4" d="M178.6,59.36c0,.15-1.15.2-3.25.75a22.29,22.29,0,0,0-3.8,1.35,16.2,16.2,0,0,0-3.45,2.25,15.15,15.15,0,0,0-3.55,4.15c-1.1,2-1.35,3.65-1.55,3.65a4.36,4.36,0,0,1,.25-2.2,12.81,12.81,0,0,1,3.55-5.5,14.63,14.63,0,0,1,3.65-3.05,14.2,14.2,0,0,1,4.4-1.5C176.8,59,178.6,59.16,178.6,59.36Z"/><path class="cls-2" d="M178.45,59.21c-.7.65-3,.65-3.95.95a19.74,19.74,0,0,0-4.6,2,15.82,15.82,0,0,0-5.55,5.65,14.37,14.37,0,0,0-.9,2c-.2.5-.75,2.55-.15.4a13.47,13.47,0,0,1,3.2-5.7A16.92,16.92,0,0,1,171,60.76c1.75-.9,5.65-2.35,7.55-1.25.25.15.45-.25.2-.4-1.2-.75-3.45-.25-4.75,0a12.76,12.76,0,0,0-5.3,2.55c-2.35,1.95-6.75,6.3-5.8,9.8a.22.22,0,0,0,.35.1c.9-1,1.05-2.85,1.8-4a15.69,15.69,0,0,1,4.55-4.7,18.34,18.34,0,0,1,5.9-2.6c.9-.25,2.6-.2,3.35-.8C179,59.31,178.65,59,178.45,59.21Z"/><path class="cls-4" d="M167.7,60.06c.15.3-1.7,1.95-2.8,3.2a11.36,11.36,0,0,0-2.5,5.35c-.5,2.55.1,4.5-.2,4.55s-.7-1-.9-2a7.36,7.36,0,0,1,.35-3.45,15.2,15.2,0,0,1,1.8-3.95c1.2-2.1,1.9-2.6,2.5-2.8S167.6,59.86,167.7,60.06Z"/><path class="cls-2" d="M167.5,60c-.15,1-1.9,2.15-2.5,2.85a9.8,9.8,0,0,0-1.9,2.85,12.55,12.55,0,0,0-1,5.4,6.84,6.84,0,0,1,.1,1.4c-.15.35-.6-1.85-.6-2.3a12.59,12.59,0,0,1,1.85-5.8c.75-1.35,2.5-4.15,4.4-4.2a.22.22,0,1,0,0-.45,5,5,0,0,0-2.35,1.2,9.77,9.77,0,0,0-2.6,3.55c-1.1,2-3.2,6.95-.65,8.75a.24.24,0,0,0,.3-.1c.35-.5.05-1.6.05-2.1a12.79,12.79,0,0,1,.7-4.35,13.63,13.63,0,0,1,3.35-4.85c.45-.45,1.35-1.1,1.45-1.8C168,59.86,167.55,59.76,167.5,60Z"/><path class="cls-4" d="M161.85,63a5,5,0,0,0-1,2.2c-1,3.8-1.3,4-1.15,5a4,4,0,0,0,.85,2.2,4,4,0,0,0-.1-1.15,16.61,16.61,0,0,1-.1-3c.05-.4.1-.7,1.45-3.4,1-2.1,1.4-2.75,1.25-2.85S162.3,62.46,161.85,63Z"/><path class="cls-2" d="M161.7,62.91a16,16,0,0,0-2.15,6.25,4.19,4.19,0,0,0,.85,3.45c.1.1.35.1.35-.1a20.83,20.83,0,0,0-.2-3.05,5.32,5.32,0,0,1,.65-2.75,25.12,25.12,0,0,0,2-4c0-.25.25-.5.1-.75a.18.18,0,0,0-.25-.1,3,3,0,0,0-1.3,1.1c-.15.15.15.5.35.25s.9-1.35.6-.4c-.15.45-.45,1-.65,1.4a30.94,30.94,0,0,0-1.4,2.9,6,6,0,0,0-.4,3c0,.45.45,2.7.1,1.35a5.71,5.71,0,0,1-.3-2.2,17.76,17.76,0,0,1,2.1-6C162.2,62.91,161.85,62.66,161.7,62.91Z"/><path class="cls-4" d="M158.25,65.06a4.29,4.29,0,0,0-.3,1.75,14.13,14.13,0,0,0,.4,3.4c.1.4.25.8.3,1a8,8,0,0,0,.4,1,23.79,23.79,0,0,1-.35-2.95,17.34,17.34,0,0,1,.1-1.9c.2-1.85.3-2.4.3-2.4.1-.55.2-.85.1-.9S158.55,64.51,158.25,65.06Z"/><path class="cls-2" d="M158.05,65c-.9,1.85-.3,5.8.85,7.35a.22.22,0,0,0,.4,0,3.1,3.1,0,0,0-.2-1.15,14.08,14.08,0,0,1-.1-3.55c.1-.75.7-2.7.4-3.5a.27.27,0,0,0-.25-.15c-.5.1-.85.65-1.1,1s.25.45.4.2c.75-1.15.45.3.45.4,0,.7-.2,1.45-.25,2.2a12.49,12.49,0,0,0,0,3,7,7,0,0,1,.25,1.35c.15,0,.25,0,.4,0-1-1.45-1.65-5.2-.85-6.9C158.55,65,158.15,64.71,158.05,65Z"/><path class="cls-5" d="M148.1,36.11a1.5,1.5,0,0,0-1.3-.25,4.11,4.11,0,0,0-1.25.6,2.7,2.7,0,0,0-.8.7l1.35,3.45c.4-.4.8-.85,1.25-1.25a4,4,0,0,0,1.1-1.5A1.81,1.81,0,0,0,148.1,36.11Z"/><path class="cls-2" d="M148.2,35.91a2.27,2.27,0,0,0-2.55.2c-.5.3-1.2.65-1.1,1.2a8.45,8.45,0,0,0,.75,1.85c.2.5.4,1,.6,1.45,0,.15.25.25.35.1,1.05-1.1,3.55-3.05,1.95-4.8-.15-.15-.45.15-.25.35,1.3,1.4-1.15,3.25-2,4.15.1.05.25.05.35.1-.3-.8-.65-1.6-1-2.4,0-.2-.45-.8-.4-1a3.52,3.52,0,0,1,1-.65,1.9,1.9,0,0,1,2.1-.2C148.2,36.46,148.4,36.06,148.2,35.91Z"/><path class="cls-6" d="M3.9,186.11c-.8,1.2-2.85.15-3-1.3s1-2.65,1.9-3.65c32.2-34.25,64.45-68.5,99.5-99.85,3.7-3.3,6.25-7,9.55-10.65,3.2-3.5,7.2-6.9,10.2-10.6a161.31,161.31,0,0,1,22.1-22.4,2,2,0,0,1,1.65,2.4,5.74,5.74,0,0,1-1.65,2.8c-6.5,7.35-13.05,14.7-19.55,22-13.45,15.15-26.9,30.35-41.25,44.6C56.75,135.91,28.65,158,3.9,186.11Z"/><path class="cls-2" d="M3.25,185.46c-.35-.75-.7-1.45-1-2.2a8.78,8.78,0,0,1,1.2-1.5c.4-.45.85-.95,1.3-1.4,1.2-1.25,2.4-2.55,3.6-3.8l7.2-7.65c4.6-4.85,9.15-9.7,13.75-14.55,9.3-9.75,18.7-19.5,28.2-29.05s18.9-18.8,28.6-27.95c4.85-4.55,9.75-9.1,14.7-13.55,4.75-4.25,8.45-9.25,12.85-13.8,2-2.1,4.15-4.05,6.2-6.15,2.25-2.35,4.2-4.9,6.35-7.35A152.93,152.93,0,0,1,139.35,43c1.2-1.1,2.45-2.2,3.7-3.3.6-.5,2.9-2.7,1.4,1.35-.25.75-1.35,1.6-1.9,2.25-2.4,2.7-4.8,5.4-7.15,8.1-4.55,5.15-9.1,10.25-13.65,15.4C103.9,87,85.7,106.61,66,124.91c-21.3,19.8-43.4,38.75-62.7,60.55-.75.85.5,2.1,1.25,1.25,18.9-21.35,40.45-40,61.35-59.3,21.8-20.15,41.7-41.9,61.35-64.1,5.2-5.9,10.45-11.75,15.65-17.65,1.45-1.65,4.1-3.75,3.9-6.2-.1-1.3-1.25-3.05-2.8-2.7-.95.2-2,1.65-2.8,2.25-1.25,1.1-2.5,2.2-3.7,3.3-2.65,2.45-5.2,4.95-7.7,7.6-4.7,5-8.8,10.35-13.65,15.15-5,5-9.25,10.8-14.45,15.6-5.4,5-10.8,9.8-16.15,14.8q-16,15-31.3,30.65c-11.6,11.75-23.05,23.7-34.4,35.7C14,167.91,8.2,174,2.5,180.16c-1.4,1.5-3.35,3.65-2.1,5.8a2.61,2.61,0,0,0,4.1.75C5.3,185.91,4.05,184.71,3.25,185.46Z"/><path class="cls-5" d="M147.25,35.76s-.05,0-.05-.1h0Z"/><path class="cls-2" d="M147.45,35.66c-.1-.1-.1-.15-.25-.2s-.35.2-.2.35l.1.1c.2.2.5-.1.35-.25s-.1-.15-.15-.15-.15.25-.2.35h.05c-.05,0-.1,0-.15-.1s.05.05.05.1C147.2,36.11,147.6,35.91,147.45,35.66Z"/><path class="cls-5" d="M150.2,34a2.53,2.53,0,0,0-2-.35,1.48,1.48,0,0,0-.75.35,1.37,1.37,0,0,0-.3,1.7,2.53,2.53,0,0,1,1.2.85,4.71,4.71,0,0,0,.5.5,1.46,1.46,0,0,0,.45.1,1.66,1.66,0,0,0,1.6-1.25A1.81,1.81,0,0,0,150.2,34Z"/><path class="cls-2" d="M150.3,33.81a2.55,2.55,0,0,0-3.15.2,1.65,1.65,0,0,0-.35,1.35c.15.7.85.75,1.35,1.2s.75.75,1.4.7a1.77,1.77,0,0,0,1.25-.7,1.93,1.93,0,0,0-.5-2.75c-.15-.15-.5.15-.25.35a1.56,1.56,0,0,1,.4,2.2,1.51,1.51,0,0,1-1.1.5c-.5-.1-.8-.55-1.2-.85-.2-.15-.5-.25-.7-.4a1,1,0,0,1,.1-1.35,2,2,0,0,1,2.5,0C150.35,34.31,150.55,34,150.3,33.81Z"/><path class="cls-5" d="M171.7,8.31a2.29,2.29,0,0,0-.85.7l-5.7,6.3c-.5.6-1.05,1.15-1.55,1.75l-2.7,3c-1,1.05-1.9,2.15-2.9,3.2l-8,8.9a1.71,1.71,0,0,0-.55.9.71.71,0,0,0,.3.75h-.05a2,2,0,0,0,1.75.4c2.75-2.6,4.15-5.05,6.75-7.8,1.45-1.55,2.35-2.8,4-4.7a14,14,0,0,0,1.4-1.6c.35-.5.75-.95,1.15-1.45,2.6-3.1,5.2-6.2,7.85-9.25a1.09,1.09,0,0,0,.25-.4C172.85,8.51,172.15,8.16,171.7,8.31Z"/><path class="cls-2" d="M171.6,8.16c-2.55,1.6-4.6,4.8-6.6,7-2.1,2.35-4.2,4.65-6.3,7-2.5,2.8-5,5.6-7.55,8.4-.45.5-2,1.65-2,2.5s0,.35.5.55c-.25-.1-.35.25-.15.4,2.6,1.65,4.6-2.45,5.95-4.15,2.4-3,4.95-5.95,7.45-8.85,2.9-3.3,5.6-6.75,8.45-10.1.65-.75,2.75-2.95.3-2.85a.22.22,0,1,0,0,.45v1.4L170.8,11c-.5.6-1,1.2-1.5,1.75-.9,1-1.8,2.15-2.7,3.2-1.75,2.05-3.5,4.15-5.2,6.25-1.5,1.85-3.05,3.6-4.55,5.4-1.3,1.55-4.65,7.3-7.15,6.45.25.1.35-.2.2-.35-.85-1.1,4.8-6.45,5.6-7.3,1.85-2.05,3.7-4.1,5.55-6.2,1.55-1.7,3-3.4,4.6-5.1,1.85-2.05,3.85-5.15,6.2-6.6C172.05,8.36,171.85,8,171.6,8.16Z"/><path class="cls-2" d="M172,8.26a.1.1,0,1,0,0-.2C171.85,8.06,171.85,8.26,172,8.26Z"/><path class="cls-7" d="M171.8,8.26c.5-.6,1-1.25,1.5-1.85a39.44,39.44,0,0,0,4-5.6,3.27,3.27,0,0,1-.85,2.35c-1.35,1.9-3,3.7-3.9,5.85a16.13,16.13,0,0,0,4.55-7.2,5,5,0,0,1,.65-1.7"/><path class="cls-2" d="M171.9,8.31c.9-1.1,1.8-2.25,2.65-3.35.4-.5,2.75-3.2,2.5-3.6.45.75-1.7,3-2.15,3.6a21.89,21.89,0,0,0-2.5,4c-.05.1.1.25.15.15A21,21,0,0,0,175.8,5c.9-1.5,1-3.4,2-4.85.1-.1-.1-.25-.2-.1-.85,1.3-1,2.95-1.7,4.35-.25.5-2.85,4.3-3.05,4.1s2.5-3.75,2.8-4.15c.85-1.1,1.75-2.15,1.75-3.6a.11.11,0,0,0-.2-.05,61.88,61.88,0,0,1-5.45,7.45A.11.11,0,0,0,171.9,8.31Z"/><path class="cls-8" d="M151.3,31.81c4-5,8.45-9.75,12.8-14.5.25-.25.5-.55.85-.55A11.74,11.74,0,0,1,164,18c-.95,1.2-1.9,2.4-2.85,3.55L160,23c-2.45,3.1-5,6.15-7.55,9.2a1.33,1.33,0,0,1-.55.5.55.55,0,0,1-.65-.15c-.2-.3.05-.7.3-1"/><path class="cls-2" d="M151.4,31.86c2.15-2.65,4.35-5.2,6.6-7.7,1.1-1.2,2.15-2.4,3.25-3.6l1.65-1.8c.1-.1,1.8-2.3,1-.9a24,24,0,0,1-2.85,3.55c-.95,1.2-1.9,2.4-2.85,3.55s-2.1,2.6-3.2,3.9l-1.45,1.75c-.2.25-.4.45-.6.7-.3.85-.75.95-1.35.25.1-.1-.1-.25-.2-.1-.3.45-.6,1,.05,1.3.95.35,2.65-2.5,3.05-3,3.55-4.25,7.2-8.5,10.4-13,.05-.05,0-.2-.1-.15a7,7,0,0,0-2.2,2c-1.3,1.4-2.6,2.85-3.9,4.3-2.6,2.85-5.15,5.8-7.6,8.8C151.15,31.86,151.3,32,151.4,31.86Z"/><path class="cls-8" d="M148.9,34.86a.33.33,0,0,0-.55,0,.53.53,0,0,0,.05.65.79.79,0,0,0,.5.4.54.54,0,0,0,.55-.3c.1-.3-.15-.6-.4-.85Z"/><path class="cls-2" d="M149,34.81a.47.47,0,0,0-.75,0c-.25.35,0,.8.25,1a.69.69,0,0,0,1,0c.3-.4-.05-.8-.35-1.05a.09.09,0,0,0-.15,0c-.05.05-.1.05-.15.1s0,.25.1.2.1-.05.15-.1,0-.1-.05-.15c.1.2.3.35.35.55s-.2.5-.5.4a.75.75,0,0,1-.45-.5.31.31,0,0,1,.05-.35.24.24,0,0,1,.35,0C148.85,35,149.05,34.91,149,34.81Z"/><path class="cls-8" d="M145.65,37.66a2.16,2.16,0,0,1,1.55-1,.55.55,0,0,1,.65.25c.1.25-.1.45-.25.65-.45.45-.9,1-1.3,1.4Z"/><path class="cls-2" d="M145.75,37.71a2.51,2.51,0,0,1,.7-.75,2.12,2.12,0,0,1,1-.3c.75.25-.2,1-.4,1.2s-.55.6-.85.9h.15l-.6-1.2c0-.15-.25,0-.2.1l.6,1.2c.05,0,.15,0,.15,0,.45-.5,1-1,1.45-1.55.2-.3.3-.65,0-.85-.75-.45-1.8.45-2.15,1C145.5,37.76,145.65,37.86,145.75,37.71Z"/><path class="cls-8" d="M120.55,64.66c4.8-5.5,9.6-11,14.9-16,.8-.75,1.65-1.55,2.4-2.4,1.05-1.2,2-2.65,3.5-3.3.2,1.15-.75,2.15-1.6,2.95a149.78,149.78,0,0,0-11.7,12.85,37.81,37.81,0,0,1-6.7,6.85,1.64,1.64,0,0,1-.8.35.56.56,0,0,1-.6-.5c0-.4.55-.55.75-.9Z"/><path class="cls-2" d="M120.65,64.76c3.35-3.8,6.65-7.65,10.2-11.3,1.75-1.8,3.55-3.55,5.35-5.25.8-.8,3.5-4.7,4.65-4.75s-2.35,3.6-2.45,3.7c-.85.85-1.7,1.75-2.55,2.6-1.65,1.8-3.3,3.6-4.85,5.45s-3,3.7-4.65,5.5c-.75.9-1.55,1.75-2.35,2.55-.4.4-.85.8-1.3,1.2-.85,1.4-1.5,1.45-1.9.2.1-.1,0-.2-.1-.2a.18.18,0,0,0-.15.05c-.15.1-.1.3.1.25-1.1.3-.85,1.2-.05,1.4s2.4-1.65,2.85-2a49.69,49.69,0,0,0,4.1-4.5c2.75-3.25,5.45-6.55,8.35-9.65,1.75-1.9,5.4-4.1,5.5-6.9,0-.1-.1-.15-.15-.1-1.6.85-2.55,2.3-3.8,3.6-1.85,2-3.95,3.8-5.85,5.75-3.9,3.95-7.55,8.15-11.2,12.35C120.4,64.71,120.55,64.86,120.65,64.76Z"/><path class="cls-8" d="M2.55,183.81c-.1-.1,0-.3.15-.4a1.4,1.4,0,0,1,1.45.15.26.26,0,0,1,0,.5A.85.85,0,0,1,3.8,184a3,3,0,0,0-1.15,0"/><path class="cls-2" d="M2.65,183.76c-.2-.35.7-.4.85-.35a.71.71,0,0,1,.3.1.38.38,0,0,1,.2.1c.15,0,.15.1,0,.2s-.15.1-.35.1-.2,0-.3,0a2.15,2.15,0,0,0-.8,0c-.15,0-.15.25,0,.2a4.15,4.15,0,0,1,1.1.05.83.83,0,0,0,.6,0c.3-.15.2-.45,0-.65A1.56,1.56,0,0,0,3,183.21c-.3,0-.7.35-.5.65C2.5,184,2.7,183.86,2.65,183.76Z"/><path class="cls-9" d="M144.3,163.3a3.56,3.56,0,0,0-3.4,1.6c-.2.35-.45.75-.85.8a.94.94,0,0,1-.7-.25,7.24,7.24,0,0,1-2.8-3.2,4.15,4.15,0,0,1,.45-4.1c1.95-2.45,6.25-1.2,8.5-3.35,1.15-1.1,1.6-2.9,3.05-3.6a5.67,5.67,0,0,1,1.6-.3,20.49,20.49,0,0,1,5.8.35,26.19,26.19,0,0,1,5.1,1.95l4.8,2.25c2.15,1,4.25,2,6.3,3.2a41.12,41.12,0,0,1,15.15,16.6,57.19,57.19,0,0,1,5.8,21.85,10.35,10.35,0,0,1-.35,4.3,3.77,3.77,0,0,1-3.2,2.55c-.9,0-1.8-.4-2.6,0-1.2.55-1.1,2.2-1,3.5s-.55,3-1.85,2.85c-.6-.1-1.05-.65-1.65-.9-1.05-.45-2.2.2-3.3.55a5.78,5.78,0,0,1-5.2-1.1c.4-1.1,1.55-1.65,2.5-2.3,2.65-1.85,4-5.15,4.2-8.4a22.93,22.93,0,0,0-1.85-9.45c-4.75-12.4-14.45-23.2-26.95-27.75a8.78,8.78,0,0,0-4.2-.7,3.35,3.35,0,0,0-2.9,2.75"/><path class="cls-2" d="M144.3,162.45a4.76,4.76,0,0,0-3.15.9c-.35.3-.8,1.15-1.2,1.25-.85.3-2.3-1.9-2.55-2.65-2.05-5.15,5.5-4.2,8-5.9,1.05-.7,1.45-1.75,2.2-2.65,1.8-2.15,5.5-1.75,8-1.2,4.25,1,8.55,3.5,12.45,5.45a40.52,40.52,0,0,1,17.4,16.4,49.7,49.7,0,0,1,4.95,12.6,65.42,65.42,0,0,1,1.3,6.95c.25,2.1,1.25,6.3-.2,8.15-1.35,1.65-2.5,1.1-4.1,1.25a2.75,2.75,0,0,0-1.5.55,3.62,3.62,0,0,0-1.1,2.8c-.05,1.25.3,2.75-1.6,2.7-.6,0-1.2-.6-1.9-.55-1.1,0-2.1.65-3.15.8a5.13,5.13,0,0,1-3.95-1.1l.3,1.2c.85-1.55,2.8-2.3,4-3.6a11.21,11.21,0,0,0,2-3.6,16.1,16.1,0,0,0,.2-9.35A47.39,47.39,0,0,0,172,175.2a46.83,46.83,0,0,0-14.35-12.4c-3.45-1.9-12.5-6.45-13.9.15-.25,1.1,1.45,1.6,1.7.45,1.25-5.85,13.15,1.85,15.75,3.7a46.31,46.31,0,0,1,11.35,11.8,43.08,43.08,0,0,1,6.7,14.8c.65,3.2.65,6.6-1,9.5-1.3,2.3-3.95,3.05-5.15,5.3a.89.89,0,0,0,.3,1.2,6.65,6.65,0,0,0,5.2,1.3c1.4-.25,2.4-.95,3.85-.45.85.3,1.3.9,2.25.65a3.18,3.18,0,0,0,1.95-2.85c.1-.7-.25-2.3.15-2.9.65-.9,2.75-.4,3.65-.65,4.95-1.35,3.55-8.5,3-12.1a58,58,0,0,0-4.25-15.3A42.82,42.82,0,0,0,168.7,156c-4.6-2.25-9.6-5.3-14.8-5.8-1.9-.2-4.6-.45-6.3.7-1.9,1.3-2,3.6-4.5,4.3-2,.6-4.4.45-6.15,1.85a4.73,4.73,0,0,0-1.45,4.85,7.35,7.35,0,0,0,3.6,4.5c2.25,1.05,3-2.25,5.25-2.15C145.45,164.25,145.45,162.5,144.3,162.45Z"/><path class="cls-10" d="M148.75,160.35c-3.3,1.7-6.55,5.55-9.9,7.6a76.09,76.09,0,0,1-7.75,4.7c-8.9,4.3-18.1,8-26.75,12.95-8.2,4.65-16,10-24.75,13.5-1.25.5-6,3-7.8,5.8-2.15,3.4-1,6.95.7,10.6a117.44,117.44,0,0,0,10.7,18.05c2.5,3.45,5.3,6.9,9,9a8.55,8.55,0,0,0,4.1,1.25,11.73,11.73,0,0,0,4.75-1.65c12.75-6.7,26.6-11.2,39.7-17.25,10.9-5,21.25-11.1,31.6-17.15C194.55,196.05,161.2,162.3,148.75,160.35Z"/><path class="cls-2" d="M148.3,159.55a34.37,34.37,0,0,0-5.7,4.35,74.69,74.69,0,0,1-7.95,5.75c-5.2,3.3-11,5.55-16.55,8.1-5.75,2.65-11.4,5.45-16.85,8.65s-10.65,6.5-16.2,9.25c-4,2-8.2,3.35-11.6,6.2-3.85,3.25-4.25,7.7-2.4,12.2a93.07,93.07,0,0,0,8.9,16c2.8,4.25,5.85,8.7,10,11.75,1.85,1.4,4.15,2.7,6.55,2.65,2.75-.05,5.3-1.85,7.65-3.05,5.7-2.85,11.55-5.3,17.45-7.7a332.08,332.08,0,0,0,34.1-15.55c5.55-3,11-6.25,16.45-9.4,2.7-1.55,5.25-3.2,6.9-6,2.85-4.8,1.8-10.6-.3-15.45-3.1-7.1-8.35-13.35-14.05-18.5-4.3-3.9-9.7-8.5-15.6-9.5-1.1-.2-1.6,1.5-.45,1.7,4.8.85,9.3,4.3,12.9,7.4a63.9,63.9,0,0,1,12.8,14.4c2.85,4.55,5.65,10.35,4.45,15.9a11.2,11.2,0,0,1-4.3,6.55c-3.95,3-8.75,5.25-13.05,7.7a271.35,271.35,0,0,1-31.3,15.45C120,232.65,110,236.9,100.1,241.65c-1.95.95-3.6,1.45-5.7.7a13.78,13.78,0,0,1-4-2.35A30.37,30.37,0,0,1,84.9,234a106.49,106.49,0,0,1-9-14.1c-2.65-4.9-6.8-11.6-1.65-16.3,3.25-3,7.5-4.25,11.35-6.2,5.6-2.75,10.85-6.1,16.25-9.25s11.1-6,16.85-8.7,11.7-5,17-8.3a71.13,71.13,0,0,0,6.5-4.45c2.35-2,4.5-4.15,7.2-5.65C150.15,160.55,149.3,159,148.3,159.55Z"/><path class="cls-5" d="M82.1,198.75c.3-.8,1.5-.4,2.15.15A68.38,68.38,0,0,1,99.5,216.25c1.75,2.9,3.35,5.95,5.85,8.2a4.36,4.36,0,0,0,2.2,1.2,5.24,5.24,0,0,0,3-.85l17.6-9.3c8.7-4.6,17.45-9.2,25.8-14.5,3.2-2,6.35-4.15,9.9-5.35,1.7-.6,3.65-1.1,4.45-2.7s0-3.55-.95-5.15c-4.2-7.65-9.4-14.9-16.45-20.05-2.15-1.55-4.75-3-7.35-2.4a11.24,11.24,0,0,0-3.45,1.75c-18.55,12.2-40.1,19.25-58.7,31.4"/><path class="cls-2" d="M82.4,199.05c2-2.4,15.15,14.95,16.25,16.7,2.35,3.7,5.8,12.25,11.45,9.8,3.85-1.7,7.55-4,11.3-6s7.5-3.95,11.25-5.95c7.15-3.8,14.3-7.7,21.15-12,3.4-2.15,6.7-4.35,10.5-5.7,1.9-.65,4.2-1.45,4.65-3.7.55-2.7-1.75-5.75-3-7.9a65.7,65.7,0,0,0-5.65-8.15,47.72,47.72,0,0,0-7.4-7.5c-2.15-1.7-4.55-3.55-7.35-3.85-3.15-.3-5.7,2-8.25,3.6-3.25,2.05-6.6,4-10,5.75-15.3,8.15-31.5,14.55-46.1,24-.45.3-.05,1.05.45.75,11.85-7.7,24.75-13.35,37.35-19.6,6.25-3,12.4-6.3,18.35-9.95,3.4-2.1,6.45-4.85,10.6-3,3.35,1.5,6.25,4.35,8.75,7a67.81,67.81,0,0,1,6,7.55c1.8,2.7,4.3,5.95,5.2,9.05,1.3,4.45-4.65,5.15-7.45,6.55-3.45,1.75-6.65,4-9.95,6-6.25,3.8-12.7,7.25-19.15,10.7-7,3.7-13.9,7.6-21,11.1-5,2.45-7.95-4.15-10.1-7.65a68.36,68.36,0,0,0-6-8.5,62,62,0,0,0-7.8-8c-1-.9-3.35-3.5-4.75-1.8C81.45,198.85,82.05,199.5,82.4,199.05Z"/><path class="cls-9" d="M97.35,239A104.43,104.43,0,0,0,89.85,224C85.9,217.05,81.7,209.8,75,205.35a3.21,3.21,0,0,0-2-.7c-.7.1-1.35.85-1,1.5-4.2,6.1,13.75,36.35,24.45,37.35a2.28,2.28,0,0,0,1.35-2.05A5.46,5.46,0,0,0,97.35,239Z"/><path class="cls-2" d="M97.75,238.85a108.54,108.54,0,0,0-7.55-15,85.58,85.58,0,0,0-8-12.25,32.16,32.16,0,0,0-5-5.05c-1-.85-2.8-2.55-4.3-2.2s-1.75,2.4-1.9,3.7c-.55,4.85,2.45,10.35,4.65,14.5a64.74,64.74,0,0,0,11.8,16.2,20.66,20.66,0,0,0,6.75,4.75c1,.4,2.15.85,3.1.2,1.55-1.1,1-3.4.45-4.8-.2-.55-1-.3-.85.25,2.1,6.1-3.3,3.25-5.25,1.9a29,29,0,0,1-5.35-4.85A68.18,68.18,0,0,1,77,222.9c-2.2-4-4.45-8.4-5-13-.1-1-.3-3,.55-3.85,2.55-2.4,8.15,4.7,9.65,6.6a101.07,101.07,0,0,1,7.55,11.85A105.16,105.16,0,0,1,96.9,239C97.1,239.6,98,239.4,97.75,238.85Z"/><path class="cls-11" d="M170.25,203.15a7.83,7.83,0,0,0-.95-2.75,2.81,2.81,0,0,0-2.35-1.5,4.93,4.93,0,0,0-2,.65c-1.5.8-3.05,1.55-4.55,2.35-7.1,3.65-14.2,7.35-21,11.5-7.3,4.45-14.4,9.5-22.55,12.1-1.6.5-3.35,1-4.5,2.25a5.27,5.27,0,0,0-1.15,4.35,8.16,8.16,0,0,0,2.15,4.1c20.4-7.85,39.05-16.75,55.55-26.95a3.52,3.52,0,0,0,1.75-2.75A8.5,8.5,0,0,0,170.25,203.15Z"/><path class="cls-2" d="M170.7,203.05c-.45-2-1.3-4.5-3.7-4.6-1.3,0-2.7,1-3.8,1.5-1.6.8-3.15,1.65-4.75,2.45-7.3,3.8-14.6,7.65-21.6,12-6.75,4.2-13.3,8.3-20.85,10.85-2.35.8-4.5,1.8-5.2,4.35s.55,5,2.15,6.85a.48.48,0,0,0,.45.1c11.75-4.55,23.3-9.5,34.55-15.2,5.3-2.7,10.55-5.5,15.65-8.5,2-1.2,5.05-2.35,6.55-4.2,1.3-1.55.95-3.75.55-5.6-.1-.55-.95-.3-.85.25.35,1.8.65,3.2-.5,4.65a8.74,8.74,0,0,1-2.85,2.2c-1.8,1.1-3.65,2.2-5.5,3.25-3.5,2-7.1,3.95-10.7,5.8-7.6,4-15.4,7.55-23.3,11-2.25.95-4.5,1.9-6.8,2.8-1.7.7-5.2,2.8-6.8,2.1-1.25-.55-1.85-2.45-1.9-3.75A4.79,4.79,0,0,1,114,227c1.85-1.1,4.3-1.5,6.3-2.35,7.6-3.1,14.35-8,21.4-12.15,4.4-2.6,8.9-5,13.45-7.4l6.65-3.45a17.49,17.49,0,0,1,3.05-1.55c.55-.15,3.7.05,4.2.5a6.67,6.67,0,0,1,.9,2.65C170,203.85,170.8,203.6,170.7,203.05Z"/><path class="cls-8" d="M179.55,176.55c-1.35-2.7-2.05-5.8-4-8.15-.15-.15-.35-.35-.55-.35s-.35.2-.45.4a4.47,4.47,0,0,0-.5,3.3s6.2,8.85,10,13.25C183.15,182,181,179.4,179.55,176.55Z"/><path class="cls-2" d="M179.65,176.5c-.45-1-2.9-8.85-4.6-8.55-1.25.2-1.4,3-1.05,3.85.7,1.8,2.6,3.65,3.75,5.2,2,2.75,4.05,5.45,6.25,8.05.05.1.2,0,.2-.1-1-3-3-5.6-4.55-8.45-.05-.15-.25,0-.2.1.85,1.65,1.9,3.2,2.85,4.85.3.5,1.55,2.25,1.4,2.8.2.4.1.35-.25-.2l-.75-.9c-1.9-2.35-3.7-4.8-5.5-7.2-.9-1.25-2.35-2.7-2.95-4.15a1.88,1.88,0,0,1-.05-2.05c0-1.25.4-1.55,1.15-.95,1.05.3,1.45,1.55,1.9,2.45.85,1.75,1.45,3.6,2.25,5.35C179.55,176.75,179.75,176.6,179.65,176.5Z"/><path class="cls-8" d="M95.8,227.05c-1.25-2.25-2.45-4.55-3.7-6.8-.95-1.75-2-3.55-3.75-4.45a76.81,76.81,0,0,0,4.6,9.85l0-.25,1.7,2.15a2.13,2.13,0,0,0,.6.55A.68.68,0,0,0,96,228,1.09,1.09,0,0,0,95.8,227.05Z"/><path class="cls-2" d="M95.9,227c-1.35-2.5-2.65-5-4.05-7.45a9.84,9.84,0,0,0-3.45-3.85c-.1,0-.2.05-.15.1a80.77,80.77,0,0,0,4.6,9.9.11.11,0,0,0,.2-.1c0,.2,1.6,3,2.55,2.65.65-.2.5-.7.3-1.25a.11.11,0,0,0-.2.1c-.75.7-1.25.55-1.6-.3L93,225.35c0-.1-.2,0-.2.1a33,33,0,0,0-1.85-3.9c-.4-.8-.75-1.65-1.15-2.5s-1.9-3.25-.1-2.15c1.25.8,2.3,3.35,2.95,4.65l3,5.55C95.75,227.2,96,227.1,95.9,227Z"/><path class="cls-5" d="M171.45,120c0,2.45-1.75,3.65-3.9,3.65s-3.9-1.2-3.9-3.65a3.93,3.93,0,1,1,7.8,0Z"/><path class="cls-2" d="M171,120c-.2,4.2-7,4.25-6.95,0a3.9,3.9,0,0,1,3.15-4c2.3-.2,3.7,1.95,3.8,4,.05.55.9.55.9,0-.1-2.4-1.7-4.9-4.35-4.9s-4.35,2.45-4.35,4.9a4.36,4.36,0,0,0,8.7,0A.45.45,0,0,0,171,120Z"/><path class="cls-11" d="M171.45,119c0,1.9-1.75,2.8-3.95,2.8s-3.95-.9-3.95-2.8a4,4,0,0,1,7.9,0Z"/><path class="cls-2" d="M171.25,119c-.25,3.55-7.45,3.6-7.45,0-.05-4.25,7.15-4.2,7.45,0a.22.22,0,1,0,.45,0c-.3-4.75-8.35-4.85-8.35,0,0,4.15,8.05,4.1,8.35,0A.23.23,0,1,0,171.25,119Z"/><path class="cls-2" d="M165.25,119.31c.1.3.15.65.25,1,.05.15.25.1.2-.05s-.15-.65-.25-.95S165.2,119.16,165.25,119.31Z"/><path class="cls-2" d="M165.55,119.31a.79.79,0,0,0,.2.85.39.39,0,0,0,.6-.15c.25-.55-.45-1.4-.8-.7-.05.1.15.2.2.1s.35,0,.4.1a.48.48,0,0,1,0,.45.22.22,0,0,1-.35-.1.49.49,0,0,1-.05-.45C165.8,119.21,165.6,119.16,165.55,119.31Z"/><path class="cls-2" d="M166.35,119a.79.79,0,0,0,.2.85.39.39,0,0,0,.6-.15c.25-.5-.45-1.4-.8-.7,0,.1.15.2.2.1.1-.25.35,0,.4.1a.48.48,0,0,1,0,.45.22.22,0,0,1-.35-.1.49.49,0,0,1,0-.45C166.6,119,166.35,118.86,166.35,119Z"/><path class="cls-2" d="M167.6,119.41c0-.2-.1-.4-.15-.65,0,0-.15,0-.2,0a2.82,2.82,0,0,0,.2.6.11.11,0,0,0,.2-.1c-.05-.1-.1-.4.1-.45-.05,0-.05,0-.1,0,.15.15.15.35.25.5a.11.11,0,0,0,.2,0,.63.63,0,0,0,0-.3s-.05-.1-.05-.15l.05,0c.15.1.2.3.3.4a.11.11,0,1,0,.15-.15c-.1-.15-.3-.6-.5-.55-.35,0-.15.55-.15.7.05,0,.15-.05.2-.05-.1-.15-.2-.65-.45-.55s-.25.5-.15.7c.05,0,.15,0,.2-.1a1,1,0,0,1-.15-.55c-.05-.15-.25-.1-.2.05s.1.45.15.65S167.65,119.51,167.6,119.41Z"/><path class="cls-2" d="M168.85,118.46c-.3,0-.5.45-.15.6a.4.4,0,0,0,.45-.1c.1-.15-.05-.4-.1-.55s-.2,0-.2.1a1.56,1.56,0,0,0,.25.5c.05.1.15.25.05.4v.1c-.1,0-.15-.05-.2-.15a.11.11,0,0,0-.15.15c.15.2.45.3.55,0a.45.45,0,0,0,0-.5,1.54,1.54,0,0,1-.25-.6c0,.05-.15.05-.2.1s.1.15.1.25,0-.15-.1-.1C169,118.66,169,118.46,168.85,118.46Z"/><path class="cls-5" d="M210.8,205.66c-1.5,2-3.6,1.8-5.35.45s-2.35-3.35-.85-5.3a4.2,4.2,0,0,1,5.85-1.1A4.27,4.27,0,0,1,210.8,205.66Z"/><path class="cls-2" d="M210.5,205.36a3.27,3.27,0,0,1-5,.2c-1.8-1.6-1.5-3.95.45-5.35a3.5,3.5,0,0,1,4.6.2c1.4,1.45,1,3.55-.1,5.05-.35.45.45.9.75.45,1.4-1.95,1.6-4.85-.4-6.45a4.56,4.56,0,0,0-5.85.45,4.06,4.06,0,0,0,0,6.3c1.95,1.75,4.5,1.85,6.25-.2C211.5,205.51,210.85,204.91,210.5,205.36Z"/><path class="cls-11" d="M211.45,204.86c-1.15,1.5-3.1,1.15-4.85-.2s-2.55-3.15-1.4-4.65a3.73,3.73,0,0,1,5.25-.3A3.68,3.68,0,0,1,211.45,204.86Z"/><path class="cls-2" d="M211.3,204.71c-2.8,3.15-9.1-3.1-5-5.35,3.15-1.7,7,2.45,5,5.35a.22.22,0,1,0,.35.25c2.5-3.6-2.75-8.4-6.15-5.6-3.6,3,3.15,9,6.1,5.65A.21.21,0,0,0,211.3,204.71Z"/><path class="cls-2" d="M206.4,201.26c-.15.3-.25.6-.4.9s.15.25.2.1.25-.6.4-.9C206.65,201.26,206.45,201.11,206.4,201.26Z"/><path class="cls-2" d="M206.6,201.46a.74.74,0,0,0-.35.8.4.4,0,0,0,.55.25c.55-.25.5-1.4-.2-1-.15,0,0,.25.1.2s.15.05.25.05a.18.18,0,0,0,.05.15.3.3,0,0,1-.05.2c0,.1-.1.3-.25.3s-.25-.1-.25-.25a.81.81,0,0,1,.25-.45C206.85,201.56,206.75,201.36,206.6,201.46Z"/><path class="cls-2" d="M207.4,201.71a.74.74,0,0,0-.35.8.4.4,0,0,0,.55.25c.55-.25.5-1.4-.2-1-.15,0,0,.25.1.2s.15.05.25.05a.18.18,0,0,0,.05.15.3.3,0,0,1-.05.2c-.05.1-.1.3-.25.3s-.25-.1-.25-.25a.81.81,0,0,1,.25-.45C207.65,201.81,207.5,201.61,207.4,201.71Z"/><path class="cls-2" d="M208.2,202.76a5.87,5.87,0,0,1,.25-.55c0-.05-.15-.05-.2-.1a2.82,2.82,0,0,0-.2.6c-.05.15.15.2.2,0a.26.26,0,0,1,.1-.2c.15-.1.2-.05.15.1s-.1.2-.1.3.1.2.2.1.15-.2.15-.3,0-.15.05,0a1.68,1.68,0,0,1,0,.5c0,.15.25.15.2,0s.15-.65-.1-.8-.4.35-.55.5c.05.05.15.05.2.1,0-.15.25-.65,0-.75s-.5.25-.6.45c.05,0,.15,0,.2,0a2.44,2.44,0,0,1,.2-.55c.05-.15-.1-.25-.2-.1l-.3.6C207.9,202.86,208.15,202.91,208.2,202.76Z"/><path class="cls-2" d="M209.7,202.81a.32.32,0,0,0-.45.45.52.52,0,0,0,.4.2c.2-.05.25-.35.25-.5s-.15-.2-.2-.15a3.49,3.49,0,0,0-.15.6c-.05.2-.3.6-.35.15,0-.15-.25-.15-.2,0s.2.55.45.35a.49.49,0,0,0,.25-.3c.1-.25.05-.5.15-.7,0,0-.15,0-.2-.1a.3.3,0,0,1-.05.2c0,.05,0,.05,0,.05s-.1,0,0-.15C209.7,203.06,209.85,202.86,209.7,202.81Z"/><path class="cls-5" d="M125.35,128.41c-1.5,2-3.6,1.8-5.35.45s-2.35-3.35-.85-5.3a4,4,0,1,1,6.2,4.85Z"/><path class="cls-2" d="M125.05,128.11a3.27,3.27,0,0,1-5,.2c-1.8-1.6-1.5-4,.45-5.35a3.5,3.5,0,0,1,4.6.2c1.4,1.45,1,3.55-.1,5.05-.35.45.45.9.75.45,1.4-2,1.6-4.85-.4-6.45a4.56,4.56,0,0,0-5.85.45,4.06,4.06,0,0,0,0,6.3c2,1.75,4.5,1.85,6.25-.2C126.05,128.31,125.4,127.66,125.05,128.11Z"/><path class="cls-11" d="M126,127.66c-1.15,1.5-3.1,1.15-4.85-.2s-2.55-3.15-1.4-4.65a3.73,3.73,0,0,1,5.25-.3A3.68,3.68,0,0,1,126,127.66Z"/><path class="cls-2" d="M125.85,127.51c-2.8,3.15-9.1-3.1-5-5.35,3.15-1.7,7.05,2.4,5,5.35a.22.22,0,1,0,.35.25c2.5-3.6-2.75-8.4-6.15-5.6-3.6,3,3.15,9,6.1,5.65C126.35,127.61,126.05,127.26,125.85,127.51Z"/><path class="cls-2" d="M121,124.06c-.15.3-.25.6-.4.9s.15.25.2.1c.15-.3.25-.6.4-.9C121.2,124,121,123.91,121,124.06Z"/><path class="cls-2" d="M121.15,124.21a.74.74,0,0,0-.35.8.4.4,0,0,0,.55.25c.55-.2.5-1.35-.2-1.05-.15.05,0,.25.1.2s.15,0,.25,0a.18.18,0,0,0,0,.15.3.3,0,0,1,0,.2c0,.1-.1.3-.25.3s-.25-.1-.25-.25a.81.81,0,0,1,.25-.45C121.4,124.31,121.3,124.16,121.15,124.21Z"/><path class="cls-2" d="M122,124.46a.74.74,0,0,0-.35.8.4.4,0,0,0,.55.25c.55-.2.5-1.35-.2-1.05-.15.05,0,.25.1.2s.15,0,.25,0a.18.18,0,0,0,0,.15.3.3,0,0,1,0,.2c0,.1-.1.3-.25.3s-.25-.1-.25-.25a.81.81,0,0,1,.25-.45C122.2,124.61,122.1,124.41,122,124.46Z"/><path class="cls-2" d="M122.75,125.56A5.87,5.87,0,0,1,123,125c0-.05-.15-.05-.2-.1a2.82,2.82,0,0,0-.2.6c0,.15.15.2.2,0a.26.26,0,0,1,.1-.2c.15-.1.2,0,.15.1s-.1.2-.1.3.1.2.2.1.15-.2.15-.3,0-.15,0,0a1.68,1.68,0,0,1,0,.5c0,.15.25.15.2,0s.15-.65-.1-.8-.4.35-.55.5c0,.05.15.05.2.1.05-.15.25-.65,0-.75s-.5.25-.6.45c0,0,.15,0,.2,0a2.44,2.44,0,0,1,.2-.55c0-.15-.1-.25-.2-.1l-.3.6C122.45,125.66,122.7,125.71,122.75,125.56Z"/><path class="cls-2" d="M124.25,125.61a.32.32,0,0,0-.45.45.52.52,0,0,0,.4.2c.2-.05.25-.35.25-.5s-.1-.25-.2-.15a3.49,3.49,0,0,0-.15.6c0,.2-.3.6-.35.15,0-.15-.25-.15-.2,0s.2.55.45.35a.49.49,0,0,0,.25-.3c.1-.25,0-.5.15-.7-.05,0-.15,0-.2-.1a.3.3,0,0,1,0,.2s0,0-.05,0-.1,0,0-.15C124.3,125.86,124.4,125.66,124.25,125.61Z"/><path class="cls-5" d="M184.1,138.46c-1.5,1.95-3.6,1.8-5.35.45s-2.35-3.35-.85-5.3a4,4,0,1,1,6.2,4.85Z"/><path class="cls-2" d="M183.8,138.16a3.27,3.27,0,0,1-5,.2c-1.8-1.6-1.5-4,.45-5.35a3.5,3.5,0,0,1,4.6.2c1.4,1.45,1,3.55-.1,5-.35.45.45.9.75.45,1.4-2,1.6-4.85-.4-6.45a4.56,4.56,0,0,0-5.85.45,4.06,4.06,0,0,0-.05,6.3c2,1.75,4.5,1.85,6.25-.2C184.8,138.31,184.15,137.71,183.8,138.16Z"/><path class="cls-11" d="M184.75,137.66c-1.15,1.5-3.1,1.15-4.85-.2s-2.55-3.15-1.4-4.65a3.73,3.73,0,0,1,5.25-.3A3.68,3.68,0,0,1,184.75,137.66Z"/><path class="cls-2" d="M184.6,137.51c-2.8,3.15-9.15-3.15-5-5.35,3.2-1.7,7.05,2.45,5,5.35a.2.2,0,1,0,.3.25c2.5-3.6-2.75-8.4-6.1-5.6-3.6,3.05,3.15,9,6,5.6C185.1,137.61,184.8,137.31,184.6,137.51Z"/><path class="cls-2" d="M179.7,134.06c-.15.3-.25.6-.4.9-.05.15.15.25.2.1.15-.3.25-.6.4-.9C180,134.06,179.75,134,179.7,134.06Z"/><path class="cls-2" d="M180,134.26a.74.74,0,0,0-.35.8.4.4,0,0,0,.55.25c.55-.25.45-1.4-.2-1.05-.15.05,0,.25.1.2s.15,0,.25,0a.18.18,0,0,0,0,.15.3.3,0,0,1,0,.2c-.05.1-.1.3-.25.3s-.25-.1-.25-.25a.81.81,0,0,1,.25-.45C180.15,134.36,180.05,134.16,180,134.26Z"/><path class="cls-2" d="M180.7,134.51a.74.74,0,0,0-.35.8.4.4,0,0,0,.55.25c.55-.25.5-1.4-.2-1.05-.15.05,0,.25.1.2s.15,0,.25,0a.18.18,0,0,0,0,.15.3.3,0,0,1,0,.2c-.05.1-.1.3-.25.3s-.25-.1-.25-.25a.81.81,0,0,1,.25-.45C181,134.61,180.85,134.41,180.7,134.51Z"/><path class="cls-2" d="M181.5,135.61a5.87,5.87,0,0,1,.25-.55c-.05-.05-.15-.05-.2-.1a2.82,2.82,0,0,0-.2.6c0,.15.15.2.2.05a.26.26,0,0,1,.1-.2c.15-.1.2,0,.15.1s-.1.2-.1.3.1.2.2.1.15-.2.15-.3,0-.15,0-.05a1.68,1.68,0,0,1,0,.5c0,.15.25.15.2,0s.15-.65-.1-.8-.4.35-.55.5c0,.05.15.05.2.1.05-.15.25-.65,0-.75s-.5.25-.6.45c.05,0,.15.05.2.05a2.44,2.44,0,0,1,.2-.55c0-.15-.1-.25-.2-.1l-.3.6C181.25,135.66,181.45,135.71,181.5,135.61Z"/><path class="cls-2" d="M183.05,135.61a.32.32,0,0,0-.45.45.52.52,0,0,0,.4.2c.2,0,.25-.35.25-.5s-.15-.2-.2-.15a3.49,3.49,0,0,0-.15.6c-.05.2-.3.6-.35.15,0-.15-.25-.15-.2,0s.2.55.45.35a.49.49,0,0,0,.25-.3c.1-.25,0-.5.15-.7s-.15-.05-.2-.1a.3.3,0,0,1-.05.2c0,.05,0,.05,0,.05s-.1,0,0-.15C183.05,135.86,183.15,135.71,183.05,135.61Z"/><path class="cls-5" d="M124.2,157.66c2,1.5,1.8,3.6.45,5.35s-3.35,2.4-5.3.85-2.45-4.1-1.1-5.85A4.27,4.27,0,0,1,124.2,157.66Z"/><path class="cls-2" d="M123.9,158a3.27,3.27,0,0,1,.2,5c-1.6,1.8-3.95,1.5-5.35-.4a3.5,3.5,0,0,1,.15-4.6c1.45-1.4,3.55-1,5,.1.45.35.9-.45.45-.75-2-1.4-4.85-1.6-6.45.45a4.62,4.62,0,0,0,.45,5.85,4.06,4.06,0,0,0,6.3.05c1.75-2,1.85-4.55-.2-6.25C124.1,157,123.45,157.61,123.9,158Z"/><path class="cls-11" d="M123.45,157c1.5,1.15,1.15,3.1-.2,4.85s-3.15,2.55-4.65,1.4a4,4,0,0,1,4.85-6.25Z"/><path class="cls-2" d="M123.3,157.21c3.15,2.8-3.1,9.15-5.35,5-1.7-3.15,2.4-7.05,5.35-5a.22.22,0,1,0,.25-.35c-3.6-2.5-8.4,2.8-5.6,6.15,3,3.6,9-3.15,5.65-6.1C123.4,156.71,123.05,157,123.3,157.21Z"/><path class="cls-2" d="M119.85,162.11c.3.15.6.25.9.4s.25-.15.1-.2-.6-.25-.9-.4S119.7,162.06,119.85,162.11Z"/><path class="cls-2" d="M120,161.86a.74.74,0,0,0,.8.35.4.4,0,0,0,.25-.55c-.2-.55-1.35-.5-1,.2,0,.15.25,0,.2-.1s0-.15,0-.25a.18.18,0,0,0,.15,0,.3.3,0,0,1,.2,0c.1.05.3.1.3.25s-.1.25-.25.25a.6.6,0,0,1-.45-.25C120.15,161.66,120,161.76,120,161.86Z"/><path class="cls-2" d="M120.3,161.11a.74.74,0,0,0,.8.35.4.4,0,0,0,.25-.55c-.25-.55-1.4-.5-1,.2,0,.15.25,0,.2-.1s0-.15,0-.25a.18.18,0,0,0,.15,0,.3.3,0,0,1,.2,0c.1.05.3.1.3.25s-.1.25-.25.25a.6.6,0,0,1-.45-.25C120.4,160.86,120.2,161,120.3,161.11Z"/><path class="cls-2" d="M121.35,160.31a1.85,1.85,0,0,1-.55-.25c0,.05,0,.15-.1.2a2.82,2.82,0,0,0,.6.2c.15,0,.2-.15,0-.2a.26.26,0,0,1-.2-.1c-.1-.15-.05-.2.1-.15s.2.1.3.1.2-.1.1-.2-.2-.15-.3-.15-.15,0,0,0a1.68,1.68,0,0,1,.5,0c.15,0,.15-.25,0-.2s-.65-.15-.8.1.35.4.5.5c0-.05,0-.15.1-.2-.15,0-.65-.25-.75,0s.25.5.45.6c0,0,0-.15,0-.2a2.44,2.44,0,0,1-.55-.2c-.15-.05-.25.1-.1.2l.6.3C121.45,160.56,121.5,160.36,121.35,160.31Z"/><path class="cls-2" d="M121.4,158.76a.32.32,0,0,0,.45.45.52.52,0,0,0,.2-.4c0-.2-.35-.25-.5-.25s-.25.15-.15.2a3.49,3.49,0,0,0,.6.15c.2.05.6.3.15.35-.15,0-.15.25,0,.2s.55-.2.35-.45a.49.49,0,0,0-.3-.25c-.25-.1-.5,0-.7-.15,0,0,0,.15-.1.2a.3.3,0,0,1,.2.05c.05,0,.05,0,.05,0s0,.1-.15,0C121.65,158.76,121.45,158.66,121.4,158.76Z"/><path class="cls-5" d="M244.3,156.86c-.05,2.45-1.85,3.6-4,3.55s-3.9-1.25-3.85-3.75a4,4,0,1,1,7.85.2Z"/><path class="cls-2" d="M243.85,156.86c-.3,4.2-7,4.1-6.95-.2a3.81,3.81,0,0,1,3.25-3.9c2.35-.2,3.65,2,3.7,4.1a.45.45,0,0,0,.9,0c-.05-2.45-1.6-5-4.25-5s-4.45,2.4-4.45,4.8a4,4,0,0,0,4.25,4.15,4.12,4.12,0,0,0,4.45-4C244.8,156.26,243.9,156.26,243.85,156.86Z"/><path class="cls-11" d="M244.35,155.81c0,1.9-1.85,2.75-4,2.7s-3.95-1-3.9-2.9a4,4,0,0,1,7.9.2Z"/><path class="cls-2" d="M244.15,155.81c-.3,3.5-7.55,3.4-7.45-.2.05-4.25,7.25-4,7.45.2a.22.22,0,0,0,.45,0c-.2-4.75-8.25-5-8.35-.2-.1,4.15,7.95,4.3,8.35.2C244.6,155.56,244.15,155.56,244.15,155.81Z"/><path class="cls-2" d="M238.15,156c.1.3.15.65.25.95s.25.1.2,0c-.1-.3-.15-.65-.25-1C238.3,155.76,238.1,155.81,238.15,156Z"/><path class="cls-2" d="M238.45,156a.79.79,0,0,0,.2.85.39.39,0,0,0,.6-.15c.25-.5-.45-1.35-.8-.7,0,.1.15.2.2.1.15-.25.35-.05.4.15s.1.35,0,.45a.22.22,0,0,1-.35-.1.69.69,0,0,1,0-.45C238.7,155.91,238.45,155.86,238.45,156Z"/><path class="cls-2" d="M239.2,155.71a.79.79,0,0,0,.2.85.39.39,0,0,0,.6-.15c.3-.5-.4-1.4-.8-.7,0,.1.15.2.2.1.15-.25.35-.05.4.15s.1.35,0,.45a.22.22,0,0,1-.35-.1.69.69,0,0,1,0-.45C239.45,155.66,239.25,155.61,239.2,155.71Z"/><path class="cls-2" d="M240.5,156.11a2.51,2.51,0,0,1-.1-.6.3.3,0,0,0-.2.05,2.82,2.82,0,0,0,.2.6.11.11,0,0,0,.2-.1c0-.1-.1-.4.1-.45,0,0,0,0-.1-.05.15.15.15.35.25.5a.11.11,0,0,0,.2-.05v-.3a.18.18,0,0,0-.05-.15l.05.05c.15.1.2.3.3.4a.11.11,0,1,0,.15-.15c-.1-.15-.25-.6-.5-.55s-.15.55-.15.7.15,0,.2,0c-.1-.15-.15-.65-.45-.55s-.25.45-.2.7c0-.05.15-.05.2-.1a1.14,1.14,0,0,1-.15-.55c0-.1-.25-.1-.2,0a2.48,2.48,0,0,0,.15.65C240.3,156.31,240.55,156.26,240.5,156.11Z"/><path class="cls-2" d="M241.75,155.21c-.3,0-.5.45-.15.6a.49.49,0,0,0,.45-.05c.1-.15-.05-.4-.1-.55s-.2-.05-.2.1.15.3.2.45.15.25.05.4,0,.05-.05.1a.26.26,0,0,1-.2-.1.11.11,0,0,0-.15.15c.15.2.45.3.55,0s.1-.3,0-.5a3.06,3.06,0,0,1-.25-.6c-.05,0-.15,0-.2.1s.1.15.1.25,0-.15-.1-.15C241.9,155.41,241.9,155.21,241.75,155.21Z"/><path class="cls-5" d="M164.15,241.31c-.05,2.45-1.85,3.6-4,3.55s-3.9-1.25-3.85-3.75a4,4,0,1,1,7.85.2Z"/><path class="cls-2" d="M163.75,241.31c-.3,4.2-7,4.1-6.95-.2a3.81,3.81,0,0,1,3.25-3.9c2.3-.15,3.65,2,3.7,4.1a.45.45,0,0,0,.9,0c-.05-2.45-1.6-4.95-4.25-5s-4.45,2.4-4.45,4.8a4,4,0,0,0,4.25,4.15,4.12,4.12,0,0,0,4.45-4C164.65,240.76,163.75,240.76,163.75,241.31Z"/><path class="cls-11" d="M164.25,240.31c-.05,1.9-1.85,2.75-4,2.7s-3.95-1-3.9-2.9a4,4,0,0,1,7.9.2Z"/><path class="cls-2" d="M164,240.31c-.3,3.5-7.55,3.4-7.45-.2,0-4.25,7.3-4,7.45.2a.22.22,0,0,0,.45,0c-.2-4.75-8.25-5-8.35-.2-.1,4.15,8,4.3,8.35.2C164.45,240,164.05,240,164,240.31Z"/><path class="cls-2" d="M158,240.46c.1.3.15.65.25.95s.25.1.2,0c-.1-.3-.15-.65-.25-1C158.2,240.26,158,240.31,158,240.46Z"/><path class="cls-2" d="M158.3,240.46a.79.79,0,0,0,.2.85.39.39,0,0,0,.6-.15c.25-.5-.45-1.4-.8-.7-.05.1.15.2.2.1.15-.25.35-.05.4.15s.1.35,0,.45a.22.22,0,0,1-.35-.1.69.69,0,0,1,0-.45C158.55,240.36,158.35,240.31,158.3,240.46Z"/><path class="cls-2" d="M159.1,240.21a.79.79,0,0,0,.2.85.39.39,0,0,0,.6-.15c.25-.55-.45-1.4-.8-.7,0,.1.15.2.2.1.15-.25.35-.05.4.15s.1.35,0,.45a.22.22,0,0,1-.35-.1.69.69,0,0,1,0-.45C159.35,240.11,159.15,240.06,159.1,240.21Z"/><path class="cls-2" d="M160.35,240.61a2.51,2.51,0,0,1-.1-.6.3.3,0,0,0-.2.05,2.82,2.82,0,0,0,.2.6.11.11,0,0,0,.2-.1c0-.1-.1-.4.1-.45-.05,0-.05,0-.1-.05.15.15.15.35.25.5a.11.11,0,0,0,.2-.05v-.3a.18.18,0,0,0-.05-.15l.05.05c.15.1.2.3.3.4a.11.11,0,0,0,.15-.15c-.1-.15-.25-.6-.5-.55s-.15.55-.15.7.15,0,.2,0c-.1-.15-.15-.65-.45-.55s-.25.45-.2.7c.05-.05.15-.05.2-.1a1.14,1.14,0,0,1-.15-.55c0-.1-.25-.1-.2,0a2.48,2.48,0,0,0,.15.65C160.2,240.81,160.4,240.71,160.35,240.61Z"/><path class="cls-2" d="M161.6,239.66c-.3,0-.5.45-.15.6a.49.49,0,0,0,.45,0c.1-.15-.05-.4-.1-.55s-.2,0-.2.1.15.3.2.45.15.25,0,.4,0,0,0,.1a.26.26,0,0,1-.2-.1.11.11,0,0,0-.15.15c.15.2.45.3.55,0s.1-.3,0-.5a3.06,3.06,0,0,1-.25-.6c-.05.05-.15.05-.2.1s.1.15.1.25,0-.15-.1-.15C161.75,239.91,161.75,239.66,161.6,239.66Z"/><path class="cls-5" d="M106.4,167.91c-.05,2.45-1.85,3.6-4,3.55s-3.9-1.25-3.85-3.75a4,4,0,1,1,7.85.2Z"/><path class="cls-2" d="M106,167.91c-.3,4.2-7,4.1-7-.2a3.81,3.81,0,0,1,3.25-3.9c2.35-.2,3.7,2,3.7,4.1a.45.45,0,0,0,.9,0c0-2.45-1.6-4.95-4.25-5s-4.45,2.4-4.45,4.8a4,4,0,0,0,4.25,4.15,4.12,4.12,0,0,0,4.45-4C106.9,167.31,106,167.31,106,167.91Z"/><path class="cls-11" d="M106.45,166.86c0,1.9-1.85,2.75-4,2.7s-4-1-3.9-2.9a4,4,0,0,1,7.9.2Z"/><path class="cls-2" d="M106.25,166.86c-.3,3.5-7.55,3.4-7.45-.2,0-4.25,7.25-4,7.45.2a.22.22,0,0,0,.45,0c-.2-4.75-8.25-5-8.35-.2-.1,4.15,8,4.3,8.35.2C106.7,166.61,106.25,166.61,106.25,166.86Z"/><path class="cls-2" d="M100.25,167c.1.3.15.65.25,1,0,.15.25.1.2-.05s-.15-.65-.25-.95S100.2,166.86,100.25,167Z"/><path class="cls-2" d="M100.55,167a.79.79,0,0,0,.2.85.39.39,0,0,0,.6-.15c.25-.5-.45-1.35-.8-.7,0,.1.15.2.2.1.15-.25.35-.05.4.15s.1.35,0,.45a.22.22,0,0,1-.35-.1.69.69,0,0,1,0-.45C100.8,167,100.6,166.91,100.55,167Z"/><path class="cls-2" d="M101.3,166.76a.79.79,0,0,0,.2.85.39.39,0,0,0,.6-.15c.3-.5-.4-1.4-.8-.7,0,.1.15.2.2.1.15-.25.35-.05.4.15s.1.35,0,.45a.22.22,0,0,1-.35-.1.69.69,0,0,1,0-.45C101.6,166.71,101.35,166.61,101.3,166.76Z"/><path class="cls-2" d="M102.6,167.16a2.51,2.51,0,0,1-.1-.6.3.3,0,0,0-.2.05,2.82,2.82,0,0,0,.2.6.11.11,0,0,0,.2-.1c0-.1-.1-.4.1-.45,0,0,0,0-.1,0,.15.15.15.35.25.5a.11.11,0,0,0,.2-.05v-.3a.18.18,0,0,0-.05-.15l.05,0c.15.1.2.3.3.4a.11.11,0,1,0,.15-.15c-.1-.15-.25-.6-.5-.55s-.15.55-.15.7c0,0,.15-.05.2-.05-.1-.15-.15-.65-.45-.55s-.25.45-.2.7c0,0,.15,0,.2-.1a1.14,1.14,0,0,1-.15-.55c0-.1-.25-.1-.2.05a2.48,2.48,0,0,0,.15.65C102.45,167.36,102.65,167.31,102.6,167.16Z"/><path class="cls-2" d="M103.85,166.26c-.3,0-.5.45-.15.6a.49.49,0,0,0,.45-.05c.1-.15-.05-.4-.1-.55s-.2,0-.2.1.15.3.2.45.15.25,0,.4,0,0,0,.1a.26.26,0,0,1-.2-.1.11.11,0,0,0-.15.15c.15.2.45.3.55,0s.1-.3,0-.5a3.06,3.06,0,0,1-.25-.6c0,.05-.15.05-.2.1s.1.15.1.25,0-.15-.1-.15C104,166.46,104,166.26,103.85,166.26Z"/></g></g></svg>