<svg xmlns="http://www.w3.org/2000/svg" viewBox="0 0 923.7 346.97"><defs><style>.cls-1{fill:#723a29;}.cls-2{fill:#38301f;}.cls-3{fill:#ad968a;}.cls-4{fill:#da9b38;}</style></defs><title>eyeliner_1</title><g id="Layer_2" data-name="Layer 2"><g id="makeup"><path class="cls-1" d="M849.59,12.69c22,2.9,25.82,53.65,19.14,50.42,0,0-797.51,266.45-839.17,278.73-21.16,3.52-30.5-64.08-20-66.58C9.52,275.26,844.71,12.05,849.59,12.69Z"/><path class="cls-2" d="M848.27,17.52C857.7,19,861.9,29.75,864.18,37.86a65,65,0,0,1,2.46,14.39,37.53,37.53,0,0,1,0,5.51c-.09,1-.15.41-.19,1.31-.06,1.14-.31.8-.2.79,1.2,0,2.6-1.94,3.85-1.57a5.44,5.44,0,0,0-2.66,0l-.18.06c-.32.06-.62.22-.94.31-1.44.42-2.86,1-4.29,1.44L816,75.45l-83.69,27.94L622.08,140.17,496.44,182.05Q431.75,203.6,367,225.14,305.53,245.62,244,266q-52.47,17.43-105,34.79-37.77,12.49-75.58,24.88-11.76,3.84-23.54,7.64c-2.55.82-5.09,1.64-7.64,2.44-1.74.54-4.07,1.31-4.84,1.18-6.81-1.06-10.75-12.79-12.62-18.71a94.19,94.19,0,0,1-4.61-29.32,44.05,44.05,0,0,1,.28-5,20,20,0,0,1,.45-2.31c.09-.35.7-2.48.47-1.54.28-1.12,0-.15-.44,0,.84-.22,1.66-.52,2.49-.79L52.24,267l76.88-24.2q52.2-16.44,104.4-32.85,60.66-19.08,121.32-38.13,63.59-20,127.17-39.92,61.69-19.34,123.4-38.65Q659.68,76.31,714,59.4q41.41-12.9,82.88-25.7c15.73-4.84,31.45-9.75,47.25-14.35,1.62-.47,3.24-.91,4.85-1.38,1.26-.36,2.6-.12.63-.28,6.42.52,6.39-9.49,0-10-2.58-.2-5.93,1.37-8.33,2.07-6.4,1.87-12.78,3.81-19.17,5.75q-34.29,10.43-68.5,21.11-50.1,15.54-100.17,31.19-60,18.73-120,37.54-64.52,20.2-129,40.46L277,185.85l-113.82,35.8L73.29,249.93,19.17,267c-3.45,1.09-6.93,2.09-10.35,3.26C-2.24,274-.19,291,.87,300.06c1.25,10.73,3.71,21.48,8.4,31.26,3.5,7.3,9.59,15.57,18.54,15.65,5,0,10.52-2.61,15.19-4.11,19.62-6.31,39.18-12.77,58.76-19.21q47.33-15.58,94.62-31.29,59.07-19.58,118.11-39.21,65.1-21.65,130.2-43.33Q510,188.07,575.33,166.29l119.81-40,96.71-32.27,61.66-20.59,14.2-4.74c.31-.11,2.15-.46,2.3-.77s-4.39.73-.81.3a6.85,6.85,0,0,0,4.7-2.08c2.39-2.6,2.67-6.63,2.79-10,.6-16.5-6.18-45.21-25.77-48.33C844.63,6.87,841.92,16.51,848.27,17.52Z"/><path class="cls-1" d="M860.56,7.48A12.58,12.58,0,0,1,866.69,6c6.84-.22,6.41-2.18,15.66-3.08,5.86-.56,9.16-.88,13.22.56,2.48.88,3,1.63,5.54,2.12,4,.78,5.13-.58,10-.57.89,0,9.13.08,10,3.14.33,1.13-.45,2.26-1.14,3.23C916.06,17,909.34,16,908.5,19.44c-.37,1.54,1,1.88,2.16,5.92a24.93,24.93,0,0,1,1,7.58,29.61,29.61,0,0,1-1,7,32.77,32.77,0,0,1-1.92,5.26c-1.82,3.9-4.37,9.46-10.21,13.54-3.94,2.75-8.16,3.53-16.6,5.1-4.29.79-5.56.66-6.48-.11-2.61-2.17.2-7.26.45-14.48.36-10.76-5.19-19.4-6.75-21.81-5.83-9.07-13.65-12.6-12.23-16.5C857.55,9.2,859.8,7.91,860.56,7.48Z"/><path class="cls-2" d="M861.83,9.63c3.12-1.47,6.47-1,9.77-1.74,2.33-.54,4.53-1.48,6.89-1.94a45.06,45.06,0,0,1,12.36-1c3.47.32,6.26,2.3,9.6,3,5.31,1.14,10.6-1.32,16,0,4.73,1.21-1.14,4.48-3.29,5.48S908.52,15,907,17a4.84,4.84,0,0,0-.77,4.58c1,3.63,2.79,6.51,2.85,10.49.08,6.42-2.32,12.69-5.77,18-4.58,7.07-10.88,9.19-18.71,10.71-1.74.33-4.51,1.45-6.24,1-2-.49-1.65-1-1.27-3.43.65-4.18,1.5-8.2,1.2-12.48a41.85,41.85,0,0,0-6.57-19,53.83,53.83,0,0,0-7.4-9.14c-2.53-2.56-7.19-5.35-2.53-8.09,2.77-1.63.25-6-2.53-4.31-6.67,3.93-5.56,8.79-.75,13.68,6.21,6.31,11.51,12.75,13.82,21.47,1.58,5.93.73,11.3-.18,17.23-.44,2.89-.74,6.28,2,8.17,2,1.38,4.49,1,6.75.64,4.88-.74,10.12-1.56,14.72-3.44,13.88-5.68,22.22-25.93,16.89-39.9-.59-1.54-1.78-2.62-.83-3.68s3.5-1.39,4.65-2c2.86-1.45,6.45-4.23,7.18-7.59,1.41-6.48-7.79-7.4-12.14-7.43-4.91,0-8.55,1.31-13.29-.69S889-.22,884,.23a63.8,63.8,0,0,0-12.2,2.41c-4.27,1.23-8.41.73-12.53,2.68C856.4,6.69,858.93,11,861.83,9.63Z"/><path class="cls-2" d="M913.07,43.43c3.57,1.34,7-3.14,7.29-6.21.29-2.86-1.63-7.86-5.26-7.36-2.67.36-3.73,3.57-4.19,5.84-.53,2.58-.82,5.74,1.56,7.48,2.61,1.9,5.1-2.44,2.53-4.32.59.43.52.62.59.57s0-.06,0-.3a12.64,12.64,0,0,1,.05-1.38,14.68,14.68,0,0,1,.9-3.15l.14-.23c.1-.16.09-.14,0,0,.14.38-2.09-.54-1.9.23.13.48.59.86.68,1.43a2.29,2.29,0,0,1-.5,1.85c-.17.22-.43.36-.6.57-.39.45-.34-.05.12.12C911.38,37.48,910.08,42.31,913.07,43.43Z"/><path class="cls-2" d="M890.39,50.91a56.79,56.79,0,0,0,.93-15.06c-.12-1.6-2.62-1.61-2.5,0A54.24,54.24,0,0,1,888,50.24c-.3,1.58,2.11,2.25,2.41.67Z"/><path class="cls-2" d="M889.5,49.44c-.58-.43-.68-2.56-.86-3.23A30.31,30.31,0,0,0,887.58,43a34.25,34.25,0,0,0-2.8-5.58c-.84-1.37-3-.12-2.16,1.26a30.69,30.69,0,0,1,3.49,7.8c.54,1.87.46,3.91,2.13,5.12,1.3.95,2.54-1.21,1.26-2.15Z"/><path class="cls-2" d="M889.52,49.21A69,69,0,0,1,878.71,38.9c-1-1.23-2.8.54-1.77,1.77a72,72,0,0,0,11.31,10.7c1.28,1,2.53-1.19,1.27-2.16Z"/><path class="cls-2" d="M898.16,42.85c.62-3.4,2.65-6.24,3.52-9.59h-2.41c.36,1.7.62,6.88-1.51,7.51a1.25,1.25,0,0,0,.67,2.41c3.94-1.17,3.93-7.34,3.25-10.59a1.26,1.26,0,0,0-2.41,0c-.87,3.37-2.89,6.17-3.52,9.59-.29,1.58,2.11,2.25,2.41.67Z"/><path class="cls-2" d="M897.32,51.44l.22-1.76c0-.23,0-.47.09-.7s.37-1.18-.49-.46c-.08.07-.13.52-.18.65a4.7,4.7,0,0,1-.37.65,5.8,5.8,0,0,1-1.22,1.3c-1.24,1,.53,2.79,1.77,1.77,1.61-1.33,4.07-5.1,1.2-6.53a2.13,2.13,0,0,0-2.93,1.28,16.1,16.1,0,0,0-.59,3.8,1.26,1.26,0,0,0,1.25,1.25,1.27,1.27,0,0,0,1.25-1.25Z"/><path class="cls-2" d="M887.06,59.38a1.25,1.25,0,0,0,0-2.5,1.25,1.25,0,0,0,0,2.5Z"/><polygon class="cls-3" points="667.53 80.45 862.62 19.88 870.22 36.26 673.28 96.84 667.53 80.45"/><path class="cls-2" d="M667.69,81.05l76.25-23.68L851,24.15c3.6-1.12,7.18-2.35,10.81-3.36,1.55-.43.3-.75.74.31,1.76,4.25,3.89,8.39,5.83,12.57a17.43,17.43,0,0,0,1,2.19c.62.93-.24.57.69-.2a1.93,1.93,0,0,1-.59.18c-1.11.23-2.23.69-3.32,1L851.37,41.4,739.7,75.75,689.79,91.11,676.2,95.29a14.92,14.92,0,0,1-2.83.87c-.73.06.87.86.37.1-1-1.47-1.36-3.87-2-5.53l-3.66-10.45c-.26-.75-1.47-.43-1.2.33L672.67,97a.63.63,0,0,0,.77.43L740,77,846.12,44.33l24.27-7.47a.64.64,0,0,0,.37-.92l-7.61-16.38a.63.63,0,0,0-.7-.29L796.33,39.8,691.51,72.35l-24.15,7.49C666.6,80.08,666.92,81.29,667.69,81.05Z"/><path class="cls-3" d="M7.11,291.83,483.5,140.61l3,13.47L11,314.27C6.53,308.65,6,300.73,7.11,291.83Z"/><path class="cls-2" d="M7.28,292.43,56.82,276.7,175,239.2l140.55-44.61,118-37.46L470,145.56l10-3.19c.86-.28,2.72-1.3,3.64-1.16-1.34-.2-.45-.2-.41,1.17a22.07,22.07,0,0,0,.81,3.7,72,72,0,0,1,1.68,7.62c0,.21,1.09-.38-.16,0-2.19.7-4.35,1.47-6.53,2.2l-30.38,10.24-109.84,37L199.14,250.22,75.24,292,33.3,306.09l-13.36,4.5c-2.39.8-5.15,2.23-7.66,2.58-.31,0-1.07.56-1.37.46-.64-.22-2.1-4.51-2.33-5.17-1.82-5.33-1.47-11.13-.84-16.63.09-.8-1.16-.79-1.25,0-.9,7.89-.9,16.08,3.94,22.75a.64.64,0,0,0,.7.29l47.29-15.93L172,260.68,309.38,214.4l118.76-40,39.13-13.18,12.11-4.08c2-.67,4.66-1.09,6.44-2.17a3.59,3.59,0,0,1,.8-.27.64.64,0,0,0,.44-.77l-3-13.48a.63.63,0,0,0-.77-.43L435.9,155.06,322,191.21,184.75,234.78,65.65,272.59l-39.37,12.5-12,3.81c-2,.63-4.74,1-6.5,2.07a4.47,4.47,0,0,1-.81.25C6.18,291.47,6.51,292.67,7.28,292.43Z"/><polygon class="cls-3" points="875.56 29.71 869.13 16.85 915.26 6.43 919 7.72 903.86 12.4 903.61 16.88 875.56 29.71"/><path class="cls-2" d="M876.1,29.4l-3.65-7.31c-.63-1.27-1.26-3.38-2.22-4.43-1.18-1.3.06-.63-.69-.26,1.42-.7,3.54-.8,5.07-1.15L884.7,14l22.19-5c2.32-.52,4.73-1.31,7.09-1.6,1.95-.24,2.77.25,4.85,1V7.12l-15.14,4.67a.67.67,0,0,0-.46.61c-.16,2.95.79,3.73-1.62,4.71-3.27,1.33-6.46,3-9.67,4.43l-16.7,7.64c-.73.33-.09,1.41.64,1.07l28-12.83a.6.6,0,0,0,.31-.54,20.67,20.67,0,0,0,.15-2.72l.09-1.52c-.46.33-.51.41-.15.27.9-.81,3.38-1.05,4.49-1.39l10.35-3.19a.63.63,0,0,0,0-1.21c-3.45-1.19-4.2-1.26-7.58-.5l-15.67,3.54L869,16.25a.63.63,0,0,0-.38.92L875,30C875.38,30.75,876.46,30.12,876.1,29.4Z"/><path class="cls-4" d="M130.21,279.59l-1.67.93a5.56,5.56,0,0,1-.79-4.36,8.28,8.28,0,0,1,1.88-4.2c1.93-2.51,4.78-3.81,7.67-4.91,3.64-1.38,7.43-2.4,10.49-4.93,1.71-1.4,4.45-4.4,4-6.92a2.44,2.44,0,0,0-3.33-2c-2.28.75-2.54,3.64-1.71,5.49,1.05,2.35,3.53,3.27,6,3.19,3-.1,6.43-1.54,8-4.2,1-1.7,1.21-3.68,1.8-5.53,1.14-3.61,7.15-12.76,10.92-5.49l2.16-1.26c-2.4-3.56-8.23-4.23-10.38.06-4.92,9.79,14,13.45,10,23.86-1.24,3.19-1.62,2.93-5.16,2.64l-3.36-.28q2.29-7.16,7.44-3.55c1.48.77,2.68,2,4.25,2.64,2.78,1.14,5.69,1,7.67-1.46,2.1-2.67,1.46-6.08,2.37-9.12,1.33-4.42,7-5.41,9-9.8,1.78-3.9,1.25-12.33-5-8.9-7,3.84-5,13.78-2.94,19.76,1.82,5.34,6.27,9.69,11.83,5.34,2.93-2.29,4-6.12,5-9.5,1.66-5.34,2.81-14.38,7.23-18.17,5.42-4.66,9.35,1.52,10.69,6.08a34.23,34.23,0,0,0,1.84,5.68c1.27,2.54,3.38,5,6.46,5,8.76-.21,8.31-14,13.12-18.61,1.16-1.11-.61-2.88-1.77-1.77-4.41,4.21-3.64,10.8-7.38,15.15-6.22,7.25-9-3.55-10.24-7.45-.81-2.51-2-5.12-4.11-6.78-4.4-3.4-9.95-.61-12.52,3.63-1.87,3.1-2.71,6.81-3.77,10.24-1.41,4.57-2.4,12.21-6.77,14.75-6.55,3.8-9.28-9.54-9.13-13.66.08-2.2,1.84-9.17,4.83-6.7,2.55,2.09.09,6.08-2,8s-4.67,2.4-6.05,5a11.67,11.67,0,0,0-1,3.33c-.1.54-.13,1.09-.2,1.63-.48,3.49.07,3.34-4.1,4.4-4.69,1.2-3.7.06-7.43-1.59a8.5,8.5,0,0,0-2.67-.73,7.06,7.06,0,0,0-5.78,2.14c-2.54,2.77-1.8,7.7,1.69,9.31,5.53,2.55,10.53-3.77,11-8.66a11.11,11.11,0,0,0-2-7.47c-1.47-2.12-3.49-3.63-5.38-5.35a16.27,16.27,0,0,1-1.84-1.78q-3.21-2.62-.82-5.45.86-4.59,5.2-.58a1.25,1.25,0,0,0,2.16-1.26c-3.77-7.26-12-2.53-14.46,3.13-1.34,3-1.42,5.4-3.73,8a4.08,4.08,0,0,1-3.43,2.63l-4.72-3.09c1.33-.19-3.19,4.24-3.61,4.56-4.38,3.24-10.13,3.68-14.63,6.73-5.07,3.43-8.95,12.22-2.56,16.57,1.73,1.18,4.6,1.62,5.93-.44,1.61-2.52-1-4.78-2.85-6.07-1.31-.93-2.56,1.23-1.26,2.16Z"/><path class="cls-4" d="M219.83,252.08l10-19.75c.72-1.44-1.44-2.7-2.16-1.26l-10,19.75c-.72,1.43,1.43,2.7,2.16,1.26Z"/><path class="cls-4" d="M254.24,213a196.35,196.35,0,0,0-.71,28.59,1.26,1.26,0,0,0,2.33.63,51.58,51.58,0,0,0,7.55-13.79c.49-1.34-1.63-2.21-2.29-1l-7,13.22a1.25,1.25,0,0,0,2.15,1.27c.62-1,2.48-4.54,3.7-4.82l2.69,1.15-.29,1.13c.27,1.41-.65,2.61.18,4.07,1.3,2.3,4.15,2.06,6.1.73,2.76-1.87,3.67-5.43,4.32-8.49,1.25-5.92,2.07-11.95,2.84-17.95h-2.5c.49,4.28,1.24,29,10.5,21.34,3.68-3.05,3.33-9.25,3.63-13.48l1.71-24.79h-2.5A135.8,135.8,0,0,0,288,229.73c.71,4.52,1.54,8.89,6.93,6.15,13.26-6.75,12.46-28.36,12.93-40.67.06-1.38-2.24-1.75-2.45-.34a103.12,103.12,0,0,0-1.05,22.27c.29,4.3-.06,11.71,4.94,13.55,3.49,1.3,7.09-.66,9.25-3.37,1.76-2.21,2.66-4.91,3.9-7.41,1.95-3.95,4.94-5.64,8.47-8,2.87-1.88,5.87-5.36,4.6-9.11-1.16-3.45-5.21-4.06-8-2.21-5.95,3.9-6.09,17.93.82,21,14.09,6.17,18.76-18,18.9-26.66a1.25,1.25,0,0,0-2.5,0l-.41,15.44a1.25,1.25,0,0,0,2.45.33c1-3.61,2-7.23,3.2-10.78q.94-2.78,2.11-5.47c.53-1.2,1.82-5.32,3.05-6,2.92-1.51,1.86,2.39,1.7,3.8l-.78,6.52c-.37,3.16-1,6.44-.6,9.63.46,3.34,2.3,6.7,6.06,6.85,4.53.18,7.6-4.23,9-8,2.61-7,2-16,8.43-21.12l1.74-1c2.07-1.94,4.05-1.32,6,1.83a9.81,9.81,0,0,0,1.83-.46,38.77,38.77,0,0,0,4.63-1.18,51.33,51.33,0,0,0,8.5-3.07c4.37-2.1,9.85-5.7,10.87-10.85a7.91,7.91,0,0,0-6-9.2c-3.26-.69-7.48,1.21-7.07,5.11s4.88,4.45,6.88,1.46c.89-1.35-1.27-2.6-2.16-1.27l1.67-1.15q2.26-2.8,3,1.19c1.33,2.28,1.64,3.19.34,5.57a15.65,15.65,0,0,1-4.72,4.66,37.22,37.22,0,0,1-10.44,4.7c-3,.91-10.21,1.06-11.28,5-.76,2.8,2,4.38,4.34,3.34,2.54-1.13,3-4.73,1.56-6.87-2.36-3.39-7.13-2.71-10.07-.61-4.77,3.4-7.23,9.32-8.41,14.85-.7,3.28-1.09,6.7-2.61,9.72-.44.88-1.26,2.75-2.19,3.25h-3.24c-2.09,1-3.28.69-3.59-.92-.87-1.54-.71-3.81-.6-5.53.22-3.51.81-7,1.23-10.53.29-2.47,1.43-6,.35-8.44-2-4.47-5.54-.1-6.92,2.26-4,6.82-6.1,14.51-8.18,22.07l2.46.33.41-15.44h-2.5c-.11,6.73-3,27.94-14.39,24.72-5.5-1.56-5.07-9-3.76-13.22q.95-5.37,6,.56a8.28,8.28,0,0,1-3.56,3.22c-1.36.86-2.84,1.52-4.13,2.51a17,17,0,0,0-4.89,6.56c-.69,1.48-1.26,3-2.08,4.45a12.86,12.86,0,0,1-2.25,3.1q-2.71,3.18-5.3-.1c-2.48-.66-3.51-2.27-3.07-4.83-.14-1.27-.27-2.54-.36-3.81q-.26-3.33-.28-6.69a101.46,101.46,0,0,1,1.17-15.86l-2.46-.33c-.42,11.08.26,26.51-7.71,35.36a10.42,10.42,0,0,1-2.8,2.47,1.66,1.66,0,0,1-2.48.24c-1.39-.06-1.94-.83-1.65-2.33-1.11-3-1-6.88-1.32-10.09a135.41,135.41,0,0,1-.27-20c.09-1.61-2.39-1.6-2.5,0-.62,8.9-1.21,17.8-1.85,26.7-.12,1.74,0,4-.6,5.7q-.4,3.65-5.37,2.74c-.27-1.23-.53-2.45-.78-3.68-.95-4.81-1.68-9.66-2.24-14.53a1.25,1.25,0,0,0-2.5,0,177.59,177.59,0,0,1-2.89,17.91,17.52,17.52,0,0,1-1.22,4L268,241.44l-3.25-1.39c-.35-.88.72-2.92.43-4.13-1.87-7.85-9.43,2.1-11.09,4.74l2.15,1.27,7-13.22-2.28-1a49.25,49.25,0,0,1-7.3,13.2l2.33.63a196.35,196.35,0,0,1,.71-28.59c.15-1.6-2.35-1.59-2.5,0Z"/><path class="cls-4" d="M328.53,185.86c-3.6,7.18-11.52,8.82-18.68,10.57l-20.07,4.89c-6.14,1.49-12.47,2.69-18.49,4.67-3.86,1.27-8.55,3.15-11,6.63-3.69,5.3,3.82,9.2,4.76,4.55.52-2.59-2.53-3.52-4.55-2.92-3.85,1.15-6,6.47-7.06,9.86-.49,1.54,1.92,2.19,2.41.66,3.22-10.22,10.93-15.16,20.62-17.64,7.17-1.84,14.39-3.51,21.58-5.27,10.75-2.61,27-3.53,32.6-14.74.72-1.44-1.44-2.7-2.16-1.26Z"/><path class="cls-4" d="M275.12,209.07a3.51,3.51,0,0,1-1,.69,3.1,3.1,0,0,0-1,1,2,2,0,0,0,.75,2.87,3.06,3.06,0,0,0,3.15-.7,4.61,4.61,0,0,0,1.58-2.46,1.26,1.26,0,0,0-2.42-.66,2.07,2.07,0,0,1-.53,1,4.81,4.81,0,0,1-.81.53c0-.09,1,.7.45.67,0,0,.38-.25.45-.28a4.1,4.1,0,0,0,1.23-.91,1.29,1.29,0,0,0,0-1.77,1.27,1.27,0,0,0-1.77,0Z"/><path class="cls-4" d="M428.8,142.47l5,7.59c.88,1.34,3,.08,2.16-1.26l-5-7.59c-.89-1.34-3-.09-2.16,1.26Z"/><path class="cls-4" d="M430.13,146.35a25.37,25.37,0,0,1-11.53,4.82c-1.59.25-.92,2.66.66,2.42a27.13,27.13,0,0,0,12.14-5.08c1.27-.95,0-3.12-1.27-2.16Z"/><path class="cls-4" d="M431,155.64c1.73,0,2.4,1.36,2.46,2.81.06,1.65-1.1,2.24-2.39,2.87-1.91.93-3.85,1.79-5.82,2.6l1,2.29a24.14,24.14,0,0,1,10.13-3.31v-2.5a16.64,16.64,0,0,1-3.14.26l1.08.62c.39.6,1.2-2.46,1.23-2.74a5.05,5.05,0,0,0-.81-3.25,5.72,5.72,0,0,0-6.15-1.9c-2.1.54-4.88,2.16-5.42,4.44-.61,2.58,2.16,5.27,3.8,6.86,1.15,1.12,2.92-.64,1.77-1.77-2-1.94-4.44-4.75-.8-6.61,2.88-1.47,6.29.14,4.55,3.6-.45.88-1.06,1.68-.33,2.63.93,1.2,3,.49,4.22.36,1.58-.16,1.61-2.65,0-2.5a27.31,27.31,0,0,0-11.39,3.65c-1.18.69-.39,2.84,1,2.28,2.16-.89,4.3-1.83,6.41-2.85,1.77-.86,3.15-1.57,3.52-3.65.57-3.26-1.27-6.74-4.85-6.69a1.25,1.25,0,0,0,0,2.5Z"/><path class="cls-4" d="M429.4,170.05l9-3.28-.67-2.41a43.6,43.6,0,0,1-10.6,2.78l.34,2.46c2.75-.75,9-3.12,10.67.35.68,1.46,2.84.19,2.16-1.26-2.33-5-9.56-2.58-13.5-1.5-1.31.35-1.1,2.64.33,2.45a46.19,46.19,0,0,0,11.27-2.87c1.46-.58.86-3-.67-2.41l-9,3.28c-1.5.55-.85,3,.66,2.41Z"/><path class="cls-4" d="M430.49,180.16c5.13.27,9.45-2.61,14.2-4,1.54-.46.89-2.88-.66-2.41-4.51,1.35-8.69,4.21-13.54,3.95-1.61-.09-1.6,2.41,0,2.5Z"/><path class="cls-4" d="M438.57,172.43a17.16,17.16,0,0,0,.67,6.94c.47,1.53,2.88.88,2.41-.67a15.28,15.28,0,0,1-.58-6.27c.17-1.6-2.33-1.58-2.5,0Z"/><path class="cls-4" d="M435.18,184.9l3.74,5.66c.74,1.14,1.32,2.48,2.74,2.75a1.24,1.24,0,0,0,1.22-.32c4.19-5.09,1.73-14.08-5.89-11.54-2.74.91-6,2.82-6.75,5.84-.86,3.48,2.18,5.6,4.92,6.87,1.45.67,2.72-1.48,1.26-2.16s-4.17-1.79-3.77-4c.33-1.81,2.44-3,4-3.66,2-.93,4.79-1.53,5.73,1.11a7,7,0,0,1-1.22,5.82l1.22-.33c-.81-.15-2.19-3-2.59-3.62l-2.4-3.64c-.88-1.34-3-.09-2.16,1.26Z"/></g></g></svg>