<svg xmlns="http://www.w3.org/2000/svg" viewBox="0 0 194.84 218.83"><defs><style>.cls-1{fill:#da9b38;}.cls-2{fill:#38301f;}.cls-3{fill:#f6bc3c;}.cls-4{fill:#723a29;}</style></defs><title>gold</title><g id="Layer_2" data-name="Layer 2"><g id="thors_hammer" data-name="thors hammer"><path class="cls-1" d="M45,171.78a408.34,408.34,0,0,0,9.6,45.27,128.73,128.73,0,0,1,81-2.11,2.48,2.48,0,0,0,3.79-1.5c11.61-24.67,33.76-42.36,53.33-61.36a1.54,1.54,0,0,0,.59-1,1.6,1.6,0,0,0-.39-.88l-24-32.54c-4.19,3-6.74,7.67-9.83,11.78a49.3,49.3,0,0,1-15.13,13.25c-2.76,1.56-6.24,2.84-9,1.24a10.16,10.16,0,0,1-3.06-3.35l-20.51-30.74c-2.7-4-5.49-8.36-5.72-13.22-.11-2.36.39-4.74.07-7.08-.7-4.93-4.81-8.52-8.15-12.22s-6.22-9-4-13.45c1-2,3-3.49,3.89-5.56,1.77-4-.69-8.44-3.07-12.07L83.92,30.2a7.92,7.92,0,0,0-3-3.1,7.31,7.31,0,0,0-2.75-.52,50.23,50.23,0,0,0-22.46,4.14c-6,2.6-12,7.29-12.36,13.78-1.72-1.19-4.24.39-4.77,2.42S39.07,51,39.7,53c2.94,9.26,6.53,21.58,8.83,23.9,1.61,1.64,2.38,3.21,4.09,4.15,1.44.79,3.21.7,4.76,1.25,4.3,1.52,5.43,7.08,5.1,11.63s-1.34,9.51,1.07,13.38c1.86,3,5.31,4.52,7.93,6.87,4.43,4,6.25,10,7.66,15.8A241.75,241.75,0,0,1,85,165a3.2,3.2,0,0,1-2.69,4.18,75.54,75.54,0,0,1-37.48,2.41"/><path class="cls-2" d="M43.29,172.25a426,426,0,0,0,9.6,45.27,1.78,1.78,0,0,0,2.17,1.23,129.06,129.06,0,0,1,46.11-7.54,126.66,126.66,0,0,1,23.52,2.73c3.5.75,6.91,1.93,10.4,2.7,1.78.39,3.23.52,4.69-.73,1.76-1.5,2.58-4.66,3.68-6.66A101.54,101.54,0,0,1,149,200.3a146.94,146.94,0,0,1,14.15-17.23c9.41-10,19.88-18.92,29.6-28.61,1.55-1.54,2.63-2.54,1.84-4.69-1.33-3.62-5.31-7.38-7.61-10.51L170.42,116.8a1.81,1.81,0,0,0-2.77-.36c-5.89,4.58-9,11.63-14.24,16.87a44.93,44.93,0,0,1-9.63,7.46c-2.65,1.48-5.92,3.25-8.77,1-1.76-1.38-3.06-4.26-4.3-6.12L115.6,113a98.86,98.86,0,0,1-6.12-9.62c-2.51-4.93-1.27-9-2-14.07-1-6.59-6.69-10.17-10.26-15.27a11,11,0,0,1-2.42-6.69c.09-2.52,1.38-3.91,2.76-5.89,1.72-2.47,2.61-4.64,2.15-7.76-1-7.06-7.3-13.79-11.09-19.59-1.62-2.47-3.11-5.67-5.4-7.61s-5-1.76-7.64-1.75c-12.44.08-32,4.9-33.93,19.73l2.23-1.7c-5-1.81-7.8,3.29-6.82,7.63A153.8,153.8,0,0,0,44,71.8c1.59,4.1,4,8.89,8.12,10.92,2.67,1.31,5.36.59,7.23,3.47,1.19,1.84,1.39,4.34,1.39,6.46,0,3.58-.91,7.11-.37,10.69,1.18,7.91,8.93,9.54,12.81,15.66,4.52,7.14,5.66,17,7.16,25.15q1.39,7.59,2.29,15.26c.29,2.54,1.5,6.08-.82,8.07-1.22,1.05-4.51,1.33-6.08,1.71a75.14,75.14,0,0,1-30.46.7c-2.21-.4-3.17,3-.94,3.39a79.75,79.75,0,0,0,24.33.74c4.66-.6,9.7-1.38,14.09-3.15,2-.82,3.45-1.7,4-4,.77-3.43-.63-8.25-1.09-11.69q-.86-6.49-2.06-12.93c-1.48-7.89-2.75-16.64-6.6-23.8a21.71,21.71,0,0,0-5.79-6.82c-4.61-3.67-7.68-6-7.41-12.37.24-5.56,1.64-12.17-2.72-16.65-2.66-2.73-6.45-2.14-9.29-4.69-2.32-2.09-3.49-4.86-4.58-7.71-1.32-3.42-2.4-6.94-3.51-10.43-.62-2-1.22-3.94-1.85-5.9-.21-.67-3.48-9.39,1.07-7.73,1.2.43,2.1-.67,2.23-1.7C46.2,36.1,55.72,32,62.89,30.05a48.77,48.77,0,0,1,12.66-1.76c6.11,0,8.63,5.52,11.57,10,2.08,3.18,4.23,6.31,6.22,9.54,1.33,2.14,3.07,4.83,3,7.43s-2.06,4.35-3.41,6.39C90,66.05,91,71,93.73,75.19a57.22,57.22,0,0,0,5.71,6.73c3.34,3.78,4.69,7,4.52,12.06-.24,7.26,3.07,12.52,7,18.39q7,10.51,14,21c2.78,4.18,5.88,11.83,11.4,12.88,6.53,1.25,13.94-5.2,18.3-9.3,5.81-5.47,9.17-13.16,15.46-18l-2.76-.36,17.12,23.24,4.56,6.2,2.29,3.1a15,15,0,0,0-2.28,2c-2.84,2.58-5.58,5.28-8.38,7.9-11.86,11.11-23.81,22.29-33.34,35.53a107.27,107.27,0,0,0-6.54,10.22c-.75,1.33-1.81,4.94-3,5.8-1.9,1.38-4.15,0-6.11-.54a129.3,129.3,0,0,0-25.18-4.09,131.45,131.45,0,0,0-52.42,7.43l2.17,1.23a426.71,426.71,0,0,1-9.6-45.28c-.35-2.23-3.75-1.28-3.4.94Z"/><path class="cls-3" d="M60.14,206.05a29,29,0,0,1,6.51-2.9c2.09-.73,5.5-2.06,7.62-1,1,.49,1.91-1,.89-1.52-2.27-1.1-5.15-.32-7.47.36a31.69,31.69,0,0,0-8.43,3.57c-.94.62-.06,2.15.88,1.52Z"/><path class="cls-3" d="M56.62,189.71c1.41-2.47,6.86-1.52,9.16-1.26,1.12.13,1.11-1.63,0-1.76-3.11-.35-8.78-1.19-10.68,2.13a.88.88,0,0,0,1.52.89Z"/><path class="cls-3" d="M70.63,183.35c3.45-2.16,7.8-1.46,9.11,2.75a16.33,16.33,0,0,1,.37,9.41c-.34,1.09,1.36,1.55,1.7.47,1.18-3.75.83-10.06-1.81-13.21s-7-3-10.26-.94c-.95.6-.07,2.12.89,1.52Z"/><path class="cls-3" d="M70.08,185.1a2.18,2.18,0,0,0,2.07.47,5.89,5.89,0,0,1,3.63.36c1,.47,1.92-1.05.89-1.52a7.62,7.62,0,0,0-2.8-.75,7,7,0,0,0-1.44.07c-.22,0-.94.29-1.1.12-.81-.79-2.06.45-1.25,1.25Z"/><path class="cls-3" d="M85.77,184.43a3.86,3.86,0,0,1,4.43-.55c1,.53,1.89-1,.89-1.52a5.68,5.68,0,0,0-6.56.82c-.84.76.41,2,1.24,1.25Z"/><path class="cls-3" d="M88.11,204.22a6.6,6.6,0,0,0,7.48.29c2.25-1.6,1.47-5,.17-7-.62-.94-2.14-.06-1.52.89,1,1.53,1.76,4.19-.45,5A5,5,0,0,1,89,202.7c-.92-.67-1.8.86-.89,1.52Z"/><path class="cls-3" d="M87.35,209.43c1.44-1.65,5.86-1.34,7.59-1.34,2.64,0,5.12-.68,7.8-.36,1.12.13,1.11-1.63,0-1.76a19.78,19.78,0,0,0-4.55,0c-1.92.2-3.83-.08-5.72.13s-5.15.71-6.37,2.12c-.73.85.51,2.1,1.25,1.24Z"/><path class="cls-3" d="M94,184l-.47.37a.91.91,0,0,0-.32,1.2c.8,1.82,1.55,3.68,2.4,5.48a22.53,22.53,0,0,0,2.83,4.15c.7.89,1.93-.36,1.24-1.24-2.25-2.87-3.49-5.95-5-9.28l-.32,1.21.48-.37c.89-.68,0-2.21-.89-1.52Z"/><path class="cls-3" d="M99.09,183.78a5.61,5.61,0,0,1,3,2.44c.71,1.12,1.4,2.26,2.1,3.39.59,1,2.12.08,1.52-.89-.89-1.43-1.7-2.95-2.71-4.3a7.32,7.32,0,0,0-3.44-2.34c-1.06-.42-1.51,1.28-.47,1.7Z"/><path class="cls-3" d="M114.57,186.11c-3.55,4.37-2.38,12.47-1.6,17.62.17,1.12,1.86.64,1.7-.47-.64-4.23-1.76-12.33,1.15-15.91.71-.87-.53-2.12-1.25-1.24Z"/><path class="cls-3" d="M118.74,180.42c2.6-2.82,8.82-4.08,12.26-2.59,1,.45,1.93-1.07.89-1.52-4.3-1.86-11.15-.65-14.39,2.87-.77.83.47,2.07,1.24,1.24Z"/><path class="cls-3" d="M137.78,180.72c8.07.12,9.5,11.26,7.66,17.1-.34,1.09,1.36,1.55,1.7.47,2.22-7.08-.13-19.19-9.36-19.33a.88.88,0,0,0,0,1.76Z"/><path class="cls-3" d="M129.28,192.19c.31,3.75-1.29,7.72-3,11-.53,1,1,1.89,1.52.89,1.87-3.53,3.59-7.79,3.25-11.86-.09-1.12-1.86-1.13-1.76,0Z"/><path class="cls-3" d="M128.71,186.6c1-.06,1.91,1.07,2.69,1.55s1.94.9,2.84,1.5c1.83,1.23,4.12,3,4.74,5.2a.88.88,0,0,0,1.69-.47c-.72-2.54-2.93-4.32-5-5.84-1.4-1-3-1.68-4.43-2.69a3.64,3.64,0,0,0-2.55-1c-1.12.08-1.13,1.84,0,1.76Z"/><path class="cls-3" d="M122.35,197.14c-1.38,5.76-.6,11.83,5.94,13.7,4.78,1.37,11-.83,12.18-6,.26-1.1-1.44-1.57-1.7-.47-1,4.26-6.14,5.87-10,4.78-5.58-1.59-5.86-6.76-4.72-11.54.27-1.1-1.43-1.57-1.69-.47Z"/><path class="cls-3" d="M120,193a27,27,0,0,1,7.19,3.67c.93.66,1.81-.86.89-1.52a28.54,28.54,0,0,0-7.61-3.85c-1.08-.36-1.54,1.34-.47,1.7Z"/><path class="cls-3" d="M123.42,188.7q1.31-3.25,2.82-6.4c.49-1-1-1.91-1.52-.89-1.07,2.24-2.07,4.52-3,6.82-.42,1.05,1.28,1.51,1.7.47Z"/><path class="cls-3" d="M106.79,175.05c1.51,1.53,3.76,1.91,5.48,3.18,2.54,1.87,5.39,3.26,7.66,5.47.81.8,2.06-.45,1.24-1.24a43.79,43.79,0,0,0-6.57-4.73c-.94-.63-1.8-1.41-2.77-2-1.24-.74-2.75-.89-3.79-1.94a.88.88,0,0,0-1.25,1.24Z"/><path class="cls-3" d="M128.7,151.5l1.76.41,1-.65c1.2-.31,2.22-1.1,3.66-.65,2.54.79,4.38,3.57,4.75,6,.58,3.72-.81,7.48-1,11.21-.06,1.13,1.7,1.12,1.76,0,.3-5.55,3.21-12.52-1.78-16.9-3.41-3-7.85-3.48-10.7.82a.88.88,0,0,0,.13,1.06l.14.15a.92.92,0,0,0,1.07.14l.15-.08c1-.48.13-2-.89-1.52Z"/><path class="cls-3" d="M147,162.32l.1-1.11c.09-1-1.43-1.12-1.73-.23a13.08,13.08,0,0,0-.72,5.85c.24,2.18,1.57,4.16,1.42,6.35-.08,1.13,1.68,1.13,1.76,0,.12-1.83-.71-3.25-1.14-5a11.56,11.56,0,0,1,.38-6.76l-1.73-.23-.1,1.11c-.09,1.12,1.67,1.12,1.76,0Z"/><path class="cls-3" d="M139.68,171.85c.37,2.76,2,5.36,3.15,7.87.47,1,2,.13,1.52-.89-1-2.16-2.59-4.61-2.91-7-.15-1.11-1.91-1.13-1.76,0Z"/><path class="cls-3" d="M148.21,154.27a4.91,4.91,0,0,0-3.25,4.67.88.88,0,0,0,1.76,0,3.1,3.1,0,0,1,2-3c1-.4.59-2.1-.47-1.7Z"/><path class="cls-3" d="M159.88,141.74c-2.2,0-4.4.5-5.69,2.43s-1.2,4.48-.69,6.74c.25,1.1,1.95.64,1.7-.47a7,7,0,0,1,.25-5c.93-1.67,2.68-2,4.43-2a.88.88,0,0,0,0-1.76Z"/><path class="cls-3" d="M162.3,144.48a.88.88,0,0,0,0-1.76.88.88,0,0,0,0,1.76Z"/><path class="cls-3" d="M161.69,142.83a11.53,11.53,0,0,0-3.52,4c-.52,1,1,1.9,1.52.89a9.74,9.74,0,0,1,2.89-3.42c.91-.66,0-2.19-.89-1.52Z"/><path class="cls-3" d="M168.06,139.85c0,.38.13.5.33.37a2.75,2.75,0,0,0,.38-.2,2.86,2.86,0,0,0,.41-.3,6.15,6.15,0,0,0,1-1.13c.64-.88,1.17-1.94,2.35-2.1s.64-1.85-.47-1.7c-1.85.25-2.53,2-3.63,3.19-.52.59-1.39.73-1.83,1.37a1.33,1.33,0,0,0,.19,1.75c.83.76,2.07-.48,1.24-1.25Z"/><path class="cls-3" d="M153.21,165.47c-2.07,4.18-.34,12.37,5.71,11.63,1.11-.14,1.12-1.9,0-1.76-4.66.57-5.73-5.89-4.19-9,.5-1-1-1.91-1.52-.89Z"/><path class="cls-3" d="M171.57,158.45l-.54-.1.62,1.09c.85-5.84,6.46-9.19,11.33-11.63,1-.5.12-2-.89-1.52-5.27,2.64-11.22,6.38-12.14,12.68a.9.9,0,0,0,.61,1.08l.54.09c1.11.2,1.58-1.5.47-1.69Z"/><path class="cls-3" d="M163.75,164.75c1.89,1.51,4.28,3.16,6.77,2.41a18.43,18.43,0,0,0,7.39-4.88c.79-.81-.45-2.06-1.25-1.25a18.8,18.8,0,0,1-4.66,3.55,4.44,4.44,0,0,1-3.38.76,7.9,7.9,0,0,1-3.62-1.83c-.88-.7-2.13.54-1.25,1.24Z"/><path class="cls-3" d="M96.11,167.26c-2.06,1-4.29,2.55-4.26,5.11,0,2.71,2.59,4.19,4.76,5.15,1,.45,1.93-1.06.89-1.52-1.53-.68-3.84-1.62-3.89-3.63s1.94-2.9,3.39-3.59c1-.48.13-2-.89-1.52Z"/><path class="cls-3" d="M106.31,156.18c1.43-1.42,6.34,6.35,6.85,7.24a17.41,17.41,0,0,1,2.67,9.89c-.06,1.13,1.7,1.13,1.76,0,.29-5.48-2.23-10.31-5.45-14.59-1.26-1.68-4.69-6.16-7.07-3.78a.88.88,0,0,0,1.24,1.24Z"/><path class="cls-3" d="M117.14,141.32c-1.31.68-1.49,8.13-1.73,10.15a32.83,32.83,0,0,0,.07,8.69c.16,1.12,1.85.65,1.69-.46-.87-6,1.17-11.54,1.3-17.45,0-1.5-.31-3.43-2.22-2.45-1,.53-.12,2,.89,1.52Z"/><path class="cls-3" d="M122.77,150.2c5.12,5.81,5.27,14.45,2.22,21.25-.46,1,1.05,1.92,1.52.89,3.39-7.57,3.19-16.93-2.5-23.38-.75-.85-2,.4-1.24,1.24Z"/><path class="cls-3" d="M89.49,150.7c2.13,4.41.51,9.49,4.51,13.06,3,2.69,7.42,4.85,11.26,2.68a.88.88,0,0,0-.89-1.52c-4.52,2.56-10.69-2.56-11.61-6.87-.61-2.83-.46-5.56-1.75-8.24-.49-1-2-.13-1.52.89Z"/><path class="cls-3" d="M111.44,129.78l-.12.11a.89.89,0,0,0-.13,1.06c.48.85,1.24.81,2.14,1.15,2.36.89,3.71,2.4,5.37,4.18,2.93,3.12,5.5,6.44,6.76,10.58a.88.88,0,0,0,1.69-.47,26.53,26.53,0,0,0-5.82-9.84,44.24,44.24,0,0,0-4.17-4.38,8.8,8.8,0,0,0-1.68-1.22c-.51-.26-2.51-.42-2.77-.89l-.14,1.07.11-.1c.85-.76-.4-2-1.24-1.25Z"/><path class="cls-3" d="M100.33,161c.54-3,1-6.09,1.66-9.08.57-2.48,1.58-4.78,1.78-7.33.08-1.13-1.68-1.13-1.76,0-.21,2.72-1.41,5.28-1.94,7.95s-1,5.33-1.43,8c-.2,1.11,1.49,1.58,1.69.47Z"/><path class="cls-3" d="M107.53,133.84a27.25,27.25,0,0,1,3.85-10.31c.61-1-.91-1.85-1.52-.89a28.34,28.34,0,0,0-4,10.73c-.18,1.11,1.52,1.58,1.69.47Z"/><path class="cls-3" d="M100.77,116.82c2.67,1.89,5.66,1.36,8.53,2.81,3.69,1.85,6.14,5.29,8.25,8.71.59,1,2.12.08,1.52-.89-1.91-3.09-4-6.15-7.08-8.26-3.19-2.21-7.32-1.76-10.33-3.89-.93-.66-1.81.87-.89,1.52Z"/><path class="cls-3" d="M106.51,128.71c-3.45-2.92-7.18-6.27-9.37-10.29-1.15-2.11-2.39-6.14-1-8.49,1.7-2.86,7.19-1.85,8.77.7.6,1,2.12.08,1.52-.89-1.51-2.43-5.68-3.88-8.45-3.85-2.41,0-3.11,2-3.7,4.23-2.15,8.21,5.38,15.09,11,19.83.86.73,2.11-.51,1.24-1.24Z"/><path class="cls-3" d="M89.79,133.46c-3.11-2.09-6.92-6.41-7.36-10.31a12.4,12.4,0,0,1,1.26-6q.27-3,3.82-3.37a20.43,20.43,0,0,1,3.3,1.67A.88.88,0,0,0,91.7,114c-1.91-1.11-5.56-3.38-7.81-1.8-1.85,1.31-2.27,5.71-2.82,7.74-.88,3.23-.68,4.22,1,7.1a22.15,22.15,0,0,0,6.89,8c.94.63,1.82-.89.88-1.52Z"/><path class="cls-3" d="M88,124.82a19.74,19.74,0,0,1,7.53-4.52c1.07-.35.61-2-.47-1.69a21.67,21.67,0,0,0-8.3,5c-.82.78.43,2,1.24,1.24Z"/><path class="cls-3" d="M84.14,135.7c0,2.62,1.7,4.72,2.65,7.08a19.87,19.87,0,0,0,3.83,6.32c.77.84,2-.41,1.24-1.24a19.28,19.28,0,0,1-3.63-6.24c-.79-2-2.35-3.74-2.33-5.92a.88.88,0,0,0-1.76,0Z"/><path class="cls-3" d="M94.39,127.7,92,142.41c-.19,1.11,1.51,1.59,1.69.47l2.43-14.72c.18-1.1-1.52-1.58-1.7-.46Z"/><path class="cls-3" d="M98.38,136.76c5.27,3.06,11.25,4.58,16.46,7.76,1,.59,1.85-.93.88-1.52-5.2-3.18-11.18-4.7-16.45-7.76a.88.88,0,0,0-.89,1.52Z"/><path class="cls-3" d="M52.38,41.37a8.68,8.68,0,0,0-3.91,4.28c-.8,1.85.32,4.11,1.27,5.7a.88.88,0,0,0,1.52-.89c-.91-1.52-1.71-3.07-.79-4.74a6.31,6.31,0,0,1,2.79-2.83c1-.48.14-2-.88-1.52Z"/><path class="cls-3" d="M57.19,43.06c-.56-1.33-1.48-3.19-.92-4.67.83-2.2,4.27-2.15,6.06-1.82,3,.55,5.15,2.76,6.58,5.28A.88.88,0,0,0,70.43,41C68,36.64,64,34.26,58.93,34.76s-5,4.94-3.44,8.77c.43,1,2.13.58,1.7-.47Z"/><path class="cls-3" d="M60.38,44.81l-.09-1.17-1.5.62L60.9,46a.92.92,0,0,0,1.25,0,.89.89,0,0,0,0-1.25L60,43c-.53-.43-1.56-.21-1.5.63l.09,1.17c.09,1.12,1.85,1.13,1.76,0Z"/><path class="cls-3" d="M68.15,46.78l-.27-.2-1,1.29a43.56,43.56,0,0,1,4.37,1.66c1,.45,1.93-1.06.89-1.52a46.27,46.27,0,0,0-4.79-1.83.89.89,0,0,0-1,1.29,1.84,1.84,0,0,0,.91.83c1,.45,1.92-1.07.88-1.52Z"/><path class="cls-3" d="M65.74,39.54a1.72,1.72,0,0,0-1.18,1,31.41,31.41,0,0,1-1.27,2.94,10.9,10.9,0,0,0-1.84,5.34c-.06,1.13,1.7,1.13,1.76,0a9.12,9.12,0,0,1,1.6-4.46,11.36,11.36,0,0,0,.86-1.57c.09-.21.33-1.5.54-1.56,1.08-.33.62-2-.47-1.7Z"/><path class="cls-3" d="M70.52,38.67c7.15-1.09,4.62,12.06,4.08,15.45-.17,1.11,1.52,1.59,1.7.47.85-5.32,3.1-19-6.25-17.62-1.11.17-.64,1.87.47,1.7Z"/><path class="cls-3" d="M77,40.48c1.63,1.77,3.41,3.57,4,5.92s.54,5.14.72,7.6c.09,1.12,1.85,1.13,1.76,0-.2-2.77,0-6.12-.86-8.77-.77-2.24-2.84-4.3-4.41-6-.77-.83-2,.42-1.24,1.25Z"/><path class="cls-3" d="M77.34,52.87A30,30,0,0,1,90,64.07a.88.88,0,0,0,1.52-.89A31.66,31.66,0,0,0,78.23,51.35c-1-.5-1.91,1-.89,1.52Z"/><path class="cls-3" d="M78,57.73a21,21,0,0,0-1.75,6.46c-.12,1.12,1.64,1.11,1.76,0a18.34,18.34,0,0,1,1.51-5.58c.45-1-1.06-1.92-1.52-.88Z"/><path class="cls-3" d="M70.87,57.1A28.45,28.45,0,0,1,76,59.66c1,.6,1.85-.92.89-1.52a30.62,30.62,0,0,0-5.5-2.73c-1.06-.4-1.52,1.3-.47,1.69Z"/><path class="cls-3" d="M67.72,51.17c-1.32.13-1.85,1.07-2.36,2.2-.63,1.4-1.21,2.83-1.73,4.28-.39,1.06,1.31,1.52,1.7.46s.72-1.94,1.13-2.9c.21-.48.7-2.23,1.26-2.28,1.12-.12,1.13-1.88,0-1.76Z"/><path class="cls-3" d="M59.68,55.83a18.47,18.47,0,0,0-2.32,4.74c-.35,1.07,1.35,1.54,1.7.46a17.07,17.07,0,0,1,2.14-4.32c.64-.93-.88-1.82-1.52-.88Z"/><path class="cls-3" d="M52.29,52a2.11,2.11,0,0,0-3.79.44c-.93,2.07.65,4.43,1.5,6.26.49,1,2,.13,1.52-.89-.35-.75-.72-1.5-1.05-2.27a6.3,6.3,0,0,1-.4-1.1L50,53.81c-.09-.56.17-.88.79-1A.88.88,0,0,0,52.29,52Z"/><path class="cls-3" d="M56,67.48C54.84,71.37,54.6,78.26,59.25,80c1.06.4,1.52-1.3.46-1.7-3.55-1.34-2.83-7.63-2-10.37a.88.88,0,0,0-1.7-.47Z"/><path class="cls-3" d="M64.1,61l.55-.38-1.29-1a11.25,11.25,0,0,1-1.11,2.6.88.88,0,0,0,1.52.89,13.37,13.37,0,0,0,1.28-3,.89.89,0,0,0-1.29-1l-.55.38c-.93.63-.05,2.16.89,1.52Z"/><path class="cls-3" d="M67.59,72.69l2.59,1.6c1,.6,1.85-.92.88-1.52l-2.58-1.6c-1-.6-1.85.92-.89,1.52Z"/><path class="cls-3" d="M74.21,62.47a19.27,19.27,0,0,1-4.09,6.7c-.78.83.47,2.08,1.24,1.25a21.43,21.43,0,0,0,4.55-7.49c.38-1.06-1.32-1.52-1.7-.46Z"/><path class="cls-3" d="M75.46,66.94a40.44,40.44,0,0,0,8.64,3.9c1.08.35,1.55-1.35.47-1.69a38.37,38.37,0,0,1-8.23-3.73.88.88,0,0,0-.88,1.52Z"/><path class="cls-3" d="M65,63.18a10,10,0,0,0,7,.53A.88.88,0,0,0,71.5,62a8,8,0,0,1-5.61-.35c-1-.46-1.93,1.06-.89,1.52Z"/><path class="cls-3" d="M66.24,77.26c.25,5.34,2.45,8.78,8.19,8.65,6-.13,8.82-3.35,10.77-8.73.39-1.06-1.31-1.52-1.7-.46-1.49,4.11-3.36,7-8.13,7.38a7.72,7.72,0,0,1-4.87-.79c-2.18-1.35-2.39-3.67-2.5-6,0-1.13-1.81-1.14-1.76,0Z"/><path class="cls-3" d="M78.79,75.32c4.58,1.09,12.38-.18,12.94-6,.11-1.13-1.65-1.12-1.76,0-.44,4.54-7.47,5.06-10.71,4.29-1.1-.26-1.57,1.43-.47,1.69Z"/><path class="cls-3" d="M77.31,70.27A45.64,45.64,0,0,1,75,74.84c-.83,1.39-1.73,3.27-3.2,4-1,.53-.12,2,.88,1.52a9.48,9.48,0,0,0,3.17-3.59,43.12,43.12,0,0,0,3-5.66c.45-1-1.07-1.92-1.52-.89Z"/><path class="cls-3" d="M78.64,58.3a29.13,29.13,0,0,1-1.13,4.19c-.37,1.07,1.33,1.54,1.7.47a28.92,28.92,0,0,0,1.13-4.2c.21-1.1-1.48-1.58-1.7-.46Z"/><path class="cls-4" d="M82.3,27.63c4.27-8.73,6.13-16.17,5.3-25.86L99,5.66c-1.5,11.62-4.65,21.55-9.65,32.77"/><path class="cls-2" d="M83.82,28.52c4.1-8.62,6.2-17.17,5.54-26.75l-2.23,1.7L98.49,7.36,97.26,5.2a121.05,121.05,0,0,1-9.48,32.34c-.9,2.05,2.13,3.85,3,1.78a124.34,124.34,0,0,0,9.83-33.19A1.82,1.82,0,0,0,99.42,4L88.07.08a1.77,1.77,0,0,0-2.23,1.69,48.33,48.33,0,0,1-5.06,25c-1,2,2.06,3.83,3,1.78Z"/><path class="cls-4" d="M37.41,50.82c-14.63-4.52-17-4.36-27.75-14.22L1.75,44.5c4.46,2.66,8.91,6.17,13.36,8.82A76.47,76.47,0,0,0,23.8,58c5.57,2.41,11.61,3.46,17.59,4.49"/><path class="cls-2" d="M37.88,49.12c-5-1.52-10.2-2.73-14.93-4.93-4.57-2.13-8.35-5.46-12-8.83a1.79,1.79,0,0,0-2.49,0l-7.9,7.9A1.77,1.77,0,0,0,.86,46C7.28,50,13.21,54.65,19.94,58.1s13.73,4.82,21,6.08c2.21.38,3.16-3,.93-3.4-7.53-1.3-14.81-2.8-21.59-6.5C14.12,50.92,8.59,46.65,2.64,43L3,45.75l7.91-7.9H8.41c3.91,3.56,7.94,7.1,12.76,9.38,5,2.36,10.51,3.67,15.77,5.29,2.17.66,3.1-2.73.94-3.4Z"/><path class="cls-3" d="M64.32,92.83c2.93.19,5.78-.87,8.53-1.91l9.36-3.54a40.85,40.85,0,0,0,3.86-1.62,40.65,40.65,0,0,0,4.18-2.56l7-4.68c5.3,5.73,8.36,11.24,8.49,16.48a61,61,0,0,1-34.83,16C61,107.68,60.3,101.07,64.32,92.83Z"/><path class="cls-2" d="M64.32,93.71c4.23-.06,8-1.64,11.88-3.12a104.3,104.3,0,0,0,10.32-4.07c2.82-1.44,8.32-7.13,11.37-6,1.57.61,3.93,5.2,4.77,6.82,1.19,2.32,2.78,5.49,1.24,8.09-2,3.41-8.34,6.32-11.83,8.16a60.75,60.75,0,0,1-13.42,5.13c-5.24,1.31-11.72,1.77-14.76-3.66-2.12-3.79-.48-8.24,1.19-11.84.47-1-1-1.91-1.52-.88-2.13,4.59-3.84,10.15-.5,14.62,5.1,6.83,13,4.57,20,2.33A62.66,62.66,0,0,0,95.09,104c3.24-1.87,8.42-4.65,10.65-7.8,3.65-5.14-4.64-14.65-7.89-18.27a.86.86,0,0,0-1.06-.14C92,81,87.38,84.4,82,86.53S70.3,91.86,64.32,92A.88.88,0,0,0,64.32,93.71Z"/><path class="cls-3" d="M56.93,83.36c2.49,4-10.46-27.66-13.55-38.86l-4.77,2.42c3.34,13.49,6.76,26.28,11,31.91Z"/><path class="cls-2" d="M56.17,83.8a2,2,0,0,0,.6.66.88.88,0,0,0,1.06-.13c.78-.82-.21-2.63-.49-3.44-1.25-3.7-2.69-7.34-4.06-11C50.1,61.44,46.69,53,44.23,44.27a.89.89,0,0,0-1.3-.53l-4.76,2.42a.89.89,0,0,0-.4,1c2.35,9.5,4.44,19.58,8.86,28.38,2.28,4.52,5.65,6,9.86,8.59,1,.6,1.84-.92.88-1.52a61.46,61.46,0,0,1-6.3-3.92c-3.08-2.52-4.42-7.2-5.7-10.87-1.89-5.43-3.35-11-4.76-16.57-.1-.38-1.38-3.68-1.39-3.64.11-.32,1.18-.53,1.45-.74a20.24,20.24,0,0,1,3.15-1.6l-1.29-.53c2.16,7.66,5.11,15.1,7.89,22.54,1.35,3.59,2.71,7.17,4,10.77a23.57,23.57,0,0,0,1.38,3.83c.16.28.12.85.34,1.06,0,.16.1.32.14.48.08.68.54.51,1.38-.5C57.07,82,55.54,82.85,56.17,83.8Z"/><path class="cls-3" d="M93.6,63.89c-4.63-5.39-6.48-14.54-10-20.7-3-5.3-7.4-9.87-9.66-15.56l7-.53L98.09,55.63Z"/><path class="cls-2" d="M94.22,63.27C90,57.94,88.48,51.22,85.59,45.18c-3-6.37-8.09-11.49-10.92-18l-.76,1.32c2-.15,4.39-.72,6.42-.49,1.09.13-.69-.91.17,0a11.87,11.87,0,0,1,1,1.68l8.27,13.78c2.34,3.89,5,7.73,7.07,11.75.41.79.31.95.42,0A9.5,9.5,0,0,1,96,57.71l-3.11,5.74c-.54,1,1,1.88,1.52.89C95.51,62.21,99,58,99,55.63c0-2-3-5.32-4-7l-13.21-22a.89.89,0,0,0-.76-.43l-7,.53a.9.9,0,0,0-.76,1.33c3,6.93,8.46,12.37,11.51,19.29,2.58,5.86,4.27,12.05,8.31,17.14C93.68,65.4,94.92,64.15,94.22,63.27Z"/><path class="cls-2" d="M86.48,124.94a21.29,21.29,0,0,1,8.71-6.5c.52-.22.29-1.07-.23-.85a22,22,0,0,0-9.1,6.73c-.36.43.26,1.06.62.62Z"/><path class="cls-2" d="M89.42,129.26c.33-1.71,1.93-2.56,3.27-3.42l4.24-2.71c.48-.3,0-1.06-.44-.76-1.85,1.18-3.74,2.31-5.54,3.56A5,5,0,0,0,88.57,129c-.1.56.75.79.85.24Z"/><path class="cls-2" d="M106,130.17c-4.89-4.17-10.7-9-11.36-15.82-.18-2-.17-6.22,1.55-7.52s5.28.1,6.68.87a13.4,13.4,0,0,1,6.44,8.44.44.44,0,0,0,.84-.24,14.29,14.29,0,0,0-7.41-9.28c-2-1-5.27-2.23-7-.59-3.19,2.93-2.23,9.45-.76,12.85,2.12,4.92,6.48,8.53,10.45,11.92.43.36,1-.26.62-.63Z"/><path class="cls-2" d="M106.86,126.06c.59,0,.74-.11.44-.35s-.32-.37-.48-.57a6.28,6.28,0,0,0-.76-1c-1.37-1.55-2.89-2.89-4.13-4.56s-3.71-5.3-2.84-7.33c1.42-3.33,5.79,1.56,6.36,3.06.19.53,1,.3.84-.23a6.66,6.66,0,0,0-4.6-4.41c-1.39-.37-2.86-.53-3.42,1-1,2.58,1.56,6.61,3,8.52a42.11,42.11,0,0,0,5.77,6.46.46.46,0,0,0,.62,0l.07-.06a.42.42,0,0,0,.11-.43l-.11-.35c-.18-.54-1-.31-.85.23Z"/><path class="cls-2" d="M100,116.77c7.77-5.14,18.26,5.63,18.41,13.26a.44.44,0,0,0,.75.31c-.13.14-.24-.19-.46.67a3.73,3.73,0,0,0-.25,1.12c0,.16-.1.3,0,.48.33.46,1.09,0,.76-.44a11.22,11.22,0,0,0,.45-2.36.44.44,0,0,0-.22-.38l-.13-.05a.45.45,0,0,0-.53.06c2.48-2.64-4.72-10.36-6.71-11.87-3.51-2.69-8.62-4.15-12.54-1.56-.47.31,0,1.08.45.76Z"/><path class="cls-2" d="M103.49,121.29c.16-.64,2.78-1.08,3.42-.93a6.77,6.77,0,0,1,2,1,12.78,12.78,0,0,1,2.83,2.51,15.75,15.75,0,0,1,3.35,6.74c.13.55,1,.32.85-.23a16.06,16.06,0,0,0-6-9.39c-1.91-1.38-6.41-3.39-7.31.07a.44.44,0,0,0,.85.24Z"/><path class="cls-2" d="M105,137.14c1.67-5.18,3.1-10.4,4.31-15.7.13-.55-.72-.79-.84-.24-1.22,5.31-2.65,10.53-4.32,15.71-.17.54.67.77.85.23Z"/><path class="cls-2" d="M109.29,139.92c1.69-5.35,2.46-10.93,3.35-16.45.09-.55-.76-.79-.85-.23-.89,5.52-1.66,11.09-3.34,16.44-.17.54.68.77.84.24Z"/><path class="cls-2" d="M110,134.52c3.94-.55,6.22,3.29,8.84,5.43s3.42,4.54,4.59,7.49c.21.52,1.06.29.85-.24A33.86,33.86,0,0,0,122.1,142c-1-1.61-2.61-2.5-4-3.78-2.48-2.38-4.61-5-8.37-4.51-.56.08-.32.93.23.85Z"/><path class="cls-2" d="M111.24,127.82c5,2.73,11.89,8.17,13.86,13.61a31.34,31.34,0,0,1,1.63,8.52c.11,2,.77,1.66-.22.5a19,19,0,0,1-1.89-2.95.44.44,0,0,0-.76.44c1,1.65,2.09,3.18,3,4.82a.44.44,0,0,0,.82-.22c-.06-4.59-.53-11.22-3.3-15-1.37-1.88-3.67-3.41-5.47-4.86-2.33-1.87-4.64-4.15-7.27-5.59-.5-.27-.94.49-.44.76Z"/><path class="cls-2" d="M91.37,119.76c-.83-.78-3.37-3.2-4.68-2.69s-1.18,3.65-1.23,4.83c-.21,4.9,2.19,10.2,7.28,11.54a.44.44,0,0,0,.23-.85c-3.66-1-6-4.46-6.5-8.07-.21-1.5-.52-4.39.24-5.73.52-.93-.18-.82,1.16-.43a8,8,0,0,1,2.87,2c.41.39,1-.23.63-.62Z"/><path class="cls-2" d="M95,116.72a10.89,10.89,0,0,0-8.34-6.38c-3.58-.43-4.87,3-5.9,6-3.39,10,2.44,18.4,11.43,22.53.51.23,1-.53.44-.76-6.23-2.86-11.88-8-12-15.33,0-3.34.7-8.58,3.65-10.71,3.63-2.63,8.31,1.72,9.93,5,.25.51,1,.06.76-.44Z"/><path class="cls-2" d="M93.93,124.62c-2.23,5.68-.54,12-3,17.58-.23.51.53,1,.76.44,2.52-5.67.86-12,3.1-17.79.21-.52-.64-.75-.84-.23Z"/><path class="cls-2" d="M95.64,146.51c.89-3.34,1-7.34,1.57-10.81.73-4.46,1.34-8.74.54-13.24-.09-.56-.94-.32-.84.24,1,5.43-.21,10.74-1.1,16.1-.4,2.37-.41,5.2-1,7.48a.44.44,0,0,0,.85.23Z"/><path class="cls-2" d="M96.17,140.77c6.31,1.66,12.74,4.48,18.79,7,.52.22.75-.63.23-.84-6.06-2.5-12.45-5.31-18.79-7a.44.44,0,0,0-.23.85Z"/><path class="cls-2" d="M97.15,135.2a86.3,86.3,0,0,1,9,3.71c3,1.47,6.42,2.37,9.08,4.34.46.34.9-.43.45-.76-3-2.22-6.9-3.32-10.25-4.91-2.62-1.24-5.34-2.25-8.06-3.23-.54-.19-.77.66-.24.85Z"/><path class="cls-2" d="M115,160.25c-1.28-7.55,1-15.79,1.72-23.32.05-.57-.83-.56-.88,0-.7,7.68-3,15.86-1.69,23.55.09.56.94.32.85-.23Z"/><path class="cls-2" d="M119.37,159a4.2,4.2,0,0,0,.55-3V154.7c0-1.54,0-3.08.07-4.63.1-2.86.34-5.71.66-8.56.06-.57-.82-.56-.88,0-.39,3.5-.65,7-.72,10.55,0,2-.6,5.24.27,7.09a.44.44,0,0,0,.6.16l.11-.07a.45.45,0,0,0,.16-.6l-.05-.09c-.27-.5-1-.06-.76.44Z"/><path class="cls-2" d="M98.66,161.82c.89-6.79,1.81-13,4.22-19.46.2-.53-.65-.76-.85-.23-2.45,6.56-3.35,12.81-4.25,19.69-.07.56.81.55.88,0Z"/><path class="cls-2" d="M102.35,162.42c-.18.26-.35.52-.51.79-.29.5.43.89.76.45,1.61-2.17,2.23-5.09,3-7.66a43.63,43.63,0,0,0,2.11-11.59.44.44,0,0,0-.88,0,43.63,43.63,0,0,1-2.25,11.91c-.71,2.32-1.29,4.93-2.75,6.89l.76.45c.16-.27.33-.54.51-.79.31-.48-.45-.92-.76-.45Z"/><path class="cls-2" d="M86.29,135.91a15.81,15.81,0,0,0,1.83,1.89c1.45,1.46,2,3.22,2.88,5.06,1.55,3.35,5,4.49,8.31,5.38a.44.44,0,0,0,.24-.85c-2.25-.6-4.76-1.25-6.45-2.95s-1.75-4-3-5.77c-.49-.68-3-3.95-4-3.6-.53.17-.31,1,.24.84Z"/><path class="cls-2" d="M83,133c.7,9.1,7.46,18.07,15.83,21.73.52.22,1-.54.45-.76-8.06-3.52-14.73-12.19-15.4-21,0-.56-.92-.56-.88,0Z"/><path class="cls-2" d="M106,153.05c6.61,6.24,14,12,10.73,22.2-.17.54.68.77.85.24,3.31-10.49-4-16.52-11-23.07-.41-.39-1,.24-.62.63Z"/><path class="cls-2" d="M104.33,158c3.43,1.89,5.27,5.24,6.82,8.69.54,1.19,3.07,5,.72,5.1-.7.05-2.28-1.22-2.85-1.53l-2.86-1.52c-.5-.27-.94.49-.44.76,1.36.72,8.91,6.25,8.6,2.3-.12-1.53-1.6-3.74-2.23-5.16a40.19,40.19,0,0,0-1.93-3.89,14.24,14.24,0,0,0-5.38-5.51c-.5-.27-1,.49-.45.76Z"/><path class="cls-2" d="M94.5,154.3a3.69,3.69,0,0,1,0-2.77h-.76C95.18,155,95.25,160,98,162.91s8.34,2.74,12,2.15c.55-.09.32-.93-.24-.84a17.36,17.36,0,0,1-8-.29c-2.82-.94-3.92-2.42-4.83-5.05s-1.36-5.28-2.44-7.79a.44.44,0,0,0-.76,0,4.11,4.11,0,0,0,0,3.65c.33.46,1.09,0,.76-.44Z"/><path class="cls-2" d="M89.14,146.9c.73,6.09,1,13.61,5.35,18.38s11.78,4.42,17.7,3.48c.56-.08.32-.93-.23-.84-6.42,1-14.24,1.24-18.14-5-2.89-4.64-3.17-10.73-3.8-16-.07-.55-1-.56-.88,0Z"/><path class="cls-2" d="M116.72,163.45c1-2.59,2.93-3.55,4.77-5.38a8.74,8.74,0,0,0,2-4.6c.11-.56-.74-.79-.85-.24a10,10,0,0,1-1.11,3.37A10.6,10.6,0,0,1,119,159a9.67,9.67,0,0,0-3.08,4.27c-.2.53.65.76.85.23Z"/><path class="cls-2" d="M119.08,167.9a10.2,10.2,0,0,0,6.07-9.72c0-.56-.9-.56-.88,0a9.35,9.35,0,0,1-5.64,9c-.52.23-.07,1,.45.76Z"/><path class="cls-2" d="M119.47,148.4c2.82,1.31,4,7.75,4.65,10.59a28.68,28.68,0,0,1,.71,5.54c0,.74,0,1.47-.08,2.21a1.87,1.87,0,0,1-2.17-1.51c-.26-.51-1-.06-.76.44,1.7,3.38,3.73,4.27,3.88,0A31.17,31.17,0,0,0,124,155.29c-.84-2.67-1.35-6.36-4.11-7.65-.51-.23-1,.52-.44.76Z"/><path class="cls-2" d="M118.1,170.4c3.72,2.27,2.11,5.74,6.26,5,3.27-.56,4.21-2.32,4.62-5.36.63-4.68.88-10.73-.76-15.23s-5.1-8-8.08-11.48c-.37-.42-1,.2-.62.63,5.67,6.56,9,11.53,8.8,20.54a23.77,23.77,0,0,1-.14,4,3.68,3.68,0,0,1-1.77,3.77q-1.6,4.33-4.84.33c-1.18-1.13-1.54-2-3-3-.49-.3-.93.47-.45.76Z"/><path class="cls-2" d="M117.28,173.84c-1.31,2-2.8,2.72-4.48,2.14a12.33,12.33,0,0,1-2.93-1c-1.2-.54-2.34-1.21-3.49-1.85a27.63,27.63,0,0,0-5.28-2.62c-1.79-.53-4.24-.66-4.88,1.6-.69,2.45,1.88,4.07,3.63,5,2.33,1.2,4.14,3,6.39,4.29s4.73,1.95,6.86,3.85c.42.38,1.05-.24.62-.62a16.75,16.75,0,0,0-4-2.7,44.23,44.23,0,0,1-6.21-3.76,21.05,21.05,0,0,0-2.67-1.58c-.54-.24-1.07-.49-1.6-.76l1.17-4.61c1.17-.53,6.13,3.05,7.26,3.65,2.25,1.19,5.88,3.19,8.51,2.17,1.4-.54,2.7-2.19,1.86-3.58-.3-.48-1.06,0-.76.44Z"/><path class="cls-2" d="M131.58,174.89a19.89,19.89,0,0,0,1.18-8.45c-.09-1.32-1.9-9.68-1.39-9.94l4.27,1c0,1.11,0,2.22,0,3.33a52.49,52.49,0,0,1-.7,6.5,58,58,0,0,1-2.61,9.63c-.19.54.66.77.85.24a56.26,56.26,0,0,0,3.34-16.37c.11-2.24.77-7-2.14-8.06-1.77-.64-3.1.59-3.66,2.17-.67,1.91.25,4.64.54,6.53.7,4.59,1.18,8.67-.48,13.15-.19.53.66.76.85.23Z"/><path class="cls-2" d="M127.66,152.76c2.84-6,12-5.25,13.75,1.24,1,3.78-.18,7.94-.9,11.65a129.25,129.25,0,0,1-5.8,21.54c-.2.53.65.75.85.23a126.48,126.48,0,0,0,5.62-20.62c.87-4.41,2.5-9.9.67-14.29-2.72-6.49-12-6.37-14.95-.19-.24.51.52,1,.76.44Z"/><path class="cls-2" d="M96.06,166.36c-4.2,2.77-6.16,7.45-2.25,11.18,2.28,2.18,5,3.62,7.63,5.37a76.41,76.41,0,0,0,10.41,6.17c.51.24,1-.52.45-.76a74.58,74.58,0,0,1-10.92-6.54c-1.66-1.15-3.45-2-5-3.27-.66-.5-1.29-1-1.9-1.59L93,171c.3-1.21,2.93-3.54,3.51-3.92s0-1.08-.44-.76Z"/><path class="cls-2" d="M114,184.07c-2.64,7-4.3,15.08-.1,21.82,1.48,2.38,6.67,7.22,8,2.17a.46.46,0,0,0-.12-.43,15.69,15.69,0,0,1-2.1-20.1.43.43,0,0,0-.16-.6A100.51,100.51,0,0,1,99,170.24c-.38-.41-1,.21-.62.62A100.48,100.48,0,0,0,112.11,183a41.18,41.18,0,0,1,4.5,3.16c1.48,1.43,1.45,1.07.92,3.22-.46,1.86-1.27,3.38-1.45,5.33a17.32,17.32,0,0,0,.71,6.71c.56,1.79,1.91,3.21,2.53,4.9q3.21,3.19-4.3-.25l-.75-1.22a14.16,14.16,0,0,1-1.83-5.31c-.9-5.24.56-10.38,2.39-15.22.2-.53-.65-.76-.84-.24Z"/><path class="cls-2" d="M115.85,185.83c1.12.94,4,3.5,5.69,3,1.31-.41,1.44-2.76,1.77-3.84.55-1.82.55-2.21-1-3.35-2.45-1.84-5.1-3.39-7.53-5.26-.44-.35-.88.42-.44.76,2.38,1.83,5.36,3.2,7.53,5.26.91.86.9,1.24.56,2.36a7.81,7.81,0,0,1-.59,2c0,.86-.39,1.1-1.22.69A2.27,2.27,0,0,1,119,187a11.46,11.46,0,0,1-2.5-1.75c-.43-.36-1,.26-.62.62Z"/><path class="cls-2" d="M118,178.28c3.55-2.81,10.4-3.52,14.34-1.66.5.24.95-.52.44-.76-4.46-2.11-11.51-1.29-15.4,1.8-.45.35.18,1,.62.62Z"/><path class="cls-2" d="M122.07,181.8c2.81-.9,6-1.33,8.64.16.49.27.94-.49.44-.76-2.9-1.61-6.27-1.22-9.32-.25-.54.17-.31,1,.24.85Z"/><path class="cls-2" d="M121.27,189.9l3.42-8.39c.22-.52-.63-.75-.84-.23l-3.43,8.38c-.21.53.64.75.85.24Z"/><path class="cls-2" d="M124.9,190.64a2.17,2.17,0,0,1-.13,1.28l.69.53a113.28,113.28,0,0,0,4.44-11.11c.19-.54-.66-.77-.85-.24A112.63,112.63,0,0,1,124.7,192c-.2.42.35.94.69.53a2.23,2.23,0,0,0,.39-1.9c-.07-.56-1-.57-.88,0Z"/><path class="cls-2" d="M127.06,189.13c2.22.48,4.46,2.5,6.18,3.87a27.78,27.78,0,0,1,5.63,5.41c.32.46,1.08,0,.76-.45a29.86,29.86,0,0,0-6.23-6c-1.76-1.36-3.87-3.23-6.11-3.72-.55-.12-.79.73-.23.85Z"/><path class="cls-2" d="M128.55,184.85c.3.64.36.3.73.55,1.2.84,2.94,1.52,4.28,2.31,3.75,2.19,7.38,4.74,9.48,8.65.27.5,1,.06.76-.44a21.33,21.33,0,0,0-7.54-7.59c-1.7-1.11-3.48-2.09-5.25-3.07-.53-.29-1.06-.52-1.59-.77s.06.27-.11-.08c-.24-.51-1-.07-.76.44Z"/><path class="cls-2" d="M125.69,204.73c.81-2.73,3.15-4.59,3.89-7.38.63-2.38.4-4.91.62-7.33.05-.57-.83-.56-.88,0-.25,2.77.06,5.67-1,8.29-.92,2.22-2.77,3.85-3.46,6.19a.44.44,0,0,0,.85.23Z"/><path class="cls-2" d="M127.74,207.63c5.07-2.5,6.8-9.42,6.49-14.57,0-.56-.92-.57-.88,0,.3,4.84-1.26,11.45-6.06,13.81-.5.25-.06,1,.45.76Z"/><path class="cls-2" d="M120.24,188l-.94.11c-.34,0-.62.47-.31.75,3,2.68,6.88,4.18,10.27,6.24.48.3.92-.47.44-.76-3.32-2-7.18-3.48-10.09-6.1l-.31.75.94-.11c.56-.07.56-.95,0-.88Z"/><path class="cls-2" d="M116.86,194.2c3.39,2,7.3,3,10.69,5.05.48.3.93-.46.44-.76-3.38-2-7.3-3-10.69-5.05a.44.44,0,0,0-.44.76Z"/><path class="cls-2" d="M134.16,197.69c4.21.78,9.83,2.93,9.8-3.22a9,9,0,0,0-1.69-5.65c-.9-1.12-2.06-2-3-3.13a11.2,11.2,0,0,0-2.2-2c-.46-.33-.9.43-.45.76a23.85,23.85,0,0,1,3.11,3.25c1.32,1.36,2.52,2.32,3,4.26a10.45,10.45,0,0,1,.29,2.55,4.18,4.18,0,0,1-2.27,3.45c-1.45.49-4.93-.8-6.42-1.08-.55-.1-.79.74-.23.85Z"/><path class="cls-2" d="M133,201.43c6.09,2,15.16,2.72,15.54-6,.29-6.68-4.13-14.32-10.12-17.19-.51-.24-1,.52-.44.76,4.63,2.22,7,6.16,8.62,10.87a16.4,16.4,0,0,1,.87,3.46c.41,3.2,0,4-2.43,6.33s-3.4,2.65-6.71,2.24a26.41,26.41,0,0,1-5.09-1.3c-.54-.17-.77.68-.24.85Z"/><path class="cls-2" d="M130.85,184.73c1-2.68,1.57-5.48,2.56-8.16.19-.53-.66-.76-.85-.24-1,2.68-1.57,5.49-2.56,8.16-.2.54.65.77.85.24Z"/><path class="cls-2" d="M119.83,195.31c-.9,5.18.81,14.51,6.37,16.64,6.36,2.42,17.88-1.09,16.4-9.49-.09-.56-.94-.32-.84.23,1.6,9.15-14,12.14-18.29,5.87a19.82,19.82,0,0,1-2.79-13c.1-.55-.75-.79-.85-.23Z"/><path class="cls-2" d="M125,197.29c-1.63,1.73-1.08,3.33-.67,5.43a7.55,7.55,0,0,0,4.68,5.83,8,8,0,0,0,6.63-.08c1.94-1.07,2.49-3.31,3-5.3a.44.44,0,0,0-.85-.23c-.36,1.43-.7,3.18-1.84,4.23-1.5,1.39-4,1.37-5.89.83a6.82,6.82,0,0,1-4.74-4.7c-.43-1.68-1-4.05.3-5.39.39-.41-.23-1-.62-.62Z"/><path class="cls-2" d="M57.87,195.58c4.33,2,9.2.71,13.6,2.87,3.06,1.51,6.83,3.91,3.58,7.62-1.54,1.76-7.41,1.09-9.7.86-.25,0-.42.23-.44.44-.63,6.74,10,3.55,13.32,3,2.15-.32,4.06-.81,5.41-2.64.86-1.18,2.48-6.36.79-6.85-.35-.1,1.56,2.27,1.44,2.15a8.43,8.43,0,0,0,3.07,2,7.44,7.44,0,0,0,5,.21c5.18-1.83,2.84-7.3.31-10.42-2.2-2.71-6.05-4.23-7.92-7.09-2.06-3.15-2.23-6.18-5.54-8.49a10.06,10.06,0,0,0-12.28.24A9.85,9.85,0,0,0,66,182.69c-.12.23-.74,2.56-.85,2.68-2.46,2.62-7.5-1.13-10,.93-3.2,2.65,1,7.84,3.32,9.14.49.27.94-.49.44-.76-4.11-2.29-5.56-6.91.31-7.73a41.15,41.15,0,0,1,6.27.16.44.44,0,0,0,.44-.44c.51-8,9.64-10.95,15.37-5.83,2.71,2.43,2.81,6,5.11,8.6,1.74,2,4.36,3,6.19,4.92,1.14,1.2,3.31,3.74,3.47,5.61-1.71,4.6-4.32,5.89-7.8,3.87a6.91,6.91,0,0,1-3.41-4.27c-.15-.44-.9-.41-.87.12.11,1.48.44,4.06-.15,5.38-1.48,3.28-4.85,4.33-8,4.63-.79.08-1.65.22-2.43.24a3.36,3.36,0,0,1-4.14-.79q-4.4-1.58-.69-1.14c2.4-.44,9.29-.06,10-3.35.47-2.11-2.78-4.4-4.12-5.37a17.51,17.51,0,0,0-5.67-2.73c-3.49-1-7.2-.15-10.59-1.74-.5-.24-1,.51-.44.76Z"/><path class="cls-2" d="M81.18,196.68a35.35,35.35,0,0,1-9-5.28,16.15,16.15,0,0,1-3.3-3.2c-2.28-3.4-.5-6.28,2.7-7.35,10-3.35,11.18,10.18,9.57,16.63-.13.55.72.78.85.23,2-7.87-.74-22.32-11.89-17.2-11,5,6,15,10.8,17,.53.22.75-.63.24-.84Z"/><path class="cls-2" d="M76.89,187.19a17.23,17.23,0,0,1-3.29.13,10.93,10.93,0,0,1-2.48-.37c-1-.28-1.15-.23-1-1.37s.2-1,1.4-1.1a12.19,12.19,0,0,1,1.48,0,11.53,11.53,0,0,1,1.94.31l.57.15c.84.12,1.25.7,1.24,1.74-.56,0-.56.84,0,.88,1.66.12,1.77-1.88.67-2.73-1.7-1.33-5.22-1.61-7.23-1.1-1.45.37-2.35,1.77-1.2,3,1.74,1.87,5.69,1.57,7.93,1.29.55-.07.56-.95,0-.88Z"/><path class="cls-2" d="M86,199.74A5.92,5.92,0,0,1,89.35,202c.33.46,1.09,0,.76-.44a6.75,6.75,0,0,0-3.87-2.66.44.44,0,0,0-.24.84Z"/><path class="cls-2" d="M89,198.75a12.54,12.54,0,0,0-1.49-2.83l-.6.6a16.55,16.55,0,0,1,4.21,4c.33.45,1.09,0,.76-.44a17.93,17.93,0,0,0-4.53-4.33c-.36-.24-.86.24-.6.6a11.39,11.39,0,0,1,1.4,2.62c.2.53,1,.3.85-.23Z"/><path class="cls-2" d="M91.82,199.85a45,45,0,0,0-4-6.91l-.61.6a13.26,13.26,0,0,1,5.37,5.89c.24.51,1,.07.76-.44a14.11,14.11,0,0,0-5.68-6.21c-.36-.21-.87.23-.6.6a45.14,45.14,0,0,1,4,6.92c.24.51,1,.06.76-.45Z"/><path class="cls-2" d="M89,187.44a.44.44,0,0,0,0-.88.44.44,0,0,0,0,.88Z"/><path class="cls-2" d="M89.45,186.27a1.46,1.46,0,0,0-.27-.86c-.21-.36-.86-.23-.82.22.25,2.58,4.17,2.9,6.16,2.77a.44.44,0,0,0,0-.88,14.61,14.61,0,0,1-3.29-.63,10.35,10.35,0,0,1-1.7-.67c.32-.48.54-.45.66.1a.45.45,0,0,0,.81-.1,4,4,0,1,0-7.59-2.51c-.2.53.65.76.85.23A3.12,3.12,0,1,1,90.15,186l.8-.11c-.49-.86-2.65-2.55-3-.53-.42,2.37,5.2,2.93,6.57,3.05v-.88c-1.31.08-5.09,0-5.28-1.89l-.82.22.15.42c.05.56.93.57.88,0Z"/><path class="cls-2" d="M85.39,208c2.14-2.19,8-1.83,10.78-1.78a61.34,61.34,0,0,1,11,1.24.45.45,0,0,0,.55-.54c-1.14-3.6-3.32-6.35-5.81-9.12a50.31,50.31,0,0,1-5.14-6.32c-.62-1-2.06-2.7-2.07-3.79,0-2,.95-1.49,2.28-.3,3.42,3,5.64,8.37,8,12.21a39.17,39.17,0,0,0,3.65,5.2c.27.32,2.17,1.89,2.16,2.21s-3.67-.44-4.21-.58a.44.44,0,0,0-.24.84,23.68,23.68,0,0,0,6,.83c.35,0,.62-.5.31-.75-7.6-6.07-10-16.35-16.91-23.05-2-2-3.58-1.27-2.91,1.5.84,3.5,3.74,7.2,6,9.91,1.55,1.84,3.26,3.53,4.75,5.42a11.39,11.39,0,0,1,2,2.87c.5,1.61.29,1.71-.92,2.1-1.62.52-4.83-.62-6.61-.7a43.56,43.56,0,0,0-7,.11c-2,.23-5,.62-6.09,2.59a.45.45,0,0,0,.16.61l.25.15a.44.44,0,0,0,.53-.07l.17-.17c.4-.41-.23-1-.62-.62Z"/><path class="cls-2" d="M96,184.58q2.92-1.43,4.27.94a21.52,21.52,0,0,1,2.4,3.58c.93,1.64,1.7,3.38,2.52,5.08l6.2,12.74c.25.51,1,.07.76-.44-3.37-6.94-6.13-15.68-11.26-21.58-1.35-1.56-5.84-4.63-5.77-.32a.44.44,0,0,0,.88,0Z"/><path class="cls-2" d="M97.26,182c6.76-.31,8.48,6.9,10.52,11.78.48,1.14,4.83,12.6,4.72,12.6-.56,0-.56.86,0,.88l1.24,0a.45.45,0,0,0,.43-.56c-2.73-6.51-5.21-13.21-8.25-19.58-1.81-3.78-4.33-6.24-8.66-6-.56,0-.57.91,0,.88Z"/><path class="cls-2" d="M158.66,148.05c-.63-1.12,1-3.07,1.78-3.73a2.19,2.19,0,0,1,2.45-.43c1.25.82.32,2.32-.52,2.89-1.81,1.22-4.16.83-5.79,2.46a.44.44,0,0,0,.62.62c1.69-1.68,4.47-1.11,6.18-2.76,1-1,1.43-2.77.22-3.77s-3-.41-4.06.63-2.51,3-1.64,4.53a.44.44,0,0,0,.76-.44Z"/><path class="cls-2" d="M161.52,160.53c3.08,1,6.6-18.58-1.2-20.12-4.63-.92-7.17,4.12-7.22,8A15.09,15.09,0,0,0,155,156c1.53,2.57,4.54,3.73,6.38,6.11.35.45,1-.18.62-.62-1.6-2.07-3.5-2.88-5.28-4.64-2.8-2.78-3.67-9.28-1.75-12.67,2.12-3.74,7.44-2.95,8.78,1.51a18.22,18.22,0,0,1,.47,4.66c0,1.12-.66,9.87-2.42,9.32-.54-.18-.77.67-.23.84Z"/><path class="cls-2" d="M170.32,161.88c-1.43-4.58-2.23-8.84.3-13.23,1.5-2.59,4.77-4.39,6-7,1.47-3-.63-5.92-2.34-8.64a.44.44,0,0,0-.49-.2,11.23,11.23,0,0,0-5.12,4c-1.27,1.58-1.67,2.94-3.68,3.3-1.47.27-2.39-.43-3.82-.63a10.41,10.41,0,0,0-10.71,6.1,11.52,11.52,0,0,0-.75,5.75c.37,3.16,2.58,5.19,3.2,8.15.68,3.2-1,6.57-.44,10a9.81,9.81,0,0,0,3.71,6.43c2.77,2,4.49,1.71,5.24-1.42.5-2.1.58-4.3,1.08-6.4.58-2.39.33-2.63,2.23-1.11a6.58,6.58,0,0,0,4.45,1.75c4.54-.21,12-6.19,13.13-10.6.48-1.8.14-5.2-2.46-4-.69.3-1.5,1.78-1.91,2.29s-1.67,2.67-2.2,2.89l-4.8-.43.36-1.31c0-5.52,6-7.35,9.86-9.49-1,.56.91-.59,1.22-.74l1-.79q-.51,3.67-3.33,4.48c-.83.54-1.82.75-2.64,1.39-3.16,2.48-3.63,6.88-7.11,9.19-.47.31,0,1.08.44.76a11.93,11.93,0,0,0,3.77-4.29c1-1.57,1.62-3.4,3-4.65s3.39-1.47,4.87-2.36c2.27-1.38,4.29-3.84,1.84-6.11a.45.45,0,0,0-.62,0c-3.41,3.74-9,3.88-11.7,8.49-1.15,2-3.3,6.78-1.73,9,2.08,2.95,5-1.15,6.27-2.7.66-.84,4.27-6.4,4.47-.7,0,1.06-2.62,3.23-3.33,3.88-4.31,3.91-9.79,6.52-14.63,1.1a.44.44,0,0,0-.73.2l-1.24,7.31c-.09.52-.23,3.41-.62,3.66-1.82,1.16-5.2-1.13-6.06-2.71-2.09-3.8-.62-7.66-.1-11.6a4.62,4.62,0,0,0,.08-2c-.37-1.27-1.66-2.18-2.28-3.31a10.93,10.93,0,0,1-.72-9.55,9.17,9.17,0,0,1,7.35-5.57c2.26-.3,3.82,1,5.86,1.06s2.81-1.5,4-3.08a12.48,12.48,0,0,1,2.44-3l3.31-.73.71,1.29c2.45,2.69.58,5.48-1.34,7.55-5.56,6-6.69,10.72-4.25,18.56.17.54,1,.31.85-.23Z"/><path class="cls-2" d="M149.89,152.53c-4.29.9-5.54,5-2.71,8.24a.44.44,0,0,0,.69-.09c.3-.62,1.08-3.2.93-1.36-.11,1.33-.77,2.7-1,4a21.27,21.27,0,0,0-.29,6.61c.8,5.77,6.55,9.89,5.68,16a.45.45,0,0,0,.81.34c4.66-6.42,9.39-12.68,16-17.21.47-.31,0-1.08-.44-.76a47.61,47.61,0,0,0-8.92,8c-.48.54-6.71,8.28-6.4,8.45.07,0-.65-3.54-.68-3.63a36,36,0,0,0-2.78-5.1c-3.52-6.3-2.52-12.25-.4-18.82a.44.44,0,0,0-.73-.43,5.08,5.08,0,0,0-1.1,1.07q-2.91,4.25,1.56-4.44c.56-.12.32-1-.23-.85Z"/><path class="cls-2" d="M147.65,159.86c-2.82-2.51-3.74,5-3.79,6.39-.31,9.19,6,17,5.82,26.23a.44.44,0,0,0,.82.22c2.28-3.24,4.15-6.29,4.35-10.31,0-.57-.85-.57-.88,0-.11,2.17-.83,5.47-2.41,7.19-1.29,1.41-.29,1.55-1,.2a13.4,13.4,0,0,1-.38-2.78,39.62,39.62,0,0,0-1.49-5.24c-.94-2.78-2.12-5.48-2.89-8.32a24.73,24.73,0,0,1-1-6.38c0-1,1.23-7.54,2.31-6.58.42.37,1.05-.25.62-.62Z"/><path class="cls-2" d="M145.9,160.29c-3.06-2.82-4.68,4.19-4.83,6-.74,9.47,9,16.72,6.9,26.09a.44.44,0,0,0,.8.33,13.09,13.09,0,0,0,1.67-3.93.44.44,0,0,0-.85-.23c-1.32,5.14-.18,1.33-.5-.78a22.61,22.61,0,0,0-2.23-6.31c-1.33-2.81-3-5.48-4-8.47a19,19,0,0,1-1-5.93c0-1.13,1.28-8.12,3.39-6.18.42.39,1-.23.62-.62Z"/><path class="cls-2" d="M141,167.32c-2.08,2.65-1,6.31.13,9.22,2,5.32,5.66,9.66,6.58,15.43.09.55.94.32.85-.24a27.12,27.12,0,0,0-3.18-8.73c-2-3.69-7-10.91-3.76-15.06.35-.44-.27-1.06-.62-.62Z"/><path class="cls-2" d="M64.94,55.69C59,53.55,52.58,47.23,54.7,40.29l3.73-5a9.81,9.81,0,0,1,3.42-.49,8.25,8.25,0,0,1,6,2.33c2.45,2.59,2.7,6.42,2.88,9.78,0,.56.91.56.88,0-.21-4.07-.66-8.62-4.14-11.31-3-2.34-8.88-2.46-11.89,0S53.43,44.75,54.71,48c1.66,4.18,5.88,7.08,10,8.57.53.19.76-.66.23-.85Z"/><path class="cls-2" d="M65.78,51c-3.74-.48-8.55-5.29-7.36-9.29a3.67,3.67,0,0,1,6.08-1.68c1.5,1.43,1.85,3.61,2.07,5.56.06.56.94.56.88,0-.3-2.67-.94-5.73-3.56-7.09A4.31,4.31,0,0,0,58.3,40c-3.4,4.84,2.75,11.33,7.48,11.94.56.08.55-.8,0-.88Z"/><path class="cls-2" d="M61.36,49.51a69.14,69.14,0,0,0,3.56-9.67.44.44,0,0,0-.85-.23,69,69,0,0,1-3.47,9.45c-.23.51.53,1,.76.45Z"/><path class="cls-2" d="M64.66,51.24c.33-2.24,1.65-4,2.83-5.83.3-.48-.46-.92-.76-.44-1.23,1.93-2.58,3.72-2.92,6-.08.55.77.79.85.23Z"/><path class="cls-2" d="M70.8,41.31c2.48.21,2.36,5.5,2.26,7.15a42.21,42.21,0,0,1-1.19,7.21c-.13.55.72.78.85.23.8-3.35,1.59-7,1.19-10.48-.2-1.74-1-4.81-3.11-5-.56,0-.56.83,0,.88Z"/><path class="cls-2" d="M66.73,36.08c.24.4.66.6.89,1a.44.44,0,0,0,.38.22c3.47-.13,7,.53,8.2,4.16a21.23,21.23,0,0,1,.73,6.2c0,3.46-.25,6.92-.34,10.38a.44.44,0,0,0,.88,0c.14-5.67,1.55-12.7-.88-18.06a7.08,7.08,0,0,0-3.51-3.83c-1.75-.68-4.64,1.08-5.59-.48-.3-.48-1.06,0-.76.44Z"/><path class="cls-2" d="M66.85,46.14A13.54,13.54,0,0,1,73,48.81c.43.35,1.06-.26.62-.62a14.36,14.36,0,0,0-6.53-2.9c-.56-.08-.8.76-.24.85Z"/><path class="cls-2" d="M64.39,50.25C66.85,52.11,70.05,52.64,73,53c.57.06.56-.82,0-.88-2.84-.31-5.87-.83-8.21-2.59-.45-.34-.89.42-.44.76Z"/><path class="cls-2" d="M64.56,58.33c.68-2.15,1.44-4.26,2.27-6.35.21-.53-.64-.76-.85-.24q-1.24,3.13-2.27,6.35c-.17.54.67.77.85.24Z"/><path class="cls-2" d="M68.21,60a41.52,41.52,0,0,1,3.05-7.09c.27-.5-.49-1-.76-.45a44,44,0,0,0-3.14,7.3c-.18.54.67.77.85.24Z"/><path class="cls-2" d="M65.25,58.21l0-.11a.45.45,0,0,0-.43-.33l-.15,0a.45.45,0,0,0-.42.33c-.17,1.23,1.54,2.37,2.56,2.68,1.72.51,3.51-.12,5.07-.83.51-.24.06-1-.45-.76a7.64,7.64,0,0,1-3.5.89,3.35,3.35,0,0,1-1.7-.54c-.21-.14-1.17-.93-1.13-1.21l-.43.32.15,0-.42-.32,0,.12c.17.53,1,.3.84-.24Z"/><path class="cls-2" d="M61.31,63.54c3.88,1.85,10.69,2.05,13.56-1.73.34-.45-.42-.89-.76-.45-1.85,2.43-5.27,2.42-8,2.39a8.92,8.92,0,0,1-4.32-1c-.5-.24-1,.52-.44.76Z"/><path class="cls-2" d="M70.12,63.94l-2.51,5.19c-.24.5.52,1,.76.44l2.51-5.19c.25-.5-.51-.95-.76-.44Z"/><path class="cls-2" d="M71.79,71.46c1.94-3,4.1-6.24,4.46-9.87.06-.57-.82-.56-.88,0C75,65,72.87,68.17,71,71c-.31.47.45.91.76.44Z"/><path class="cls-2" d="M68.55,58.39q4.11,2.07,8.21,4.18c.5.26.95-.5.45-.76Q73.1,59.71,69,57.63c-.51-.26-1,.5-.45.76Z"/><path class="cls-2" d="M69.92,54.82a84.35,84.35,0,0,0,8.22,4c.51.24,1-.52.44-.76a86.65,86.65,0,0,1-8.22-4,.44.44,0,0,0-.44.76Z"/><path class="cls-2" d="M76.93,63.37l-.09.13.49-.2c.25.06.41-1,.52-1.43.15-.57.31-1.13.48-1.7.35-1.23.7-2.47,1-3.71.14-.55-.71-.79-.85-.24-.48,1.9-1.06,3.77-1.57,5.67-.17.64-.84,2,.17,2.26a.46.46,0,0,0,.5-.21l.09-.12c.33-.46-.43-.9-.76-.45Z"/><path class="cls-2" d="M81,66.38C82.15,64,82.9,61.45,83.78,59c.2-.53-.65-.76-.84-.23-.86,2.41-1.58,4.88-2.66,7.2-.23.52.53,1,.76.45Z"/><path class="cls-2" d="M75.5,64a92.64,92.64,0,0,1,11,5.65c.47.31.91-.45.44-.76a91.87,91.87,0,0,0-11-5.65c-.51-.24-1,.52-.44.76Z"/><path class="cls-2" d="M73.84,67.73c3.18,1.15,6,3.07,9.32,3.93a.44.44,0,0,0,.23-.85C80.1,70,77.25,68,74.07,66.88c-.53-.2-.76.65-.23.85Z"/><path class="cls-2" d="M70,76.46l-.05.11a.45.45,0,0,0,.07.53l.12.09a.45.45,0,0,0,.62,0c1-1,1.66-2.92,2.38-4.21.91-1.61,1.83-3.22,2.65-4.88.25-.51-.51-1-.76-.45-.73,1.5-1.55,2.94-2.37,4.39-.41.74-.83,1.47-1.23,2.21a10.29,10.29,0,0,1-1.29,2.32h.62v.33c.23-.51-.53-1-.76-.44Z"/><path class="cls-2" d="M73.09,81.63a18.09,18.09,0,0,1,1.87-2,27,27,0,0,0,2-3.4A35.56,35.56,0,0,0,80,69.93c.18-.54-.67-.77-.85-.24a39,39,0,0,1-3.38,6.78,15.28,15.28,0,0,1-1.86,3,9.41,9.41,0,0,0-1.55,1.73.44.44,0,0,0,.76.44Z"/><path class="cls-2" d="M65.42,69c2.58.84,4.92,2.29,7.51,3.13.54.18.77-.67.23-.85-2.58-.84-4.93-2.28-7.51-3.13-.54-.18-.77.67-.23.85Z"/><path class="cls-2" d="M64.9,72.56c1.93,1,4.11,1.31,6,2.31.5.25,1-.5.44-.76-1.93-1-4.1-1.32-6-2.31-.51-.26-.95.49-.45.76Z"/><path class="cls-2" d="M60.47,63.94c-1.83,2.47-1.52,4.73-.5,7.44.12.32,1.18,4.63-1.22,2.88-.37-.28-.23-1.57-.24-2A18.13,18.13,0,0,1,59.06,68a.44.44,0,0,0-.84-.23c-.36,1.48-1.79,8.34,1.26,8.13,1.19-.08,1.77-1.44,1.83-2.46a8.77,8.77,0,0,0-.94-3.37,5.76,5.76,0,0,1,.86-5.68c.33-.45-.43-.89-.76-.44Z"/><path class="cls-2" d="M65.15,64.88c-1.37,3.94,1.39,11.15-2.86,13.5-4,2.2-6.69-2.73-6.89-5.95A12.26,12.26,0,0,1,56.57,66c.27-.5-.49-1-.76-.45-2.29,4.31-2.05,12.3,3.46,14.12,8.12,2.68,5.54-11.11,6.72-14.53.19-.54-.66-.77-.84-.23Z"/><path class="cls-2" d="M59.32,67.56a14.64,14.64,0,0,0-2.17-1.74A16.17,16.17,0,0,1,53,61.18a39.8,39.8,0,0,1-2.43-4.25c-.16-.33-2.31-6.54.37-4.3.52.43.89,2.06,1.22,2.64a24.51,24.51,0,0,0,2,2.88c1.79,2.32,3.84,4.45,5.8,6.64.38.42,1-.21.62-.63-1.58-1.76-3.2-3.5-4.72-5.32-2.08-2.48-2.95-4.57-4.4-7.38-.55-1.06-1.46-2.41-2.74-1.24-2,1.81.79,6.59,1.66,8.24a30.71,30.71,0,0,0,3.9,6.12c1.32,1.47,3.15,2.17,4.49,3.6.39.42,1-.2.62-.62Z"/><path class="cls-2" d="M59.2,53.13a40,40,0,0,1-2,8.28c-.19.54.66.77.85.24a41.73,41.73,0,0,0,2-8.52c.07-.56-.81-.56-.88,0Z"/><path class="cls-2" d="M61.36,64c1.73-2.52,2.17-5.24,3.2-8.05.19-.53-.66-.76-.85-.23-1,2.72-1.43,5.38-3.11,7.84-.32.47.45.91.76.44Z"/><path class="cls-2" d="M51.23,51.56c-1.53-.34-1.89-4.42-1.86-5.63.05-2.7,2.5-4.75,4.91-5.5.54-.17.31-1-.23-.85-2.67.83-5.33,3.07-5.54,6a16.52,16.52,0,0,0,.76,4.93c.27,1.06.64,1.65,1.73,1.89.55.12.79-.73.23-.85Z"/><path class="cls-2" d="M77.4,50.59c2.13,1.48,4.14,3.14,6.24,4.67,2.62,1.91,6.28,3.73,7.06,7.21a5.37,5.37,0,0,1-3.27,5.8c-.14,0-3.31-.22-3.93-1.13-.31-.46-1.08,0-.76.45,1,1.48,3.44,1.46,5.06,1.46a.46.46,0,0,0,.44-.44S91,66.69,91.29,66A6.19,6.19,0,0,0,91,60.86c-1.05-2.22-3.12-3.68-5.08-5-2.76-1.92-5.36-4.07-8.12-6-.47-.33-.91.43-.44.76Z"/><path class="cls-2" d="M82.6,59.16a5.38,5.38,0,0,0,2.53,4.68c1,.58,2.32.5,2.68-.8.47-1.7-1.43-3-2.63-3.82-2.48-1.65-5.36-2.47-7.6-4.5-.42-.38-1,.24-.62.63a25.58,25.58,0,0,0,5.83,3.52c.76.39,3.18,1.39,3.39,2.24l-.6,2a4.37,4.37,0,0,1-1.44-1.43,4.81,4.81,0,0,1-.66-2.49.44.44,0,0,0-.88,0Z"/><path class="cls-2" d="M76.75,40.38c1.39-1,3.83,2,4.29,2.89a14.81,14.81,0,0,1,1.21,3.93,43.55,43.55,0,0,1,1,7.55c0,.57.9.57.88,0-.13-3.62-.5-7.75-1.91-11.11-.74-1.77-3.66-5.52-5.87-4-.46.31,0,1.08.45.76Z"/><path class="cls-2" d="M77.16,45.62c1,.31,1.1,1.41,1.34,2.32a12,12,0,0,1,.58,3.71c0,.56.85.56.88,0a15.34,15.34,0,0,0-.86-4.92,2.45,2.45,0,0,0-1.71-2c-.54-.17-.78.68-.23.85Z"/><path class="cls-2" d="M69.28,74c.64,1.83.5,3.9,1.3,5.68a5.41,5.41,0,0,0,4.64,2.8,6,6,0,0,0,4.89-1.9c1-1,2.9-2.77,2.55-4.25-.13-.56-1-.32-.85.23.19.8-1.87,2.94-2.32,3.4A5.32,5.32,0,0,1,73.35,81c-3-1.39-2.3-4.68-3.22-7.32-.19-.53-1-.3-.85.24Z"/><path class="cls-2" d="M65.09,75c-1.78,1.33,0,4.66.73,6.28a11,11,0,0,0,7.64,6.22c7.09,1.58,13-4.2,13-11.12a.44.44,0,0,0-.88,0c0,6-4.69,11.06-10.84,10.39a9.92,9.92,0,0,1-6.16-2.92c-.75-.8-4.66-6.89-3-8.09.45-.34,0-1.1-.45-.76Z"/><path class="cls-2" d="M77.15,76c6.22,3.2,15.57-1.14,13.58-9a.44.44,0,0,0-.85.24c1.8,7.06-6.77,10.8-12.29,8-.5-.26-1,.5-.44.76Z"/><path class="cls-2" d="M78.59,72.19c3,0,8.12.09,9.16-3.46a.44.44,0,0,0-.85-.24c-.87,3-5.82,2.79-8.31,2.82a.44.44,0,0,0,0,.88Z"/><path class="cls-2" d="M72.21,199c-2.17.33-15.91,2.41-13.76,7.05.67,1.45,2.26,1.1,3.45.7,2.42-.8,4-1.77,6.62-1.86a36.49,36.49,0,0,1,7.07.66c.56.09.8-.76.24-.85a46.27,46.27,0,0,0-6.21-.69c-2.18-.05-3.92.77-6,.91-.83.06-3.41,2.69-2.46-1.74.17-.81,2.89-1.45,3.79-1.75a44.45,44.45,0,0,1,7.48-1.59c.56-.08.33-.93-.23-.84Z"/><path class="cls-2" d="M58,42.5c1.46.92,2.75,1.92,4.54,2,.56,0,.56-.84,0-.88-1.62-.1-2.78-1.08-4.09-1.91-.48-.31-.92.45-.45.76Z"/><path class="cls-2" d="M58.9,47a7.75,7.75,0,0,0,2.52,1.22c.55.12.78-.73.23-.85a6.86,6.86,0,0,1-2.3-1.13c-.48-.31-.92.45-.45.76Z"/><path class="cls-2" d="M87.13,35.2a118.48,118.48,0,0,0,5.76-23.63c.2-1.63,1.57-6.46.34-8.09-1.08-1.42-2.78-.57-4.31-1.1-.54-.18-.77.67-.23.85,2,.68,3.35.59,3.85,3,.67,3.28-.84,7.88-1.45,11.17A126.39,126.39,0,0,1,86.28,35c-.19.54.66.77.85.24Z"/><path class="cls-2" d="M39.82,55.63c-6.2,1.06-13.42-1.85-18.7-5.08-2.53-1.54-5.26-2.69-7.78-4.22A33.69,33.69,0,0,1,10,43.86c-.49-.34-1-.66-1.49-1Q4.7,40.46,10.29,38.7a.44.44,0,0,0,.45-.76c-1.61-1-4.8-.31-5.19,1.88-.49,2.74,4.52,5.39,6.19,6.52a93.11,93.11,0,0,0,12.09,6.82c5,2.33,10.76,4.26,16.23,3.31.55-.09.32-.94-.24-.84Z"/></g></g></svg>