<svg xmlns="http://www.w3.org/2000/svg" viewBox="0 0 948.28 601.06"><defs><style>.cls-1,.cls-3{fill:none;}.cls-2{fill:#38301f;}.cls-3{stroke:#38301f;stroke-miterlimit:10;}.cls-4{fill:#723a29;}.cls-5{fill:#eae3ca;}.cls-6{fill:#ca7529;}</style></defs><title>headphones_1</title><g id="Layer_2" data-name="Layer 2"><g id="headphones"><path class="cls-1" d="M510.2,37.06c8.6-17.45,26.66-28.76,45.52-33.53s38.65-3.82,58-2.26A985.3,985.3,0,0,1,855.27,51.73c23.23,8,47,17.39,64,35.08,18.31,19,26.83,45.74,28.59,72.06s-2.62,52.62-7,78.64"/><path class="cls-1" d="M526.69,205.08A261.91,261.91,0,0,1,501.44,54.15c1.24-9.25,4.08-19.89,12.71-23.46,3.92-1.62,8.33-1.4,12.57-1.15l52.12,3.09a184,184,0,0,1,20.84,2c9.71,1.69,19.07,4.92,28.46,7.89,13.52,4.28,27.2,8,40.87,11.79l57.22,15.72c11.26,3.1,22.56,6.2,34.12,7.8,12.5,1.74,25.18,1.71,37.72,3.15,17.12,2,33.79,6.64,50.37,11.3,23.95,6.74,49.32,14.34,65.7,33.07,7.19,8.21,12.18,18.11,16.23,28.24a194.24,194.24,0,0,1,.84,140.53c-4,10.41-12.6,22.34-23.39,19.49"/><path class="cls-2" d="M527.38,214.79c19.55-2.61,38,.42,56.87,5.55,17.73,4.83,35.53,8.81,53.55,12.43,17.77,3.58,35.86,4.87,53.79,7.42s35.59,7.19,53.6,9.86C783,255.66,818.9,272.78,854,287.3q13.1,5.43,26.27,10.68c7,2.79,14.53,6,19.64,11.73,11.85,13.32,1.11,32.19-7.46,44.08-18.57,25.81-43.51,52-75.62,59.25-19,4.28-39.37,2.77-58.44-.22C739.5,409.87,721,405,702.55,400.07q-57.93-15.65-115.82-31.42c-38.25-10.37-76.65-20.29-114.66-31.54q-13.95-4.12-27.8-8.64c-7.58-2.49-15.39-4.75-22.34-8.76-5.44-3.14-11.51-7.9-11.45-14.8.06-8,7.94-15.16,12.67-20.9,22.26-27,47-55.09,81.17-66.6A91,91,0,0,1,529,212.65c6.4-.32,6.44-10.32,0-10-37.64,1.85-68.9,25-93.58,51.81-6.71,7.27-13.08,14.84-19.38,22.48-5.41,6.56-12,13.22-14.6,21.52-4.86,15.46,8.26,27,21,32.7,17.85,8,37.54,12.91,56.29,18.32,20.34,5.85,40.79,11.31,61.22,16.85L665.6,400.41c39.76,10.79,80.19,24.12,121.73,25.08,19.07.44,37.89-2.41,55-11.23,15.18-7.85,28.25-19.47,39.68-32,19.4-21.34,52.42-61.81,18-85.51-6.73-4.63-14.6-7.38-22.14-10.4-9.75-3.9-19.44-7.92-29.14-11.95-19.14-7.94-38.31-15.86-57.88-22.71-9.82-3.43-19.76-6.91-29.95-9-9.86-2.05-19.89-3-29.78-4.81-9.66-1.79-19.1-4.44-28.81-6s-19.32-2.76-29-3.89c-19.07-2.23-37.58-5.9-56.39-9.63-20-4-39.25-11.35-59.58-13.78a118.74,118.74,0,0,0-29.9.32c-6.28.84-6.37,10.85,0,10Z"/><path class="cls-1" d="M113.93,248.67c-18.83,5.49-32.79,10-52.28,7.9a76.24,76.24,0,0,1-46.53-22.86c-5-5.27-9.36-11.36-11.71-18.26-4.83-14.13-.75-30.19,7.66-42.53s20.69-21.52,33.31-29.5c10.09-6.39,20.86-12.27,32.67-14,16-2.4,32.12,3,46.47,10.34a98.74,98.74,0,0,1,15.39,9.5,70.75,70.75,0,0,1,26.46,63,40.17,40.17,0,0,1-3.68,13.42c-2.93,5.78-7.78,10.39-13,14.21-10,7.29-22.84,12.18-34.74,8.79,7.44,3.15,13.9,8.38,21.46,11.23a37.41,37.41,0,0,0,47.51-50c-3.49-8-10.6-15-19.29-15.72"/><path class="cls-1" d="M122.8,140c-12-.9-24,1.52-35.58,5-13.19,3.95-26.92,6.88-39,13.43L27.53,157l47.63-25.66C88.34,128.63,104.93,133,122.8,140Z"/><path class="cls-2" d="M808,294.72c7.7-1.9,14.77-1.15,22.42.54,7,1.55,14.12,2.92,21,5.09,13.44,4.26,26.63,12.18,31.29,26.26,5.06,15.29-4.26,26.43-17,33.61a328.14,328.14,0,0,1-42.89,19.87c-15,5.76-30.6,10.32-46.59,12.25-16.3,2-32.45.63-48.54-2.37-15.06-2.81-31.08-5.65-44.4-13.62-12.56-7.52-21.52-19.54-33.05-28.39a73.34,73.34,0,0,0-35.95-14.51c-15.28-1.83-29.91,2.44-44.77,5.29-17.49,3.35-34.73,1.83-52-1.8-14.87-3.13-31.15-6-44.88-12.79-12-5.91-23.82-18.48-20.67-33,.51-2.33,2.29-4.56,1.79-6.92-.44-2.11-1.63-4-2-6.24-1.18-7,.7-14.36,4.05-20.55,7.31-13.5,21.11-21,35.13-25.9,14.77-5.16,30.53-9.8,46.08-11.73s32.44-.12,45,10.08c9.24,7.51,15.7,17.86,25,25.36,20.48,16.59,46.6,5.08,69.23.31a73,73,0,0,1,19.64-1.82c3.22.19,3.21-4.81,0-5-20.47-1.27-39.44,8.83-59.62,10.19-10,.67-19-1.54-26.74-8.06-6.83-5.77-12.16-13.05-18.41-19.4-15.28-15.55-35.92-19.34-57-16.29-12.07,1.75-23.9,5.21-35.56,8.68-10.18,3-20.42,6.62-29.36,12.45-16.05,10.44-28.59,31.09-19.87,50.14V283.9c-7.76,16.18,2.41,33.72,16.57,42.26,8.32,5,17.8,7.73,27.15,10.1,11.47,2.92,23,5.8,34.68,7.63C539,345.67,550.49,346.42,562,345c11.15-1.39,21.94-4.67,33.06-6.23,22.9-3.21,43.61,4.61,60.29,20.21,6.93,6.47,13.44,13.46,21.2,19,8.55,6.08,18.52,9.72,28.61,12.31,21.55,5.55,44.25,9.54,66.54,7.57,21.61-1.92,42.44-8.5,62.33-16.92,10.46-4.43,20.77-9.28,30.83-14.55,7.36-3.86,14.78-8.42,19.58-15.4,11.63-16.91.39-38.3-15.09-48-9.3-5.84-20-8.67-30.68-11-10.91-2.35-20.9-4.8-32-2.06-3.13.77-1.8,5.59,1.32,4.82Z"/><polygon class="cls-3" points="787.85 289.1 808.07 318.45 800.64 274.69 787.85 289.1"/><path class="cls-1" d="M529.12,28.72C517.93,28.31,569.4,3.3,590.73,1a95,95,0,0,1,23,.31C757.65,19.5,910.11,51.89,922.68,92.14c3.22,10.3-24.31,21.93-16,24.66C906.67,116.8,718.13,35.74,529.12,28.72Z"/><path class="cls-2" d="M408.88,319.83l70.25,18.89,148.76,40,134,36,32.79,8.82a10.56,10.56,0,0,0,2.76.74,3.06,3.06,0,0,0,.38.1h0a3.48,3.48,0,0,1-2.39-1.55c-.06.14.47.54.46.72s1.07,2.28.57,1.05c3,7.52,2.74,16.17,2.66,24.34-.24,25.91-4.12,52-9.07,77.34-2.28,11.67-4.86,23.31-8.22,34.72-1.22,4.13-2.52,8.24-4.12,12.24A39.77,39.77,0,0,1,776,577c-.31.59-.65,1.15-1,1.73a8.63,8.63,0,0,1-.48.75c-.7,1.06.42-.67-.05.11-.13.21-.69.9-.91.92.75-.09.44-.51,1-.62a2.9,2.9,0,0,1,3.29,1.1l-1.8,6.84c6-3,9-11.42,11.36-17.17a227.17,227.17,0,0,0,10-32.59c6.56-27.12,11.07-55.37,11.27-83.32.09-12.07-.36-25.06-4.75-36.46l-4.83,6.33c28.53-3.47,53.87-17.35,75.14-36.27a198.61,198.61,0,0,0,29-31.82c8.84-12.25,15-26.34,12.32-41.66l-9.64,2.65c14.57,54.36,12.27,114.13-12.56,165.23a205.56,205.56,0,0,1-42.64,58.78,185.2,185.2,0,0,1-29.31,23c-10.85,6.83-22.53,13.21-35.18,15.85-15.41,3.21-31.44.44-46.62-2.61-14.65-2.95-29.26-6.14-43.84-9.42q-45.25-10.2-90.06-22.23c-26.4-7.08-53.05-14-78.7-23.56-22.34-8.28-44.45-19.14-61.93-35.63-21.58-20.34-31.93-47.66-37.46-76.24-6.09-31.47-8.63-63.78-12.42-95.59-.75-6.31-10.76-6.39-10,0,3.57,30,6.32,60.18,11.29,89.95,4.5,26.93,12.34,53.83,29.4,75.64,32.36,41.38,87.25,55.68,135.5,69.15q47,13.13,94.59,24.22,23.78,5.55,47.66,10.59c15.43,3.25,31.1,6.94,47,7.1,27.51.26,52.25-14.36,73.24-30.94a209.11,209.11,0,0,0,50.11-58c33.22-56.41,38.4-125.38,21.62-187.94-1.69-6.32-10.74-3.58-9.64,2.65,2.45,13.95-5.85,27.2-14.12,37.68A204.11,204.11,0,0,1,866,382.29c-18.84,16.47-41.75,29.24-66.88,32.29-2.87.35-6.12,3-4.82,6.33,3.56,9.22,4.23,19.33,4.38,29.11a279.87,279.87,0,0,1-2.37,38.6c-3,24.74-7.89,49.91-16.28,73.43A83.79,83.79,0,0,1,775,574c-.43.8-.89,1.57-1.36,2.34-.22.36-1.42,2-.81,1.24a10.63,10.63,0,0,1-1.16,1.26c-.77.65.78-.33-.6.36-2.24,1.13-3.33,4.76-1.8,6.84,11.89,16.13,21.77-20.5,23.47-26.69,7.15-26.07,11.62-53.07,14.45-79.93a279.18,279.18,0,0,0,1.91-36.56c-.21-7.81-.41-17.16-4.47-24.13-2-3.41-4.31-4-7.67-4.87l-13.33-3.58L660.33,377.08l-157.8-42.43c-29.85-8-59.6-16.76-89.62-24.09-.46-.11-.91-.25-1.37-.37-6.22-1.67-8.88,8-2.66,9.64Z"/><path class="cls-2" d="M598.72,307.41c1.09-5.14,2.16-10.29,3.26-15.42.37-1.76.6-4.75,1.74-6.23,2.65-3.43,6.77-1.46,9.7.1,3.51,1.88,9.76,10.81,14.45,6.36,2-2,1.83-5.48,2.43-8,.35-1.49.72-3.29,1.87-4.4,2.15-2.08,5.92-1.15,8.53-1.16,8.88,0,16.77-4,24.43-8.11l-3.68-2.82c-3,8.87-9.22,14.31-17.48,18.16-5,2.35-10.15,5.68-9.14,12,.62,3.91,3.06,7.63,4.35,11.35,1.58,4.56,2.66,9.48,1.28,14.25-2.9,10-14.2,9.49-22.57,8.75-3.2-.28-3.18,4.72,0,5,7.44.66,16.18,1,22.23-4.17,6.51-5.6,6.89-14.89,4.69-22.63-1.12-3.91-6.24-11.76-4.67-15.47s7.35-4.95,10.66-6.79a33.88,33.88,0,0,0,15.47-19.09c.73-2.17-1.85-3.8-3.67-2.83-5,2.67-10.08,5.49-15.64,6.73-4.68,1-9.58-.25-14.13,1a9.61,9.61,0,0,0-6.55,6.19,28.43,28.43,0,0,0-1.27,5.32c-.55,2.94-.3,3.11-2.85.75-4.74-4.38-14-10.54-20.35-5.79-2.45,1.83-3.41,4.84-4.11,7.68-1.46,5.94-2.54,12-3.8,18-.66,3.14,4.16,4.48,4.82,1.33Z"/><path class="cls-2" d="M670.54,284.19c2.55,9.74,14.41,15.31,23.12,18.08a129.29,129.29,0,0,0,40.71,6.24c21.06-.24,48.31-4.19,60.52-23.53,4.1-6.49,6.09-14.3,1.5-21-4.35-6.34-11.72-10.55-18.55-13.65-19.32-8.76-42.21-11.77-63.07-7.77A58,58,0,0,0,683.84,259c-5.85,5.87-14.33,15.49-13.39,24.54.33,3.17,5.33,3.2,5,0-.71-6.88,5.69-14.29,10-19,6.67-7.27,14.69-13,24.25-15.68,18.16-5.12,38.24-3.56,56.08,2.12,10.42,3.32,32.9,11.63,27.43,26.42-7.07,19.09-31,23.93-48.87,25.57a122.41,122.41,0,0,1-38.87-2.62c-5.65-1.31-11.63-2.82-16.91-5.29-4.77-2.24-11.73-6.76-13.16-12.23C674.55,279.75,669.72,281.07,670.54,284.19Z"/><path class="cls-2" d="M669.17,280.63,673,321.49c1.11,11.73,1.49,24.05,6.62,34.87,8,16.77,25.59,27.4,43.42,30.55,22.33,3.94,44.89-3.63,64.25-14.37,8.2-4.55,19.08-9.63,22.22-19.19,2.34-7.1,4-12.84,2.56-20.28-3.27-16.55-12.59-31.53-19.92-46.5-1.42-2.89-5.73-.35-4.32,2.53,5.77,11.79,12.29,23.23,16.66,35.65,1.9,5.38,4.38,12.15,3.1,17.93-.8,3.6-2,8.31-3.77,11.54-2.58,4.81-8.54,7.78-13,10.51-17.95,10.87-38.66,19.51-60,18.11-17.48-1.15-35.7-9.92-44.84-25.34-6.42-10.84-6.74-23.79-7.89-36l-3.85-40.86c-.29-3.17-5.3-3.21-5,0Z"/><path class="cls-2" d="M512.79,344.54c-6.89,5.83-10.65,19.19-2.58,25.31,6.21,4.7,14.69,6.23,22,8.36q13.6,4,27.29,7.7,27.36,7.45,55,13.86,13.63,3.15,27.31,6.06c8.6,1.82,17.38,4.2,26.14,5,7,.65,12.88-1.11,17.6-6.37,3.45-3.83,7.53-9.89,5.46-15.27-1.14-3-6-1.68-4.82,1.33,2.12,5.52-5.7,13.47-10.62,14.92-4.42,1.3-9.25.25-13.66-.59-5-1-10-2-15-3.05q-27.54-5.76-54.82-12.57-27.52-6.86-54.77-14.74c-4.85-1.41-9.72-2.78-14.54-4.3-3.62-1.14-7.9-2.37-10.6-5.21-4.14-4.34.32-13.64,4.18-16.9,2.46-2.08-1.09-5.6-3.54-3.54Z"/><path class="cls-1" d="M679,60.48c-3.08-.83-6.38,1.2-7.91,4s-1.66,6.14-1.43,9.32c.28,3.86,1.11,7.86,3.5,10.91,3.32,4.23,8.9,5.82,14.1,7.18L714.56,99c6.59,1.72,13.22,3.44,20,4,3.93.31,8,.19,11.64-1.31s6.81-4.6,7.52-8.48C755,86.44,749,80.78,743.55,76.6Z"/><path class="cls-1" d="M125.86,251.32c6.28,1.58,12.83,3.17,19.15,1.78,8.71-1.91,15.2-9,20.61-16.12,3.47-4.53,6.79-9.3,8.59-14.72s1.9-11.63-.9-16.6c-2.67-4.76-2.72-5.29-7.58-7.79"/><path class="cls-1" d="M157.19,245.55a20.47,20.47,0,0,0-11.36-1.37"/><path class="cls-1" d="M171.73,224.37a17.82,17.82,0,0,1-5.17-10"/><path class="cls-2" d="M822.79,370.69q-6.46-32.73-12.91-65.47c-3.4-17.22-4.76-38-19.06-50.21-11.79-10-28-12.82-43-13.58-18.52-1-38.16,0-55.06,8.42-15.88,7.88-26,21.72-29.78,38.9-2,8.9-2.56,18.07-3,27.16s-.86,18.28.92,27.24c2.56,12.89,11.88,25.74,23.66,31.85a218.37,218.37,0,0,0,37.19,14.81c18.23,5.51,38.36,7.09,57.28,5.31A103.68,103.68,0,0,0,809.23,388c8.4-3.5,15.37-7.13,13.56-17.27-.57-3.16-5.39-1.82-4.82,1.33,1.69,9.49-14.26,13-21.26,14.94a112.8,112.8,0,0,1-26.23,3.68c-15,.45-30.47-.8-44.9-4.91a225.7,225.7,0,0,1-35.09-13.36c-10.61-5.05-20-14.32-23.59-25.8-2.51-8-2.47-16.55-2.18-24.84a224.56,224.56,0,0,1,1.87-25.13c2.55-17.07,10-31.79,25.3-40.61,15.58-9,34.06-10.17,51.65-9.72,13.94.36,29.21,2,41,10.18,16.34,11.29,17.36,34.09,20.87,51.91Q811.7,340.19,818,372C818.59,375.17,823.41,373.84,822.79,370.69Z"/><path class="cls-1" d="M549.32,205.26c-9.23-5.62-15.65-14.87-20.66-24.44-18.45-35.19-20.84-77.14-13.61-116.21,2.36-12.77,5.91-25.78,14.07-35.89"/><path class="cls-1" d="M91,227.65c-3.26-15.8,14.61-9.47,43.85-24.61,11.86-6.14,13.39-11.85,13.39-11.85,7.1-6.54,8.61-10.71,11.13-10.26,4.18.75,6,12.23,6,19.85.06,8.28.43,28.19-15,39.75-12.59,9.44-29.36,8.58-34.24,6.72a13.07,13.07,0,0,0-4-.91c-4.33-.28-7.54,1.85-9.79,3-1.88,1-6.14,1.9-14.67,3.67-5.64,1.18-19.82,4.12-20.48,2.14-.47-1.4,6.49-3.31,13.14-9.78C87.35,238.69,92.66,235.53,91,227.65Z"/><path class="cls-1" d="M51.58,254.78c3.6-.25,25.11-2.19,35.86-20.13,9.72-16.2,3.88-33.88,2-38.62-5-12.4-14.56-22.56-25.66-30-6-4-11.84-8.05-20.45-8.67-9.8-.71-17.29,3.32-21,5.4-13.49,7.49-23.4,20.51-20.93,43.33C4.37,234,27.38,256.48,51.58,254.78Z"/><path class="cls-2" d="M432.87,438.88c1.38-1.28,8.09,3.31,9.26,4,5.59,3.19,11.08,6.56,16.63,9.8q19.9,11.66,40.67,21.75c26.21,12.71,53.68,21.87,81.79,29.33,37.12,9.86,74,20.6,110.44,32.6,17.1,5.63,33.7,12,49.41,20.91,9.48,5.36,20.4,11.41,27.59,19.81,1.28,1.5,2.2,1.77,1,2.34-1,.47-2.91.14-4,.1a150.67,150.67,0,0,1-15.57-1.59c-17.93-2.47-35.74-5.91-53.46-9.56C646,557.86,595.56,544.94,546.4,528.55c-24.31-8.11-48.74-16.9-71.75-28.26-10.39-5.12-18-14.9-24.41-24.28-6.19-9.12-11.85-19-15.66-29.4-.62-1.69-2.74-6.07-1.62-7.85.43-.69-.65-1.31-1.08-.63-.94,1.49-.05,4,.38,5.47A76.88,76.88,0,0,0,437,455.46,146.21,146.21,0,0,0,457,487,64.2,64.2,0,0,0,469,498.46c4.77,3.32,10.38,5.48,15.66,7.84,12.12,5.4,24.45,10.3,36.89,14.88,52.81,19.44,107.57,33.9,162.54,45.77,20.31,4.38,40.72,8.46,61.27,11.51,6,.89,12,1.75,18.08,2.16,1.53.1,6.37,1,7.64-.41,5.21-5.75-40.87-30.13-44.33-31.77-17.66-8.33-36.45-14-55-19.85q-29.52-9.35-59.35-17.7c-34-9.54-68.34-17.67-100.71-32.15-13.81-6.18-27.33-13.11-40.55-20.46-7.25-4-14.38-8.26-21.51-12.49-4.28-2.54-8.58-5.4-13.18-7.34-1.25-.53-3.24-1.57-4.45-.45C431.39,438.55,432.28,439.43,432.87,438.88Z"/><path class="cls-2" d="M914.11,333.05c14.33,40.23,5.67,87.13-8.05,126.28-14.35,40.92-38,84-74.57,109.08-17,11.65-37.15,18.33-57.74,14.46l-.17,1.22c16.6,1.77,30.9-9.51,41.44-21.08,15.81-17.33,27.36-38.52,37.56-59.48,21.83-44.84,37.76-92.44,52.46-140,2.38-7.73,4.7-15.48,7.14-23.18.64-2,1.56-4.08,2.05-6.14.11-.46.6-1,.63-1.48s-.76-.62-.77.16a.63.63,0,0,0,1.25,0c0-2.67-1.69-.5-2.19.65-1.87,4.36-3,9.14-4.41,13.66-6,19.47-12,38.94-18.5,58.25-8.78,26.07-18.31,51.93-29.36,77.13-10.33,23.55-21.87,47.09-37.19,67.84-11.5,15.57-28.67,34.7-50.11,32.42-.7-.07-.86,1.1-.17,1.23,39.39,7.41,73.31-21.61,95.38-50.94,28.24-37.54,46.54-84.4,52.08-131,2.75-23.08,2.32-47.32-5.55-69.42C915.05,332,913.84,332.29,914.11,333.05Z"/><path class="cls-2" d="M672.76,279.48c17.34-11.78,37.44-11,57.3-7.75a262.94,262.94,0,0,1,55.39,15.45c.75.3,1.07-.91.34-1.21a261.78,261.78,0,0,0-61-16.29c-18.47-2.56-36.8-2.07-52.68,8.72-.66.45,0,1.53.63,1.08Z"/><path class="cls-2" d="M594,327.29c-.5-2.31-1-4.61-1.32-7a13.8,13.8,0,0,1-.28-3.08q6.55-5.21,7.47-.92c1.09,2.08,2.61,7.73,2.34,10.14-.71,6.46-7.09,5.18-9.37,2.44-.57-.67-.73-1.72-1.31-2.43a6.14,6.14,0,0,0-4.32-2.35c-8.84-.88-8.44,11.82-.33,13.22.79.14,1.13-1.06.34-1.2-1.61-.28-5-2.65-5.4-4.2l4.73-6.64,4.64,3.06c.92,1,1,2.4,2.23,3.22,1.46,1,3.68.85,5.31.56,6.23-1.11,4.73-7.23,3.51-11.81-.89-3.37-2.23-11.27-7.62-9.08-6,2.44-2.77,12-1.83,16.36.17.78,1.38.45,1.21-.33Z"/><path class="cls-1" d="M93.27,215.4c-3,3.61-7.88,4.84-12.49,5.54a103.51,103.51,0,0,1-64.46-11.26C9.79,206.14,3.4,201.61,0,195"/><path class="cls-1" d="M113,249.28c.74-.15,1.49-.27,2.24-.39,2.84-.45,5.7-.78,8.49-1.47,10.4-2.57,19.27-10.14,24.19-19.65s6-20.78,3.87-31.26c-.65-3.14-1.73-6.46-1.73-6.46l9.35-9.12c9.26,35.12,2.21,63.63-45.67,68.2"/><path class="cls-4" d="M409.57,324.41,798.52,429c16.89,18.88-13.61,180.95-25.58,163.88C787.73,586,813.66,467.18,798.52,429c38.14-4.34,71-29.77,95.13-59.58,10.18-12.54,19.67-28,16.46-43.85,13.12,48.26,12.74,100.58-4.07,147.68s-50.54,88.53-94.77,111.88a96.71,96.71,0,0,1-22.48,9c-18,4.28-36.8.78-54.89-3Q647.83,573.37,563.3,549c-44-12.69-90.7-28.89-117.23-66.19-20.65-29-25.49-66.08-29.71-101.47q-2.89-24.24-5.78-48.48l-1-8.44"/><path class="cls-2" d="M408.24,329.23l70.25,18.88,148.76,40,134,36L794.05,433a11,11,0,0,0,2.76.75,3.06,3.06,0,0,0,.38.1h0a3.52,3.52,0,0,1-2.39-1.55c-.06.14.47.54.46.72s1.07,2.28.57,1c3,7.51,2.74,16.16,2.66,24.33-.24,25.92-4.12,52-9.07,77.34-2.28,11.67-4.86,23.32-8.22,34.73-1.22,4.13-2.52,8.24-4.12,12.24-.41,1-.91,2.2-1.69,3.7-.31.58-.65,1.15-1,1.73a7.2,7.2,0,0,1-.48.74c-.7,1.07.42-.66-.05.12-.13.2-.69.89-.91.92.75-.09.44-.52,1-.62a2.9,2.9,0,0,1,3.29,1.09l-1.8,6.84c6-3,9-11.42,11.36-17.17a227,227,0,0,0,10-32.58c6.56-27.13,11.07-55.37,11.27-83.33.09-12.06-.36-25.06-4.75-36.45L798.52,434c28.53-3.47,53.87-17.35,75.14-36.27a198.25,198.25,0,0,0,29-31.83c8.84-12.25,15-26.34,12.32-41.66l-9.64,2.66C919.86,381.24,917.56,441,892.73,492.1a205.6,205.6,0,0,1-42.64,58.79,185.14,185.14,0,0,1-29.31,22.94c-10.85,6.84-22.53,13.21-35.18,15.85-15.41,3.22-31.44.45-46.62-2.6-14.65-3-29.26-6.14-43.84-9.42q-45.25-10.2-90.06-22.23c-26.4-7.09-53.05-14-78.7-23.56-22.34-8.29-44.45-19.14-61.93-35.63C442.87,475.89,432.52,448.58,427,420c-6.09-31.48-8.63-63.78-12.42-95.59-.75-6.31-10.76-6.39-10,0,3.57,30,6.32,60.18,11.29,89.95,4.5,26.92,12.34,53.83,29.4,75.63,32.36,41.39,87.25,55.68,135.5,69.15q47,13.13,94.59,24.23Q699.13,588.92,723,594c15.43,3.25,31.1,6.94,47,7.09,27.51.27,52.25-14.35,73.24-30.94a209.07,209.07,0,0,0,50.11-57.94c33.22-56.42,38.4-125.39,21.62-187.95-1.69-6.31-10.74-3.58-9.64,2.66,2.45,13.94-5.85,27.2-14.12,37.68a205.34,205.34,0,0,1-25.77,27.13c-18.84,16.47-41.75,29.23-66.88,32.29-2.87.35-6.12,3-4.82,6.33,3.56,9.21,4.23,19.33,4.38,29.11a280,280,0,0,1-2.37,38.6c-3,24.74-7.89,49.91-16.28,73.43a84.28,84.28,0,0,1-5.08,11.9c-.43.79-.89,1.57-1.36,2.34-.22.35-1.42,2-.81,1.23a9.9,9.9,0,0,1-1.16,1.26c-.77.65.78-.33-.6.37-2.24,1.12-3.33,4.76-1.8,6.84,11.89,16.13,21.77-20.5,23.47-26.7,7.15-26.06,11.62-53.07,14.45-79.92a279.18,279.18,0,0,0,1.91-36.56c-.21-7.82-.41-17.17-4.47-24.14-2-3.4-4.31-4-7.67-4.87L783,419.62,659.69,386.47l-157.8-42.42c-29.85-8-59.6-16.76-89.62-24.09l-1.37-.37c-6.22-1.68-8.88,8-2.66,9.64Z"/><path class="cls-2" d="M512.15,353.94c-6.89,5.83-10.65,19.19-2.58,25.31,6.21,4.7,14.69,6.22,22,8.36q13.6,4,27.29,7.7,27.36,7.44,55,13.85,13.64,3.16,27.31,6.06c8.6,1.83,17.38,4.2,26.14,5,7,.65,12.88-1.12,17.6-6.37,3.45-3.84,7.53-9.9,5.46-15.27-1.14-3-6-1.69-4.82,1.32,2.12,5.52-5.7,13.47-10.62,14.92-4.42,1.3-9.25.26-13.66-.59-5-1-10-2-15-3.05q-27.54-5.74-54.82-12.57-27.52-6.86-54.77-14.74c-4.85-1.4-9.72-2.78-14.54-4.29-3.62-1.14-7.9-2.37-10.6-5.21-4.14-4.34.32-13.64,4.18-16.91,2.46-2.08-1.09-5.6-3.54-3.53Z"/><path class="cls-5" d="M431.78,447.84c2-2.5,19.84,10.78,48.38,25.78C511.31,490,534.77,500.44,582.63,513q59.89,15.75,118.66,35.46c36.36,12.2,65.75,33.2,69,40.09C773.76,596,578.11,560.46,473.17,510,451.52,499.56,428.72,451.63,431.78,447.84Z"/><path class="cls-2" d="M432.23,448.28c1.38-1.29,8.09,3.31,9.26,4,5.59,3.18,11.08,6.55,16.63,9.8q19.9,11.64,40.67,21.74c26.21,12.72,53.68,21.87,81.79,29.34,37.12,9.86,74,20.59,110.44,32.6,17.1,5.62,33.7,12,49.41,20.91,9.48,5.35,20.4,11.41,27.59,19.81,1.28,1.5,2.2,1.77,1,2.33-1,.48-2.91.14-3.95.11a150.69,150.69,0,0,1-15.57-1.6c-17.93-2.46-35.74-5.9-53.46-9.56-50.73-10.47-101.15-23.39-150.31-39.79C521.45,529.83,497,521,474,509.68c-10.39-5.12-18-14.89-24.41-24.28-6.19-9.12-11.85-19-15.66-29.4-.62-1.69-2.74-6.06-1.62-7.85.43-.68-.65-1.31-1.08-.63-.94,1.5-.05,4,.38,5.48a76.77,76.77,0,0,0,4.76,11.85,146,146,0,0,0,19.94,31.54,63.94,63.94,0,0,0,12.06,11.47c4.77,3.32,10.38,5.48,15.66,7.83,12.12,5.4,24.45,10.3,36.89,14.88,52.81,19.44,107.57,33.9,162.54,45.77,20.31,4.39,40.72,8.47,61.27,11.52,6,.89,12,1.75,18.08,2.16,1.53.1,6.37,1,7.64-.42,5.21-5.74-40.87-30.13-44.33-31.76-17.66-8.34-36.45-14-55-19.86q-29.52-9.35-59.35-17.7c-34-9.53-68.34-17.67-100.71-32.15C497.22,482,483.7,475,470.48,467.67c-7.25-4-14.38-8.25-21.51-12.48-4.28-2.54-8.58-5.41-13.18-7.35-1.25-.52-3.24-1.57-4.45-.44C430.75,447.94,431.64,448.83,432.23,448.28Z"/><path class="cls-6" d="M914.07,342.28c32,88.57-50.85,268.22-141.13,250.58C849.23,601.62,914.55,325.24,914.07,342.28Z"/><path class="cls-2" d="M913.47,342.45c14.33,40.22,5.67,87.13-8.05,126.27-14.35,40.93-38,84-74.57,109.08-17,11.66-37.15,18.34-57.74,14.46l-.17,1.23c16.61,1.76,30.9-9.52,41.44-21.08,15.81-17.34,27.36-38.52,37.56-59.49,21.83-44.83,37.76-92.43,52.46-140,2.38-7.72,4.7-15.47,7.14-23.18.64-2,1.56-4.07,2.05-6.13.11-.47.6-1,.63-1.48s-.76-.63-.77.15a.63.63,0,0,0,1.25,0c0-2.67-1.69-.49-2.19.66-1.87,4.35-3,9.13-4.41,13.65-6,19.48-12,39-18.5,58.26-8.78,26.06-18.31,51.93-29.36,77.12-10.33,23.56-21.86,47.09-37.19,67.85-11.5,15.57-28.67,34.69-50.11,32.42-.7-.07-.86,1.1-.17,1.23,39.39,7.41,73.31-21.61,95.38-51,28.24-37.53,46.54-84.4,52.08-131,2.75-23.07,2.32-47.32-5.55-69.41C914.41,341.37,913.2,341.69,913.47,342.45Z"/><path class="cls-4" d="M417.58,268.59c27.77-16.7,87.23-78.67,105.12-78.22,138.61,3.5,341.14,54,363.32,76,6.83,6.77-51.7,89.57-81.84,89.31C796.88,355.64,432.25,279.9,417.58,268.59Z"/><path class="cls-2" d="M420.1,272.91c17.28-10.52,32.39-24.93,47.65-38.07,15-12.9,30.14-27.69,47.75-37a30.08,30.08,0,0,1,3.65-1.69c.72-.26,3.32-.82,2.69-.77,5.52-.5,11.48.31,17,.58,13.16.64,26.3,1.63,39.42,2.87,27.42,2.59,54.73,6.28,81.91,10.71,50.21,8.2,100.22,18.65,149.22,32.39,17.28,4.85,34.54,10.05,51.25,16.63a129.79,129.79,0,0,1,15.6,7.13,41.64,41.64,0,0,1,5.19,3.28c-1.25-1,1,.81.93.85s-1-1.63-.72-1.2c-.64-1.17.35-.64-.11,0,.65-.93-.19.67-.43,1.49s-.83,2.28-1,2.72a81.21,81.21,0,0,1-4.57,8.72,216.52,216.52,0,0,1-14.9,22c-11.34,14.9-24.42,30.17-40.15,40.59-5.13,3.4-10.52,6.06-16.39,6.54-1.05.09,1.59.3-.15,0-.9-.17-1.8-.31-2.71-.47-7.31-1.3-14.6-2.77-21.89-4.23-28.1-5.6-56.15-11.44-84.19-17.33q-54.72-11.51-109.34-23.48c-33.89-7.45-67.77-15-101.53-23.09-20.18-4.82-41.09-9-60.62-16.16l-1.55-.58c-1.25-.47.94.53-.26-.11a13,13,0,0,1-1.75-1c-5.16-3.85-10.15,4.83-5.05,8.64,4.13,3.08,10.6,4.28,15.43,5.7,10.61,3.11,21.34,5.82,32.07,8.48,32.49,8.07,65.15,15.43,97.83,22.7q56.83,12.63,113.8,24.65,46.29,9.8,92.66,19.22c9.16,1.85,18.32,3.69,27.5,5.42,5.92,1.12,11.07,2.26,17.09.57,17.08-4.8,31.43-20.1,42.88-32.85,12.27-13.67,24.11-28.74,32.59-45.11,2.22-4.28,5.29-9.79,4.54-14.82-.67-4.41-5.31-7-8.85-9.08-11.94-7-25.6-11.49-38.67-15.82-45.63-15.14-92.92-25.74-140.1-34.78-54.85-10.52-110.5-18.66-166.33-21.28-9-.43-17.15-1.49-25.44,2.5-7.92,3.81-15,9.41-21.92,14.79-18.35,14.31-35.44,30.15-53.39,45-6.94,5.72-14,11.44-21.69,16.12C409.56,267.61,414.58,276.26,420.1,272.91Z"/><path class="cls-4" d="M406.18,320.92c-1.39-.84,0-12.25,2.58-24.91a130.12,130.12,0,0,1,8.82-27.42c57.77,18.53,115.68,32,172.62,44.67,63,14,207.94,41.66,212,45.64,3.24,3.2,1.49,52.6-1,72.76,3.61-24.65,8.72-49,1-72.76,22.93-4.73,36-13.31,54.16-34.49,20.26-23.58,29.6-34.6,29.69-58,6.73,6,18.59,15.51,24.4,36.65,2.51,9.12,2.31,35.59-1.62,40.64-26.77,34.43-41.22,45.78-102.58,87.16C642.52,386.8,412.53,333.58,406.18,320.92Z"/><path class="cls-2" d="M409.71,317.39c1.58,1.72.87,2.26,1-.33,0-1.63.22-3.25.4-4.86.63-5.3,1.61-10.57,2.71-15.79a127.77,127.77,0,0,1,8.12-25.3l-5.64,2.3C493.05,298,572.12,315,651,331.2c30.45,6.25,60.93,12.38,91.36,18.73,18.69,3.91,37.74,7.28,56.05,12.77.41.12.81.34,1.22.43s-.89-.74-.26-.08-.91-.84-1-.94c-.79-.61-.1-1.26-.39-.45a4.49,4.49,0,0,0,.34,1.71c.91,6.41.66,13.12.59,19.58a433,433,0,0,1-2.79,48.71c-.68,5.54,9,6.91,9.82,1.33,3.71-25,8.73-50.59,1-75.42l-3.49,6.16c10.78-2.29,21.3-5.87,30.58-11.93,10.15-6.64,18.56-15.46,26.42-24.6,8.12-9.43,16.82-18.93,22.86-29.89,5.31-9.6,7.52-20,7.66-30.91l-8.54,3.53c10.94,9.7,19.84,20.52,23.3,35.14,1.42,6,1.38,12.47,1.27,18.59-.09,5.16.2,12.19-2.15,16.85-2.51,5-7.57,9.67-11.18,13.91-3.77,4.42-7.67,8.73-11.75,12.87a251.52,251.52,0,0,1-27.31,23.62c-16.53,12.51-33.79,24-51,35.63l3.85-.51c-67.55-18.17-135.41-35.16-203.2-52.42-53.93-13.74-108.18-26.89-161.4-43.22-8.16-2.5-16.33-5.07-24.28-8.18a42.79,42.79,0,0,1-6.28-2.8c-.79-.42-1.52-.93-2.29-1.38.76.45.68.64.13,0s.68,1.09.27.33c-3.09-5.65-11.73-.61-8.64,5.05s13.39,8.2,19,10.21c13.72,4.93,27.77,9,41.79,12.95,44.9,12.77,90.2,24.19,135.43,35.72,54,13.75,108,27.34,161.88,41.44q19.71,5.14,39.38,10.41c2.77.74,6,2.25,8.82,1.24,3.78-1.35,7.49-4.9,10.81-7.16q9.28-6.3,18.51-12.69c17.14-11.93,34.28-24.2,49.22-38.87a249,249,0,0,0,18.06-19.95c2.92-3.57,6.46-7.2,8.78-11.19,2-3.5,2.47-8,2.91-11.9,1.12-9.89,1.25-20.71-.85-30.49-2.54-11.84-9-23.13-17.16-31.94-2.78-3-5.83-5.67-8.87-8.37-3.2-2.83-8.48-1-8.54,3.54-.12,9.62-2.08,18.58-6.91,27-5.94,10.28-14.15,19.24-21.89,28.17-7.06,8.13-14.61,16.12-23.72,22-8.48,5.43-17.86,8.5-27.66,10.57a5.05,5.05,0,0,0-3.49,6.15c7.13,23,2.39,46.85-1.05,70.11l9.82,1.32a430.78,430.78,0,0,0,2.73-44.56c.13-6.58.2-13.2-.2-19.78-.22-3.66-.08-8.93-2.82-11.8-3.13-3.29-10-4-14.17-5-10.26-2.51-20.59-4.71-30.92-6.91C701,330.86,640.93,319.53,581.31,306.15c-54.61-12.25-109.07-25.33-162.4-42.38-1.91-.61-4.79.36-5.65,2.3a146,146,0,0,0-10.06,32.36,147.92,147.92,0,0,0-2.45,17c-.23,3.14-.37,6.55,1.89,9C407,329.22,414.06,322.13,409.71,317.39Z"/><path class="cls-6" d="M683.09,376.22c-3.86-5.38-10.78-7.41-17.2-9.06-41.72-10.72-74.65-20.57-117-28.18-1.9-.34-14-2.45-20,1.24-4,2.49-7.06,13.43-7.8,18.1l158.68,41.06C682.59,394.63,686.3,380.72,683.09,376.22Z"/><path class="cls-2" d="M684.85,374.45c-4.54-5.75-11.46-7.91-18.29-9.7-9.1-2.39-18.21-4.75-27.3-7.16-18-4.77-36-9.55-54.18-13.72q-13.94-3.19-28-5.89c-5.93-1.13-11.93-2.44-18-2.4-5.23,0-11,.79-14.3,5.26-3.47,4.68-5.15,11.16-6.13,16.82a2.58,2.58,0,0,0,1.75,3.08l139.09,36,19.58,5.07a2.55,2.55,0,0,0,2.83-1.15c3.66-6.61,7.51-18.59,3.31-25.68-1.63-2.77-6-.25-4.31,2.52,3.14,5.31-.6,15.72-3.32,20.64l2.82-1.15L541.34,361l-19.58-5.07L523.5,359c.86-5,2.15-12.18,5.85-15.88s11.43-2.73,16.17-2.13c15.16,1.93,30.32,5.8,45.17,9.33,15.52,3.69,30.94,7.78,46.36,11.87q12.19,3.24,24.41,6.42c7.19,1.86,15,3.24,19.86,9.39C683.31,380.51,686.83,377,684.85,374.45Z"/><path class="cls-5" d="M486.73,210.57c3.09,2-1.44,12.8-.3,26.38,2.56,30.64,224.67,84,344.33,68.72,0,0,39.5-2.26,47.79-18.55-.86,13.05-18.06,27.55-26.78,37.29,0,0-26.77,34.46-47.59,31.3-93.42-14.18-378.54-74.07-379.85-89.31C423.71,259.18,486.73,210.57,486.73,210.57Z"/><path class="cls-2" d="M486.29,211c2.44,2.12.17,9.91-.12,12.51-.5,4.47-1.19,9.66-.28,14.13a12.71,12.71,0,0,0,3,5.6c4.8,5.68,12,9.43,18.58,12.7,24.41,12.19,51.41,19.65,77.75,26.32A919.8,919.8,0,0,0,692,302.48c36,4.68,72.47,7.55,108.78,6.19a378.19,378.19,0,0,0,39.33-3.38c13-1.85,32.06-5.12,39-17.86l-1.17-.31c-1.55,15.32-17.29,26-26.6,36.86a174.18,174.18,0,0,1-15.14,16.07c-8.69,7.83-20.08,16.58-32.48,15-7.73-1-15.44-2.46-23.12-3.78-43.25-7.42-86.31-16-129.27-25-46.78-9.75-93.49-20-139.87-31.53-17.62-4.39-35.22-8.94-52.62-14.18-10.09-3-21.11-5.84-30.32-11.12-2.23-1.28-4.22-2.23-2.85-4.86,3.24-6.23,10.61-11.5,15.72-16,13.71-12.21,28.09-23.7,42.55-35l3.13-2.43c.62-.48,0-1.57-.64-1.08Q468.4,224,451,238.61c-7.47,6.3-15,12.66-21.77,19.76-1.79,1.89-6.47,5.85-5.21,8.94.86,2.08,4.18,3.42,6,4.32a120.22,120.22,0,0,0,13.8,5.45c15.64,5.39,31.67,9.68,47.66,13.86,47.21,12.34,94.9,22.88,142.63,33,46.2,9.79,92.53,19.11,139.06,27.27,8.51,1.49,17,2.94,25.57,4.29,4,.63,7.89,1.39,11.94.72,5.57-.92,10.77-3.6,15.45-6.67,8.94-5.88,16.74-13.59,23.66-21.71s15.15-15.39,21.7-24c3.78-5,7.08-10.43,7.72-16.74.07-.63-.88-.84-1.16-.32-6.69,12.28-25.28,15.4-37.84,17.23-11.1,1.61-22.42,2.55-33.61,3.13-34.65,1.8-69.51-.55-103.93-4.61a924.36,924.36,0,0,1-107.78-19.18c-27.24-6.55-54.82-14-80.45-25.51-8.17-3.67-17.26-7.8-23.6-14.33a12.42,12.42,0,0,1-3.9-9.32c-.19-5.8.73-11.44,1.33-17.18.23-2.16.82-5.27-1.06-6.9C486.57,209.61,485.68,210.49,486.29,211Z"/><path class="cls-6" d="M893.06,276.75c-2,26.72-13.22,52.27-29.36,73.65s-31.51,35.12-54,49.72c0,0-6,23-2.29,24,6.58,8,106-63.21,101.2-95.87C903.93,296.19,903.44,292,893.06,276.75Z"/><path class="cls-2" d="M892.44,276.75c-3.47,42.3-29,80.55-61.19,107-4,3.26-8.06,6.35-12.25,9.32-2.74,1.94-8,4.1-9.85,6.79-.53.76-.62,2.47-.83,3.33-.65,2.78-1.24,5.56-1.73,8.37-.69,3.9-3.46,14,3.25,13.71,6.08-.27,12.86-5.09,17.83-8.09a271.15,271.15,0,0,0,27.69-19.4c18.31-14.4,38.28-31.23,49.46-52.1a37.13,37.13,0,0,0,4.41-12.35c.91-6.92-1.3-14.43-2.38-21.22s-2.2-13.85-4.69-20.38a75.41,75.41,0,0,0-8.56-15.31c-.45-.66-1.53,0-1.08.63a72.4,72.4,0,0,1,12,28.73c2.09,11.27,5.93,23.71,1.38,34.76-3.93,9.57-10.83,17.94-17.72,25.53A261,261,0,0,1,861.85,391a311.12,311.12,0,0,1-27.75,20.72c-6.57,4.32-13.55,9-21,11.55-1.5.51-3.77,1.44-5.19.42-3-2.19-.12-11.67.47-14.63.43-2.16.91-4.31,1.42-6.45.67-2.8,1.94-3,4.5-4.69A225.38,225.38,0,0,0,835,382.23c31.05-26.58,55.27-64.07,58.67-105.48C893.75,276,892.5,276,892.44,276.75Z"/></g></g></svg>