<svg xmlns="http://www.w3.org/2000/svg" viewBox="0 0 954.29 593.87"><defs><style>.cls-1,.cls-5{fill:#eae3ca;}.cls-2{fill:#38301f;}.cls-3{fill:#723a29;}.cls-4{fill:#a34928;}.cls-5{stroke:#38301f;stroke-miterlimit:10;}.cls-6{fill:#ca7529;}.cls-7{fill:#da9b38;}</style></defs><title>heaphone2</title><g id="Layer_2" data-name="Layer 2"><g id="headphones"><path class="cls-1" d="M513.76,39.27c8.6-17.44,26.66-28.76,45.52-33.53s38.65-3.82,58-2.26A985.3,985.3,0,0,1,858.83,53.94c23.23,8,47,17.39,64,35.08,18.31,19,26.83,45.74,28.59,72.06s-2.62,52.62-7,78.64"/><path class="cls-2" d="M515.92,40.53c17.87-34.95,61.38-37.43,95.76-35A956,956,0,0,1,732.47,22.19,986.66,986.66,0,0,1,848.25,53c34.11,11.34,69.57,24.41,87.35,58.09,20.88,39.55,13.5,85.89,6.44,128-.53,3.15,4.28,4.5,4.82,1.33,6.56-39.08,13.26-80.52-1.1-118.74-6.24-16.61-16.23-31.5-30.19-42.57S885.33,60.86,868.8,54.82C789.43,25.81,705.24,8.4,621.11,1.29,582.53-2,532.07-2,511.6,38c-1.46,2.86,2.85,5.39,4.32,2.52Z"/><path class="cls-3" d="M530.25,207.29A261.91,261.91,0,0,1,505,56.36c1.24-9.25,4.08-19.89,12.71-23.46,3.93-1.62,8.34-1.4,12.58-1.15l52.11,3.09a184,184,0,0,1,20.84,2c9.71,1.69,19.07,4.92,28.46,7.89,13.52,4.28,27.2,8,40.87,11.79l57.22,15.72c11.26,3.1,22.56,6.2,34.12,7.8,12.5,1.74,25.19,1.71,37.72,3.15,17.12,2,33.79,6.64,50.37,11.31,24,6.73,49.32,14.33,65.71,33.06,7.18,8.21,12.18,18.11,16.23,28.24a194.29,194.29,0,0,1,.83,140.53c-4,10.41-12.6,22.34-23.39,19.5"/><path class="cls-2" d="M534.57,204.77C512.14,159.6,502.47,106.45,510,56.36c.73-4.82,1.74-10.1,4.45-14.25,3.4-5.22,8.44-5.7,14.23-5.45,13.4.59,26.8,1.59,40.2,2.38,14.09.83,28.3,1.06,42,4.63,12.79,3.33,25.27,7.82,38,11.47,27.07,7.77,54.29,15,81.45,22.47,13.54,3.71,27.08,7,41.09,8.32,13.44,1.24,26.9,1.41,40.22,3.79,13.71,2.45,27.13,6.26,40.52,10,10.66,3,21.37,6.11,31.57,10.48,10.43,4.47,20.44,10.35,28.34,18.59,8.5,8.88,14,20.2,18.31,31.59a190.53,190.53,0,0,1,11.44,83.11A187.15,187.15,0,0,1,933.19,286c-2.65,8.07-8.6,27.6-20.48,25.08-6.28-1.32-9,8.31-2.66,9.65,25.41,5.38,34-33.23,37.83-50.68a201.92,201.92,0,0,0,.78-81.9c-4.94-25-14.17-53.3-34-70.57C896,101.2,871.19,94.67,847.8,88.15c-13.95-3.89-28-7.53-42.37-9.45-15.26-2-30.77-1.65-45.95-4.37-14.76-2.64-29.18-7.1-43.62-11.07Q693,57,670.17,50.7c-14.21-3.91-28.37-8-42.42-12.45A175.92,175.92,0,0,0,584.3,30Q561.64,28.57,539,27.27c-12-.71-24.68-2.44-32.43,8.72-7.3,10.5-7.49,25.68-8.27,37.93a260.65,260.65,0,0,0,1.34,47.56,270.18,270.18,0,0,0,26.33,88.34c2.86,5.76,11.49.7,8.63-5Z"/><path class="cls-4" d="M530.94,212a115.11,115.11,0,0,1,29.9-.32c19.81,2.39,38.65,9.87,58.25,13.61,15.2,2.89,26.9,6.07,42.26,8,19.9,2.46,43.31,4.52,62.72,9.56,15.89,4.12,32.43,4.41,48.16,9.1,38.19,11.38,75.17,28.53,112.23,43.17,10,3.93,20.62,8.6,25.91,17.93,8.92,15.75-1.87,35.1-13,49.39-18.53,23.85-40.46,47.2-69.35,56-12,3.64-24.64,4.58-37.15,4.29-31.15-.73-61.57-8.94-91.64-17.1L528.53,359.3c-31.22-8.47-62.48-16.95-93.06-27.51-12.41-4.29-27-12.2-26.43-25.31.31-6.69,4.76-12.37,9-17.55,15.19-18.52,30.53-37.19,49.26-52.11s41.37-26,65.3-27"/><path class="cls-2" d="M530.94,217c19.55-2.61,38,.42,56.87,5.55,17.73,4.83,35.54,8.81,53.55,12.44,17.78,3.57,35.86,4.86,53.79,7.41s35.59,7.19,53.6,9.86c37.83,5.61,73.71,22.73,108.79,37.25q13.1,5.43,26.27,10.68c7,2.79,14.53,6,19.64,11.73,11.85,13.32,1.11,32.19-7.45,44.08-18.58,25.81-43.52,52-75.63,59.25-19,4.28-39.37,2.77-58.44-.22-18.87-2.95-37.39-7.78-55.81-12.75q-57.93-15.64-115.83-31.41c-38.25-10.38-76.65-20.3-114.65-31.55q-14-4.12-27.8-8.64c-7.59-2.49-15.4-4.75-22.35-8.76-5.44-3.14-11.51-7.9-11.45-14.8.07-8,7.94-15.16,12.67-20.9,22.26-27,47-55.09,81.17-66.6a91.48,91.48,0,0,1,24.72-4.76c6.4-.32,6.44-10.32,0-10-37.64,1.85-68.9,25-93.58,51.81-6.71,7.27-13.08,14.84-19.38,22.48-5.41,6.56-12,13.22-14.6,21.52-4.85,15.46,8.26,27,21,32.7,17.85,8,37.54,12.91,56.3,18.32,20.33,5.85,40.78,11.31,61.21,16.85l125.65,34.08c39.76,10.79,80.2,24.12,121.74,25.08,19.06.44,37.88-2.41,55-11.23,15.19-7.85,28.25-19.47,39.68-32,19.41-21.34,52.42-61.81,18-85.5-6.74-4.64-14.61-7.39-22.15-10.41-9.75-3.89-19.44-7.92-29.13-11.94-19.15-7.94-38.32-15.87-57.89-22.72-9.81-3.43-19.76-6.91-30-9-9.85-2.05-19.89-3-29.78-4.81-9.66-1.79-19.1-4.44-28.81-6s-19.32-2.76-29-3.89c-19.07-2.23-37.58-5.9-56.39-9.63-20-4-39.25-11.35-59.58-13.78a118.74,118.74,0,0,0-29.9.32c-6.28.84-6.36,10.85,0,10Z"/><path class="cls-3" d="M117.49,250.88c-18.82,5.49-32.79,10-52.28,7.9a76.24,76.24,0,0,1-46.53-22.86c-5-5.27-9.36-11.36-11.71-18.26-4.83-14.13-.75-30.19,7.67-42.53s20.68-21.52,33.3-29.5c10.09-6.39,20.86-12.27,32.67-14,16-2.4,32.12,3,46.47,10.34a98.14,98.14,0,0,1,15.4,9.51,70.74,70.74,0,0,1,26.45,63,40.17,40.17,0,0,1-3.68,13.42c-2.93,5.79-7.77,10.39-13,14.21-10,7.29-22.84,12.18-34.74,8.79,7.44,3.15,13.9,8.38,21.46,11.23a37.41,37.41,0,0,0,47.51-50c-3.49-8-10.6-15-19.29-15.71"/><path class="cls-2" d="M116.16,246.06c-13.72,4-27.47,8.32-41.91,8.23a73.26,73.26,0,0,1-39.46-11.51c-11.38-7.33-22.46-18.7-24.54-32.61-2-13.18,3.62-26.76,11.9-36.79,9-10.83,20.72-19,32.68-26.13,13-7.78,26.79-13,42.16-10.6,26.79,4.18,54,21.59,63.39,47.76,4.7,13.1,7,31.47-1.06,43.74s-25.92,21.62-40.5,17.91c-5.26-1.33-9.21,6.76-3.86,9.14,13.42,6,24.15,15.28,39.74,14.09,12.52-1,24.31-7,31.71-17.23,14.35-19.85,9.08-57.25-19.24-60.63-6.38-.77-6.32,9.24,0,10,10,1.19,15.9,12.15,17,21.18a32.17,32.17,0,0,1-33.87,36.77c-11.51-.44-20.22-8.32-30.32-12.81l-3.85,9.14c15.74,4,31.57-2.89,43.44-13.1,12.7-10.91,16.13-27.17,14.37-43.29a77.59,77.59,0,0,0-16.65-40.25c-10.49-13.1-25.77-21.6-41.25-27.51-16.18-6.18-33.52-7.6-49.85-1.18-15.14,6-29.79,15.66-41.92,26.46S2.8,181.41.49,197.55,4.37,228.44,15.71,240a81.08,81.08,0,0,0,46.58,23.38c19.57,2.69,37.9-2.26,56.53-7.7,6.16-1.81,3.54-11.46-2.66-9.65Z"/><path class="cls-1" d="M126.36,142.23c-12-.9-24,1.52-35.58,5-13.18,4-26.91,6.88-39,13.43l-20.67-1.38,47.64-25.66C91.9,130.84,108.49,135.2,126.36,142.23Z"/><path class="cls-2" d="M126.36,141.6c-11.22-.68-22.22,1.17-33,4.21-11,3.09-22.22,5.85-32.83,10.08-3,1.2-6.39,3.65-9.47,4.07-2.09.28-4.67-.31-6.76-.45l-13.21-.88.32,1.16,34.76-18.73c4.14-2.23,8.43-5.28,12.85-6.92,6.46-2.39,16-.47,22.43.88a159,159,0,0,1,24.74,7.81c.75.29,1.08-.92.34-1.21-14-5.45-29.87-11.16-45.2-9.1-4.87.66-9.23,3.93-13.5,6.23l-37,20a.63.63,0,0,0,.31,1.17l12.74.85a64.7,64.7,0,0,0,6.81.45c2.35-.11,4-1.38,6.25-2.4,10.33-4.71,21.47-7.3,32.33-10.46,12.18-3.55,24.37-6.24,37.14-5.47C127.16,142.9,127.16,141.65,126.36,141.6Z"/><path class="cls-3" d="M810.85,294.52c11.6-3.11,18.91-.38,30.66,2.06,13.08,2.72,26.47,6.61,36.47,15.47s15.64,23.9,10,36c-4.39,9.46-14.24,15-23.55,19.69-33,16.67-68.53,31.38-105.49,30.24-12.75-.39-25.37-2.67-37.86-5.28-12.88-2.68-26-5.83-37.06-12.91-12.42-7.92-21.47-20.2-33.41-28.85A70.62,70.62,0,0,0,607,337.7c-14.64.53-28.74,5.62-43.3,7.21-21.29,2.33-42.61-2.88-63.4-8.06-12.6-3.13-25.67-6.5-35.63-14.82s-15.77-23.15-9.76-34.66l-1-2.29c-4.9-14.45,2.79-30.77,14.58-40.46s26.88-14.16,41.56-18.28c12.39-3.49,24.93-6.91,37.79-7.49s26.24,1.93,36.73,9.39c14.38,10.21,22.84,29.06,39.76,34,22.55,6.59,51.59-10.65,75-8.82"/><path class="cls-2" d="M811.52,296.93c7.69-1.9,14.76-1.15,22.41.54,7,1.55,14.12,2.92,21,5.09,13.44,4.26,26.63,12.19,31.29,26.26,5.07,15.29-4.26,26.43-17,33.61a328.87,328.87,0,0,1-42.9,19.87c-15,5.76-30.6,10.32-46.58,12.25-16.3,2-32.46.63-48.55-2.37-15.06-2.81-31.08-5.65-44.4-13.62-12.56-7.52-21.52-19.54-33-28.39a73.3,73.3,0,0,0-36-14.51c-15.28-1.83-29.91,2.44-44.77,5.29-17.49,3.35-34.72,1.83-52-1.8-14.87-3.13-31.15-6-44.88-12.79-12-5.91-23.82-18.48-20.67-33,.51-2.34,2.29-4.57,1.79-6.93-.43-2.11-1.63-4-2-6.24-1.17-7,.7-14.36,4.05-20.55,7.31-13.5,21.11-21,35.13-25.9,14.77-5.16,30.53-9.8,46.08-11.73s32.44-.12,45,10.08c9.25,7.51,15.7,17.86,25,25.36,20.48,16.59,46.6,5.08,69.24.31a72.9,72.9,0,0,1,19.64-1.82c3.21.19,3.2-4.81,0-5-20.47-1.27-39.45,8.83-59.63,10.19-10,.67-19-1.54-26.74-8.06-6.83-5.77-12.16-13.05-18.4-19.4-15.29-15.55-35.93-19.34-57-16.29-12.06,1.75-23.9,5.21-35.56,8.68-10.17,3-20.41,6.62-29.36,12.45-16,10.45-28.59,31.09-19.87,50.14v-2.52c-7.76,16.18,2.41,33.72,16.57,42.26,8.32,5,17.81,7.73,27.16,10.1,11.46,2.92,23,5.8,34.67,7.63,11.38,1.78,22.91,2.53,34.37,1.09,11.15-1.39,21.94-4.67,33.06-6.23,22.9-3.21,43.62,4.61,60.3,20.21,6.93,6.47,13.43,13.46,21.19,19,8.56,6.08,18.52,9.72,28.61,12.32C730.22,398,752.92,402,775.21,400c21.61-1.92,42.44-8.5,62.33-16.92,10.46-4.43,20.77-9.28,30.83-14.55,7.36-3.86,14.78-8.42,19.58-15.4,11.64-16.91.39-38.3-15.08-48-9.31-5.83-20.06-8.67-30.69-11-10.91-2.35-20.9-4.8-32-2.06-3.12.77-1.8,5.59,1.33,4.82Z"/><polygon class="cls-5" points="791.41 291.31 811.63 320.66 804.21 276.9 791.41 291.31"/><path class="cls-4" d="M532.68,30.93C521.49,30.52,573,5.51,594.29,3.17a95,95,0,0,1,23,.31C761.21,21.71,913.67,54.1,926.24,94.35c3.22,10.3-24.31,21.93-16,24.66C910.23,119,721.69,38,532.68,30.93Z"/><path class="cls-2" d="M532.68,28.43c-.79-.05.88,2.3.88,2.3.27,0,.82-.83,1.14-1,1.72-.95,3.32-2.23,5-3.22a172.09,172.09,0,0,1,15.83-7.95c11.7-5.28,24.28-10.61,37-12.64,9.1-1.45,18.35-.74,27.43.42q17,2.18,34,4.61Q686.63,15.59,719,21.26C757.87,28.11,796.68,36,834.6,47c25.85,7.49,54.3,15.79,76.14,32.18,6,4.49,17.21,13.74,11,21.7-2.72,3.5-23.09,16.26-12.18,20.51,2.61,1,4.53-3.45,1.92-4.56-24.63-10.59-50-19.54-75.46-28C777,69.05,716.52,53,655.18,42.1a898.34,898.34,0,0,0-122.5-13.67c-3.22-.12-3.21,4.88,0,5,70.91,2.72,141.24,15.2,209.87,32.9a1333.17,1333.17,0,0,1,141.27,44.83q9.42,3.59,18.76,7.37c2.16.88,5.22,2.14,6.39,2.64l1.93-4.57c1.52.6-.8,1.29,1.27-.17.88-.62,1.67-1.57,2.49-2.27,2.34-2,4.8-3.92,7.07-6,3.59-3.33,7.8-7.78,7.18-13.1-.93-8-8.79-14.9-14.7-19.42-9.75-7.47-21-12.83-32.27-17.57a428.6,428.6,0,0,0-48.1-16.44c-41-11.74-83-20-125-27.17Q674,8.53,639,3.82c-17.85-2.42-36.06-6-53.86-1.4-15,3.83-29.67,10.1-43.32,17.25-3.88,2-9.14,4.28-12,7.78-2.34,2.89-.65,5.75,2.87,6C535.89,33.65,535.88,28.65,532.68,28.43Z"/><path class="cls-3" d="M413.77,317.22l389,104.57c16.88,18.89-13.62,181-25.59,163.89,14.79-6.86,40.72-125.68,25.59-163.89,38.13-4.34,70.95-29.76,95.13-59.57,10.17-12.55,19.66-28,16.45-43.85,13.12,48.26,12.75,100.57-4.07,147.67s-50.54,88.53-94.77,111.88a96.09,96.09,0,0,1-22.48,9c-18,4.29-36.79.78-54.89-3Q652,566.18,567.51,541.8c-44-12.68-90.7-28.88-117.24-66.19-20.65-29-25.49-66.08-29.71-101.47q-2.9-24.22-5.78-48.47l-1-8.45"/><path class="cls-2" d="M412.44,322l70.25,18.89,148.76,40,134,36,32.79,8.82a10.53,10.53,0,0,0,2.77.74,2.93,2.93,0,0,0,.37.1h0a3.51,3.51,0,0,1-2.39-1.55c-.06.14.47.54.46.72s1.07,2.28.57,1.05c3.05,7.52,2.74,16.17,2.67,24.34-.25,25.91-4.13,51.95-9.08,77.34-2.28,11.67-4.86,23.31-8.22,34.73-1.21,4.12-2.52,8.24-4.12,12.23a37.29,37.29,0,0,1-1.69,3.7c-.31.59-.65,1.15-1,1.73-.14.26-.31.5-.47.75-.71,1.06.41-.67-.06.11-.13.21-.69.9-.91.92.75-.09.44-.51,1-.62a2.9,2.9,0,0,1,3.29,1.1L779.67,590c6-3,9-11.42,11.35-17.17a227.17,227.17,0,0,0,10-32.59c6.56-27.12,11.07-55.37,11.27-83.32.09-12.07-.36-25.06-4.75-36.46l-4.82,6.33c28.52-3.47,53.86-17.35,75.13-36.27a198.14,198.14,0,0,0,28.95-31.82c8.84-12.25,15-26.34,12.32-41.66l-9.64,2.65c14.58,54.36,12.27,114.13-12.56,165.23A205.71,205.71,0,0,1,854.3,543.7,185.74,185.74,0,0,1,825,566.65c-10.85,6.83-22.53,13.21-35.18,15.85-15.4,3.21-31.43.44-46.62-2.61-14.65-2.95-29.26-6.13-43.84-9.42q-45.26-10.2-90.06-22.23c-26.39-7.08-53-14-78.7-23.56-22.34-8.28-44.44-19.14-61.93-35.63-21.57-20.34-31.92-47.66-37.46-76.24-6.09-31.47-8.62-63.78-12.42-95.59-.75-6.31-10.76-6.39-10,0,3.58,30,6.32,60.18,11.29,89.95,4.5,26.93,12.34,53.83,29.4,75.64C481.82,524.19,536.71,538.49,585,552q47,13.13,94.59,24.22,23.78,5.55,47.66,10.59c15.43,3.26,31.1,6.94,46.95,7.1,27.51.26,52.25-14.36,73.24-30.94A209.11,209.11,0,0,0,897.51,505c33.22-56.41,38.4-125.38,21.62-187.94-1.69-6.32-10.73-3.58-9.64,2.65,2.45,13.95-5.84,27.2-14.12,37.68A204.11,204.11,0,0,1,869.6,384.5c-18.84,16.47-41.74,29.24-66.87,32.29-2.88.35-6.12,3-4.83,6.33,3.56,9.22,4.23,19.33,4.39,29.11a283,283,0,0,1-2.37,38.6c-3,24.74-7.9,49.91-16.29,73.43a83.79,83.79,0,0,1-5.08,11.9c-.43.8-.89,1.57-1.36,2.34-.22.36-1.42,2-.81,1.24a10.63,10.63,0,0,1-1.16,1.26c-.77.65.78-.33-.6.36-2.24,1.13-3.33,4.76-1.8,6.84,11.89,16.14,21.77-20.49,23.47-26.69,7.16-26.07,11.62-53.07,14.46-79.93a279.17,279.17,0,0,0,1.9-36.56c-.2-7.81-.41-17.16-4.46-24.13-2-3.41-4.32-4-7.68-4.87l-13.33-3.58L663.89,379.29l-157.8-42.43c-29.84-8-59.59-16.76-89.62-24.09-.46-.11-.91-.25-1.37-.37-6.22-1.67-8.88,8-2.66,9.64Z"/><path class="cls-1" d="M599.87,309l3.66-17.36c.61-2.89,1.5-6.15,4.13-7.49,1.88-1,4.15-.64,6.18,0a24.28,24.28,0,0,1,10.68,6.67c1.39,1.5,3.64,3.3,5.14,1.91a3.33,3.33,0,0,0,.85-1.8c.91-4.09.93-9.05,4.4-11.39,2.65-1.78,6.15-1.17,9.35-1.11,8.24.15,15.91-3.86,23.17-7.77a30.72,30.72,0,0,1-16.33,18.62c-4.44,2-10.31,4.19-10.4,9.08a10.36,10.36,0,0,0,1.1,4.19c2.07,4.92,4.35,9.84,5.12,15.12s-.24,11.12-4,14.93c-5.3,5.4-14,5.08-21.48,4.38"/><path class="cls-2" d="M602.28,309.62c1.09-5.14,2.16-10.29,3.26-15.42.37-1.76.6-4.75,1.74-6.23,2.65-3.43,6.77-1.46,9.7.1,3.51,1.88,9.76,10.81,14.45,6.36,2.05-1.94,1.83-5.48,2.43-8,.35-1.49.72-3.29,1.88-4.4,2.14-2.08,5.92-1.15,8.52-1.16,8.88,0,16.77-4,24.43-8.11L665,269.93c-3,8.87-9.22,14.31-17.48,18.16-5,2.35-10.14,5.68-9.14,12,.62,3.91,3.06,7.63,4.35,11.35,1.58,4.56,2.66,9.48,1.28,14.25-2.9,10-14.2,9.49-22.56,8.75-3.21-.28-3.19,4.72,0,5,7.43.66,16.17,1,22.22-4.17,6.51-5.6,6.89-14.89,4.69-22.63-1.12-3.91-6.23-11.76-4.66-15.47s7.34-4.95,10.66-6.79a33.92,33.92,0,0,0,15.47-19.09c.73-2.17-1.86-3.8-3.68-2.82-5,2.66-10.08,5.48-15.64,6.72-4.67,1-9.57-.25-14.13,1a9.61,9.61,0,0,0-6.55,6.19,30.08,30.08,0,0,0-1.27,5.32c-.55,2.94-.3,3.11-2.85.75-4.73-4.38-14-10.53-20.35-5.78-2.45,1.82-3.41,4.83-4.1,7.67-1.47,5.94-2.55,12-3.81,18-.66,3.14,4.16,4.48,4.82,1.33Z"/><path class="cls-6" d="M676.51,285.74c.64,4.07,5.78,8.08,8.26,10a38.8,38.8,0,0,0,13.12,6.32,124.06,124.06,0,0,0,69.55,2.23c8.08-2.09,16.12-5.11,22.46-10.53,1.33-1.14,12.39-12.48,10-21.91-4.25-16.82-54-34.54-90.85-22.1C691.87,255.56,675.12,276.81,676.51,285.74Z"/><path class="cls-2" d="M674.1,286.4c2.55,9.74,14.41,15.31,23.12,18.09a129.61,129.61,0,0,0,40.71,6.23c21.06-.24,48.31-4.19,60.53-23.53,4.09-6.49,6.08-14.3,1.49-21-4.34-6.34-11.72-10.56-18.55-13.66-19.32-8.76-42.2-11.77-63.07-7.77A58,58,0,0,0,687.4,261.2c-5.85,5.87-14.33,15.49-13.39,24.54.33,3.17,5.34,3.2,5,0-.71-6.88,5.69-14.29,10-19,6.67-7.27,14.69-13,24.25-15.68,18.16-5.12,38.24-3.56,56.08,2.12,10.43,3.32,32.9,11.63,27.43,26.42-7.06,19.09-31,23.93-48.87,25.57A122.33,122.33,0,0,1,709,302.59c-5.65-1.31-11.63-2.82-16.91-5.29-4.78-2.24-11.73-6.76-13.17-12.23C678.11,282,673.28,283.28,674.1,286.4Z"/><path class="cls-2" d="M672.74,282.84l3.84,40.86c1.11,11.73,1.49,24.05,6.63,34.87,7.94,16.77,25.58,27.4,43.42,30.55,22.32,3.94,44.88-3.63,64.24-14.37,8.21-4.55,19.08-9.63,22.23-19.19,2.33-7.1,4-12.84,2.55-20.28-3.27-16.55-12.59-31.53-19.92-46.5-1.42-2.89-5.73-.35-4.32,2.53,5.78,11.79,12.29,23.23,16.66,35.65,1.9,5.38,4.39,12.15,3.1,17.93-.8,3.61-2,8.31-3.77,11.54-2.58,4.81-8.54,7.78-13,10.51-18,10.87-38.66,19.51-60.05,18.11-17.48-1.15-35.7-9.92-44.84-25.34-6.42-10.84-6.74-23.79-7.89-36l-3.84-40.86c-.3-3.17-5.31-3.21-5,0Z"/><path class="cls-2" d="M516.36,346.75c-6.9,5.83-10.66,19.19-2.58,25.31,6.2,4.7,14.68,6.23,22,8.37q13.61,4,27.29,7.69,27.36,7.45,55,13.86,13.62,3.15,27.3,6.06c8.6,1.82,17.38,4.2,26.15,5,7,.65,12.87-1.11,17.59-6.37,3.45-3.83,7.53-9.89,5.46-15.27-1.14-3-6-1.68-4.82,1.33,2.12,5.52-5.69,13.47-10.62,14.92-4.42,1.3-9.25.25-13.65-.59-5-1-10-2-15-3.05q-27.53-5.76-54.82-12.57-27.52-6.85-54.76-14.74c-4.86-1.41-9.73-2.78-14.55-4.3-3.62-1.14-7.9-2.37-10.6-5.21-4.13-4.34.32-13.64,4.18-16.9,2.46-2.08-1.09-5.6-3.53-3.54Z"/><path class="cls-4" d="M682.57,62.69c-3.07-.83-6.38,1.2-7.91,4S673,72.82,673.23,76c.29,3.86,1.11,7.86,3.5,10.91,3.32,4.23,8.9,5.82,14.1,7.18l27.29,7.1c6.59,1.72,13.22,3.44,20,4,3.93.31,8,.19,11.64-1.31s6.81-4.6,7.52-8.48c1.24-6.72-4.77-12.37-10.18-16.56Z"/><path class="cls-2" d="M683.24,60.28C673,58.84,670,69.35,670.89,77.66c1.14,10,7.1,15.3,16.42,18.06,12.28,3.64,24.88,6.79,37.36,9.7,9.41,2.19,21.89,5,30.15-1.73,11.08-9,1.46-25.16-10-28l-33.15-8.28-28.4-7.1c-3.12-.78-4.46,4-1.33,4.82l45,11.25,12.49,3.12c2,.5,4.67.72,6.56,1.64,5.66,2.73,12,11.83,6.88,17.62-7,7.83-22,3.12-30.48,1C711.6,97,700.79,94.25,690.07,91.3c-5.11-1.41-10.19-3.15-12.66-8.21-2-4.13-4.1-19.19,4.5-18C685.06,65.54,686.42,60.72,683.24,60.28Z"/><path class="cls-2" d="M128.76,255.94c8.79,2.2,17.68,3.87,26.18-.28,8-3.92,13.91-11.51,18.95-18.66,4.89-6.94,8.83-15.27,7.36-24a20.39,20.39,0,0,0-10.7-15.1c-2.84-1.5-5.37,2.82-2.52,4.32,13.74,7.23,7.76,23.77.54,33.63-4.07,5.55-8.69,11.35-14.79,14.76-7.58,4.23-15.72,2.48-23.69.49-3.13-.78-4.46,4-1.33,4.82Z"/><path class="cls-2" d="M161.42,245.35a23.94,23.94,0,0,0-12.7-1.37c-3.17.46-1.82,5.28,1.33,4.82a19,19,0,0,1,10,1.38c3,1.21,4.27-3.63,1.33-4.83Z"/><path class="cls-2" d="M177.06,224.81a16.19,16.19,0,0,1-4.53-8.87c-.56-3.17-5.38-1.83-4.82,1.33a20.8,20.8,0,0,0,5.81,11.08c2.28,2.28,5.81-1.25,3.54-3.54Z"/><path class="cls-2" d="M826.35,372.9q-6.45-32.73-12.91-65.47c-3.4-17.22-4.76-38-19.06-50.21-11.79-10-28-12.82-43-13.58-18.53-.95-38.17,0-55.06,8.42-15.89,7.88-26,21.72-29.79,38.9-2,8.9-2.56,18.07-3,27.16s-.87,18.28.91,27.24c2.56,12.89,11.88,25.74,23.66,31.85A218.37,218.37,0,0,0,725.3,392c18.23,5.51,38.36,7.09,57.28,5.31a103.68,103.68,0,0,0,30.21-7.16c8.41-3.5,15.37-7.13,13.56-17.27-.57-3.16-5.39-1.82-4.82,1.33,1.7,9.49-14.25,13-21.26,14.94a112.79,112.79,0,0,1-26.22,3.68c-15,.45-30.47-.8-44.91-4.91a227.06,227.06,0,0,1-35.09-13.35c-10.61-5.06-20-14.33-23.59-25.81-2.5-8-2.47-16.55-2.17-24.84a222.2,222.2,0,0,1,1.86-25.13c2.55-17.07,10-31.78,25.3-40.61,15.58-9,34.06-10.17,51.65-9.72,13.94.36,29.22,2.05,41,10.18C804.44,270,805.46,292.75,809,310.57q6.28,31.83,12.56,63.66C822.15,377.38,827,376.05,826.35,372.9Z"/><path class="cls-2" d="M554.14,205.31c-13.41-8.56-21.09-24.19-26.54-38.64a162.32,162.32,0,0,1-9.7-44.59A208.79,208.79,0,0,1,519.61,76c2.19-15,5.27-31,14.84-43.32,1.95-2.51-1.56-6.07-3.54-3.54C521.06,41.8,517.45,57.43,515,73a212.47,212.47,0,0,0-2,50.82,164.49,164.49,0,0,0,11.63,49c5.89,14.14,13.7,28.4,26.94,36.85,2.72,1.73,5.23-2.59,2.52-4.32Z"/><path class="cls-3" d="M94.59,229.86c-3.25-15.8,14.61-9.46,43.85-24.61,11.86-6.14,13.4-11.85,13.4-11.85,7.1-6.54,8.6-10.71,11.13-10.26,4.17.75,5.95,12.23,6,19.85.06,8.28.43,28.19-15,39.75-12.6,9.44-29.37,8.59-34.25,6.72a13.07,13.07,0,0,0-4-.91c-4.33-.28-7.53,1.85-9.78,3-1.88,1-6.15,1.9-14.68,3.67-5.64,1.18-19.82,4.12-20.48,2.14-.47-1.4,6.49-3.31,13.14-9.78C90.91,240.9,96.22,237.74,94.59,229.86Z"/><path class="cls-2" d="M95.2,229.7c-1.7-9.22,6-10.95,13.31-12.9,10.41-2.8,20.66-6,30.24-11a35.85,35.85,0,0,0,13.68-12.18c1.34-1.9,3.75-3.64,5.33-5.43.9-1,2.62-3.91,4.07-4.23,5.28-1.18,6.14,12.21,6.36,15.2,1.53,20.7-4.61,42.64-26.81,49.08A45.2,45.2,0,0,1,126.17,250c-3.61-.21-6.86-1.84-10.39-2-4.06-.21-6.94,1.79-10.5,3.33-3.84,1.66-8.29,2.2-12.36,3.05-5.29,1.11-10.62,2.3-16,2.9-1.08.13-4.76,1-4.71-.55,0-.64,4.85-2.89,5.61-3.38a68.3,68.3,0,0,0,14.31-12.68A12.53,12.53,0,0,0,95.2,229.7c-.13-.79-1.33-.46-1.21.33,1.29,8.19-6.78,14.23-12.44,18.95A67.71,67.71,0,0,1,73,254.69c-.66.39-2.54,1.18-2.73,2.12-.84,4.14,14,.5,15.7.17,5.43-1,10.93-2.06,16.28-3.46,5-1.32,9.27-5,14.71-4.14,3.93.65,7.29,1.87,11.39,1.89a46.35,46.35,0,0,0,16.16-2.76c21.21-7.78,26.74-30.28,24.79-50.71-.32-3.35-1.84-18.19-8.37-14.77-1.33.69-2.35,2.26-3.31,3.36-2,2.27-4.57,4.31-6.35,6.7-1.65,2.21-2.78,4.4-5,6.3-11.84,10.12-28.13,13-42.58,17.45C96.72,219,92.55,222.25,94,230,94.14,230.82,95.34,230.49,95.2,229.7Z"/><path class="cls-6" d="M55.15,257c3.59-.25,25.11-2.19,35.86-20.13,9.71-16.2,3.87-33.88,2-38.62-5-12.4-14.56-22.56-25.65-30-6-4-11.85-8.05-20.46-8.67-9.8-.71-17.29,3.32-21,5.4C12.34,172.46,2.43,185.48,4.9,208.3,7.93,236.18,30.94,258.69,55.15,257Z"/><path class="cls-2" d="M55.15,259.49c16.2-1.19,32.47-9.39,39.71-24.51,9.61-20.09,1.42-43.27-13.38-58.31-7.68-7.81-18.25-16.13-29.08-18.76-10.46-2.53-20.89.57-29.83,6.07C3.85,175.49-1.35,197.21,4.13,217.72c6.06,22.67,26.34,43.07,51,41.77,3.2-.17,3.22-5.17,0-5C16.48,256.52-11,198,20,171.93c6.64-5.57,15.43-9.82,24.18-9.93,11-.14,21,6.95,29.06,13.83C87.5,188,97.62,206.81,92.83,226c-4.32,17.24-20.72,27.29-37.68,28.54C52,254.72,51.93,259.73,55.15,259.49Z"/><path class="cls-1" d="M436,440.65c2-2.49,19.83,10.78,48.37,25.79,31.15,16.38,54.61,26.82,102.47,39.4q59.89,15.75,118.66,35.45c36.36,12.2,65.75,33.2,69,40.09,3.49,7.42-192.17-28.11-297.11-78.59C455.73,492.38,432.92,444.44,436,440.65Z"/><path class="cls-2" d="M436.43,441.09c1.38-1.28,8.1,3.31,9.26,4,5.59,3.19,11.08,6.56,16.63,9.81q19.92,11.64,40.67,21.74c26.21,12.71,53.68,21.87,81.8,29.33,37.11,9.86,74,20.6,110.43,32.6,17.1,5.63,33.7,12,49.41,20.91,9.48,5.36,20.4,11.41,27.59,19.81,1.28,1.5,2.2,1.77,1,2.34-1,.47-2.9.14-4,.1a150.2,150.2,0,0,1-15.56-1.59c-17.93-2.47-35.74-5.91-53.46-9.56C649.54,560.07,599.13,547.16,550,530.76c-24.32-8.11-48.75-16.9-71.76-28.26-10.38-5.12-18-14.9-24.41-24.28-6.19-9.12-11.85-19-15.66-29.4-.62-1.69-2.74-6.07-1.62-7.85.44-.68-.65-1.31-1.07-.63-.95,1.49-.05,4,.37,5.47a76.88,76.88,0,0,0,4.76,11.86,146.21,146.21,0,0,0,19.94,31.54,64,64,0,0,0,12.07,11.46c4.76,3.32,10.38,5.48,15.66,7.84,12.11,5.4,24.44,10.3,36.88,14.88,52.81,19.44,107.57,33.9,162.54,45.77,20.31,4.39,40.72,8.46,61.27,11.51,6,.89,12,1.75,18.08,2.16,1.53.1,6.37,1,7.64-.41,5.22-5.75-40.87-30.13-44.32-31.77-17.67-8.33-36.46-14-55-19.85q-29.53-9.34-59.35-17.7c-34-9.54-68.34-17.67-100.72-32.15-13.81-6.18-27.33-13.11-40.55-20.46-7.24-4-14.38-8.26-21.5-12.49-4.29-2.54-8.59-5.4-13.19-7.34-1.25-.53-3.24-1.57-4.45-.45C435,440.76,435.84,441.64,436.43,441.09Z"/><path class="cls-6" d="M918.28,335.1c32,88.57-50.86,268.21-141.14,250.58C853.43,594.43,918.75,318.05,918.28,335.1Z"/><path class="cls-2" d="M917.67,335.26c14.34,40.23,5.67,87.13-8,126.28-14.34,40.92-38,84-74.57,109.08C818.1,582.27,797.9,589,777.31,585.08l-.17,1.22c16.61,1.77,30.9-9.51,41.44-21.08,15.81-17.33,27.36-38.51,37.57-59.48,21.83-44.84,37.75-92.44,52.45-140,2.38-7.73,4.7-15.47,7.14-23.18.64-2,1.56-4.08,2-6.14.11-.46.6-1,.63-1.48s-.75-.62-.77.16a.63.63,0,0,0,1.25,0c.05-2.67-1.69-.5-2.19.65-1.87,4.36-3,9.14-4.41,13.66-6,19.47-12,38.94-18.49,58.25-8.79,26.07-18.31,51.93-29.37,77.13-10.33,23.55-21.86,47.09-37.19,67.85-11.5,15.56-28.67,34.69-50.11,32.41-.69-.07-.86,1.1-.16,1.23,39.39,7.41,73.3-21.61,95.37-50.94,28.24-37.54,46.54-84.4,52.08-131,2.75-23.08,2.32-47.32-5.55-69.42C918.61,334.18,917.4,334.5,917.67,335.26Z"/><path class="cls-2" d="M676.32,281.69c17.34-11.78,37.44-11,57.31-7.75A263.1,263.1,0,0,1,789,289.39c.74.3,1.07-.91.33-1.21a261.65,261.65,0,0,0-61-16.29c-18.47-2.56-36.79-2.07-52.68,8.72-.66.45,0,1.53.63,1.08Z"/><path class="cls-7" d="M597,329.66c-.52-2.38-1-4.77-1.39-7.18a10.89,10.89,0,0,1,.35-5.92c.8-1.83,2.87-3.26,4.79-2.7,2.09.62,2.95,3.05,3.51,5.15l1.57,5.93c.73,2.75,1.22,6.23-1.06,7.92a7.2,7.2,0,0,1-4,1,5.68,5.68,0,0,1-3.27-.5c-1.46-.89-1.8-2.82-2.78-4.23a5.63,5.63,0,0,0-7.07-1.61,6.08,6.08,0,0,0-2.8,6.81,6.6,6.6,0,0,0,5.83,4.63"/><path class="cls-2" d="M597.56,329.5c-.5-2.31-1-4.61-1.32-7a14.42,14.42,0,0,1-.28-3.08q6.56-5.2,7.47-.92c1.09,2.08,2.61,7.73,2.35,10.14-.72,6.46-7.1,5.18-9.38,2.44-.56-.67-.73-1.72-1.3-2.43a6.18,6.18,0,0,0-4.33-2.35c-8.84-.88-8.43,11.82-.32,13.22.78.14,1.12-1.06.33-1.2-1.61-.28-5-2.64-5.4-4.2l4.73-6.64,4.64,3.06c.92,1,1,2.4,2.24,3.22,1.45,1,3.67.85,5.3.56,6.24-1.11,4.73-7.23,3.52-11.81-.9-3.37-2.24-11.27-7.63-9.08-6,2.44-2.77,12-1.83,16.36.17.78,1.38.45,1.21-.33Z"/><path class="cls-2" d="M96.39,217.17c-5.75,6.19-16.38,6.23-24.25,6.46a103,103,0,0,1-25.07-2.34C32,218,12.1,211.21,4.1,196.91a.63.63,0,0,0-1.08.63c8.44,15.09,29.5,22.12,45.43,25.32a104.43,104.43,0,0,0,28.06,1.8c7.15-.52,15.59-1,20.77-6.6.54-.59-.34-1.48-.89-.89Z"/><path class="cls-1" d="M116.55,251.49c.75-.14,1.49-.27,2.24-.39,2.84-.45,5.7-.78,8.49-1.47,10.4-2.57,19.27-10.14,24.19-19.65s6-20.78,3.87-31.26c-.64-3.14-1.73-6.46-1.73-6.46l9.36-9.12c9.25,35.12,2.21,63.63-45.67,68.21"/><path class="cls-2" d="M116.72,252.09c7.64-1.38,14.84-2.26,21.5-6.56a40.31,40.31,0,0,0,13.44-14.59A46.21,46.21,0,0,0,157,208.81a51.9,51.9,0,0,0-1.25-11c-.31-1.37-1.42-3.65-1.36-5.06,0-.59-.21.16.62-1a39.74,39.74,0,0,1,4.4-4.3c.84-.81,1.67-1.64,2.52-2.45a6.08,6.08,0,0,1,.89-.87c.9-.46-.13-.43.16-.07,0,0,.36,3.27.5,3.88q.51,2.27.93,4.56a88,88,0,0,1,1.24,9.71c.75,10.75-.88,22-7.64,30.72-9.55,12.34-26,16.28-40.73,17.78-.8.08-.8,1.33,0,1.25,16.8-1.71,35.69-6.76,44.57-22.56,7.92-14.08,5.56-31.5,1.7-46.43a.64.64,0,0,0-1-.28l-9.35,9.12a.62.62,0,0,0-.16.61c4.2,13.11,3.82,27.81-3.52,39.78a38.57,38.57,0,0,1-14.41,13.72c-5.92,3.19-12.2,3.78-18.69,5-.79.14-.46,1.34.33,1.2Z"/></g></g></svg>