<svg xmlns="http://www.w3.org/2000/svg" viewBox="0 0 1061.36 1117.64"><defs><style>.cls-1{fill:#ad968a;}.cls-2{fill:#38301f;}.cls-3{fill:#81c6d8;}</style></defs><title>hoop</title><g id="Layer_2" data-name="Layer 2"><g id="Layer_6" data-name="Layer 6"><path class="cls-1" d="M927.72,194.37C903.19,158.72,875.63,124.8,842.51,97c-41.45-34.84-90.94-59.48-142.84-74.9-145.9-43.32-302.45.89-434.52,76.54-154.81,88.68-241,358.92-241,358.92C-20.3,612.89,14,788.69,113.71,915.91s262.13,202.65,423.63,196.69c45.86-1.7,91.35-9.54,135.82-20.9,37.29-9.54,74.06-21.61,108.76-38.29,148.75-71.51,248.42-227.35,269.69-391S1021.29,330.33,927.72,194.37ZM887.06,745.74c-29.59,83.94-85.89,160.41-163.85,203.35-94.34,52-209.44,50.38-315.09,29.46-23.57-4.67-57.92-25.76-57.92-25.76C284.65,905.44,219,854.59,176.35,785.9c-42.89-69-59.59-152.78-52.88-233.77s36-159.23,78.6-228.44c24.91-40.47,54.81-78.53,92.65-107.3,19.52-14.84,40.95-27,63.18-37.42,100.49-46.86,219.9-54.72,323.41-15S869.85,292.32,899,399.3c7.36,27,11.26,54.88,13.89,82.76C921.25,570.68,916.64,661.79,887.06,745.74Z"/><path class="cls-2" d="M932,191.85c-37.29-54-81.45-102.26-138.77-135.34A426.31,426.31,0,0,0,611.13,1.11c-63.85-4.53-128.24,5-189.35,23.5a724,724,0,0,0-91.24,34.72C303.35,71.75,276,85.21,250.86,101.44c-37.72,24.36-69.25,57.29-96.54,92.66-27.5,35.63-51,74.25-71.75,114.13A1085.15,1085.15,0,0,0,37.1,407.8c-6.27,15.75-12.55,31.65-17.6,47.85C3.81,506-1.44,560.84.33,613.37A535.37,535.37,0,0,0,35.55,787.26a508.85,508.85,0,0,0,90.37,151.26A518.34,518.34,0,0,0,260.4,1048.18a534.11,534.11,0,0,0,162.82,60.42c61.95,11.93,124.84,11.65,187,1.49,66.64-10.89,134.16-29.86,193.66-62.35,48.27-26.36,91.34-62,127.31-103.55a530,530,0,0,0,87.3-141.09,545.32,545.32,0,0,0,40.63-163.9c5.57-63.19.49-127.15-13.25-189-13.82-62.25-36.46-122.51-66-179A775.58,775.58,0,0,0,932,191.85c-3.62-5.27-12.29-.28-8.64,5.05a754.28,754.28,0,0,1,86.48,166.33c21.62,58.8,35.68,120.52,40,183.06,4.1,59.07-.33,118.76-14.86,176.22a534.18,534.18,0,0,1-63.34,149.7c-28.54,46.17-64.36,87.87-106.44,122.22-46.26,37.74-99.52,64.27-156.38,82-64.6,20.12-132.69,32.92-200.55,31.38-57.26-1.3-114.11-12.79-167.7-32.92A522,522,0,0,1,192.8,989.61,492.43,492.43,0,0,1,81.29,859.42,522.58,522.58,0,0,1,15.38,521.8c4-26.9,9.95-53.42,19.11-79,9.28-25.9,19.7-51.4,31-76.48a953,953,0,0,1,57.14-108.56c23.43-38,50.06-74.34,81.87-105.77a323.49,323.49,0,0,1,50.34-41.2c24.35-15.89,50.9-29,77.26-41.21,57.53-26.62,118.73-46.46,181.65-55C576,6,639.86,9.26,700.15,27.42c61.44,18.5,118.41,50.28,163.68,96.06,22.22,22.46,41.65,47.44,59.57,73.42C927,202.16,935.71,197.16,932,191.85Z"/><path class="cls-2" d="M882.23,744.41C856,818.42,809,887,743.16,931.08c-71.45,47.85-159,60.4-243.36,54.84-21.83-1.44-43.58-4-65.16-7.61-10-1.65-20.18-3.08-29.95-5.7a145.39,145.39,0,0,1-24.12-9.23c-9.91-4.65-20.25-9.57-29.22-15.9-17.74-12.5-35.11-25.64-52.13-39.09-33.43-26.43-65.4-55.12-92.33-88.27a348.48,348.48,0,0,1-61.4-113.18c-27.22-84.77-22.68-176.31,4.67-260.41,13.82-42.49,33.21-83,56.67-121,22.49-36.42,49-70.77,82.13-98.19,34.44-28.54,76-48.66,118.37-62.51a428.32,428.32,0,0,1,129.22-21.34c82.13-.72,163.06,23.68,229.16,72.81C826,261.1,872.87,325.17,893.38,397.77c12.85,45.47,16.73,93.77,18,140.84,1.22,46.82-1.78,93.88-11,139.83a497,497,0,0,1-18.07,66c-2.13,6.08,7.53,8.7,9.65,2.65,32-91.46,35.47-191.34,23.65-286.84-5.33-43-15.78-84.61-35.24-123.46a360.45,360.45,0,0,0-68-93.46c-57.91-57.61-133.55-94.57-214.39-105.82-88.69-12.34-181,4.3-260.21,45.93-40.17,21.11-74.59,50-103.07,85.26-28.21,34.92-51.53,74.08-70.33,114.8-38,82.36-56,174-42.73,264.32,6.5,44.22,20.5,87.48,42.23,126.59,21.34,38.42,50.3,72.08,82.39,101.91,16.21,15.07,33.24,29.23,50.67,42.86,16.58,13,33.29,26.47,50.9,38,10.24,6.7,21.63,12.22,32.79,17.15,18.18,8,37,11.38,56.52,14.47,86.36,13.65,178.14,13.37,259.79-21.35,75.6-32.15,134.57-93.84,171.78-166.28a440.61,440.61,0,0,0,23.26-54.08C894,741,884.37,738.37,882.23,744.41Z"/><path class="cls-3" d="M571.15,9.65c-13.32,8.78-19.77,24.83-23.72,40.28A216.48,216.48,0,0,0,544,140.67l-43.4-1.09c-8.72-15.47-11.38-25.93-11.36-43.69s3.26-35.35,6.95-52.71c2.89-13.57,7.47-28.88,20.09-34.65"/><path class="cls-2" d="M570.52,8.57C552.57,20.9,546.73,44,543,64.19a220.5,220.5,0,0,0-.25,76.82l1.21-1.59-41.2-1a6.56,6.56,0,0,1-2.08,0c.26.16-.91-2.82-1.09-3.15-1-1.88-1.93-3.77-2.79-5.71A70,70,0,0,1,491,107.29c-1.69-17.88.92-36,4.34-53.52,3-15.54,5.73-36.34,21.61-44.16,1.44-.71.18-2.87-1.26-2.16-12.89,6.35-17.48,21-20.37,34-4.19,19-7.66,38.38-7.25,57.87a81.8,81.8,0,0,0,3.17,22.27,75.94,75.94,0,0,0,3.48,9.11c1,2.31,3,8.64,5.29,9.92,1.36.77,4.19.27,5.66.3l13.72.35,24.65.62a1.26,1.26,0,0,0,1.2-1.58,217.08,217.08,0,0,1-.07-73.65c3.46-20,8.85-43.73,26.65-56,1.32-.9.07-3.07-1.26-2.16Z"/><path class="cls-3" d="M724.44,35.07C707,48.74,695.82,68.71,685.9,88.52q-16.7,33.35-30.25,68.13L613,144.59c-.17-33.12,15.59-64,31.43-93.1C652.9,36,663.07,19.19,680,14.06"/><path class="cls-2" d="M723.55,34.18c-17.36,13.91-28.51,33.37-38.35,53q-17,33.84-30.76,69.18l1.54-.87-18-5.09-13.87-3.93c-2.91-.82-6.57-1.27-9.28-2.62-2.11-1.05-.41.43-.56-1-.48-4.42.45-9.48,1.07-13.86a141.32,141.32,0,0,1,6.47-26.26c5.87-17.09,14.26-33.18,22.86-49,8.35-15.36,18-32.65,35.64-38.41,1.52-.5.87-2.91-.67-2.41-22.94,7.48-34,33.2-44.25,53-12.69,24.55-23.54,50.72-23.63,78.77a1.28,1.28,0,0,0,.92,1.21l42.62,12.06a1.29,1.29,0,0,0,1.54-.87q13.68-35,30.5-68.59c9.76-19.41,20.76-38.67,38-52.45,1.25-1-.52-2.76-1.77-1.77Z"/><path class="cls-3" d="M782.79,221.63c3.84-16.27,15.68-29.32,27.62-41,19.68-19.3,42.15-37.76,69.22-43l-23-28c-22.32.55-39.64,13.06-56.67,26.36-12.31,9.61-20.26,20.8-31.68,31.46-10.44,9.75-17.73,18.94-23.74,31.9"/><path class="cls-2" d="M784,222c5.38-21.19,23.07-37.25,38.84-51.3C839.31,156,858,143.28,880,138.81a1.27,1.27,0,0,0,.56-2.09l-12.73-15.56L860,111.58c-1.76-2.15-2.06-3.33-5-3.22-15,.59-28.83,7.37-41,15.65-13.9,9.46-25.53,20.53-37,32.8-6.41,6.88-13.6,13-19.69,20.19a98.26,98.26,0,0,0-13.8,21.64c-.69,1.45,1.47,2.72,2.16,1.26,6.73-14.21,16.57-24.51,27.52-35.5,5.61-5.63,10.79-11.67,16.35-17.34a159.78,159.78,0,0,1,19-16.12c12-8.91,25.13-17,40.13-19.41,1.75-.29,6-1.42,7.4-.77.66.31,1.46,1.79,1.92,2.35l7.1,8.68,13.66,16.69.55-2.08c-22.36,4.55-41.45,17.54-58.24,32.49-16.1,14.34-34,30.76-39.48,52.41A1.25,1.25,0,0,0,784,222Z"/><path class="cls-3" d="M871.75,331.15c25.07-24.48,66.6-46.17,101-52.74l-14.51-36c-37.13,3.73-77.41,28.37-104.47,54.06"/><path class="cls-2" d="M872.64,332c26.92-26,63.72-45.2,100.45-52.42a1.25,1.25,0,0,0,.88-1.53l-14.52-36a1.26,1.26,0,0,0-1.2-.91c-39.71,4.29-76.81,27.53-105.35,54.43-1.17,1.1.6,2.87,1.77,1.77C880.51,273,913.19,252,948.46,245.15c1.81-.35,3.64-.67,5.46-.94.09,0,3.92-.54,3.23-1.17.59.54.92,2.28,1.22,3l5,12.42,8.18,20.27.87-1.54c-37.15,7.3-74.34,26.75-101.56,53.06-1.16,1.12.61,2.89,1.77,1.77Z"/><path class="cls-3" d="M1049.65,663.57c-8.09-11.2-20.46-18.74-33.51-23.27s-26.87-6.32-40.6-7.91c-20.57-2.39-41.63-4.4-61.82.23l7.54-52.12c9.28-4.58,20.09-4.66,30.42-4.07a281.06,281.06,0,0,1,79.59,16.33c9.2,3.33,19,7.88,23.15,16.76"/><path class="cls-2" d="M1050.73,662.94c-14.21-19-37.31-26.39-59.89-29.82-25.32-3.85-52.15-7.25-77.45-1.71l1.54,1.54,6.44-44.52c.25-1.73,0-5.73,1-7.21.87-1.29,5.4-1.93,7.23-2.37a62.78,62.78,0,0,1,15.1-1.42c18.79.16,37.8,3.12,56,7.49a272.79,272.79,0,0,1,30.15,9c8.85,3.23,17.94,7.39,22.41,16.19.73,1.43,2.89.17,2.16-1.26-7.37-14.51-27.25-18.95-41.52-23.07a282.85,282.85,0,0,0-58.6-10.4c-9.32-.65-19-1.1-28.06,1.45-3.4,1-6.91,1.38-7.51,5-1.45,8.75-2.54,17.58-3.81,26.35l-3.48,24.09a1.27,1.27,0,0,0,1.54,1.53c24.28-5.32,49.92-2.08,74.25,1.43,22.42,3.23,46.08,10,60.26,29,1,1.28,3.12,0,2.16-1.26Z"/><path class="cls-3" d="M965.46,890q-4.9-11.54-9.82-23.07c-2.94-6.9-6-14-11.27-19.33-4.66-4.71-10.72-7.73-16.67-10.67l-18.53-9.15c-16.76-8.28-34.56-16.77-53.2-15.39l26-35.93-3.35-2c27.64,3,52,18.74,75.27,34,14.33,9.41,29.7,20.2,34.35,36.71"/><path class="cls-2" d="M966.54,889.34c-4.89-11.51-9-23.91-15.36-34.72-5.91-10.1-15.2-15-25.38-20-21.71-10.72-44.72-24.89-69.83-23.46l1.08,1.88,26-35.92a1.28,1.28,0,0,0-.45-1.72l-3.35-2-.63,2.33c23.33,2.79,44.14,14.25,63.66,26.7,17,10.85,38.49,22.47,44.76,43.1.47,1.53,2.88.88,2.41-.67-6.34-20.85-27.22-32.6-44.44-43.64-20.38-13.09-42-25.07-66.39-28-1.3-.16-1.61,1.74-.63,2.33l3.35,2-.45-1.71-26,35.93a1.25,1.25,0,0,0,1.08,1.88c24.65-1.41,47.24,12.59,68.57,23.12,10.64,5.26,19.9,10.39,25.64,21.27,5.51,10.43,9.59,21.75,14.2,32.6.63,1.47,2.79.2,2.16-1.26Z"/><path class="cls-3" d="M794.14,1044.38c1.43-15.89-5.6-31.18-12.47-45.57-10.75-22.54-22.94-46.61-45.17-58l-29.11,16.88c10,11.76,16.41,26.14,22.63,40.3l15.63,35.55c4.58,10.42,9.27,21.67,7.05,32.83"/><path class="cls-2" d="M795.39,1044.38c1.06-15-4.51-28.88-10.74-42.18-5.76-12.31-11.66-24.71-19.33-36-6.9-10.14-15.43-19.39-26.22-25.43-2.47-1.38-2.77-1.31-4.94-.07-3,1.73-6,3.49-9,5.24l-18.36,10.65a1.27,1.27,0,0,0-.26,2c12,14.35,18.9,32,26.35,48.93q5.86,13.34,11.72,26.67c4.41,10.08,8.8,20.64,6.93,31.87-.26,1.57,2.15,2.25,2.41.66,1.6-9.64-.91-18.75-4.56-27.66-4-9.84-8.5-19.51-12.78-29.24-8.05-18.3-15.34-37.49-28.3-53l-.25,2,19.19-11.12c2.46-1.42,6.28-4.79,9.13-5.29,1.39-.25,2.93,1.38,4.67,2.51a65.12,65.12,0,0,1,9.53,7.52c11.43,10.83,19.19,24.9,26.1,38.88,8.17,16.52,17.6,34.12,16.25,53.1-.11,1.61,2.39,1.6,2.5,0Z"/><path class="cls-3" d="M159.88,190.62A106.4,106.4,0,0,1,222,221.52c10.73,11,18.93,24.14,26.56,37.46l-17,24.71c-13.1-20.67-31.12-38.75-53.39-48.89-4.87-2.21-9.91-4-14.81-6.16-3.88-1.68-7.72-3.56-11.84-4.51a27.88,27.88,0,0,0-14,.43"/><path class="cls-2" d="M159.55,191.82c33,4.48,59.62,23.65,77.76,51.12,2.28,3.46,4.45,7,6.57,10.54.8,1.34,3.3,4.56,3.2,5.4-.25,2.14-4.21,6.11-5.42,7.86l-11.25,16.31h2.16c-10.31-16.08-23.27-30.59-39.26-41.21-8.3-5.51-17.24-9.25-26.4-13-10.09-4.15-18.73-8.37-29.84-5.46a1.25,1.25,0,0,0,.66,2.41c11.13-2.91,20.12,2.06,30.16,6.13,8.94,3.62,17.49,7.53,25.47,13,15,10.3,27.26,24.15,37,39.43a1.27,1.27,0,0,0,2.16,0l17-24.71a1.24,1.24,0,0,0,0-1.26c-10.14-17.64-21.38-34.83-37.68-47.41a108.65,108.65,0,0,0-51.71-21.53c-1.58-.21-2.26,2.2-.67,2.41Z"/><path class="cls-3" d="M290.65,81.63c13,8.5,22.7,21.21,30.91,34.41a258.67,258.67,0,0,1,29.35,66.44l-32.42,16.79c-2.62-20.11-8.51-40-18.87-57.39s-25.38-32.36-43.69-41.07"/><path class="cls-2" d="M290,82.71c14.86,10,25.22,24.81,34.14,40.05a257.43,257.43,0,0,1,22.44,49.85c.69,2.12,1.08,4.83,2.12,6.79-.42-.8.88,3.35,1.44,2.06-.21.49-2.25,1.17-2.7,1.4l-11.18,5.79-18.42,9.54,1.84.75c-5.46-40.42-25-80.65-63.14-99.21-1.44-.7-2.71,1.45-1.27,2.16,37.61,18.31,56.62,57.88,62,97.71.12.85,1.21,1.08,1.84.75l32.43-16.79a1.26,1.26,0,0,0,.57-1.41,263.81,263.81,0,0,0-24-57.57c-9.48-16.72-20.62-33.16-36.81-44-1.33-.9-2.59,1.26-1.26,2.16Z"/><path class="cls-3" d="M21.25,465.39c10.91-4.09,22.73-5,34.38-5.26,14.24-.29,28.65.43,42.34,4.36s26.7,11.33,35.48,22.54l5.76-25c-7.4-11.06-20.77-16.37-33.56-20A257,257,0,0,0,31,432.05"/><path class="cls-2" d="M21.58,466.6c19-6.82,41.89-6.68,61.71-3.9,18.8,2.64,37.11,10.14,49.28,25.22a1.26,1.26,0,0,0,2.09-.55l4.64-20.2c.4-1.71,1.42-4.05,1-5.81-.56-2.33-4.25-5.31-5.94-6.82a46.71,46.71,0,0,0-8-5.7c-13-7.49-28.76-10.78-43.36-13.54a263,263,0,0,0-52-4.5,1.25,1.25,0,0,0,0,2.5,260.9,260.9,0,0,1,48.56,3.89c14.41,2.57,29.8,5.7,42.94,12.4a48.36,48.36,0,0,1,9,5.77,35.71,35.71,0,0,1,3.19,3c.81.85,3.23,2.87,3.33,3.39.33,1.73-1.2,5.22-1.59,6.88l-4.16,18.11,2.09-.55c-12.23-15.15-30.72-23-49.63-25.76-20.46-3-44.11-3.26-63.79,3.8-1.5.54-.86,2.95.66,2.41Z"/><path class="cls-3" d="M4.35,584.8c15.23-15.35,37.3-21.83,58.76-24.48,20.6-2.55,43.28-1.53,59.51,11.41l.58-20.36c-8.65-7-19.91-9.73-30.92-11.16A160.42,160.42,0,0,0,4.46,553.8"/><path class="cls-2" d="M5.23,585.68c15.44-15.17,36.87-21.52,57.88-24.11,20.16-2.49,42.16-1.66,58.88,11.24.79.61,1.85-.24,1.88-1.08l.25-8.71c.1-3.45,1-7.72.32-11.12s-6.07-5.42-9-6.82a73.27,73.27,0,0,0-21.15-5.85A162.36,162.36,0,0,0,3.83,552.72c-1.46.67-.19,2.83,1.26,2.16a159.91,159.91,0,0,1,87-13.44,76.3,76.3,0,0,1,20.73,5.21c2.25,1,7.29,2.88,8.81,4.78.41.52.32,1.21.29,2.26l-.52,18,1.88-1.08c-17.48-13.48-40.7-14.15-61.71-11.38C40.37,562.05,19,568.62,3.46,583.91a1.25,1.25,0,0,0,1.77,1.77Z"/><path class="cls-3" d="M11.71,664.21c3.16-8.84,10.84-15.27,18.84-20.17,19-11.64,41.63-17,63.92-16.35,11.84.36,24.61,2.87,32.51,11.7l-1.8-24c-7.34-8-18.37-11.61-29.14-12.86-31.69-3.65-62.66,10.54-89.92,27.11"/><path class="cls-2" d="M12.92,664.54c4-10.29,13.35-16.88,22.72-22a111,111,0,0,1,31-11.22c18.43-3.78,45.22-6.11,59.45,9a1.27,1.27,0,0,0,2.14-.89l-1.63-21.72c-.29-3.75-2.12-5-5.36-7.43-5.91-4.38-13.07-6.88-20.25-8.2-33.85-6.2-67.29,9.49-95.5,26.55a1.25,1.25,0,0,0,1.26,2.16C34,614.28,66.06,599,98.79,604.19c7,1.12,14,3.3,19.94,7.32,1.58,1.07,4.61,3,5.26,4.69a14.74,14.74,0,0,1,.26,3.53l1.48,19.66,2.13-.88c-15-15.82-42.52-13.58-61.89-9.6a113.05,113.05,0,0,0-33.84,12.74C23,647,14.47,653.73,10.51,663.87c-.59,1.5,1.83,2.15,2.41.67Z"/><path class="cls-3" d="M165.51,767.25c-6.69-10.39-19.29-15.92-31.63-16.49s-24.49,3.2-35.82,8.09C86.27,764,74.81,770.47,66.22,780S52.16,802.49,53.8,815.22L40.48,786.64c-.17-8.39,3.09-16.6,8-23.42s11.35-12.37,18.12-17.35c12.46-9.15,26.45-16.69,41.67-19.43s31.8-.25,44.2,9"/><path class="cls-2" d="M166.59,766.62c-15.85-23.34-46.86-18.5-69.17-8.85-23.22,10.05-47.87,29.15-44.87,57.45l2.33-.63-9.49-20.36c-1.14-2.45-3.3-5.5-3.81-8.18-.83-4.38,1.84-11.06,3.68-15A49.19,49.19,0,0,1,53,759.53c11.89-13.42,29.35-24.34,46.43-29.63,17.56-5.44,37.13-4.33,52.37,6.61,1.31.94,2.56-1.22,1.27-2.15-25.2-18.1-57.66-9.39-81.5,6.48-11.77,7.84-23.68,17.44-29.3,30.82-1.81,4.3-4.16,11.05-2.82,15.76.7,2.47,2.31,5,3.39,7.26l9.86,21.17a1.26,1.26,0,0,0,2.33-.63c-2.77-26.1,19.16-44.12,40.57-53.93s53-16.66,68.81,6.59c.9,1.32,3.06.07,2.16-1.26Z"/><path class="cls-3" d="M117.61,921.51c-3.34-12.22,1.5-25.29,8.46-35.87a92.66,92.66,0,0,1,11.87-14.56c22.48-22.49,58-32,87.84-21.11l-16-16.92c-8.8-11.92-24.67-16.69-39.49-16.49a77.08,77.08,0,0,0-54.45,23.55c-14,14.75-21.38,35.61-19.36,55.82.21,2.1,2,4.89,3.68,3.57"/><path class="cls-2" d="M118.82,921.17c-6.31-25.83,18-51.74,38.76-63.33,20.56-11.51,45.52-14.57,67.87-6.66,1.23.43,2-1.24,1.21-2.09-5.17-5.47-10.57-10.79-15.54-16.44-8.94-10.17-19.8-15.64-33.37-17-32-3.25-64.31,15.65-76.93,45.23A73.34,73.34,0,0,0,95,886.34c-.14,3.23-1.18,16.63,5.52,14.37,1.52-.51.87-2.93-.66-2.41s-2.37-5.93-2.4-7.16c0-1.6,0-3.2,0-4.8A68.47,68.47,0,0,1,99.15,874a71.38,71.38,0,0,1,40-49c13.17-6.09,28.39-8.76,42.76-6.25a47.44,47.44,0,0,1,18.87,7.37c3.64,2.51,6.27,5.77,9.21,9,4.89,5.34,10,10.53,14.93,15.79l1.22-2.08c-23.9-8.46-50.83-4.62-72.38,8.41-20.67,12.5-43.68,38.63-37.32,64.66.38,1.56,2.79.9,2.41-.67Z"/><path class="cls-3" d="M317.41,1070.91c-3.24-19.78,3.55-47,14.06-64a85,85,0,0,1,46.44-36.17L354.8,956.14c-6.72-.47-13.13,2.77-18.84,6.35a130.87,130.87,0,0,0-46.72,51.09c-6.87,13.48-11.4,28.94-8.16,43.71"/><path class="cls-2" d="M318.61,1070.58c-3-20.06,2.43-42.48,12.19-60.07a84,84,0,0,1,47.45-38.61,1.26,1.26,0,0,0,.29-2.28l-15.69-9.89c-2.24-1.4-4.69-3.52-7.16-4.5-3.77-1.5-9.24.56-12.74,2.06-11.73,5.06-22.5,14.21-31.39,23.25a131.72,131.72,0,0,0-23,31.71c-7.24,14-11.79,29.62-8.66,45.37.31,1.58,2.72.91,2.41-.66-3.57-18,3.46-35.89,12.69-51.09a130.08,130.08,0,0,1,31.32-35.09c6.46-5,14.14-10.9,22.24-12.79,2.25-.53,4.52-1,6.59-.17a29.32,29.32,0,0,1,3.83,2.41l18.33,11.55.3-2.29c-20.52,6.67-38.43,20.8-48.94,39.76-10.12,18.23-15.57,41.22-12.44,62,.24,1.59,2.65.92,2.41-.66Z"/><path class="cls-3" d="M541.76,994.39l.63-3.33c-12.5,19.83-12.68,44.73-12.47,68.16.09,9.7.18,19.47,2,29s5.54,18.9,12,26.1l-29.35-.73c-6.52-3.88-8.51-12.25-9.7-19.74-5.26-33-6.72-67.29,1.91-99.61"/><path class="cls-2" d="M543,994.72l.63-3.33a1.25,1.25,0,0,0-2.28-1c-11.4,18.63-12.7,40.76-12.68,62.06,0,21.54-.51,45.44,14.47,62.7l.89-2.13-19-.48c-2.92-.07-6.67.48-9.5-.23-5.3-1.34-7.52-9.84-8.55-14.58-3.58-16.59-4.84-34.21-5-51.17a199.27,199.27,0,0,1,6.12-52,1.25,1.25,0,0,0-2.41-.67,203.4,203.4,0,0,0-6.18,54.61c.14,9.5.83,19,1.9,28.42.94,8.3,1.66,17,4,25.06,1.29,4.36,4.14,11.42,9.07,12.83,2.15.61,5.14.14,7.35.2l22.17.55a1.27,1.27,0,0,0,.88-2.14c-14.83-17.07-13.79-41.38-13.74-62.62,0-20.33,1.47-41.34,12.34-59.11l-2.29-1-.63,3.32c-.3,1.58,2.11,2.25,2.41.67Z"/></g></g></svg>