<svg xmlns="http://www.w3.org/2000/svg" viewBox="0 0 2833.31 1327.13"><defs><style>.cls-1{fill:#38301f;}.cls-2{fill:#eae3ca;}.cls-3{fill:none;}.cls-4{fill:#a34928;}.cls-5{fill:#ca7529;}.cls-6{fill:#ad968a;}</style></defs><title>horn2</title><g id="Layer_2" data-name="Layer 2"><g id="drinking_horn" data-name="drinking horn"><path class="cls-1" d="M713.44,134.14c20.48,43,45.93,83.34,74.24,121.61,13.6,18.38,27.79,36.31,42.27,54,15.15,18.51,30.32,37.1,46.59,54.64,17.7,19.1,37.13,36.74,59.73,49.9,2.79,1.62,5.3-2.7,2.52-4.32-40.51-23.59-70.29-61.29-99.7-96.93-29.67-36-58.32-72.91-83.21-112.4a667.88,667.88,0,0,1-38.12-69c-1.38-2.91-5.7-.37-4.32,2.52Z"/><path class="cls-1" d="M820,86.36c19.71,39.1,51.1,70.3,75.3,106.43,26.74,39.93,47.27,83.84,71.59,125.24A1271,1271,0,0,0,1121,527.56a1269.52,1269.52,0,0,0,105.79,103.76c2.41,2.11,6-1.41,3.53-3.53a1269.37,1269.37,0,0,1-178.76-191.93,1267.1,1267.1,0,0,1-73.2-108.36c-24.49-40.64-45.17-83.5-70.12-123.84-25.68-41.51-61.85-76.06-83.91-119.82-1.45-2.87-5.77-.35-4.32,2.52Z"/><path class="cls-1" d="M681.47,278.81c21.21,30.1,37.77,63,55.59,95.15a681.34,681.34,0,0,0,59.07,89.45c44.72,57.24,96.55,109.05,147.54,160.65,30,30.33,60.81,59.88,94.09,86.59,2.48,2,6-1.52,3.53-3.53-57.91-46.48-109-101.14-160.18-154.77-49.61-52-97.12-106.25-133-168.89-20.54-35.88-38.49-73.3-62.35-107.17-1.84-2.61-6.18-.12-4.32,2.52Z"/><path class="cls-1" d="M629.19,350.33a474.19,474.19,0,0,0,33.29,65.75c1.67,2.74,6,.23,4.32-2.52A464.78,464.78,0,0,1,634,349c-1.21-2.93-6-1.64-4.83,1.33Z"/><path class="cls-2" d="M986.41,108.45a74.64,74.64,0,0,0,38.87,19.71c2.85.49,5.93.78,8.49-.58,3.7-2,5-6.61,5.22-10.79.51-9.37-2.42-18.54-5.31-27.47a2.68,2.68,0,0,0-1.16-1.76,2.31,2.31,0,0,0-1.47,0c-5.86,1.2-9.77,8.17-7.75,13.8.94,2.6,2.71,5.93.56,7.65a4.49,4.49,0,0,1-2.57.76c-9.82.6-18.72-6.61-28.57-6.67a7.74,7.74,0,0,0-4.9,1.31c-1.36,1.07-2,3.16-1,4.58"/><path class="cls-1" d="M986,108.89c10.06,9.49,52.68,36.24,53.68,7,.25-7.27-1.55-14.42-3.64-21.32-1.17-3.83-1.37-8.88-6.34-7.28-3.8,1.21-6.65,5.07-7.34,8.91a11.29,11.29,0,0,0,.38,5.32,12.49,12.49,0,0,1,.78,2.05c.09,1-2.5,5.11-3.73,5.6-1.64.66-5-.63-6.64-1.1-6.71-1.87-13.24-5.68-20.39-5.6-3.89,0-8.23,2.23-6.54,6.68.28.74,1.49.42,1.2-.33-2.8-7.42,10.58-4.5,12.79-3.86,2.77.79,5.45,1.89,8.16,2.86,3.83,1.37,10.32,4,14.49,2.35,3-1.15,2.94-3.5,2.12-6.23-1.16-3.89-2.43-6.81-.18-10.83a9.15,9.15,0,0,1,3.25-3.51c3.41-1.93,5-.41,5.93,2.6,2.25,7.08,4.36,14.33,4.47,21.82,0,3.38-.12,7.67-2.23,10.54-3.52,4.77-9.13,3.45-14,2.39A74.89,74.89,0,0,1,986.85,108c-.59-.55-1.47.33-.89.88Z"/><path class="cls-2" d="M1045,199.49s-2.68,1-4,1.34-2.76.41-3.86,1.21a17.24,17.24,0,0,0,12.52.41A6.27,6.27,0,0,0,1045,199.49Z"/><path class="cls-1" d="M1044.85,198.88c-2.57.92-5.67,1.3-8,2.62a.63.63,0,0,0,.15,1.14,18.46,18.46,0,0,0,12.85.41.63.63,0,0,0,.38-.92,7.31,7.31,0,0,0-5-3.25c-.79-.13-1.13,1.08-.33,1.21a6.18,6.18,0,0,1,4.29,2.67l.37-.91a17.41,17.41,0,0,1-12.19-.41l.15,1.14c2.23-1.26,5.26-1.62,7.71-2.49C1045.93,199.82,1045.61,198.61,1044.85,198.88Z"/><path class="cls-3" d="M129.41,72.62c-.39-4.91-5.83-9.34-10.3-7.25-2.51,1.17-4,3.88-6.35,5.28-5,2.92-11-.78-16.23-3.07C88.91,64.26,80.37,64,72.06,64c-3.76,0-7.6.08-11.12,1.41s-6.7,4.14-7.43,7.82c0,0,21.34-1.69,31,1.72,5.74,2,10.93,5.32,16.47,7.83s11.78,4.22,17.7,2.79S129.89,78.69,129.41,72.62Z"/><path class="cls-3" d="M213.58,185.33c-.08-.48-.62-.72-1.09-.88l-4-1.29a3.12,3.12,0,0,0-2.62-.06c-.76.49-.58,2,.32,2l-1,2a5.53,5.53,0,0,0,8.11-.91A1.19,1.19,0,0,0,213.58,185.33Z"/><path class="cls-3" d="M402.07,1.93C373-.28,342.51-2.88,315.58,8.42c-13.33,5.6-25.27,14.43-39.09,18.69-15.83,4.89-32.9,3.41-49.21,6.37s-33.57,12.71-36.58,29c-3.67,19.83,16.13,37,35.85,41.19s40.35.43,60.31,3.33c28.87,4.2,56.28,25.15,62.09,53.74,5.33,26.22-8.23,52.45-24.6,73.61-19.61,25.35-59.78,69.91-60.33,73.1-4.08,23.64,41.2,55.59,59.32,33C345.15,313.27,358,327,382,301.75c6.74-7.09,11.38-15.9,17.48-23.55,13.33-16.72,38.65-27.28,56.18-15,19.16,13.38,26.36,51.61,6.74,64.3-53.5,34.62-84.69,67.24-56,140.37,22.16,56.52,104.48,48,91.43-4.61-1.7-6.84,1.77-13.93,2.15-21,1.36-25.08,52.31-63.71,55.27-54.76,5,15.2,14.28,26.4,19.31,41.6-3.84-192.29,98.54-309.2,302.73-367a226,226,0,0,0,27.1-60.12C737,8.29,569.13,14.63,402.07,1.93Z"/><path class="cls-3" d="M580.21,672.71c-1.05-4-3.35-7.42-5.26-11A60.08,60.08,0,0,1,568.13,630c.34-5.36,1.09-11.6-2.82-15.27-2.16-2-5.24-2.68-8.15-3.24q-15.21-3-30.44-5.91c-5.59-1.08-11.49-2.14-16.86-.27-8.33,2.89-12.78,11.71-16.41,19.74l-.64,1.48c-2.5,9.13-5,18.78-2.59,27.93,1.34,5,4.09,9.56,6.81,14,6.8,11.09,14.1,22.68,25.53,28.89,9.5,5.16,20.68,5.94,31.48,6.44,4.07.19,8.3.33,12.08-1.2,4.4-1.79,7.64-5.63,10.06-9.7C579.8,686.87,582,679.53,580.21,672.71Z"/><path class="cls-3" d="M1030.31,42.89c-7.86-8.24-19.54-14.13-30.56-11.27,0,0-12.67,1.07-15.83,4.51-10.83,11.77-10.09,29.77-8.7,45.7l1.08,12.44c.73,8.39,1.67,17.31,6.9,23.91,5,6.34,13.06,9.33,20.69,12a191.3,191.3,0,0,0,20,6.27c7.67,1.79,17.13,2,21.89-4.26,2.66-3.5,3.09-8.15,3.36-12.53C1050.82,92.6,1049.05,62.54,1030.31,42.89Z"/><path class="cls-3" d="M261.34,417a43.77,43.77,0,0,1-21.79-30.7c-.81-4.86-1.05-10.41-4.78-13.63-2.85-2.47-6.92-2.78-10.68-3l-38.79-2c-6.6-.35-9.76,5.88-9.76,5.88-2.2,7.6-5.46,14.91-7,22.68s-1,16.4,3.75,22.74c7.07,9.48,21.14,11.07,29,19.91,3.92,4.41,5.91,10.23,9.57,14.86s10.38,8,15.42,4.9a15.85,15.85,0,0,0,2.95-2.54q16.68-16.83,33.35-33.65A3.81,3.81,0,0,0,264,420C264,418.61,262.58,417.7,261.34,417Z"/><path class="cls-3" d="M1112.3,132.07a43,43,0,0,1-3.06,8.42c-3.31,7.79-18,18.73-20.37,4.74s-1.73-33.64,2.74-41.89c2.65-4.9,6-4.82,9.09-4.19s6.64,1.92,9.27,7.61S1114.06,124,1112.3,132.07Z"/><path class="cls-3" d="M36.63,351.08a42.51,42.51,0,0,1,5.29,7.23c4.62,7.08,5.5,25.4-7.41,19.55s-28.9-17.3-33.27-25.61c-2.59-4.93-.66-7.65,1.59-9.88s5.3-4.45,11.48-3.46S30.87,345.1,36.63,351.08Z"/><path class="cls-3" d="M1363.61,129.91c-1.67,1.71-2.54,4-3.57,6.18-3.14,6.5-3.73,32.46,5,34.58s19.55-1.4,22.51-9.89c1.75-5,.45-10.59-1.08-15.7-1.59-5.33-3.58-10.84-7.76-14.49S1367.51,126,1363.61,129.91Z"/><path class="cls-3" d="M327,468.65c-.75-5.51-6-9.51-11.48-10.59s-16.87,8.72-16.87,8.72a8.19,8.19,0,0,0-4.25,7c-.07,7.29,9.18,10.94,16.43,10.16C319,483,328.09,476.86,327,468.65Z"/><path class="cls-3" d="M140.63,67.14c-.88-4.41-1.95-9.14-5.32-12.12-3.56-3.15-8.7-3.48-13.36-4.39-9.17-1.79-24.29-11.47-24.29-11.47-23-3-47.34,9.66-58.06,30.29-1.52,2.92-2.71,6.72-.66,9.3A8.49,8.49,0,0,0,43,81.16c14.81,5.09,31.74,2.46,45.88,9.18,3.9,1.85,7.47,4.37,11.5,5.91,6.2,2.38,13,2.29,19.68,2.17,5.48-.1,11.36-.34,15.75-3.62C143.74,88.87,142.59,76.85,140.63,67.14Z"/><path class="cls-3" d="M1266.75,284.76c-2.57,1.54-5.31,3.27-6.43,6.05-1.18,2.94-.25,6.24.22,9.38.93,6.16-1.78,17.82-1.78,17.82,3.25,15.17,16.64,27.6,32,29.74,2.17.3,4.82.2,6-1.67a5.61,5.61,0,0,0,.62-3.09c-.12-10.44-5.55-20.5-4.48-30.89.29-2.86,1.08-5.67,1.15-8.54.11-4.43-1.47-8.71-3-12.86-1.28-3.42-2.74-7.06-5.79-9.09C1279.71,278,1272.42,281.36,1266.75,284.76Z"/><path class="cls-3" d="M638.81,787.44c-2.57,1.54-5.31,3.27-6.43,6-1.18,2.94-.25,6.25.22,9.38.92,6.16-1.78,17.83-1.78,17.83,3.25,15.16,16.64,27.6,32,29.73,2.17.3,4.82.2,6-1.67a5.61,5.61,0,0,0,.62-3.09c-.12-10.44-5.55-20.49-4.48-30.89.29-2.86,1.08-5.66,1.15-8.54.11-4.43-1.48-8.71-3-12.85-1.28-3.42-2.74-7.07-5.79-9.09C651.77,780.63,644.48,784,638.81,787.44Z"/><path class="cls-3" d="M225.24,182.83a8.11,8.11,0,0,0-3.75-1.5l-13.82-3s-5.48-3-7.67.36-1.33,8,.91,11.28c5.22,7.72,18.24,8.7,23.94,1.33C226.76,188.86,227.6,184.89,225.24,182.83Z"/><path class="cls-3" d="M1057.71,197a8.11,8.11,0,0,0-3.75-1.5l-13.82-2.95s-5.48-3-7.66.37-1.34,8,.9,11.27c5.22,7.72,18.24,8.7,23.94,1.33C1059.24,203.08,1060.08,199.1,1057.71,197Z"/><path class="cls-4" d="M598.52,521.72c-12.46-37.89-29.81-90.66-22-159.59,10.66-94.29,61.61-158.79,88-187.11C710.89,125.4,757.88,105.61,802.14,87c44.44-18.72,68.9-20.8,88.05-11,21.74,11.11,41.07,60.76,43.75,67.73,38.34,99.71,86.64,164.61,148.86,251.45,112.51,157.05,300.14,311.42,423.74,388,272.86,169,556.33,226.3,720.92,239.38,146.77,11.67,293.61,48.92,440.26,35.77,16.55-1.48,34.87-7.31,95.38,1,19.08,2.63,52.63,16,61.46,32,8.16,14.83,1.15,32.8,0,35.77-15.24,39.08-108.17,63.19-126.58,68.79-208.19,63.36-76.83,36.87-291.67,88.06-127.78,30.44-336.85,57.81-610.85,19.26-264.67-37.24-451.3-123.94-561.32-176.11-100.21-47.51-217.28-104-344-214.62C785.65,821.21,727.34,739.23,678.31,670.31,641.67,618.8,616.61,576.75,598.52,521.72Z"/><path class="cls-1" d="M603.34,520.39c-14.7-44.71-25.61-89.77-23.49-137.24,2.23-49.94,17.11-98.7,42-142,19.19-33.35,44-63.76,73.49-88.54,37.42-31.46,84.37-53.79,130.47-69.44,17.46-5.93,37.64-11.56,55.82-5.45,17,5.71,26.68,23.55,34.52,38.52C923.54,130.4,929,145.2,935,159.92a743.06,743.06,0,0,0,32.42,69.13c23.17,43.4,50.81,84.14,79.25,124.21,29.81,42,59.9,83.49,93.63,122.44,67.57,78,144,148.57,224.73,212.71,75.48,59.93,155.52,112.57,241.07,157.06,170.89,88.88,358.39,148.69,549.37,174.28,41.15,5.51,82.54,8.15,123.77,12.82,59.14,6.7,117.93,16,177,23.19,60.09,7.27,120.69,12.27,181.25,9.54,33.08-1.48,64.86-7,98.07-4.13,24.32,2.07,47.92,5.63,69.12,18.55,10.79,6.58,18.57,14.38,18.75,27.85a44.57,44.57,0,0,1-6.18,22.89c-8.43,14-24.22,23.07-38.29,30.36-16.19,8.39-33.33,14.86-50.63,20.57-55.07,18.16-111.15,33-165.14,54.35-45.63,18.07-94.19,28-141.77,39.42a1487.17,1487.17,0,0,1-223.61,36.31c-212.85,17.72-430.95-4.45-636.32-62.75-82.27-23.35-162.66-52.89-240.92-87.33-68.43-30.11-136.53-62.09-202.29-97.66-96.68-52.3-186.45-116.36-265.82-192.52-68-65.32-125.79-139.54-179.36-217-28.92-41.78-53.67-85.51-69.79-133.87-2-6.07-11.69-3.47-9.64,2.66,16.83,50.49,42.78,96.08,73.12,139.6,24.46,35.08,49.58,69.79,76.24,103.23A1174.08,1174.08,0,0,0,986.39,994.25c78.12,54.86,162.72,98.06,248.8,138.84,65.38,31,131.52,60.18,199.5,85,205.22,74.94,424.63,111.22,643,108.93,86.73-.91,173.52-8.27,258.93-23.54,38.55-6.9,76.57-16,114.61-25.23,28.69-7,57.61-13.61,85.81-22.42,13.09-4.09,25.71-9.33,38.49-14.26,27.33-10.54,55.24-19.54,83.17-28.34,33.4-10.53,67.73-19.21,100.23-32.39,26.49-10.75,61.64-25.88,71.5-55.41,6-18.09,2.81-36.53-12.45-48.64-14.89-11.83-34.88-19.44-53.57-22.33-21.18-3.27-43-5.21-64.45-4.4-12.28.46-24.35,2.57-36.58,3.59-123.05,10.28-245.24-14.3-366.87-29.06-44.32-5.38-88.9-8.1-133.18-13.82-41.14-5.3-82-12.41-122.62-21a1714.64,1714.64,0,0,1-289-88.18c-102.07-41.31-201-92.45-291.74-155-83.82-57.85-162.52-123.79-235-195.36-76.3-75.39-141.36-159.19-201-248.18-28.59-42.67-54.28-87.15-74.58-134.38C936.27,138,926.1,97.63,899,75.85,869.1,51.9,823.62,72.49,793.82,85.1c-45.5,19.24-88.25,42-123.73,77.05C608.29,223.21,569.91,308,569.56,395.25c-.17,44.12,10.46,86.2,24.14,127.8C595.7,529.14,605.36,526.53,603.34,520.39Z"/><path class="cls-1" d="M715.44,134.14c20.48,43,45.93,83.34,74.24,121.61,13.6,18.38,27.79,36.31,42.27,54,15.15,18.51,30.32,37.1,46.59,54.64,17.7,19.1,37.13,36.74,59.73,49.9,2.79,1.62,5.3-2.7,2.52-4.32-40.51-23.59-70.29-61.29-99.7-96.93-29.67-36-58.32-72.91-83.21-112.4a667.88,667.88,0,0,1-38.12-69c-1.38-2.91-5.7-.37-4.32,2.52Z"/><path class="cls-1" d="M822,86.36c19.71,39.1,51.1,70.3,75.3,106.43,26.74,39.93,47.27,83.84,71.59,125.24A1271,1271,0,0,0,1123,527.56a1269.52,1269.52,0,0,0,105.79,103.76c2.41,2.11,6-1.41,3.53-3.53a1269.37,1269.37,0,0,1-178.76-191.93,1267.1,1267.1,0,0,1-73.2-108.36c-24.49-40.64-45.17-83.5-70.12-123.84-25.68-41.51-61.85-76.06-83.91-119.82-1.45-2.87-5.77-.35-4.32,2.52Z"/><path class="cls-1" d="M683.47,278.81c21.21,30.1,37.77,63,55.59,95.15a681.34,681.34,0,0,0,59.07,89.45c44.72,57.24,96.55,109.05,147.54,160.65,30,30.33,60.81,59.88,94.09,86.59,2.48,2,6-1.52,3.53-3.53-57.91-46.48-109-101.14-160.18-154.77-49.61-52-97.12-106.25-133-168.89-20.54-35.88-38.49-73.3-62.35-107.17-1.84-2.61-6.18-.12-4.32,2.52Z"/><path class="cls-1" d="M1043.88,831.19c25.44,11.61,42.81,34.07,63.12,52.39,22.89,20.65,51.19,33.38,77.41,49.08,54.44,32.57,105.38,70.8,164.11,95.69,34.56,14.65,70.34,26.43,105.7,39,3,1.07,4.34-3.76,1.33-4.83-31.29-11.09-62.84-21.66-93.67-34-30.2-12.09-58.78-27.15-86.48-44.16-26.64-16.36-52.5-34-79.13-50.32-13.46-8.28-27.21-16-41-23.69s-27.32-15.53-39.36-25.62c-23.1-19.35-41.42-45-69.47-57.83-2.91-1.33-5.45,3-2.53,4.32Z"/><path class="cls-1" d="M1242,745.85c6.07,7.14,13.56,12.7,21.32,17.88,9.06,6,18.22,11.95,27.34,17.92q27.89,18.29,55.79,36.55c18.16,11.85,36.52,23.4,55.81,33.35,19.52,10.07,39.67,18.9,59.68,27.94l69.92,31.61c2.91,1.31,5.46-3,2.53-4.32-40.14-18.14-80.81-35.43-120.34-54.88-39-19.19-74.71-44.32-111-68.09l-30.47-20c-9.7-6.36-19.47-12.62-27-21.54-2.09-2.45-5.61,1.1-3.54,3.54Z"/><path class="cls-1" d="M1305,683a2948.87,2948.87,0,0,0,252.75,171.73c23,14,46,28.64,71.92,36.63,3.08,1,4.4-3.87,1.33-4.82-23.6-7.28-44.66-20.31-65.62-33-21.51-13-42.92-26.23-64.13-39.76q-63.45-40.46-124.72-84.2-34.87-24.91-69-50.86c-2.56-1.94-5.06,2.4-2.53,4.32Z"/><path class="cls-1" d="M1153.59,769.55c-.22,5.92,6.75,11.26,10.82,14.8a106.76,106.76,0,0,0,16.34,11.49c12.83,7.46,26.67,12.94,39.89,19.63,27.57,14,52.94,31.87,80.6,45.69,15.33,7.66,31.33,13.93,48.14,17.44,3.14.66,4.48-4.16,1.33-4.82-28.64-6-54.32-20.1-79.23-34.92-12.35-7.35-24.58-14.88-37.17-21.8-12.09-6.66-24.67-12.22-37.08-18.22a173,173,0,0,1-19.92-11,86.67,86.67,0,0,1-9.94-7.55c-2.47-2.19-8.91-7.18-8.78-10.75.11-3.22-4.89-3.22-5,0Z"/><path class="cls-5" d="M1466,1156.34c24.35,7.21,47.51,13.25,66.8,18.28,178.51,46.56,278.18,67.8,391.37,65.17,42.43-1,355-7.31,420.71-6.73,16.31.15,32.64.29,48.88-1.1,21.66-1.86,43-6.44,64.16-11.37,96.27-22.43,322.32-150.53,349-118,6.13,7.47.26,21.58-1.54,25.9-33.45,80.45-287.05,171.5-626,181.61-156.92,4.67-491.15,10.87-870.88-162.35,0,0-269.47-122.91-542.07-393.48C725.58,713.75,650,633.12,610.9,512.09c-14.5-44.92-27.31-105.79-19.26-108.68C601,400,634.25,476.56,661.8,530c84.81,164.39,197.94,269.41,254.53,321.94C916.33,851.92,1140.44,1060,1466,1156.34Z"/><path class="cls-1" d="M1465.28,1158.75c59.25,17.44,119.4,32.35,179.47,46.62,48.35,11.48,97,22,146.26,28.83,63.3,8.84,126.16,8.19,189.81,6.9q113.47-2.3,226.94-4.14c33.67-.53,67.34-1,101-1.31,38.05-.31,76.2,1.56,113.86-5.08,79.93-14.1,153.31-51.3,227.24-83.2,34.5-14.89,69.29-30.21,105.4-40.83,11.33-3.33,23.33-6.73,35.24-6.74,3.54,0,7.72.07,10.95,1.78,9.66,5.08,4.7,18.77,1.24,26.62-9,20.55-28.08,36-46.15,48.33-28.78,19.69-61,34.39-93.4,47-95.12,36.89-196.93,57.06-297.85,69.8-93,11.73-186.81,15.9-280.5,15.89-86.56,0-173.12-5.09-259-16.3a1815.77,1815.77,0,0,1-335.74-76.56c-70.57-23.36-140.87-50-207.13-83.93-159.43-81.67-307.22-189.2-439.91-309C769.53,757,698.4,687.52,651,599.45a547.28,547.28,0,0,1-56-159.6c-1.67-9-3.56-18.45-3.3-27.68.08-2.82-.46-5.62,1.94-5.52,2.08.08,5.64,6.9,6.67,8.47,11.52,17.52,20.34,37,29.55,55.81,25.41,51.81,51.28,102.94,83,151.25a1095.94,1095.94,0,0,0,95.12,124A1270.74,1270.74,0,0,0,923.77,861.89c113.11,98.68,245.54,178.77,382.79,238.68a1381.86,1381.86,0,0,0,158.72,58.18c3.09.92,4.41-3.9,1.33-4.82-183.54-54.65-357.27-148.54-506.6-268.31C849.6,797.06,753,687,683.1,564c-26.4-46.43-46.53-96.14-73.07-142.43C607.42,417.05,599,398.39,591,401c-9,2.94-3.25,25.61-2.29,31.76C605,537,655.22,633.76,724,712.86c32.74,37.65,69.43,72,106.22,105.59Q899,881.29,972.82,938.24c75.25,58.1,154.1,111.74,236.36,159.43,141.52,82,297.62,137.08,457.08,172.3,172.94,38.2,349.22,48.53,525.82,42.16,118.87-4.28,238.21-18.14,353.76-46.93,74.93-18.67,155.7-42.45,219-88.44,17.17-12.47,34.43-27.66,42.83-47.65,4.35-10.35,8.25-26.35-4.46-32.18-7.59-3.48-17.07-2.22-25-1-32.38,5.11-63.89,19-94,31.44-40,16.53-79.45,34.41-119.28,51.38-34,14.48-68.52,29.57-104.44,38.58-31.34,7.87-63,13-95.32,13.26-14.55.13-29.09-.14-43.64-.07-73,.38-146.07,1.87-219.09,3.2q-88.87,1.62-177.75,3.52c-94.53,2-187-15-278.66-36.73-60.07-14.27-120.23-29.18-179.47-46.62C1463.52,1153,1462.2,1157.85,1465.28,1158.75Z"/><path class="cls-1" d="M1773.29,1155.72c59.39,19.43,119.61,38.82,182.53,41.63,27.88,1.24,55.84.75,83.74,1.73,21.37.74,42.74,1.71,64.11,2.49q45.6,1.65,91.25,1.94c3.21,0,3.22-5,0-5-49.28-.31-98.47-2.32-147.7-4.16-25.83-1-51.66-1-77.5-1.56a454.34,454.34,0,0,1-94.46-12.16c-34.09-8-67.4-18.85-100.65-29.73-3.06-1-4.37,3.82-1.32,4.82Z"/><path class="cls-1" d="M2061,1137.26a1018.86,1018.86,0,0,0,232.21,42.18,1031.5,1031.5,0,0,0,235.73-12,1010,1010,0,0,0,130.8-31c3.07-.94,1.76-5.77-1.33-4.82a1013.52,1013.52,0,0,1-231.68,42.65,1025.62,1025.62,0,0,1-235.33-11.57,1010.57,1010.57,0,0,1-129.07-30.32c-3.08-.94-4.4,3.88-1.33,4.82Z"/><path class="cls-1" d="M1700.58,937.32c70.68,24.87,141.37,49.75,213,71.95,35.75,11.08,71.72,21.5,108,30.89,34.93,9,70.19,16.61,105.33,24.81,39.54,9.23,79,19.77,116.24,36.14,2.92,1.28,5.46-3,2.52-4.32-65.85-28.92-137.46-40-206.81-57.39-73-18.25-144.8-40.84-216-64.93-40.39-13.66-80.61-27.82-120.83-42-3-1.07-4.35,3.76-1.33,4.82Z"/><path class="cls-1" d="M829.11,833c8.58,2.69,15.71,8,22.56,13.63,7.52,6.19,15,12.49,22.42,18.74l45.14,37.76,91,76.15c2.45,2,6-1.47,3.53-3.54L919.7,897,873,858c-13-10.84-26.09-24.64-42.6-29.81-3.08-1-4.39,3.86-1.33,4.82Z"/><path class="cls-1" d="M944.56,825.83c.55,2.07,3.24,3.59,4.8,4.79,4.1,3.16,8.35,6.14,12.59,9.11,10,7,20,13.79,30.12,20.58,2.68,1.8,5.19-2.53,2.53-4.32-9.07-6.1-18.12-12.22-27.1-18.46-4.13-2.87-8.25-5.76-12.3-8.74-1.47-1.07-3-2.14-4.35-3.31-.82-.68-1.83-2.32-1.47-1-.83-3.11-5.65-1.79-4.82,1.33Z"/><path class="cls-1" d="M631.19,350.33a474.19,474.19,0,0,0,33.29,65.75c1.67,2.74,6,.23,4.32-2.52A464.78,464.78,0,0,1,636,349c-1.21-2.93-6-1.64-4.83,1.33Z"/><path class="cls-2" d="M969.26,688.31S934.59,658.48,918,642.42c-23.55-22.77-51.68-40.28-76.17-62-37.69-33.5-66.42-76.75-107.1-106.55a48.8,48.8,0,0,0,32.47,61.78c3,.88,6.06,1.51,8.65,3.19,4.3,2.78,6.37,7.87,8.44,12.55,16.59,37.56,47.36,66.82,78.83,93.2,26.57,22.27,54.82,43.62,87.53,55.1,4.89,1.72,10.35,3.19,15.12,1.18S973.17,691.71,969.26,688.31Z"/><path class="cls-1" d="M969.71,687.87q-13.43-11.55-26.65-23.33c-15-13.32-29.19-27.58-44.77-40.21-19.39-15.71-40.06-29.83-58.54-46.64-17.46-15.88-33-33.69-48.81-51.17-17.3-19.11-35.12-37.87-55.92-53.23a.63.63,0,0,0-.92.37c-6.74,22.19,2.28,46.38,22.49,58.05,4.78,2.75,9.73,4,14.88,5.8,8,2.76,10.35,10.18,13.63,17.19a181.26,181.26,0,0,0,19.77,32.4c15.16,20,33.61,37.33,52.68,53.59,19.76,16.83,40.21,33.23,62.93,45.91a201.64,201.64,0,0,0,20.14,9.86c5.8,2.44,12.12,5.45,18.46,5.9,4.6.32,9.21-1,11.52-5.3,1.68-3.14,1.55-6.56-.89-9.19-.55-.59-1.43.29-.89.88,3.19,3.44,1.27,8.73-2.33,11s-8.45,1.44-12.37.39c-6.57-1.75-13-4.68-19.18-7.53a230.88,230.88,0,0,1-30.07-17c-20-13.22-38.63-28.67-56.53-44.59-17-15.08-33.15-31.31-46.3-49.89a175.87,175.87,0,0,1-16.9-29.33c-1.79-4-3.41-8.35-6.55-11.52-3.49-3.52-8.17-4.2-12.68-5.72a49.09,49.09,0,0,1-26-20.72A47.64,47.64,0,0,1,733.7,497a48.7,48.7,0,0,1-.67-9.94c.1-3-.2-8.26,1.56-10.67s5,1.86,7,3.45,3.9,3.16,5.81,4.79c4.68,4,9.22,8.11,13.65,12.36,8.07,7.76,15.78,15.89,23.34,24.15,15.56,17,30.55,34.49,47.12,50.49,17,16.43,36.06,30.32,54.73,44.74,18.31,14.14,34.77,30.09,52,45.49q15.18,13.58,30.61,26.85C969.43,689.28,970.32,688.4,969.71,687.87Z"/><path class="cls-6" d="M880.1,409.83c1.59-1.6,21.17,13.58,39,31.64,31.64,32.09,29.07,44.32,58.7,74.75,7.6,7.8,21.27,19.11,48.61,41.73,35.77,29.59,33.59,25.37,41.27,33.94,12.41,13.82,20.71,27.72,37.61,33,3.44,1.08,6.82,1.67,11,4.58,8.55,6,8.44,13.26,16,25.23a80.79,80.79,0,0,0,16.05,18.34c9.71,8,15.87,8.82,22.47,17.89a32.39,32.39,0,0,1,5.5,12.38c.85,4.06,1.63,7.79,0,9.17-3,2.56-11.85-5-27.51-15.13-24.19-15.6-35.61-18.48-36.23-27.52-.46-6.73,5.59-9.07,4.12-15.13-1.87-7.76-13.2-9.9-23.84-14.68-9.21-4.13-17.61-12.23-34.4-28.43-31.82-30.71-32.61-39.31-56.41-61.91C972.52,521.61,969.61,531,949.35,508c-17.62-20-16-27.69-42.65-63.29C890.42,423,878.79,411.13,880.1,409.83Z"/><path class="cls-1" d="M880.41,410.37c.85-.49,4.07,2,4.74,2.46,3.34,2.22,6.5,4.72,9.6,7.25a299.56,299.56,0,0,1,22.55,20.48,241.72,241.72,0,0,1,32,40.18c8.37,13,17.45,25.12,28.29,36.14,7.58,7.7,16,14.57,24.28,21.5,14.31,12,28.64,24,43.27,35.56,5.64,4.47,11.65,8.59,17.09,13.31,8.17,7.1,14.13,16.48,21.63,24.25,5.24,5.44,11.22,10.17,18.3,13,4.4,1.73,9,2.47,13.07,5.08a24.32,24.32,0,0,1,8.4,9.59c3.92,7.51,7.11,15,12.34,21.8a78,78,0,0,0,13.44,13.73c6.67,5.24,14.62,8.67,20,15.42a32.14,32.14,0,0,1,5.5,10.1c1,3,4.07,13.45-1.72,11.85-2.86-.79-5.65-3-8.09-4.56-4-2.63-7.9-5.37-11.88-8-8-5.27-16.15-10.11-24.39-14.9-4.48-2.6-9.84-5.18-13.22-9.23a9.4,9.4,0,0,1-2.34-6.17c0-4.06,3-6.62,4-10.31,1.5-5.51-2.53-9.7-7-12.2-6.67-3.73-14.33-5.32-21-9.17-6.16-3.59-11.51-8.49-16.72-13.31-7.29-6.76-14.48-13.67-21.47-20.75-20.66-20.93-37-45.45-59.89-64.24-8.23-6.76-17.53-11.43-26.2-17.48-10.19-7.12-18.72-17.27-25.58-27.55-6.41-9.61-11.67-19.94-18-29.62-10-15.4-21.45-29.84-33.1-44-.78-1-8.51-9.05-7.69-10.34.43-.68-.65-1.31-1.08-.63-1,1.61,2.13,4.69,3,5.75,4.47,5.76,9.24,11.3,13.78,17a391.25,391.25,0,0,1,32.45,46.54c5.68,9.72,11.29,19.26,18.64,27.85a99.78,99.78,0,0,0,26.24,21.81c25.59,15,42.93,38.13,62,60.12a421.81,421.81,0,0,0,41.08,41c4.53,3.95,9.28,7.77,14.7,10.44,7.23,3.55,20,5.19,24,12.93,3.34,6.43-4.91,11.95-3.13,18.83,1,3.71,4,6.26,7,8.39,5.9,4.17,12.45,7.47,18.65,11.17,9,5.41,17.69,11.41,26.49,17.2,2.48,1.63,8.29,6.52,11.74,4.79,4.56-2.28.1-13.39-1.19-16.37-6-13.81-20.51-18.44-30.64-28.42a83.86,83.86,0,0,1-17-24.48c-3-6.43-5.93-12.36-12.26-16.1-3.48-2.06-7.37-2.83-11.14-4.17a45.15,45.15,0,0,1-14.4-8.59c-7.24-6.26-13-14.05-19.2-21.25a79,79,0,0,0-12-11.38c-11.43-8.73-22.61-17.76-33.69-26.92-24.1-19.94-49.12-38.93-67.17-64.86-8.6-12.36-16.16-25.27-25.95-36.78-12.78-15-27.55-29.33-43.62-40.84-1.42-1-5.94-5.12-8.07-3.89A.63.63,0,0,0,880.41,410.37Z"/><path class="cls-6" d="M700.79,525.85s11.45,5.19,24.3,18.8c17.15,18.18,27.28,30.84,33.48,38.07,9.73,11.34,8.65,8,49.53,44.94,39.91,36.09,37.11,35.83,44.94,39.9,17.7,9.2,38.24,22.62,39.44,26.14,2.12,6.2-2.35,9.68.46,14.67,5,8.9,28.89,7.8,28.43,11.93-.94,8.51,3.67,24.3,2.29,31.64-.59,3.18-5.73,3.54-12.38,3.67-18.19.35-32.72-8.68-38.52-12.38-27.29-17.42-40.94-26.13-52.28-37.15-26.2-25.46-19.5-31-45.4-55.49-19.76-18.69-26.65-18.29-41.73-37.15C723.53,601.18,718.47,591,710,574c-2.51-5-12.25-17.43-10.55-34.39C700.79,525.85,700.06,526.25,700.79,525.85Z"/><path class="cls-1" d="M700.47,526.39c9.81,4.52,18.21,12.37,25.52,20.13,9.56,10.15,18.7,20.67,27.67,31.35a184.21,184.21,0,0,0,21.82,21.81q29.68,25.46,58.14,52.32c6.3,5.92,12.12,12.41,19.83,16.48,12.3,6.49,25.94,13.48,36.28,23,4.78,4.39.79,9.41,1.74,14.71.71,3.91,4.16,6.23,7.55,7.7,4.27,1.85,8.91,2.66,13.44,3.56a48.54,48.54,0,0,1,5.71,1.28c2.84.94,2.41,2.25,2.46,5,.11,6.88,1.75,13.66,2.41,20.48.29,3,1,6.59-1.21,8.77-2.74,2.73-8.61,2.15-12.3,2.09-14-.21-26.52-6-38.11-13.36-12-7.68-24.22-15.22-35.73-23.67a149.08,149.08,0,0,1-27.06-25.52c-6.87-8.35-11.85-18-18.49-26.5-8.61-11.05-19.22-20.66-30.33-29.13-10.81-8.24-20.51-16.33-28.73-27.31-8.56-11.41-14.21-24.19-21-36.63-2.57-4.69-5.42-9.12-7.33-14.17-2.93-7.76-3-15.26-2.29-23.41.09-1,0-8.52.66-8.9s.07-1.47-.63-1.08c-1,.55-.72,2-.78,3-.44,7-1.68,14-.7,21,1.69,12.07,9,22.42,14.43,33.08,6.84,13.5,14.44,26.45,24.68,37.7,8.64,9.49,19.53,16.17,29.23,24.46a147.71,147.71,0,0,1,29.27,33,156.82,156.82,0,0,0,24.49,30.07c8,7.58,17.08,13.93,26.24,20,11.8,7.86,23.7,16.69,36.64,22.6a66.69,66.69,0,0,0,19.64,5.68c5,.6,14.71,2,19.12-1.45,3.22-2.52,1.74-8.84,1.34-12.24-.84-7-2-13.77-2.16-20.79-.08-2.68-1.13-3.18-3.75-4-4.7-1.41-9.64-1.85-14.36-3.2a25.89,25.89,0,0,1-7-2.9c-4-2.62-4.26-6.33-3.45-10.78.75-4.13.36-7.15-2.69-10C880.18,681,866.49,674,854.08,667.4a39.23,39.23,0,0,1-8.05-5.46c-17.8-15.88-34.89-32.56-52.75-48.39-10.41-9.22-22-17.73-31.42-28-17-18.61-31.51-40.8-52.47-55.26a56,56,0,0,0-8.29-5C700.38,525,699.74,526.05,700.47,526.39Z"/><path class="cls-2" d="M1278.16,890.44c2.06-3.27,37.21,15.16,66,30.27,65.33,34.23,67.66,42.17,96.31,49.52,15.72,4,8.75,0,77,9.18,41,5.48,52.18,8.08,62.37,11,15.41,4.42,37.24,10.68,61.45,25.68,25.67,15.91,24.71,23.48,45.86,33,17.14,7.73,24.4,5.75,54.12,11,33,5.85,26.94,8.81,76.12,20.18,45.08,10.42,67.62,15.63,80.72,11.92,4.18-1.18,16.49-5.21,21.09,0a8.52,8.52,0,0,1,.92,9.17c-3.69,6.76-18.39,5.36-25.68,4.59-87-9.25-118.32-19.26-118.32-19.26-66-21.12-73.55-32-100.89-27.52-25.42,4.2-27.91,15.12-51.37,14.68-17.36-.33-22.66-6.44-75.21-31.19-25.36-11.94-23.32-10.14-52.28-23.84-20.88-9.89-32.26-15.72-55.94-27.52-76.13-38-70.59-33.65-85.3-42.19C1312.74,924.47,1275.91,894,1278.16,890.44Z"/><path class="cls-1" d="M1278.6,890.88c1.52-1.69,10.57,3,11.88,3.57,6.67,2.88,13.19,6.11,19.69,9.37q24.39,12.23,48.41,25.25c19.49,10.55,38.12,22.85,57.86,32.91a103.87,103.87,0,0,0,32.67,10.67c13.87,1.88,28,2.38,41.91,4,55.83,6.58,115.39,12.94,161.84,48,9.31,7,17.07,15.91,27.34,21.64a87.62,87.62,0,0,0,31.2,10.13c22.22,3.06,43.68,6.4,65,13.37,28.59,9.34,58.5,16,88.06,21.45,9.26,1.71,19,3.53,28.5,2.56,3.84-.4,7.4-1.68,11.14-2.54,3.37-.78,7.18-1.52,10.62-.76,7.34,1.62,7.16,11.06.89,13.86-5.92,2.64-13.43,1.75-19.71,1.13-9.37-.93-18.74-2-28.09-3.21-15.57-1.92-31.11-4.1-46.58-6.69-14.24-2.39-28.59-4.93-42.52-8.8-20.49-5.7-40.34-13.92-60.21-21.44-15.41-5.84-29.53-9.5-46-6.28a83.66,83.66,0,0,0-19.52,6.54c-5.59,2.63-11.07,5.43-17.19,6.67a51.92,51.92,0,0,1-25.19-1.07c-7.8-2.41-15.13-6.36-22.41-10-14.21-7.07-28.44-14.09-42.82-20.81-24.11-11.27-48.5-21.83-72.39-33.61-28.13-13.86-56.08-28.07-84.33-41.69-8.94-4.3-18.08-8.3-26.83-13a421.79,421.79,0,0,1-65.12-43.61c-4.2-3.39-8.36-6.86-12.25-10.61-.94-.91-6.49-5.55-5.76-7.18.33-.72-.75-1.36-1.08-.63-1.72,3.83,8.82,11.38,10.94,13.24a382.54,382.54,0,0,0,37.85,28.46c13.45,9,27.22,17.91,41.86,25,48.24,23.2,95.71,48.14,144.42,70.31,25.13,11.44,50.15,22.93,74.88,35.23,14.76,7.34,28.33,14,45.27,11.73,12.82-1.69,23.51-9.78,36-12.88,9-2.24,18.42-3.14,27.59-1.43,8.6,1.61,16.85,4.92,25,8,14.24,5.45,28.49,10.84,42.95,15.7,37.54,12.62,77.64,17.16,116.81,21.65,7.89.9,15.92,2.17,23.89,2.14,4.7,0,11-.27,14.52-4,3.1-3.28,3-9.32-.6-12.25-3.89-3.22-10.13-2.1-14.62-1.12s-8.53,2.48-13.07,2.77a75.43,75.43,0,0,1-13.68-.64c-15-1.81-29.8-5.45-44.5-8.81-16.39-3.75-32.84-7.4-48.93-12.31-8.18-2.49-16.21-5.46-24.49-7.6-13-3.37-26.42-5.36-39.75-7.07-12.29-1.57-23.74-3.45-35-8.93-11.47-5.59-19.72-14.66-29.63-22.39-14.14-11-30.35-19.53-47-26a295.15,295.15,0,0,0-61.4-16c-28.1-4.4-56.44-8.26-84.8-10.48-9.91-.78-19-1.9-28.53-4.88-16.09-5-30.18-14.5-44.61-22.93-29.61-17.3-60.07-33.73-91.13-48.29a124.43,124.43,0,0,0-14.2-6c-1.38-.45-4.57-1.83-5.85-.4C1277.18,890.59,1278.06,891.48,1278.6,890.88Z"/><path class="cls-6" d="M1045.19,931.71c11.51-6.28,27.1,23.14,61.46,34.85,26.24,9,28.79-4.25,58.7,4.59,5.63,1.67,40.36,12.46,62.37,44.94,8.55,12.63,6.31,15.45,13.75,26.6,11.24,16.85,26.41,25.52,67,42.19,74.24,30.53,129.07,49.76,129.07,49.76,6.85,2.41,19,6.62,18.6,8-.57,2.2-31.83-2.59-56.87-9.18-86.06-22.64-97.53-66.24-157.76-67-21.16-.25-31.7,5-55-.92-30.47-7.72-51-26.42-56.86-32.1-26.53-25.59-17.12-38.5-41.28-56.87-22.81-17.33-47.1-17.92-48.61-32.1C1039.22,940.1,1041,934,1045.19,931.71Z"/><path class="cls-1" d="M1045.51,932.25c4.83-2.4,10,1.54,13.73,4.34,5.51,4.16,10.62,8.83,16.08,13.07,13.29,10.31,29.6,19.92,46.83,20.76,6.3.3,12.41-1.12,18.65-1.64,8.47-.71,16.82.68,24.92,3.13a119.61,119.61,0,0,1,30.57,14.51c16.38,10.72,31,25.77,38.31,44.17a66.61,66.61,0,0,0,21.8,28.85c13.59,10.33,30,16.92,45.63,23.46,21.51,9,43.19,17.61,64.93,26,23.1,9,46.29,17.79,69.67,26,4.95,1.74,10,3.39,14.77,5.49.24.11,4.09,1.59,4,2.12,0-.27-1.54,0-2,0a58.66,58.66,0,0,1-9-.73,328.81,328.81,0,0,1-61.84-13.92,252.86,252.86,0,0,1-50.55-23.26c-11.79-7.05-23-15-34.79-22.08-10.84-6.47-22.31-11.78-34.71-14.42-16.24-3.46-32.1-1.53-48.47-.55-35.64,2.14-74.09-18.36-95.15-47-8.51-11.58-11.84-26.2-21.71-36.81-6.85-7.38-15.58-13-24.52-17.47-8-4-16.82-6.85-24.51-11.54-3-1.86-6.09-4.26-7.32-7.74-1.81-5.12,0-11.81,4.62-14.8.67-.44,0-1.52-.63-1.08-5.32,3.45-7.4,11.23-4.87,17,2.44,5.58,8.71,8.53,13.9,10.95,18.57,8.64,39,16.5,49.56,35.34,3.67,6.53,6.2,13.63,10,20.09a93.37,93.37,0,0,0,16.77,20.45,132.75,132.75,0,0,0,38.61,25.28,106.44,106.44,0,0,0,31.16,8.38c9.48.92,18.83-.28,28.27-1,16.48-1.3,33,.06,48.47,6,13,5,24.65,12.77,36.24,20.35,13.83,9,27.85,17.73,42.88,24.68,19.71,9.1,40.53,15.27,61.75,19.71,9.24,1.94,18.57,3.67,28,4.78,1.58.19,10,2,11-.18,1.38-3.09-17.92-8.65-20.93-9.72q-14.39-5.1-28.66-10.47-27.71-10.3-55.2-21.17c-23.36-9.22-47-18.19-69.71-28.91-13.45-6.34-27-13.65-36.45-25.43-5-6.17-8-12.93-11.08-20.17-4-9.31-10.3-17.66-17.24-24.94-18.32-19.23-48.4-36.86-76-34.75-6.41.49-12.68,2-19.15,1.68-10.68-.52-21.23-4.83-30.45-10a150.74,150.74,0,0,1-22.18-15.79c-4.76-4-9.49-8.53-15-11.42-3.1-1.62-6.36-2.42-9.62-.8C1044.16,931.53,1044.79,932.61,1045.51,932.25Z"/><path class="cls-6" d="M2286.62,1080.3c-1.8,7.35,29.94,24.07,60.53,30.26,41.17,8.34,74.48-3.56,90.81-9.63,9.38-3.48,32.7-12.15,31.64-17.88-1.16-6.27-30.44-3.34-93.55-4.13C2310.86,1078.11,2288.09,1074.32,2286.62,1080.3Z"/><path class="cls-1" d="M2286,1080.13c-.54,3.43,2.94,6.28,5.3,8.17,5.93,4.78,13,8.25,19.9,11.34,18.49,8.24,38.48,13.48,58.75,14.3,30.18,1.21,61-7.46,88-20.57,2.69-1.3,16.91-7.79,10.73-12.46-4.51-3.42-13.84-2.45-19-2.55-36.79-.74-73.57.28-110.36-.88-13.76-.44-27.61-1.44-41.38-1.07-3.13.08-10.8-.4-12,3.72a.62.62,0,0,0,1.2.33c1-3.3,8.63-2.75,11.07-2.81,9.86-.24,19.75.35,29.59.69,34.25,1.2,68.48,1.41,102.74,1.22,9.79-.06,19.72-.4,29.48.54,2.24.21,5.42.3,7.42,1.54,3.6,2.25-1.1,5.47-3.32,6.92-9.68,6.35-21.4,10.07-32.26,13.9a177.13,177.13,0,0,1-41.29,9.6,159.92,159.92,0,0,1-89.86-19c-3.51-2-14.4-7.3-13.57-12.58C2287.35,1079.68,2286.14,1079.34,2286,1080.13Z"/><path class="cls-3" d="M21.51,361.12a.13.13,0,0,0,0-.05c-.14-.07-.27-.16-.41-.22Z"/><path class="cls-3" d="M23.08,356c-1.85.85-2.83,3.46-1.6,5.07,2.09,1.13,3.38,3.37,4.52,5.49s2.61,4.67,5,5.67,5.81-.5,5.67-3.06a5.73,5.73,0,0,0-1.06-2.6l-2.92-4.75a17,17,0,0,0-3.81-4.8A5.79,5.79,0,0,0,23.08,356Z"/><path class="cls-3" d="M623.69,178.58c-.44-2.82-2.66-5.05-5.07-6.6-14.79-9.51-34.68,1.24-45.65,15C555,209.45,548.7,238.89,544.85,267.4c-2.22,16.41-4,33.56-12.87,47.55-1.28,2-2.9,4.09-5.23,4.58-5.28,1.12-8.15-6-8.39-11.38-.82-18.22,3.31-36.45,1.83-54.63s-10.75-37.75-28.2-43.05c-14.66-4.45-30.87,2.34-45.65-1.67C430.24,204.43,420,188.2,416,172s-3.36-33.19-6.19-49.63S399.49,88.83,384.7,81.1c-7.39-3.87-15.92-5-23.42-8.66S347,61.13,348.67,53c1.58-7.67,9.49-11.92,15.71-16.68s11.52-13.89,6.54-19.93c-3.12-3.79-9-4.14-13.52-2.14S280.21,52.83,244,60.32c-10.9,2.25-24,5.77-26.95,16.51,11.72,9.35,28.61,5.42,43.6,5.14,18-.32,35.51,5.35,52.57,11.1,15.89,5.35,32.46,11.3,43.63,23.79,14.92,16.67,16.84,41.41,13.32,63.5a161.41,161.41,0,0,1-43.72,86.82c-13,13.31-28.9,25.07-35.64,42.43-3.94,10.15-1.78,25.1,8.91,27.1,8,1.49,14.81-5.33,20.32-11.28,21-22.65,45.84-41.27,70.89-59.29,11.32-8.14,22.87-16.28,36-21.09s28.09-6,40.76-.17c25.27,11.58,31.62,46.66,21.26,72.45S456.51,362,436.22,381c-6.45,6-13,12.51-15.81,20.87-2.22,6.61-1.87,13.8-1,20.72A146.13,146.13,0,0,0,435.51,473c3.87,7.22,9.16,14.71,17.16,16.47,8.86,1.93,17.84-4.24,22.31-12.12s5.53-17.17,6.92-26.13C485.66,427,495,400.3,517.45,390.7c6.62-2.83,14.34-4.17,19.09-9.57,6.12-7,4.74-17.64,8-26.33,4.53-12.12,17.62-19.3,22.66-31.22,3.29-7.79,2.72-16.58,3.14-25,2-41.18,28.14-76.55,50.39-111.25C622.42,184.66,624.17,181.69,623.69,178.58Z"/><path class="cls-3" d="M988.41,108.45a74.64,74.64,0,0,0,38.87,19.71c2.85.49,5.93.78,8.49-.58,3.7-2,5-6.61,5.22-10.79.51-9.37-2.42-18.54-5.31-27.47a2.68,2.68,0,0,0-1.16-1.76,2.31,2.31,0,0,0-1.47,0c-5.86,1.2-9.77,8.17-7.75,13.8.94,2.6,2.71,5.93.56,7.65a4.49,4.49,0,0,1-2.57.76c-9.82.6-18.72-6.61-28.57-6.67a7.74,7.74,0,0,0-4.9,1.31c-1.36,1.07-2,3.16-1,4.58"/><path class="cls-2" d="M1095.54,125.11s0,0,0,0,0-.31,0-.47Z"/><path class="cls-1" d="M1096.08,125.43a1.41,1.41,0,0,0,.06-.84c-.1-.77-1.29-.83-1.25,0l0,.52c0,.8,1.29.81,1.25,0l0-.52h-1.25c0,.09,0,.46.11.21C1094.65,125.52,1095.72,126.15,1096.08,125.43Z"/><path class="cls-2" d="M1100.66,123.56c-1.73-1.06-4.45-.42-5.1,1.5.23,2.36-.92,4.68-2,6.81s-2.43,4.77-1.94,7.29,3.65,4.55,5.7,3a5.73,5.73,0,0,0,1.57-2.32c.77-1.7,1.55-3.39,2.32-5.08a16.83,16.83,0,0,0,1.86-5.84A5.79,5.79,0,0,0,1100.66,123.56Z"/><path class="cls-1" d="M1101,123a4.63,4.63,0,0,0-4.37,0c-2.2,1.24-1.51,3.25-2.17,5.39-1.25,4.09-6.6,10.43-1.33,14.06,4.34,3,6.29-2.31,7.73-5.46,2-4.35,4.94-10.17.26-13.87-.62-.49-1.51.38-.88.88,3.53,2.79,1.92,7.09.41,10.46-.57,1.27-1.16,2.54-1.74,3.8s-2.52,6.61-5.62,2.7c-2.84-3.58.44-7.59,1.87-11,.77-1.84,1.18-7.68,5.21-5.9C1101.08,124.42,1101.71,123.35,1101,123Z"/><path class="cls-2" d="M1047,199.49s-2.68,1-4,1.34-2.76.41-3.86,1.21a17.24,17.24,0,0,0,12.52.41A6.27,6.27,0,0,0,1047,199.49Z"/><path class="cls-1" d="M1046.85,198.88c-2.57.92-5.67,1.3-8,2.62a.63.63,0,0,0,.15,1.14,18.46,18.46,0,0,0,12.85.41.63.63,0,0,0,.38-.92,7.31,7.31,0,0,0-5-3.25c-.79-.13-1.13,1.08-.33,1.21a6.18,6.18,0,0,1,4.29,2.67l.37-.91a17.41,17.41,0,0,1-12.19-.41l.15,1.14c2.23-1.26,5.26-1.62,7.71-2.49C1047.93,199.82,1047.61,198.61,1046.85,198.88Z"/><path class="cls-2" d="M1282.92,319.58a32.13,32.13,0,0,1-3.23-3.57,14.13,14.13,0,0,1-1.69-4.29,5.64,5.64,0,0,0-1.24-2.7,3.46,3.46,0,0,0-3.86-.4,7.17,7.17,0,0,0-2.83,2.92l-.55,2.52A29.29,29.29,0,0,0,1284,335.39a1.89,1.89,0,0,0,.92.32c.79,0,1.24-.89,1.45-1.64A15.73,15.73,0,0,0,1282.92,319.58Z"/><path class="cls-1" d="M1283.37,319.14a22.89,22.89,0,0,1-5-8.31,5.34,5.34,0,0,0-1.3-2.35c-1.76-1.44-4.13-.9-5.75.46-4.8,4-1.25,11.56,1.23,15.88,1.67,2.92,9,13.25,13.11,11.16,2.11-1.07,1.9-5.43,1.75-7.28a17.11,17.11,0,0,0-4.05-9.56c-.51-.63-1.39.26-.89.88,2,2.51,4,6.06,3.76,9.45q.51,3.24-3.24,4.62a27.42,27.42,0,0,1-3.41-2.57,28.78,28.78,0,0,1-7.53-10.59,20,20,0,0,1-1.7-5.57,3.83,3.83,0,0,1,0-2.39q.46-4.19,7-1.08c.81.92,1,3.26,1.76,4.44a25.36,25.36,0,0,0,3.33,3.69C1283,320.6,1283.93,319.72,1283.37,319.14Z"/><path class="cls-2" d="M655,822.26a33,33,0,0,1-3.23-3.56,14.19,14.19,0,0,1-1.69-4.3,5.64,5.64,0,0,0-1.24-2.7,3.48,3.48,0,0,0-3.86-.4,7.24,7.24,0,0,0-2.83,2.92l-.55,2.52A29.3,29.3,0,0,0,656,838.08a1.84,1.84,0,0,0,.92.31c.79,0,1.24-.88,1.45-1.64A15.74,15.74,0,0,0,655,822.26Z"/><path class="cls-1" d="M655.42,821.82a23,23,0,0,1-5-8.31,5.32,5.32,0,0,0-1.31-2.35c-1.75-1.44-4.12-.9-5.74.46-4.8,4-1.25,11.56,1.23,15.88,1.67,2.93,9,13.25,13.11,11.16,2.11-1.07,1.9-5.43,1.75-7.28a17.12,17.12,0,0,0-4.06-9.56c-.5-.62-1.38.27-.88.89,2,2.5,4,6.06,3.76,9.44q.51,3.24-3.24,4.62a27.28,27.28,0,0,1-3.42-2.57,28.92,28.92,0,0,1-7.52-10.58,20.48,20.48,0,0,1-1.71-5.58,3.9,3.9,0,0,1,.05-2.39q.46-4.18,7-1.08c.81.92,1,3.26,1.76,4.44a26,26,0,0,0,3.33,3.7C655.1,823.29,656,822.4,655.42,821.82Z"/><path class="cls-2" d="M1378.4,145.17a2.86,2.86,0,0,0-1.28-1c-1.75-.53-3,1.62-3.59,3.36l-3.72,11.57.61-.67a2.05,2.05,0,0,0,2.44,1.4,5.27,5.27,0,0,0,2.59-1.68,15.28,15.28,0,0,0,4-6.06A7.64,7.64,0,0,0,1378.4,145.17Z"/><path class="cls-1" d="M1378.84,144.73c-1.74-1.76-3.65-1.4-5,.66a22.53,22.53,0,0,0-2,5.49L1369.2,159a.63.63,0,0,0,1,.61l.62-.67-1-.13c1.89,4.16,6.19-.11,7.76-2.11,2.7-3.45,3.94-8,1.3-11.81-.46-.66-1.54,0-1.08.63a7.82,7.82,0,0,1,.24,8.24c-.33.63-5.4,8.26-7.14,4.42a.62.62,0,0,0-1-.12l-.62.67,1.05.61c.74-2.32,1.49-4.63,2.23-6.94.37-1.14,2.38-9.73,5.31-6.75C1378.52,146.19,1379.4,145.31,1378.84,144.73Z"/><path class="cls-3" d="M242.86,419c-2.61-2-6.1.85-8.07,3.45s-5.21,5.57-8,3.87a7,7,0,0,1-2.14-2.67,42.05,42.05,0,0,0-8.94-11.32A30.9,30.9,0,0,0,193,405.19c-2.85.28-6,1.16-7.46,3.6s.09,6.54,3,6.29h-2.31l11.18,2.61a17.12,17.12,0,0,1,6,2.22c2.28,1.59,3.65,4.15,4.92,6.62l6.19,12c1.85,3.58,4.73,7.74,8.73,7.17a8.48,8.48,0,0,0,2.48-.85,36.32,36.32,0,0,0,17.71-18.65C244.4,423.78,244.92,420.58,242.86,419Z"/><path class="cls-3" d="M316.05,468.6a10.49,10.49,0,0,0-5,.86l-1.05.39-3.37,3.87a2.2,2.2,0,0,0-.65,1.2c-.09,1.22,1.61,1.61,2.83,1.51a55,55,0,0,0,5.58-.76c2.18-.42,4.79-1.49,4.91-3.7C319.39,470.26,317.74,468.86,316.05,468.6Z"/><path class="cls-3" d="M569,668.67c-1.63-2.73-5-5-7.89-3.65-2.41,1.11-3.27,4.11-5.26,5.88-2.24,2-5.68,2.13-8.51,1.11s-5.19-3-7.48-5l-7.88-6.7c-2.44-2.07-4.94-4.18-7.93-5.31s-6.63-1.09-9.14.9-5.51,4.06-3.17,6.24l1.23,4.56a54,54,0,0,0,12,15c5.47,5,11.79,9.31,19,11.09s15.35.7,21-4.11S572.8,675,569,668.67Z"/><path class="cls-3" d="M131.41,72.62c-.39-4.91-5.83-9.34-10.3-7.25-2.51,1.17-4,3.88-6.35,5.28-5,2.92-11-.78-16.23-3.07C90.91,64.26,82.37,64,74.06,64c-3.76,0-7.6.08-11.12,1.41s-6.7,4.14-7.43,7.82c0,0,21.34-1.69,31,1.72,5.74,2,10.93,5.32,16.47,7.83s11.78,4.22,17.7,2.79S131.89,78.69,131.41,72.62Z"/><path class="cls-1" d="M572.54,404.56a801.53,801.53,0,0,0,84.57,146.3c16.58,22.76,34.31,44.58,52.49,66.08,10.09,11.93,20.09,24,28.52,37.19,8.26,12.92,15.06,26.7,22.93,39.86,17.21,28.8,40.09,53.53,62.83,78,2.19,2.36,5.72-1.18,3.53-3.53-20.79-22.38-41.76-44.91-58.21-70.77-7.9-12.41-14.5-25.57-22-38.23a284.91,284.91,0,0,0-25.89-36.22c-18.54-22.54-37.49-44.64-54.91-68.08a816,816,0,0,1-45.59-68,798.84,798.84,0,0,1-44-85.1c-1.31-2.94-5.62-.4-4.32,2.52Z"/></g></g></svg>