<svg xmlns="http://www.w3.org/2000/svg" viewBox="0 0 203.16 210.24"><defs><style>.cls-1{fill:#f6bc3c;stroke:#38301f;stroke-miterlimit:10;stroke-width:0.7px;}</style></defs><title>hoverstar</title><g id="Layer_2" data-name="Layer 2"><g id="scrunchie"><path class="cls-1" d="M201.79,135.59c-10.79,1.53-15.63,8-16.09,19.14l-5.07-13.65-13.52-6.28,7.75-1.25c7.47-3,7.09-10.2,10.22-15.79C189.56,131.73,190.24,131,201.79,135.59Z"/><path class="cls-1" d="M60.65,31.44c-18.5,2.63-26.81,13.79-27.59,32.83-3.33-9-6-16.22-8.7-23.4L1.19,30.1,14.47,28C27.29,22.89,26.63,10.47,32,.88,39.68,24.83,40.84,23.65,60.65,31.44Z"/><path class="cls-1" d="M104.51,165.48c-24.24,3.44-35.12,18.05-36.14,43C64,196.73,60.48,187.24,57,177.82l-30.36-14.1L44,160.91C60.81,154.28,60,138,67,125.44,77,156.81,78.57,155.27,104.51,165.48Z"/></g></g></svg>