<svg xmlns="http://www.w3.org/2000/svg" viewBox="0 0 233.72 349.1"><defs><style>.cls-1{fill:#a34928;}.cls-2{fill:#38301f;}.cls-3{fill:#f26633;}.cls-4{fill:#eae3ca;}.cls-5{fill:#f6bc3c;}.cls-6{fill:#bfcbc8;}</style></defs><title>ketchup</title><g id="Layer_2" data-name="Layer 2"><g id="mustard"><path class="cls-1" d="M61,210.25c-2.74,11.2-6.21,29.5-5.67,41s2.76,23.13,5,34.57c1.19,6.16,2.41,12.39,5,18.1,4.82,10.63,14,18.6,23.15,25.8C95.2,335,102.17,340.08,110,343.41c13.66,5.79,29.17,5.86,43.74,3.09,20.33-3.87,39.83-13.34,54.18-28.26,24.54-25.53,31.21-65.77,18.9-99s-42-58.71-75.93-68.83"/><path class="cls-2" d="M60.19,210c-3.52,14.62-6.63,30-5.46,45.11a253,253,0,0,0,4.21,28.07c1.58,8.2,3,16.61,7,24,7.41,13.48,21.66,24.28,34.55,32.22,14.58,9,31.37,11.14,48.16,8.79,31.47-4.42,61-22.37,75.19-51.43a100.51,100.51,0,0,0,.89-84.77c-13.9-30.39-42-52.77-73.64-62.43-1.09-.33-1.55,1.37-.47,1.7,27.06,8.25,51.35,25.82,66.35,50a99.36,99.36,0,0,1,10.24,82.43c-9.64,30-34.2,51.23-64.19,59.7-16.15,4.56-34.34,6.14-50.34.14-7.73-2.9-14.57-7.5-21.09-12.48-6.33-4.82-12.66-9.88-17.89-15.91C67.34,307.74,64,299.3,62,289.8c-2-9.86-4-19.82-5.08-29.84-1.83-16.71,1-33.23,4.94-49.47.27-1.1-1.43-1.57-1.69-.47Z"/><path class="cls-3" d="M105.57,228.69a7.89,7.89,0,0,0-.44-.81A.67.67,0,0,0,105.57,228.69Z"/><path class="cls-2" d="M107.09,227.8a7.89,7.89,0,0,0-.44-.81,1.8,1.8,0,0,0-2-.81,1.84,1.84,0,0,0-1.29,1.7,2.38,2.38,0,0,0,1.31,2.33,1.81,1.81,0,0,0,2.41-.64,1.77,1.77,0,0,0-.63-2.4c-.37-.19-.25,0,.38.62,0,.26,0,.29,0,.09l-3.28.88c.16.27.31.54.44.81a1.76,1.76,0,1,0,3-1.77Z"/><path class="cls-3" d="M155.55,167.62c-5.12-11.2-9-22.94-12.77-34.65Q127.92,87.34,113,41.71c-4.53-13.89-9.17-28-17.53-40L94.13,7.09A6.92,6.92,0,0,1,89.8,4.76a10.44,10.44,0,0,0-.36,7L83.14,8.1l-2.51,6.18c.18-1.14-1.64-1.67-2.5-.9a4.31,4.31,0,0,0-1,3.22c-1.44-1.16-4.75-.91-3.8.67l-5.08-2.13c-.47,1.37-.94,2.73-1.42,4.1l-3.77-2.8c.86,1-2,1.3-1.79.12-.39,1.4-.79,2.8-1.19,4.2-2.71-1.39-6.44,1.5-5.78,4.47l-2.71-1.8c-.38,1.26-.77,2.53-1.16,3.79-1.33-1.61-4.79-2.54-4.67-.45l-2.49-2.13-1.14,3.2a6.21,6.21,0,0,0-4.88,6.61l-2.61-1.88a14.25,14.25,0,0,0-5.41,7.33A5.43,5.43,0,0,1,26,39.34c-2,3.49-7,3.49-11,3-.67,1.42-1.33,2.83-2,4.25l-2.81-1.53a4.9,4.9,0,0,0-.84,3.4L3.26,51.05A1.84,1.84,0,0,0,3.5,54.4L1.72,54c13.65,27.92,21.5,58.24,31.42,87.7,11.06,32.84,24.75,64.71,38.42,96.55,1,2.3,2.19,4.81,4.52,5.73l1-4.14,3.2,2.06.47-3.74a9.44,9.44,0,0,0,4.79,1.78c-1.39-1.64,1.47-4.41,3.06-3,.22-1.17.43-2.35.64-3.52A13.49,13.49,0,0,1,95.18,239L94,233.25l4,1.4c.14-1.62.29-3.24.44-4.85l3.53,3.86a27.39,27.39,0,0,1-.56-9,8.28,8.28,0,0,1,3.63,3.2,1.37,1.37,0,0,1,1.36-1.19c1.07.15,1.7,1.26,2.17,2.23q1-2.79,2-5.58c1.15,2,2.29,4.07,3.43,6.1l.63-3.15,2.76,2.35.73-3.72,4.29,3.11,1.41-4.62,3.94,2.84,1.09-4,8.56,1.09q.78-2.76,1.55-5.52,1.3,1.76,2.59,3.52c.37-1.25.73-2.5,1.1-3.74a5.25,5.25,0,0,1,3.09,1.84l1.65-5.38,3.69,3.19c.6-2.68,4.89-3.43,6.37-1.12l1.53-5.68,3.78,2.12q.51-2.85,1-5.7l7.65,6C171.39,196.78,162.27,182.32,155.55,167.62Z"/><path class="cls-2" d="M157.07,166.73C151,153.2,146.59,139,142,124.9L127.44,80.22c-4.69-14.38-9.33-28.78-14.07-43.15C109.2,24.43,104.57,11.91,97,.83a1.78,1.78,0,0,0-3.21.42L92.44,6.62,94.6,5.39A5.25,5.25,0,0,1,91,3.51a1.78,1.78,0,0,0-2.94.78,14.5,14.5,0,0,0-.36,7.89l2.59-2L84,6.58a1.8,1.8,0,0,0-2.59,1.06l-2.5,6.18h3.39a3.22,3.22,0,0,0-3.89-2.49c-2.43.56-2.92,3.15-3.06,5.27L78,15.08c-2.56-1.4-7.25-1.37-6.38,2.66l2.17-2.17-5.08-2.13a1.79,1.79,0,0,0-2.16,1.23l-1.43,4.1,2.59-1.05L64,14.92c-1.32-1-2.9.63-2.59,2l.13.53.8-2,.68.65a1.77,1.77,0,0,0-3.39,0l-1.2,4.19,2.17-1.23a6.07,6.07,0,0,0-8,6.17l2.65-1.52-2.71-1.8A1.77,1.77,0,0,0,49.91,23c-.39,1.27-.78,2.53-1.16,3.8L51.69,26c-2.07-1.95-6.77-3.72-7.62.32L47,25.52,44.52,23.4a1.78,1.78,0,0,0-2.94.77c-.95,2.69-2.35,2.48-4.1,4.49a8.18,8.18,0,0,0-2,5.79l2.65-1.52-2.61-1.88a1.8,1.8,0,0,0-2.14.27,17.74,17.74,0,0,0-5.86,8.11l1.7-1.29-2.75-.5a1.81,1.81,0,0,0-2,.81c-2.17,3-6.32,2.48-9.47,2.18a1.71,1.71,0,0,0-1.52.87q-1,2.13-2,4.25l2.41-.63-2.81-1.53a1.79,1.79,0,0,0-2.41.63,8.37,8.37,0,0,0-1.08,4.29l1.29-1.7c-2.37,1-6.79,1.71-8,4.29a3.64,3.64,0,0,0,1.7,4.82L4,52.7l-1.78-.41a1.79,1.79,0,0,0-2,2.59c15.47,31.95,23.72,66.7,35.67,100,6.07,16.91,12.75,33.59,19.67,50.17q4.91,11.76,9.94,23.46c2.3,5.37,4.14,14,9.71,17a1.79,1.79,0,0,0,2.59-1.05c.34-1.38.67-2.76,1-4.14l-2.58,1,3.2,2.06a1.78,1.78,0,0,0,2.65-1.52l.47-3.74-2.65,1.52a14,14,0,0,0,5.21,2c1.15.19,2.73-.8,2.17-2.17l.48-1a1.78,1.78,0,0,0,2.58-1.05c.21-1.18.43-2.35.64-3.53L88.38,235a13.34,13.34,0,0,1,5.28,5,1.76,1.76,0,0,0,3.21-1.35l-1.14-5.78L93.57,235l4.05,1.39a1.78,1.78,0,0,0,2.23-1.69c.14-1.62.29-3.24.44-4.85l-3,1.24,3.54,3.86c1.27,1.39,3.26-.1,2.94-1.71a30.8,30.8,0,0,1-.5-8.51l-2.65,1.52a6.7,6.7,0,0,1,3,2.56,1.78,1.78,0,0,0,3,0l.49,1.05a1.78,1.78,0,0,0,3.22-.42q1-2.79,2-5.58l-3.22.42c1.15,2,2.29,4.07,3.43,6.1a1.78,1.78,0,0,0,3.22-.42l.63-3.16-3,.78,2.77,2.36c.92.78,2.67.62,2.94-.78l.73-3.72-2.59,1.05,4.29,3.11a1.77,1.77,0,0,0,2.58-1.05c.47-1.54,1-3.08,1.42-4.62l-2.59,1.05,3.94,2.84a1.78,1.78,0,0,0,2.59-1.05c.36-1.33.72-2.65,1.09-4L129,224l8.56,1.09a1.78,1.78,0,0,0,1.7-1.29c.52-1.84,1-3.68,1.55-5.53l-3.22.43q1.31,1.75,2.59,3.52a1.79,1.79,0,0,0,3.22-.42c.36-1.25.73-2.5,1.09-3.74l-2.16,1.22,2.31,1.4a1.78,1.78,0,0,0,2.94-.78l1.65-5.38-2.94.78,3.69,3.19c.76.65,2.29.76,2.77-.36l3.6-.76a1.77,1.77,0,0,0,2.94-.78l1.53-5.68L158.21,212l3.78,2.12a1.77,1.77,0,0,0,2.58-1.05q.52-2.85,1-5.7l-2.94.78,7.66,6c1.1.87,3,.42,3-1.25-.51-16.85-9.37-31.33-16.26-46.21-.95-2-4-.27-3,1.78,6.61,14.28,15.29,28.26,15.78,44.43l3-1.24-7.65-6c-.93-.73-2.68-.67-2.94.78-.35,1.9-.69,3.8-1,5.7l2.58-1.06L160,209A1.78,1.78,0,0,0,157.4,210l-1.53,5.68,2.94-.78a5.47,5.47,0,0,0-9.13,1.47l2.76-.35-3.69-3.19a1.78,1.78,0,0,0-2.94.78L144.16,219l2.94-.77a8.71,8.71,0,0,0-3.87-2.3,1.78,1.78,0,0,0-2.16,1.23L140,220.9l3.22-.42c-.86-1.17-1.72-2.35-2.59-3.52a1.78,1.78,0,0,0-3.21.42l-1.56,5.52,1.7-1.29L129,220.52a1.79,1.79,0,0,0-1.7,1.29c-.36,1.33-.72,2.65-1.09,4l2.59-1.05-3.94-2.84a1.77,1.77,0,0,0-2.58,1.05q-.72,2.33-1.42,4.63l2.58-1.06-4.28-3.11a1.77,1.77,0,0,0-2.59,1l-.72,3.72,2.94-.77L116,225a1.78,1.78,0,0,0-2.94.78l-.63,3.15,3.22-.42-3.43-6.1a1.78,1.78,0,0,0-3.21.42l-2,5.58,3.22-.42c-1.52-2.78-4.71-4.49-6.57-1h3a12.1,12.1,0,0,0-4.27-3.83,1.78,1.78,0,0,0-2.64,1.52,34.77,34.77,0,0,0,.63,9.44l2.94-1.71-3.54-3.86c-1.12-1.22-2.88-.17-3,1.25-.15,1.61-.3,3.23-.44,4.85l2.23-1.7-4.06-1.4c-1.36-.47-2.4.95-2.16,2.17l1.14,5.77,3.21-1.35a17,17,0,0,0-6.54-6.23A1.77,1.77,0,0,0,87.57,233c-.22,1.17-.43,2.35-.64,3.52l2.58-1c-3.27-1.45-7.18,1.24-5.65,5L86,238.23a8.3,8.3,0,0,1-4.38-1.6A1.78,1.78,0,0,0,79,238.15l-.47,3.74,2.65-1.52L78,238.31a1.77,1.77,0,0,0-2.59,1.05l-1,4.14L77,242.45c-3.44-1.87-4.72-7-6.17-10.41q-2.65-6.18-5.3-12.39c-3.46-8.12-6.9-16.26-10.25-24.43-6.58-16-12.88-32.17-18.55-48.53C25.85,115.37,17.73,83,3.24,53.1l-2,2.58L3,56.09a1.77,1.77,0,0,0,1.36-3.21s5-2.47,5.47-2.67a1.83,1.83,0,0,0,1.29-1.7l.6-2.51-2.41.63,2.81,1.53a1.78,1.78,0,0,0,2.41-.63c1.07-2.29.85-2.67,3-3.19,1.3-.32,2.86,0,4.22-.3a9.13,9.13,0,0,0,5.8-3.81l-2,.8a7.9,7.9,0,0,0,3.69.63,1.81,1.81,0,0,0,1.69-1.29,14.58,14.58,0,0,1,5-6.56l-2.13.28L36.37,36A1.78,1.78,0,0,0,39,34.45c0-4,2.61-2.93,4.37-5.36a15.46,15.46,0,0,0,1.58-4L42,25.89,44.52,28a1.78,1.78,0,0,0,2.94-.77,2,2,0,0,0,1.74,1.23,1.78,1.78,0,0,0,2.94-.78c.39-1.26.77-2.53,1.16-3.79L50.71,25l2.72,1.8a1.77,1.77,0,0,0,2.64-1.52l3.55-2.78a1.78,1.78,0,0,0,2.17-1.22c.39-1.4.79-2.8,1.19-4.2H59.59a2.84,2.84,0,0,0,4.49,1.46,1.84,1.84,0,0,0,.81-2L64.77,16l-2.59,2L66,20.76a1.78,1.78,0,0,0,2.59-1.06L70,15.61,67.8,16.84,72.87,19c1.33.56,2.41-1,2.16-2.17l1.22,1.32A1.78,1.78,0,0,0,78.9,16.6l0-1.85c.48,1.83,2.78,1.51,3.39,0l2.51-6.18-2.59,1,6.3,3.61a1.77,1.77,0,0,0,2.58-2,9,9,0,0,1,.36-6L88.55,6a10,10,0,0,0,5.11,2.79,1.8,1.8,0,0,0,2.17-1.23l1.38-5.38L94,2.6c7.88,11.58,12.48,24.71,16.81,37.91Q118.06,62.73,125.28,85c9.08,27.84,16.7,56.81,28.75,83.55C155,170.57,158,168.78,157.07,166.73Z"/><path class="cls-4" d="M17.9,54.79l.58,2C25,57,30.6,52.46,37,51.31A27.55,27.55,0,0,0,17.9,54.79Z"/><path class="cls-2" d="M17.69,54.85l.58,2a.24.24,0,0,0,.21.16c6.63-.14,12.19-4.15,18.55-5.51a.23.23,0,0,0,0-.43A28.84,28.84,0,0,0,17.79,54.6.22.22,0,0,0,18,55,28.37,28.37,0,0,1,29.57,51.2a16.43,16.43,0,0,1,5,0c2.51.6-.56.65-1.7,1.06-2.87,1-5.61,2.45-8.52,3.37-1.14.36-4.82,1.75-5.67.92-.3-.3-.4-1.38-.52-1.81A.22.22,0,0,0,17.69,54.85Z"/><path class="cls-5" d="M74.29,46.55A.73.73,0,0,0,74,46a.74.74,0,0,0-.56.07L51.35,55.68A3.14,3.14,0,0,0,49.62,57a3,3,0,0,0,0,1.8A74.08,74.08,0,0,0,52,68.71L76.28,54.42C75.73,52.13,74.83,48.84,74.29,46.55Z"/><path class="cls-2" d="M75.05,46.11l-.3-.51a.87.87,0,0,0-.76-.44c-3.2.42-6.55,2.6-9.5,3.87C60,51,54.44,52.48,50.4,55.18s-.47,10.28.73,13.76a.89.89,0,0,0,1.29.53l24.3-14.29a.91.91,0,0,0,.4-1c-.64-2.62-1.34-5.23-2-7.86-.27-1.1-2-.63-1.7.47.32,1.31.66,2.62,1,3.93,0,.12,1.24,3.48,1.36,3-.07.29-1.42.81-1.68,1-2.62,1.82-5.57,3.28-8.32,4.89L51.53,68l1.29.52a53.87,53.87,0,0,1-1.65-6.26c-.43-2-1.12-3.86.62-5.77.83-.9,3.16-1.37,4.25-1.84,1.38-.6,17.33-7.86,17.49-7.6A.88.88,0,0,0,75.05,46.11Z"/><path class="cls-5" d="M131.08,196.22Q120.74,166.1,107.8,137a130.35,130.35,0,0,1-6-15.13c-1-3.41-1.75-6.91-2.77-10.33-1.39-4.66-4.33-15.3-6.24-19.77L78.9,95.17,65.28,98.42C68.4,108.16,73.76,117,78,126.31c3.39,7.42,6.08,15.14,8.77,22.85l21.44,61.47.15,1.16.23-.07c.16.46.32.91.47,1.37-1.54-.12-2.67-1.48-3.44-2.81s-1.43-2.85-2.73-3.68-3.48-.51-3.82,1a3.34,3.34,0,0,0,.16,1.65c1,3.53,3,8.93,3,8.93.15.65.3,1.3.44,1.94a1.32,1.32,0,0,0,.3.68,1.35,1.35,0,0,0,1.08.24,33,33,0,0,0,13.2-4,2.65,2.65,0,0,0,1.61-3.63,25,25,0,0,0-1.47-4.37l9.16-2.77c1.71-.52,3.55-1.12,4.59-2.58C132.7,201.59,131.93,198.67,131.08,196.22Z"/><path class="cls-2" d="M131.93,196q-9.95-28.84-22.2-56.82a223.24,223.24,0,0,1-10-28.33c-1.88-6.47-3.56-13.09-6.12-19.33a.9.9,0,0,0-1.08-.62Q78.79,94.29,65,97.58a.88.88,0,0,0-.61,1.08c2.91,8.67,7.32,16.62,11.28,24.83,4.63,9.57,8,19.61,11.53,29.63s6.93,19.87,10.4,29.8l5.19,14.9c1.54,4.42,4.06,9.33,4.67,14a.9.9,0,0,0,1.11.85l-.37.68,1.08-1.08c-3.64-1-4.1-7.82-8.68-6.9-2.21.44-2.59,2-2.25,4,.52,3.11,2.12,6,3,9,1,3.15,1,3.77,4.63,3.29s9.86-1.75,12.71-4.56a3.29,3.29,0,0,0,1.19-2.49c.11-1.21-1.42-3.42-1.09-4.41,1-3,9.43-2.67,12-5,2.83-2.52,2.05-6.08,1-9.29-.34-1.07-2-.61-1.7.47,2.86,9-7.39,10-13,11.75a.89.89,0,0,0-.62,1.08c1,2.41,2.36,4.64.26,7-1.29,1.47-4.37,2.07-6.17,2.61-3.53,1-6.94.79-8.3-3-.45-1.25-1.45-3-1.49-4.33l-.42-1.32c2.33-1.81,3.8-1.66,4.42.47,1.53,1.37,1.74,2.59,4,3.22a.89.89,0,0,0,1.08-1.09l-.47-1.36a.92.92,0,0,0-1.09-.62l-.23.07,1.12.85c-.48-3.66-2.22-7.24-3.43-10.71L100,184.32l-11-31.67c-3.24-9.3-6.39-18.66-10.55-27.6-2.15-4.65-4.56-9.17-6.8-13.77-1.29-2.64-2.53-5.29-3.62-8A22.56,22.56,0,0,1,66.7,99.9c-.18-.84-1.48,0-.69-.75,1-.91,4.52-1.08,5.85-1.39l6.58-1.58c3.46-.84,6.91-1.71,10.37-2.57a16.1,16.1,0,0,1,3-.73c1.58-.06.39-.17.48-.07,2,2.5,2.66,7.92,3.57,11,2.47,8.36,4.27,17,7.54,25.1,9.08,22.53,19,44.57,26.88,67.57C130.6,197.51,132.3,197.06,131.93,196Z"/><path class="cls-4" d="M58.62,56c-2.41-.07-5,1.69-5.09,4.09-.1,1.85.89,4.3-.75,5.16A20.58,20.58,0,0,1,51.69,58c-2.8,1.43-4.72,4.16-6,7s-2.12,5.92-3.35,8.82c-.35.82-.91,1.75-1.8,1.8a2.46,2.46,0,0,1-1.6-.76C33.48,70.4,27.8,65.18,20.79,65l.88.63a1,1,0,0,0-1.4.26C23,71.13,26.6,76.33,32,78.72s12.93.79,15.3-4.64c.7-1.6,1-3.57,2.57-4.43a6,6,0,0,1,3.35-.42c2.72.15,5.81-.16,7.5-2.3,1.84-2.31,1.53-6.23,4.13-7.65A9.44,9.44,0,0,0,58.62,56Z"/><path class="cls-2" d="M58.62,55.79c-1.91.18-3.73.78-4.73,2.56a6.85,6.85,0,0,0-.56,2.34c-.2,1,.52,1.48-.36,2.26-1.16,1-1-4-1.06-5a.22.22,0,0,0-.33-.19,15.77,15.77,0,0,0-6.11,7.1c-1.59,3.34-2.39,11.35-8.16,8.37-2.86-1.48-5.18-4.28-8-5.89a20.46,20.46,0,0,0-8.47-2.6c-.24,0-.28.3-.12.41.45.33.46-.12-.51.51a.21.21,0,0,0-.08.3c4.32,8.16,13.51,18.56,23.7,12.33,1.83-1.12,2.6-2.42,3.73-4.11,1.5-2.25,2.89-4.25,5.73-4.74.89-.15,1.93,0,2.83-.06,6.7-.87,4.54-6.61,8.91-9.92a.22.22,0,0,0,0-.35,10.79,10.79,0,0,0-6.34-3.32c-.28,0-.4.39-.12.42,2.47.35,5.22,1.49,4.95,4a29.61,29.61,0,0,1-2.36,5.67c-3,4-6.47,2.18-10.21,3.17a3.56,3.56,0,0,0-2.17,1.29c-1.4,1.6-1.58,4-3,5.63-2.69,3.17-7.29,4.16-11.27,3.31a16.69,16.69,0,0,1-8.24-5,32.07,32.07,0,0,1-3.6-4.67c-.24-.37-2.38-4.11-1.06-3.82a.23.23,0,0,0,.17-.41c-1.51-1.07,1.84.12,2.58.35a24.53,24.53,0,0,1,4,1.63,40.48,40.48,0,0,1,6.84,4.7C36.4,73,38.77,76,40.59,75.8c2.4-.22,3.3-5.64,3.84-7.11.84-2.27,2.45-7.65,4.9-8.75,2.86-1.29,2.68,3.45,3.24,5.38a.23.23,0,0,0,.37.1c2.91-2.89-2.44-8.43,5.68-9.19C58.9,56.21,58.9,55.77,58.62,55.79Z"/><path class="cls-4" d="M79.26,124.64c-1.55-2.1-3.3-4.3-5.8-5.08-4-1.25-8.07,1.6-11.12,4.48A88.68,88.68,0,0,0,53.28,134a8.79,8.79,0,0,0,11-1.81c2.18-2.62,3.37-6.92,6.78-7.12,2-.12,3.71,1.41,5.09,2.88a94.34,94.34,0,0,1,13.81,18.92c2,3.56,4.15,7.63,8.08,8.7A202.89,202.89,0,0,0,79.26,124.64Z"/><path class="cls-2" d="M79.45,124.53c-3.13-4.12-6.77-6.9-12-4.49C61.67,122.73,57,129,53.13,133.8a.23.23,0,0,0,0,.35c3.32,1.64,7.28,1.66,10.24-.86a15.45,15.45,0,0,0,2.68-3.48c1.91-2.85,1.57-3.32,5.53-3,3.64.25,3.81.67,6,3.16a98.09,98.09,0,0,1,12.08,17c2.09,3.69,4,7.26,8.21,8.8.2.07.33-.17.25-.33a213.49,213.49,0,0,0-18.74-30.88c-.16-.22-.55,0-.38.22,3.38,4.63,6.59,9.37,9.58,14.26.76,1.23,8.92,14.59,8.36,15-2.67,2-8.89-10.74-9.91-12.34a94,94,0,0,0-8.58-11.44c-4.11-4.7-8.06-7.85-12.18-1.68-2.06,3.08-4.26,6.63-8.59,6.13-1.31.56-2.18.25-2.6-.93-1-.8-.87-1.55.41-2.25A15.61,15.61,0,0,1,57.78,129a62.76,62.76,0,0,1,5.9-5.86A15.38,15.38,0,0,1,69,119.88c5-1.27,7.5,1.54,10,4.87C79.24,125,79.62,124.76,79.45,124.53Z"/><path class="cls-4" d="M53.28,134l-.28-.17S52.5,135,53.28,134Z"/><path class="cls-2" d="M53.39,133.77l-.27-.17a.24.24,0,0,0-.31.08c-.08.2-.25.5-.17.72.17.5.67-.12.8-.29s-.14-.53-.31-.31a3.31,3.31,0,0,0-.31.36c.15.19.23.22.25.1s0,0,0-.08a.94.94,0,0,0,.1-.28l-.3.08.28.17A.22.22,0,0,0,53.39,133.77Z"/><path class="cls-4" d="M156,196c-2-9.91-9-18.18-11.37-28-1.25-5.17-1.45-11.19-5.5-14.65a1.14,1.14,0,0,0-.54-.29c-.43,0-.75.38-.93.78a9.29,9.29,0,0,0,.2,7c.83,2.24,2.12,4.29,3.05,6.5,1.69,4,2.11,8.48,3.1,12.74,1.36,5.85,8.31,17.53,8.93,17.68,0,0,2.27,2.12,3,.27A3.59,3.59,0,0,0,156,196Z"/><path class="cls-2" d="M156.17,196c-1.43-6.35-4.53-11.88-7.36-17.68-3.07-6.3-3.81-12.47-5.91-19-.5-1.56-2.53-7.28-5-6.21-2.24,1-.82,6.38-.31,7.85,1.32,3.84,3.52,7.15,4.5,11.16.72,2.95,1,6,1.87,8.94a57.55,57.55,0,0,0,5.64,12.15c.93,1.62,2.08,4.58,4,5.41,2.17.93,2.83-.43,2.55-2.58,0-.27-.48-.28-.44,0,.64,4.9-2.68,1.5-3.27.93a12.6,12.6,0,0,1-1.67-2.63,86.25,86.25,0,0,1-4.38-8.29c-3.13-6.84-3.23-14.44-6.52-21.22-.91-1.89-3.72-6.11-2.66-8.19,2.87-5.62,5.37,3.26,5.62,4.2,1.07,3.95,1.49,7.95,2.95,11.81,3,8,8,15,9.93,23.45A.22.22,0,0,0,156.17,196Z"/><path class="cls-4" d="M70.8,184.76l.32-1.65A1.7,1.7,0,0,0,70.8,184.76Z"/><path class="cls-2" d="M71,184.82l.31-1.65a.22.22,0,0,0-.4-.17,2,2,0,0,0-.34,1.82c.08.27.51.16.43-.11a1.55,1.55,0,0,1,.29-1.49l-.4-.17-.32,1.66C70.54,185,71,185.1,71,184.82Z"/><path class="cls-4" d="M85.5,204.26a40.58,40.58,0,0,0-7.23-21.45,34.09,34.09,0,0,1-4-6.28c-1.86-4.45-.91-9.57.73-14.1a8.17,8.17,0,0,0,.78-4c-.49-3-4-4.15-6.78-5.26-4.73-1.88-9.08-5.44-10.58-10.31-.23,5.21.16,11.56,4.78,14A27.47,27.47,0,0,1,67,158.56c2.65,1.94,2.48,6,1.29,9.06s-3.12,6-3.16,9.26,3.2,6.85,6.18,5.47l-.15.76a2.81,2.81,0,0,1,3-.92c1.65.59,2.55,2.34,3.11,4,2.18,6.5,1.63,14.07,5.71,19.57a1.77,1.77,0,0,0,1.24.89C85.19,206.69,85.54,205.29,85.5,204.26Z"/><path class="cls-2" d="M85.72,204.26a42.63,42.63,0,0,0-4.33-16.64c-1.56-3.09-3.75-5.65-5.53-8.58-2.61-4.3-2.84-8.68-1.62-13.46,1-3.7,3.38-7.39-.31-10.3-1.77-1.4-4.11-1.93-6.1-2.88a17.24,17.24,0,0,1-9.21-9.63.22.22,0,0,0-.43.06c-.12,3.81-.18,8.33,2.08,11.62,1.18,1.72,2.38,2.1,4.08,3.11,5.8,3.45,5,6.94,2.72,12.23-1.37,3.2-3.27,6.8-1.33,10.19a5.45,5.45,0,0,0,3.19,2.75c.62.15,2.06-.09,2,.32a.22.22,0,0,0,.37.22c4.71-3.91,6.5,5.71,6.88,7.6.42,2.09.69,4.22,1.14,6.31.52,2.44,1.27,7.07,3.43,8.68,1.82,1.37,2.75,1,3-1.6,0-.28-.41-.28-.44,0q-3.9,1.49-4.32-2.67a25.73,25.73,0,0,1-.9-3c-.38-1.54-.64-3.12-.91-4.68-.53-2.93-.83-6.41-2.24-9.09-.85-1.61-5-4.41-5.43-2.42a.22.22,0,0,0-.27-.27c-4.1,1.08-5.68-3.87-5.62-6.82,0-2.19,1.4-4.1,2.21-6.07a17.5,17.5,0,0,0,1.34-4.07c.39-2.5,0-5.13-2-6.8-1.73-1.4-4.11-1.52-5.72-3.23-2-2.12-3.23-6.75-2.78-9.64.4-2.64.33-.49,1.44,1.11a17.58,17.58,0,0,0,3.91,4c4.2,3.15,12.43,3.77,11.07,11.11-.76,4.13-2.53,7.47-1.81,11.83.79,4.76,4.3,8.11,6.64,12.14a41.49,41.49,0,0,1,5.44,18.58C85.3,204.54,85.74,204.54,85.72,204.26Z"/><path class="cls-2" d="M50.43,72.49c1,5.94,3.33,11.67,5.6,17.24,1,2.48,2.37,8.51,4.95,9.44,3.45,1.23,9.85-1.23,13.08-2.14,6.22-1.75,12.26-3.73,18.8-3.74a.44.44,0,0,0,.44-.44c-.06-.51-.87-5-1.07-4.93,0-.18-.15-.18-.34,0a9.47,9.47,0,0,0,1.31.85c1.73-.32,2.2.6,3.46-1.17C99.89,83,94.51,73.31,92.82,69c-1.6-4.07-4.07-13.57-9.6-14-2.13-.15-2,.92-3.61,1.73-1,.52.33,2.46-.72-.86a5,5,0,0,0-1.14-2.2.41.41,0,0,0-.43-.11c-3.55.77-7.31,3.75-10.47,5.53-3.73,2.1-7.44,4.25-11,6.54-3.23,2-6.21,2.84-5.37,6.82.12.55,1,.32.85-.24-.91-4.29,8.19-7.85,11.23-9.63,2.64-1.54,5.31-3,8-4.52,1-.58,3.64-2.5,4.82-2.66,2.6-.33,3.17,1.76,4,3.64.17.41.89.43.86-.12q6.2-2.84,7.92,1.59.81,1.55,1.56,3.15c1.23,2.61,2.3,5.3,3.31,8,.81,2.2,1.6,4.42,2.31,6.65a33.82,33.82,0,0,1,1,3.44q2.36,6.77-4.76,4.42c-.37-.39-.87.1-.69.53.55,1.26,1.94,4.44.41,5.66-.47.38-2.67.2-3.33.29A50.62,50.62,0,0,0,82,93.87c-4.65,1.18-9.19,2.82-13.9,3.75a20.65,20.65,0,0,1-4.86.69c-2.25-.13-2.45-.68-3.51-2.26-1.59-2.37-2.48-5.61-3.52-8.24-2-5-4-10.2-4.92-15.56C51.18,71.7,50.33,71.93,50.43,72.49Z"/><path class="cls-6" d="M92.86,85.14c.88-7.45-3-14.54-6.78-21a16.81,16.81,0,0,0-3.33-4.49,1.08,1.08,0,0,0-.77-.35c-.35,0-.58.38-.76.69L78.7,64.31l-2.41-5.79c-.09-.2-.19-.42-.39-.49a.77.77,0,0,0-.69.22L54.93,72.85a65.11,65.11,0,0,0,4.31,10.59,34.18,34.18,0,0,1,1.83,3.36C62,88.92,62.2,91.26,63,93.44a1.92,1.92,0,0,0,.78,1.15,2.07,2.07,0,0,0,1.26.08l22.23-3.16a1.53,1.53,0,0,0,1-.38c.36-.39.22-1,.07-1.51-.54-1.74-1.07-3.48-1.61-5.23A34.1,34.1,0,0,1,92.86,85.14Z"/><path class="cls-2" d="M93.3,85.14c.38-5.4-1.12-10.28-3.47-15.1-1.62-3.31-4-9.5-7.63-11.15a.47.47,0,0,0-.53.07c-1.45,1.31-1.92,4.38-3.45,3.06-1-.91-1.08-3.12-2-4.3a.43.43,0,0,0-.43-.12c-3.3,1-6.57,4.42-9.37,6.44l-11.7,8.43a.45.45,0,0,0-.2.5c2,5.87,5.46,11.34,7.14,17.24,1.51,5.33,1.72,5.14,7.17,4.36L79.93,93c1.91-.28,7.11,0,8.49-1.48,3.09-3.39-5.56-7.85,4.32-6,.55.11.79-.74.23-.84A44.53,44.53,0,0,0,86.65,84a.45.45,0,0,0-.42.56c.26.84,1.81,4.4,1.61,5.23-.44,1.8-2,1.52-3.51,1.74L74.14,92.93c-4,.56-9.25,2.58-11.44-2.11-1-2.13-1.29-4.37-2.44-6.5-1.42-2.63-3.26-5.55-3.84-8.52-.53-2.72-.2-2.94,1.85-4.82A51.87,51.87,0,0,1,63,67.61L70.75,62c1.51-1.09,3.58-3.43,5.72-1.92.82.59,1.45,3.48,1.81,4.35a.44.44,0,0,0,.8.1c1.69-2.92,3.35-5.36,5.9-1.41,1.2,1.85,2.26,3.84,3.29,5.8,2.69,5.15,4.57,10.34,4.15,16.22C92.38,85.7,93.26,85.7,93.3,85.14Z"/><path class="cls-4" d="M190.1,301.24a117.69,117.69,0,0,1-10.83,8.47,59.19,59.19,0,0,1-39.84,9.3,3.33,3.33,0,0,0-2.36.27c-.87.63-.88,1.93-.63,3a10.12,10.12,0,0,0,4.74,6.36s5.33.81,8.71,1.19A55.66,55.66,0,0,0,211,283.52Z"/><path class="cls-2" d="M189.94,301.08c-7.4,6.27-14.93,11.86-24.2,15a59.07,59.07,0,0,1-14.64,3c-3.95.3-7.77-.4-11.67-.29s-4,2.95-2.2,6.09c2.42,4.36,5.74,4.26,10.2,4.83,30.31,3.93,58.35-15.81,63.79-46.13a.22.22,0,0,0-.36-.21l-20.92,17.71c-.21.19.1.5.31.32,2.09-1.77,18.76-17.53,20.27-16.4.78.59-2.11,7.81-2.57,9a55.57,55.57,0,0,1-45.12,35.44c-6.24.78-14.83,1.18-20.88-1a7.52,7.52,0,0,1-4.34-3.84c-2.52-6.93,2.53-5.28,5.14-5.1a59.25,59.25,0,0,0,11.68-.38c14.08-1.87,25.19-8.78,35.82-17.78C190.47,301.21,190.16,300.9,189.94,301.08Z"/><path class="cls-2" d="M67.7,67.89a18.64,18.64,0,0,0,2.38-2.13A25.8,25.8,0,0,1,72.5,63.5a.22.22,0,0,0-.23-.38c-1,.59-1.53,1.56-2.41,2.26a18.56,18.56,0,0,1-2.38,2.13.22.22,0,0,0,.22.38Z"/><path class="cls-2" d="M69.91,70.4a7.34,7.34,0,0,0,2.17-1.46L75,66.57c.22-.18-.09-.49-.31-.31l-2.34,1.89A9.12,9.12,0,0,1,69.8,70c-.27.08-.16.51.11.42Z"/><path class="cls-2" d="M69.71,65.61l3.13,3.18c.19.2.51-.11.31-.31L70,65.3c-.2-.2-.51.11-.32.31Z"/><path class="cls-2" d="M72.13,74.82c.16-.33-.22-.9-.35-1.21-.27-.67-.48-1,.2-1.5a2.81,2.81,0,0,1,1.43-.55c.45-.18.73,0,.85.59a3.84,3.84,0,0,1,.44,1.12c.06.23.46.2.43-.06a3.28,3.28,0,0,0-.19-.92c-.15-.42-.74-.94-.62-1.35s.49-.42.81-.56c.54-.23.64-.38,1.19-.11s.79,1.29,1,2c.09.27.52.16.43-.11-.23-.68-.4-2.39-1.16-2.69-.58-.24-2.6.85-3,1.21a.22.22,0,0,0,0,.22c.36.88,1,1.24,1.13,2.33l.44,0c-.18-.65-.63-2.07-1.43-2.23-.39-.08-1,.36-1.31.5s-1,.35-1.3.73-.14.43-.06.77a6.55,6.55,0,0,0,.82,2c.18.21.47.51.66.1s-.25-.48-.38-.22Z"/><path class="cls-2" d="M73.16,77c1.33-.28,2.65-.57,4-.88a6,6,0,0,0,2.55-.86c.22-.18-.09-.49-.31-.31a8.08,8.08,0,0,1-3.1.92L73,76.6c-.27.06-.15.48.12.43Z"/><path class="cls-2" d="M74,79.76c1.79-.93,3.88-.84,5.71-1.68l-.26-.34c-.83,1-1.63,2-2.49,2.94s-1.77,1.4-2.5,2.27a.22.22,0,0,0,.16.37c1.15,0,2.16-.79,3.29-1a16,16,0,0,0,3.65-1c.25-.12,0-.5-.22-.38a15.56,15.56,0,0,1-3.55,1c-1,.22-2.2,1-3.17,1l.15.38c.73-.86,1.74-1.43,2.5-2.27s1.66-2,2.49-2.94a.22.22,0,0,0-.27-.35c-1.83.84-3.91.75-5.72,1.68-.25.13,0,.51.23.38Z"/><path class="cls-2" d="M76.29,88.75c-.16-.74-.33-1.49-.43-2.25a2.06,2.06,0,0,1-.06-.7c-.06-.33.09-.37.44-.1a4.7,4.7,0,0,1,1.39.63,42.91,42.91,0,0,0,3.83,2.08c.57.22.8.33,1-.19a4.16,4.16,0,0,0-.15-1.77,17.93,17.93,0,0,0-.55-2.54.22.22,0,0,0-.43.11,18.39,18.39,0,0,1,.53,2.31s.29,1.67.09,1.82-1.22-.56-1.38-.64a42.82,42.82,0,0,0-3.83-2.07c-.49-.2-1.13-.6-1.46,0-.14.24.05.78.08,1,.13.83.29,1.66.46,2.48.06.28.49.16.43-.12Z"/><path class="cls-2" d="M77,109.63a69.74,69.74,0,0,0,16.08-5.37l-.89-1.52a41.35,41.35,0,0,1-13.22,4.51l.47,1.7a14.73,14.73,0,0,1,12.2,1.6c.84.51,1.85-.73,1.07-1.38-1.42-1.18-5.28-4.54-7.37-3.31-.81.48-1,1.68-1.23,2.48-.91,2.78-1.76,5.58-2.64,8.37-.34,1.08,1.36,1.55,1.7.47l2.45-7.78c.49-1.56.22-2,1.82-1.53a13.27,13.27,0,0,1,4,2.54L92.5,109a16.51,16.51,0,0,0-13.56-1.78.88.88,0,0,0,.47,1.7,42.89,42.89,0,0,0,13.64-4.69c1-.55.12-2-.89-1.52a68.58,68.58,0,0,1-15.66,5.2c-1.11.22-.64,1.92.47,1.69Z"/><path class="cls-2" d="M93.64,117.16a25.67,25.67,0,0,1-5,1.83c-1,.27-2.63.33-3.39,1.11s-.3,1.65,0,2.52c.81,2.22,1.69,4.41,2.53,6.61.4,1.05,2.1.59,1.69-.47l-1.89-4.95a15.23,15.23,0,0,1-.94-2.48c0,.1.91-.24,1.24-.33a34,34,0,0,0,6.6-2.32c1-.51.13-2-.89-1.52Z"/><path class="cls-2" d="M93.24,118.15a40.82,40.82,0,0,0,2.35,7c.46,1,2,.14,1.52-.89a38.68,38.68,0,0,1-2.17-6.55c-.26-1.1-2-.63-1.7.47Z"/><path class="cls-2" d="M90.29,119.09c-.55,2.29.86,4.19,1.47,6.31a.88.88,0,0,0,1.69-.47c-.48-1.68-1.89-3.56-1.46-5.37.26-1.1-1.44-1.57-1.7-.47Z"/><path class="cls-2" d="M97.12,126.87a32.76,32.76,0,0,0,3,10.66c.48,1,2,.13,1.52-.89a30.28,30.28,0,0,1-2.76-9.77c-.12-1.12-1.88-1.13-1.76,0Z"/><path class="cls-2" d="M97.67,131.7a30.49,30.49,0,0,0-8.28,3c-1,.53-.12,2,.88,1.52a29.47,29.47,0,0,1,7.87-2.81c1.11-.22.64-1.92-.47-1.69Z"/><path class="cls-2" d="M105.73,144.36a7.23,7.23,0,0,0-8.51-2.15,4.1,4.1,0,0,0-2.67,3.65c0,1.9,1.36,3.35,2.62,4.6.81.79,2.06-.45,1.25-1.24s-2.27-2.08-2.11-3.36c.21-1.6,1.81-2.33,3.24-2.47a5.6,5.6,0,0,1,4.93,2.21c.7.89,1.94-.36,1.25-1.24Z"/><path class="cls-2" d="M106.85,151a65.86,65.86,0,0,1-6.77,3.27c-.84.33-2.18,1-3.1.69-1.08-.37-1.54,1.33-.47,1.69s2.56-.13,3.64-.53a61.83,61.83,0,0,0,7.58-3.6c1-.54.12-2-.88-1.52Z"/><path class="cls-2" d="M109,158.69a19.69,19.69,0,0,1-4.4,1.92l-4.47,1.75c-.84.33-.48,1.71.38,1.37l5.11-2a18.37,18.37,0,0,0,4.1-1.82c.73-.53,0-1.76-.72-1.22Z"/><path class="cls-2" d="M100.08,154.87a20.26,20.26,0,0,0,3.66,7.32c.7.89,1.94-.37,1.25-1.25a17.85,17.85,0,0,1-3.21-6.54.88.88,0,0,0-1.7.47Z"/><path class="cls-2" d="M110.15,163.38c-2.91,1.49-11.66,6-8.74,10.51,1.27,2,4.23,1.83,6.24,1.64a19.26,19.26,0,0,0,8.55-3c1-.6.08-2.12-.89-1.52a18.07,18.07,0,0,1-5.2,2.3c-1.35.35-4.67,1.18-6,.34l-1.38-2.09a4.91,4.91,0,0,1,1.47-2.05,16.73,16.73,0,0,1,2.26-1.85A34,34,0,0,1,111,164.9c1-.51.12-2-.89-1.52Z"/><path class="cls-2" d="M107.42,185.63c.2-1.62,3.92-3.07,5.22-3.69s3.08-1.29,4.54-.42c1.07.63,3,3.08,1.59,4.39a2.6,2.6,0,0,1-4-.45,14.25,14.25,0,0,1-.94-1.6c-.51-.92-1-1.88-1.55-2.77s-2.13-.07-1.52.89c1.4,2.19,2.24,5.41,4.91,6.36a3.94,3.94,0,0,0,5.25-4.33,5.64,5.64,0,0,0-6.32-4.67,20.49,20.49,0,0,0-6.53,3.12c-1.31.84-2.18,1.59-2.37,3.17-.14,1.12,1.62,1.11,1.76,0Z"/><path class="cls-4" d="M138.91,189.86c-.55-1.23-2.18-1.42-3.37-2.05-2.12-1.12-2.92-3.84-2.61-6.21s1.46-4.54,2.36-6.75a33.55,33.55,0,0,0,2.46-13.65,34.55,34.55,0,0,0-7.65,16c-.71,3.8-1.08,8.24-4.29,10.4-2-4.81-.84-10.37,1.22-15.15s5-9.18,6.65-14.11c.25-.76.41-1.75-.23-2.22-.83-.6-1.91.33-2.45,1.2-2.68,4.33-3.78,9.59-7,13.53-1.5,1.82-3.41,3.32-4.6,5.36-1.31,2.25-1.59,4.94-1.85,7.53-.91,9.26-1.81,18.76.58,27.75a3.33,3.33,0,0,0,1.24,1.94l.61.15a1.25,1.25,0,0,0,.31-.07l.06.14a15.13,15.13,0,0,0,9.37-1.18,5.28,5.28,0,0,0,2.55-2.17c1.09-2.17-.54-4.62-1.64-6.79s-1.11-5.65,1.27-6.14c1.08-.23,2.18.35,3.28.28,2.52-.17,3.5-3.31,3.84-5.82A3.56,3.56,0,0,0,138.91,189.86Z"/><path class="cls-2" d="M139.07,189.7c-.78-1-1.49-1-2.49-1.69-5.68-3.67-2.88-8.43-1.09-13.08A36.81,36.81,0,0,0,138,161.2c0-.17-.25-.31-.38-.15a37.71,37.71,0,0,0-7.93,17.38,25.43,25.43,0,0,1-1.23,5.08c-.21.52-1.12,3-1.81,3.13-1.64.27-1.6-3.24-1.62-4-.15-5.27,2.15-10.15,4.49-14.72.81-1.6,6.64-10.23,4-12-2.86-1.91-5.83,7.78-6.33,8.9-2.74,6.09-8.56,9.71-9.6,16.52a92,92,0,0,0-.87,23.78c.36,3.14.33,7.43,3.39,8.59s8,.3,10.7-1.61a4.16,4.16,0,0,0,1.87-4.5c-.73-4.76-5.36-7.51,1.66-9.83,1.77-.59,2.57-.14,3.73-2.06a8.79,8.79,0,0,0,1-5.91c-.06-.28-.48-.16-.43.12.74,3.79-1.84,6-5.18,7.31,2.39-.91-1.4-.25-1.74,0-1.06.61-1.56.84-1.95,2.07-.52,1.64.23,2.8.58,4.32.89,3.86,2.16-2.47-.76,5.34q.27,4.11-3,4.41a14.82,14.82,0,0,1-6.15.13.23.23,0,0,0-.27-.15c-4.6.95-3.07-23-2.82-25.84.51-5.71.88-10,4.82-14.37a27.73,27.73,0,0,0,4.72-6.66c.5-1,3.79-11,6.52-8.15.81.84-5,10.7-5.53,11.7-2.73,5.65-4.42,11.54-2.33,17.67a.22.22,0,0,0,.37.1c3.27-2.7,3.54-6.56,4.34-10.49a36.07,36.07,0,0,1,3.5-9.9c.53-1,1.2-2.79,2.13-3.47,2.9-2.13,1.43,2.29,1.08,4.2-.9,5-5.26,10.7-4.24,15.92.76,3.9,3.84,3.3,6,6C138.93,190.24,139.24,189.92,139.07,189.7Z"/><path class="cls-4" d="M119.36,213.43l-.17-.05a2,2,0,0,0,2,2.32l-.83-2-.37-.07A1.09,1.09,0,0,1,119.36,213.43Z"/><path class="cls-2" d="M119.42,213.22l-.18-.05a.23.23,0,0,0-.27.16,2.25,2.25,0,0,0,2.2,2.59c.13,0,.27-.14.21-.28l-.58-1.42a3.13,3.13,0,0,0-.24-.6c-.22-.35-.75-.21-1.09-.38s-.48.25-.22.38a4,4,0,0,0,1,.25l-.16-.16.84,2,.21-.27a1.79,1.79,0,0,1-1.77-2l-.27.16.17,0A.22.22,0,0,0,119.42,213.22Z"/></g></g></svg>