<svg xmlns="http://www.w3.org/2000/svg" viewBox="0 0 1269.1 777.21"><defs><style>.cls-1{fill:#38301f;}.cls-2{fill:#81c6d8;}.cls-3{fill:#f26633;}.cls-4{fill:#a5c08a;}.cls-5{fill:#eae3ca;}.cls-6{fill:#979b3d;}.cls-7{fill:none;stroke:#38301f;stroke-miterlimit:10;stroke-width:1.82px;}.cls-8{fill:#723a29;}.cls-9{fill:#ca7529;}.cls-10{fill:#bfcbc8;}</style></defs><title>lenses</title><g id="Layer_2" data-name="Layer 2"><g id="Layer_3" data-name="Layer 3"><path class="cls-1" d="M1074.67,663.1c3.22,0,3.22-5,0-5s-3.22,5,0,5Z"/></g><g id="Layer_4" data-name="Layer 4"><path class="cls-2" d="M72.71,678.57c1-2.17.54-4.68.89-7,.32-2.11.63-3.71.63-3.71-2.71-2.24-6.75-2.27-10-.92s-5.86,3.86-8.28,6.41c-2,2.07-4,4.76-3.21,7.5a5.78,5.78,0,0,0,4.82,3.67,17,17,0,0,0,6.31-.68C67.34,683,71.26,681.82,72.71,678.57Z"/><path class="cls-1" d="M73.32,678.73c1.1-3.43.84-7.18,1.51-10.72a.65.65,0,0,0-.29-.71c-4-2.83-8.91-2.2-13,.29-3.56,2.2-9.66,7.13-9.65,11.88,0,10.22,18.18,4.95,21.31-.59a.63.63,0,0,0-1.08-.63c-2.21,3.92-8.7,5.74-13,5.72-1.86,0-4.35-.86-5.44-2.49-1.36-2.05.55-5.06,1.71-6.63a27,27,0,0,1,4.31-4.3A16.78,16.78,0,0,1,66.08,667c1.57-.42,6.07-.78,7.19.86.86,1.25-.72,9.21-1.16,10.56C71.86,679.17,73.07,679.5,73.32,678.73Z"/><path class="cls-3" d="M86.25,701.49c2.15-2.65,4.42-6.14,2.94-9.21H87.87a10.59,10.59,0,0,1-5.12,4.33,17,17,0,0,0-4.53,2.6c-1.26,1.2-2,3.2-1.15,4.73s3.26,2,5,1.27A11.64,11.64,0,0,0,86.25,701.49Z"/><path class="cls-1" d="M86.7,701.93c2.21-2.79,4.51-6.16,3.09-9.82a.64.64,0,0,0-.6-.46,3.5,3.5,0,0,0-1.81.25c-.64.34-1.2,1.71-1.84,2.25a14,14,0,0,1-3.1,1.92c-2.51,1.23-5.72,2.44-6.27,5.58a3.77,3.77,0,0,0,3.23,4.48c3.18.54,5.48-2,7.3-4.2.5-.62-.38-1.51-.89-.88a12.94,12.94,0,0,1-3.34,3.26,3.84,3.84,0,0,1-2.81.56,2.91,2.91,0,0,1-1.83-4.15c1.31-2.44,4.72-3.12,6.92-4.48A12,12,0,0,0,87,694.52c.5-.51,1-1.61,1.55-1.62,1,0,.36,2.82.09,3.61a16.17,16.17,0,0,1-2.81,4.54C85.32,701.67,86.2,702.56,86.7,701.93Z"/><path class="cls-4" d="M709.24,396.7c-4.62-7.15-12.42-10.28-13.36-15C675.54,278.29,543,258.07,480.39,329.88c-1.28,1.46-8,5.27-17.54,10.86a337.32,337.32,0,0,1-38.43,20.05c-22.27,9.59-41.62,19.07-47.61,15-74.53-50.28-223.93-8.76-220.5,137.82.43,18.37-5.85,35.08-5.85,35.08.15,26.4,10.45,46.71,16.71,56.79,16.56,26.72,40.35,39.26,61,50.12a168.07,168.07,0,0,0,29.23,12.53,163.45,163.45,0,0,0,66,6.68c16.4-1.72,40.39-4.24,62.64-20.05,7.38-5.24,8.66-7.75,28.4-23.38,7.59-6,18.62-14.75,27.56-20.88,24.88-17.06,48.81-24.38,65.15-29.24,29.37-8.73,44.78-13.32,66.82-12.53,14.91.54,45.57,4,51.79-7.51,1-1.82,2.44-6,6.68-8.36,2.4-1.32,4.76-1.55,11.69-1.67,6.15-.1,9.22-.15,12.53,0,14,.64,32.37-25.32,35.08-29.23,8.08-11.62,21.32-30.66,25.9-60.14C720.13,445.52,724.13,419.71,709.24,396.7Z"/><path class="cls-1" d="M713.18,394.4a46.94,46.94,0,0,0-7.77-8.47c-2.39-2.07-4.57-3.58-5.39-6.69-1.63-6.25-3-12.43-5.31-18.49a118.13,118.13,0,0,0-17-30.79C663.86,312.08,645,298.87,623.86,291,581.36,275.27,531,282.26,495,310a125.39,125.39,0,0,0-13.28,11.74c-1.62,1.66-3.13,3.72-4.83,5.23-2.07,1.84-5,3.21-7.43,4.64-14.58,8.62-29.19,17.22-44.69,24.11-9,4-18.07,8.07-27.25,11.71-4.58,1.82-12.54,6.09-17.69,4.78-3.35-.86-7.17-4.37-10.35-6.06a125.25,125.25,0,0,0-13-5.94c-37.31-14.66-80.74-11.41-117,4.73A146.76,146.76,0,0,0,157,463.8,184.65,184.65,0,0,0,151.75,504c-.2,8.63.26,17.13-1.16,25.7a152.45,152.45,0,0,1-4.14,16.73c-1.71,6.1,0,13.88,1.06,20.07a109.28,109.28,0,0,0,6.58,23.11,115.7,115.7,0,0,0,21.86,35c10.53,11.5,23.46,20.43,37,28,12.49,7,25.27,13.75,38.83,18.47,28.83,10.06,59.18,11,89.09,6.1,16.89-2.78,33.4-8.48,47.44-18.45,6.92-4.92,13.07-10.86,19.61-16.26,13.23-10.93,26.73-22,41.21-31.23a205,205,0,0,1,47.54-22c15.26-5,30.79-9.75,46.47-13.15,13.2-2.85,26.16-3.08,39.58-2.37,12,.62,25.53,1.81,37-2.51A18.75,18.75,0,0,0,630.4,562c3.81-7.25,9.69-6.2,17-6.31,5.61-.07,11.39.68,16.74-1.37,5.65-2.18,10.53-6.14,14.88-10.27,7-6.67,12.91-14.44,18.38-22.4a151.9,151.9,0,0,0,27-80.29c.77-16.53-2.45-32.86-11.31-47-3.11-4.95-11-.38-7.87,4.6,9,14.36,11.18,30.67,9.75,47.31-1.3,15.14-4.34,30.33-10.39,44.32-4.56,10.56-10.7,20.3-17.32,29.66-5.75,8.15-12.42,16.5-20.61,22.31-4.81,3.4-8.48,4-14.19,4-6.19,0-13.3-.69-19.31,1.06S625,554.13,621.79,559c-2.54,3.85-7.89,4.8-12.16,5.43-11.79,1.74-23.86.24-35.7-.17-14.11-.49-27.94,1.63-41.58,5.13-31,8-62.46,17.43-89.44,35.08-13.7,9-26.54,19.44-39.21,29.77-6.51,5.32-12.61,11.33-19.43,16.26-22.79,16.51-53,21.18-80.63,20.69a159,159,0,0,1-52-9.73c-12.92-4.75-25.25-11.48-37.14-18.37-25.3-14.65-45.47-35.54-54.54-63.76a101.55,101.55,0,0,1-4.81-25.13,18.36,18.36,0,0,1,.13-5.55c.53-2.3,1.42-4.56,2-6.86,3.87-15,2.91-29.83,3.84-45.11,2.77-45.5,24.15-88.12,63-113.11,32.33-20.81,73.45-28.72,111.07-20.29A119,119,0,0,1,361,372a106.79,106.79,0,0,1,11.36,6.33,16.18,16.18,0,0,0,12.75,2.53c6.69-1.14,13.13-3.93,19.36-6.53q13-5.41,25.78-11.18c15-6.71,29.06-15,43.16-23.33,4.67-2.75,8.78-5.27,12.45-9.24A119.82,119.82,0,0,1,498,319.17a118.6,118.6,0,0,1,28.13-17,129.92,129.92,0,0,1,63.8-9.67c44.11,4.29,83.48,32.47,97.6,75.1,1.83,5.52,2.29,12,4.71,17.24,2.72,5.87,9.46,8.91,13.11,14.16C708.64,403.77,716.54,399.23,713.18,394.4Z"/><path class="cls-1" d="M462.39,492.76c-1.78-29.64-13.47-60.07-34.71-81.2-24.28-24.15-50.81-46.24-84.89-54.1-57.86-13.33-121.48,11-160.24,54.91-19.62,22.25-32.81,49.72-35.81,79.38a133.06,133.06,0,0,0,3.84,46.67c4.89,18.72,14.63,35.79,25.91,51.36,16.12,22.24,35.7,41,60.51,53.4,30.36,15.21,65.79,19.65,99.2,14.6,29.63-4.48,60.23-17.24,82.46-37.74a99.4,99.4,0,0,0,27.85-44.82c5.91-19.34,11.35-39.57,14.49-59.57a113.19,113.19,0,0,0,1.39-22.89c-.28-5.84-9.38-5.87-9.11,0,.8,17.13-3.5,33.6-7.64,50.08s-7.29,34.27-15.88,49.14c-14.42,25-41.34,41.44-68.2,50.36-60,19.93-127.88,3.73-168.17-45.53-19.92-24.34-35.67-51.95-37.87-83.91-1.91-27.86,6.06-55.19,21.42-78.39,30.52-46.08,87.63-74.87,142.84-71.28a128.75,128.75,0,0,1,39.65,9c15.51,6.24,28.89,16,41.47,26.9q10.28,8.89,19.93,18.48c2,2,3.93,3.93,5.84,6,.53.56,1.08,1.11,1.58,1.7s-.12-.19.72,1a133.62,133.62,0,0,1,18.61,36.43,120.06,120.06,0,0,1,5.7,30.1C453.63,498.58,462.74,498.62,462.39,492.76Z"/><path class="cls-1" d="M473.53,336.77c-14,26.71-17.22,55.57-12.44,85.09,5.29,32.69,22.38,61.18,50.64,79,26.17,16.52,57.2,22.64,87.87,20.42a153.47,153.47,0,0,0,39.66-8.07c16.74-5.88,32.19-13.27,43.9-27.06C694,473.47,700.06,457.83,704.7,442c5.53-18.84,3.66-38.19-6.56-55.11-3-5-10.9-.44-7.86,4.59a57.84,57.84,0,0,1,6.27,45.89c-3.39,12.55-8,25.4-15.23,36.26-15.92,23.77-46.25,34.24-73.6,37.77-29.15,3.76-59.53-.41-85.35-14.79a102.24,102.24,0,0,1-51-69.13c-6.2-29.48-4.06-59.17,10.05-86.11,2.72-5.19-5.14-9.8-7.86-4.6Z"/><path class="cls-4" d="M509.62,317.35a147.59,147.59,0,0,0-19.21,26.31c-7.41,17.73-5.25,33.68-4.18,40.93,4.48,30.23,23.95,49.33,30.91,56,26.22,25,57.63,29.6,71.83,30.49,9.8.61,42.15,2.63,69.74-18.38,5.21-4,18.31-14.18,26.31-32.57,4.66-10.7,5.11-21.12,6.27-25.89C709.33,319.45,574.87,248.53,509.62,317.35Z"/><path class="cls-1" d="M506.4,314.13c-7.39,7.94-14.63,17.08-19.65,26.76-5.6,10.79-6.91,24.48-5.94,36.44,1.85,22.76,11.5,43.46,26.92,60.19,27.45,29.79,68.91,42.86,108.69,37.12,23.12-3.33,45.18-14.57,60.25-32.64a78.85,78.85,0,0,0,17.45-37.36c1.57-9,3.77-18.09,3.29-27.31-1.92-37.25-33.92-66.3-66-80.5-36.08-16-80.68-17.74-113.39,7a97.3,97.3,0,0,0-11.62,10.32c-4.06,4.23,2.37,10.68,6.44,6.44,26.45-27.53,66.07-31.89,101.23-20.67,30.7,9.8,63,32.55,72.14,65a56.44,56.44,0,0,1,1.75,22.5c-1.39,10.58-3.14,22.27-7.59,32-9.09,19.81-27.2,35-47.67,42-36.33,12.49-81.12,3.84-109.75-21.7-16.17-14.43-28.41-33-32.06-54.68-2.11-12.49-2.06-26.6,3.18-38.35,4.26-9.56,11.72-18.55,18.77-26.13C516.83,316.29,510.4,309.83,506.4,314.13Z"/><path class="cls-1" d="M176.45,435.29c-7.33,19.78-4,41.55,1.57,61.32,5.1,17.89,12.77,34.74,23.92,49.69,13.36,17.91,30.84,33.4,50.71,43.76,31.18,16.24,67.63,19.46,101.65,11.55,24.65-5.73,49.25-16.72,67.67-34.32,23.55-22.51,36.39-56.72,32.48-89.11a121.29,121.29,0,0,0-27.74-63.31c-30.22-36.12-78.56-55.63-125.06-56.56-46.76-.93-93.75,18.69-117.49,60.61a128.56,128.56,0,0,0-7.71,16.37c-1.18,3,3.66,4.3,4.82,1.33A111,111,0,0,1,223.53,384c18.14-11.85,39.42-18.31,60.93-20.15,44.53-3.79,91.9,10.67,125.31,40.7C426.18,419.31,439,438,445.42,459.21a108.72,108.72,0,0,1,4.84,35.92c-.7,16.42-6.84,33.54-15,47.71-14.24,24.64-39.24,39.79-65.38,49-30.08,10.64-63.52,12.19-94,2.42-54.8-17.54-94.73-70.95-98.42-128.15a71,71,0,0,1,3.88-29.52C182.39,433.6,177.56,432.3,176.45,435.29Z"/><path class="cls-1" d="M473.22,444.32c31.64,44.95,91.53,70.47,145.47,54.53A117.47,117.47,0,0,0,663,474.06c2.41-2.13-1.14-5.66-3.54-3.54a111.75,111.75,0,0,1-81.58,27.72A133.11,133.11,0,0,1,477.53,441.8c-1.84-2.61-6.17-.12-4.31,2.52Z"/><path class="cls-1" d="M599.83,510.29c32.92.33,68.86-13.22,82.76-45.09,1.27-2.92-3-5.47-4.32-2.52C665,493,631.14,505.61,599.83,505.29c-3.22,0-3.22,5,0,5Z"/><path class="cls-1" d="M470.88,409.06c2.71,17,12.19,30.86,25,42a113.09,113.09,0,0,0,18.68,13.23c3.82,2.14,8.32,4.82,12.75,5.42,3.15.43,4.51-4.39,1.33-4.82-4.06-.55-8-2.95-11.56-4.92a107.14,107.14,0,0,1-17.67-12.44c-12.24-10.62-21.14-23.57-23.73-39.78-.51-3.17-5.33-1.82-4.82,1.33Z"/><path class="cls-1" d="M575.9,423.33c7.23-15.9,13.39-32.41,17.05-49.52,3.43-16.07,6.73-32.06,11.16-47.92.79-2.82-3.6-4-4.39-1.21-4.31,15.4-7.64,30.92-10.88,46.57-3.56,17.19-9.61,33.82-16.87,49.78-1.21,2.65,2.72,5,3.93,2.3Z"/><path class="cls-1" d="M590.83,433.56a258.76,258.76,0,0,0,31.93-12.3c7.91-3.64,16-7.28,22.62-13,12.5-10.82,18.65-27.18,21.37-43.08.49-2.87-3.89-4.1-4.39-1.21-2.6,15.21-8.24,30.72-20.2,41.07-6.31,5.47-14.19,8.86-21.7,12.31a250.16,250.16,0,0,1-30.84,11.85c-2.8.86-1.61,5.26,1.21,4.39Z"/><path class="cls-1" d="M560.93,418.48a95.68,95.68,0,0,1-24.48-98c.89-2.8-3.5-4-4.39-1.21A100.26,100.26,0,0,0,557.71,421.7c2.11,2,5.33-1.18,3.22-3.22Z"/><path class="cls-1" d="M545.31,430.84c-19.39-6.59-36-16.54-52.52-28.46-2.38-1.73-4.66,2.22-2.3,3.93,7.37,5.33,14.64,10.8,22.6,15.24a187.82,187.82,0,0,0,31,13.68c2.79.95,4-3.45,1.22-4.39Z"/><path class="cls-1" d="M551.9,441.09c-7.17,3.2-14.77,5.46-21.9,8.77-2.65,1.23-.34,5.16,2.3,3.93,7.13-3.31,14.72-5.57,21.9-8.77,2.67-1.19.36-5.11-2.3-3.93Z"/><path class="cls-1" d="M592.37,444.25c16,14.31,37,15.42,57.57,13.61,2.9-.25,2.92-4.81,0-4.55-19.2,1.69-39.29,1.15-54.35-12.28-2.18-1.94-5.41,1.27-3.22,3.22Z"/><path class="cls-5" d="M695.88,500.27c-1.13-.88-11.83,8.81-20,18.38-6.78,7.9-8.6,11.9-13.36,12.53-7.26,1-10.05-7.44-17.54-6.68-6.24.62-7.25,6.73-15.87,12.52-3.07,2.07-7.34,4.25-20.88,6.69s-20.34,3.65-35.08,3.34c-35.43-.76-97.44,31.64-101.07,38.42-2.2,4.11,39.92-10.56,81.65-15.79,23.23-2.92,36.28,10.78,63.21-2.26,11.19-5.42,15.46-13.55,18.79-15.68,7.88-5,4,1.47,27.79-2C689.56,545.94,697.39,501.45,695.88,500.27Z"/><path class="cls-1" d="M696.05,499.67c-1.7-.45-3.91,1.93-5.06,2.88a125.11,125.11,0,0,0-13.3,13.05c-3.7,4.1-6.82,9.5-11.13,13-5.52,4.45-10,.12-14.74-2.82-8.74-5.4-13.25,2.26-19.07,7.57-7.78,7.09-18.12,8.61-28.13,10.38a170.33,170.33,0,0,1-18.41,2.5c-5.76.37-11.52,0-17.27.27-9.21.41-18.33,2.44-27.17,5A263.35,263.35,0,0,0,488,573.74c-5,2.71-10.37,5.51-14.61,9.32-1.4,1.25-3.22,3-.66,3.74,1.48.45,4.21-.48,5.61-.76,4.54-.93,9-2.1,13.53-3.21,12.6-3.11,25.22-6.17,38-8.64,13.46-2.62,27.12-5.49,40.84-3.47,9.66,1.42,19.09,3.91,28.94,2.68a51,51,0,0,0,29.64-14.19c3.92-4,7.26-9.52,13.5-8.58,8.27,1.25,17.69,1.4,25.67-1.49,7.66-2.78,13.4-9.09,17.56-15.88a79.49,79.49,0,0,0,9.16-22.64c.55-2.23,2.87-8.68,1.17-10.79-.5-.63-1.38.26-.88.88,1.18,1.48-1.38,9.2-1.88,11.11a79.61,79.61,0,0,1-8.12,19.94c-4.05,6.85-9.68,13.36-17.34,16.17s-16.7,2.85-24.56,1.58a10,10,0,0,0-8.66,2c-2.31,1.77-4.07,4.28-6.09,6.35A47.22,47.22,0,0,1,611.62,569c-10.75,4.14-21.35,3.86-32.5,1.87-9.25-1.65-18.08-2.84-27.48-1.6-23.44,3.11-46.21,9.16-69.19,14.53-2.59.61-5.44,1.57-8.12,1.64-2.48.06-1.2-.56.31-1.84,4.29-3.64,9.53-6.39,14.45-9.06a266,266,0,0,1,50.53-21.21,127.86,127.86,0,0,1,27.16-5.51c9.79-.73,19.48,0,29.26-1.46,10.1-1.47,21.64-2.55,30.83-7.34a36.39,36.39,0,0,0,9.79-7.94c4.56-5,8.85-8.16,15.46-3.66,3.29,2.25,6.24,4.94,10.52,4.32,3.38-.49,5.59-2.92,7.68-5.42,4.25-5.06,8.35-10.18,13-14.91,2.15-2.2,4.37-4.35,6.67-6.39,1-.88,4.28-4.57,5.73-4.18A.63.63,0,0,0,696.05,499.67Z"/><path class="cls-6" d="M186.93,586.19c.42-3.68,25.16-29.57,25.34-28.84C320,655.26,441.13,584.08,454.21,500.22,456.83,482,443,576.5,433.05,591c-30,44.12-87.05,58.48-101.34,60.13-36,4.17-67.24-4.46-91.32-13.92,0,0-29-15.22-45.66-37C190.92,595.24,186.52,589.85,186.93,586.19Z"/><path class="cls-1" d="M187.54,586.35c.63-3,4-6,5.94-8.28,3.25-3.83,6.65-7.55,10.09-11.22,2.18-2.32,5.06-6.66,7.94-8.11.26-.13.58-.75.87-.76s3.05,3,3.6,3.49q4.82,4.17,9.86,8.06c23.51,18.11,51.14,31.19,80.78,34.8,47.74,5.82,96.64-14.49,125.79-52.85a120.12,120.12,0,0,0,17.53-32,104.29,104.29,0,0,0,4.7-18c.11-.63.92-3.21.44-3.89a.64.64,0,0,0-1.15.15c-1.13,4.61-1.58,9.49-2.38,14.17q-2.62,15.33-5.63,30.6c-2.16,10.81-4.43,21.62-7.39,32.24-2.77,9.92-6.2,17.12-12.94,25.11-18.91,22.39-45.78,37.42-73.54,46-29.06,9-60.14,6.74-89.15-1.55-7.51-2.14-15.61-4.33-22.64-7.79a112,112,0,0,1-11.73-7.12,163.37,163.37,0,0,1-21.65-16.85A108.48,108.48,0,0,1,197,602.13c-3.32-4-9.47-10.31-9.48-15.94a.63.63,0,0,0-1.25,0c0,7.16,7.81,14.65,12.3,19.69a133.45,133.45,0,0,0,18.55,16.92c7.8,6,16.38,12.52,25.67,16.07,30.7,11.7,66,18.71,98.59,11.14,25.78-6,51.07-18,71.17-35.31,9.18-7.91,19.39-17.69,23.83-29.25,3.61-9.41,5.76-19.46,7.92-29.28,2.83-12.9,5.26-25.9,7.54-38.91,1.11-6.33,1.72-13,3.26-19.21l-1.14.15c-.33-.45,0,.19-.21.59-.71,1.24-.56,3.6-.84,5a105.48,105.48,0,0,1-4.22,15.31,117.83,117.83,0,0,1-16,29.91,136.29,136.29,0,0,1-131.33,53.31c-31-5-59.37-20.32-83.12-40.55-2.5-2.13-4.47-6.34-7.47-4.06-3.24,2.46-6,6-8.77,9-3.62,3.87-7.2,7.8-10.59,11.89-1.7,2.06-4.51,4.73-5.09,7.44C186.17,586.81,187.37,587.14,187.54,586.35Z"/><path class="cls-4" d="M945.21,574.57c10.78,6.65,30.86,18.74,60.13,23.39a146.87,146.87,0,0,0,51.79-.83c14.7-3.07,41.82-8.72,61.81-30.91,16.66-18.49,27.24-47.22,29.23-56,.29-1.26,10.72-21.44,11.69-22.55,8.58-9.78,10.27-29.14,10.86-35.92,2-22.41-10.56-54.32-31.74-79.35-50.1-59.2-129.79-59.25-136.14-56.79-30.07-.76-75.17,14.55-93.55,42.8-6.65,10.22-20.27,23.39-28.4,69.95-2.44,14-4.71,15.22-5,16.71-7.48,36.9,9.41,68.25,14.2,76.84C905.91,550.37,928.47,564.26,945.21,574.57Z"/><path class="cls-1" d="M942.91,578.51c31.2,19.19,66.86,29.23,103.64,24.87,31.27-3.7,62.19-15.38,81.59-41.3a155.58,155.58,0,0,0,22.95-45.42,54.36,54.36,0,0,1,4.31-11c2.5-4.94,4.84-10.16,7.83-14.82,4-6.18,7.14-11.84,9-19.09a118.13,118.13,0,0,0,3.11-20.58c1.27-17.94-5.07-36.18-13.08-51.95-17.1-33.69-46.32-59.37-80.94-74-22.11-9.33-47-15.4-71.18-14.92-2.66,0-5.2.49-7.82.71-6.12.52-12.61.5-18.9,1.44a138.22,138.22,0,0,0-49.08,17.24c-21.33,12.55-37.38,34.14-46.75,56.89a169.35,169.35,0,0,0-7.84,24.81c-2.2,9.18-2.69,19.37-6.28,28.14-5.88,14.35-4.73,31.63-1.69,46.67,6.52,32.31,25.8,60.49,52.23,79.84,6.1,4.45,12.49,8.46,18.92,12.42,5,3.08,9.58-4.8,4.59-7.87-13.3-8.19-26.17-16.85-36.94-28.29a120.29,120.29,0,0,1-23.2-36.27c-6.81-16.36-10.18-34.32-8.29-52a42.51,42.51,0,0,1,1.23-7.84c-.23.75-.13.51.16-.24.73-1.87,1.68-3.62,2.31-5.54,3-9.1,3.83-18.87,6.13-28.16,3.3-13.34,7.86-26.39,15.13-38.12,4.89-7.9,10.47-16.37,17-22.94,11.61-11.66,26.88-19.51,42.39-24.58a133.73,133.73,0,0,1,23.68-5.54c5.86-.79,11.82-.49,17.62-1.25,1.69-.23-.41-.08,1.58-.21,1.44-.1,2.89-.17,4.34-.19,3.86-.05,7.72.13,11.57.44a180,180,0,0,1,33.82,6.16c31.79,8.88,61,26.35,81.89,52.23,11.95,14.83,21.43,32.37,26,50.91a81.59,81.59,0,0,1-1.06,42.13c-1.78,6.23-5.11,10.69-8.21,16.15-2.77,4.86-5.28,9.88-7.79,14.88-4.72,9.39-7,19.73-11.49,29.3-7.75,16.64-17.92,32.7-33.23,43.33-12.84,8.91-27.59,13.74-42.74,17A146,146,0,0,1,963,579.46c-5.3-2.7-10.43-5.7-15.5-8.82S937.92,575.44,942.91,578.51Z"/><path class="cls-1" d="M1136.23,402.72c-23-41.11-71.59-63.74-116.9-68.13-26.43-2.56-55.42,2.65-78.4,16.43-23.25,13.93-36,38.46-38.64,64.92-1.74,17.65.87,35.15,8.78,51.13,9.74,19.65,26.33,34,43.85,46.52,35.72,25.55,83.64,34.39,125.91,21.55,23-7,44.29-21.68,57.51-42,15.77-24.26,14.84-53.77,3.38-79.5-1.66-3.72-3.53-7.32-5.49-10.89-2.81-5.14-10.68-.55-7.86,4.6,11.2,20.47,17.25,43.69,9.37,66.53-7.45,21.61-26.77,38.83-47.19,48-38.22,17.19-85.92,11.51-121.22-9.68-14.94-9-29.57-20.32-40.44-34a82.26,82.26,0,0,1-17.95-48.38c-.68-21.62,5.24-43.92,20.57-59.79,18-18.58,47.7-26.64,72.86-27a152.94,152.94,0,0,1,66.75,14.58c16.89,8.05,33.23,18.58,45.56,32.79a99.83,99.83,0,0,1,11.69,16.91C1131.23,412.43,1139.1,407.85,1136.23,402.72Z"/><path class="cls-7" d="M1141.49,516.94c-3.06,4-7.58,9.49-21.72,18.38-29.66,18.65-58.48,20.93-70.16,21.71A165.09,165.09,0,0,1,977,545.34c-35.16-14.2-55.34-36.44-59.31-40.93-12.27-13.85-30.41-42.73-31.74-59.3C859.7,217.92,1279.31,324.83,1141.49,516.94Z"/><path class="cls-1" d="M1134,449.29c-2.23-19.58-9.87-38.15-22.92-53-11.46-13.06-27-23.33-42.61-30.72-30.65-14.51-69.49-18.82-102-8-21.07,7-39.12,20.4-52.63,37.9-2,2.55,2.38,5,4.32,2.53a104.8,104.8,0,0,1,44.65-33.81c16.08-6.24,33.24-8.07,50.37-7.1,31.95,1.81,63.65,13.74,87.37,35.62A90.85,90.85,0,0,1,1129,449.29c.36,3.16,5.36,3.19,5,0Z"/><path class="cls-6" d="M1011.19,367.43c20.73,1,35.4,7.09,55.61,16.15,2.47,1.11,30,19.21,45.46,44.17,2,3.18,10.32,21,12.52,44.09.94,9.85,1.66,18.62-3.34,27.56-7.42,13.29-30,25.93-31.7,23.88-1.08-1.27,10.36-11.73,14.16-18.87,8.78-16.48,4.67-34.72,3.24-41.06-6.36-28.15-29.54-43.76-42.49-52.49a119.72,119.72,0,0,0-44.27-18.37c-11.65-2.19-32.11-6-55.13,3.34C956.94,399.21,937,407,927.67,425.9c-10,20.21,4.62,52.9,1.67,53.46-2.54.47-17.05-26.25-16.71-43.44.35-17.47,9.11-36.2,24.22-47.61C953.38,375.83,978.1,365.84,1011.19,367.43Z"/><path class="cls-1" d="M1011.19,368.06c25.61,1.42,51.33,11.1,71.09,27.48,10.84,9,21,19.29,28.59,31.2,5.72,8.93,8.75,20.07,11,30.31,3.54,16.34,6.32,35.4-5.93,48.75a72.36,72.36,0,0,1-14.78,12.06c-1.29.82-10.22,6.07-10.57,4.62-.24-1,3.36-4.26,4.09-5.09,2.07-2.39,4.17-4.76,6.12-7.25a42.29,42.29,0,0,0,7.89-16.84c2.47-10.89,1.28-22.46-1.68-33.14-6.32-22.82-24.5-38.49-43.63-50.9-19.79-12.84-44.08-20.3-67.77-20.06-22.39.22-49.2,10-63.34,28.26-7.46,9.61-9.5,20.53-8.44,32.46a122.68,122.68,0,0,0,2.65,15.94c.71,3.13,3.29,8.75,2.64,12-.28,1.36-.63.32-1.48-.82a47,47,0,0,1-3.35-5.35A103.74,103.74,0,0,1,916.92,455c-4.6-13.53-4.61-26.8.75-40.18,11-27.4,40.29-41.56,68-45.59a136.58,136.58,0,0,1,25.48-1.14c.8,0,.8-1.22,0-1.25-27.69-1.16-58.65,5.42-79.45,25a63.82,63.82,0,0,0-19.13,36.89c-1.81,12.51,1.7,24.5,6.76,35.87.74,1.67,7.16,17.23,10.49,15.2,1.29-.78.13-4.21-.09-5.23-1-4.92-2.37-9.77-3.3-14.72-2.87-15.23-2.64-30,7.53-42.59,7.8-9.63,18.86-15.69,30.15-20.29,26.05-10.62,56.24-7.1,81.57,4.16,24.81,11,51.46,30.92,59.63,57.91,4.28,14.16,5.4,30.79-1.58,44.28-3.06,5.91-7.92,10.59-12.12,15.67-.78.94-3.59,3.53-2.22,4.85s4.81-.78,6-1.35a71.09,71.09,0,0,0,14.1-9.11c11.37-9.14,17.19-19.91,16.4-34.73a133.77,133.77,0,0,0-9.79-44.11c-4.4-10.6-11.91-19.6-19.86-27.76a159.52,159.52,0,0,0-26-21.73c-3.94-2.61-8.34-4.28-12.67-6.14a177.11,177.11,0,0,0-23-8.39,112.47,112.47,0,0,0-23.5-3.69C1010.39,366.76,1010.39,368,1011.19,368.06Z"/><path class="cls-8" d="M1114.17,719.48c1.82,1,4.07.34,5.92-.56,2.88-1.4,5.65-3.66,6.27-6.8s-2-6.87-5.16-6.28l-4.75.5a9.9,9.9,0,0,0-4.69,7.87C1111.66,716.25,1112.38,718.51,1114.17,719.48Z"/><path class="cls-1" d="M1114,720.09c4.43,1.79,10.49-2.05,12.38-6.1,1.62-3.47-.17-8.65-4.47-8.84-3.3-.14-6.37.39-8.49,3-2.68,3.35-3.57,9.13.43,11.83.67.45,1.29-.63.63-1.08-4-2.67-1.76-8.52,1-11.13,1.38-1.3,3.41-1.12,5.23-1.3,3.91-.38,6.12,3.54,4.47,7s-7,7-10.86,5.39C1113.59,718.58,1113.27,719.79,1114,720.09Z"/><path class="cls-6" d="M1182,762.45l-5.76,6.42-4.48,5.66c2.08,2.09,5.41,2.39,8.29,1.77,3.64-.78,7.24-3.19,8.06-6.82S1185.57,761.54,1182,762.45Z"/><path class="cls-1" d="M1181.52,762c-3.55,4-7,7.91-10.25,12.08a.65.65,0,0,0,0,.88c4.56,4,12.46,2.36,16-2.33,3.29-4.38.57-11.66-5.44-10.79-.8.11-.46,1.32.33,1.2,3.93-.57,6.15,3.81,5.06,7a8.9,8.9,0,0,1-5.54,5.08,11.16,11.16,0,0,1-6,.61c-.87-.17-2.84-.47-2.75-1.75,0-.49,1.92-2.43,2.24-2.83,2.29-2.88,4.8-5.57,7.26-8.31C1182.94,762.3,1182.06,761.41,1181.52,762Z"/><path class="cls-4" d="M1231.1,697.52c-4,1.27-7.07,4.32-10,7.34l-4.14,2.06c-1.52.75-3.3,2-3.06,3.63s2.18,2.33,3.77,2.11,3-1.08,4.61-1.32c3.33-.51,6.4,1.66,9.58,2.74s7.84.15,8.15-3.2c-1.27.18-1.67-1.87-.87-2.88s2.13-1.53,2.84-2.61a4.16,4.16,0,0,0,.16-3.74C1240.57,697.62,1235.23,696.21,1231.1,697.52Z"/><path class="cls-1" d="M1230.94,696.92a22.12,22.12,0,0,0-6.87,4.18,32.24,32.24,0,0,1-4.63,3.91,43.94,43.94,0,0,0-3.92,2c-2.14,1.6-3.32,4.22-.46,5.83,2.06,1.15,3.86-.16,5.87-.52,5-.9,7.42,1.85,12,2.64,3.29.57,6.85-.44,7.73-3.93a.64.64,0,0,0-.44-.77c-.85-.26,2.67-4.93,2.89-6.07a6.12,6.12,0,0,0-1.65-4.88c-2.62-3-6.92-3.31-10.51-2.41a.63.63,0,0,0,.33,1.21,10.47,10.47,0,0,1,5.58-.12l2,.83q3.65,1.59,1.58,4.91c-1,4.15-1,1.61-1.71,3.81-.17.51-.38.25-.54,1.17s.6,1.47.53,2.23c-.22,2.08-3.18,3.14-5.6,2.71-2.87-.5-5.31-2.36-8.19-2.84-1.26-.2-5.28,1.11-5.85.84l-1.78-4.21,2.08-1a15,15,0,0,0,2.19-1.12c3.43-2.53,5.48-5.57,9.7-7.18C1232,697.84,1231.69,696.63,1230.94,696.92Z"/><path class="cls-9" d="M1053.26,737.19l-3.54,2.95c-3.32,1.54-6.72,3.13-9.29,5.74s-4.18,6.5-3.09,10c1.59,5.11,8.3,8.28,7.75,13.6q4.58-5.82,9.16-11.65c2.69-3.41,5.48-7.08,5.93-11.41S1057.6,737.12,1053.26,737.19Z"/><path class="cls-1" d="M1052.82,736.75c-5.12,4.27-12.87,6.17-15.6,12.82-3.74,9.08,7.27,11.92,7.25,19.9,0,.5.71.89,1.06.44,3.22-4.09,6.48-8.17,9.67-12.29,2.36-3.07,4.79-6.33,5.44-10.24.85-5.09-2-10.29-7.38-10.82-.8-.07-.8,1.18,0,1.25,4.84.48,7,5.83,6,10-.69,3.11-2.67,5.81-4.54,8.3-3.29,4.36-6.74,8.6-10.11,12.89l1.07.44c0-7.9-10.59-10.63-7.25-19.39,2.39-6.27,10.34-8.36,15.23-12.45C1054.32,737.11,1053.43,736.23,1052.82,736.75Z"/><ellipse class="cls-10" cx="812.86" cy="636.64" rx="21.35" ry="28.98"/><path class="cls-1" d="M833.58,636.64c-.23,11.83-6.51,28.35-20.72,28.35s-20.71-16.51-20.73-28.35,6.69-28.35,20.73-28.35c14.22,0,20.49,16.52,20.72,28.35a.63.63,0,0,0,1.25,0c-.21-10.72-4.4-23.27-14.91-28-9-4.09-18.28.58-23.45,8.31-6.65,9.93-7.29,23.83-2.59,34.67,3.82,8.81,12.4,16.53,22.61,14.26,12.78-2.84,18.11-17.57,18.34-29.2A.63.63,0,0,0,833.58,636.64Z"/><ellipse class="cls-10" cx="692.88" cy="54.11" rx="21.35" ry="28.98" transform="translate(137.74 472.23) rotate(-41.45)"/><path class="cls-1" d="M708.44,40.41c7.84,9.26,14.13,26.64,2.31,35.63C700,84.2,685,76.49,677.32,67.8c-7.84-8.85-13.74-25.7-3.18-35s26.29-1.12,34.3,7.58c.54.6,1.43-.29.88-.88-7.15-7.78-18.28-14.26-29.19-11.26-9.79,2.69-13.9,12.54-12.57,22,1.71,12.19,10.86,23.39,22.14,28.12,8.53,3.57,19.41,3.27,25.27-4.85,7.65-10.62,1.87-25.12-5.65-34C708.8,38.91,707.92,39.8,708.44,40.41Z"/><circle class="cls-10" cx="359.89" cy="210.2" r="21.35"/><path class="cls-1" d="M373.59,225.76c-8.7,7.19-21.62,6.8-29.26-1.87A20.72,20.72,0,0,1,375,196c8.12,8.64,7,21.82-1.38,29.76-.59.55.29,1.44.88.88,8.71-8.2,10-21.87,1.87-31a22,22,0,1,0-32.89,29.16c8.13,9.17,21.8,9.49,31,1.86C375.09,226.13,374.2,225.25,373.59,225.76Z"/><circle class="cls-10" cx="277.42" cy="240.02" r="37.76"/><path class="cls-1" d="M302,267.88c-11.9,10.12-29,12.29-42.72,4.54a37.14,37.14,0,1,1,50.13-51.32C318.5,236.48,315,256,302,267.88c-.59.55.29,1.43.89.89,11.92-10.94,16.28-28.12,10.1-43.26a38.39,38.39,0,1,0-59,44.93c14.58,11.29,35,10.1,48.86-1.67C303.47,268.24,302.58,267.36,302,267.88Z"/><ellipse class="cls-10" cx="479.45" cy="70.56" rx="33.84" ry="21.17" transform="translate(234.04 488.44) rotate(-67.95)"/><path class="cls-1" d="M467.06,101.39c-14.57-6.6-11.18-28.32-6.06-40,4.67-10.63,17.24-27.15,30.92-21.6,15,6.08,10.74,29.45,5.63,40.62-4.94,10.81-17,25.83-30.64,20.88-.76-.27-1.09.94-.34,1.21,10.2,3.69,20.16-3.83,26.1-11.53,8.38-10.85,13.5-26.83,9.48-40.37-2.8-9.45-11.14-15.32-20.92-12.08C469.05,42.6,461,55.66,457.51,67.32c-3.39,11.38-3.94,29.32,8.92,35.15C467.15,102.8,467.79,101.72,467.06,101.39Z"/><circle class="cls-10" cx="794.11" cy="157.75" r="28.98"/><path class="cls-1" d="M822.46,157.75c-.37,15.44-12.62,28.35-28.35,28.35a28.36,28.36,0,0,1,0-56.71c15.74,0,28,12.88,28.35,28.36a.63.63,0,0,0,1.25,0c-.29-12.08-7.37-23.09-18.77-27.56A29.89,29.89,0,0,0,771,139.26c-16.72,20.82,1.9,52.1,28.11,47.66,14.29-2.42,24.26-14.92,24.6-29.17A.63.63,0,0,0,822.46,157.75Z"/><circle class="cls-10" cx="759.75" cy="707.99" r="18.72"/><path class="cls-1" d="M777.85,708c-.37,9.86-8,18.09-18.1,18.09a18.09,18.09,0,0,1,0-36.18c10.15,0,17.73,8.23,18.1,18.09a.63.63,0,0,0,1.25,0c-.39-10.52-8.53-19.34-19.35-19.34a19.34,19.34,0,0,0,0,38.68c10.82,0,19-8.79,19.35-19.34A.63.63,0,0,0,777.85,708Z"/><circle class="cls-10" cx="905.34" cy="700.78" r="15.98"/><path class="cls-1" d="M920.69,700.78c-.36,8.42-6.73,15.25-15.35,15.35a15.35,15.35,0,1,1,0-30.7c8.64,0,15,7,15.35,15.35,0,.8,1.28.8,1.25,0-.39-9.06-7.28-16.57-16.6-16.6a16.6,16.6,0,1,0,0,33.2c9.33,0,16.21-7.57,16.6-16.6C922,700,920.72,700,920.69,700.78Z"/><circle class="cls-10" cx="741.03" cy="11.57" r="10.95"/><path class="cls-1" d="M751.36,11.57c-.72,13.22-20.65,13.34-20.65,0s19.93-13.22,20.65,0c0,.8,1.29.81,1.25,0C752.27,5.29,747.59,0,741,0a11.68,11.68,0,0,0-11.57,11.57,11.66,11.66,0,0,0,11,11.54c6.78.35,11.82-5,12.17-11.54C752.65,10.77,751.4,10.77,751.36,11.57Z"/><circle class="cls-10" cx="710.96" cy="225.85" r="15.98"/><path class="cls-1" d="M726.31,225.85c-.36,8.42-6.73,15.26-15.35,15.36a15.36,15.36,0,0,1,0-30.71c8.64,0,15,7,15.35,15.35,0,.81,1.28.81,1.25,0-.38-9-7.28-16.56-16.6-16.6a16.61,16.61,0,0,0,0,33.21c9.33,0,16.22-7.58,16.6-16.61C727.59,225.05,726.34,225.05,726.31,225.85Z"/><ellipse class="cls-10" cx="492.55" cy="682.03" rx="20.77" ry="25.79" transform="translate(-348.6 666.67) rotate(-53.12)"/><path class="cls-1" d="M504.57,665.86c8.77,6.91,15.49,19.73,8.76,30.33-7.23,11.41-23.5,8.92-32.82,1.95-8.92-6.68-15.37-19.82-8.75-30.27,7.36-11.6,23.45-8.67,32.93-1.91.66.47,1.29-.61.64-1.08-8.24-5.87-20-8.87-29.16-3.07-8,5.09-10,15.11-6.85,23.67a31.37,31.37,0,0,0,23.4,19.43c9,1.62,18.88-1.54,22.88-10.27,5-10.88-1.56-22.89-10.15-29.66C504.83,664.49,503.94,665.37,504.57,665.86Z"/><path class="cls-5" d="M736.09,12a6.38,6.38,0,0,0,.73,3.17,2.75,2.75,0,0,0,2.74,1.41,4.24,4.24,0,0,0,2-1.32l3.65-3.61c.34-.33.69-.85.4-1.22a1,1,0,0,0-.57-.28l-5.46-1.33a2.5,2.5,0,0,0-1.05-.11,1.86,1.86,0,0,0-.64.29,2.27,2.27,0,0,0-.82,2.38"/><path class="cls-1" d="M735.46,12c.12,2.29,1.13,5.64,4.1,5.21,1.34-.2,2.31-1.38,3.21-2.28s3-2.32,3.44-3.71a1.2,1.2,0,0,0-.7-1.58c-1.5-.77-3.79-1-5.43-1.34-2.3-.53-4,.76-3.62,3.25.12.79,1.32.45,1.2-.34-.39-2.64,2.2-1.68,3.11-1.46l2.05.5c.47.12,1.36.13,1.71.42.4,0,.48.16.23.54l-.78.77c-.94.94-1.85,2-2.87,2.84-3,2.42-4.27-.24-4.4-2.82,0-.8-1.29-.8-1.25,0Z"/><path class="cls-5" d="M278.45,252.27c-5.43-.45-10.92-1.42-15.75-3.94s-9-6.78-10.33-12.06c-2.49,3-3.38,7.17-3.23,11.11s.39,8.38.39,8.38c.13,4.15,3,7.75,6.19,10.36a30.84,30.84,0,0,0,50-20.31C298.4,252,288,253.05,278.45,252.27Z"/><path class="cls-1" d="M278.45,251.64c-10.46-1-22-4.36-25.47-15.53a.63.63,0,0,0-1.14-.15,18.32,18.32,0,0,0-3.32,11.42c0,3.61-.19,8.05,1,11.55,2.65,8,12.48,12.74,20.2,14.07,17.69,3.05,34-9.44,36.61-27a.63.63,0,0,0-1-.61c-7.66,6.1-17.39,6.95-26.82,6.27-.8,0-.8,1.2,0,1.25,9.82.71,19.77-.32,27.7-6.64l-1-.6c-2.31,15.79-16.11,27.76-32.29,26.49-7.83-.62-18.07-4.63-21.59-12.28-1.48-3.22-1.27-7.34-1.4-10.78-.16-4.56.33-8.68,3.08-12.49l-1.14-.15c3.64,11.71,15.61,15.43,26.68,16.45C279.25,253,279.24,251.72,278.45,251.64Z"/><circle class="cls-10" cx="1252.49" cy="395.18" r="15.98"/><path class="cls-1" d="M1267.85,395.18c-.36,8.42-6.74,15.25-15.36,15.36a15.36,15.36,0,0,1,0-30.71c8.64,0,15,7,15.36,15.35,0,.81,1.28.81,1.25,0-.39-9.05-7.28-16.56-16.61-16.6a16.61,16.61,0,0,0,0,33.21c9.33,0,16.22-7.58,16.61-16.61C1269.13,394.38,1267.88,394.38,1267.85,395.18Z"/><path class="cls-5" d="M1266,395.73a23.42,23.42,0,0,1-5.86,4.14,15.75,15.75,0,0,1-10.13.41,49.46,49.46,0,0,1-9.52-4,3.19,3.19,0,0,0-2.57-.45c-.82.35-1,1.86-.08,2l.3.48c2.13.78,3.39,2.89,4.86,4.61a17.92,17.92,0,0,0,7.11,5,8.33,8.33,0,0,0,4.25.65,10.09,10.09,0,0,0,4-2c1.55-1.09,3.06-2.25,4.53-3.46a11.39,11.39,0,0,0,3-3.25A4.31,4.31,0,0,0,1266,395.73Z"/><path class="cls-1" d="M1265.51,395.29c-5.16,4.46-10.35,6-17,3.9-2.72-.85-5.12-2.54-7.79-3.44-.87-.29-1.92-.94-2.89-.5-3.79,1.73,2.14,5.12,3,6,3.77,4,8.86,9.88,15.14,7.56,4.68-1.73,12.69-7.48,10.63-13.26-.26-.75-1.47-.42-1.2.34,1.54,4.34-5.35,9.61-8.57,11.08-4.64,2.12-9.11-.15-12.39-3.39-1.65-1.62-3-3.48-4.67-5.07-2.35-2.21-.57-1.64,2.72-.52,4.6,1.56,8.43,3.87,13.51,3.47,4.25-.34,7.32-2.6,10.44-5.3C1267,395.64,1266.11,394.76,1265.51,395.29Z"/><ellipse class="cls-10" cx="21.16" cy="389.01" rx="17.61" ry="23.91" transform="translate(-247.07 106.47) rotate(-40.4)"/><path class="cls-1" d="M34.13,378c6.29,7.77,11.24,22.24,1.2,29.35-8.93,6.34-21-.19-27.14-7.4-6.34-7.45-10.82-21.22-2.08-28.74s21.63-.36,28,6.79c.54.6,1.42-.29.88-.89-6.91-7.74-20.37-14.87-29.79-6.79S.54,393,7.3,400.87c6.57,7.7,19.44,14.3,28.88,7.5,10.61-7.64,5.55-22.92-1.17-31.22C34.51,376.53,33.63,377.42,34.13,378Z"/><circle class="cls-10" cx="25.94" cy="462.23" r="15.44"/><path class="cls-1" d="M37.26,452.67c5,6.4,4.53,15.47-1.75,20.88a14.82,14.82,0,1,1-19.13-22.64c6.36-5.4,15.41-4.14,20.88,1.76.55.59,1.43-.3.89-.89-5.95-6.41-15.82-7.61-22.66-1.75a16.06,16.06,0,1,0,20.9,24.4c6.88-5.89,7.14-15.75,1.76-22.65C37.65,451.15,36.77,452,37.26,452.67Z"/><circle class="cls-10" cx="113.55" cy="379.86" r="13.18"/><path class="cls-1" d="M123.15,371.76a12.56,12.56,0,1,1-17.7-1.5c5.4-4.57,13.06-3.5,17.7,1.5.55.59,1.43-.29.88-.88-5.11-5.52-13.59-6.54-19.46-1.5a13.8,13.8,0,1,0,18,21c5.91-5.07,6.12-13.54,1.49-19.46C123.54,370.24,122.66,371.13,123.15,371.76Z"/><path class="cls-5" d="M721.64,226.17c-.2-.47-.77-.33-1.16-.11-3.12,1.79-5.89,4.82-9.31,5.34-2.58.39-5.14-.73-7.58-1.83l-4.8-2.16a8,8,0,0,0,2.24,6.78l-.33-.12c2,1.07,3.91,2.52,6,3.26a10.1,10.1,0,0,0,9.21-1.33,15,15,0,0,0,5.71-9.07A1.31,1.31,0,0,0,721.64,226.17Z"/><path class="cls-1" d="M722,225.63c-1.78-1.11-3.85,1.27-5.21,2.23-2.67,1.89-5,3.15-8.49,2.78-3-.32-6.37-2.52-9.15-3.77a.63.63,0,0,0-.94.54,9.37,9.37,0,0,0,2.41,7.22l.61-1-.33-.12c-.67-.24-1.08.8-.48,1.14,4.6,2.6,8.65,5.32,14,2.94,4.1-1.81,7.85-6.78,7.89-11.38a.63.63,0,0,0-1.25,0c0,4.41-3.89,9.07-7.85,10.46-4.74,1.67-8.27-.9-12.16-3.1l-.48,1.15.33.11c.63.23,1-.61.61-1a8,8,0,0,1-2.05-6.34l-.94.54c3.79,1.71,8.35,4.64,12.69,4.07,2.09-.27,9.13-6,10.16-5.31C722,227.14,722.64,226.06,722,225.63Z"/><path class="cls-5" d="M820.82,158q-5.84,4.4-12.07,8.37c-2.83,1.81-5.82,3.59-9.26,4.19-4.12.73-8.36-.32-12.32-1.55a121.8,121.8,0,0,1-14.33-5.5,2.94,2.94,0,0,0-2.57-.3,2,2,0,0,0-.66.74c-1.49,2.56.7,6.05.7,6.05,3.39,5,7.14,10.25,13.21,12.6,5.67,2.2,15,3.82,20.42,1.27s8.16-6.18,11.92-10.48C819.07,169.73,821.21,162.58,820.82,158Z"/><path class="cls-1" d="M820.51,157.46c-6.86,5.1-15.57,12.91-24.57,12.7-4.05-.09-8.06-1.53-11.86-2.83-3.57-1.22-7.46-3.62-11.07-4.42-2.9-.64-4.64.06-4.52,3.52.15,4.18,4.31,8.49,7,11.29,6.61,6.92,19.74,10.61,28.79,6.69,9.72-4.22,17.58-15.81,17.19-26.41,0-.81-1.28-.81-1.25,0,.38,10.3-8,22.89-18.18,25.9C790.65,187.27,778.9,181,772.45,172c-.83-1.15-2.29-2.76-2.44-4.24-.54-5.54,6.21-2.06,8.13-1.29,5,2,10.44,4.15,15.86,4.79,10.34,1.22,19.39-6.94,27.14-12.71C821.77,158.06,821.15,157,820.51,157.46Z"/><path class="cls-5" d="M488.2,81.11c-3.31,2.54-8.11,2.7-12.5,2.73-3.64,0-7.73-.11-10.27-2.42-2.18-2-2.59-5-4.33-7.26-.93,3.7-1.72,15.39-.18,18.75s6.15,5.53,10.14,6.35c5.19,1.07,10.18-2.26,13.66-5.83a46.2,46.2,0,0,0,11.54-19.81C492.57,74.86,491.18,78.82,488.2,81.11Z"/><path class="cls-1" d="M487.89,80.57c-4.15,2.73-9.44,2.83-14.27,2.62-3.25-.15-5.81-.52-8.11-2.94-1.77-1.87-2.48-4.27-3.87-6.41a.63.63,0,0,0-1.14.15,45.83,45.83,0,0,0-.79,16.62c.78,4.81,4.72,7.35,9.16,8.72,14.18,4.4,24.72-14.52,28-25.55a.63.63,0,0,0-.92-.7c-3.61,1.59-5.3,5.08-8.18,7.58-.61.53.28,1.41.88.89,2.78-2.43,4.44-5.85,7.93-7.39l-.92-.71c-3,10.3-13.12,28.93-26.45,24.68-6.24-2-8.46-5.76-8.52-12a52.94,52.94,0,0,1,1-11.85l-1.14.15c3.36,5.18,4,9,10.88,9.83,5.54.65,12.29.5,17.08-2.65C489.19,81.2,488.56,80.12,487.89,80.57Z"/><path class="cls-5" d="M714.66,52.26a1.14,1.14,0,0,0-1.73-.31,5,5,0,0,0-1.18,1.79c-4.82,9.83-15.71,13.58-24.46,8.45-3.17-1.86-6.13-4.75-9.52-5.32l-1,1.17a10.37,10.37,0,0,0,2.5,6.47,29.62,29.62,0,0,0,4.79,4.28c5.16,4.12,10.37,9.5,16.23,9.44,4.48,0,8.47-3.5,10.86-8.15s3.37-10.38,3.72-16.1A3,3,0,0,0,714.66,52.26Z"/><path class="cls-1" d="M715,51.72c-1.42-1-2.08-.58-3.21.65S710,55.63,708.94,57A18.34,18.34,0,0,1,703,62a15.92,15.92,0,0,1-14.22.27c-3.81-1.83-6.71-4.93-10.87-6a.63.63,0,0,0-.61.17c-3,3.57,1,8.3,3.82,10.82,4.69,4.17,11.06,10.61,17.54,11.49,5.26.71,9.62-2.73,12.26-7,3-4.81,5.93-14,4.31-19.65a.62.62,0,0,0-1.2.33c1.2,4.21-.72,10.56-2.22,14.57-2.47,6.61-8.08,12.51-15.56,9.71-4.73-1.77-8.51-5.73-12.39-8.86-2.13-1.71-4.27-3.41-5.45-6-2-4.2-.49-4.82,3.19-2.74,5.77,3.29,10,7,17.08,5.67a18,18,0,0,0,7.82-3.6c1.08-.84,7.31-8.77,7.82-8.42S715.64,52.18,715,51.72Z"/><path class="cls-5" d="M378.89,208.06a15.75,15.75,0,0,1-10.13,4.38,40.91,40.91,0,0,1-11.12-1c-5.52-1-11.12-2.3-15.94-5.28-.69,4.3,1.2,9.6,1.2,9.6.47,7.61,14,11.48,18.59,11.92C369.31,228.42,382.35,213.08,378.89,208.06Z"/><path class="cls-1" d="M378.45,207.62c-5.87,5.33-13.45,4.55-20.65,3.22-5.51-1-10.89-2.4-15.79-5.22a.64.64,0,0,0-.94.54c-.51,5.37.66,12.45,5,16.09a28.17,28.17,0,0,0,15.44,6.06c5.46.2,10.46-4.37,13.74-8.26,2.49-3,6.44-8.23,4.2-12.3-.39-.71-1.47-.08-1.08.63,3.27,6-7.73,15.43-12.2,17.58-6.13,2.94-17-1.19-20.93-6.33-1.63-2.11-3.44-7.87-3-10.52.17-1.12-.37-1.22.65-1.56A33,33,0,0,1,346,209a48.5,48.5,0,0,0,7.35,2.2c8.77,2,18.74,3.91,26-2.69C379.93,208,379,207.08,378.45,207.62Z"/><path class="cls-5" d="M820.88,650.24c-3.72,1.76-8.27.61-12.07-1a48.53,48.53,0,0,1-12.71-8l0-.08a7.2,7.2,0,0,0,.17,4.86,26,26,0,0,0,10.39,13.71c2.94,2,6.65,3.44,10.17,2.6,3.31-.78,5.7-3.4,7.47-6.09a34.26,34.26,0,0,0,5.61-16.41C826.63,643.13,825.22,648.18,820.88,650.24Z"/><path class="cls-1" d="M820.72,649.63c-4.82,1.79-9.48.14-13.89-2-1.18-.57-10.32-5.61-10.1-6.28l-1.21-.34c-2,9.35,9.07,21.32,18.13,22.14,11.25,1,16.08-14.69,16.92-23.3a.63.63,0,0,0-1.07-.44c-3.09,3.41-4.81,7.93-8.93,10.31a.63.63,0,0,0,.63,1.08c4.28-2.47,6-7,9.19-10.51l-1.07-.44c-.8,8.19-5.73,24.26-16.85,21.85-7.57-1.65-17.56-12-15.74-20.35a.63.63,0,0,0-1.21-.34l0,.09a.64.64,0,0,0,.17.61c6.47,5.44,16.55,12.42,25.39,9.15C821.8,650.56,821.47,649.35,820.72,649.63Z"/><path class="cls-5" d="M918.79,701.32a23,23,0,0,1-5.86,4.14,15.75,15.75,0,0,1-10.13.41,49.46,49.46,0,0,1-9.52-4,3.17,3.17,0,0,0-2.56-.45c-.83.35-1,1.86-.08,2l.3.48c2.12.79,3.39,2.89,4.85,4.61a17.89,17.89,0,0,0,7.11,5,8.36,8.36,0,0,0,4.26.65,10,10,0,0,0,4-2q2.34-1.65,4.53-3.46a11.52,11.52,0,0,0,3-3.25A4.31,4.31,0,0,0,918.79,701.32Z"/><path class="cls-1" d="M918.35,700.88c-5.16,4.47-10.35,6-17,3.9-2.73-.85-5.13-2.54-7.8-3.44-.86-.29-1.91-.93-2.89-.49-3.79,1.72,2.14,5.11,3,6,3.78,4,8.86,9.89,15.14,7.57,4.68-1.73,12.69-7.48,10.64-13.26-.27-.76-1.48-.43-1.21.33,1.54,4.34-5.35,9.62-8.57,11.08-4.64,2.12-9.11-.15-12.39-3.38-1.64-1.63-3-3.48-4.67-5.07-2.35-2.21-.57-1.64,2.73-.53,4.59,1.56,8.43,3.88,13.5,3.47,4.25-.34,7.33-2.59,10.45-5.29C919.84,701.24,919,700.36,918.35,700.88Z"/><path class="cls-5" d="M777,705.13c-2.17,4.48-7.29,6.7-12.17,7.68a23.31,23.31,0,0,1-12-.3c-3.84-1.29-7.27-4.28-8.3-8.2a24.64,24.64,0,0,0-.7,10.83s2.7,6.43,7,8.32a16.64,16.64,0,0,0,13.55-.41,23.92,23.92,0,0,0,10.08-9.4A14.86,14.86,0,0,0,777,705.13Z"/><path class="cls-1" d="M776.45,704.82c-5.81,10.24-27.15,11.72-31.35-.67a.63.63,0,0,0-1.2,0c-1.19,4.67-1.86,9.6.68,13.86s5.67,6.72,10.56,7.24c10.9,1.15,22.35-9.2,22.48-20.12a.63.63,0,0,0-1.25,0c-.13,10.6-11.91,20.89-22.51,18.67-9.41-2-10.74-11.55-8.76-19.32h-1.2c4.56,13.47,27.24,12.23,33.63,1A.63.63,0,0,0,776.45,704.82Z"/><path class="cls-5" d="M33.47,393.26c-1.4,3.1-4.87,4.81-8.13,5.82a39.81,39.81,0,0,1-12.25,1.78l0-.06a6,6,0,0,0,2.71,3,21.46,21.46,0,0,0,13.86,3.06c2.9-.34,6-1.4,7.78-3.81,1.66-2.26,1.76-5.18,1.44-7.82a28.41,28.41,0,0,0-5.25-13.31C33.28,385.73,35.1,389.65,33.47,393.26Z"/><path class="cls-1" d="M32.93,393c-2,3.52-5.72,5-9.48,6-1.42.38-9.68,1.94-9.78,1.67l-1.15.48c3.8,7.1,17.53,8.62,23.63,4,7.24-5.51,2-17.69-2-23.52a.63.63,0,0,0-1.17.31c0,3.83,1.11,7.45-.1,11.22-.25.76,1,1.09,1.2.33,1.24-3.86.1-7.59.15-11.55l-1.16.32c3.71,5.36,7.81,14.37,3.4,20.23-4.56,6.07-19.06,5.16-22.86-1.95-.32-.61-1.41-.18-1.14.48l0,.07a.64.64,0,0,0,.6.46c7.13-.07,17-1.07,20.92-7.91A.63.63,0,0,0,32.93,393Z"/><path class="cls-5" d="M122.3,373a19,19,0,0,1-1.47,5.73,13,13,0,0,1-6.15,5.68,41.15,41.15,0,0,1-8.1,2.6,2.65,2.65,0,0,0-1.85,1.09c-.33.66.39,1.68,1,1.3l.45.14c1.75-.64,3.67,0,5.51.3a14.81,14.81,0,0,0,7.17-.64,6.73,6.73,0,0,0,3-1.86,8.37,8.37,0,0,0,1.49-3.41c.39-1.52.72-3.05,1-4.59a9.5,9.5,0,0,0,.13-3.64A3.55,3.55,0,0,0,122.3,373Z"/><path class="cls-1" d="M121.7,372.84c-.71,4.64-2.4,8.47-6.79,10.75a30.54,30.54,0,0,1-6.42,2.3c-1,.28-2.58.37-3.42,1.05-4.35,3.52,4.39,3.16,5.09,3.25,4.68.59,11,.87,13.25-4.29,1.53-3.59,3.73-11.12-.8-13.43-.71-.37-1.34.71-.63,1.08,3.31,1.68,1.72,6.43,1.08,9.08-1.1,4.61-4.62,6.79-9.18,6.76-2.17,0-4.25-.74-6.42-.72-2.79,0-1.19-.67.67-1.39,3.57-1.39,7-1.83,10.09-4.37s4.09-5.87,4.68-9.74C123,372.39,121.82,372.05,121.7,372.84Z"/><path class="cls-5" d="M35.25,451.22c1,4-1,8.11-3.55,11.33a19.27,19.27,0,0,1-7.7,6.24,10.34,10.34,0,0,1-9.6-.71,20.31,20.31,0,0,0,5.34,7.17s5.14,2.6,8.82,1.51a13.73,13.73,0,0,0,8.3-7.5A19.76,19.76,0,0,0,38.17,458,12.3,12.3,0,0,0,35.25,451.22Z"/><path class="cls-1" d="M34.64,451.39c1.6,9.59-10.6,21.49-19.93,16.15a.63.63,0,0,0-.85.85c3.53,7.22,11.2,12.52,18.84,7,7.34-5.32,8.58-17.66,3-24.59-.51-.63-1.39.26-.89.88,5.41,6.7,3.63,19-3.93,23.42-6.95,4-13-1.37-15.93-7.32l-.86.86c10.41,5.95,23.54-6.94,21.77-17.57C35.72,450.26,34.51,450.6,34.64,451.39Z"/><path class="cls-5" d="M509.89,672.33c-4.33,12.38-16.72,20.16-29,18.24a3.28,3.28,0,0,0,1.94,3.22s5.44,9.55,10.12,10.3a18.3,18.3,0,0,0,12.69-3,20.34,20.34,0,0,0,9.15-12.87C515.9,682.66,514.17,676,509.89,672.33Z"/><path class="cls-1" d="M509.28,672.17c-4.45,11.76-15.75,19.39-28.42,17.77-.45-.06-.65.44-.6.79.29,2.07,1.26,2.71,2.48,4.17,1.57,1.89,2.7,4.1,4.39,5.93,4.35,4.74,9.85,5,15.71,2.44,12.09-5.26,17.7-21.5,7.49-31.38-.58-.56-1.47.33-.89.89,9.13,8.82,4.69,23-5.58,28.62-5.52,3-11.48,3.24-15.85-1.45a35.53,35.53,0,0,1-4.64-6.43c-.63-1.08-1.48-1.62-.46-2.11s3.81,0,4.91-.14a26.62,26.62,0,0,0,9.69-3.23,29.34,29.34,0,0,0,13-15.54C510.77,671.75,509.57,671.42,509.28,672.17Z"/></g></g></svg>