<svg xmlns="http://www.w3.org/2000/svg" viewBox="0 0 45.77 46.18"><defs><style>.cls-1{fill:#979b3d;}.cls-2{fill:#38301f;}.cls-3{fill:#a5c08a;}.cls-4{fill:#eae3ca;}</style></defs><title>m1</title><g id="Layer_2" data-name="Layer 2"><g id="Layer_4" data-name="Layer 4"><path class="cls-1" d="M3.43,9.33A15.79,15.79,0,0,1,12.8,2.18c6.86-2,12.69,1.38,14.74,2.55,2.66,1.52,4.71,3.8,8.8,8.35,3.68,4.1,5.52,6.15,6.53,8.82a18.67,18.67,0,0,1,.24,12.27,14.86,14.86,0,0,1-4.92,7.46c-4.55,3.51-10,2.83-12.38,2.54C19.57,43.4,15.48,40,13,38A28.78,28.78,0,0,1,3.46,24.56C2.25,20.83.33,14.92,3.43,9.33Z"/><path class="cls-2" d="M5,10.21c5.67-9,17.58-8.24,24.81-1.57s15,14.54,11.66,25.07C34,57.11-4.59,30.36,5,10.21c1-2-2.07-3.82-3-1.77C-6.41,26,14.1,48.86,32.33,45.92c10.35-1.66,15.18-12.85,12.88-22.38-1-3.91-3.34-6.86-6-9.83C36,10,32.73,5.8,28.43,3.21,19.33-2.27,7.76-.86,1.91,8.44.7,10.36,3.74,12.13,5,10.21Z"/><path class="cls-2" d="M14.19,30.87A11.92,11.92,0,0,0,13.84,24l-1.61.68c.74,1.48,1.09,2.05,2.67,1.47.51-.19.45-.42.83,0a6,6,0,0,1,.36,1.66c.22,1.11.37,2.23.52,3.35s1.68.71,1.73-.23l.14-2.81a6.24,6.24,0,0,1,.08-1.56c.16-.49,0-.7.37-.17A7.12,7.12,0,0,1,19.59,29a16.47,16.47,0,0,1,.17,3.29c0,1.13,1.72,1.13,1.76,0a18.07,18.07,0,0,0-.62-5.48c-.28-1-.65-2.47-1.85-2.74-3.05-.68-2.4,5.42-2.47,6.9l1.73-.24c-.24-1.74-.21-4.68-1.4-6.09A1.6,1.6,0,0,0,15.5,24a2.51,2.51,0,0,0-.93.32l-.74.42a.62.62,0,0,0-.08-.95.88.88,0,0,0-1.61.68,10.34,10.34,0,0,1,.36,5.93c-.26,1.1,1.44,1.57,1.69.47Z"/><path class="cls-3" d="M34.76,23.18a9.42,9.42,0,0,0-4.27-2.59,4.77,4.77,0,0,0-4.64,1.24c-1.56,1.77-1.13,4.53-.13,6.66s2.48,4.09,2.85,6.41c-7.37,0-14.42-3.2-20.63-7.2A36.9,36.9,0,0,0,20.21,38.4a19.33,19.33,0,0,0,9.23,2.66,10,10,0,0,0,8.3-4.21,9.28,9.28,0,0,0,.95-7.31A14,14,0,0,0,34.76,23.18Z"/><path class="cls-2" d="M35.07,22.87c-3.24-2.89-9.9-4.71-10.67,1.45a8.94,8.94,0,0,0,.92,4.34c.74,1.8,3.38,4.34,1.56,5.73-1.34,1-8.19-1.72-9.74-2.34a55.76,55.76,0,0,1-9-4.73c-.35-.22-.87.25-.6.61,5.27,6.88,15.23,15.72,24.75,13.18,9.23-2.47,8.18-12.52,2.76-18.24-.39-.42-1,.21-.62.62,2.2,2.32,4.52,5.66,4.14,9.07-.65,5.71-5.46,8.35-10.69,7.9-5.72-.49-11.26-4.29-15.32-8.14-.8-.75-1.55-1.55-2.27-2.37-1.22-1.36-1.19-.86.33-.09s3.08,1.67,4.69,2.38a35.91,35.91,0,0,0,13.24,3.1.45.45,0,0,0,.43-.56,21.55,21.55,0,0,0-1.92-4.63c-1.53-3.06-1.7-2.7.35-6.19C27.8,21,29,20.19,30.9,21.43a5.77,5.77,0,0,1,3.55,2.06C34.87,23.86,35.49,23.24,35.07,22.87Z"/><path class="cls-4" d="M18.93,6.86,17.38,6.8a6.64,6.64,0,0,0-2.74.29,2.3,2.3,0,0,0-1.55,2.09,2.87,2.87,0,0,0,1.57,2.05,9,9,0,0,0,7.06,1,1.79,1.79,0,0,0,.91-.48,1.47,1.47,0,0,0,.25-1.07C22.73,8.77,18.93,6.86,18.93,6.86Z"/><path class="cls-2" d="M18.93,6.64c-1.76-.07-6.29-.48-6,2.57.19,2.51,4.15,3.47,6.12,3.55,1.78.07,4.95-.28,3.9-2.8-.62-1.5-2.49-2.59-3.86-3.29-.25-.13-.47.25-.22.38,1.56.8,6.12,3.87,2.25,5.12a8.19,8.19,0,0,1-5.77-.82C13,10.14,12.9,7.48,16,7a16.16,16.16,0,0,1,2.95.06C19.21,7.09,19.21,6.65,18.93,6.64Z"/></g></g></svg>