<svg xmlns="http://www.w3.org/2000/svg" viewBox="0 0 39.07 39.53"><defs><style>.cls-1{fill:#979b3d;}.cls-2{fill:#38301f;}.cls-3{fill:#a5c08a;}.cls-4{fill:#eae3ca;}</style></defs><title>m10</title><g id="Layer_2" data-name="Layer 2"><g id="Layer_5" data-name="Layer 5"><path class="cls-1" d="M9.86,2.75a14.34,14.34,0,0,1,9.47-.58c4.21.94,6.89,3.19,9.44,5.33a23.54,23.54,0,0,1,6,6.82,18.67,18.67,0,0,1,2.61,8.77,14.45,14.45,0,0,1-2.08,8.77,13.24,13.24,0,0,1-6.88,5.36c-4,1.27-7.4.05-10.81-1.23-4-1.49-10.55-3.94-13.93-10.85C2.76,23.26.28,17.38,2.71,11,3.21,9.68,5,5,9.86,2.75Z"/><path class="cls-2" d="M10.33,4.45c8.85-3.3,18.53,3.09,22.91,10.75C37.49,22.66,36,35.74,25.13,36c-7.24.17-16.83-5.3-19.94-11.75-3.44-7.13-1.67-16.13,5.56-20,2-1.06.22-4.1-1.78-3C.06,6-2.21,17.31,2.15,26c4.12,8.22,17.53,15.73,26.73,12.89C39,35.8,41.22,23.73,37.14,15.08,32.5,5.28,20.27-3,9.39,1.06,7.29,1.84,8.2,5.25,10.33,4.45Z"/></g><g id="Layer_6" data-name="Layer 6"><path class="cls-3" d="M30.78,15.22c-1.07-1-2.6-2-3.87-1.26v-.07a3.82,3.82,0,0,0-2.07,2.39,21.9,21.9,0,0,0-1.7,9.62,9.31,9.31,0,0,0,1.24,4.64,4.35,4.35,0,0,0,4.1,2.09,4.23,4.23,0,0,0,1.9-.84,8.17,8.17,0,0,0,2.91-5.07,24.32,24.32,0,0,0,.16-6A8.85,8.85,0,0,0,33,18.08,8.14,8.14,0,0,0,30.78,15.22Z"/><path class="cls-2" d="M31.09,14.91c-.44-.36-3.57-2.86-3.73-1a.44.44,0,0,0-.66-.38c-4.82,2.88-6.82,18.67.78,19.56,3.27.39,5.45-3,6.13-5.75,1.08-4.35.76-9.22-2.52-12.41-.41-.4-1,.22-.62.62,2.24,2.18,2.7,5.25,2.65,8.22a13.78,13.78,0,0,1-.48,3.83l-.71,1.74c-.66,1.73-1.94,2.26-3.86,1.59-1.94.89-3.09.45-3.47-1.32a4,4,0,0,1-.86-2.54,14.55,14.55,0,0,1-.14-3.61,22.12,22.12,0,0,1,.53-3.53c.39-1.68,2.24-4.83,2.34-5.95a.45.45,0,0,0,.56.42l3.44,1.15C30.9,15.88,31.53,15.26,31.09,14.91Z"/></g><g id="Layer_4" data-name="Layer 4"><path class="cls-4" d="M15.12,8a3.29,3.29,0,0,0-.85.25,5.33,5.33,0,0,0-1.69,4.06,1.09,1.09,0,0,0,.28.81,1,1,0,0,0,.54.2c1.61.17,3-1.28,3.57-2.78a2.76,2.76,0,0,0,.11-2.31C16.69,7.51,15.52,7.28,15.12,8Z"/><path class="cls-2" d="M15.06,7.76c-1.58.3-2.41,2-2.64,3.5-.09.59-.22,1.55.31,2a2.09,2.09,0,0,0,1.93.07A4.86,4.86,0,0,0,17.5,9C17.45,7.79,15.91,6.61,15,7.82c-.18.22.13.53.31.31a.91.91,0,0,1,1-.3,1.41,1.41,0,0,1,.79,1.34A3.83,3.83,0,0,1,16.52,11C16.07,11.79,15,13.11,14,13a1.42,1.42,0,0,1-1.16-.92,2.48,2.48,0,0,1,.06-.77,5.33,5.33,0,0,1,.52-1.61,2.58,2.58,0,0,1,1.8-1.56C15.46,8.13,15.34,7.71,15.06,7.76Z"/><path class="cls-2" d="M12.28,15.38a21.08,21.08,0,0,0,2.41-5.6L13,9.31c-.26,1-.49,2-.71,2.95-.14.6.41,1.33,1.08,1.08s2.37-1.94,2,.27c-.15.79-.91,1.55-1.13,2.39a.88.88,0,0,0,1.7.47,7.89,7.89,0,0,1,.84-2.21c.48-.75,2-2.27,1.92,0,0,1.14-1,2.31-1.26,3.46s1.47,1.57,1.7.46c.37-1.78,2.93-5.73-.13-6.79-2.64-.92-4.24,2.74-4.77,4.63l1.7.47c.42-1.67,2.27-3.29,1-5.08a2,2,0,0,0-1.61-.94c-1,0-1.54.87-2.42,1.2L14,12.73c.22-1,.45-2,.7-3A.88.88,0,0,0,13,9.31a19.4,19.4,0,0,1-2.24,5.18c-.63.95.9,1.83,1.52.89Z"/></g></g></svg>