<svg xmlns="http://www.w3.org/2000/svg" viewBox="0 0 37.47 39.36"><defs><style>.cls-1{fill:#979b3d;}.cls-2{fill:#38301f;}.cls-3{fill:#a5c08a;}.cls-4{fill:#eae3ca;}</style></defs><title>m12</title><g id="Layer_2" data-name="Layer 2"><g id="Layer_4" data-name="Layer 4"><path class="cls-1" d="M8.69,3.32a12.73,12.73,0,0,1,5.6-1.83c4.42-.32,7.68,2,10.22,3.77a26.63,26.63,0,0,1,9,11.4c1.4,3.34,2.8,6.68,1.83,10.87-.21.93-1.5,6-6.24,8.61-4.43,2.4-9,1-12.38,0a20.16,20.16,0,0,1-8.17-4.41c-5.47-5-6.16-11.59-6.46-14.53-.37-3.51-.82-7.86,2-11.08A9.81,9.81,0,0,1,8.69,3.32Z"/><path class="cls-2" d="M9.58,4.84C22.77-2.39,40.86,21.21,31.05,32.37,24.73,39.56,11.43,34,7,27.2,3.17,21.25.83,8,9.16,5c2.12-.76,1.21-4.16-.93-3.4C-2,5.26-1.2,18.12,2.63,26.45c4.29,9.32,19.18,17,28.61,10.46C48.74,24.7,25.63-8,7.81,1.8,5.82,2.89,7.59,5.93,9.58,4.84Z"/><path class="cls-2" d="M13.85,10.9a40.62,40.62,0,0,0,4.55-3L17.34,6.52a9,9,0,0,1-2,1.44l.89,1.52c.64-.43,2.92-1.37,2.39.46-.3,1-2,1.87-2.81,2.4l.89,1.52c.39-.3.76-.6,1.13-.91a9.46,9.46,0,0,1,1.27-1c.83-.55,1.16-.32,1,.7.16,1.19-.13,1.27-1,2A21.33,21.33,0,0,1,17,16.1c-1,.6-.07,2.13.89,1.52C19.74,16.43,24,13.75,22.18,11s-4.82.15-6.4,1.33c-.89.66-.09,2.15.89,1.52,1.62-1.06,4.74-3.07,3.82-5.47-.77-2-3.82-1.34-5.18-.43a.88.88,0,0,0,.89,1.52,10.1,10.1,0,0,0,2.38-1.72c.65-.69-.24-2-1.07-1.38a41.43,41.43,0,0,1-4.54,3,.88.88,0,0,0,.88,1.52Z"/><path class="cls-3" d="M26,31.9a.57.57,0,0,0-.31-.07,18,18,0,0,1-11-5.2A26.25,26.25,0,0,1,8.38,16.09a10.71,10.71,0,0,0-.56,4.31,7.67,7.67,0,0,0,.29,2.25,12.77,12.77,0,0,0,1.64,3,18.12,18.12,0,0,0,3.69,4.47,16.21,16.21,0,0,0,1.76,1.16c2.4,1.44,5,2.82,7.83,2.58a4.73,4.73,0,0,0,2.84-1.13C26.12,32.54,26.32,32.09,26,31.9Z"/><path class="cls-2" d="M26.15,31.48c-4.1-1-7.45-1.8-10.7-4.78A25.9,25.9,0,0,1,8.81,16,.45.45,0,0,0,8,16C6.2,22,9.29,28.09,14.53,31.42,17,33,20.09,34.67,23.15,34.33c1.26-.15,3.8-.83,3.31-2.55a.44.44,0,0,0-.85.24c.39,1.38-4.38,1.36-4.81,1.3A12.52,12.52,0,0,1,17,31.84a16.64,16.64,0,0,1-4.9-3.62c-3.1-3.48-4.62-7.44-3.29-12H8a26.89,26.89,0,0,0,6.87,11.11c3.35,3.08,6.83,4,11.09,5A.44.44,0,0,0,26.15,31.48Z"/><path class="cls-4" d="M25.7,12.9c-.64-.36-2.14.78-2.91,2A4.8,4.8,0,0,0,22.25,19c.87,2.19,3.83,3.72,5.71,2.59a3.73,3.73,0,0,0,1.29-4.52c-.73-1.28-2.51-1.17-3.12-2.8C25.85,13.56,26,13.09,25.7,12.9Z"/><path class="cls-2" d="M25.76,12.69c-1.93-.52-3.64,2.54-3.91,4.08a4.81,4.81,0,0,0,4.07,5.4,3.48,3.48,0,0,0,3.86-3.73,2.7,2.7,0,0,0-1.21-2.33c-.69-.49-1.58-.74-2.06-1.52s-.18-1.31-.66-1.85c-.19-.21-.5.1-.31.31.33.38.32,1.3.59,1.76a3.07,3.07,0,0,0,.91.92c.67.47,1.57.72,2,1.48a3.42,3.42,0,0,1-.91,4c-2,1.56-5-.21-5.69-2.31a4.35,4.35,0,0,1,.39-3.57c.46-.81,1.68-2.48,2.79-2.18C25.91,13.18,26,12.76,25.76,12.69Z"/></g></g></svg>