<svg xmlns="http://www.w3.org/2000/svg" viewBox="0 0 38.98 39.96"><defs><style>.cls-1{fill:#a34928;}.cls-2{fill:#38301f;}.cls-3{fill:#f26633;}.cls-4{fill:#eae3ca;}</style></defs><title>m12_1</title><g id="Layer_2" data-name="Layer 2"><g id="Layer_5" data-name="Layer 5"><path class="cls-1" d="M22.41,1.82a17.6,17.6,0,0,1,9.15,4.52C33.47,8,36,10.09,36.94,13.65c1.08,4-.28,7.7-1.72,11.63a36.45,36.45,0,0,1-1.94,4.3A27.11,27.11,0,0,1,30.48,34c-3.44,4-9.59,4.17-10.87,4.2A17.76,17.76,0,0,1,7.45,33.78a18.22,18.22,0,0,1-5.7-13.67A18.31,18.31,0,0,1,6.59,8.81C7.54,7.71,13.87.68,22.41,1.82Z"/><path class="cls-2" d="M21.94,3.51a19.57,19.57,0,0,1,11,6.51c4.62,5.3,1.92,12.48-.83,18-2,4.08-4.69,7.18-9.37,8.07a17.13,17.13,0,0,1-9.27-.77A15.63,15.63,0,0,1,5.3,13.71C8.57,7.49,15.3,3,22.41,3.58c2.26.18,2.25-3.34,0-3.52C13-.7,3.64,6.33.84,15.27a19.23,19.23,0,0,0,13.38,24A21,21,0,0,0,25.79,39C31.23,37.18,34,32.62,36.17,27.6c2.61-6,4.57-12.89.36-18.7A22.74,22.74,0,0,0,22.88.12C20.67-.31,19.72,3.08,21.94,3.51Z"/></g><g id="Layer_3" data-name="Layer 3"><path class="cls-2" d="M20.42,10a17.46,17.46,0,0,1,5.92-1.85c1.09-.14,1.17-1.77,0-1.76a9.25,9.25,0,0,0-3.65.53c-1.16.47-2.15,1.29-3.35,1.7l.85,1.47c1.47-1.16,4.36-1.54,5.66.13l-.23-.85c-.14.55-1.87,1-2.31,1.17-.73.27-1.5.46-2.25.66a.88.88,0,0,0,.23,1.73,9.16,9.16,0,0,0,2.82-.59c.4-.12,1.4-.54,1.8-.38.42,0,.45.09.11.38a2.56,2.56,0,0,1-.59.68c-1.49,1.38-3.67,1.25-5.2,2.55-.86.74.39,2,1.25,1.24,1.19-1,3.09-1,4.42-1.94.87-.59,2-1.64,2.14-2.78.34-3.47-5.38-.94-6.75-.92l.23,1.73c1.34-.36,7.68-1.89,5.27-4.27C24.69,6.53,21,7.17,19,8.81c-.69.55.06,1.75.86,1.47A17.05,17.05,0,0,0,22.42,9a7.34,7.34,0,0,1,3.92-.88V6.36a19.84,19.84,0,0,0-6.8,2.09c-1,.52-.12,2,.88,1.52Z"/></g><g id="Layer_6" data-name="Layer 6"><path class="cls-3" d="M23.12,27.27A30.1,30.1,0,0,1,8,20C7.43,19.54,6.17,18,6.17,18a6.78,6.78,0,0,0-1.24,4.91,11.31,11.31,0,0,0,1.85,4.81,17.33,17.33,0,0,0,12,7.69,6.65,6.65,0,0,0,2.18,0,6.58,6.58,0,0,0,1.94-.8,14.49,14.49,0,0,0,6.3-7.53A12.87,12.87,0,0,1,23.12,27.27Z"/><path class="cls-2" d="M23.24,26.84c-6.37-1.2-12.63-4-16.76-9.19a.44.44,0,0,0-.69.09C1.71,24.45,8.23,32,14.32,34.57c7.06,3,12.46-.64,15.3-7.4.14-.33-.25-.61-.54-.54a14.83,14.83,0,0,1-6,.2c-.56-.08-.55.8,0,.88,1.65.21,4.46-.58,4.58.91C28,31.55,22.1,34.9,19.87,35c-5.81.33-13-5.38-14.28-11-.13-.56-.49-5.18.48-5.5.1,0,.95,1.19,1.08,1.28,1.27.88,2.36,2.09,3.65,3A31.86,31.86,0,0,0,23,27.69C23.56,27.8,23.8,27,23.24,26.84Z"/></g><g id="Layer_4" data-name="Layer 4"><path class="cls-4" d="M29.51,13.12c-1.86.35-1.65,3-4.73,6.34-2.22,2.44-3.8,2.71-3.66,3.66.24,1.58,4.95,3.2,8.5,1.51,3.12-1.49,5.43-5.57,4.09-8.61C33,14.4,31.12,12.81,29.51,13.12Z"/><path class="cls-2" d="M29.46,12.9c-1.29.39-1.72,1.53-2.3,2.65-1.44,2.74-3.45,4.32-5.59,6.4s2,3.36,3.54,3.55a8.2,8.2,0,0,0,8.71-5.14c1.25-3.12-.43-7.66-4.31-7.46-.28,0-.28.45,0,.44,5.14-.26,4.91,6.31,2.56,9.09-2,2.37-6.47,3.87-9.31,1.95a1,1,0,0,1-.83-1c-.56-.59-.47-1,.24-1.3a4.83,4.83,0,0,1,.72-.54,17.82,17.82,0,0,0,2.67-2.61c1.13-1.4,2.18-5,4-5.56C29.84,13.25,29.73,12.82,29.46,12.9Z"/></g></g></svg>