<svg xmlns="http://www.w3.org/2000/svg" viewBox="0 0 44.36 42.28"><defs><style>.cls-1{fill:#81c6d8;}.cls-2{fill:#38301f;}.cls-3{fill:#bfcbc8;}.cls-4{fill:#eae3ca;}</style></defs><title>m2</title><g id="Layer_2" data-name="Layer 2"><g id="Layer_4" data-name="Layer 4"><path class="cls-1" d="M15.26,2.6A19.68,19.68,0,0,1,24.52,2c8.42,1.45,13,8,13.88,9.37a24,24,0,0,1,4.09,13.13c.12,2.87.25,5.84-1.51,8.93a14.39,14.39,0,0,1-7.75,6.13c-6.63,2.48-12.91-.06-17-1.72-5.19-2.1-10-4-12.7-9.25C-.8,20.21,4.27,11.38,4.5,11A19.55,19.55,0,0,1,15.26,2.6Z"/><path class="cls-2" d="M15.73,4.3c8.18-2.43,16.4,1,21.15,7.9C42.75,20.72,43,35.56,31,38.37c-5.4,1.27-10.65-.75-15.56-2.8C9.74,33.2,5,30.13,3.8,23.64,2.25,15.12,7.74,7,15.73,4.3,17.87,3.58,17,.18,14.8.9,5.06,4.17-1.5,14,.3,24.32c1.22,7.05,6.26,11.22,12.49,13.94,6,2.62,12.48,5.14,19.11,3.5,12.94-3.19,15-17.39,9.85-28.15C36.93,3.53,25.77-2.36,14.8.9,12.63,1.55,13.55,4.94,15.73,4.3Z"/><path class="cls-2" d="M18.35,25.37c-.87-1.92-2.05-3.9-2.08-6.06l-1.73.24c.39,1.2.45,2.46.86,3.66s.83,2.24,1.24,3.36,2.09.6,1.7-.47c-.18-.5-1.69-4.63-1.22-4.9,1-.59,2.5,3.24,2.77,3.86.41.93,1.87.26,1.61-.67L20.86,22l-.32-1.17c-.18-.74-.21-.79-.08-.14a14.77,14.77,0,0,1,2.8,4.37c.48,1,2,.13,1.52-.89-.71-1.55-2.71-6-5-5.56a1.49,1.49,0,0,0-1.21,1.51c0,1.44.84,3.3,1.22,4.7l1.61-.67c-.66-1.5-2.57-6.21-5-5s-.37,5.68.23,7.35l1.7-.47c-.41-1.12-.85-2.23-1.24-3.36s-.48-2.46-.86-3.66a.89.89,0,0,0-1.73.23c0,2.5,1.31,4.72,2.32,7,.47,1,2,.13,1.52-.89Z"/><path class="cls-3" d="M36.45,19a2.88,2.88,0,0,0-2.24-.35,2.52,2.52,0,0,0-1.44,1.58,7.55,7.55,0,0,0-.32,2.17s-2,4-4,5.52a11.37,11.37,0,0,1-3.2,1.76,15.25,15.25,0,0,1-3.22.53l-6.45.61a1.29,1.29,0,0,0-.95.37.88.88,0,0,0,0,1,2.47,2.47,0,0,0,.8.67l3.24,2.06A13.68,13.68,0,0,0,22,36.65a13,13,0,0,0,2.92.42,27.23,27.23,0,0,0,6.93-.16,10.17,10.17,0,0,0,6-3.23,9.93,9.93,0,0,0,1.88-3.91,13,13,0,0,0,.38-3.68C40.05,23.31,38.89,20.36,36.45,19Z"/><path class="cls-2" d="M36.56,18.61c-3.68-1.36-3.67,1.21-4.61,3.84a11.79,11.79,0,0,1-6.8,6.84c-3.4,1.16-7.28.23-10.61,1.51a.47.47,0,0,0-.33.43c.11,2.7,4.35,4.45,6.56,5.39a19.35,19.35,0,0,0,14-.12c6.77-3.07,8.09-13.5,2-17.84-.47-.33-.91.43-.45.76,4.71,3.32,4.3,10.48.72,14.25-2.71,2.86-6.49,3.23-10.24,3.06-2.35-.1-7.93-.67-9.37-3.2-1.89-3.33,3.77-2.68,5.53-2.93A11.1,11.1,0,0,0,30,27c.9-1,4.5-8.22,6.3-7.55C36.86,19.66,37.09,18.81,36.56,18.61Z"/><path class="cls-4" d="M22.37,7.23a3.18,3.18,0,0,0-2.16,2.15,3,3,0,0,0,1.73,3.23,3.2,3.2,0,0,0,4.19-1.94,3,3,0,0,0-1.07-3.23A3.07,3.07,0,0,0,22.37,7.23Z"/><path class="cls-2" d="M22.31,7A3.11,3.11,0,0,0,20,10.43a3.21,3.21,0,0,0,4.1,2.48c4-1.26,2.36-7.26-1.78-5.89-.27.08-.16.51.11.42A2.58,2.58,0,0,1,25.9,9,2.82,2.82,0,0,1,24,12.48a2.75,2.75,0,0,1-3.54-2.14,2.66,2.66,0,0,1,2-2.9C22.69,7.34,22.57,6.92,22.31,7Z"/><path class="cls-4" d="M28.39,12a2.37,2.37,0,0,0-2.58,2,2.32,2.32,0,0,0,1.51,2.58c1.23.27,2.63-1.17,2.58-2.58A2.2,2.2,0,0,0,28.39,12Z"/><path class="cls-2" d="M28.45,11.75c-2.89-.46-4.11,4.39-1.19,5.05,1.21.28,2.35-.82,2.71-1.88a2.48,2.48,0,0,0-1.52-3.17c-.27-.09-.39.34-.12.42,2.25.73,1.3,4.67-1,4.21s-1.38-4.58,1-4.21C28.61,12.22,28.73,11.79,28.45,11.75Z"/></g></g></svg>