<svg xmlns="http://www.w3.org/2000/svg" viewBox="0 0 37.81 34.16"><defs><style>.cls-1{fill:#a34928;}.cls-2{fill:#38301f;}.cls-3{fill:#f26633;}.cls-4{fill:#eae3ca;}</style></defs><title>m4</title><g id="Layer_2" data-name="Layer 2"><g id="Layer_4" data-name="Layer 4"><path class="cls-1" d="M13.51,2A18.92,18.92,0,0,1,24.38,3.18c3.24,1.15,7.29,2.59,9.79,6.78a14.88,14.88,0,0,1,1.29,11.4c-2.3,7.81-10.22,10.25-10.87,10.44-9.42,2.74-16.9-4.73-17.43-5.27-.84-.87-7.8-8.27-4.84-16C4.69,4.25,11.7,2.39,13.51,2Z"/><path class="cls-2" d="M14,3.69c9.69-1.58,22.65,5.17,20,16.5-1.62,6.82-9,11.39-15.84,10.27A18.41,18.41,0,0,1,6,22.23C.67,14,4.94,5.79,14,3.69c2.2-.51,1.27-3.91-.94-3.4C2.82,2.67-3.22,12.05,1.79,22c3.66,7.24,11.58,12.76,19.9,12.12S37.11,26.7,37.75,18.45C38.78,5.36,24.39-1.55,13,.29,10.81.66,11.76,4.05,14,3.69Z"/><path class="cls-2" d="M20.78,12A2.35,2.35,0,0,0,23,13a42.33,42.33,0,0,0,5.16-.22L27.88,11a5.43,5.43,0,0,1-1.55.39.89.89,0,0,0-.62,1.5c.07.1,1.1,1.38,1,1.66s-1.2.36-1.37.4a5.9,5.9,0,0,1-3.67,0c-1-.36-1.4,1.06-.68,1.61a3.68,3.68,0,0,0,2.06.75,7.79,7.79,0,0,0,1.28-.05c.85-.08,1.2-.35,1.66.42,1.46,2.42-4.8,1.51-5.82,1.66s-.65,1.86.46,1.7c1.8-.27,3.59.58,5.35-.11A3.29,3.29,0,0,0,28,18.25a2.47,2.47,0,0,0-1.11-2.56c-1.61-.86-3.51.54-5-.64l-.68,1.61a8.36,8.36,0,0,0,6.48-.59c1.69-1.1.14-3.3-.72-4.39l-.62,1.5a9.38,9.38,0,0,0,2-.46c.87-.31.82-1.82-.23-1.73s-2.06.16-3.09.2c-.43,0-2.46.3-2.73-.06-.66-.9-2.19,0-1.52.89Z"/><path class="cls-3" d="M30,21.06c-.55-1.31-2.19-1.73-3.61-1.87A27.13,27.13,0,0,0,12.61,21.5S11,22.88,11,23.7a2.7,2.7,0,0,0,1,2.16,7.78,7.78,0,0,0,2.15,1.19l2.52,1.08a11,11,0,0,0,3.4,1,7.93,7.93,0,0,0,2.86-.4,12.26,12.26,0,0,0,6.22-4.24A3.64,3.64,0,0,0,30,21.06Z"/><path class="cls-2" d="M30.39,20.84c-2.34-3.55-8.94-2.32-12.42-1.57-2.26.49-8.29,1.73-7.3,5.4.56,2.1,3.44,2.86,5.14,3.57,2.44,1,4.6,1.74,7.23,1,3.41-1,8.2-4.16,7.39-8.25-.11-.55-.95-.32-.84.24.68,3.48-4,6.4-6.78,7.16-2.23.6-13.3-1-10.45-6,1-1.79,7.07-2.54,8.9-2.72,2.54-.24,6.8-.73,8.37,1.65C29.94,21.75,30.7,21.31,30.39,20.84Z"/><path class="cls-4" d="M22.75,6.4c-1.89-2.31-5.35-2.9-8.19-2a15,15,0,0,0-7,5.41,5.15,5.15,0,0,0-1.33,3c0,1.12,1.94,2.06,1.94,2.06A12.09,12.09,0,0,1,22.43,7.39a.73.73,0,0,0,.33,0C23.15,7.31,23,6.71,22.75,6.4Z"/><path class="cls-2" d="M22.9,6.25c-3.47-3.66-8.72-2.8-12.35.16C8,8.47,3.73,12.8,8.1,15.09A.23.23,0,0,0,8.4,15,12.4,12.4,0,0,1,14,8.63c2.92-1.54,5.59-1.24,8.76-1A.25.25,0,0,0,23,7.53c.34-.62.31-.47,0-1.19-.11-.25-.54-.14-.43.12.22.51-3.74.4-3.92.42a12.68,12.68,0,0,0-3.79.88,12.42,12.42,0,0,0-5.16,4.05c-.48.65-1.37,2.86-1.84,2.61l-.68-3.57L8.38,9.19A16.36,16.36,0,0,1,10.1,7.38c3.51-3.15,8.83-4.68,12.49-.82A.22.22,0,0,0,22.9,6.25Z"/></g></g></svg>