<svg xmlns="http://www.w3.org/2000/svg" viewBox="0 0 46.46 38.28"><defs><style>.cls-1{fill:#da9b38;}.cls-2{fill:#38301f;}.cls-3{fill:#f6bc3c;}.cls-4{fill:#eae3ca;}</style></defs><title>m5</title><g id="Layer_2" data-name="Layer 2"><g id="Layer_4" data-name="Layer 4"><path class="cls-1" d="M13.93,3.29a25.66,25.66,0,0,1,7.75-1.62c2.26-.09,10.59-.09,17.11,6.14,2,1.9,6.39,6.09,6.14,12.05-.22,5.18-3.81,8.62-5.81,10.55a23.1,23.1,0,0,1-15.93,6.13A20.13,20.13,0,0,1,12,33.31c-3-2-4.56-4.37-6.46-7.21-2.45-3.65-3.74-5.59-3.87-8.5-.21-4.7,2.79-8.15,3.65-9.15C7.94,5.45,11.05,4.33,13.93,3.29Z"/><path class="cls-2" d="M14.4,5c8.11-2.85,17-1.7,23.42,4.32,3.57,3.35,6.45,7.89,4.92,13C41.32,27,36.53,31,32.24,32.89,25,36.12,15.63,35.4,10.05,29.28,6.87,25.8,2.51,20.1,3.64,15.14,4.86,9.76,9.56,6.75,14.4,5c2.11-.77,1.2-4.18-.93-3.4C8.16,3.53,3.5,6.37,1.12,11.71-1.67,18,1.19,23,4.82,28.18c6.47,9.25,17.42,12.48,27.94,8.31s18.3-16.08,10.51-26.4c-7-9.27-19-12.28-29.8-8.5C11.34,2.34,12.26,5.74,14.4,5Z"/><path class="cls-2" d="M21.78,4.36A13.7,13.7,0,0,1,19.15,7,.88.88,0,0,0,20,8.51c.49-.21,2.42-1.39,2.9-1.16.26-.08.28,0,.07.18l-.4.6L21.8,9.35c-.54.82.76,1.86,1.38,1.07.19-.24,2.47-3.21,3-2.11.21.47-1.55,2.37-1.79,2.7-.67.92.85,1.8,1.52.89,1-1.42,3.17-3.76,1.36-5.46S23,7.86,21.94,9.17l1.38,1.07c.73-1.11,2.63-3,1.14-4.27s-3.95.43-5.31,1L20,8.51a16,16,0,0,0,3-2.9c.69-.89-.55-2.14-1.24-1.25Z"/><path class="cls-3" d="M25.64,31a.43.43,0,0,0-.21-.14c-1.07-.48-2.17-.89-3.21-1.43a16.28,16.28,0,0,1-7.34-7.81,8.45,8.45,0,0,1-.82-3.14,17.39,17.39,0,0,1,1-5A12,12,0,0,0,15,9.83a2,2,0,0,0-.25-.7c-.4-.61-1.3-.6-2-.46a10,10,0,0,0-7,4.6c-1.66,3-1.06,6.9.72,9.86s4.54,5.17,7.33,7.2a15.82,15.82,0,0,0,5.78,3,5.88,5.88,0,0,0,5.94-1.83C25.65,31.37,25.75,31.16,25.64,31Z"/><path class="cls-2" d="M25.86,30.62c-4.43-3-9.78-4.47-11.12-10.65-.52-2.44,2.4-8.68.45-11-3-3.45-9.39,2.49-10.38,5.38-2.17,6.33,3,11.9,7.54,15.41,2.65,2,5.7,4.35,9.22,4.11,1.69-.12,4.11-.9,4.5-2.79.11-.56-.74-.79-.85-.24l-4.31,2.19a10.3,10.3,0,0,1-4.83-1.73,32.09,32.09,0,0,1-4.32-3.12A17.6,17.6,0,0,1,6.27,21.6c-1-2.43-1.77-5.67-.13-8.11.77-1.14,3.61-4.29,5.32-4.05,2.71.39,3.36,2.58,3,4.72-.18,1-.61,1.91-.71,2.95a11.74,11.74,0,0,0,2.91,8.23c2.51,3.2,5.58,3.86,8.8,6C25.89,31.7,26.33,30.94,25.86,30.62Z"/><path class="cls-4" d="M29.11,10.82A3.16,3.16,0,0,0,27,13.51c-.4,2.85,3.44,4.93,3.87,5.17,1,.51,3.52,1.91,5.38.64a3.23,3.23,0,0,0,1.4-3.44c-.43-1.1-1.65-.84-4-2.15C30.87,12.17,30.43,10.6,29.11,10.82Z"/><path class="cls-2" d="M29.05,10.61c-2.77.88-2.79,4.2-1.12,6.11s4.53,3.59,6.93,3.3c2-.23,4.32-3.11,2.5-4.85A3.92,3.92,0,0,0,36,14.53a14.4,14.4,0,0,1-4.29-2.45c-.79-.68-1.45-1.55-2.57-1.48-.28,0-.29.46,0,.44,1.41-.08,3.19,2.19,4.41,2.88a19.39,19.39,0,0,0,2.33,1c3,1.17.95,4.76-1.81,4.62a8.4,8.4,0,0,1-4-1.64c-2.05-1.38-4.94-5.6-.85-6.9C29.43,11,29.32,10.52,29.05,10.61Z"/></g></g></svg>