<svg xmlns="http://www.w3.org/2000/svg" viewBox="0 0 46.45 41.51"><defs><style>.cls-1{fill:#979b3d;}.cls-2{fill:#38301f;}.cls-3{fill:#a5c08a;}.cls-4{fill:#eae3ca;}</style></defs><title>m6</title><g id="Layer_2" data-name="Layer 2"><g id="Layer_4" data-name="Layer 4"><path class="cls-1" d="M17.79,5.58c3-1.68,5.56-3.14,9.36-3.66,2.14-.3,9.28-1.28,13.78,3.33,2.75,2.83,3.22,6.42,3.55,8.93a20.44,20.44,0,0,1-1.4,10.55c-3.06,7.14-9.65,10.12-13.67,12-4.18,1.89-11.9,5.39-19.26,2a14,14,0,0,1-7.43-7.21,14.31,14.31,0,0,1,.11-10.12c.9-2.64,2.2-4.23,4.2-6.67A38.75,38.75,0,0,1,17.79,5.58Z"/><path class="cls-2" d="M18.68,7.09c8-4.46,21.07-6.76,23.74,5.18,2.29,10.29-3.73,18.08-12.61,22.3-7.92,3.75-21.38,6.87-25.43-3.9-3.66-9.75,6.69-19.2,14.3-23.58,2-1.12.19-4.17-1.78-3C7.83,9.27-3.8,20.85,1.2,32.4,6.64,45,21.71,42.29,31.58,37.61c11-5.24,17.7-15.94,13.71-28.25C41.18-3.33,26-1,16.9,4.06,14.92,5.16,16.7,8.2,18.68,7.09Z"/><path class="cls-2" d="M17.11,13.9c-.74-.85-.32-2.6-.52-3.67s-1.85-.62-1.7.47l.55,4c.13,1,1.84.75,1.73-.24-.07-.54-.4-3,.13-3.32.37-.2,1.42,2.76,1.56,3.11.35.84,1.78.85,1.73-.23,0-.57-.28-3.64.38-3.3.29.15.57,1,.73,1.34l.88,1.66c.53,1,2.05.11,1.52-.89-.71-1.32-1.7-4.59-3.7-4.32-2.33.32-1.64,4-1.57,5.51l1.73-.24c-.58-1.4-1.33-5-3.53-4.65S15.24,13,15.41,14.48l1.73-.23-.55-4-1.7.47c.31,1.65-.23,3.07,1,4.44.75.85,2-.4,1.24-1.24Z"/><path class="cls-3" d="M38.6,19.91a3.87,3.87,0,0,0-2.28-.58,21.86,21.86,0,0,0-4.27.36s-10.43,3.43-15,6.56c-2.49,1.7-5,3.85-5.64,6.79a1.23,1.23,0,0,0,0,.63,1,1,0,0,0,.23.36c1.56,1.81,4.25,2,6.65,2l2.87.06a7.07,7.07,0,0,0,1.72-.09,7.53,7.53,0,0,0,2-.82l7-3.7a21.71,21.71,0,0,0,3-1.79,14.14,14.14,0,0,0,1.79-1.59c1.53-1.56,2.89-3.51,2.93-5.71A3,3,0,0,0,38.6,19.91Z"/><path class="cls-2" d="M38.83,19.53c-4.92-2.11-11.12,1.1-15.59,3-3.15,1.36-14,6.2-12.27,11.28.71,2,4.07,2.46,5.83,2.62a16.58,16.58,0,0,0,10.92-2.24C32,32,43.77,26.45,39,19.69c-.32-.46-1.08,0-.76.44,4.44,6.27-7.74,12-11.82,13.79-2.51,1.14-6,2.58-8.87,1.69-1.46-.45-4-5.32-3.15-6.65.71-1.17,2.6-2.17,3.74-2.88,4.49-2.82,14.65-8.19,20.26-5.79C38.9,20.51,39.35,19.75,38.83,19.53Z"/><path class="cls-4" d="M28.87,10.74c.29-.58,1.37-2.81,3.34-2.9,1.71-.08,2.89,1.5,3.44,2.26a6.39,6.39,0,0,1,1.19,4.41c-.07.51-.23,1.9-.86,2-.81.19-1.15-1.91-3-2.8s-3.85.4-4.52-.53C28,12.57,28.52,11.46,28.87,10.74Z"/><path class="cls-2" d="M29.06,10.85c1.13-2.3,3.39-3.84,5.59-1.63a6.34,6.34,0,0,1,1.93,5.56c0,.22-.07.43-.12.64-.43.92-.81,1.06-1.13.42-.23-.15-.42-.62-.59-.84a4.72,4.72,0,0,0-1.46-1.32,4.3,4.3,0,0,0-2.39-.49,7.08,7.08,0,0,1-1.3.14c-1.45-.22-.95-1.59-.53-2.48.13-.25-.25-.48-.38-.22-.38.8-1.13,2.23-.18,2.94a1.65,1.65,0,0,0,1.09.2c1.29,0,2.46-.36,3.67.4.83.52,1.49,2.42,2.48,2.6S36.89,15.6,37,15a7,7,0,0,0-2.66-6.65c-2.36-1.76-4.56.07-5.65,2.28C28.56,10.88,28.94,11.11,29.06,10.85Z"/></g></g></svg>