<svg xmlns="http://www.w3.org/2000/svg" viewBox="0 0 40.73 41.25"><defs><style>.cls-1{fill:#ca7529;}.cls-2{fill:#38301f;}.cls-3{fill:#da9b38;}.cls-4{fill:#eae3ca;}</style></defs><title>m7</title><g id="Layer_2" data-name="Layer 2"><g id="Layer_4" data-name="Layer 4"><path class="cls-1" d="M16.9,1.77c3.63-.08,6.24,1.2,8.83,2.47A23.39,23.39,0,0,1,35.2,12.1a21.25,21.25,0,0,1,3.55,9.25c.27,2.34.74,6.35-1.62,9.26-.86,1.06-1.4,1.11-4.19,2.9-5,3.18-5.17,4.23-7.11,5.17-6.07,2.94-14.28-2.48-15.06-3A21.36,21.36,0,0,1,1.94,21.14C1.69,19,.85,12.06,5.82,6.72A16.38,16.38,0,0,1,16.9,1.77Z"/><path class="cls-2" d="M16.9,3.53c10.21.4,19.68,9.32,20.25,19.54.39,6.84-4.14,7.9-8.72,11.47-3.52,2.73-6.47,4-11.06,2.44A20,20,0,0,1,3.73,21.32C2.26,12.27,7.51,4.23,16.9,3.53c2.25-.17,2.26-3.69,0-3.52C5.53.86-1.33,10.22.22,21.39A23.41,23.41,0,0,0,18.93,41c6.05,1.1,8.87-1.84,13.41-5,5-3.52,8.59-5.3,8.38-12.32C40.35,11.21,29.34.5,16.9,0,14.64-.08,14.64,3.44,16.9,3.53Z"/><path class="cls-2" d="M20.08,18.53a66.15,66.15,0,0,1-5.49-4.37c-.7-.61-2,.23-1.39,1.07,1.56,2,3.54,3,5.46,4.64l1.06-1.38c-1-.45-3.1-1.5-3.3-2.69L17,14.6a3.18,3.18,0,0,1,2.32.28A6.27,6.27,0,0,1,21,16.3l1.24-1.24c-.69-.64-3.05-2.22-2.84-3.12.25-1.09,1.72-.57,2.35,0a11.48,11.48,0,0,1,1.75,1.87c.68.89,2.21,0,1.52-.89-1.65-2.14-3.93-4.67-6.66-2.76-3.06,2.14,1,4.65,2.64,6.18a.88.88,0,0,0,1.24-1.24c-1.7-1.81-5.49-3.7-7.46-1.09-1.79,2.38,2.23,5.22,4,6,.83.38,1.89-.69,1.06-1.38-1.74-1.48-3.76-2.44-5.18-4.29l-1.38,1.07a72.61,72.61,0,0,0,5.85,4.64c.93.66,1.81-.87.89-1.52Z"/><path class="cls-3" d="M28.91,29.6a2.6,2.6,0,0,0-1.66-1.29,7,7,0,0,0-3.24.48,10,10,0,0,1-8.41-1.71,26.76,26.76,0,0,1-2.52-2.36,16.13,16.13,0,0,0-4.63-3.46A2.21,2.21,0,0,0,7,21a1.6,1.6,0,0,0-1.09,1.16A2.87,2.87,0,0,0,6,23.46,19.46,19.46,0,0,0,17.65,35a11.54,11.54,0,0,0,4.15.75,6.42,6.42,0,0,0,3.91-1.4,9.87,9.87,0,0,0,1.52-1.76l1.61-2.16a.8.8,0,0,0,.17-.33A.73.73,0,0,0,28.91,29.6Z"/><path class="cls-2" d="M29.22,29.29c-2-2.35-4.06-.95-6.73-.79-6.19.38-8-4.35-12.54-6.93C6,19.32,4.68,22,6.4,25.47c2.55,5.16,8,10,13.93,10.59a7.36,7.36,0,0,0,6.5-2.28c1-1.05,2.85-2.79,2.5-4.3-.13-.55-1-.31-.85.24.58,2.46-5.74,5.46-6.68,5.54-2.52.2-5.36-1.1-7.44-2.36a19.14,19.14,0,0,1-4.81-4.16c-1.09-1.32-6.21-7.72,0-6.41,3,.63,5.28,5.36,8.46,6.54,2.33.87,9.36-.46,10.63,1C29,30.35,29.58,29.72,29.22,29.29Z"/><path class="cls-4" d="M27.56,11.67c-.68,1.16-.28,2.42.1,3.66.33,1,1,3.3,2.16,3.33s2.12-1.95,2.26-3.66c.16-2.09-1-4.64-2.48-4.73A2.51,2.51,0,0,0,27.56,11.67Z"/><path class="cls-2" d="M27.37,11.56c-.86,1.91,0,4.73,1.17,6.41,1,1.47,2.31.82,3.05-.57a6.06,6.06,0,0,0-.38-6.34c-1.22-1.58-2.85-1-3.84.5-.16.23.22.45.38.22,1.7-2.57,3.49-.49,4,1.44a5.48,5.48,0,0,1-.61,4.15c-1.31,2.06-2.4.22-2.91-1.15s-1.1-3-.44-4.44C27.86,11.52,27.48,11.3,27.37,11.56Z"/></g></g></svg>