<svg xmlns="http://www.w3.org/2000/svg" viewBox="0 0 38.72 51.22"><defs><style>.cls-1{fill:#723a29;}.cls-2{fill:#38301f;}.cls-3{fill:#a34928;}.cls-4{fill:#eae3ca;}</style></defs><title>m8</title><g id="Layer_2" data-name="Layer 2"><g id="Layer_4" data-name="Layer 4"><path class="cls-1" d="M12.31,2.9A15.82,15.82,0,0,1,24.1,2.74c6.68,2.49,9.38,8.65,10.33,10.81,1.23,2.81,1.52,5.86,2.1,12,.52,5.49.78,8.23,0,11a18.66,18.66,0,0,1-7.11,10A15,15,0,0,1,21,49.55c-5.74.11-9.73-3.68-11.46-5.32C5,39.9,3.73,34.75,3,31.63a28.74,28.74,0,0,1,.32-16.46C4.52,11.45,6.49,5.55,12.31,2.9Z"/><path class="cls-2" d="M12.78,4.6c10-3.77,19,3.31,21.06,13.09,2,9.38,3.47,20.89-5.3,27.28C8.29,59.71-6.7,14.83,13.2,4.42c2-1,.23-4.09-1.77-3C-5.86,10.42-2.35,41.5,14,49.65c9.25,4.61,19.65-1.56,23.39-10.46C39,35.54,38.85,31.9,38.52,28c-.42-4.93-.53-10.28-2.39-14.92C32.19,3.27,22.18-2.69,11.85,1.2,9.75,2,10.66,5.4,12.78,4.6Z"/><path class="cls-2" d="M8.23,26.55A12.07,12.07,0,0,0,12,20.8l-1.7-.46c-.24,1.36-.42,1.84.52,2.75.12.12.38,0,.49.12,1,.8.6,1,.37,1.74A17.75,17.75,0,0,1,10,28.18c-.45.83.73,1.87,1.39,1.06l1.66-2,1.11-1.36c.54-.36.68-.32.44.14.37,1-2.14,4.26-2.69,4.95-.7.88.54,2.13,1.24,1.25,1.24-1.57,4.43-5.71,3.16-7.88C14.5,21.26,11,26.93,10.11,28l1.38,1.07c.84-1.54,2.82-4.1,2.56-6a1.76,1.76,0,0,0-.64-1.16c-.68-.52-1.63,0-1.43-1.14a.88.88,0,0,0-1.7-.46A10.45,10.45,0,0,1,7,25.3c-.86.74.38,2,1.24,1.25Z"/><path class="cls-3" d="M29.25,32.67a9.33,9.33,0,0,0-1.89-4.61,4.77,4.77,0,0,0-4.47-1.77c-2.3.49-3.6,3-4.06,5.27s-.44,4.77-1.52,6.85C11.41,34,7.62,27.26,5,20.36a36.72,36.72,0,0,0,3.5,15.9,19.26,19.26,0,0,0,5.83,7.62,10,10,0,0,0,9.18,1.56,9.38,9.38,0,0,0,5.11-5.3A14,14,0,0,0,29.25,32.67Z"/><path class="cls-2" d="M29.68,32.56c-1.09-4.86-6.49-10.07-10.19-4a12,12,0,0,0-1.32,4.3c-.44,2.61-.05,5.19-3,3.23C10.49,32.88,7.41,25.3,5.43,20.24c-.17-.43-.87-.41-.86.12C4.73,29,7.47,42.05,16.66,45.64c8.85,3.46,14-5.17,13-13-.06-.55-1-.56-.88,0,.47,3.83,0,7.29-2.7,10.16-3.29,3.48-7.81,3.15-11.54.57C9.17,39.66,6.74,32,5.86,25.75,5.68,24.52,4.57,20,5.8,23.47a32.74,32.74,0,0,0,2.91,5.72A34.91,34.91,0,0,0,17,38.73a.45.45,0,0,0,.73-.2A25.58,25.58,0,0,0,19,33.08a14.05,14.05,0,0,1,.54-2.56q8.76-3.68,9.27,2.27C29,33.34,29.8,33.11,29.68,32.56Z"/><path class="cls-4" d="M26.24,10.14,25,9.17a6.77,6.77,0,0,0-2.38-1.4,2.28,2.28,0,0,0-2.48.77,2.83,2.83,0,0,0,0,2.58,9,9,0,0,0,5.08,5,1.77,1.77,0,0,0,1,.15,1.52,1.52,0,0,0,.84-.7C28.16,13.94,26.24,10.14,26.24,10.14Z"/><path class="cls-2" d="M26.4,10C25,8.83,21.71,5.87,20,8.38c-1.43,2.12,1.25,5.33,2.8,6.57,1.29,1,3.94,2.68,4.72.26.53-1.64-.38-3.73-1.1-5.18-.12-.25-.5,0-.38.22a13,13,0,0,1,.87,2.24,5.51,5.51,0,0,1,.27,2.13c-.21,1.61-2,1.32-3.11.68a8.89,8.89,0,0,1-3.38-3.63,6.22,6.22,0,0,1-.46-1.13L21.32,8c.54-.34,1.75.14,2.24.4a18.45,18.45,0,0,1,2.53,1.91C26.31,10.47,26.62,10.16,26.4,10Z"/></g></g></svg>