<svg xmlns="http://www.w3.org/2000/svg" viewBox="0 0 34.98 37.17"><defs><style>.cls-1{fill:#81c6d8;}.cls-2{fill:#38301f;}.cls-3{fill:#bfcbc8;}.cls-4{fill:#eae3ca;}</style></defs><title>m9</title><g id="Layer_2" data-name="Layer 2"><g id="Layer_4" data-name="Layer 4"><path class="cls-1" d="M1.76,21.07A19,19,0,0,1,5.11,10.66C6.9,7.72,9.12,4,13.73,2.44a14.83,14.83,0,0,1,11.43,1c7.18,3.82,8,12.08,8,12.75.79,9.78-8,15.6-8.68,16-1,.65-9.67,6-16.68,1.51C2.19,30.16,1.78,22.92,1.76,21.07Z"/><path class="cls-2" d="M3.52,21.07C3.93,11.34,12.83,0,23.43,4.6c6.1,2.66,9.33,10.22,7.53,16.54a17.89,17.89,0,0,1-9.39,10.71c-4.65,2.25-10.66,3-14.6-1.08-2.44-2.55-3.36-6.28-3.45-9.7-.06-2.26-3.58-2.27-3.52,0C.3,32.13,8.93,39.92,20,36.26c7.38-2.43,13.84-8.8,14.82-16.75,1-8.1-4.06-16.49-12-18.84C10.32-3.07.48,9.58,0,21.07-.09,23.33,3.43,23.33,3.52,21.07Z"/><path class="cls-2" d="M13.21,15.89c1-.46,1.14-1.47,1.34-2.48.31-1.54.54-3.1.72-4.66L13.54,9a5.37,5.37,0,0,1,0,1.6.89.89,0,0,0,1.32.76c.5-.25,1.42-.75,1.92-.15.19.23.07,1.15.08,1.43a5.64,5.64,0,0,1-.75,3c-.53.87.66,1.72,1.38,1.06A3.76,3.76,0,0,0,18.66,15c.18-.61.06-2.3.41-2.75l1.3-.31.76,1.49a4.61,4.61,0,0,1-.41,1.78A10.8,10.8,0,0,0,20.1,18c-.06,1.13,1.7,1.13,1.76,0,.14-2.62,2.6-6.47-1.17-7.84a2.58,2.58,0,0,0-2.69.4c-1.35,1.34-.27,3.59-1.73,4.92l1.39,1.06a8.47,8.47,0,0,0,.79-6.3c-.61-2.06-3.09-1.08-4.45-.41l1.33.76a9.55,9.55,0,0,0-.09-2.07c-.15-1.07-1.63-.66-1.73.23-.13,1.07-.27,2.12-.46,3.17-.1.54-.14,2.18-.73,2.45-1,.47-.13,2,.89,1.52Z"/><path class="cls-3" d="M23.77,8.75c-1.4.28-2.14,1.8-2.56,3.16a27.18,27.18,0,0,0-.52,14s1,1.81,1.82,2a2.7,2.7,0,0,0,2.32-.56,8.2,8.2,0,0,0,1.61-1.86L28,23.26a10.71,10.71,0,0,0,1.7-3.13,7.76,7.76,0,0,0,.19-2.88A12.42,12.42,0,0,0,27,10.3,3.67,3.67,0,0,0,23.77,8.75Z"/><path class="cls-2" d="M23.65,8.33c-5,2-6.61,21.24.07,20C25.57,28,26.64,26,27.6,24.6c1.66-2.36,3-4.35,2.73-7.35-.29-3.5-2.4-8.91-6.56-8.94a.44.44,0,0,0,0,.88c4.56,0,6.23,7.43,5.51,10.82-.39,1.83-5.48,9.61-8,6.08C19.19,23,19.84,10.79,23.88,9.18,24.4,9,24.18,8.12,23.65,8.33Z"/><path class="cls-4" d="M8,12.91C5.3,14.29,4,17.56,4.34,20.52a14.84,14.84,0,0,0,3.89,7.91,5.14,5.14,0,0,0,2.69,1.92c1.1.21,2.41-1.48,2.41-1.48A12.12,12.12,0,0,1,8.85,13.42a.59.59,0,0,0,.09-.31C8.91,12.7,8.3,12.72,8,12.91Z"/><path class="cls-2" d="M7.83,12.72c-4.07,2.53-4.52,7.54-2.59,11.63,1.39,2.94,5,8.61,8.25,4.67a.22.22,0,0,0,0-.34A12.28,12.28,0,0,1,8.24,21.4c-.74-3.09.08-5.35.91-8.24A.23.23,0,0,0,9.1,13c-.57-.49-.41-.41-1.21-.25-.28.05-.16.48.11.42,1.12-.22-.25,2.77-.36,3.41a13.11,13.11,0,0,0-.11,3.37,12.28,12.28,0,0,0,2.74,6.54c.63.77,1.55,1.31,2.15,2.06.9,1.14.19.78-1.9.29-2.26-.54-2.59-.9-3.8-2.71C4,22,3.35,16,8.06,13.1A.22.22,0,0,0,7.83,12.72Z"/></g></g></svg>