<svg xmlns="http://www.w3.org/2000/svg" viewBox="0 0 702.51 528.25"><defs><style>.cls-1{fill:#ad968a;}.cls-2{fill:#38301f;}.cls-3{fill:#eae3ca;}.cls-4{fill:#bfcbc8;}</style></defs><title>mascara</title><g id="Layer_2" data-name="Layer 2"><g id="makeup"><path class="cls-1" d="M693.72,80.73a154.79,154.79,0,0,0-49-66.7c-6.69-5.24-14.59-10.14-23-9.29-6.12.61-11.5,4.16-16.6,7.6L345.79,187.28l-50.33,34C209,279.6,38.24,398.37,8,419.43A7.08,7.08,0,0,0,5.49,428c15,35.8,35.44,60.34,60.47,91.11,1.33,1.63,2.79,3.33,4.79,4,2.79.89,5.75-.5,8.34-1.87,14.29-7.58,28.3-15.66,42.23-23.88,96.66-57,189.29-120.57,281.83-184.06l280.76-192.6c3.62-2.48,7.33-5,9.88-8.64C700.07,103.13,697.56,90.9,693.72,80.73Z"/><path class="cls-2" d="M698.54,79.4c-10.15-26.43-26.89-50.17-49-67.91-11.67-9.34-24.61-15.58-39-8.32-7.16,3.6-13.67,8.74-20.3,13.21l-22.29,15L393.64,149C346.38,180.86,299,212.62,252,244.78q-58.74,40.11-117.2,80.63Q84.52,360.15,34.38,395c-9.28,6.46-18.64,12.82-27.85,19.37-4,2.85-6.76,6.45-6.52,11.58.16,3.28,1.93,6.41,3.24,9.36Q5.68,440.73,8.36,446a274,274,0,0,0,22.55,36.47c8.4,11.61,17.42,22.77,26.46,33.88,4.43,5.45,8.74,12.7,16.78,11.78,7.32-.83,14.77-6.57,21.1-10.09,29.89-16.62,59.1-34.52,88.11-52.64,57.71-36.05,114.22-74,170.42-112.34q86.42-59,172.57-118.32l87-59.7,42.69-29.28,22.16-15.21c6.11-4.18,13.23-8.06,18.09-13.75,9.11-10.67,6.69-25.32,2.23-37.44-2.2-6-11.87-3.4-9.64,2.66s4.35,12.84,3.56,19.48c-1,8.16-7.28,12.18-13.54,16.48l-41,28.15L555,203.05,389.46,316.59c-53.73,36.84-107.52,73.61-162.2,109q-41,26.56-82.72,52c-14.09,8.53-28.23,17-42.51,25.17-7,4-14.07,8-21.19,11.81a42.46,42.46,0,0,1-5.07,2.69c-2.72,1-3.89,1-5.76-1.12-2.52-2.84-4.83-5.91-7.22-8.86-17.51-21.55-34.57-43.52-46.92-68.54-1.8-3.65-7.88-12.4-4.45-15.63a41.86,41.86,0,0,1,4.82-3.36l13-9q44.33-30.83,88.72-61.56,56.31-39,112.75-77.75,59.45-40.77,119.3-81L516.76,77.94l83.39-56.27c6.15-4.15,12.93-10.16,20.38-11.69s14.57,3,20.29,7.32a144,144,0,0,1,29.09,29.92,152.17,152.17,0,0,1,19,34.84C691.18,88,700.85,85.42,698.54,79.4Z"/><path class="cls-3" d="M670.57,60.5c-.14-1.76-8.75-12.92-10.4-13.55-15.3-5.8-34.28,12.72-47.73,21.28L384.19,213.47S243.88,319.41,171.78,370.76C131.88,399.17,80.54,424.84,53.35,465c0,0,.79,9.08,3.06,11.38,3.27,3.31,6.28,7.38,10.79,6.2,36.42-9.55,71.24-22.08,103-43.44,17.89-12,36.88-20.63,53.8-34,20.27-16,79.32-54.78,101.12-68.63,46.3-29.41,77.93-53,123.13-84.09,64.15-44.1,76.33-56,135.81-106.17,17.21-14.53,50.16-40.51,64.51-57.87C653,83.05,671.33,69.69,670.57,60.5Z"/><path class="cls-2" d="M671.18,60.33c-.69-2.87-3.36-5.62-5.13-7.89-2.1-2.7-4-5.72-7.46-6.63C647.91,43,636.81,50.33,628.5,56.09,601.2,75,573,92.57,545,110.41l-92.31,58.73L407.37,198c-8.18,5.2-16.76,10-24.57,15.76-23.11,16.91-45.79,34.44-68.72,51.58q-56.43,42.17-113.27,83.75c-18.92,13.76-37.91,27.33-57.54,40.06C119.67,404.44,95.55,419.57,75,439A173.65,173.65,0,0,0,60.5,454.41c-2.38,2.89-7.28,7.36-7.73,11-.83,6.73,4.83,16.85,11.89,17.88,3.07.44,6.61-1.18,9.51-2q5.94-1.62,11.83-3.39c7.53-2.26,15-4.7,22.41-7.39a305.1,305.1,0,0,0,42.4-18.92c14.23-7.78,27.52-17.14,41.54-25.28a361.91,361.91,0,0,0,36.16-23.87c17.76-13.37,36.37-25.66,54.88-38,19-12.62,38.2-24.8,57.27-37.24,26.27-17.14,51.9-35.21,77.59-53.21,42.46-29.76,85-58.83,124.72-92.21,20.55-17.26,41-34.65,61.62-51.83,10.37-8.64,20.69-17.36,30.49-26.65,7.49-7.09,14.1-14.95,21.65-22,5.5-5.14,14.67-12.51,14.47-20.9a.63.63,0,0,0-1.25,0c.22,9.59-12.22,18.14-18.46,24-7.6,7.2-14.29,15.28-22.06,22.38-19.16,17.51-39.6,33.62-59.4,50.4-17.54,14.87-35,29.88-53,44.21-18.75,14.94-38.22,28.94-57.9,42.62-47.67,33.13-95.1,66.45-143.87,97.94q-28,18.09-55.58,36.84c-8.77,6-17.5,12-26.09,18.23-9.25,6.72-18.13,13.81-27.89,19.82-13.41,8.25-27,16-40.29,24.53a275.77,275.77,0,0,1-42.72,22.15,392.78,392.78,0,0,1-42.94,14.79c-3.59,1-7.35,2.46-11,3-5.12.81-8.22-1.33-11.4-5.08-2.46-2.89-4.54-9.67-2.19-12.95,16.4-22.9,39-40.15,62.14-55.8,21.2-14.35,42.92-27.81,63.72-42.75,35.92-25.79,71.43-52.13,106.9-78.53q43-32,85.87-64.3c8.17-6.15,16.3-11.63,25-17.16L486,149.4l88.11-56.07c13.9-8.84,28.17-17.28,41.72-26.64,10.3-7.11,20.53-16.75,33.06-19.6,5.4-1.23,10.31-.82,14,3.46,2.32,2.71,6.19,6.52,7.05,10.12C670.16,61.45,671.36,61.12,671.18,60.33Z"/><path class="cls-2" d="M132.12,445.74l2.68,3.13-1.69,1.27c-1.14.71-3.08,1.86-4.42,1.75-3.69-.27-5.06-4.74-4-7.7,2-5.69,8.74-7.66,13.89-9.12,7.14-2,15.92-2.92,20.52-9.38,1.87-2.62-2.47-5.12-4.32-2.52-3.2,4.49-10.91,5.26-15.87,6.62-4.74,1.31-9.63,2.62-13.59,5.68-5.88,4.53-8.66,13.53-2.45,19.07,5.24,4.66,15.12,1.24,17.5-5.15,2.48-6.71-5.25-11.57-10.76-8-2.68,1.75-.18,6.08,2.53,4.32Z"/><path class="cls-2" d="M144.26,431.58c-.19,7.26-2.32,14-5,20.76-2.34,6-6,17.19-14.55,11.6-2.7-1.77-5.21,2.55-2.53,4.31,7.25,4.76,14.89,1,18.4-6.22,4.59-9.41,8.37-19.91,8.64-30.45.09-3.22-4.91-3.22-5,0Z"/><path class="cls-2" d="M162.59,433.33a11.58,11.58,0,0,0-5.84,3.22,26.61,26.61,0,0,0-3.13,5.65c-1.62,3.28-4.14,8.22.08,10.77,4,2.43,7.49-2.47,9.35-5.39,2.37-3.69,4.5-8.43,2.64-12.7-1.27-2.95-5.58-.4-4.31,2.52.74,1.73-1.07,4.92-1.87,6.37a21.82,21.82,0,0,1-1.62,2.54,18.29,18.29,0,0,1-1.21,1.43c-.39.51-.44.49-.17,0-.1-.71,1.14-2.39,1.43-3,.48-1,.95-2,1.45-2.93a6.19,6.19,0,0,1,4.53-3.64c3.08-.9,1.77-5.73-1.33-4.82Z"/><path class="cls-2" d="M178.76,421.5a18.83,18.83,0,0,0-8.36,8.06c-1.61,3.1-2.61,8.09,2.06,8.93,3.45.62,6.86-2.08,8.86-4.6a12.27,12.27,0,0,0,2.52-10.62,2.53,2.53,0,0,0-2.41-1.84l-1.25.06,1.76,4.27.76-1c2-2.51-1.56-6.07-3.54-3.54l-.75,1c-1.22,1.56-.62,4.38,1.77,4.27l1.25-.06L179,424.6c1,4.26-2.05,6.89-5.21,8.92q-1.08.14.27,0a9.61,9.61,0,0,1,.64-1.47,13.63,13.63,0,0,1,1.72-2.6,14.54,14.54,0,0,1,4.85-3.66c2.88-1.43.35-5.74-2.53-4.32Z"/><path class="cls-2" d="M233.32,367.1c-10.76,7.91-24.8,10.79-34.61,20-3.35,3.17-4.68,7.29-2.33,11.48,2.16,3.85,6,6.82,10.55,5.61,3.1-.83,1.78-5.66-1.33-4.82a5.25,5.25,0,0,1-4.58-2.75c-1.4-1.77-1.18-3.59.68-5.48,1.06-1.43,2.92-2.43,4.36-3.42a71.56,71.56,0,0,1,9.27-5.33c7.09-3.44,14.12-6.32,20.52-11,2.56-1.88.07-6.23-2.53-4.32Z"/><path class="cls-2" d="M225.72,375.53c-3,6.89-2.55,14.41-4.76,21.53a28.87,28.87,0,0,1-5.47,10.56c-2.51,2.85-8.22,6.94-11.58,3-2.1-2.44-5.63,1.11-3.53,3.54,5.79,6.72,15.5,1.07,19.78-4.43a36.4,36.4,0,0,0,6.1-13c1.64-6.14,1.2-12.8,3.78-18.67,1.28-2.92-3-5.47-4.32-2.53Z"/><path class="cls-2" d="M228.93,392a9.58,9.58,0,0,0,2.68-1.6c-.22.15.15-.07.16-.07s-.41.1,0,.05a1.34,1.34,0,0,1-1.47-.94,2.5,2.5,0,0,0,4.82-1.33,3.63,3.63,0,0,0-3.82-2.67,4.66,4.66,0,0,0-2.24.71c-.41.26-.76.6-1.15.88.31-.22-.7.29-.27.15a2.5,2.5,0,0,0,1.33,4.82Z"/><path class="cls-2" d="M251.83,377.07a17.62,17.62,0,0,0-10.37,6.16c-2.1,2.6-4.85,7.16-1.53,9.92,3.06,2.54,7.09.67,9.56-1.73a24.49,24.49,0,0,0,6.53-12,2.51,2.51,0,0,0-4.83-1.33,19.09,19.09,0,0,0-.37,10.49c.74,3.13,5.56,1.8,4.82-1.33a13.92,13.92,0,0,1,.38-7.83l-4.83-1.33a20.88,20.88,0,0,1-2.78,6.77c-.23.35-4.52,5.57-5,4.52a11,11,0,0,1,1.31-2.19,12.76,12.76,0,0,1,2.11-2.35,13.12,13.12,0,0,1,6.34-2.93c3.16-.6,1.82-5.42-1.33-4.83Z"/><path class="cls-2" d="M269,365.79a11.33,11.33,0,0,0-7.38,3.88c-1.7,1.88-3.75,4.44-2.49,7.09s4.49,3.59,7.06,3.95a14.8,14.8,0,0,0,9-1.62c2.87-1.46.34-5.78-2.52-4.32-2.11,1.08-6.37,2-8.43.21-.41-.35-.53.44-.1-.52a7.13,7.13,0,0,1,1.28-1.53,6,6,0,0,1,3.58-2.14c3.16-.35,3.2-5.35,0-5Z"/><path class="cls-2" d="M276.78,369.35c3.82-2.86,10.72-6.47,10.88-12,.2-7-9-2-11.46.15a9.89,9.89,0,0,0-1.2,14c4,4.84,11.73,0,15.32-3,2.48-2.05-1.07-5.57-3.54-3.53a17.07,17.07,0,0,1-4.76,2.82c-2.26.85-3.72.59-4.32-2-.45-1.93.41-3.41,1.86-4.63a31.47,31.47,0,0,1,4.21-2.61l-1.15-1.5c.81,2.37-6.89,6.82-8.37,7.92-2.55,1.91-.06,6.25,2.53,4.32Z"/><path class="cls-2" d="M299,348c-5.14.4-11.39,3.95-11.68,9.8-.24,4.8,5,6.79,9.07,5.44,5.86-1.95,7.75-8.89,9.27-14.18,2.47-8.54,3.82-17.33,8.36-25.13,1.38-2.37-2.07-5.27-3.93-3-6.35,7.71-7.88,17.24-7.38,27,.16,3.06-.42,9.28,1.83,11.77s5.17.75,7-1c2.32-2.24-1.22-5.77-3.53-3.53.88-.86-.14-4.81-.23-6.33a61.33,61.33,0,0,1-.07-8c.41-5.93,2.1-11.68,5.93-16.32l-3.93-3c-3.87,6.65-5.67,14-7.54,21.36-1,3.92-1.85,8.27-3.72,11.88-.51,1-5.06,6.73-6.07,3-.72-2.63,5-4.58,6.63-4.7,3.19-.24,3.22-5.24,0-5Z"/><path class="cls-2" d="M89.87,510.1c-1.48-.78-1.71-4.45-2.58-5.93-1.39-2.35-5.61-.8-4.57,1.93a85.71,85.71,0,0,1,3,9.41c.8,3.15,5.4,1.79,4.82-1.33-.45-2.46-.36-6.65-2.28-8.5s-5.09-1.1-7.27-.74l2.43,4.17c2.35-1.91,6.43-5.74,9.68-5.6,4.66.2.31,7.07-2.34,7.21-3.2.18-3.22,5.18,0,5,6.12-.33,12.64-9.58,7.88-14.9-5.48-6.14-14.23,1.07-18.75,4.76-2.16,1.75.27,4.53,2.43,4.18a5.26,5.26,0,0,1,2.15-.18l.09-.35.29,1.57.87,4.71,4.82-1.33a85.71,85.71,0,0,0-3-9.41L83,506.69c1.66,2.83,1.07,6,4.37,7.73,2.84,1.5,5.37-2.81,2.52-4.32Z"/><path class="cls-2" d="M112.11,500.41a27.9,27.9,0,0,1-2.79-2.86c-.49-.58-2.45-2.63-2.28-3.53s2.5-2.65,3.28-3.2a15.92,15.92,0,0,1,3.76-1.93c3-1.09,1.7-5.93-1.33-4.82-3.92,1.43-8.92,4.29-10.57,8.41s3.72,9,6.39,11.46c2.37,2.17,5.92-1.35,3.54-3.53Z"/><path class="cls-2" d="M110.78,499.43a8,8,0,0,1,6.31-4.86,2.54,2.54,0,0,0,1.75-3.08,2.58,2.58,0,0,0-3.08-1.75,12.49,12.49,0,0,0-9.3,7.17,2.58,2.58,0,0,0,.9,3.42,2.52,2.52,0,0,0,3.42-.9Z"/><path class="cls-2" d="M125.58,483.54c4.26-4.79,10.65-6.92,14.78-11.88,2-2.46-1.48-6-3.54-3.54-4.11,4.94-10.51,7.09-14.78,11.89-2.13,2.4,1.39,5.95,3.54,3.53Z"/><path class="cls-2" d="M128.4,479A28.25,28.25,0,0,0,133,489.23c1.87,2.58,6.21.09,4.32-2.52a24.55,24.55,0,0,1-4.14-9c-.73-3.13-5.55-1.81-4.82,1.33Z"/><path class="cls-2" d="M145.37,465.45l-.21.09,1.93.25-.23-.14,1.15,1.5-.09-.26-.26,1.93c-.59.44-.48.38.33-.16l1.4-.86c.93-.57,1.87-1.13,2.81-1.68,1.89-1.11,3.8-2.17,5.73-3.21,2.84-1.52.31-5.84-2.52-4.32-3.61,1.94-7.55,3.84-10.81,6.32-1.14.88-1.93,2.08-1.42,3.57a2.76,2.76,0,0,0,3.52,1.79c2.93-1.22,1.64-6.06-1.33-4.82Z"/><path class="cls-2" d="M154.94,470.16c3.22,0,3.23-5,0-5s-3.22,5,0,5Z"/><path class="cls-2" d="M167.36,453.38a104.16,104.16,0,0,1,5.53,12.12c1.14,3,6,1.69,4.83-1.33a115.46,115.46,0,0,0-6-13.31c-1.51-2.84-5.83-.32-4.32,2.52Z"/><path class="cls-2" d="M173,456.65a55.41,55.41,0,0,1,7.37-2.77c3.07-.93,1.76-5.75-1.33-4.82a65.06,65.06,0,0,0-8.56,3.27,2.51,2.51,0,0,0-.9,3.42,2.55,2.55,0,0,0,3.42.9Z"/><path class="cls-2" d="M172.36,452.36a24.88,24.88,0,0,1,8-5.26A2.56,2.56,0,0,0,182.1,444a2.51,2.51,0,0,0-3.07-1.75,31.24,31.24,0,0,0-10.21,6.54c-2.32,2.24,1.22,5.78,3.54,3.54Z"/><path class="cls-2" d="M190.35,442.65l4.56,9.74,3.92-3a21.1,21.1,0,0,1-3.71-5.95c-1.31-3.24-1.23-5,1.22-7.3l1.21-.94,2.14.5s-2,.5-2.29.62a9,9,0,0,0-3.82,3c-1.49,1.92-.17,4.75,2.43,4.17,3.73-.81,9-2.87,12.33-.1,2.47,2,6-1.49,3.54-3.54-5.18-4.26-11.23-2.49-17.2-1.18l2.44,4.18c2.48-3.19,8.26-2.16,7.88-7.65-.27-4-4.21-5.95-7.83-5.1s-7.79,5.18-8.34,9c-.68,4.59,3.61,10.69,6.47,13.91,2,2.27,5-.61,3.92-3l-4.56-9.75c-1.36-2.91-5.67-.37-4.31,2.53Z"/><path class="cls-2" d="M218.19,419.8l-.53-.18,1.49,1.15c.17.69.47.65.92-.11a18.82,18.82,0,0,1,1.62-1.2,24.57,24.57,0,0,1,2.67-1.57,25.12,25.12,0,0,1,6.48-2.23c3.14-.67,1.81-5.5-1.33-4.82a29.79,29.79,0,0,0-12.29,5.73c-1.42,1.13-3,2.4-3.12,4.36a3.63,3.63,0,0,0,2.76,3.69c3.06,1,4.38-3.82,1.33-4.82Z"/><path class="cls-2" d="M227.94,411.92a4.63,4.63,0,0,0-4.37,5.86,14.68,14.68,0,0,0,2.38,4.4l3.38,5.1c1.77,2.67,6.11.17,4.32-2.52L230.51,420c-.46-.7-.94-1.39-1.38-2.1-.19-.28-.36-.56-.52-.85-.07-.6-.3-.65-.67-.15,3.21,0,3.22-5,0-5Z"/><path class="cls-2" d="M243.48,406.83l.3-.82H239l3.86,10.42c1.11,3,5.94,1.69,4.82-1.33l-3.86-10.42a2.52,2.52,0,0,0-4.82,0l-.3.82c-1.1,3,3.73,4.34,4.82,1.33Z"/><path class="cls-2" d="M252.36,398.35l5.69,9.37c1.67,2.74,6,.23,4.32-2.53l-5.69-9.36c-1.67-2.75-6-.24-4.32,2.52Z"/><path class="cls-2" d="M246.36,411.36a60.09,60.09,0,0,1,12.63-6c3-1,1.73-5.85-1.33-4.82A65.82,65.82,0,0,0,243.83,407c-2.72,1.7-.22,6,2.53,4.32Z"/><path class="cls-2" d="M273.54,398.25c-.87-1.79-.44-3.91-.18-5.79.29-2.13.6-4.24.92-6.36l-3.67,1.49a73.23,73.23,0,0,1,9.73,7.26c2.4,2.13,6-1.39,3.53-3.54a80.35,80.35,0,0,0-10.74-8c-1.24-.77-3.43-.1-3.67,1.5-.77,5.09-2.62,11.13-.23,16,1.41,2.89,5.73.36,4.31-2.52Z"/><path class="cls-2" d="M273.36,398.32a17.68,17.68,0,0,1,6.93-5.35,2.52,2.52,0,0,0,.89-3.42,2.56,2.56,0,0,0-3.42-.89,20.73,20.73,0,0,0-7.94,6.12,2.59,2.59,0,0,0,0,3.54,2.53,2.53,0,0,0,3.54,0Z"/><path class="cls-2" d="M293.74,381.69c-.64-2.14-1.93-4.76-2-7l-1.24,2.16c-.37.27.52,0,.92.07.93.09,1.87.2,2.8.34a47.06,47.06,0,0,1,5.11,1.13c2.17.61,4.84,2,6.87.34,3.6-3.05.22-9.52-2-12.28-2-2.49-5.55,1.06-3.53,3.54,1,1.27,1.25,2.55,1.88,4l.1,1.24c1-.53,1.14-.84.27-1-.34-.38-1.73-.55-2.23-.69a47.49,47.49,0,0,0-9.24-1.65c-1.79-.13-4,0-4.59,2.1-.76,2.5,1.39,6.59,2.11,9,.92,3.07,5.75,1.76,4.82-1.33Z"/><path class="cls-2" d="M327,347.59c-3.31,1.23-20.21,8.07-13.66,13.72,3.16,2.72,8.63-.55,11.52-2.11a23.09,23.09,0,0,1,3.18-1.71c1.15.55-.76,1.63-1.18,2-2.36,2.07-4.83,4-7.25,6s1.08,5.58,3.54,3.54c3.69-3.06,13.43-8.41,10.21-14.55-4-7.61-12.81,4.35-17.84,2.46l1.5,1.15-.27-.64.25,1.93c.92-3.7,8.32-5.85,11.33-7s1.69-6-1.33-4.82Z"/><path class="cls-2" d="M336.77,341.16c-2.63,1.48-1.22,4.18.08,6,1.57,2.19,3.25,4.31,5,6.35,2.11,2.44,5.63-1.11,3.54-3.54-1-1.17-2-2.35-2.94-3.59-.66-.86-2.13-2.31-2.31-3.33v1.33l.06-.28-1.15,1.49.23-.13c2.8-1.58.28-5.9-2.52-4.31Z"/><path class="cls-2" d="M336.56,346.87a65.77,65.77,0,0,0,14-9.82c2.38-2.18-1.17-5.71-3.54-3.54a60.69,60.69,0,0,1-13,9c-2.85,1.49-.33,5.8,2.52,4.32Z"/><path class="cls-2" d="M342.65,350.26a25.61,25.61,0,0,1,9.25-4.57c3.1-.84,1.79-5.67-1.33-4.82a31.76,31.76,0,0,0-11.45,5.85c-2.53,2,1,5.51,3.53,3.54Z"/><path class="cls-2" d="M355.47,330.58c5.47,1.26,11,2.23,16.54,3,3.18.41,3.15-4.59,0-5-5.12-.67-10.19-1.62-15.21-2.79-3.13-.72-4.47,4.1-1.33,4.83Z"/><path class="cls-2" d="M367.86,318.75q-3.78,9.48-6.62,19.28c-.9,3.1,3.92,4.42,4.82,1.33q2.85-9.81,6.62-19.28c1.19-3-3.64-4.29-4.82-1.33Z"/><path class="cls-4" d="M25.52,455.41l20.84-14c15.76-10.61,31.53-21.22,47-32.21,15.87-11.26,31.47-22.92,47-34.61,44.25-33.24,88.35-66.84,129.08-104.32a9.06,9.06,0,0,0,2.74-3.54c.64-1.92-.05-4-.73-5.9-2-5.52-4.94-11.89-10.72-12.84-4.37-.71-8.45,2.08-12,4.71-39.59,29.35-80,57.53-120.46,85.7L111,350.47c-32.71,22.8-65.43,45.6-97.85,68.81-3.19,2.29-6.61,4.91-7.51,8.73-1.19,5.07,2.55,10,6.58,13.26s8.8,6.18,11,10.93"/><path class="cls-2" d="M26.15,456.49c40.23-27.07,79.95-54.56,118.72-83.71,37.44-28.16,74.72-56.64,109.91-87.61q6.43-5.67,12.79-11.46c2.56-2.33,6-4.67,6.17-8.46.29-5.92-4.71-15.18-10.15-17.69-8.67-4-17.9,5.88-24.16,10.48q-14.7,10.8-29.52,21.41c-39.33,28.21-79.17,55.71-118.86,83.4q-33.78,23.56-67.38,47.38c-4.6,3.27-9.46,6.36-13.82,10C6.49,423,3.8,426.43,4.21,431c.93,10.27,13.57,13.53,17.86,21.81.74,1.42,2.9.16,2.16-1.27-4-7.67-15.17-10.79-17.27-19.41-1.67-6.85,5.33-10.74,10-14.07l14.38-10.24q26.79-19,53.74-37.78c36.17-25.26,72.47-50.34,108.45-75.86q26.53-18.81,52.73-38.1c4.72-3.49,10.74-9.2,16.87-5.81,3.77,2.09,7,8.06,7.68,12.3,1,6.35-6.61,10.84-10.66,14.47q-6.39,5.74-12.88,11.36C214.66,316.7,180.37,343,145.89,368.9c-39.52,29.74-80,57.82-121,85.43-1.33.89-.08,3.06,1.26,2.16Z"/><path class="cls-4" d="M444,155.12l95-56.58,28.49-17,84.23-50.16c2-1.19,4.16-2.6,4.73-4.85.72-2.81-1.36-5.49-3.34-7.61-6.51-7-14.08-13.8-23.48-15.48C614.31.72,600.52,12.25,588.5,22.2,540.07,62.3,481.62,88.45,431,125.78a13.78,13.78,0,0,0-4.19,4.17c-2.8,5.17,1.72,11.25,6.36,14.85s10.3,7.52,10.48,13.39"/><path class="cls-2" d="M444.65,156.2,554.74,90.63l54.68-32.56,27.8-16.55L649.85,34c2.54-1.51,5.93-3,7.32-5.84,3-6.07-5-12.28-8.83-15.76C642.66,7.26,636,2.93,628.25,2,611.78.06,598,12.79,586.26,22.43,556.3,47,522.58,66.3,489.49,86.21c-18.13,10.92-36.17,22-53.4,34.35-5.71,4.07-13.66,8.32-10.62,16.56,3.23,8.77,15.95,11.43,16.94,21.07.16,1.59,2.66,1.6,2.5,0-.59-5.8-4.55-9.32-8.91-12.78-3.39-2.68-7.73-5.87-8.6-10.44-1.14-6,6.48-9.79,10.67-12.76,14.14-10.06,28.81-19.33,43.62-28.35C511,76,541.06,59.05,568.94,38.87q9.75-7,19.09-14.67c6.74-5.52,13.4-11.33,21.14-15.43,8.14-4.32,17.31-6,26-2.29A40.66,40.66,0,0,1,646,13.63c2.22,2,9.23,7.3,9.2,10.51,0,1.93-2.69,5.09-4,6.19a21.39,21.39,0,0,1-2.53,1.51l-5.9,3.51-13.47,8L604.79,57.92,555.15,87.48,443.39,154a1.25,1.25,0,0,0,1.26,2.16Z"/><path class="cls-3" d="M421.9,292.76c33.47-30.89,69.41-59,105.31-87L625.54,129c10.5-8.2,21-16.41,30.77-25.47,5.71-5.3,11.52-11.1,19.05-13.08s17.22,1.8,18.42,9.49c1.15,7.39-5.55,13.42-11.57,17.86-32.63,24.05-65.7,47.5-98.77,70.94l-78,55.29c-18.53,13.13-37.07,26.28-54.8,40.47-9.05,7.25-19.22,15.21-30.77,14.17"/><path class="cls-2" d="M422.79,293.64c32.59-30,67.42-57.4,102.31-84.65,36.27-28.33,72.68-56.49,108.82-85,8.38-6.62,16.59-13.41,24.41-20.67,7.09-6.58,16.06-14.93,26.57-11.27,5,1.74,8.76,6.25,7.49,11.8s-6.52,9.62-10.81,12.84c-9.14,6.87-18.46,13.53-27.73,20.24-37,26.77-74.38,53.07-111.65,79.5-20.94,14.85-42,29.55-62.76,44.65-9.53,6.93-18.95,14-28.17,21.33s-18.95,15.67-31.37,15c-1.61-.08-1.6,2.42,0,2.5,9.46.52,17.64-3.95,25.06-9.4,9.26-6.82,18.1-14.22,27.35-21.08,19.67-14.61,39.8-28.59,59.78-42.76,40.53-28.74,81.17-57.32,121.44-86.42,10-7.23,20.08-14.39,29.92-21.83,5.7-4.32,12.75-10.49,11.58-18.49-.94-6.45-7-10.34-13.13-11.1-8-1-14.9,3.54-20.67,8.5-8.74,7.51-17.08,15.36-26.1,22.54-9.67,7.71-19.46,15.25-29.2,22.86L546.62,189C504,222.34,460.85,255.2,421,291.87c-1.19,1.1.58,2.86,1.77,1.77Z"/><path class="cls-2" d="M698.54,79.4c-10.15-26.43-26.89-50.17-49-67.91-11.67-9.34-24.61-15.58-39-8.32-7.16,3.6-13.67,8.74-20.3,13.21l-22.29,15L393.64,149C346.38,180.86,299,212.62,252,244.78q-58.74,40.11-117.2,80.63Q84.52,360.15,34.38,395c-9.28,6.46-18.64,12.82-27.85,19.37-4,2.85-6.76,6.45-6.52,11.58.16,3.28,1.93,6.41,3.24,9.36Q5.68,440.73,8.36,446a274,274,0,0,0,22.55,36.47c8.4,11.61,17.42,22.77,26.46,33.88,4.43,5.45,8.74,12.7,16.78,11.78,7.32-.83,14.77-6.57,21.1-10.09,29.89-16.62,59.1-34.52,88.11-52.64,57.71-36.05,114.22-74,170.42-112.34q86.42-59,172.57-118.32l87-59.7,42.69-29.28,22.16-15.21c6.11-4.18,13.23-8.06,18.09-13.75,9.11-10.67,6.69-25.32,2.23-37.44-2.2-6-11.87-3.4-9.64,2.66s4.35,12.84,3.56,19.48c-1,8.16-7.28,12.18-13.54,16.48l-41,28.15L555,203.05,389.46,316.59c-53.73,36.84-107.52,73.61-162.2,109q-41,26.56-82.72,52c-14.09,8.53-28.23,17-42.51,25.17-7,4-14.07,8-21.19,11.81a42.46,42.46,0,0,1-5.07,2.69c-2.72,1-3.89,1-5.76-1.12-2.52-2.84-4.83-5.91-7.22-8.86-17.51-21.55-34.57-43.52-46.92-68.54-1.8-3.65-7.88-12.4-4.45-15.63a41.86,41.86,0,0,1,4.82-3.36l13-9q44.33-30.83,88.72-61.56,56.31-39,112.75-77.75,59.45-40.77,119.3-81L516.76,77.94l83.39-56.27c6.15-4.15,12.93-10.16,20.38-11.69s14.57,3,20.29,7.32a144,144,0,0,1,29.09,29.92,152.17,152.17,0,0,1,19,34.84C691.18,88,700.85,85.42,698.54,79.4Z"/></g></g></svg>