<svg xmlns="http://www.w3.org/2000/svg" viewBox="0 0 466.79 433.55"><defs><style>.cls-1{fill:#bfcbc8;}.cls-2{fill:#38301f;}.cls-3{fill:#eae3ca;}.cls-4,.cls-6{fill:#ad968a;}.cls-5{fill:#81c6d8;}.cls-6{stroke:#38301f;stroke-miterlimit:10;stroke-width:0.7px;}</style></defs><title>mushrooms</title><g id="Layer_2" data-name="Layer 2"><g id="mushrooms"><path class="cls-1" d="M216.32,302.72a28.36,28.36,0,0,0-1-4.11l-1.89-6.26a9.8,9.8,0,0,0-1.31-3.06,9.64,9.64,0,0,0-2.08-1.9l-5.18-3.92a13.94,13.94,0,0,0-3.3-2c-3.1-1.2-6.65,0-9.37,1.86s-4.89,4.47-7.44,6.59c-1.93,1.6-4.22,3.16-5,5.51l.84-.46c2.13-3.29,5.28-5.77,8.38-8.18,1.2-.94,2.53-1.92,4-1.9a6.44,6.44,0,0,1,3.58,1.57,32.74,32.74,0,0,1,7,6.59,17.56,17.56,0,0,1,3.65,8.8,27.87,27.87,0,0,1-.53,7.11c-.49,3.11-1,6.23-1.49,9.34a29.77,29.77,0,0,0-.39,3.27,41.26,41.26,0,0,1-.16,5.1,13.52,13.52,0,0,1-2.34,5.15,13.23,13.23,0,0,1-3.38,3.61c-.71.48-6.2-.19-7,0,.68-.13,6,.68,6.67.41,5.91-2.48,9.56-8.34,12.81-13.86A24.42,24.42,0,0,0,214.8,314C215.82,310.34,216.86,306.52,216.32,302.72Z"/><path class="cls-2" d="M218,302.26c-.82-4.33-1.94-10.65-4.68-14.21-2.46-3.2-8.13-7.44-12-8.51-4.19-1.15-8.32.79-11.55,3.36-3.87,3.08-9.42,7-11.53,11.6a1.78,1.78,0,0,0,2.41,2.41c4.34-2.38,7.74-11.49,14-9.72,2.86.81,6.84,5.58,8.4,8,2.39,3.72,2.77,7.37,2.24,11.7-.44,3.63-1.15,7.25-1.7,10.87-.43,2.79-.15,5.7-.69,8.45-.57,2.91-2.65,7.13-5.84,7.56-1.65.22-3.4-.31-5.07-.16-2.22.18-2.29,3.58,0,3.51s4.84.9,7.14.36c3.51-.81,6.81-4.5,8.92-7.18,6.06-7.67,10.81-17.62,10.05-27.61-.17-2.24-3.7-2.26-3.52,0,.65,8.48-3.06,16.62-7.8,23.42-2.07,3-5.28,7.36-9.14,7.95-1.8.28-3.82-.51-5.65-.45v3.51c2.26-.18,4.89.71,7.08.06,2.76-.82,5.15-4.58,6.29-7,1.92-4.09,1.26-9,1.92-13.35.74-4.88,2.2-10.08,1.78-15.05-.61-7.25-6.71-14.9-13.23-17.95-3-1.42-5.31-.35-7.89,1.51a44.68,44.68,0,0,0-5.34,4.47c-1.17,1.16-2.27,3.25-3.69,4l2.4,2.41c1.57-3.38,5.58-6,8.34-8.54,3.67-3.34,7.6-6.53,12.73-3.88,3.44,1.78,7.92,5.49,9.35,8.95a53.74,53.74,0,0,1,2.91,10.38C215,305.42,218.43,304.47,218,302.26Z"/><path class="cls-1" d="M179.77,295.39l2.08,11c-.57,2.05.3,2.56.78,4.64.32,1.35,0,2.43.05,3.82a47.28,47.28,0,0,1,.07,5.95,16.93,16.93,0,0,0,1.39,6.72,11,11,0,0,0,1.9,3.75,11.25,11.25,0,0,0,2.27,1.77l2.82,1.83.84.53C191,334.64,179.78,295.34,179.77,295.39Z"/><path class="cls-2" d="M178.08,295.86l1.48,7.85c.53,2.81,1.17,5.77,1.45,8.6.55,5.45-.52,10.37,1.43,15.68,1.69,4.61,4.59,6.36,8.64,8.92,1.77,1.12,3.39-1.31,2.13-2.76-.71-.82-1.69-5.18-2.23-6.93-1.4-4.51-2.74-9-4.07-13.56-1.83-6.23-3.41-12.57-5.44-18.74-.7-2.14-4.1-1.22-3.39.94,2.23,6.79,4,13.79,6,20.65,1.36,4.63,2.73,9.25,4.19,13.84.62,1.94,1.08,4.7,2.46,6.29l2.13-2.76c-2.93-1.86-5.76-3.42-7-6.83a22.94,22.94,0,0,1-1.26-8.47,83.83,83.83,0,0,0-1-11.72c-.53-4-1.32-8-2.07-11.94C181.05,292.7,177.66,293.64,178.08,295.86Z"/><path class="cls-3" d="M203,331.78a13.39,13.39,0,0,0,2.35-5.15,41.37,41.37,0,0,0,.15-5.11,30.39,30.39,0,0,1,.4-3.27c.5-3.11,1-6.22,1.49-9.33a28.36,28.36,0,0,0,.53-7.11,17.61,17.61,0,0,0-3.65-8.8,33.28,33.28,0,0,0-7-6.6,6.54,6.54,0,0,0-3.58-1.57c-1.53,0-2.86,1-4.06,1.91-3.09,2.41-6.24,4.88-8.37,8.17l-.84.46c0,.1-.05.2-.08.3a6.43,6.43,0,0,0,2,1.47,2.33,2.33,0,0,0,2.51-.35c.58-.59.66-1.51,1.1-2.21a5.5,5.5,0,0,1,1.67-1.43,18.31,18.31,0,0,0,4.3-4,1.73,1.73,0,0,1,.78-.69,1.36,1.36,0,0,1,.82.05c2.46.78,3.4,3.73,5.29,5.48,1.3,1.2,3.09,1.86,4.13,3.3s1.11,3.48,1.09,5.33a26,26,0,0,1-.92,7.93,30.14,30.14,0,0,0-1.28,3.75,18.78,18.78,0,0,0,0,4.37c.16,3.16-.25,6.47-2,9.07-2.15,3.14-6.05,4.77-9.85,4.91a16.21,16.21,0,0,0,2.73,2.76c.79.48,1.44.19,2.35.36a6.92,6.92,0,0,0,2.34.24,9.33,9.33,0,0,0,2.69-1.16A10,10,0,0,0,203,331.78Z"/><path class="cls-4" d="M184.61,297.52c-.37-1.5.82-2.95,2.13-3.77s2.84-1.35,3.86-2.51c.51-.58.86-1.28,1.4-1.82a1.93,1.93,0,0,1,2.07-.6,2.31,2.31,0,0,1,.78.68c1.19,1.41,2.19,3,3.73,4.06a18.88,18.88,0,0,1,1.85,1.2,6.49,6.49,0,0,1,1.8,3.78c1,5.11.21,10.38.08,15.58-.1,4.29.21,8.77-1.52,12.69a7.92,7.92,0,0,1-1.42,2.26c-1.48,1.59-3.7,2.21-5.82,2.64a8.06,8.06,0,0,1-3.45.16,7.58,7.58,0,0,1-2.06-1,9.36,9.36,0,0,1-3-2.55,9,9,0,0,1-1.13-6.09,41.8,41.8,0,0,0,.58-6.29c-.19-3.34-2-5.1-1.55-8.42"/><path class="cls-2" d="M185.49,297.52c0-.61,6.81-7.89,8.74-7.4.76.2,3.18,3.5,3.9,4.2,5.74,5.58,3.38,14.86,3.27,22.23-.05,3.31.3,8.29-2,11-3.82,4.55-11.64,4.53-13.8-1.26-1.36-3.67,0-6.61-.24-10.32-.17-2.94-1.63-5.42-1.55-8.42a.88.88,0,0,0-1.76,0c-.08,3,1.29,5.46,1.55,8.42.23,2.64-.74,5.24-.66,7.88a9,9,0,0,0,5.64,8.37c3.12,1.31,7.52.37,10.25-1.56,3.38-2.38,4-7.06,4.24-10.87.34-6.09.95-12.63.38-18.69-.17-1.87-.33-4.09-1.39-5.71s-3-2.4-4.4-3.84c-2.44-2.48-2.79-4.58-6.21-2.84a29.24,29.24,0,0,0-5.35,4.41c-1.59,1.52-2.23,2.15-2.38,4.39-.08,1.13,1.68,1.12,1.76,0Z"/><path class="cls-1" d="M201.37,296.77c-2.39-1.27-5.15,3-11.63,3-3.76,0-4-1.48-11.91-3.73a94.43,94.43,0,0,0-11-2.32,124.33,124.33,0,0,0-13.44-1.64c-6.57-.43-7.95.05-12.27-.17-2.42-.12-7.66-.56-18.35-4.27-9.4-3.25-19.61-6.79-31.69-14.89-5.73-3.85-23.9-16-25.59-28.4-.1-.8-.33-3-.9-6.29-1.08-6.33-2.28-10.35-3.26-14.21-.69-2.77-.67-3-3-16.2-1-5.43-2.15-11.78-4.51-24.48-2.84-15.34-3.26-17.33-3.89-20-1.88-8-3.16-13.33-6-20-3-7-3.39-5.45-6.91-13.55C34.37,123.7,31,118.15,29,112.08c-.4-1.18-2.05-6.19-4.62-6.37-.93-.06-1.6.53-2.9.24s-1.79-1.26-2.89-2c-2.14-1.52-5.45-1.37-7.56-.43-2.61,1.17-2.39,3.12-5.15,4-1.87.58-2.79,0-3.5.65s-1,2.53,1.54,7.61l.65,2.35a37.06,37.06,0,0,0,5.69,7c3.23,3.12,4.95,3.65,6.72,6.24,2.29,3.36,1.35,5.33,2.6,9.42,2.21,7.24,7,7.15,11.11,14.44,2.82,5,1.58,6.75,3.76,15.46,2.28,9.12,4.69,11.34,7.91,19.6,5.49,14.09,1.53,15.41,7.22,37.14A185.94,185.94,0,0,0,57.22,250c4,10.21,5.67,13.13,7.67,15.38,3.87,4.34,8.55,7.87,13.2,11.36a53,53,0,0,0,10.57,6.71c6.13,2.65,13.17,3,19,6.27,3.09,1.76,5.68,4.3,8.74,6.12a34.68,34.68,0,0,0,9.17,3.52c10.34,2.68,21.1,3.33,31.78,3.4,7.87,0,15.82-.2,23.52,1.42,7.34,1.55,15.59,5.55,20.2,11.54C201,315.68,203.89,298.22,201.37,296.77Z"/><path class="cls-2" d="M201.83,295.07c-3.53-1.2-7.36,2.45-10.85,2.79-4.33.43-8.6-2.38-12.68-3.55a121,121,0,0,0-33.91-4.14c-10.31.1-20.25-3.7-29.76-7.32A118.92,118.92,0,0,1,83,264.75c-4.54-3.61-9-7.64-12.28-12.48-3-4.41-3.49-8.84-4.32-13.92-1.23-7.5-3.49-14.76-4.83-22.24-3.18-17.81-5.94-35.81-10-53.43a121.78,121.78,0,0,0-5.7-19.27c-1.55-3.76-3.66-7.08-5.51-10.67A194,194,0,0,1,31,112.44c-1-2.83-2.14-7-5.32-8.2a9.47,9.47,0,0,0-2.17-.19,10.65,10.65,0,0,1-3.85-1.53,10.31,10.31,0,0,0-6.2-1.45,9.07,9.07,0,0,0-4.76,1.8c-.76.6-1.28,1.66-2.07,2.18-1.34.87-3.38.44-4.72,1.34-5.43,3.63,2.35,14.74,5.23,18,2,2.28,4.46,4,6.65,6,2.53,2.39,2.91,4.84,3.49,8.11.94,5.22,3.46,8.36,7.21,11.88,8.5,8,7,20,11.54,30.19,4.12,9.14,7.36,17.14,8.26,27.13a135.2,135.2,0,0,0,7.85,33.76c3,8.24,5.67,18.35,11.54,25.13A68.82,68.82,0,0,0,97.8,288,34.5,34.5,0,0,1,108,292c3,2,5.65,4.46,8.88,6.11,5.94,3,12.93,4.21,19.47,5.09,15.12,2,31.28-.81,46.07,3.15a33.31,33.31,0,0,1,17.34,10.59,1.77,1.77,0,0,0,2.94-.78c.55-3.44,1-6.91,1.25-10.39.21-2.8,1.09-8.08-1.38-10.24-1.7-1.48-4.2,1-2.49,2.49s.35,7.93.18,9.76c-.24,2.49-.56,5-1,7.44l2.94-.77c-7.9-9.58-20.33-12.76-32.24-13.32-15.33-.73-30.67.43-45.63-3.92-6.42-1.88-10.29-5.87-15.9-9-6.4-3.63-14-3.77-20.59-7-6.06-3-11.74-7.74-16.81-12.16a32.07,32.07,0,0,1-8.45-10.53A174.57,174.57,0,0,1,50,221.62c-1.81-8.08-1.69-16.44-3.57-24.47-2.48-10.59-8.92-19.56-11-30.31-.76-3.91-.85-7.88-2.64-11.51-2.41-4.88-7-7.34-9.92-11.68s-1.66-10-5.1-14.2c-3.81-4.68-9.12-7.32-11.8-13-.67-1.43-2.12-4-2-5.25.24-2.58,1.88-1.45,4-2.71,2.47-1.48,3.39-4.17,6.88-3.93,2.35.17,5.28,2.67,7.8,3.24,4.84,1.1,5.61,7.54,7.52,11.66,2.72,5.87,5.33,12,8.57,17.57,5,8.7,7.63,18.19,9.79,28,3.91,17.67,6.73,35.61,9.93,53.41,1.32,7.3,3.58,14.37,4.72,21.7.66,4.21,1.1,8,3.21,11.82A46.69,46.69,0,0,0,76,263.41a115.74,115.74,0,0,0,29.58,19.45c10.34,4.72,21.94,9.38,33.31,10.6,4.8.52,9.66,0,14.48.35a131.18,131.18,0,0,1,20.11,2.91c4.87,1.09,9.44,3.74,14.29,4.6a14.69,14.69,0,0,0,6.68-.51c1.74-.52,4.72-2.94,6.47-2.35C203.05,299.2,204,295.8,201.83,295.07Z"/><path class="cls-3" d="M180.16,295.52l.16.16c0-.1.05-.2.08-.3Z"/><path class="cls-2" d="M179.85,295.83l.16.16a.45.45,0,0,0,.74-.2c0-.09,0-.19.07-.29a.44.44,0,0,0-.64-.5l-.24.14c-.5.27-.06,1,.44.76l.24-.14-.64-.49a2.45,2.45,0,0,0-.08.29l.73-.19-.16-.17C180.07,294.8,179.45,295.43,179.85,295.83Z"/><path class="cls-5" d="M23.72,115.65a2,2,0,0,0-.54-.85c-.82-.88-2-1.53-2.4-2.65a12.82,12.82,0,0,1-.37-1.63,1.77,1.77,0,0,0-1-1.29,2.36,2.36,0,0,0-1.95.51,24.09,24.09,0,0,1-4,1.88l-.05-.22a1.8,1.8,0,0,0-3.46-.89c0,.08-.06.18-.14.21a.25.25,0,0,1-.19,0,2.17,2.17,0,0,1-1.42-1.36c-.1-.31-.15-.67-.41-.86a1,1,0,0,0-.88-.08,2.33,2.33,0,0,0-1.78,1.2,2.79,2.79,0,0,0-.15.87c0,.82-.09,1.64-.13,2.47a4.11,4.11,0,0,0,0,1.05,2.84,2.84,0,0,0,1.6,1.78,15.6,15.6,0,0,0,2.34.76,13,13,0,0,1,4.63,2.7,8.17,8.17,0,0,0,2.14,1.62,5.48,5.48,0,0,0,2.24.34,2.36,2.36,0,0,0,1-.14,2.38,2.38,0,0,0,.84-.77,11.69,11.69,0,0,0,1.1-1.78c.32-.63.66-1.34,1.32-1.56.47-.16,1.06,0,1.43-.38A.93.93,0,0,0,23.72,115.65Z"/><path class="cls-2" d="M24.1,115.42c-1.12-1.77-.05,0-1.27-1.56a22.24,22.24,0,0,1-2-3.46c-.35-.62-.48-1.29-1.22-1.58-1-.37-1.55.22-2.35.54-1,.39-2.29,1.59-3.5,1.18.25.09-2.07-1.68-.53-1-.84-.4-1-.85-2-.63-.54.11-1.05.9-1.4,1-1.53.31-1.16-3-3.86-1.66-1.82.88-2,4.18-1.5,5.85a3.49,3.49,0,0,0,1.79,2c2.32,1.37,4.67,1.59,6.89,3.39,1.59,1.29,3.64,2.9,5.88,1.89a4.35,4.35,0,0,0,1-.93c1.06-1.16,1.75-2,2.91-3.26,1-1.05.76.42,1.2-1.5.13-.55-.72-.78-.85-.23-.23,1-1.28.82-1.93,1.43-.43.41-.59.93-1,1.33l-.51.92-5.41.34c-1.07-.42-2.34-2-3.41-2.54-1.73-.92-3.11-1-4.5-2.64-1.57-1.8-1.7-2.15,0-3.77,2.59-2.41.24-.86,1.79-.17.38.17.81.53,1.2.72.85.42,2.89-1.94,3.47.58a.44.44,0,0,0,.54.31c2.5-1,4.58-3.1,6.66-.18.92,1.3,2.24,2.67,3.09,4C23.64,116.35,24.4,115.9,24.1,115.42Z"/><path class="cls-5" d="M23.86,125.07c-.12-.11-.3-.06-.45,0a14.08,14.08,0,0,1-6,.73,5,5,0,0,1-3.67-1.69,13.87,13.87,0,0,1-.92-1.75A5.19,5.19,0,0,0,11,120.43a1.55,1.55,0,0,0-.58-.24c-.52-.08-1,.3-1.53.31l-.33.41a14.23,14.23,0,0,0,4.24,5.25,17.88,17.88,0,0,0,1.78,1.2,3.26,3.26,0,0,0,1.95.65,11.45,11.45,0,0,0,1.89-.72c1.07-.33,2.24.09,3.35-.11a3,3,0,0,0,2.13-1.61C23.94,125.41,24,125.18,23.86,125.07Z"/><path class="cls-2" d="M23.86,124.63c-1.82,0-3.57.85-5.47.79a5.73,5.73,0,0,1-4.8-2.39c-.51-.62-.72-1.44-1.3-2-1.1-1.16-2.88-1.88-4.08-.38a.45.45,0,0,0-.07.53c1.68,3.27,5.34,8,9.42,7,.94-.22,7.78-.2,6.72-3.17-.19-.53-1-.3-.85.23s-2.84,1.5-3.39,1.57c.22,0-1.27,0-1.37,0-2.27.12-3.74.44-5.59-1C12,125,9.51,123,9.34,121.55c-.08-.76-.52-.36.39-.81,1.26-.63,2.39,1.49,2.88,2.29,1.06,1.68,1.72,2.62,3.81,3.07,2.67.57,4.88-.59,7.44-.59A.44.44,0,0,0,23.86,124.63Z"/><path class="cls-5" d="M47.93,178.07c-.66-.23-.9-1-1-1.72-.37-2.87,0-6.08-1.73-8.37A13.76,13.76,0,0,0,43.13,166,14.86,14.86,0,0,1,39,160.89a28.76,28.76,0,0,1-1.26-4c-1.81-6.32-5.14-12.14-6.87-18.49a11.54,11.54,0,0,1-.45-5.27c0-.18.11-.39.28-.44a.56.56,0,0,1,.31,0,6.48,6.48,0,0,1,3.09,3.34,12.52,12.52,0,0,0,2.5,3.9,30.81,30.81,0,0,0,3.4,2.07,10.33,10.33,0,0,1,3.76,5.52,49.39,49.39,0,0,1,1.34,6.66c.76,4.3,2,8.52,2.37,12.87a41.92,41.92,0,0,0,.39,4.62c.35,1.83,1.13,3.62,1,5.49,0,.29-.23.68-.49.55Z"/><path class="cls-2" d="M48.24,177.76c-2.23-2.18-.71-7.26-2.65-10a20.57,20.57,0,0,0-2.76-2.6,16.08,16.08,0,0,1-4.28-7c-1.51-4.43-3.12-8.72-4.86-13.07-.67-1.66-1.35-3.33-1.86-5-.89-3-1.9-7.64,1.91-3.72,1.09,1.12,1.33,2.86,2.56,4a16.81,16.81,0,0,0,2.35,1.47c5.19,3.4,5.3,8.88,6.4,14.42.93,4.7,1.62,9.25,2.19,14,.23,1.94,2.16,6.37.47,7.49-.47.31,0,1.08.44.76,2-1.34.94-3.23.48-5.47-1.32-6.44-2.09-13.19-3.22-19.7-.75-4.27-1.38-8.89-5.16-11.6-2.4-1.71-2.87-1.14-5-4.41-.72-1.1-1.06-2.38-2-3.38a4.25,4.25,0,0,0-2.39-1.6.47.47,0,0,0-.5.2c-1.6,2.46.36,7,1.21,9.47,1.87,5.31,4.37,10.33,6,15.74,1.2,4.09,3,6.05,5.84,9.11A10.8,10.8,0,0,1,46.11,172c.29,1.38,0,3,.39,4.32.38,1.16.23,1.16,1.12,2C48,178.78,48.65,178.16,48.24,177.76Z"/><path class="cls-2" d="M190,307a9.18,9.18,0,0,0-2.92.75c-1.28.65-2.15,1.58-3.68,1.66-.28,0-.28.46,0,.44a5.4,5.4,0,0,0,2.84-1,8.67,8.67,0,0,1,3.88-1.38c.28,0,.16-.47-.12-.43Z"/><path class="cls-2" d="M190.1,307.2c-1.77.75-2.87,2.78-3.52,4.49a9.89,9.89,0,0,1-.73,1.79c-.5.77-1.23,1.06-1.81,1.69s-.74.8-.55,1.59c.07.27.49.16.43-.12-.19-.78,1.51-1.88,2-2.49a5.25,5.25,0,0,0,.8-1.4c.76-1.9,1.54-4.29,3.62-5.17.26-.11,0-.49-.22-.38Z"/><path class="cls-2" d="M194.68,310.78a6.09,6.09,0,0,1-3.27,4c-1.3.62-2.49.43-3.86.53a2.92,2.92,0,0,0-1.29.31c-.82.47-1.46,2.46-2.8,1.79-.25-.13-.48.25-.22.38a1.44,1.44,0,0,0,1.6-.06c1.23-.72.91-1.7,2.71-2,.63-.1,1.34.09,2,0a6.41,6.41,0,0,0,5.56-4.88.22.22,0,0,0-.42-.11Z"/><path class="cls-2" d="M195.85,313a14.67,14.67,0,0,1-3.48,3.92c-.78.51-1.74.71-2.52,1.21a3.53,3.53,0,0,0-1.59,2.06.78.78,0,0,0,0,.37q.8,2-1.51,3.57c-.49.24-1.13.14-1.62.44a2.49,2.49,0,0,0-1.24,2.41c0,.28.43.28.44,0,.17-3,3.06-1.82,4.3-3.37.52-.65.36-1.21.44-2a1.7,1.7,0,0,0-.21-.61,2.92,2.92,0,0,1,2.09-2.93,27.36,27.36,0,0,0,2.42-1.34,20.15,20.15,0,0,0,2.88-3.55c.16-.23-.22-.45-.38-.22Z"/><path class="cls-2" d="M186,329.72c1-2.2,3.25-2.33,4.43-4.19.72-1.12.41-2.06.52-3.3.41-4.43,6.61-4.15,7.36-8.64,0-.28-.38-.4-.42-.12-.62,3.69-3.28,3.6-5.74,5.08a2.89,2.89,0,0,0-1.64,2,7.68,7.68,0,0,0,0,1.66c-.05,2.63-.62,3.38-2.48,4.64a5.63,5.63,0,0,0-2.41,2.62c-.12.26.26.48.38.23Z"/><path class="cls-2" d="M188.78,330.74c.14-1.71,1.89-1.57,2.68-2.64.63-.87.54-2.23.71-3.22.71-4.16,5-6.36,6.71-10.26.11-.26-.27-.48-.38-.22a15.79,15.79,0,0,1-4.22,5.67,5.76,5.76,0,0,0-2.23,3.2c-.2.69-.24,1.41-.42,2.09a4.81,4.81,0,0,1-1.57,3.23,3.17,3.17,0,0,0-.9.54c-.38.68-.75.69-.82,1.61,0,.28.42.28.44,0Z"/><path class="cls-2" d="M190.44,332.11c.59-.89,1.5-1.51,1.84-2.56a4.2,4.2,0,0,0-.26-2.83c-.09-.26-.52-.15-.42.12a3.53,3.53,0,0,1,0,3.12c-.41.72-1.11,1.23-1.56,1.92-.16.24.22.46.38.23Z"/><path class="cls-2" d="M194.12,331.45c-1.65-1.7-.21-3.79.73-5.29.1-.15.5-.28.54-.46.17-.78-.09-.61,0-1.44.64-4.32,1-2.9,2.68-5.48a7.88,7.88,0,0,0,1.11-3.47c0-.28-.4-.28-.44,0-.29,2.29-1.39,3.55-2.88,5.1a5.17,5.17,0,0,0-1.16,1.43c-.62,1.55.32,2.53-.64,4.27s-2,3.87-.29,5.65a.22.22,0,0,0,.31-.31Z"/><path class="cls-2" d="M196.19,330.59c-2.06-2.52,1.93-4.41,2.47-6.6.38-1.52-.54-3.19.05-4.75.41-1.09,1.69-2,2.23-3.14.12-.26-.26-.48-.38-.23-.67,1.36-2.12,2.41-2.58,3.86-.28.86-.08.78-.09,1.71a5.43,5.43,0,0,1,.07,3.12l-1.23,1.49c-1.22,1.6-2.32,3.05-.85,4.85.18.22.49-.1.31-.31Z"/><path class="cls-2" d="M200.36,325.76c-1.65-.34-1.79-2.06-1.38-3.46s1.65-2.16,2.28-3.42c.42-.84-.15-.94-.3-1.86,0-.28-.47-.16-.42.11s.38.76.38.95c0,.82-.76,1.35-1.2,1.93a6.24,6.24,0,0,0-1.31,2.83c-.27,1.56.19,3,1.84,3.35.27.05.39-.37.11-.43Z"/><path class="cls-2" d="M199.22,296.34c-1.7-.76-2.75-2.24-3.91-3.63a6.5,6.5,0,0,0-1.23-1.28c-.56-.38-2.22-.52-2.41-1-.1-.26-.53-.15-.42.12a1,1,0,0,0,.57.73,2.52,2.52,0,0,0,1,.19,3.12,3.12,0,0,1,2,1.36c1.25,1.49,2.35,3.09,4.18,3.91.25.11.48-.27.22-.38Z"/><path class="cls-2" d="M195,296.74a6.14,6.14,0,0,0-2-1c-1.2-.31-2.56-.12-2.58-1.85,0-1.19,0-1.7-1.34-1.82-.29,0-.28.42,0,.44,1.32.11.78,1.08.93,1.95a1.79,1.79,0,0,0,.71,1.17,2.91,2.91,0,0,0,1.29.4,6,6,0,0,1,2.75,1.12c.23.16.45-.23.22-.38Z"/><path class="cls-2" d="M191.91,298.85a13.39,13.39,0,0,0-1.64-1.28c-.79-.44-1.82-.22-2.2-1.28s-.61-1.91-2-2c-.28,0-.28.42,0,.44,1.89.11,1,2.08,2.24,2.77.35.19.8.1,1.17.21a6.18,6.18,0,0,1,2.08,1.44c.22.18.54-.13.32-.31Z"/><path class="cls-2" d="M201.27,302.38A45.25,45.25,0,0,1,186.66,301a.22.22,0,0,0-.12.42,45.14,45.14,0,0,0,14.73,1.41c.28,0,.28-.46,0-.44Z"/><path class="cls-2" d="M200.42,309c0,.5-6.75-3.17-7.53-3.6a20.68,20.68,0,0,0-6.75-2.89c-2.64-.45-5.35,0-8-.56-3.3-.66-6.31-2.3-9.25-3.86a.22.22,0,0,0-.22.38c3.82,2,7.59,3.91,12,4.21,4.15.29,7.32.57,11.15,2.6,2.92,1.55,5.76,3.29,8.63,4.93a.23.23,0,0,0,.34-.19l.08-1c0-.28-.42-.28-.44,0Z"/><path class="cls-2" d="M201,297.31c-1.82,2.65-5.13,2.44-8,2.16-.28,0-.28.41,0,.44,3,.3,6.43.41,8.35-2.38.16-.24-.22-.46-.38-.22Z"/><path class="cls-2" d="M158.26,301.21c-8.63-1.73-17.27-3.37-25.88-5.19a48.68,48.68,0,0,1-11.87-3.69c-3.54-1.76-6.5-4.49-10.1-6.13-2.79-1.28-5.86-1.81-8.77-2.73a64.62,64.62,0,0,1-12.79-5.87c-6.92-4-14.37-8.29-20.15-13.85-6.16-5.92-8.94-13.82-11.36-21.81-2.54-8.41-4.64-16.94-6.59-25.5-3.86-16.9-7.28-33.9-11.1-50.81-3-13.2-10.5-23.51-20.19-32.82-.2-.2-.51.12-.31.31A100.45,100.45,0,0,1,32,148.21c4.14,6,6.06,12.17,7.61,19.22,3.88,17.64,7.48,35.35,11.6,52.93,2,8.45,4.12,16.88,6.79,25.14,2,6.31,4.6,12.53,9.25,17.4,5,5.24,11.48,9,17.57,12.79a75.66,75.66,0,0,0,20,9.12c8.49,2.33,14.81,8.48,23.42,10.7,9.84,2.55,20,4.13,30,6.12.28.06.4-.36.12-.42Z"/><path class="cls-2" d="M162.87,295.23c-1.47,3.76-13.75,0-16.52-.49a111.72,111.72,0,0,1-13.26-3.31c-.27-.09-.39.34-.12.43,7.32,2.35,14.88,3.65,22.43,5,2.75.48,6.59,1.86,7.89-1.49.11-.26-.32-.38-.42-.11Z"/><path class="cls-2" d="M66,250.63a31.38,31.38,0,0,0-.81-8.08c-.89-3.09-3-5.3-4.57-8-3.7-6.45-5.28-14.93-6.68-22.17-1.29-6.69-1.59-13.38-4.73-19.54-1.8-3.51-3.81-6.74-5-10.55a69.63,69.63,0,0,1-2.34-12.49,46.51,46.51,0,0,1,.22-12.36,15.2,15.2,0,0,0-.27-6.19c-.81-3.12-2-6.18-3.06-9.23-2.55-7.52-5.16-15-7.64-22.57-.08-.27-.51-.16-.42.11C33,126.74,35.54,133.91,38,141.1c1,2.89,2.05,5.77,2.93,8.69,1.12,3.75.66,6.68.18,10.47s.06,7.56.57,11.31c.8,6,2,11.75,4.83,17.18,1.78,3.42,3.77,6.59,4.78,10.37.92,3.47,1.15,7.12,1.76,10.65A123.22,123.22,0,0,0,58.17,230a31.63,31.63,0,0,0,4,7.62c2.85,4.14,3.3,8.1,3.4,13a.22.22,0,0,0,.44,0Z"/><path class="cls-4" d="M69.94,360.08a6.64,6.64,0,0,1-2.06.59c-1.68,0-2.7-2-2.58-3.66s.93-3.22,1.2-4.87a1.27,1.27,0,0,0-.06-.82c-.27-.47-1-.47-1.47-.33-2.35.62-4.1,2.52-5.94,4.11s-4.26,3-6.6,2.32-3.59-3-4.61-5.15a2.25,2.25,0,0,0-1-1.23c-.67-.26-1.39.19-2.06.47a4.39,4.39,0,0,1-4.4-.73c-1.71-1.47-2.36-4.32-4.56-4.81-2-.43-3.66,1.37-4.72,3.08a33.26,33.26,0,0,0-4.95,15.16,25.6,25.6,0,0,1-.77,6.25c-.67,2-2.25,3.86-4.34,4.11-.85.1-1.7-.07-2.54,0a2.2,2.2,0,0,0-2,1.32c-.17.55,0,1.24-.44,1.63-.58.54-1.62,0-2.29.4a1.57,1.57,0,0,0-.55,1.27,19.92,19.92,0,0,0,1.25,7.17,50.93,50.93,0,0,0,10.32,4A2.78,2.78,0,0,1,26,391a3.33,3.33,0,0,1,.65,1.27,7.47,7.47,0,0,0,1.65,2.61,2.11,2.11,0,0,0,1.38.76c.83,0,1.43-.76,2-1.39a8.59,8.59,0,0,1,6.83-2.84l33.08-14.2a1.91,1.91,0,0,1-.76-2.12,9.81,9.81,0,0,1,1-2.18c1.52-3,1.11-6.59,1.19-10a2.89,2.89,0,0,1,.45-1.79,2.43,2.43,0,0,1,.54-.47C72.52,360.18,70.75,359.81,69.94,360.08Z"/><path class="cls-2" d="M69.47,358.38c-3.72,1.39-.41-6.13-1.51-7.95s-3.63-1.21-5.22-.44c-4.28,2.05-8.67,9.52-12.75,2.69-1.54-2.58-1.74-3.15-4.7-3.3-2.67-.14,1.42,4.61-4.89-1.28-.52-.48-.85-1.36-1.33-1.88a5.43,5.43,0,0,0-2.41-1.77c-2.42-.8-4.51.46-6.09,2.27-2.49,2.86-4.08,7.06-5.07,10.68-1.17,4.22-.19,12.16-4,14.38-1.77,1-3.31.61-5,1.58-.79.47-1.09,1.25-1.7,1.86-.46.46-.28.73-.67,1-.19.14-.82-.17-1.13.08A4,4,0,0,0,11.61,378c-.86,2.1,0,7.28,1.2,9,1.84,2.67,6.93,3.23,9.69,4.51,3.09,1.44,2.5,2.64,4.57,4.51a4.19,4.19,0,0,0,2.16,1.22,4.2,4.2,0,0,0,2.46-.63c.53-.26.78-.87,1.24-1.21,3.14-2.31,3.11-1.54,6.06-2.39a70,70,0,0,0,7.41-3.18l26.08-11.2c1.16-.5,1-2,.36-2.77-.46-.58,1.62-5.32,1.75-6.23.26-1.86-.73-6.56.69-7.8a1.77,1.77,0,0,0-.78-2.94,13.4,13.4,0,0,0-4.56-.62c-2.25.16-2.26,3.68,0,3.52a8.76,8.76,0,0,1,3.63.49l-.78-2.94c-2.7,2.35-1.17,6.94-1.79,10-.7,3.51-3.16,5.78-.65,9l.36-2.76L50.52,384.3,39.6,389a13.62,13.62,0,0,1-2.27.74,16.27,16.27,0,0,0-3.71.89c-1.14.54-2.51,2.38-3.62,2.64-1.84.43-1.51-2.55-2.73-3.56a11.21,11.21,0,0,0-3.84-1.55c-2.25-.73-5.51-1.36-7.13-3.14-1.1-1.2-1.94-4.54-.93-5.55.29-.3,1.54-.57,2-.88.32-.2.22-.74.47-1a5.86,5.86,0,0,1,2.49-1.28c2.47-.68,4.09-.93,5.63-3.29,1.74-2.65,1.61-5.8,1.88-8.84a34,34,0,0,1,1.26-6.64c.63-2.11,1.58-6.28,3.45-7.64,1-.7,3.73-1,4.46-.54.48.29.77,1.2,1.14,1.62a7.54,7.54,0,0,0,2.25,1.92,7,7,0,0,0,3.18.61c.33,0,.72-.22,1-.2,1.88.11,1.14-.12,2.32,1.12,2,2.14,2.88,4.46,6.18,4.8s5.8-1.94,8.24-3.89c.2-.16,2.61-2.33,3-2.07a23.75,23.75,0,0,0-.83,3.47,6.24,6.24,0,0,0,.83,3.58c1.45,2.29,3.72,2.28,6,1.43C72.51,361,71.6,357.59,69.47,358.38Z"/><path class="cls-1" d="M29.34,368a5.08,5.08,0,0,0,2.48,5.91A22.66,22.66,0,0,1,34.24,375c2.09,1.35,2.14,4.31,2.43,6.79.59,4.94,3,9.44,5.47,13.79,4.48,8.07,9.39,16.57,17.56,20.88a15,15,0,0,0,7.08,1.94c1.62,0,3.2-.41,4.81-.57,8.66-.88,16.64,4.59,25.23,6.07a63.91,63.91,0,0,1,6.48,1.08c3.65,1,6.78,3.34,10.31,4.7a41.35,41.35,0,0,0,10.61,2,3.8,3.8,0,0,0,2.41-.29,3,3,0,0,0,1-1.27c1.22-2.72.31-5.86-.11-8.81-.2-1.38-.23-2.95.7-4s3.1-.86,3.31.52l1.22-2.37c1.48.08,2.33,1.65,3.12,2.91s2.35,2.51,3.59,1.69a2.15,2.15,0,0,0,.59-2.55,6.83,6.83,0,0,0-1.71-2.23c-1.23-1.25-2.46-2.82-2.24-4.56s2.82-2.93,3.77-1.46a5.27,5.27,0,0,0-.54-5.5,14.22,14.22,0,0,0-4.43-3.75c-3.25-2-6.6-3.89-10-5.58a32.17,32.17,0,0,0-8.33-3.09c-2-.37-4-.43-6-.83-5-1-9.3-4.2-14.17-5.74-4.38-1.38-9.13-1.4-13.42-3-3.08-1.16-5.87-3.13-9.09-3.77s-6.69,0-9.45-1.67c-2.35-1.43-3.49-4.17-4.49-6.74l-3.07-7.91a6,6,0,0,0-1.39-2.37c-2.85-2.51-7.56,2-10.94.25-1.29-.66-2.67-2.17-3.83-1.31-.84.62-.71,2.14-1.65,2.59-1.31.64-2.61-1.59-4-1.2a2.37,2.37,0,0,0-.94.66A24.41,24.41,0,0,0,29.34,368"/><path class="cls-2" d="M27.64,367.52a7.36,7.36,0,0,0,.93,5.77c2,2.9,5.6,3.12,6.2,7.18.95,6.44,3.43,11.65,6.6,17.3,5.38,9.56,13.57,22.81,26.22,22.28,4.17-.18,7.32-.84,11.49.15,3.74.88,7.29,2.44,10.92,3.65a49,49,0,0,0,8.45,2c4.85.72,8.44,2.68,12.78,4.66a32.81,32.81,0,0,0,9.39,2.52c2.09.27,4.94,1.08,6.9-.13a6,6,0,0,0,2.3-4.18,14.62,14.62,0,0,0-.07-4.43c-.08-.66-.18-1.31-.31-2a2.72,2.72,0,0,1,.56-3.61,1.77,1.77,0,0,0,3,0l1.22-2.37-2,.81c2.8.86,4.17,7.21,8.24,4.28a3.66,3.66,0,0,0,1.43-3.23,4.62,4.62,0,0,0-.75-2.18,5.53,5.53,0,0,0-.64-1,5.32,5.32,0,0,1-1.93-4.56,1.79,1.79,0,0,0,2.94-.78c2.15-5.93-2.9-9.52-7.41-12.24-6.53-3.93-13-7.27-20.61-8.32s-14.07-5.82-21.73-7.24a48.33,48.33,0,0,1-12.45-3.79,25.73,25.73,0,0,0-8.73-2.27c-3.14-.31-5.6-.69-7.44-3.4-1.31-1.91-2-4.39-2.79-6.54-.94-2.4-1.65-5.88-3.55-7.71a5.33,5.33,0,0,0-4.36-1.42c-1.38.07-2.6.77-3.94,1-2.1.31-3.18-.41-5.09-1-1.52-.46-2.61-.86-4,.19-2.36,1.77-.27,1.47-3.39,1-4.23-.66-7.24,6.52-8.43,9.57-.81,2.11,2.59,3,3.4.94,1-2.67,2.63-6.47,5.64-6.38,1.13,0,2,.92,3.25.24,1.82-1,.75-2.1,3.22-1.58,1.47.3,2.37,1,4,.87,3.3-.25,5.7-2.54,8.12.86,1.69,2.37,2.32,6.14,3.47,8.84,1.65,3.88,3.85,6.85,8.17,7.72,2.68.54,5.43.22,8.06,1.05,3.17,1,5.94,2.93,9.14,3.89,2.76.83,5.65,1.07,8.45,1.66,3.85.8,7.18,2.44,10.73,4.08,5.07,2.35,10.13,2.36,15.34,4,4.52,1.41,22,8.38,19.52,15.09l3-.78a4.06,4.06,0,0,0-6.74,3.34c0,2.39,1.87,4.07,3.08,5.92,1.44,2.19-1.31-1.76-1.64-2a5.67,5.67,0,0,0-2.6-1.46,1.77,1.77,0,0,0-2,.81L130,416.94h3a3.77,3.77,0,0,0-6.35-.53c-1.25,1.56-1,3.52-.88,5.36.11,1.65,1.2,3.88.66,5.5-1.27,3.76-4.38,2.52-7.17,2-6.71-1.19-12-5.57-18.75-6.69-6.91-1.15-13-3.8-19.75-5.59a26.81,26.81,0,0,0-8.4-1c-3.81.21-7,1-10.66-.58-6.54-2.8-11-8.8-14.59-14.69s-7.59-12.16-8.69-19c-.34-2.13-.32-4.44-1.51-6.32-1.46-2.32-6.56-3.43-5.91-6.91.41-2.22-3-3.17-3.4-.94Z"/><path class="cls-1" d="M83.25,343.11c-1.44-3.95-5.92-5.71-9.9-7a21.29,21.29,0,0,1-1,5.75c-.39,1.17-1.6,2.55-2.59,1.81-.37-.27-.53-.77-.9-1-.89-.63-2,.4-2.75,1.13a6.53,6.53,0,0,1-8.13.41c-1.71-1.29-2.79-3.46-4.82-4.16-3.39-1.16-6.69,2.53-10.27,2.32-1.81-.1-3.48-1.21-5.28-1.13a6.33,6.33,0,0,0-4.51,2.9c-1.09,1.49-1.85,3.21-3,4.66a43.18,43.18,0,0,1-4.26,4.07,45.24,45.24,0,0,0-4.87,5.82L7.78,376.22A2.68,2.68,0,0,0,7,378.47c.25.82,1.18,1.19,1.7,1.86a11.68,11.68,0,0,1,1,2.42,6.4,6.4,0,0,0,2.82,2.57c.64.37,1.28.71,1.92,1.05a19.92,19.92,0,0,1-1.25-7.17,1.57,1.57,0,0,1,.55-1.27c.67-.44,1.71.14,2.29-.4.42-.39.27-1.08.44-1.63a2.2,2.2,0,0,1,2-1.32c.84-.08,1.69.09,2.54,0,2.09-.25,3.67-2.12,4.34-4.11a25.6,25.6,0,0,0,.77-6.25,33.26,33.26,0,0,1,4.95-15.16c1.06-1.71,2.76-3.51,4.72-3.08,2.2.49,2.85,3.34,4.56,4.81a4.39,4.39,0,0,0,4.4.73c.67-.28,1.39-.73,2.06-.47a2.25,2.25,0,0,1,1,1.23c1,2.15,2.32,4.5,4.61,5.15s4.75-.73,6.6-2.32S62.62,351.61,65,351c.52-.14,1.2-.14,1.47.33a1.27,1.27,0,0,1,.06.82c-.27,1.65-1.09,3.2-1.2,4.87s.9,3.65,2.58,3.66a6.64,6.64,0,0,0,2.06-.59c.81-.27,2.58.1,4.1.55.2-.14.42-.26.62-.41,1.4-1.06,1.7-3.05,2.84-4.39a21.35,21.35,0,0,1,2.89-2.26,9.54,9.54,0,0,0,3-5.27A9.25,9.25,0,0,0,83.25,343.11Z"/><path class="cls-2" d="M84.77,342.22c-2.13-4.49-6.47-6.31-11-7.83a1.78,1.78,0,0,0-2.22,1.7c-.08,1-.08,3.67-1.06,4.58-1.37,1.26-.12.06-1.26.24-1.44.24-1.81-.27-3.23.55-2,1.16-2.09,2.8-5.38,2-1.57-.35-2.66-1.9-3.78-2.89s-2.25-2.08-3.93-2.43a8.26,8.26,0,0,0-4.74.66c-2.93,1.09-5.06,1.69-8.2,1-3.62-.85-6.24.5-8.48,3.39-6.67,8.66-13.88,16.88-20.49,25.74-2.47,3.31-6.71,6.69-5.18,10.92,1.36,3.78,4.28,6.24,7.67,8a1.79,1.79,0,0,0,2.59-2c-.37-1.15-2.06-5.46-1.22-6.37.32-.35,1.53-.15,2-.48.69-.49.57-1.34,1.12-1.81,1.13-1,2.17-.6,3.43-1,5.71-1.71,5.94-6.94,6.41-12.06A32.67,32.67,0,0,1,31.37,352c1.29-2.46,3.54-4.35,6-2.15.67.6,1,1.54,1.72,2.14a6.55,6.55,0,0,0,5,1.46c2.33-.14,2-.5,3.27,1.6a9.6,9.6,0,0,0,2.6,3c4.49,3.17,8.5-.49,12-3.2s1.85-1.1,1.67,1.66a6.84,6.84,0,0,0,.12,2.21,4.63,4.63,0,0,0,3.69,3.61c1.53.22,3-.56,4.6-.43.85.07,1.62.63,2.49.4,2.12-.55,2.7-3,3.79-4.51,2-2.8,4.8-3.73,6.2-7.15a12.71,12.71,0,0,0,.46-8c-.52-2.21-3.91-1.27-3.4.93,1.44,6.19-2.48,7.56-5.57,11.37-1.74,2.15-3,4.5-6.27,3.41a2.93,2.93,0,0,0-1.25.41,3.69,3.69,0,0,1-.67-4.53c.16-1,.65-1.88.41-2.91a2.6,2.6,0,0,0-2.4-2.15c-1.64-.24-3.38,1-4.65,1.84-1.69,1.16-3,2.89-4.88,3.74-4.08,1.83-4.81-.5-6.93-3.37-.74-1-1.23-1.86-2.55-2.1-3.09-.56-2.29,2.64-6.39-1.18-.65-.6-1-1.6-1.61-2.24-9-8.94-14,15.1-14.54,19.93-.42,4.21-.66,5.73-5.17,7-.9.27-1.85.05-2.75.63a9,9,0,0,0-1.4,1.56,2.62,2.62,0,0,0-.3,1.3l-.91-.14c-1.2.93-1.81.81-2.25,2.56-.63,2.49.52,5.81,1.25,8.11l2.59-2a11.38,11.38,0,0,1-5.09-5.41c-1.4-2.89.21-3.85,2.06-6.33,3.54-4.73,7-9.51,10.61-14.2,2.88-3.76,6.82-6.54,9.48-10.41,2.29-3.33,3.32-5.4,8-4.92,1.88.19,3,.64,4.91.17,3-.74,5.44-2.74,8.66-1.12,1.36.69,2.22,2.54,3.63,3.36,2.76,1.63,5.56,1.22,8.36,0,1.52-.65,1.41-.89,3.09-.75.93.07,1.68.42,2.59,0,3.08-1.32,3.28-6.48,3.49-9.2l-2.23,1.69C76.5,339,80,340.29,81.73,344,82.7,346,85.73,344.25,84.77,342.22Z"/><path class="cls-5" d="M69.32,381.88c-2.93-1.23-6.1-1.78-9-3s-5.81-3.2-6.84-6.2a13.86,13.86,0,0,1-.56-4.26q-.09-3.31,0-6.63a21.86,21.86,0,0,0-1.34,6.07A9.8,9.8,0,0,0,52.57,373a10,10,0,0,0,4,8.92c3,2.33,6.89,3.21,10.68,3.49,2.84.21,5.83.1,8.35-1.25C73.38,384,71.39,382.74,69.32,381.88Z"/><path class="cls-2" d="M69.44,381.45c-4.13-1.57-8.93-2.14-12.46-4.93-4.53-3.58-3.76-9.51-3.72-14.7a.44.44,0,0,0-.86-.12c-2,6.21-1.91,15.3,3.33,20,5,4.5,14.09,5.47,20.11,2.8a.44.44,0,0,0-.11-.8,29.39,29.39,0,0,1-6.19-2.24c-.51-.24-1,.52-.44.76a26.24,26.24,0,0,1,3.19,1.43c1.91.29,2.09.63.56,1l-2.71.33a22.39,22.39,0,0,1-10.92-2,11.86,11.86,0,0,1-5.11-4.68c-2.49-4.59-.39-2.84-1.12-5.47-.52-1.9-1.13-2.83-1.07-5,0,.47,1-4.76.45-4.42s.07,6.84.29,8a9.34,9.34,0,0,0,2.65,4.92c3.64,3.62,9.32,4.21,13.9,5.95C69.74,382.5,70,381.65,69.44,381.45Z"/><path class="cls-5" d="M68.25,391.75a16.13,16.13,0,0,0-3.39-.57l-3.37-.32c-1.65-.16-3.51-.25-4.74.86a3.53,3.53,0,0,0-.93,3.48,5,5,0,0,0,2.3,2.89l.35-.33a3.1,3.1,0,0,0,1.35.22l-.48-1.72a3.54,3.54,0,0,1-.17-1.73,2.43,2.43,0,0,1,2.07-1.61,9.89,9.89,0,0,1,2.76.16,15.82,15.82,0,0,0,2.66.1,2.26,2.26,0,0,0,1.93-.8.45.45,0,0,0,.07-.31C68.63,391.89,68.43,391.8,68.25,391.75Z"/><path class="cls-2" d="M68.37,391.32a40.75,40.75,0,0,0-6.88-.9c-1.68-.13-3.59-.26-5,.92-2.54,2.18-.88,5.57,1.37,7.13a.46.46,0,0,0,.54-.07c.21-.21,1.05,0,1.38,0a.44.44,0,0,0,.42-.56l-.47-1.72,2.39-2.83c.65-.26,2,.24,2.73.29a6.3,6.3,0,0,0,3.33-.34c.8-.46,1.31-1.42.25-1.89-.51-.23-1,.52-.44.76s-3,.6-3.14.59c-.76-.05-1.51-.2-2.27-.25a4.2,4.2,0,0,0-2.9.59c-1.71,1.31-.8,3.32-.33,5l.43-.56-1.24-.21a.44.44,0,0,0-.42.12c-.09.08-4.3-3.42-.62-5.76a6.11,6.11,0,0,1,3.59-.42,39.1,39.1,0,0,1,7,.9C68.68,392.31,68.92,391.46,68.37,391.32Z"/><path class="cls-5" d="M124.87,409.92a5.34,5.34,0,0,0-3.11-2.24c-1.24-.39-2.56-.52-3.83-.82a15.33,15.33,0,0,1-6.7-3.44c-.31-.28-.74-.58-1.1-.38a1,1,0,0,0-.37.59c-.55,1.7-1.11,3.4-1.66,5.1a.66.66,0,0,0-.06.31c0,.51.81.47,1.27.26l0,0c.56-1,2-1.1,3.13-.91a15.22,15.22,0,0,1,6.48,2.7c1.29.93,2.42,2.06,3.76,2.91a5.92,5.92,0,0,0,4.51,1C125.53,414.12,125.82,411.6,124.87,409.92Z"/><path class="cls-2" d="M125.25,409.7a7.27,7.27,0,0,0-4.64-2.76c-1.26-.31-2.54-.44-3.79-.84-2.29-.73-3.28-2.18-5.37-3.06-3-1.26-3.41,3.56-3.83,5.88a.42.42,0,0,0,.11.43c-.32-.26,1.83.95,1.3.3a.44.44,0,0,0,.62,0c3.15-3.35,9.37,2.3,11.78,4a7.84,7.84,0,0,0,5.79,1.82c.34,0,.64-.48.31-.75-1.4-1.18-1.58-3.41-2.28-5-.22-.52-1-.07-.76.45a15,15,0,0,1,1.2,3.75c0,1,1.75.94-.68.68-2.68-.27-5-3.49-7.33-4.77a14,14,0,0,0-5.21-1.82c-.08,0-3.8-.18-2.84,1a.46.46,0,0,0-.43-.11c-1.23.21,0-3.42.57-3.86,1.78-1.5,3,.19,4.37.92,3.19,1.65,8,1.13,10.35,4.21C124.83,410.59,125.59,410.16,125.25,409.7Z"/><path class="cls-2" d="M33.74,362.68c-2.23.39-3.85-1.18-4.26-3.25-.24-1.25-.92-1.54-2.17-1.43-.28,0-.28.46,0,.44,1.11-.1,1.57.27,1.78,1.39a6.15,6.15,0,0,0,.18.71,4,4,0,0,0,1.11,1.59,4.1,4.1,0,0,0,3.48,1c.28-.05.16-.48-.12-.43Z"/><path class="cls-2" d="M32.62,360.41c-.4-.56.05-2.31,0-3a4.38,4.38,0,0,0-.81-2.15,8.88,8.88,0,0,0-1.17-1.05l-.53-.25L30,351.7A11.8,11.8,0,0,1,31,349.52c.13-.25-.25-.47-.38-.22-.55,1.15-2.37,3.43-1.29,4.7.25.29.74.36,1,.57a4.06,4.06,0,0,1,1.8,3.59c0,.92-.49,1.7.06,2.48.16.23.55,0,.38-.23Z"/><path class="cls-2" d="M31.17,356.05c-.36.13-3.65,1-3.46.07.05-.27-.37-.39-.42-.11-.36,1.77,3.32.71,4,.47.27-.1.15-.53-.11-.43Z"/><path class="cls-2" d="M36.06,360.75c-1.54-1.77-1.36-2.46-1-4.75,0-.3.38-.27.36-.77a1.26,1.26,0,0,0-.28-.65c-.54-.76-1.19-.44-1.77-1.45-.86-1.48-.06-.77.74-1.65.32-.35.27-.44.44-.85.29-.65.22-1.25.65-1.85A5.85,5.85,0,0,1,37,347.09c.26-.11,0-.49-.22-.38A7.64,7.64,0,0,0,34,349.55c-.07.13,0,.18-.06.27.15.86-.08,1.42-.67,1.69l-.66.37c-.3.43-.82.49-.81,1.14a1.62,1.62,0,0,0,.45.89c.35.38,1.26.23,1.53.5.75.77-.15,1.59-.18,2.06-.1,1.76,1,3.29,2.18,4.59.18.21.49-.1.31-.31Z"/><path class="cls-2" d="M39.05,358.25c-1.67.62-3.59-2.12-2.28-3.48.5-.52,1.36-.36,1.76-1,.12-.21.06-.53.17-.71.54-.82,1-.38,1.65-.45a2.1,2.1,0,0,0,1.46-.86c.18-.22-.13-.53-.31-.31-.86,1.06-2.56,0-3.15,1.19-.35.71.25.7-.9,1.34-.16.1-.37.12-.54.21a1.66,1.66,0,0,0-.82.89c-.7,1.78,1.13,4.35,3.07,3.63.27-.1.15-.53-.11-.43Z"/><path class="cls-2" d="M89,364.53l.09-.21c.11-.26-.32-.37-.43-.11l-.08.21c-.11.26.31.37.42.11Z"/><path class="cls-2" d="M44.21,358a4.72,4.72,0,0,1,.08-2.12c.45-.74,1.05,0,1.53.22a1,1,0,0,0,1.29-.24,1.33,1.33,0,0,0-.13-1.42c-.72-1-3.11-.54-3.11-2.08a.22.22,0,0,0-.22-.22l-2.55.21c-.28,0-.29.46,0,.44l1.27-.11c.15,0,.91-.16,1.06,0s.24.58.39.74a2.44,2.44,0,0,0,1,.58c.31.11.64.15,1,.25.59,0,.76.33.5.89.17.69,0,.86-.43.5-.52-.19-1-.8-1.6-.37s-.47,2.07-.43,2.78c0,.29.46.29.44,0Z"/><path class="cls-2" d="M13.43,381.86c1.22-.9,2.37-2,3.66-2.82.87-.53.56-.47,1.59-.46.58,0,.72.39,1.4.2s.65-.44,1.08-.91c.16-.18,0-.59.16-.8A9.56,9.56,0,0,1,24,374.15c.56-.37.86-.22,1.45-.71,1.24-1,1.37-2.51,3-3.33.25-.13,0-.51-.22-.38A4.84,4.84,0,0,0,26.66,371a20.22,20.22,0,0,1-4.17,2.88c-.43.28-.68.29-1,.77-1,1.28-.1,1.33-1.86,2.43-2.18,1.38-4.24,2.84-6.38,4.43-.23.17,0,.55.22.38Z"/><path class="cls-2" d="M15.29,384.65c1.93-.3,2.68-1.2,4-2.41,1.9-1.73,0,0,1.52-.55.6-.24.94-.18,1.44-.68.75-.74.62-1.69.93-2.63a4.34,4.34,0,0,1,2.72-2.78c.27-.1.73.19,1,0,2.05-1.41,1.13-4.07,2.79-6.13.18-.21-.13-.53-.31-.31a12.78,12.78,0,0,0-1.56,2.66c-.73,1.48,1.83,2.05-1.9,3.33-.38.13-.87-.14-1.31,0a2.16,2.16,0,0,0-1.22,1c-.78,1.22-.55,6.12-3.48,4.76a.24.24,0,0,0-.27,0c-1.42,1.51-2.15,2.9-4.45,3.26-.28,0-.16.47.11.43Z"/><path class="cls-2" d="M18.42,386.52a2.63,2.63,0,0,0,3.2-.76c.23-.25.34-.67.54-.94a2.57,2.57,0,0,1,2-2.18c.46-.9,1-1.29,1.74-1.19.4-.24.74-.1,1.1-.44,1.52-1.48.82-3.4,1.95-5.16.34-.53.7-.53,1-1.17.47-1.19-.1-2.75.12-4,.05-.28-.37-.39-.42-.12a16.16,16.16,0,0,0-.09,2.08c-.08,1.29-1.3,2.39-1.57,3.39-.06.21-.43.56-.5.81s0,3.52.26,1.73c-.43,2.71-3,1.68-4.35,2.7-1.86,1.4-1.09,6.48-5.45,4.81-.19-.08-.33.16-.24.32.18.36.13.31.49.48s.48-.25.23-.38Z"/><path class="cls-2" d="M22.77,390.47c-.29.55,1.07-2.58.6-1.89.81-1.62,1.47-2.1,2-1.43a1.41,1.41,0,0,0,.39.34c.07-.05.47.1.66-.08a3.54,3.54,0,0,1,.33-.38,6.11,6.11,0,0,0,.6-1.87,4.78,4.78,0,0,1,1.16-1.79c.92-1.7.92-4.91,3.09-5.62a.23.23,0,0,0,.15-.27,10.76,10.76,0,0,1,0-4.23c0-.27-.38-.39-.42-.11-.15,1,.1,2.39-.14,3.35-.43,1.67-.49.61-1.17,1.71a10.21,10.21,0,0,0-1,2.55,27.12,27.12,0,0,1-1.7,3.36c-.61,1.26-.34,2-1.89,2.27-.21,0-.45-.38-.71-.34-2.17.36-1.41,2.54-2.29,4.2-.13.25.25.48.38.23Z"/><path class="cls-2" d="M29,394.51c-.1-1.91-.33-3.38.42-5.13.47-1.08,1.09-2,1.6-3a32,32,0,0,0,2-4.65c.67-2.17,0-4.39.38-6.55,0-.28-.38-.39-.43-.12-.43,2.48,0-.39.07,3.44,0,2.15-.83,3.42-1.74,5.32-.68,1.39-1.31,2.59-2.16,4-1.26,2.09-.73,4.05-.59,6.69,0,.28.45.28.44,0Z"/><path class="cls-2" d="M34.26,390.09c.41-1.89,2.51-1.41,1.73-3.69-.28-.83-1-1.41-1.28-2.22a7.78,7.78,0,0,1,.33-6.39.22.22,0,0,0-.38-.22,8.33,8.33,0,0,0-.59,6.11c.18.7.62,1.18.84,1.82,1.17,3.36-.67,2.58-1.08,4.47-.06.28.37.39.43.12Z"/><path class="cls-2" d="M55.69,359c.86-.75,1.87-.2,2.8-.53a9.91,9.91,0,0,0,2.41-1.53,23.05,23.05,0,0,1,2.23-2.06,13,13,0,0,1,3.22-1.56.22.22,0,0,0-.12-.42,12.89,12.89,0,0,0-4.88,2.9,11.86,11.86,0,0,1-3.15,2c-1,.34-2,.13-2.82.84-.22.18.1.49.31.31Z"/><path class="cls-2" d="M57.81,359.8q2.19-1.79,3.12,0a1,1,0,0,0,.33.29,3.23,3.23,0,0,0,.42.2,5.5,5.5,0,0,0,2,.67,4.16,4.16,0,0,0,2.76-1.49c.16-.23-.22-.45-.38-.22a3,3,0,0,1-3.4.93,12.16,12.16,0,0,1-2.24-1.58,2,2,0,0,0-3,1c-.12.25.26.47.38.22Z"/><path class="cls-2" d="M59.91,357.48a10.07,10.07,0,0,0,3.37.17c.69-.14,1.64-.37,2-1,.13-.25-.25-.48-.38-.22-.33.63-1.4.8-2,.89a10.4,10.4,0,0,1-2.83-.21c-.27,0-.39.38-.11.42Z"/><path class="cls-2" d="M60.33,367.4a10.71,10.71,0,0,1,1-2.32c1.11-1.7,2.41-1.88,4.22-1.52.64.13,1,.42,1.7.24a5.76,5.76,0,0,0,1.42-1,10.85,10.85,0,0,1,4.21-1.63c.28-.05.16-.47-.11-.42a13.76,13.76,0,0,0-4.32,1.67c-1.11.57-.47,1.05-2.47.82-.57-.07-1.07-.47-1.68-.51-2.56-.15-3.67,2.53-4.36,4.53-.09.26.33.38.43.11Z"/><path class="cls-2" d="M62.47,371.75a5.36,5.36,0,0,1,.47-2.51,1.32,1.32,0,0,1,1.2-1.16c.48-.63,1-.74,1.53-.35.66-.05.54.33,1.26,0,.51-.19.5-.67.88-.87.68-.34.88.11,1.56,0,.31-.07,1.29-.64,1.58-.75a10,10,0,0,0,1.87-.69,2.16,2.16,0,0,0,.74-2.5c-.08-.27-.51-.16-.43.11,0,.07-2.08,2.3-2.09,2.31a6.49,6.49,0,0,1-.65.31c-1.41.68-1.67.08-2.4.37-.12.05-.18.12-.3.17s-.11.17-.15.19a.85.85,0,0,1-.88.47,1,1,0,0,1-1.41.22c-1,0-1.44-.1-2.14.8A6.67,6.67,0,0,0,62,371.75c0,.28.43.28.44,0Z"/><path class="cls-2" d="M64.54,373.65a4.26,4.26,0,0,1,1.12-3.08c.87-.65,2.07.06,3,.12a3.43,3.43,0,0,0,3-1.24c.18-.22-.13-.53-.31-.31-1.06,1.31-2.61,1.26-4.1.82-.6-.17-1-.34-1.56,0-1.15.65-1.56,2.52-1.59,3.7,0,.28.43.28.44,0Z"/><path class="cls-2" d="M66.83,372.45c1.33-.45,2.25,1.87,2.68,2.74a7,7,0,0,0,1.58,2.3c.21.19.52-.12.31-.31-1.11-1-1.48-2.41-2.25-3.63-.5-.81-1.37-1.88-2.44-1.52-.27.09-.15.52.12.42Z"/><path class="cls-2" d="M26.51,369a5.19,5.19,0,0,1,1-2.13c.53-.57,1.21-.51,1.81-.89a1.9,1.9,0,0,0,.76-2.21c-.08-.27-.51-.16-.42.11.32,1.06-.34,1.65-1.25,2a2.89,2.89,0,0,0-1,.53,5.24,5.24,0,0,0-1.28,2.51.22.22,0,0,0,.43.12Z"/><path class="cls-2" d="M26.84,361.93a1.59,1.59,0,0,1,1.05-.4c.28,0,.28-.45,0-.44a2.07,2.07,0,0,0-1.36.53c-.21.19.1.5.31.31Z"/><path class="cls-2" d="M43.21,361.44c3,7.64,6.6,13.95,14.17,17.77,8.42,4.25,18.3,6.3,27.34,8.81,3.79,1.05,7.42.52,11.11,1.39s6.94,3.07,10.42,4.35c5.22,1.9,10.64,3,15.74,5.29a61.85,61.85,0,0,1,13.75,8.6c.22.18.53-.13.31-.31a61.64,61.64,0,0,0-20-11c-4.81-1.55-9.63-2.76-14.26-4.85-2-.89-4.63-2.93-6.81-3.3a27.23,27.23,0,0,0-3.33.66,20.14,20.14,0,0,1-5.13-.76c-2.49-.57-5-1.42-7.4-2.14-4.62-1.34-9.28-2.59-13.85-4.07s-9.43-3.36-13.2-6.62c-4.27-3.68-6.41-8.81-8.45-13.92-.1-.26-.53-.14-.42.12Z"/><path class="cls-2" d="M38.71,361.86c3.19,9.14,7,18.92,16.8,22.6.27.1.38-.33.12-.43-9.61-3.62-13.36-13.31-16.5-22.29-.09-.27-.52-.15-.42.12Z"/><path class="cls-2" d="M31.61,363.56c2.93,1.9,6.69,5,8.33,8.13,2,3.9,2.17,8.69,4.06,12.73,3.42,7.27,8.63,13.4,16,16.6,4.51,2,8.27,5.22,12.81,7.06a38.32,38.32,0,0,0,11.91,2.26c11.13.8,23.4-.08,33.88,4.27.26.11.37-.31.11-.42-9-3.74-19.17-3.41-28.74-4-5.18-.3-10.55-.36-15.52-2-4.74-1.57-8.48-5-13-7.06-5.79-2.65-9.62-5.47-13.4-10.7a39.34,39.34,0,0,1-6.21-13.77c-1.53-6.06-4.75-10.06-10.07-13.51-.24-.15-.46.23-.22.38Z"/><path class="cls-2" d="M61.87,395.88a159.13,159.13,0,0,0,44.63,10.46c.28,0,.28-.41,0-.44A158.23,158.23,0,0,1,62,395.45c-.26-.1-.38.32-.12.43Z"/><path class="cls-2" d="M78.86,394c8.67.25,16.63,3.7,25.09,5.11,4.87.81,8.73,1.59,13.26,3.81,3.89,1.92,7.74,3.95,11.61,5.92.25.13.47-.25.22-.38-4.34-2.21-8.64-4.54-13-6.64-3.9-1.85-7.7-2.43-11.93-3.13-8.5-1.42-16.51-4.88-25.21-5.13-.28,0-.28.43,0,.44Z"/><path class="cls-2" d="M102.9,420.72c3.11-4.67,8.82-.56,12.8-.05a11.39,11.39,0,0,0,7.41-1.73.22.22,0,0,0-.23-.38,11.23,11.23,0,0,1-9,1.27c-1.92-.52-3.72-1.51-5.72-1.7a5.56,5.56,0,0,0-5.62,2.37c-.16.24.22.46.38.22Z"/><path class="cls-2" d="M112.13,424.52c5.45.73,9.64-3.66,15-3.7a.22.22,0,0,0,0-.44c-5.29,0-9.49,4.43-14.86,3.71-.28,0-.4.39-.12.43Z"/><path class="cls-2" d="M57.92,407A46.1,46.1,0,0,0,77,413.13c8.33.91,16.36,3.1,24.8,2.27.28,0,.28-.47,0-.44-7.47.73-14.65-.9-22-1.92-3.55-.49-7.21-.54-10.69-1.39-3.92-1-7.51-3-11-5a.22.22,0,0,0-.22.38Z"/><path class="cls-2" d="M57,408c-1.58-2.74-7.67-5.21-6.51-8.87A.22.22,0,0,0,50,399c-1.28,4.06,4.89,6.32,6.56,9.21A.22.22,0,0,0,57,408Z"/><path class="cls-2" d="M41,388c1.5-5-2.23-9.5-5.34-13-.18-.22-.49.1-.31.31,3,3.37,6.68,7.66,5.22,12.57A.22.22,0,0,0,41,388Z"/><path class="cls-1" d="M223.36,125.25c2.57.37,3.18-4.44,8.77-6.24,3.23-1.05,6.37-.55,11.07.27a22.5,22.5,0,0,1,6.17,1.75,39.12,39.12,0,0,1,5,3.28c7.2,5,15.79,7.43,23.68,11.21.53.26,1.05.52,1.56.82a27.11,27.11,0,0,1,3.48,2.77c3.83,3.29,8.18,5.93,12.19,9s5.78,5.92,9.82,11.34A369.19,369.19,0,0,0,329.66,189c9.39,9.89,8.89,7.25,14.53,14,8.76,10.55,8.07,14.65,17.59,27.12,8.07,10.57,9,8.24,14.37,16.63,6.45,10.12,6.11,15.18,12.75,24.53,3.45,4.86,5.69,6.52,7.43,11.46.82,2.34,1.1,4.21,2.74,5,2.41,1.17,6.25-.72,8.56-3.07,3.09-3.14,2.26-5.93,4.84-7.1,2.84-1.3,5.49,1.34,7.1,0,.54-.45,1.6-1.87-.16-7.27A39.34,39.34,0,0,0,409.73,255c-10.12-10.22-16.63-16-16.63-16-18.89-16.74-20.85-18.76-23.08-21.31-6.82-7.79-5.38-8.17-12.6-16.47-8.05-9.25-11.87-11.1-20.5-19.85-8.16-8.28-5.28-7.61-17.11-20.5a197.06,197.06,0,0,0-20.19-19.2c-8.76-7.21-13.15-10.81-17.48-12-2.95-.81-7.56-1.46-11.62-4.78a41.2,41.2,0,0,0-4.55-3.44,41.73,41.73,0,0,0-5.46-2.9c-6.88-3.19-10.33-4.79-10.95-5-5.2-2.12-7.81-3.18-10.13-3.47-4.68-.58-5.29.8-10.1.26-6.19-.7-7.94-3.28-9.68-2.18C216,110.47,219.05,124.63,223.36,125.25Z"/><path class="cls-2" d="M223.36,127c3.41-.06,4.64-3.74,7.25-5.37,6.16-3.86,16.29-.35,21.66,3.32s11.22,6.27,17.26,8.78c3,1.26,6.39,2.35,9.19,4.12,3.11,2,5.82,4.71,8.82,6.87,5.48,3.92,10,7.47,14,12.9,2.29,3.08,4.6,6.16,7,9.2,7.77,9.95,15.82,20.06,25.11,28.63,6.47,6,12.08,11.49,16.47,19.36,5.08,9.1,10.44,17.89,18,25.16s10.56,16.47,15.18,25.56c2.67,5.25,6.82,9.35,9.75,14.38,2,3.46,2.14,9.38,7.09,9.94s8-3.59,10.83-6.84c.35-.42.34-1.19.71-1.59,5-5.36,2.84-1.3,5.92-1.76,1.47-.21,2.64-.05,3.65-1.36,2-2.67.26-7.37-.74-10a40.68,40.68,0,0,0-8.11-13c-11.56-12.71-25.27-23.23-37.6-35.12a88.22,88.22,0,0,1-10.74-13.32c-6.55-9.35-15.24-16.32-23.36-24.17-5.79-5.6-10.1-12.06-15.31-18.14a218.62,218.62,0,0,0-28.6-27.41c-3.82-3.1-7.74-6.61-12.35-8.48-2.13-.86-4.41-1.18-6.6-1.89-3.26-1.06-5.64-2.83-8.3-4.87-5-3.88-11.09-6.22-16.84-8.85-3.85-1.76-7.88-3.74-12.06-4.55-5.48-1.07-10.58.85-16.08-1.11-2.72-1-5.34-2.27-7.27.73-3.1,4.78-.36,17.15,5.56,18.81a1.76,1.76,0,0,0,.94-3.39c-3.23-.91-4.14-8-4-10.71.07-2,0-2.93,1.85-2.86,2.23.09,4.87,1.76,7.22,2,3.95.49,7.8-.82,11.72.06s7.62,2.74,11.22,4.4c4.9,2.26,10.15,4.25,14.57,7.39,3.89,2.76,7.14,5.35,11.88,6.67,10.18,2.83,17.9,10.22,25.7,17.16a170.09,170.09,0,0,1,22.74,24,117.51,117.51,0,0,0,13.88,15.71c8,7.42,15.85,14.45,22,23.56A72.85,72.85,0,0,0,371.66,222c11,10.88,23.15,20.62,34.15,31.57a56.65,56.65,0,0,1,8.07,9.29,31.83,31.83,0,0,1,4.32,9.6c.14.56.75,2.43.42,3-.84,1.39-1.77.2-3.4.12-4.57-.23-5.31,2.2-7.25,5.67a10.75,10.75,0,0,1-3.52,3.79l-2.19,1.07q-3.5.64-3.79-2.45c-1.21-2.09-1.62-4.46-3-6.54-3-4.54-6.61-8.45-9.1-13.35-2.36-4.63-4-9.56-6.5-14.12-4.18-7.64-10.39-12.54-15.69-19.24-6.39-8.07-10.29-17.6-16.48-25.75-4.39-5.78-9.91-9.86-14.95-15A299.24,299.24,0,0,1,308,160.39c-2.56-3.37-4.89-7-7.75-10.1-4.38-4.78-10.31-7.8-15.27-11.89s-10.25-6.28-16.13-8.72a86.15,86.15,0,0,1-10.64-5c-2.79-1.62-5.24-3.84-8.16-5.23a31.76,31.76,0,0,0-16-2.62,13.08,13.08,0,0,0-6.22,2.47c-1.06.8-3.17,4.19-4.52,4.22C221.1,123.52,221.09,127,223.36,127Z"/><path class="cls-2" d="M326.9,166.54a29.68,29.68,0,0,0,10.89,2.85c1.42.09,3.27-.29,4.61.3.26.11.48-.27.22-.38-1.64-.72-3.63-.26-5.39-.41a30.69,30.69,0,0,1-10.11-2.74c-.25-.12-.48.26-.22.38Z"/><path class="cls-2" d="M351.73,174.33c4.25,4,11.66,4.15,17.15,4.6.28,0,.28-.42,0-.44-5.3-.44-12.72-.58-16.84-4.47-.2-.2-.52.12-.31.31Z"/><path class="cls-2" d="M375.34,182.32a81.11,81.11,0,0,1,14,1.4c.27.05.39-.37.11-.42a81.31,81.31,0,0,0-14.1-1.42c-.28,0-.28.43,0,.44Z"/><path class="cls-2" d="M302.9,148.89c3,.67,5.57,5.18,7.38,7.39l6.19,7.56L328.85,179q12.76,15.57,25.49,31.18c8,9.8,15.71,19.62,22.08,30.56a357.7,357.7,0,0,0,20.63,31c.16.23.54,0,.38-.22-7.69-10.54-14.89-21.22-21.5-32.47-6.29-10.72-14.08-20.31-21.9-29.93q-13-16-26.1-31.93l-13.62-16.63L308.12,153c-1.59-1.94-2.61-3.94-5.1-4.48-.28-.06-.39.36-.12.42Z"/><path class="cls-1" d="M207,69.85c-2.21.82-11,3.33-13.4,3.24a18.19,18.19,0,0,1-7.45-1.56,11.26,11.26,0,0,1-5.73-7,14.69,14.69,0,0,1-.26-5.72,11,11,0,0,1,1.3-4.2c1.72-3,5.16-4.36,7.73-6.59A25.67,25.67,0,0,0,193,43.73c1-1.33,2.08-2.79,3.7-3.08a5.82,5.82,0,0,1,1.56,0,32.13,32.13,0,0,1,5,.88,27.75,27.75,0,0,0,4.57,1,45,45,0,0,0,4.92-.15,19.36,19.36,0,0,1,4.73.56,16.18,16.18,0,0,1,4.76,1.87,12.26,12.26,0,0,1-.63,21.25"/><path class="cls-2" d="M206.57,68.15c-5.19,1.83-11.5,4.09-17,2.7a9.93,9.93,0,0,1-7.71-10.62c.29-5.68,4.24-7.36,8.08-10.53s5.37-8,11.17-6.86c3.47.7,6.38,1.48,10,1.43,5.1-.08,10.64.75,13.59,5.49,3.3,5.32,1.12,11.66-4,14.82-1.93,1.19-.16,4.23,1.77,3,8.84-5.48,10-18.53.63-24.29-6-3.66-13-2-19.41-3.5-2.65-.63-5.95-1.62-8.58-.46-1.95.86-3.09,2.82-4.37,4.41-3.6,4.48-10,6.52-11.72,12.38-1.39,4.62-.79,9.94,2.39,13.69,6.63,7.83,17.91,4.59,26.15,1.7,2.12-.75,1.21-4.15-.94-3.4Z"/><path class="cls-1" d="M361.18,241.52a2.46,2.46,0,0,1,2.3-.1,8.44,8.44,0,0,1,2,1.33,30,30,0,0,0,5.33,3.35,6.46,6.46,0,0,1,2,1.3c.63.69.9,1.64,1.47,2.38,1.19,1.51,3.32,1.79,5.06,2.6a.93.93,0,0,1,.48.41.92.92,0,0,1-.08.7c-.93,2.24-2.57,4.27-2.75,6.69a5.8,5.8,0,0,1-.37,2.43c-.46.84-1.45,1.21-2.14,1.87-1.48,1.41-1.5,4-3.16,5.17-.61.44-1.37.62-2,1a23.43,23.43,0,0,0-2.65,2.44,9.73,9.73,0,0,1-4.48,1.71,42.19,42.19,0,0,1-9.91.55,2.61,2.61,0,0,1-1.17-.27,6.87,6.87,0,0,1-.66-.55,5.69,5.69,0,0,0-1.52-.81,38.25,38.25,0,0,1-10.53-6.45,1.25,1.25,0,0,1-.4-.51,1.23,1.23,0,0,1,0-.66,8.68,8.68,0,0,1,1.52-4c.31-.37.68-.69,1-1.05,2.11-2.42,1.63-6.61,4.26-8.46,1.07-.75,2.58-1,3.16-2.21a4.12,4.12,0,0,1,.54-1.14c.28-.31.92-.33,1,.08"/><path class="cls-2" d="M361.65,243.21c1.89-.56,4.11,2,5.51,2.87a28.75,28.75,0,0,1,5.63,4.59,12.49,12.49,0,0,0,2.95,2.19c2.52,1.53,1.46-.18,1.19,2.36-.29,2.75-2.57,6.23-3.94,8.37a26,26,0,0,1-6.26,7c-8,6.12-17.79,2.42-25-2.9-3.24-2.39-1.66-2.38.32-5.74a21.06,21.06,0,0,0,1.76-3.68,27.49,27.49,0,0,1,1-3,9.1,9.1,0,0,1,3.17-2.41c1.14-1.05,1.86-1.15.63-2,1.87,1.29,3.63-1.76,1.78-3-1.17-.81-2-.53-3.17.2a39.93,39.93,0,0,0-3.34,3.07,10.54,10.54,0,0,0-1.48,1.43c-1.92,2.48-2.28,5.77-4.13,8.35-1,1.44-2.14,3.43-2,5.25.25,4.19,7.19,6.9,10.37,8.53,2.71,1.39,4.28,2.46,7.31,2.55a36.68,36.68,0,0,0,9.52-.86c2.93-.7,4-2,6.18-3.69s3.4-1.81,4.72-4.24c1.11-2,3-3.32,4-5.32.51-1,.39-2.93.63-3.85.48-1.77,2-3.28,2.4-5.07.31-1.43.3-2-.77-3-.59-.55-1.45-.6-2.13-1-2.79-1.61-3-2.69-4.87-4.37s-5-3-7.25-4.55c-2-1.36-3.24-2.12-5.65-1.41-2.16.64-1.24,4,.94,3.39Z"/><path class="cls-1" d="M231.31,109.28a14.23,14.23,0,0,0-3.9-3.83c-2.1-1.3-2.72-.79-5.34-1.86-3-1.21-5.42-3.35-8-5.19-1.4-1-3.12-1.91-4.72-1.35a5.53,5.53,0,0,0-2.15,1.67c-2.67,3-5.12,6.22-6.29,10a33.43,33.43,0,0,0-1.11,7c-.22,2.5-.42,5.09.46,7.44a16.41,16.41,0,0,0,2.19,3.69,28.88,28.88,0,0,0,2.42,3c3.78,3.9,9.34,5.46,14.72,6.2a7,7,0,0,0,3.23-.08,5.44,5.44,0,0,0,3-3.16,21.53,21.53,0,0,0,1.32-4.31c1.19-5.24,7-5.09,8.07-9.55C236,115.66,233.48,112.27,231.31,109.28Z"/><path class="cls-2" d="M232.55,108c-3.72-4.67-7.52-4.55-12.41-7.45-4-2.35-8.42-7.8-13.24-4.09-9.28,7.13-12.33,23.29-5.1,32.5,4.77,6.09,20.84,14.5,25.61,4.53,1.26-2.63,1.16-5.41,3.35-7.56,1.55-1.53,3.61-2.21,4.94-4,3.3-4.54-.13-9.74-2.87-13.55-1.32-1.82-4.37-.07-3,1.77s3.35,4.15,3.64,6.43c.47,3.61-1.83,4.34-4,6a10.48,10.48,0,0,0-3.65,4.32c-.55,1.32-.52,2.91-1.18,4.18-2.33,4.47-7.1,3.15-10.46,2.14A18.78,18.78,0,0,1,203.93,126c-2.74-3.78-2.76-7.58-2.25-12,.58-5.06,4.13-16.87,11.46-14.08,3,1.15,5.33,4.14,8.47,5.37,3.71,1.45,5.83,1.95,8.45,5.24C231.47,112.3,234,109.8,232.55,108Z"/><path class="cls-6" d="M216.28,101.31c.1.27.24.65.38,1.13,1,3.49.55,5.44,1.4,5.81.67.29,1.05-.9,2.47-1.19,2.31-.47,3.44,2.21,6.67,2.26.83,0,2.3-.13,2.48-.75.28-1-2.94-2.72-4.79-3.71A46.57,46.57,0,0,0,216.28,101.31Z"/><path class="cls-6" d="M220.32,124.77c.4-.38,1.58,1.35,3.39,1.07,1.57-.24,1.74-1.71,4.73-4.09,2.46-2,3.28-1.69,3.55-1.56a1.24,1.24,0,0,1,.7,1c0,1.45-3.84,1.17-5.16,3.61-.9,1.66.15,3.15-1.29,5.7-.46.81-.72.93-.86,1C223.4,132.05,219.55,125.48,220.32,124.77Z"/><path class="cls-4" d="M189.73,71.42c-.66-1.58.64-4.35,1.14-5.41a14.55,14.55,0,0,1,2.62-3.7A37.11,37.11,0,0,1,212.31,51c2.94-.71,6.22-1,8.82.53a10.92,10.92,0,0,1,3.49,3.69,8.09,8.09,0,0,1,1,2,6.46,6.46,0,0,1-.71,4.67,11.1,11.1,0,0,1-3.13,3.67C216,69.71,191.92,76.67,189.73,71.42Z"/><path class="cls-2" d="M190.58,71.18c-1.47-8.58,12.49-16.28,18.91-18.45,5-1.68,11.43-2.6,14.37,2.92,2.29,4.31-.35,7.81-3.91,10-4.33,2.63-9.77,4.08-14.65,5.28-3,.73-12.8,3.67-14.81.07-.55-1-2.07-.1-1.52.89,2.8,5,13.9,1.49,17.91.45,6.36-1.65,16.49-3.94,19.17-10.9,1.42-3.7-.37-7.44-3.35-9.84-4.14-3.34-9.89-1.91-14.43-.27-7.26,2.64-21,10.77-19.39,20.35C189.07,72.77,190.77,72.29,190.58,71.18Z"/><path class="cls-4" d="M350.68,249.74c-.69,2-.37,2.51-1.2,3.83-.68,1.08-.84,1.19-2.9,2.87-1.26,1-2.67,2.25-2.73,3.89,0,.85.34,1.69.28,2.55a5.16,5.16,0,0,1-1.15,2.46,68.26,68.26,0,0,1,7.15,2.13,25.47,25.47,0,0,0,4.7,1.58,26.07,26.07,0,0,0,4.51.15,6.76,6.76,0,0,1,2.61.38c1.13.47,2.1,1.49,3.31,1.42-.14-.61-.28-1.21-.43-1.82a6.76,6.76,0,0,1-.25-2.56c.46-2.74,4-3.82,5.2-6.33a21.76,21.76,0,0,1,.93-2.28,1.66,1.66,0,0,1,2.09-.78,2.6,2.6,0,0,0,.5.31c.44.11.83-.37.86-.82a5.14,5.14,0,0,0-.29-1.31,1.15,1.15,0,0,1,.31-1.22,1.42,1.42,0,0,1,.67-.17l2.79-.23a17.27,17.27,0,0,1-4-.35,5.92,5.92,0,0,1-3.36-2.06c-.32-.43-.55-.91-.83-1.36a10,10,0,0,0-5-3.93c-1.15-.44-2.37-.7-3.5-1.19a5.16,5.16,0,0,1-2.73-2.36,8.61,8.61,0,0,0-4.16,1.71A11.19,11.19,0,0,0,350.68,249.74Z"/><path class="cls-2" d="M349.83,249.5c-.49,1.72-.72,3.24-1.9,4.66-.95,1.13-2.38,1.81-3.35,2.92-2.23,2.55-.59,5.05-2.36,7.81a.89.89,0,0,0,.53,1.3c4,1,7.93,3,12,3.73,1.55.26,3.09,0,4.63.16,2.24.28,3.64,1.35,5.69,1.77a.89.89,0,0,0,1.08-1.08c-1.21-5.15,3.77-9.61,7.19-12.35.4-.32,1-.2,1.34-.63,1.17-1.36.22-2.89,3-3.12a.88.88,0,0,0,0-1.76c-3.35-.07-5-1-7.43-3.33-.82-.8-1-1.43-1.9-2.21-2.57-2.26-7.44-2.5-9.35-5.28a.91.91,0,0,0-1-.4c-4.4,1-6.69,3.62-8.14,7.81-.38,1.07,1.32,1.53,1.69.47.94-2.7,3.39-7.12,6.75-5.81.65.25,1.51,1.16,2.22,1.5,1.69.82,3.63,1,5.25,2,2.44,1.52,3.23,4.26,5.61,5.72,1.9,1.16,4.13,1.21,6.29,1.25v-1.76c-1.58.13-4-.28-4.64,1.59-.17.49.26,1.8.14,1.93s-1.49-.17-1.93,0c-1.1.45-1.2,1.4-1.75,2.25a35.66,35.66,0,0,1-4.06,4.87c-2.23,2.45-1.71,4.61-1,7.68l1.08-1.09c-1.68-.34-2.93-1.39-4.59-1.73a25.76,25.76,0,0,0-3.83-.09c-4.69-.24-9.33-2.65-13.87-3.84l.53,1.29a9.52,9.52,0,0,0,1.27-2.9c.44-1.54.11-3.5,1.24-5a24,24,0,0,1,2.55-2.15c1.74-1.72,2.07-3.46,2.72-5.76A.88.88,0,0,0,349.83,249.5Z"/><path class="cls-2" d="M354.31,245.36a8.11,8.11,0,0,0,1.42-1.82c.25-.37.38-.58.84-.62s1.05,0,1.56.05c1.13,0,1.13-1.72,0-1.76s-2.29-.27-3.16.48-1.09,1.77-1.91,2.42.37,1.94,1.25,1.25Z"/><path class="cls-2" d="M358.72,243a7.65,7.65,0,0,0,2.27-.42c1.07-.37.61-2.07-.46-1.69a6.31,6.31,0,0,1-1.81.35c-1.13,0-1.14,1.8,0,1.76Z"/><path class="cls-2" d="M396.81,209.88a.88.88,0,0,0,0-1.76.88.88,0,0,0,0,1.76Z"/><path class="cls-1" d="M254,133A159.12,159.12,0,0,0,268,144.43a185.82,185.82,0,0,0,19.21,11.95,224,224,0,0,0,22.92,11.3c.07,1-13.18-14.38-23.73-22.92-19.7-16-44.68-25.74-44.68-25.74C241.15,119.94,246.36,126.05,254,133Z"/><path class="cls-2" d="M252.71,134.22c16.61,15,36.3,26.63,57,35.15l-.78-2.94,0,0,2.13-.28c-1.54-.72-3.06-3-4.22-4.25-2.84-3-5.68-5.93-8.6-8.82a143.63,143.63,0,0,0-21.71-17.8,185.9,185.9,0,0,0-34.26-18,1.76,1.76,0,0,0-2.17,1.23c-.32,1.83,1,3.33,2.07,4.7a95.6,95.6,0,0,0,10.62,11c1.66,1.53,4.16-.95,2.49-2.49-2.7-2.49-5.35-5-7.84-7.74-.7-.76-4-4.42-3.94-4.5l-2.17,1.23a181.65,181.65,0,0,1,34.8,18.57,144.68,144.68,0,0,1,21.64,18.35c2.69,2.71,5.31,5.49,8,8.23,1,1.07,2.18,2.73,3.55,3.37a1.83,1.83,0,0,0,2.14-.27l0-.05a1.79,1.79,0,0,0-.77-2.94c-20.05-8.28-39.28-19.72-55.4-34.25C253.52,130.21,251,132.7,252.71,134.22Z"/><path class="cls-1" d="M306,147.17c-.86,1.39,7.68,5.51,16.89,17.11,3.44,4.33,5.68,8.08,11,10.82,2.7,1.4,4.59,1.82,8.71,2.59,14.72,2.73,13.64,4.39,25.35,6.13,8.88,1.32,9.66.39,16.62,2.1,5.08,1.24,4.94,1.81,13.24,4.36,7.34,2.25,13.19,3.57,18.08,4.68,7.5,1.69,5.43.92,11.95,2.42,6.31,1.45,8.28,2.18,11.62,1.61s3.1-1.5,7.42-2.42a34.87,34.87,0,0,1,9.37-.64c5.14.38,7,1.78,8.07.64,1.24-1.3.3-4.76-1.62-6.78a8.8,8.8,0,0,0-5.16-2.42c-.93-.14,6.31,1-21.15-6.94-10.7-3.1-13.43-3.74-14.69-4-7-1.61-6.32-1-10.81-2.26-7.4-2-9.34-3.39-17.12-5.48a71.92,71.92,0,0,0-7.26-1.46c-28.08-4.78-28.87-4.3-36.48-6.13a240.35,240.35,0,0,1-30-9.36C309.1,146.7,306.41,146.46,306,147.17Z"/><path class="cls-2" d="M304.28,146.7c-1,3.18,5.57,6.78,7.35,8.36a82.1,82.1,0,0,1,8.79,9c2.81,3.36,5.18,7.17,8.62,10,6.29,5.12,14.33,5.28,21.87,7.3,5.85,1.57,11.39,3.47,17.43,4.32,6.46.92,12.87.87,19.13,2.94,7.54,2.49,14.95,5,22.69,6.87,6.55,1.56,13.17,2.69,19.72,4.22,2.82.66,5.67,1.45,8.58,1.21,3.17-.25,5.8-1.94,8.86-2.61,4.84-1.06,9.19-.53,14,.25,2.1.34,4,.33,4.94-1.87,2.45-5.48-4-10-8.36-11l-.47,3.46a1.87,1.87,0,0,0,1.82-2.73c-.72-1.46-3.85-2-5.15-2.43-12.6-4.22-25.54-8.17-38.63-10.6-7.66-1.42-14.7-4.85-22.24-6.67-8.25-2-16.82-3-25.2-4.3a222.21,222.21,0,0,1-29.7-6.3,180.85,180.85,0,0,1-20.79-7.41c-2.34-1-10.24-5.69-12.8-2.76-1.49,1.7,1,4.2,2.49,2.49-.48.54-.36.14.72.41a29.75,29.75,0,0,1,3.2,1c2.93,1.07,5.71,2.46,8.58,3.64,4.75,2,9.69,3.53,14.59,5.06a178.54,178.54,0,0,0,26.46,6.28c13.19,2,26.9,3.29,39.53,7.7,9.62,3.36,19.5,5,29.28,7.8,7.88,2.22,15.8,4.43,23.58,7,.71.24,2.52,1.3,3.23,1.17,1.05-.19.73-2.91,1-2.92-1.93.05-2.46,3-.47,3.45.13,0,.33,0,.43.08.3.2,1,.15,1.31.29.69.28,4.81,2.77,4.28,4.5-.61,2-5.67.29-7.53.2a35.9,35.9,0,0,0-8.21.6c-2.87.53-5.42,2.12-8.27,2.58-5.23.83-11.15-1.83-16.29-2.75-6.18-1.11-12.32-2.57-18.37-4.22-5.64-1.54-11-3.65-16.61-5.38-4.76-1.48-9.5-1.81-14.42-2.25a78.8,78.8,0,0,1-16.82-3.4c-5.84-1.84-11.84-2.64-17.72-4.21-8.85-2.35-12.93-10.59-18.75-16.84a90.68,90.68,0,0,0-8.09-7.59c-.93-.78-1.84-1.62-2.81-2.33s-1.1-1.71-1.41-.7C308.33,145.46,304.93,144.53,304.28,146.7Z"/><path class="cls-1" d="M218.8,51.72c3.36,2.81-1.32,8.26,2.79,18.91,1.66,4.3,4.56,9.18,8.21,14.82L233,90.36c9.5,14.72,17.85,23.06,15.79,22.24-1.46-.57-9.23-3.65-14.32-4.46-3.82-.25-15.75-24.39-15.75-24.39a51.27,51.27,0,0,0-3.28-5,60.66,60.66,0,0,0-4.52-5c-2.67-2.82-5.56-5.44-8.16-8.33-1.41-1.59-2.29-2.66-3.95-3.13-2.57-.73-4.81.71-4.78.43C194.14,61.6,212.94,46.81,218.8,51.72Z"/><path class="cls-2" d="M217.56,53c1.41,1.43.66,4,.55,5.8a30.57,30.57,0,0,0,.55,8.21c1.33,6.2,4.84,11.81,8.17,17.11,4.23,6.71,8.59,13.33,13.38,19.66,1.44,1.89,2.91,3.76,4.38,5.62a18.41,18.41,0,0,0,1.68,2.14c1.14,1.06.52,2.15,2,.46s.62-.91-.57-1.64a19.9,19.9,0,0,0-3.67-1.34c-2.76-1-5.87-1.36-8.55-2.42-3.06-1.21-4.85-4.91-6.54-7.66-3.34-5.44-6-11.22-9.18-16.74-3-5.3-7.48-9.5-11.76-13.78-2.28-2.26-4.39-5.56-7.24-7.13-2.54-1.39-4.3-.35-6.79-.27l1.52,2.65c1.13-2.58,6.47-5.21,8.73-6.61,3.28-2,9.9-6.44,13.68-3.78,1.85,1.31,3.61-1.75,1.77-3-4.58-3.22-11.26.36-15.41,2.71-3.27,1.85-10.19,5.23-11.81,9A1.78,1.78,0,0,0,194,64.5c3.19-.1,4.23-1,7,1.64,2.16,2.08,4.19,4.36,6.31,6.49a62.83,62.83,0,0,1,8.48,9.75c2.59,4,4.51,8.44,6.83,12.59,2.46,4.43,5.36,11.25,9.79,14.13,2.58,1.69,6.51,1.87,9.44,2.84,2,.68,5.42,2.86,7.67,2.39a1.74,1.74,0,0,0,1.23-1.23c.55-2.23-2.78-5.11-4-6.62-5.35-6.79-10.24-13.83-14.92-21.1-4.49-7-9.87-14.54-10.27-23.12-.18-3.89,1.56-8.67-1.52-11.78A1.76,1.76,0,0,0,217.56,53Z"/><path class="cls-1" d="M163.72,181.24c1.8-.26,2.57,1.38,7.58,3.87a58.48,58.48,0,0,0,6,2.42c4,1.43,7.09,1.84,24.05,3.72a55.25,55.25,0,0,1,8.88,1.45c2.54.66,3.52,1.15,7.58,2.42,5,1.57,6,1.6,7.91,2.26,5.38,1.83,7.19,4.68,12.27,8.72,2,1.6,2.34,1.63,15.82,9,17.49,9.61,16.44,9.29,17.92,9.84,3.9,1.48,3.43.8,25,4.52,11,1.9,13.31,2.45,18.24,2.42,7.89,0,8.52-1.49,13.88-.8,9.51,1.22,16.33,6.92,18.24,8.55,6,5.15,5.05,7.72,11.3,11.63,3.22,2,5.86,2.81,6.62,5.48s-.4,6.1-2.9,7.11c-2.77,1.11-5.81-1.49-6.14-1.78-2.86-2.51-2.12-5.4-4-9.68-1.84-4.12-4.74-6.44-7.59-8.72a34.68,34.68,0,0,0-15.5-6.78,40.55,40.55,0,0,0-15.17.48c-16.21,2.92-31.34-.57-40-2.58-14.61-3.37-25.49-5.88-34.06-14.69a118.21,118.21,0,0,0-15.66-13.56,28.94,28.94,0,0,0-10.5-4.84,27.2,27.2,0,0,0-6.45-.65c-16.66.18-27.44,2.23-38.91-1.45-7.6-2.44-9-5.31-9.36-6.3C156.84,188.55,160.29,181.73,163.72,181.24Z"/><path class="cls-2" d="M163.72,183c2.34-.08,5.36,3,7.5,4a52.45,52.45,0,0,0,7.67,2.88c5.26,1.47,10.92,1.82,16.32,2.43,5.2.59,10.49.9,15.54,2.35,3.91,1.13,7.73,2.55,11.68,3.62,6.69,1.8,10.33,6.48,15.83,10.21,4.6,3.1,9.79,5.49,14.64,8.16,5.43,3,10.78,6.19,16.28,9.05,5.09,2.65,11.14,2.86,16.7,3.75,8.34,1.35,16.71,3.36,25.13,4.08,6.93.59,13.79-1.76,20.61-.12,8.34,2,14.74,7.17,19.81,13.82a24.92,24.92,0,0,0,7.41,6.37,10.5,10.5,0,0,1,3.43,2.5l1,1.14q1.15,5-5.33,4.18c-2.45-1.12-2.65-4.26-3.31-6.5-4.49-15.35-23.59-21.87-38-19.8-11.3,1.62-21.86,2-33.16,0-9.17-1.66-18.64-3.65-27.41-6.82s-14.27-8.81-20.9-14.84c-7-6.31-14.61-12.74-24.26-13.91-10.67-1.3-21.59,1.14-32.32.31-5.27-.41-11.6-1.46-16-4.62-3.91-2.81-3.63-10.8,1.52-12.32,2.17-.63,1.25-4-.93-3.39-5.89,1.73-8.68,10.54-5.57,15.65,3.61,5.93,13.42,7.47,19.63,8.08,10.74,1.07,21.52-1.19,32.23-.34,11,.87,19.87,9.54,27.27,16.9,13.28,13.21,33.1,17.08,51.13,19.54a91.32,91.32,0,0,0,16.19.85c5.51-.24,10.85-1.65,16.33-2,10.09-.62,21.1,3.33,27.61,11.34,3.61,4.45,4.78,19.48,14.5,16,2.65-.94,4.16-3.79,4.38-6.46.31-3.91-2-6-5.09-7.85-7.33-4.45-11.29-12-18.58-16.6a32.2,32.2,0,0,0-22.21-4.92c-9.06,1.19-17.77-.91-26.67-2.42-6.34-1.08-12.87-1.7-19.14-3.11a15.47,15.47,0,0,1-4.57-1.69c-7.28-3.94-14.46-8.07-21.72-12a88.42,88.42,0,0,1-15.3-10.42,25.71,25.71,0,0,0-10.31-5.18c-4.76-1.28-9.38-3.18-14.19-4.25-9.14-2-18.69-1.68-27.83-3.76a42.88,42.88,0,0,1-8.84-3.14c-2.65-1.27-5.65-4.36-8.78-4.26C161.46,179.55,161.45,183.07,163.72,183Z"/><path class="cls-3" d="M217.47,108.87c.11-2.37,0-4.63-1.3-6.34a8.56,8.56,0,0,1-1.34-2,2.86,2.86,0,0,0-.72-1.28l-.42-1.2c-2,4.08-1.49,8.92-.9,13.43.39,2.94.77,5.88,1.33,8.79a20.67,20.67,0,0,0,1.8,5.78,21.2,21.2,0,0,0,5.89,6.38,5.58,5.58,0,0,0,1.73,1l.44,1.5c-.1-.49-.2-1-.29-1.47l.12,0a1.77,1.77,0,0,0,2-.86C220.32,126.81,215.15,120.77,217.47,108.87Z"/><path class="cls-2" d="M217.91,108.87c.1-4.74-2.33-6.77-3.8-11a.44.44,0,0,0-.85,0c-2.94,7.12-1,16.66.75,23.94a16.8,16.8,0,0,0,4.2,8c1.54,1.61,4.72,3.11,5.34,5.24a.44.44,0,0,0,.85-.23c-.69-3.49-1.16,1.58.62-1-.05.07,2.3-2,1.06-.87a.44.44,0,0,0,0-.62c-6.43-6.93-9.82-13.66-8.18-23.35.09-.55-.76-.79-.85-.23-.83,4.92-.83,9.76,1.23,14.4a26.46,26.46,0,0,0,3.19,5.21c.38.51.79,1,1.19,1.48.11.13,3.31,3.75,1.14,3.2a.44.44,0,0,0-.54.54c.25,1.22,1.62.69.63-.42-.84-.94-2.45-1.61-3.45-2.49-4.67-4.08-5.76-9.07-6.62-14.94-.42-2.84-.86-5.71-1-8.58-.08-1.2.37-8.44.69-8.42,0,0,1,2.06,1,2,1.6,2.82,2.66,4.76,2.58,8.16A.44.44,0,0,0,217.91,108.87Z"/><path class="cls-5" d="M407.54,258.8a8.78,8.78,0,0,0-2-2.22Q396,248,386.5,239.43c-1.74-1.55-3.86-3.22-6.13-2.71l-.26.55c1.15,7.55,7.56,13,11.19,19.76,2.37,4.37,3.63,9.42,6.91,13.16.68-1.24,1.37-2.48,2.06-3.72a3.15,3.15,0,0,1,.94-1.19c.77-.51,1.79-.26,2.72-.28a4.22,4.22,0,0,0,3.61-6.2Z"/><path class="cls-2" d="M407.92,258.58c-4-5.41-10.25-9.7-15.24-14.18-3.34-3-7.32-8.36-12.31-8.12a.45.45,0,0,0-.38.22c-1.92,4,4.59,11.44,6.67,14.32,4.47,6.18,6.52,13.78,11.24,19.68a.44.44,0,0,0,.69-.09c1.57-2.84,1.73-3.16,5.46-5,1.67-.82,1.25.22,2.8-1.13,1.76-1.51,1.77-3.56,1.11-5.61-.17-.54-1-.31-.85.23,1.11,3.42-5.35,5.17-7.15,7.24-.35.41-1.09,2.5-1.45,2.58-1.35.29-2.69-2.93-3.09-3.75-2.77-5.62-5.22-10.74-8.92-15.86-2-2.8-4.17-5.73-5.25-9.05-.75-2.34-1.89-4.42,2.77-2,1.87,1,3.56,3,5.1,4.34,5.8,5.21,13.42,10.37,18,16.64C407.49,259.47,408.25,259,407.92,258.58Z"/><path class="cls-5" d="M449.14,193.16c-8.92-.92-17.88-1.85-26.83-1.3l.36.14a1.43,1.43,0,0,0-1.45,1.19,2.19,2.19,0,0,0,1.4,2.08,6.86,6.86,0,0,0,2.63.39,91.16,91.16,0,0,1,11.56,1,29.32,29.32,0,0,0,4.85.49,12.67,12.67,0,0,0,8-3.1.58.58,0,0,0,.21-.28C449.94,193.38,449.48,193.2,449.14,193.16Z"/><path class="cls-2" d="M449.14,192.72c-8.94-.92-17.84-1.75-26.83-1.3a.45.45,0,0,0-.12.87c-.77-.3-1.57,0-1.21,1.64.58,2.61,4.3,2.14,6.2,2.22,6.33.29,18.16,4.28,23.06-2.21a.46.46,0,0,0,0-.44c-.29-.58-.35-.56-1-.76s-.77.67-.23.85a8.17,8.17,0,0,1-4.6,2.68l-2.76.39a41.88,41.88,0,0,1-6.7-.74c-1.63-.19-3.25-.36-4.88-.48-1-.08-1.93-.13-2.9-.17q-3.15.61-4.4-2.84a.44.44,0,0,0,0-.85c2.92,1.11,8.2.56,12,.77,4.8.26,9.58.76,14.36,1.25C449.7,193.66,449.7,192.78,449.14,192.72Z"/><path class="cls-5" d="M389.69,174.49c-.74-2.4-3-4-5.18-5.19a34.7,34.7,0,0,0-8.53-3.53,50.12,50.12,0,0,0-5.86-1L360,163.46c-1.06-.14-2.34-.19-3,.66s-.05,2.43,1,3a4.38,4.38,0,0,0,2,.4c9.65,2.27,18.48,8.33,28.4,8.31.5,0,1.12-.09,1.3-.56A1.14,1.14,0,0,0,389.69,174.49Z"/><path class="cls-2" d="M390.07,174.26c-2.93-6.41-12.11-8.82-18.47-9.73-2.24-.32-15.64-4.15-15.32.78.14,2.13,2.41,2.39,4,2.78,5,1.24,9.7,3.32,14.54,5.13,1.83.69,15.6,6,15.34,1.27,0-.57-.91-.57-.88,0,.16,2.85-15.08-2.44-16.55-3-2.33-.91-4.64-1.88-7-2.72-1.14-.41-5-.88-5.67-1.7l0-3.15,1.69.22a15.66,15.66,0,0,1,3.37.44c2.88.37,5.78.67,8.63,1.18,5.42,1,13.19,3.64,15.63,9C389.55,175.22,390.3,174.77,390.07,174.26Z"/><path class="cls-2" d="M352.14,255.12c-.15,2.27-3.75,3.5-5.15,5-1.59,1.65-1.8,3.81-3.91,5.25-.17.12-.12.42.11.41a6.82,6.82,0,0,0,4.51-1.32c1.42-1.1,2.38-2.72,4.05-3.54,2.35-1.16,1-.23-.09,1.1-.54.68-3.61,5.49-1.6,6,1.81.5,3.54-3,4.4-4,1.51-1.69.16-1.1.15.66a5.65,5.65,0,0,0-.07,1,5.53,5.53,0,0,0,3.19,3.52.23.23,0,0,0,.34-.19c.07-.77,1.09-7.08,1.3-4.09a.25.25,0,0,0,.17.21c-1.13-.42,4.53,4.77,4.58,4.94s.46.21.44-.05c-.16-1.45-2.27-8.56.36-5.57.16.18.49-.07.34-.27-1.63-2.28,3.78-3.9,5.17-5,.13-.1.15-.36-.06-.4a14.33,14.33,0,0,0-2.14-.38c-1.57-.12-3,.82-1.13-1.47,1.34-1.69,4.26-1.85,5.95-3.14a.22.22,0,0,0,0-.38c-1.21-.92-1.75-1.56-3.12-1.4-2.94.36-3,4.14-1.55-.94.34-1.16,1.38-1-.17-2.33-1.1-1-1.73-.7-2.7.07-.13.1-1.73,3.08-2.12,2.81-.79-.55,1.45-3.32,1.47-3.56.13-1.2.39.1.14-1s-.77-1.43-1.6-1.23c-.67.17-3.24,5-2.89,2.2.1-.81,1.53-1.72,1-2.73s-.84-.5-1.89-.42c.11,0-2.43,1.72-2.52.3,0-.18.83-.45.86-.63.19-1.56.66-.37.31-2.09-.06-.28-.48-.16-.43.12.43,2.1-4.39,2.71-3,4.69.55.78,1.65.42,2.34.2.34-.11,1.71-1.38,1.84-1.38,3-.09-.1,2.88-.07,3.46s-.37,1.33,1,1.15,1.79-2.76,2.61-2.83c2.55-.23.15,1.83.06,2.49-.31,2.29-.25-1.9-.31,1.95a.23.23,0,0,0,.33.19,32.77,32.77,0,0,0,2.74-1.87c1.53-.87-.88-1.67,1.46-.4,1.85,1-.16,1.13-1.05,2.12a5.94,5.94,0,0,0-1.24,2.27.21.21,0,0,0,.21.27,8.8,8.8,0,0,0,3-1.09c5.85-2.49,3-.39.66,1.4-1,.8-3.29,2-2.9,3.49a.23.23,0,0,0,.21.16,9.81,9.81,0,0,1,1.79,0c3.46,1-.79,1.16-1.92,1.78-.32.17-.91.07-1.15.36-1,1.25.07,3.83,0,1.2a.22.22,0,0,0-.33-.19c-2,1.25-.82,7.1,0,6.93-.81.16-4.36-4.94-4.29-5.4,0-.18-.15-.36-.32-.25a3.06,3.06,0,0,0-1.61,2.07c-.12.36-.46,2.35-.17,2.14l-2.21-.69a10,10,0,0,1,0-5,.23.23,0,0,0-.37-.22c-1.41,1.18-.64,3.92-2.95,4.56a10.7,10.7,0,0,1-1.43-1.08c0-2.33,2.56-4.18,4.07-5.61a.22.22,0,0,0-.21-.37,14.42,14.42,0,0,0-4.87,2.6c-.57.48-5.15,5.44-5.55,3.34,0-.09.78-.89.82-1,1-3,3.53-4.15,5.76-5.86a3.54,3.54,0,0,0,1.73-3.07c0-.28-.42-.28-.44,0Z"/><path class="cls-2" d="M159.68,188.13c14,.14,26.65,8,40.75,8.71,8.93.42,17.1,1,25,5.49,6.68,3.81,12.18,9.18,17.57,14.58,4.53,4.54,9.13,8.85,15.14,11.34,7.32,3,15.67,4,23.46,5.11,8,1.14,16.14,1.88,24.25,2.22s16.08-.3,24,.54c10.35,1.09,17.8,5.31,22.55,14.77,2.53,5,5.37,10.13,11.47,10.86.28,0,.28-.41,0-.44-9.19-1.1-10.17-11.72-15.31-17.52-3.65-4.11-9-6.41-14.27-7.48-7.1-1.43-14.46-.86-21.66-1a250,250,0,0,1-25.21-1.66c-8.57-1-17.58-2.07-25.86-4.67-8.65-2.71-14.45-8.67-20.7-14.85-9.66-9.57-20.08-16.63-34-17.48-9.07-.56-17.25-1.33-25.93-4.15-6.95-2.26-13.94-4.77-21.32-4.84a.22.22,0,0,0,0,.44Z"/><path class="cls-2" d="M364.47,259.82a30.87,30.87,0,0,1-4-3.05c-1.32-1.2-3.27-2.78-3-4.77,0-.28-.39-.4-.43-.12-.24,1.67.77,2.89,1.88,4a30.75,30.75,0,0,0,5.29,4.29c.24.16.46-.22.22-.38Z"/><path class="cls-2" d="M321.4,161.44c9.84-1.05,21.33,3,30.51,6.4,4.17,1.54,8.09,3.73,12.33,5.1,5.16,1.66,10.64,2.51,15.93,3.65,9.09,2,18.13,4.25,27.43,4.93a197.41,197.41,0,0,1,33.52,5.73.22.22,0,0,0,.12-.42c-9.94-2.49-19.83-4.78-30.08-5.51-11.17-.8-21.87-3.22-32.8-5.57-4.95-1.06-10.09-1.85-14.89-3.52-4.46-1.55-8.63-3.85-13.1-5.4-8.88-3.07-19.48-6.84-29-5.83-.28,0-.28.47,0,.44Z"/><path class="cls-2" d="M396,184.06c6.69,1.52,13.48,1.52,20.3,2a58.86,58.86,0,0,1,11.94,2.06,14.28,14.28,0,0,0,6.67.8c.28,0,.16-.47-.11-.42-3.69.55-7.07-1.15-10.58-1.87a62.14,62.14,0,0,0-7.92-1c-6.78-.51-13.53-.51-20.19-2-.27-.07-.39.36-.11.42Z"/><path class="cls-2" d="M407.83,189c5.38-.94,11.43.21,16.91.13.28,0,.28-.45,0-.44-5.51.08-11.62-1.06-17-.11-.28.05-.16.47.12.42Z"/><path class="cls-2" d="M379.14,170.88c7.86,1.45,17.06,2,24,6.26.24.15.46-.23.22-.38-7-4.36-16.12-4.84-24.07-6.3-.28-.05-.4.37-.12.42Z"/><path class="cls-2" d="M405.45,283c-1.72-1.86-2.32-3.41-1.45-5.95a8.09,8.09,0,0,0,.87-2.88c-.06-2-2.08-3.71-3.23-5.11-.18-.22-.49.09-.31.31.54.65,1.1,1.3,1.63,2a16.48,16.48,0,0,1,1.07,1.42l-.41,4.07c-.22.69-.8,1.24-.85,2-.12,1.64,1.34,3.37,2.37,4.48.19.21.5-.1.31-.31Z"/><path class="cls-2" d="M404.78,268.25a4.13,4.13,0,0,0,.65,4.22c1.5,1.79,4.31,1,5.05,3.61a.22.22,0,0,0,.42-.11,3.39,3.39,0,0,0-2.6-2.49c-2.38-.61-4.15-2.54-3.09-5.12.1-.26-.32-.37-.43-.11Z"/><path class="cls-2" d="M411.89,263.89a12.08,12.08,0,0,1,4.54,4.18c.15.23.53,0,.37-.23a12.44,12.44,0,0,0-4.69-4.33c-.25-.13-.47.24-.22.38Z"/><path class="cls-2" d="M348.6,194.71l-.26-.26a.25.25,0,0,0-.22-.06l-.39.13a.23.23,0,0,0-.17.21c-.51,4.71,4.75,9.1,7.71,12,5.52,5.42,9.81,11.94,14.75,17.88,5.27,6.35,11.09,12.19,16.42,18.48s10.11,12.69,15.11,19.07c.17.23.48-.09.31-.31-9-11.47-18.37-22.32-27.92-33.3-4.82-5.55-9.12-11.47-13.74-17.17a81,81,0,0,0-6.13-6.44,34,34,0,0,1-3.23-3.56,12.21,12.21,0,0,1-1.53-2.18,5,5,0,0,1-1-4.19.22.22,0,0,0,.31-.31Z"/><path class="cls-2" d="M220.47,118.53c5.42-3.63,13.84-5.41,20.34-4.66,3.6.42,6.8,2.5,10,4.13s6.89,3,9.45,5.46c.2.19.51-.12.31-.32-2.62-2.53-6.33-3.88-9.54-5.52s-6.49-3.89-10.13-4.27c-6.61-.7-15.13,1.11-20.63,4.8-.24.15,0,.53.22.38Z"/><path class="cls-2" d="M265,126.44c12.61,5.2,23.73,12.26,33.2,22.16.2.21.51-.1.31-.31-9.51-9.94-20.72-17-33.4-22.28-.26-.11-.37.32-.11.43Z"/><path class="cls-2" d="M294.33,141c1.79,1.77,3.67,3.45,5.62,5,.22.18.53-.13.31-.31-1.95-1.59-3.83-3.27-5.62-5a.22.22,0,0,0-.31.31Z"/><path class="cls-2" d="M224.22,124.26a6.39,6.39,0,0,1,1.3-3.55c.72-1,2.11-3.14,3.64-2.64.27.09.38-.33.12-.42-1.58-.51-2.76,1-3.61,2.14a7.43,7.43,0,0,0-1.89,4.47.22.22,0,0,0,.44,0Z"/><path class="cls-2" d="M221.61,110.57c.83-.36,2.08.83,2.77,1.2a9.24,9.24,0,0,0,1.92.72,22.46,22.46,0,0,0,4.4.56c.28,0,.28-.42,0-.44-2.26-.14-4.62-.29-6.6-1.51-.92-.57-1.6-1.38-2.72-.91-.26.11,0,.49.23.38Z"/><path class="cls-2" d="M211.62,53.5a8.72,8.72,0,0,0,.21,5.53,2.94,2.94,0,0,0,1,1.1,4.59,4.59,0,0,1,2.24,4.22c0,.28.45.28.44,0a5.42,5.42,0,0,0-1-3.57c-.77-.85-1.95-1.25-2.47-2.38a8.67,8.67,0,0,1,0-4.79c.07-.27-.36-.39-.42-.11Z"/><path class="cls-2" d="M232.05,95.62a12.67,12.67,0,0,0,1.1,3.12c.56,1.14,1.14,2.26,1.74,3.37,1.21,2.23,2.52,4.39,3.89,6.52.16.24.54,0,.38-.22a100.36,100.36,0,0,1-7.24-13.33c-.1-.24-.45-.06-.4.17l.1.49c.06.28.49.16.43-.12Z"/><path class="cls-2" d="M202.79,60.4c3.16-2.14,7.27,10.49,7.66,12.1a.22.22,0,0,0,.42-.11,30.8,30.8,0,0,0-4.32-10c-.88-1.31-2.18-3.57-4-2.35-.23.16,0,.54.23.38Z"/><path class="cls-2" d="M192.71,72.39a5.52,5.52,0,0,1-.29-2.23c.17-1,1.07-1.44,1.24-2.43.1-.63-.09-1,.16-1.68s.67-.81,1.29-1.25a2,2,0,0,0,.9-1c.1-.26-.32-.38-.42-.12-.37,1-1.58,1-2.12,1.8a1.84,1.84,0,0,0-.24.64,4.26,4.26,0,0,0,0,1.07,2.67,2.67,0,0,1-.83,1.93,4.51,4.51,0,0,0-.1,3.41.22.22,0,0,0,.42-.11Z"/><path class="cls-2" d="M195.81,73.19a3.87,3.87,0,0,1-.56-2.78c.2-1.21,1.14-1,1.61-1.86.08-.15.09-.35.17-.49v-.43a4,4,0,0,1,.9-1.63,7,7,0,0,0,.92-2.39c.05-.28-.37-.4-.42-.12a10.68,10.68,0,0,1-1.83,3.7,1.27,1.27,0,0,1-.86,1.36,1.26,1.26,0,0,0-.26.13c-.11.14-.23.25-.33.4a4.51,4.51,0,0,0,.28,4.33c.17.22.55,0,.38-.22Z"/><path class="cls-2" d="M197.84,73.15a19,19,0,0,1,.72-3.36c.6-1.32,2.5-1.62,3.52-2.57.21-.19-.1-.5-.31-.31-1,1-2.83,1.19-3.52,2.5a15.35,15.35,0,0,0-.83,3.62c-.07.28.36.4.42.12Z"/><path class="cls-2" d="M221.57,62.73c-.73-.79,0-3.47.6-4.15s1.31-.95,1.83-1.63a5.32,5.32,0,0,0,.88-1.9.22.22,0,0,0-.42-.12A4.84,4.84,0,0,1,223,57.37a7,7,0,0,0-1.46,1.26,3.6,3.6,0,0,0-.4,1.21c-.17.86-.55,2.47.11,3.2.2.21.51-.1.32-.31Z"/><path class="cls-2" d="M252.32,124.23c2.73,3.51,5.31,7.77,9.1,10.27,4,2.65,8.83,4.27,13,6.71,8.26,4.79,16.14,10.16,25.22,13.3.27.09.39-.34.12-.43-9.06-3.12-16.89-8.48-25.12-13.25-3.79-2.21-7.89-3.81-11.7-6-4.45-2.5-7.27-7-10.33-11-.17-.23-.48.09-.31.31Z"/><path class="cls-2" d="M286,151.7a53.79,53.79,0,0,0,21,9.41c.28.06.39-.36.12-.42a53.58,53.58,0,0,1-20.89-9.37c-.23-.16-.45.22-.22.38Z"/><path class="cls-2" d="M224.21,129.94c.48-1.79,1-3.26,2.75-4.17a.22.22,0,0,0-.22-.38c-1.82,1-2.44,2.52-3,4.43a.22.22,0,0,0,.43.12Z"/><path class="cls-2" d="M219.33,102c1.46,1.83,2.22,4.4,3.13,6.53.11.26.49,0,.38-.22-.93-2.18-1.7-4.76-3.2-6.62-.18-.22-.49.09-.31.31Z"/><path class="cls-2" d="M223.41,103.78l3.26,4.75c.16.23.54,0,.38-.22l-3.26-4.75c-.16-.23-.54,0-.38.22Z"/><path class="cls-1" d="M367.22,6.32c-1.3-.75-2.86-.9-4.25-1.47s-2.32-1.34-3.52-1.93c-3.1-1.53-6.77-1.36-10.15-.67s-6.67,1.87-10.1,2.29a12.21,12.21,0,0,0-4.74,1.07c-1.61.95-2.56,2.76-4.14,3.75s-3.72,1.06-5.17,2.28c-1.08.91-1.6,2.3-2.39,3.47-1.42,2.08-3.74,3.41-5.2,5.47A8.49,8.49,0,0,0,324.67,34a16.5,16.5,0,0,1,3.51-.07,32.83,32.83,0,0,1,3.14,1.15,5.74,5.74,0,0,0,6.44-2.69,5.34,5.34,0,0,0,.54-1.59l-.41.17c-1.86,1.55-4,3.19-6.4,3a7.73,7.73,0,0,1-3.24-1.23c-.73-.43-1.51-1-1.61-1.85a2.37,2.37,0,0,1,.79-1.83,11.83,11.83,0,0,1,3.44-2.25c3.15-1.58,6.55-3.2,10-2.7a5.13,5.13,0,0,0,2.3.07,6.36,6.36,0,0,0,1.91-1.54,10.33,10.33,0,0,1,4.26-1.92c1.28-.36,2.88-.62,3.72.41a2.33,2.33,0,0,1-.12,2.72c.82-.34,1.13-.39,1.89-1.76a17.86,17.86,0,0,1,1.32-2.53,7.71,7.71,0,0,1,1.63-1.43l9.76-7a3.77,3.77,0,0,0,1.11-1C369.48,8.8,368.52,7.08,367.22,6.32Z"/><path class="cls-2" d="M368.11,4.8C364.37,3.19,360.25.72,356.19.15c-5.44-.75-10.5,1.47-15.75,2.42-2.26.42-4.81.34-6.87,1.52-2.38,1.37-3.78,3.37-6.37,4.63-4.27,2.08-6,5.53-9.37,8.93-5,5.13-4.67,13.71,2.28,17.06a12.7,12.7,0,0,0,5.44,1c2.59.13,5,1.44,7.62,1.3,3.57-.19,5.74-2.52,6.83-5.72.55-1.63-1.31-2.54-2.59-2-.2.09-.39.22-.59.31-.72.56-1.44,1.11-2.18,1.64l-5.5,0c-.61-1.17,2.75-3,3.41-3.29a18,18,0,0,1,6.63-2.15c1.61-.08,3.11.48,4.71,0a7.35,7.35,0,0,0,1.58-1s6.73-3.9,5.81-1.38c-.59,1.61,1.33,2.55,2.58,2,2.15-.95,2.57-3,4-4.7,2.35-2.83,6.22-4.84,9.22-7,3.31-2.39,5.25-5.4,1.38-8.55-1.74-1.42-4.24,1.06-2.49,2.49,2.37,1.93-7.77,8-9,9-1.83,1.46-3,4.89-4.84,5.72l2.58,2c2-5.42-3.28-6.23-7.27-4.85-3.16,1.1-4.77,2.69-8.22,2.8-3.21.09-6.41,1.56-9.2,3-3.09,1.62-7.23,4.77-3.66,8.2a8.45,8.45,0,0,0,7.05,2.1c2.34-.45,3.76-2.38,5.82-3.25l-2.59-2c-1.6,4.71-7.79,2-11.05,1.84-4.57-.16-9.17-3.48-7.45-8.71.91-2.79,4-5,5.9-7.09a22.44,22.44,0,0,1,6.56-5.17c2.69-1.42,4.15-3.86,7.25-4.68,2.81-.73,5.76-1,8.6-1.75,3.5-.88,7.4-1.9,11-.76,2.78.88,6.24,2.69,8.94,3.85C368.39,8.73,370.18,5.7,368.11,4.8Z"/><path class="cls-4" d="M342.7,25.06l-6.21.44C338.05,26.36,340.28,25.92,342.7,25.06Z"/><path class="cls-2" d="M342.7,24.18l-6.21.44c-.8.06-1.29,1.23-.44,1.64,2.21,1.08,4.67.41,6.88-.35,1.07-.37.61-2.07-.46-1.7-1.68.58-3.82,1.37-5.54.53l-.44,1.64,6.21-.44C343.82,25.86,343.83,24.1,342.7,24.18Z"/><path class="cls-4" d="M350.62,24.5c0,.32.08.63.14.94A5.91,5.91,0,0,0,352.87,24a1.71,1.71,0,0,0,.11-.14,7.53,7.53,0,0,0-1.2.61Z"/><path class="cls-2" d="M349.74,24.5c0,.39.1.78.17,1.17a.9.9,0,0,0,1.3.53,6.68,6.68,0,0,0,2.52-1.94.88.88,0,0,0-.13-1.07.94.94,0,0,0-1.07-.14,11.27,11.27,0,0,0-1.2.61l.45-.12-1.16.08c-1.13.08-1.13,1.84,0,1.76l1-.07a6.28,6.28,0,0,0,1.76-.74l-1.2-1.2a5.22,5.22,0,0,1-1.9,1.31l1.29.53c0-.24-.08-.47-.11-.71a.92.92,0,0,0-.88-.88A.87.87,0,0,0,349.74,24.5Z"/><path class="cls-4" d="M338.3,30.78l.47-.2a10.38,10.38,0,0,0-.69-2.67A5.83,5.83,0,0,1,338.3,30.78Z"/><path class="cls-2" d="M338.75,31.54l.47-.2a.91.91,0,0,0,.4-1,11.7,11.7,0,0,0-.69-2.66c-.42-1-2.05-.64-1.7.47a5.11,5.11,0,0,1,.22,2.39.92.92,0,0,0,.62,1.09.89.89,0,0,0,1.08-.62,7.23,7.23,0,0,0-.22-3.33l-1.7.47a11.59,11.59,0,0,1,.7,2.66l.4-1-.47.2a.89.89,0,0,0-.32,1.2A.91.91,0,0,0,338.75,31.54Z"/><path class="cls-4" d="M350.73,21.94c-2.49.75-5.37,2.18-8,3.12l7.92-.56A8.75,8.75,0,0,1,350.73,21.94Z"/><path class="cls-2" d="M350.5,21.09c-2.74.87-5.33,2.14-8,3.12-.87.32-.83,1.81.23,1.73l7.92-.56a.89.89,0,0,0,.88-.88,9.5,9.5,0,0,1,.08-2.32c.18-1.11-1.52-1.59-1.69-.47a11.35,11.35,0,0,0-.15,2.79l.88-.88-7.92.56.23,1.73c2.71-1,5.29-2.26,8-3.12C352.05,22.45,351.59,20.75,350.5,21.09Z"/><path class="cls-4" d="M353.1,21.09c-.84-1-2.44-.77-3.72-.41a10.33,10.33,0,0,0-4.26,1.92,6.36,6.36,0,0,1-1.91,1.54,5.13,5.13,0,0,1-2.3-.07c-3.49-.5-6.89,1.12-10,2.7A11.83,11.83,0,0,0,327.43,29a2.37,2.37,0,0,0-.79,1.83c.1.85.88,1.42,1.61,1.85a7.73,7.73,0,0,0,3.24,1.23c2.41.21,4.54-1.43,6.4-3l.41-.17a5.83,5.83,0,0,0-.22-2.87,7.54,7.54,0,0,0-1.59-2.41l6.21-.44c2.66-.94,5.54-2.37,8-3.12a8.75,8.75,0,0,0-.11,2.56l1.16-.08a7.53,7.53,0,0,1,1.2-.61A2.33,2.33,0,0,0,353.1,21.09Z"/><path class="cls-2" d="M353.54,20.33c-4.37-2.68-8.23,2.2-12.39,2.89-4.87.81-9.86,1-13.82,4.73-2.48,2.32-1.56,4.48,1.26,5.91,4.53,2.31,6.3-.68,10.16-2.32a.87.87,0,0,0,.43-.76,7.56,7.56,0,0,0-2.07-5.9l-.62,1.5c1.83-.13,3.76-.09,5.56-.39,3.08-.52,6-2.19,8.92-3.2l-1.12-.85a8.79,8.79,0,0,0-.11,2.56.89.89,0,0,0,.88.88c2.85-.2,4.15-1.64,3.32-4.52a.88.88,0,0,0-1.69.46c-.56-1.95-1.22,5.64-.64.62a.88.88,0,0,0-1.11-.85c-3.05,1-6,2.74-9.14,3.19-1.6.22-3.26.23-4.87.34a.9.9,0,0,0-.62,1.51c6.63,8.17-7.58,4.47-7.17,5.81-.62-2,1.94-4.11,3.41-4.8a18.93,18.93,0,0,1,7.07-2.27c1.47-.07,2.91.49,4.37.07,3-.86,5.32-5.41,9.1-3.09C353.62,22.44,354.5,20.92,353.54,20.33Z"/><path class="cls-1" d="M361.55,104.85q-1.14-8.73-2.85-17.36a67.68,67.68,0,0,1-1.43-9.13c-.32-5.58.93-11.21,0-16.73-.64-3.91-2.32-7.58-3.05-11.47-1.13-6.15.16-12.67-1.76-18.63-.37-1.15-.86-2.26-1.12-3.45-.23-1-.46-1.85-.62-2.64-.06-.31-.11-.62-.14-.94l-7.92.56c-2.42.86-4.65,1.3-6.21.44a5.51,5.51,0,0,1,1.59,2.41,10.38,10.38,0,0,1,.69,2.67,15.14,15.14,0,0,1,.1,3c-.16,2.89-.87,5.75-.75,8.64a46.29,46.29,0,0,0,1.62,8.2c2.64,11.51,3.56,33.73,3.56,33.73,4.44,9.77,6.1,19.71,11.78,28.83.35.55,4.22.72,4.87.76.91.07,1.47-1,1.67-1.84A20.18,20.18,0,0,0,361.55,104.85Z"/><path class="cls-2" d="M362.4,104.61c-1-7.35-2.54-14.58-3.72-21.9-1.14-7.12.63-14.24-.53-21.31-.5-3.08-1.66-6-2.45-9a45.37,45.37,0,0,1-1.13-10.77c-.15-6.21-2.17-11.34-3.1-17.36a.88.88,0,0,0-.85-.65l-5.4.38c-2.65.19-6.07,1.43-8.5.66-.89-.29-1.39.85-.85,1.47,4.52,5.18.66,14.16,2,20.46,1.11,5.11,2.17,10.07,2.79,15.28.85,7.25.52,14.88,1.72,22.06.73,4.35,3.45,9.25,4.91,13.51.94,2.73,1.89,5.46,3,8.12.85,2,2.21,6.45,4,7.87a8.1,8.1,0,0,0,5.87,1.17c3.72-1.16,2.59-6.9,2.24-9.75-.13-1.11-1.89-1.13-1.76,0,.31,2.55,1.5,7.89-2.19,7.93-3.07,0-4.45-3.28-5.54-5.64-2.49-5.4-4.14-11.11-6.17-16.69-1-2.66-2.37-5.13-2.66-7.91s-.33-5.7-.54-8.53a174.27,174.27,0,0,0-2.64-22.22c-.55-2.68-1.39-5.3-1.72-8-.36-2.89.12-5.58.39-8.45.36-3.85.13-7.44-2.49-10.44l-.85,1.47c2.75.89,4.93-.11,7.68-.5,1.09-.15,5.65-1.08,6.52-.46-.86-.61.55,4.53.59,4.66a36.63,36.63,0,0,1,1.54,6.46c.44,4.05,0,8.15.57,12.19.67,5,3,9.69,3.49,14.78.39,4.34-.37,8.68-.31,13,.12,9.52,3.09,19.15,4.37,28.58C360.86,106.2,362.55,105.72,362.4,104.61Z"/><path class="cls-4" d="M336.49,25.5a7.54,7.54,0,0,1,1.59,2.41A5.51,5.51,0,0,0,336.49,25.5Z"/><path class="cls-2" d="M335.87,26.13a7.21,7.21,0,0,1,1.45,2.23c.39.91,1.94.26,1.61-.68a6.61,6.61,0,0,0-1.82-2.8c-.84-.75-2.09.49-1.24,1.25a4.68,4.68,0,0,1,1.36,2l1.61-.68a8.23,8.23,0,0,0-1.73-2.59C336.32,24.07,335.07,25.32,335.87,26.13Z"/><path class="cls-5" d="M350.91,36.46a60.85,60.85,0,0,1-.84-14.39,1.23,1.23,0,0,0-.3-1.08,1,1,0,0,0-.78-.09c-1.65.32-2.81,1.76-3.82,3.09l-.65.3c1.79,5.3,1.3,11.06,1.36,16.66a81.48,81.48,0,0,0,3.6,23.15,83.28,83.28,0,0,1,.09-11.17,17.71,17.71,0,0,1,.57-3.7c.36-1.22.95-2.37,1.29-3.6C352.23,42.65,351.46,39.5,350.91,36.46Z"/><path class="cls-2" d="M351.34,36.35a67.8,67.8,0,0,1-.92-12.48c0-.35.45-2.68-.34-3.19-2.27-1.47-4.32,2.58-5.78,3.23a.42.42,0,0,0-.21.49c2,6.88,1.06,14,1.52,21.07a85.46,85.46,0,0,0,3.45,18.75c.13.46.89.39.86-.12-.27-5.65-.22-11.09,1.3-16.55,1.12-4,.88-7.09.12-11.2-.11-.56-.95-.32-.85.23,1.46,7.84-1.62,14.92-1.59,22.87,0,1.39.5,5.09,0,1.06-.21-1.77-.86-3.55-1.19-5.3a81.22,81.22,0,0,1-1.38-12.45c-.1-3.42.09-6.84-.06-10.25-.05-1.15-.12-2.32-.27-3.46s-1.22-3.5-.95-4.53c0-.08,1.12-1.14,1.2-1.22,4.54-4.32,3.25.35,3.25,2.38a66.32,66.32,0,0,0,1,10.9C350.58,37.14,351.43,36.9,351.34,36.35Z"/><path class="cls-5" d="M349.91,90.18l0,.37c-1-1.1-.79-2.83-.63-4.33.79-7-1.51-14-3.78-20.67-1.36,1.17-1.33,3.25-1.19,5,.26,3.21.51,6.42.77,9.62a39.63,39.63,0,0,0,.75,5.86,42.69,42.69,0,0,0,1.68,5.13q1.51,4,3,8c.26.68.69,1.48,1.42,1.45A38.94,38.94,0,0,0,349.91,90.18Z"/><path class="cls-2" d="M349.47,90.18c-.39-3,.63-7.41.15-11.07A72.77,72.77,0,0,0,346,65.44a.45.45,0,0,0-.81-.11c-1.68,2.21-1.29,4.51-1.09,7.18.27,3.82.44,7.69,1,11.48.57,3.94,2.16,7.59,3.56,11.29.77,2,1.08,4.64,3.12,5.69.28.14.7,0,.67-.38a46.25,46.25,0,0,0-2.09-10.53c-.17-.53-1-.3-.85.24a42.09,42.09,0,0,1,1.2,4.26c.23,1.07,1.86,6.44-.3,2.87-1.23-2-1.91-5-2.72-7.2-2.07-5.73-2.26-11.7-2.71-17.72a12.68,12.68,0,0,1-.22-3.3c.89-4.06,1.41-.49,1.78.68a62,62,0,0,1,2,7.72c.61,3.45.31,6.35.27,9.76a5.55,5.55,0,0,0,.8,3.4c.21.34.88.23.82-.22l0-.37C350.27,89.63,349.39,89.62,349.47,90.18Z"/><path class="cls-5" d="M355.9,106.08a2.38,2.38,0,0,1-1.16-3.89.58.58,0,0,1,.31-.22c.29-.08.54.17.73.4,1.73,2.09,3.55,4.47,3.36,7.17-.42,0-.67-.46-.86-.85a5.26,5.26,0,0,0-2.25-2.37"/><path class="cls-2" d="M356,105.66a1.93,1.93,0,0,1-1.38-1.8c0-.5,0-1.06.53-1.15s1.54,1.53,1.86,2a8,8,0,0,1,1.67,4.83l.56-.43c-.6-.13-.94-1.28-1.3-1.73a6.08,6.08,0,0,0-1.71-1.44.44.44,0,0,0-.44.76,7.33,7.33,0,0,1,2.25,2.51,1.42,1.42,0,0,0,1,.75.44.44,0,0,0,.55-.42,8.24,8.24,0,0,0-1.39-4.66c-.52-.86-1.89-3.42-3.08-3.34-1,.06-1.42,1.52-1.4,2.32a2.89,2.89,0,0,0,2.07,2.64c.54.2.77-.65.24-.84Z"/><path class="cls-2" d="M341.81,27.43c1.93,11.38,1.49,23,3.93,34.31.06.28.48.16.42-.11-2.44-11.31-2-22.94-3.92-34.32-.05-.28-.47-.16-.43.12Z"/><path class="cls-2" d="M346.65,24.92c-.31,4.35.77,7.62,1.34,11.85.62,4.53-.5,9.08-.38,13.64,0,.28.45.28.44,0-.12-4.29.89-8.56.53-12.83s-1.81-8.14-1.49-12.66c0-.28-.42-.28-.44,0Z"/><path class="cls-2" d="M349.17,35.79a49.08,49.08,0,0,1,.72,8.64.22.22,0,0,0,.44,0,48.57,48.57,0,0,0-.74-8.76c0-.28-.47-.16-.42.12Z"/><path class="cls-2" d="M351.67,51.22C353.27,60,353,69.14,353.3,78c0,.28.45.28.44,0-.31-8.92,0-18.09-1.65-26.89,0-.28-.47-.16-.42.11Z"/><path class="cls-2" d="M354.86,94.48q.28,3.88.78,7.75c0,.28.48.28.44,0q-.49-3.87-.78-7.75c0-.29-.46-.29-.44,0Z"/><path class="cls-2" d="M357.09,90.83a45.5,45.5,0,0,1,.84,11.23c0,.28.42.28.44,0a45.88,45.88,0,0,0-.86-11.34c-.06-.28-.48-.16-.42.11Z"/><path class="cls-2" d="M343,49.45c-.22,2.37.57,4.64.8,7,.26,2.56.4,5.14.59,7.7,0,.28.47.29.44,0-.19-2.56-.33-5.14-.59-7.7-.23-2.33-1-4.65-.8-7,0-.29-.41-.28-.44,0Z"/><path class="cls-2" d="M327.84,32.84a7.28,7.28,0,0,1,2.63-2.39,4.67,4.67,0,0,0,1.54-1c.55-.72.57-1.23,1.62-1.71a32,32,0,0,1,3.19-1c.27-.09.15-.52-.12-.43-1.46.48-3.58.73-4.63,1.92-.51.57-.74,1.2-1.42,1.65-.42.28-.9.44-1.31.74a7.47,7.47,0,0,0-1.88,2c-.16.23.22.45.38.22Z"/><path class="cls-2" d="M332.49,34.28c-.44-.42.61-2.33.77-2.58a6.6,6.6,0,0,1,2.12-2,4.28,4.28,0,0,0,1.92-2.51.22.22,0,0,0-.43-.12c-.6,2.09-2.9,2.63-4,4.42-.41.67-1.4,2.44-.71,3.12.21.2.52-.11.32-.31Z"/></g></g></svg>