<svg xmlns="http://www.w3.org/2000/svg" viewBox="0 0 2027.32 2172.48"><defs><style>.cls-1{fill:#eae3ca;}.cls-2{fill:#38301f;}.cls-3{fill:#a34928;}.cls-4,.cls-5{font-size:108.9px;}.cls-4{fill:#da9b38;}.cls-13,.cls-14,.cls-4{font-family:Rockabye-Regular, Rockabye;}.cls-4,.cls-7{letter-spacing:0.03em;}.cls-5{fill:#bfcbc8;font-family:EnchantedLand, Enchanted Land;letter-spacing:0.06em;}.cls-6{letter-spacing:0.01em;}.cls-8{letter-spacing:0.03em;}.cls-9{letter-spacing:0.04em;}.cls-10{letter-spacing:0.03em;}.cls-11{letter-spacing:0.03em;}.cls-12{letter-spacing:0.02em;}.cls-13,.cls-14{font-size:58.08px;letter-spacing:0.03em;}.cls-13{fill:#ad968a;}.cls-14,.cls-15{fill:#ca7529;}</style></defs><title>notebook</title><g id="Layer_2" data-name="Layer 2"><g id="paper"><path class="cls-1" d="M85,1647.33c1.64.64-9.61,27.65-9.61,27.65s21.78,11,29.58,13.62L1320.11,2105c79.25,27.15,239.94,62.5,239.94,62.5,20.6-144.1,419.05-1519.44,462.27-1677.84,0,0-439-156.8-655.67-232.17L1183.5,193.82l-112.88-39.27-63.31-22L645.77,6.78c1.44,5.07-7.88,8.12-6.44,13.19"/><path class="cls-2" d="M80.71,1649.86c-1.58-2.81-1-.09-2,2.75-1,3.17-2.26,6.29-3.46,9.4q-2.26,5.85-4.67,11.64c-.8,1.91.5,4.75,2.29,5.65,40.86,20.49,85.49,32.88,128.64,47.66l171.26,58.7L715.3,1903l342.52,117.38,171.26,58.69c45.55,15.61,90.85,32.18,137.17,45.43,63.52,18.18,128,33.62,192.48,47.82,2.38.53,5.74-.7,6.15-3.49,3.69-25.62,10.29-50.95,16.38-76.07,10.7-44.17,22.15-88.15,33.75-132.09,33.42-126.67,68.34-252.93,103.48-379.13q61.53-221,124.29-441.64,56.07-197.7,112.51-395.3c22.81-80,45.85-159.92,68.12-240.06q1.88-6.78,3.73-13.55a5.12,5.12,0,0,0-3.49-6.15Q1856,425,1688.1,365.47q-297.58-105.53-596-208.72L647.1,2c-3-1-6.46,1.72-6.33,4.82.19,4.33-6.68,7.63-6.44,13.19.27,6.41,10.27,6.45,10,0-.19-4.33,6.68-7.63,6.44-13.19l-6.33,4.82q379.48,132,758.94,264,246.18,86.07,491.69,174Q1958,472,2021,494.52l-3.49-6.15c-19.61,71.82-40.42,143.32-60.82,214.92q-54.53,191.28-109,382.58-62.7,220.8-124.6,441.84c-36.48,130.58-72.72,261.23-107.65,392.23-20.63,77.35-43.18,155-58.11,233.73-.79,4.17-1.53,8.34-2.14,12.54l6.15-3.49c-54.54-12-108.91-25.1-162.84-39.61-99.32-26.73-196-63.64-293.21-97L424.38,1792.78,232.73,1727.1,139,1695c-21-7.18-41.2-14.36-61-24.29l2.3,5.64c2.93-7,13.32-24,9.11-31.5-3.15-5.61-11.8-.58-8.64,5Z"/><path class="cls-2" d="M100,1628c8.07-20,13.87-40.76,20.69-61.17,2-6.12-7.61-8.74-9.65-2.66-6.82,20.41-12.62,41.2-20.69,61.17-2.41,6,7.26,8.56,9.65,2.66Z"/><path class="cls-2" d="M130.48,1539.28c5.83-18.29,13.87-36,20.62-54,2.26-6-7.4-8.63-9.65-2.66-6.74,18-14.79,35.73-20.61,54-2,6.15,7.69,8.78,9.64,2.66Z"/><path class="cls-2" d="M156.8,1458.93c5.56-19.56,15.66-37.66,19.23-57.8,1.11-6.29-8.53-9-9.65-2.66-3.56,20.13-13.66,38.24-19.23,57.81-1.76,6.2,7.88,8.84,9.65,2.65Z"/><path class="cls-2" d="M179.4,1380c9.41-18,12.81-38.86,24.41-55.72,3.66-5.32-5-10.32-8.64-5-11.62,16.9-15,37.73-24.4,55.72-3,5.7,5.65,10.76,8.63,5Z"/><path class="cls-2" d="M210.48,1298.43c3.11-19.83,15.38-36.43,22.92-54.67,2.45-5.94-7.22-8.53-9.65-2.66-7.56,18.31-19.78,34.72-22.91,54.67-1,6.3,8.64,9,9.64,2.66Z"/><path class="cls-2" d="M236.73,1217.59a237.32,237.32,0,0,0,26.64-50.49c2.31-6-7.35-8.61-9.65-2.66a226.75,226.75,0,0,1-25.63,48.11c-3.68,5.29,5,10.3,8.64,5Z"/><path class="cls-2" d="M271.14,1137.1q10-24.16,18.14-49c2-6.13-7.65-8.75-9.65-2.66q-8.14,24.86-18.13,49c-2.45,5.94,7.22,8.53,9.64,2.65Z"/><path class="cls-2" d="M342.72,904.58A290.25,290.25,0,0,0,362,855.33c1.79-6.2-7.86-8.84-9.64-2.66a275.23,275.23,0,0,1-18.3,46.86c-2.87,5.74,5.75,10.81,8.64,5.05Z"/><path class="cls-2" d="M368.75,830.44c4.65-18.33,9.4-36.67,16.66-54.18,2.46-5.93-7.21-8.52-9.64-2.65-7.26,17.51-12,35.84-16.66,54.17-1.59,6.24,8.05,8.9,9.64,2.66Z"/><path class="cls-2" d="M416,672.32a368,368,0,0,0,22-50.13c2.15-6.08-7.5-8.7-9.64-2.66a349,349,0,0,1-21,47.74c-3,5.68,5.61,10.74,8.64,5.05Z"/><path class="cls-2" d="M446,599.19c3.14-9.53,5.89-19.32,9.52-28.68,3.13-8.06,6.62-15.26,8.33-23.84,1.25-6.28-8.39-9-9.64-2.66-1.71,8.57-5.29,15.76-8.33,23.84-3.55,9.41-6.38,19.14-9.52,28.68-2,6.13,7.63,8.75,9.64,2.66Z"/><path class="cls-2" d="M471.47,527.11c7.95-16.26,12.11-34.69,17.37-51.94,1.89-6.17-7.76-8.81-9.64-2.66-2.34,7.68-4.62,15.37-7,23-2.78,8.83-5.25,18.18-9.33,26.52-2.82,5.76,5.81,10.84,8.63,5.05Z"/><path class="cls-2" d="M494.77,450.33q9.19-23.86,17.63-48c2.13-6.08-7.53-8.7-9.64-2.66q-8.43,24.15-17.64,48c-2.31,6,7.35,8.61,9.65,2.66Z"/><path class="cls-2" d="M516.89,378.45c6.53-8.67,9.29-19.17,12.51-29.35,2.51-8,6.73-15.2,8.44-23.39,1.31-6.27-8.33-9-9.65-2.65-1.6,7.67-5.54,14.41-8,21.86-3.22,9.9-5.61,20-12,28.48-3.87,5.14,4.8,10.13,8.64,5.05Z"/><path class="cls-2" d="M546.07,300.57c-1.08-2.27,3-8.46,3.92-10.56l4.83-10.83,9.67-21.65c2.6-5.83-6-10.92-8.64-5L543,281.35c-3.32,7.43-9.41,16.09-5.54,24.27,2.75,5.81,11.38.74,8.64-5.05Z"/><path class="cls-2" d="M569.69,230.9a37.06,37.06,0,0,1,3.4-8.94c3.06-5.67-5.57-10.72-8.63-5.05a47.24,47.24,0,0,0-4.41,11.33c-1.53,6.26,8.11,8.92,9.64,2.66Z"/><path class="cls-2" d="M627.36,79.49c2.07-12.3,4.67-25.61,10.87-36.56,3.18-5.61-5.46-10.65-8.63-5-6.66,11.75-9.66,25.75-11.88,38.95-1.06,6.29,8.58,9,9.64,2.66Z"/><path class="cls-2" d="M552,18.82c4.9-10.74,17-14.7,28.14-13.6,14.22,1.41,27.75,9,40.64,14.67,12,5.23,24.17,10.11,35.86,15.94C667,41,676.81,47.42,683.09,57.37c1.71,2.71,6,.21,4.32-2.53-6.75-10.68-17.11-17.76-28.24-23.32-14-7-28.72-12.82-43.08-19.09C602.87,6.66,588.69-.9,573.82.09,563.05.8,552.31,6.16,547.68,16.3c-1.32,2.9,3,5.45,4.32,2.52Z"/><path class="cls-2" d="M561.62,24.93c10.44-4.25,21.38-2,31.89.8A221,221,0,0,1,621.1,35c18.49,7.64,36,18.25,49.7,32.93,2.21,2.35,5.74-1.19,3.54-3.54C660,49,641.73,38.08,622.43,30.13a222.22,222.22,0,0,0-30.08-9.87c-10.55-2.67-21.68-4.38-32.06-.15-2.94,1.19-1.65,6,1.33,4.82Z"/><path class="cls-2" d="M669.31,39.75c.65-1.51,1.2-3.15,2-4.6,1.18-2.16.32-1.88,2.87-1,3.08,1.1,8.26,2.38,10.78,4.38,3.72,3,.81,7.41-.57,11-1.48,3.83-3.14,7.58-5,11.26-2.41,4.9-5.36,3.47-9.71,1.36A25,25,0,0,1,665,59.64c-1.42-.17-1.89-.82-1.41-1.94a9.66,9.66,0,0,1,.68-2.9c2-7.35,4.32-14.61,6.47-21.9.91-3.09-3.91-4.41-4.82-1.33L660,51.65c-1.34,4.54-3.42,8.33.94,11.43,4.14,3,10.37,6,15.47,6.73s6.33-4.35,8.15-8.15a144.38,144.38,0,0,0,6.85-16.88c1.44-4.35,1.72-7.75-2.73-10.05-2.46-1.26-5.23-2.13-7.79-3.17s-6-3.25-8.86-3.34c-4.52-.15-5.64,5.77-7,9-1.27,2.92,3,5.47,4.32,2.52Z"/><path class="cls-2" d="M648.5,114c.6-3.54.82-6.89,5.19-6.19,2.2.35,5.37.43,7.35,1.68,2.72,1.73,1.11,3.32-.53,5.23a11.45,11.45,0,0,0-2.78,4.86c-.75,3.13,4.07,4.46,4.82,1.33.82-3.4,4.7-5,5.13-8.73s-2.13-6.2-5.29-7.53a25.67,25.67,0,0,0-6-1.45c-2-.32-4.45-1.07-6.52-.88-4.54.41-5.55,6.83-6.14,10.35-.53,3.15,4.28,4.5,4.82,1.33Z"/><path class="cls-2" d="M522.18,163.3a16.73,16.73,0,0,0-19.32,8.5c-4.63,8.86-1.26,19.47,4.76,26.7,7.13,8.54,17.81,13.94,27.82,18.32,5.39,2.36,11.34,4,16.49,6.8,4.27,2.33,7.11,6.13,11.68,8.11,2.92,1.27,5.47-3,2.52-4.31-3.5-1.52-5.84-3.92-8.8-6.2-2.75-2.12-5.87-3.26-9.08-4.52-8.48-3.32-16.93-6.81-24.72-11.58-7.52-4.62-15.32-10.87-17.34-19.94s4.18-20.17,14.66-17.06c3.09.92,4.41-3.9,1.33-4.82Z"/><path class="cls-2" d="M516.86,159.46c-5.48-2.23-11.52,1.44-13.4,6.81-2.56,7.32,2.62,14.63,7.85,19.23,6.32,5.56,14,9.08,21.78,12.08,9.56,3.68,19.25,7,28.87,10.51,3,1.1,4.34-3.73,1.33-4.82-12.19-4.42-24.93-8.2-36.62-13.81C521.3,186.88,516,183.68,512,179.2c-2.16-2.42-4.19-5.6-4.2-8.95,0-4.05,3.73-7.6,7.74-6,3,1.21,4.27-3.62,1.32-4.82Z"/><path class="cls-2" d="M598,253.43a125.58,125.58,0,0,0-76.39-34.53c-12.92-1.05-28.81-.54-36.76,11.49-7,10.56-1.47,21.44,8,27.93,6.91,4.76,15,8.06,22.49,11.67q14.06,6.74,28.29,13.09c2.91,1.31,5.46-3,2.52-4.31-16.14-7.23-33.29-14-48.42-23.24-6.27-3.83-12.87-9.82-10.7-18,2.41-9.05,12-13,20.48-13.79,31.41-3,64.68,11.81,87,33.2,2.32,2.23,5.86-1.3,3.53-3.53Z"/><path class="cls-2" d="M600.58,274.73c-23.39-20.32-53.54-36.64-84.55-41-13.22-1.87-28.76.81-36.2,13.2-7.18,11.94-.93,26.45,9.18,34.43,6.34,5,13.92,8,21.54,10.47,9.42,3.08,18.94,5.88,28.42,8.8,3.08.95,4.4-3.88,1.33-4.82-8.7-2.68-17.41-5.31-26.08-8.05-8.26-2.61-16.91-5.57-23.49-11.44-6.42-5.72-11.18-15-8.12-23.66,2.72-7.68,10.52-12.44,18.19-13.93,9.3-1.8,18.88.38,27.84,2.84a172.52,172.52,0,0,1,24.88,8.89,176.15,176.15,0,0,1,43.53,27.81c2.42,2.11,6-1.42,3.53-3.53Z"/><path class="cls-2" d="M593.89,273.69,599,254.45l-4.91-.66c-.6,6.75-5.78,10.77-7.84,16.8-1.45,4.24.94,6.84,4.68,8.51,3.92,1.76,11.28,5.69,15.57,4.44,4.53-1.32,3.89-8.3,3.72-11.94-.15-3.21-5.15-3.23-5,0,0,.87.59,6.31-.29,6.85s-2.94-.58-4-.92c-1.71-.57-3.4-1.16-5.08-1.81-2.79-1.06-5.29-1.41-4-5.07,1-2.95,3.69-5.75,5-8.61a23.71,23.71,0,0,0,2.2-8.25c.25-2.85-4.2-3.34-4.91-.67l-5.14,19.24c-.83,3.12,4,4.44,4.82,1.33Z"/><path class="cls-2" d="M586.71,338.65c-6.06-14.29-20.55-22.3-33.51-29.44-15.52-8.55-32.06-15.9-49.59-19.07-13.63-2.48-32.08-4.1-41.55,8.4-3.8,5-5.54,11.68-3.18,17.7,2.46,6.3,8.74,10.71,14.38,14,15.24,8.8,33.44,11,47.92,21.31,2.62,1.87,5.12-2.47,2.52-4.32-13.47-9.61-30-12.17-44.6-19.52-7.36-3.72-18.06-10-16.07-19.75,2.11-10.39,13.15-14.18,22.52-14.46,19.54-.57,39.2,6.83,56.39,15.45,14.81,7.43,33.6,16.1,40.46,32.25,1.25,2.95,5.56.41,4.31-2.52Z"/><path class="cls-2" d="M582.35,350.44a329.81,329.81,0,0,0-44.9-27.21c-15.05-7.53-31.4-15.39-47.92-19-12.78-2.81-28.43-.55-34.68,12.56s5.66,26.15,15.41,33.75c13.33,10.37,29.66,15.85,45.51,21,3.07,1,4.38-3.82,1.33-4.82-15.56-5.08-31.85-10.4-44.73-20.89-6.56-5.33-15.77-14.07-14.18-23.39,1.51-8.85,10.94-13.93,19.16-14.42,9.65-.59,19.13,3.17,28,6.53s17.76,7.2,26.38,11.4a328.53,328.53,0,0,1,48.09,28.79c2.62,1.88,5.12-2.46,2.53-4.32Z"/><path class="cls-2" d="M591,325.82l-9.52-4.61c-2-1-4.16-2.43-6.45-2.48-4.26-.09-5.3,4.13-6.68,7.35a211.92,211.92,0,0,1-10.22,20,2.53,2.53,0,0,0,.89,3.42c4.73,2.71,11,7,16.52,7.77,4.25.62,5.79-3.55,7.68-6.59,3.45-5.57,7.52-11.07,10.48-16.91,1.77-3.49.68-6-2.7-7.91-2.8-1.58-5.33,2.74-2.52,4.32,2.16,1.22-3,7.41-4.09,9.12l-5.49,8.85c-.39.64-1.73,3.83-2.5,4-1,.25-4.77-1.81-5-1.93-3.36-1.52-6.61-3.23-9.8-5.07l.89,3.42q3.81-6.75,7.27-13.69c1.25-2.53,2.24-6.83,4.06-8.9,3-3.4,11.12,2.43,14.71,4.17C591.34,331.54,593.88,327.23,591,325.82Z"/><path class="cls-2" d="M561.66,408.67c-7.9-13.06-21.82-21-35.29-27.28a157.81,157.81,0,0,0-48.11-13.74,132.29,132.29,0,0,0-25.4-.75c-6.07.45-12.49,1.61-17.23,5.73-10.8,9.39-3.75,25,6.11,31.75,7.22,5,16.06,7.61,24.22,10.55q15,5.43,30.26,10.22c3.08,1,4.39-3.85,1.33-4.82q-13.44-4.24-26.72-8.95c-8.43-3-17.6-5.59-25.21-10.42-7.12-4.53-14.69-15.18-7.94-23.34,5.3-6.42,16.27-6,23.74-6a148.33,148.33,0,0,1,53.19,10.14c15.62,6,33.75,14.57,42.73,29.41,1.67,2.75,6,.24,4.32-2.52Z"/><path class="cls-2" d="M556,419.65a165.17,165.17,0,0,0-86.75-36.58,146,146,0,0,0-24.82-.74c-6.56.41-12.52,2.39-15.45,8.71-6,12.84,3.85,26.84,13.39,34.73,14,11.62,31.77,18,49.88,19,3.22.17,3.21-4.83,0-5-18.07-.95-36.7-7.83-49.82-20.61-5.86-5.71-11.38-14-9.95-22.59,1.83-11.12,15-9.57,23.56-9.36a159.14,159.14,0,0,1,96.42,36c2.47,2,6-1.49,3.54-3.54Z"/><path class="cls-2" d="M568.31,398.7c-2.35-3.66-9.44-7.43-13.81-7.51s-6,5.32-7.4,8.67c-3.06,7.1-5.8,14.35-8.43,21.63a2.55,2.55,0,0,0,1.75,3.07,122,122,0,0,1,13,6,2.52,2.52,0,0,0,3.42-.9q3.54-7.67,6.79-15.45c1.76-4.21,5.12-9.64,5-14.27-.08-3.21-5.08-3.23-5,0,.11,4.1-3.48,9.77-5,13.52-1.93,4.6-4,9.15-6,13.68l3.42-.9a135.29,135.29,0,0,0-14.23-6.52l1.75,3.07q2.43-6.74,5.06-13.41c1.31-3.32,2.63-6.64,4.13-9.88.6-1.31.94-2.83,2.49-3.1,1.86-.33,7.81,3.24,8.82,4.8C565.73,403.92,570.06,401.41,568.31,398.7Z"/><path class="cls-2" d="M540.34,486.06c-9.43-11.92-22.15-20.38-35.55-27.27-14.63-7.54-30.11-14.48-46.23-18.1a90.12,90.12,0,0,0-24.93-2.29c-6,.35-12.68,1.25-17.34,5.42-10.83,9.7-1.94,24.22,7.22,31,15,11.15,32.87,19.16,50.53,25,3.06,1,4.37-3.8,1.33-4.82-17-5.66-34.16-13.4-48.69-24.05-6.62-4.85-15.68-16.18-6.85-23.66,6.2-5.25,17.17-4.42,24.65-3.82,18.51,1.47,36.16,9,52.68,17,14.9,7.24,29.24,15.89,39.64,29.05,2,2.52,5.51-1,3.54-3.54Z"/><path class="cls-2" d="M534.79,497.26c-29.65-9.63-55.16-28.9-85.14-37.67-12.49-3.65-29.44-7.4-39.74,3.15-9.69,9.92-3.68,23.44,6,30.64,7.24,5.36,15.87,9.12,23.81,13.34L467,521.19c2.84,1.51,5.37-2.81,2.52-4.32L444,503.3c-7.84-4.17-16.19-7.91-23.57-12.88-7.75-5.2-15.11-15.81-7-24.15,7.18-7.33,18.62-5.75,27.62-3.74,33,7.36,60.44,29.17,92.4,39.55,3.07,1,4.38-3.83,1.33-4.82Z"/><path class="cls-2" d="M517.39,499.23A62.08,62.08,0,0,1,523,479.4c1.68-3.49,2.63-5.25,7-4.36,2.6.54,9.08,2.32,9.91,4.7s-1.8,6.51-2.65,8.64c-1.27,3.2-2.37,7.53-4.42,10.34-1.25,1.71,0,1.18-1.74,1.31-1.24.1-3.14-1-4.38-1.47L516.19,495c-3.06-1-4.37,3.8-1.33,4.82,5.2,1.75,10.86,4.54,16.28,5.43,3.77.62,4.93-1.68,6.38-4.87q3.35-7.37,6.19-15c1.25-3.37,3.16-7.4-.26-10.14s-9-4.24-13-5.32c-3.49-1-6.39-1-8.84,1.93-5.9,7.05-8.18,18.49-9.2,27.33-.37,3.19,4.63,3.16,5,0Z"/><path class="cls-2" d="M512.5,560.46c-3-6.24-8.6-10.14-14.11-14.08-6.77-4.83-13.57-9.64-20.7-14a127.44,127.44,0,0,0-45.58-16.52c-11.76-2-27.43-6-38,1.6-10.19,7.35-9,21.74.53,29,6.73,5.1,15.52,7.82,23.25,11q14.42,6,29,11.59c3,1.16,4.31-3.67,1.33-4.82q-12.75-4.89-25.38-10.1c-7.82-3.22-16.71-6-23.81-10.72-7.35-4.85-10.32-15.1-2.68-21.4,5.88-4.86,14.79-4.15,21.84-3.26,17.38,2.18,34.51,5.66,50.08,14a209.77,209.77,0,0,1,21.09,13.28c6.73,4.69,15.15,9.29,18.86,16.92,1.41,2.89,5.72.36,4.32-2.53Z"/><path class="cls-2" d="M504.93,573.77c-25.85-19.72-54.25-41.61-87.57-45.72-12.62-1.55-28.71.23-37,11.2s8.18,25.63,16.31,31.6c13.15,9.65,29.1,14.79,44.53,19.51,3.08.94,4.4-3.88,1.33-4.82-11.94-3.65-24-7.52-34.91-13.63A67.8,67.8,0,0,1,392.75,561c-4.41-4.38-13.14-13.61-7.63-19.65,9.14-10,25.08-10,37.32-7.43,14.17,2.93,27.5,8.92,39.94,16.19,14.07,8.24,27.09,18.11,40,28,2.56,1.95,5-2.39,2.52-4.32Z"/><path class="cls-2" d="M492.69,571.54,499,556c1-2.4,1.77-5,3-7.33.81-1.57,1.06-2.25,2.67-2.33,1.18-.06,3.49,1.07,4.5,1.44,3.06,1.13,5.32,1.17,4.37,4.54a70,70,0,0,1-3.23,8.12c-2.24,5.17-4.76,10.21-7.47,15.14l2.16-1.23a38.83,38.83,0,0,1-13.83-4.49c-2.83-1.53-5.35,2.78-2.52,4.31A45.34,45.34,0,0,0,505,579.32a2.46,2.46,0,0,0,2.16-1.24,181.07,181.07,0,0,0,10.54-22.7c.86-2.26,2.48-5.21,1.27-7.66s-4.5-3.24-6.7-4.11c-4.91-2-11.13-5-14,1-4,8.25-6.95,17.15-10.39,25.64-1.21,3,3.62,4.28,4.82,1.33Z"/><path class="cls-2" d="M485.3,647.36c-12.32-10.05-25.05-20.66-38.89-28.57C439.7,615,432.55,612.9,425,611.5c-8-1.48-15.82-3.25-23.74-5-12.74-2.73-28.76-4.94-39.43,4.45-4,3.55-7,8.71-6.08,14.22s5.26,9,9.74,11.68c16.2,9.71,33.41,18,50.49,26.1,2.89,1.36,5.43-3,2.52-4.32q-23.91-11.28-47-24.13c-3.1-1.73-6.67-3.43-8.95-6.24-3.39-4.19-1.75-9.18,1.74-12.74,6.09-6.22,15.71-6.84,23.88-6.13,8.52.75,16.78,3.18,25.12,4.94,8,1.68,16.31,2.44,24,5.45,8.26,3.26,15.52,8.92,22.63,14.11q11.21,8.17,21.93,17c2.47,2,6-1.5,3.53-3.54Z"/><path class="cls-2" d="M490.65,629.44a156.54,156.54,0,0,0-81.6-38.16,151.05,151.05,0,0,0-22.08-1.6c-7,0-14.64.27-20.64,4.21-4.78,3.14-8.32,8.66-7.73,14.53s5.16,9.67,9.81,12.4c16.38,9.65,35.14,16.33,53.39,21.38,3.1.85,4.43-4,1.33-4.83-17.55-4.85-35-11.29-51-20.17-3.87-2.15-8.66-5.11-8.65-10.14,0-4.47,3.61-8.23,7.4-10,7.61-3.6,17.82-2.58,26-2a151.06,151.06,0,0,1,90.23,38c2.4,2.14,5.95-1.39,3.54-3.54Z"/><path class="cls-2" d="M469.54,647.09l6.75-29.61-3.07,1.74a52,52,0,0,1,11.55,2.7c5.62,2.19,1.54,8.93.19,13s-2.15,9.54-4.35,13.12c-1.49,2.42-2.71,1.13-5.14.17l-7.31-2.92c-3-1.19-4.28,3.64-1.33,4.82,3.7,1.48,7.62,3.58,11.47,4.55a4.84,4.84,0,0,0,4.75-.82c2-1.67,2.56-5,3.31-7.28l3.73-11.24c1.44-4.36,4.6-10.35,1.48-14.68-3.37-4.69-11.81-5.52-17-6.25a2.57,2.57,0,0,0-3.08,1.75l-6.75,29.62c-.71,3.13,4.11,4.47,4.82,1.32Z"/><path class="cls-2" d="M462.38,706.63c-13.58-6.53-22.23-20-35.36-27.44s-28-11-42.83-13.19c-7.61-1.14-15.27-2.08-22.94-2.77-6.9-.62-14.31-.42-20,4-12.7,10-1.52,24.06,7.76,31.36a109.15,109.15,0,0,0,47.66,21.44c3.15.58,4.5-4.24,1.33-4.82a104,104,0,0,1-47.44-21.74c-6.6-5.47-15.74-16.43-5.15-23.08,7.72-4.84,19.06-1.93,27.54-.92,16.6,2,33.73,4.75,48.75,12.48,7.47,3.85,13.75,9,19.78,14.78,5.64,5.41,11.27,10.76,18.37,14.18,2.89,1.39,5.43-2.92,2.53-4.32Z"/><path class="cls-2" d="M455.68,724.45c-7.95-11.42-23.9-15.55-36.06-20.81-15.21-6.57-30.31-13.59-45.73-19.66-12-4.72-28-8.58-39.09.46-9.75,7.94-5.92,21.53,2.67,28.65,6.18,5.13,14.1,7.83,21.4,10.93l28.46,12.08c2.93,1.25,5.48-3.06,2.52-4.31l-25.71-10.92c-7-3-14.61-5.54-21-9.78s-12.76-13.45-7-20.88c5.44-7.06,16.41-7,24.26-5.27,8.25,1.76,16,5.41,23.68,8.74l25,10.81,23.23,10c7,3,14.56,6,19.07,12.46,1.83,2.62,6.16.12,4.32-2.53Z"/><path class="cls-2" d="M439.05,721.23l9.66-21c1.14-2.47,2.1-7,4.67-7.39,1.46-.24,3.83.8,5.3,1.11,2.55.54,4.43,1.06,4.44,4.14s-1.91,6.92-2.89,9.68A96.74,96.74,0,0,1,455.47,719c-.56,1.14-1.23,3.3-2.57,3.78-1,.34-4.3-1.33-5.21-1.61L437.29,718c-3.08-1-4.4,3.88-1.33,4.82,5.24,1.62,10.69,4,16.08,4.94,3.74.69,5.26-1.5,6.92-4.56a97.56,97.56,0,0,0,6.39-14.95c1.31-3.82,4-9.57,3.09-13.72-.79-3.71-4.34-4.5-7.54-5.19s-8.25-2.93-11.32-1c-1.73,1.08-2.38,3.3-3.17,5l-3.63,7.88-8,17.49c-1.34,2.91,3,5.45,4.32,2.53Z"/><path class="cls-2" d="M437.18,784.08c-5.06-5.6-11.43-9.44-17.85-13.29-7-4.21-14.06-8.39-21.26-12.3-13.88-7.55-28.46-14.28-43.91-17.94a103.15,103.15,0,0,0-22.74-2.87c-5.47-.06-11.59.38-16.05,3.9-11.27,8.88-.8,23.69,7.65,29.92,7,5.14,15.1,9,22.84,12.92a109.86,109.86,0,0,0,26,9.64c3.14.68,4.48-4.14,1.33-4.82-9.31-2-18-5.65-26.42-10-6.76-3.44-13.78-6.85-20-11.23s-17.57-16.8-7.32-23.24c6-3.74,15.67-2.26,22.28-1.46,17.35,2.12,33.79,8.94,49.17,17,7.27,3.8,14.38,7.91,21.43,12.1,7.5,4.46,15.41,8.65,21.32,15.2,2.16,2.39,5.69-1.16,3.54-3.54Z"/><path class="cls-2" d="M432.56,796.28C405,779.34,376.15,761.59,343.72,756c-10.93-1.88-29.2-4.72-37.53,5.12-8,9.38,4.23,21.59,11.43,27,6.32,4.74,13.49,8.14,20.58,11.55l28.47,13.68c2.88,1.38,5.42-2.93,2.52-4.32l-26.68-12.82c-7-3.37-14.19-6.62-20.58-11.1-5-3.51-15.07-11.56-13.12-18.66,2.12-7.75,16.08-7.13,21.92-6.89C367,761.07,400,782.19,430,800.6c2.75,1.68,5.26-2.64,2.52-4.32Z"/><path class="cls-2" d="M416.92,795a70.57,70.57,0,0,1,6.45-19c1.54-3,2.69-6.9,6.5-6.14,1.52.31,8.37,2.7,9.15,4,1,1.71-3,8.37-3.71,10.09-1.52,3.51-2.73,7.63-4.7,10.89-1,1.64-.79,2.43-2.91,2.35-1.34,0-3-1-4.26-1.44l-10.24-3.47c-3.06-1-4.37,3.79-1.33,4.82,5.35,1.81,10.74,4.08,16.21,5.49,4,1,4.93-.77,6.46-4.31L442,781.09c1.33-3.07,3.85-7,1.28-10.07s-9-4.68-12.63-6.22c-2.68-1.13-4.63-1.57-6.73.76-6.47,7.19-10,18.91-11.79,28.15-.61,3.15,4.21,4.49,4.82,1.33Z"/><path class="cls-2" d="M413.46,856.81c-9.6-10.67-23.1-15.94-36.2-20.94a336.07,336.07,0,0,0-49.2-15,226.07,226.07,0,0,0-23.7-3.79c-5.84-.62-13.53-2.16-18.21,2.46-10.26,10.14,3.08,22.33,11.14,27.84a137.7,137.7,0,0,0,48,20.6c3.13.69,4.47-4.12,1.32-4.82A134.07,134.07,0,0,1,301.25,844c-5.5-3.65-18-11.73-12.36-20,2.66-3.93,8.69-2.59,12.68-2.23q7.57.69,15.07,2a296.17,296.17,0,0,1,50.5,13.72c15,5.39,31.79,10.69,42.78,22.91,2.16,2.4,5.68-1.15,3.54-3.54Z"/><path class="cls-2" d="M404.79,872.63a280.42,280.42,0,0,0-42.86-24.26c-14.52-6.73-29.61-13.65-45.36-16.88-12.34-2.54-28.83-3.93-37.18,7.65-7.78,10.77-.12,21.46,9.81,26.92,16.14,8.86,34.47,15,51.78,21.13,3,1.07,4.35-3.76,1.33-4.82-16.93-6-34.82-12-50.59-20.63-6.65-3.66-13.59-10.19-9.17-18.31,4.55-8.36,15.13-9.15,23.54-8.46,17.78,1.45,34.85,9.29,50.87,16.59A284.13,284.13,0,0,1,402.26,877c2.65,1.84,5.15-2.49,2.53-4.32Z"/><path class="cls-2" d="M390.35,873.58q2-10.55,4.48-21c1-4.14,1.3-6.92,6.18-5.91,1.62.34,3.22.83,4.83,1.25s4.65.52,5.79,1.5c1.44,1.22.68-.15.67,1.65,0,1.3-1.69,4.29-2.16,5.51l-4,10.09c-.6,1.53-1.19,3.06-1.8,4.58-1.11,2.81-1.84,2.57-4.63,2.13a33.61,33.61,0,0,1-10-3.63c-2.86-1.49-5.39,2.83-2.53,4.32,5.22,2.71,17,8.62,20.81,1.41,2.59-4.89,4.19-10.58,6.22-15.74,1.3-3.31,4.86-8.74,3-12.42s-8.64-3.85-12-4.72-7.56-2.38-10.87-.51c-3.66,2.06-4,7.45-4.81,11.06-1.47,6.34-2.8,12.7-4,19.09-.61,3.14,4.21,4.49,4.82,1.33Z"/><path class="cls-2" d="M359.89,916.51c-17.82-23.63-53.47-23.75-80.23-24.2-5.71-.09-13-.76-17.7,3.24-4.14,3.5-4.31,8.89-1.94,13.47,3.08,5.94,9.18,10,14.66,13.48a94,94,0,0,0,21.16,9.87c3.07,1,4.38-3.81,1.33-4.82a89.09,89.09,0,0,1-17.08-7.61c-5.18-3-11.21-6.52-14.64-11.57-2-3-3.2-7,.29-9.43,2.13-1.48,5.19-1.59,7.68-1.67,6.64-.21,13.37.17,20,.52,21.2,1.14,48.18,2.72,62.15,21.24,1.92,2.54,6.26.05,4.32-2.52Z"/><path class="cls-2" d="M343.47,927.76c-2.23-6.18-12.26-7.85-17.68-10a113.61,113.61,0,0,0-12.65-4.45c-4.79-1.28-9.91-1.24-14.84-1.64L283,910.41c-6.31-.5-12.87-1.52-19.18-.5-9.23,1.49-18.35,10.13-14.55,20.1,1.14,3,6,1.68,4.82-1.33-1.91-5,1.09-10,5.65-12.38,4.92-2.56,11.15-1.84,16.46-1.43,8.29.64,16.59,1.33,24.88,2a71.94,71.94,0,0,1,21.2,4.82c2.35.9,4.67,1.85,7,2.72,2.08.76,8.51,2.29,9.37,4.69,1.09,3,5.92,1.71,4.82-1.33Z"/><path class="cls-2" d="M280.32,1243.12q-23.22-12.3-46.45-24.59a165.51,165.51,0,0,0-43.45-16c-10.42-2.25-29.15-7-35.83,5-6.82,12.24,9.17,19.63,17.83,23,17.13,6.7,34.6,12.61,50.41,22.17,2.76,1.67,5.28-2.65,2.53-4.32-14.1-8.52-29.54-14.24-44.87-20.08-6.85-2.61-19.31-5.22-21.87-13.19-3.7-11.58,15.51-10.6,21.53-9.58a160.39,160.39,0,0,1,48.71,16q24.51,12.9,48.94,25.91c2.84,1.5,5.37-2.81,2.52-4.32Z"/><path class="cls-2" d="M271.14,1260.23c-28.06-16.5-56-31.67-87.68-40.07-11.06-2.93-28.79-9.21-38.08,1.07-9.47,10.48,6.15,21.91,14.42,26,17.22,8.62,35,16.29,52.45,24.39,2.9,1.35,5.44-3,2.52-4.31-16.51-7.67-33.08-15.21-49.53-23-5.83-2.76-21-9.75-17.07-18.51,1.85-4.09,8.24-5,12.05-5.12,4.3-.09,8.56.89,12.72,1.89,17.51,4.25,34.55,9.63,50.85,17.35,15.42,7.29,30.14,15.94,44.83,24.58,2.78,1.64,5.3-2.68,2.52-4.32Z"/><path class="cls-2" d="M254.79,1260.65q3.68-11.89,7.72-23.66c.54-1.55.64-3.5,2.33-3.93,1-.26,4.05,1.78,5.19,2.29l12.12,5.34-.9-3.42c-4.42,9.75-10.58,18.8-12.46,29.52l3.68-1.49a49.59,49.59,0,0,0-18.14-7.36c-3.14-.6-4.49,4.22-1.33,4.83a46.05,46.05,0,0,1,16.94,6.84,2.52,2.52,0,0,0,3.68-1.49c1.79-10.3,7.7-19,11.95-28.33.51-1.11.44-2.83-.9-3.42l-15.58-6.87c-2.52-1.11-6.09-3.5-8.53-1-1.25,1.28-1.7,3.8-2.24,5.36-.95,2.71-1.87,5.42-2.79,8.15q-2.88,8.61-5.56,17.31c-.95,3.08,3.87,4.4,4.82,1.33Z"/><path class="cls-2" d="M233.45,1305a144.25,144.25,0,0,0-11.35,35.09,2.57,2.57,0,0,0,1.74,3.07L237.7,1348c2.24.78,5.51,2.76,7.94,1.5,2.15-1.12,2.7-4.43,3.42-6.41l4.6-12.58c1.51-4.14,3.07-8.27,4.54-12.43.78-2.23,1.67-4.29.17-6.39s-4.62-2.65-6.85-3.4a141.62,141.62,0,0,0-14.59-4c-3.14-.68-4.48,4.14-1.33,4.83s6.14,1.41,9.17,2.28c2.13.61,6.72,1.24,8.28,2.7,1.39,1.29,1.34-.22.32,2.62-.41,1.17-.85,2.33-1.27,3.49l-3.27,8.94-3,8.09c-.54,1.48-1.18,3-1.64,4.49-.06.2-.61,3-.6,3-.66.51-8.24-2.87-9.23-3.22l-9.24-3.22,1.75,3.08a139.24,139.24,0,0,1,10.85-33.9c1.36-2.9-3-5.44-4.32-2.52Z"/><path class="cls-2" d="M252.6,1321.86c-7.19-4-15.38-5.49-22.59-9.36-6.89-3.7-12.58-9.25-19.27-13.29-13-7.85-27.82-12-42.64-14.72-7.07-1.28-14.19-2.28-21.33-3.11-7.29-.84-15-1.27-21.86,1.77-5,2.23-8.13,6.79-5.77,12.27,2.62,6.08,9.37,8.57,15,11l57.13,24.77c2.92,1.27,5.47-3,2.52-4.32l-54.41-23.59c-3.6-1.56-7.44-2.9-10.79-5-2.91-1.79-8-5.76-3.1-9.91,1.21-1,3.84-1.64,5.41-2,8.53-2,18.26.15,26.78,1.41,16.13,2.37,32.5,5.84,47,13.65,7.62,4.12,13.87,10.1,21.3,14.47,7.59,4.45,16.43,6,24.12,10.22,2.83,1.55,5.35-2.76,2.53-4.31Z"/><path class="cls-2" d="M245.93,1339.57a433.78,433.78,0,0,0-45.73-22.41c-15.06-6.49-30.22-13.6-46.07-18a84.64,84.64,0,0,0-23.4-3.31c-5.16.06-12,.22-15,5.29-7,12,12.67,22.17,20.5,26.53,15.67,8.72,32.73,14.55,48.74,22.59,2.86,1.45,5.4-2.87,2.52-4.31-15-7.53-30.87-13.12-45.7-21-6.85-3.61-16.48-8-20.88-14.62-8.12-12.22,16.66-9.45,22-8.59,17.9,2.93,34.78,11.09,51.33,18.15,16.79,7.17,33.39,14.76,49.21,23.9,2.79,1.62,5.31-2.7,2.52-4.31Z"/><path class="cls-2" d="M201.55,1420.11q4.19-17.58,10-34.66l-3.08,1.74c2.91,1.16,5.8,2.35,8.66,3.61,2,.89,5.18,1.68,6.81,3.12,3.21,2.86-2.7,12.83-4,16.26l-2.88,7.43c-.5,1.28-1.82,6.83-3,7.46-.73.39-5.86-2.68-6.81-3.13l-8.37-3.94c-2.9-1.36-5.44,3-2.52,4.32l12.55,5.9c2,.92,4.9,3.17,7.25,2.33s2.8-4.1,3.55-6l5.06-13c2-5.09,7.9-14.25,4.31-19.65-1.52-2.28-4.52-3.2-6.9-4.27-4.07-1.84-8.2-3.56-12.35-5.22-1.31-.52-2.68.59-3.07,1.75q-5.85,17.09-10,34.66c-.74,3.12,4.08,4.46,4.82,1.33Z"/><path class="cls-2" d="M223.59,1405c-14.44-8.6-28.7-17.72-43.89-25a216,216,0,0,0-43.7-15.35,212.52,212.52,0,0,0-21.84-3.92c-5.82-.73-13.29-1.46-18,2.94-10,9.4,10,22.13,16.89,25.4,17.63,8.34,35.57,16.08,53.46,23.84,2.92,1.27,5.47-3,2.53-4.32q-25.09-10.89-50-22.23c-3.91-1.79-7.89-3.51-11.38-6.05-2.4-1.74-10.83-8.33-8.78-12.27s10-2.89,13.38-2.54c4.54.47,9.09,1.26,13.58,2.11a211,211,0,0,1,48.85,15.57c16.1,7.42,31.12,17,46.33,26.09,2.77,1.65,5.28-2.67,2.52-4.32Z"/><path class="cls-2" d="M216.92,1422.29c-14.78-8.32-28.52-18.37-43.39-26.54a212.67,212.67,0,0,0-45.22-18.42c-10.84-3-31.24-10-40,.93-8.5,10.57,14,20.5,20.68,23.74,17.9,8.7,36.38,16.14,54.83,23.57,3,1.2,4.28-3.63,1.33-4.82-17.76-7.15-35.52-14.31-52.77-22.64-4-1.93-24.76-10.72-19.58-17.37,2.69-3.43,9.66-3.26,13.5-3a82.16,82.16,0,0,1,12.91,2.38,206.34,206.34,0,0,1,49.46,18.64c15.77,8.41,30.19,19.06,45.75,27.82,2.81,1.58,5.33-2.74,2.52-4.32Z"/><path class="cls-2" d="M172.39,1502.51l6.22-17.64c2-5.64,3.36-13,6.59-18l-2.16,1.24c4.35-.24,9.44,1.79,13.56,3.05,1.23.37,2.44.76,3.65,1.17,1.26-1,1.37-.62.34,1.31-.18,2.11-1.37,4.51-2,6.54l-4,13.09-2,6.54c-.69,2.25-1.1,5.64-2.52,7.55l3.42-.9c-3.78-1.66-6.48-4.08-10.68-5a63.86,63.86,0,0,0-13-1.14c-3.21,0-3.21,5,0,5a56.58,56.58,0,0,1,11.62,1c3.68.83,6.18,3.07,9.49,4.52a2.6,2.6,0,0,0,3.42-.9c2.52-3.41,3.22-9.4,4.44-13.41l4.54-15c.9-3,3.77-7.93,2.55-11.1-1.13-2.94-6.48-3.61-9-4.35-4-1.17-9.19-3.3-13.37-3-3.46.26-3.95,3.73-4.95,6.57l-11.12,31.56c-1.07,3,3.76,4.35,4.82,1.33Z"/><path class="cls-2" d="M138.37,1504.65c-16.86-6.4-33.55-12.54-49.08-21.84-7.22-4.32-14.24-9-21.06-13.9-2.58-1.86-5.22-4.7-.13-5.74,1.48-.31,4.07.21,5.57.34a128,128,0,0,1,15,2.35c17.72,3.75,35.54,8.6,52.16,15.86,17.08,7.47,34,15.39,51,23.1,2.9,1.32,5.45-3,2.52-4.31-16.14-7.34-32.24-14.77-48.43-22-15.14-6.75-30.75-11.33-46.8-15.36a174,174,0,0,0-23.51-4.47c-4.64-.5-13.27-2.19-15.95,3.24-2.58,5.2,3.29,9.29,6.87,11.82,6.62,4.68,13.36,9.21,20.32,13.38,15.91,9.52,33,15.79,50.28,22.34,3,1.14,4.31-3.69,1.33-4.82Z"/><path class="cls-2" d="M144.15,1487.64c-11.88-11.36-27.33-16.74-41.79-23.91a195.84,195.84,0,0,1-21.57-12.48c-2-1.32-3.94-2.67-5.85-4.07q-4.22-1.68.69-4.28c1.21.09,2.41.22,3.6.37,4.76.56,9.5,1.34,14.2,2.26,18,3.49,34.88,9.82,51.85,16.54q27.28,10.8,54.4,22c3,1.23,4.26-3.61,1.33-4.82q-24-9.88-48-19.47c-15.8-6.29-31.54-12.78-48.1-16.84a216.84,216.84,0,0,0-23.44-4.38c-4.69-.61-12.47-2-14.28,4.2-1.58,5.4,5.39,8.9,8.9,11.31a191.64,191.64,0,0,0,19.82,12c15.13,7.94,32.16,13.12,44.74,25.16,2.33,2.22,5.87-1.31,3.54-3.54Z"/><path class="cls-2" d="M110.65,1580.87c-9.33-1.08-18.29-2.77-27-6.29s-16.94-8.21-25.1-12.85c-7.22-4.1-14.59-8.25-20.63-14-1.08-1-4.17-3.27-3.55-5.1.33-1,6.51-.84,7.77-.88a60.65,60.65,0,0,1,15.3,1.69c9.3,2.17,18.23,5.87,27.14,9.24,9.23,3.49,18.45,7,27.52,10.94,17.43,7.5,33.37,17.73,50.61,25.51,2.91,1.31,5.46-3,2.53-4.32-16.09-7.25-31-16.85-47.15-24s-32.57-13.6-49.19-19.23c-8-2.72-16.36-4.76-24.87-4.84-4.08,0-14.63-.6-15.63,5.07-.94,5.36,7.77,11.26,11.34,14,6.07,4.63,12.79,8.32,19.42,12.07a191.94,191.94,0,0,0,24,11.9c8.91,3.49,18.06,5,27.52,6.14,3.19.37,3.16-4.63,0-5Z"/><path class="cls-2" d="M171.65,1563.32c-16-6.63-30.07-17-45.63-24.49a198.33,198.33,0,0,0-45.48-15.59,186.39,186.39,0,0,0-22.82-3.31c-5.73-.48-15.81-2.11-20.49,2.38-3.93,3.77,1,9.91,3.53,13.08,4.72,5.83,11.06,10,17.7,13.41,17.68,9,36.46,16.13,54.62,24.06,2.92,1.28,5.47-3,2.52-4.31-17.63-7.7-35.66-14.85-53-23.25a62.53,62.53,0,0,1-12.86-7.89c-2.57-2.14-6.8-5.56-7.72-8.9q-1.83-1.89.85-3.39a22.14,22.14,0,0,1,4.79-.62,62,62,0,0,1,7.34.22q7.27.48,14.48,1.59a190.66,190.66,0,0,1,52.35,16.07c16.59,7.81,31.48,18.73,48.45,25.76,3,1.23,4.26-3.61,1.33-4.82Z"/><path class="cls-2" d="M139.43,1650.84c-4.91-.77-9.79-4.53-14.17-6.81s-9.08-4.64-13.68-6.85C102.86,1633,94,1629,85.05,1625.34,67.15,1618,48,1613.21,29,1609.87c-4.6-.81-18.18-3.62-20.54,2.42-2,5.07,6.54,10.73,10,12.74,15.69,9.11,34.93,12.6,52.2,17.55,10.82,3.09,21.55,6.54,31.73,11.36,9.86,4.67,19.21,10.31,28.54,15.93l2.53-4.32c-15.17-7.54-30.2-15.49-46-21.69a259.68,259.68,0,0,0-47.74-13.64c-7.76-1.43-15.71-2.77-23.62-3-4.65-.1-12.87-.59-15.41,4.55S3.23,1642.21,7,1645c5.43,4,12.21,6.28,18.43,8.75,16.54,6.57,33.42,12.17,50.32,17.73,3.07,1,4.38-3.82,1.33-4.82-15.76-5.18-31.52-10.39-47-16.42C22.8,1647.4,13.61,1645,8,1639.36c-6.24-6.28,1.24-7.06,6.25-7.1a97.62,97.62,0,0,1,15.07,1.28,257.14,257.14,0,0,1,50.79,12.86c17.57,6.39,34.1,15.17,50.81,23.47,2.86,1.42,5.31-2.64,2.53-4.32-14.22-8.56-28.51-16.8-44.21-22.37-16.23-5.76-33.12-9.34-49.46-14.77-7.5-2.5-15.91-5-22.2-10-.59-.47-4.53-3.6-4.24-4.62-.26.9,4.76,0,5.74,0a67,67,0,0,1,14.07,1.94c17.21,3.68,34.26,7.7,50.59,14.37,9.45,3.87,18.75,8.11,27.92,12.59q6.87,3.36,13.63,6.93c4,2.13,8.26,5.26,12.83,6,3.15.5,4.5-4.32,1.33-4.82Z"/><path class="cls-2" d="M115.43,1664.18a138.84,138.84,0,0,1,7.42-22.12c.75-1.69,1.52-3.36,2.33-5,.31-.63,1.91-4.66,2.53-4.93,2-.9,7.8,1.9,9.88,2.6,1.65.56,3.28,1.16,4.89,1.82,2.86,1.17,2.6,1,1.31,3.79-1.4,3-2.66,6.17-3.87,9.29a192.74,192.74,0,0,0-6.86,21.51l3.07-1.75a63.12,63.12,0,0,1-22-8.41c-2.75-1.69-5.27,2.63-2.53,4.32a67,67,0,0,0,23.19,8.91,2.55,2.55,0,0,0,3.08-1.74A186.56,186.56,0,0,1,148.5,1642c1.15-2.54,2.93-5.31.56-7.7s-7.86-3.66-11-4.67-8.32-3.39-11.74-2.51c-3.06.79-4.25,4.88-5.48,7.4a144.15,144.15,0,0,0-10.27,28.34c-.78,3.12,4,4.46,4.83,1.33Z"/><path class="cls-2" d="M144.76,1582.27a351.5,351.5,0,0,0,11.17-36.45l-3.67,1.49a68.34,68.34,0,0,0,11.54,6.53c1.72.75,3.47,1.44,5.24,2.05,3.37,1.16,3.86,1.14,2.11,4.77A153.57,153.57,0,0,0,161,1588.27l3.07-1.74-21.66-6.28c-3.09-.9-4.41,3.92-1.32,4.82l21.65,6.28a2.54,2.54,0,0,0,3.08-1.75,150.48,150.48,0,0,1,5.77-17.66q2-4.87,4.27-9.6c.83-1.7,2.39-3.79,2.47-5.78.15-4-4.35-4.3-7.18-5.23a63.14,63.14,0,0,1-16.38-8.34,2.52,2.52,0,0,0-3.67,1.5,350.76,350.76,0,0,1-11.17,36.45c-1.11,3,3.72,4.33,4.82,1.33Z"/><path class="cls-2" d="M275.67,1094c-5,.5-8.75-3.11-12.79-5.54a82.58,82.58,0,0,0-10.27-5.12c-7.51-3.2-15.34-5.66-22.7-9.22A69.63,69.63,0,0,1,210.3,1060c-.77-.8-1.52-1.61-2.25-2.44q-.75-5.25,3.22-4.49a33.22,33.22,0,0,1,5.82-.1c4.85,0,9.69.19,14.53.55,17.91,1.34,36.53,4.08,52.82,11.79,3.46,1.63,7,2.37,10.65,3.56,4.36,1.44,8.08,3.95,11.89,6.45l24.54,16.1c2.7,1.77,5.21-2.55,2.52-4.31l-22.9-15a91.31,91.31,0,0,0-10-6.14c-3.53-1.71-7.31-2.39-11-3.65s-7-3.43-10.63-4.91a69.6,69.6,0,0,0-10.82-3.08c-8.43-1.93-16.93-3.48-25.51-4.58a201.82,201.82,0,0,0-26.11-1.74c-4.59,0-14.35-1.26-15.63,5.18-1.18,6,6.27,11.62,10.14,14.92a75.78,75.78,0,0,0,18.07,11.36c7.89,3.57,16.21,6.11,24.06,9.79,6.9,3.23,13.88,10.53,21.94,9.72,3.17-.31,3.2-5.32,0-5Z"/><path class="cls-2" d="M324.93,1105.68c-25-19.13-54.75-31.06-85.1-38.85-7.64-2-15.58-3.65-23.52-3.18-5.7.33-13.08,1.48-17,6.14-10.21,12.14,13.9,23.4,21.51,27.47a230.48,230.48,0,0,0,25,11.74c8.89,3.45,19.12,5.15,26.75,11.18,2.5,2,6.06-1.55,3.53-3.54-6.08-4.81-13.11-7-20.39-9.42a186.07,186.07,0,0,1-26.6-11.26c-7.9-4-17.81-8.06-24-14.59-11.53-12.17,13.81-13.19,20.54-12.34,17.08,2.16,34.55,8.43,50.43,14.87a199.26,199.26,0,0,1,46.3,26.1c2.56,2,5-2.39,2.52-4.32Z"/><path class="cls-2" d="M307.51,1102.33q3.51-12.52,7.91-24.77c.42-1.16.85-2.33,1.28-3.49-.68-1.37-.23-1.61,1.36-.7,1.47,0,3.48,1,4.82,1.5a58.29,58.29,0,0,1,6.35,2.72c.79.4,4.52,1.76,4.78,2.43s-1.93,3.8-2.34,4.67c-.84,1.77-1.62,3.56-2.36,5.37a103.72,103.72,0,0,0-4,11.52c-.45,1.58-.68,3.54-1.29,5.06q-.21,3.1-.78.56l-3.31-1.54-11.6-5.36c-2.9-1.35-5.44,3-2.52,4.31,5.5,2.55,11.34,6.27,17.16,7.92,2.81.81,4.53-.13,5.5-2.86,2.15-6,3.16-12.31,5.63-18.28,1.33-3.22,6.32-9.45,4.72-13.16-1.52-3.52-8.28-5.63-11.51-7s-9.19-4.56-12.62-3-4.85,9.91-6,13.19c-2.22,6.44-4.22,13-6.06,19.51-.87,3.1,3.95,4.43,4.82,1.33Z"/><path class="cls-2" d="M307.77,1166.26c-22.94-20.66-51.68-36.84-82.18-42.84a92.73,92.73,0,0,0-24.2-1.8c-6,.4-13.9.88-18.89,4.61-12.19,9.12,9,22.71,15.88,26.51,8.31,4.58,17.48,7.74,26.25,11.33l29.38,12c3,1.21,4.28-3.62,1.33-4.82L227.79,1160c-8.49-3.47-17.27-6.56-25.42-10.79-4.59-2.39-24.55-13.9-15.77-19.67,3.3-2.17,9.26-2.42,13-2.78a78.83,78.83,0,0,1,12.67-.13c33.79,2.24,67.25,20.9,92,43.17,2.38,2.15,5.93-1.38,3.53-3.54Z"/><path class="cls-2" d="M296.42,1183.16c-26.88-18-55.11-37-87.68-42.31a96.86,96.86,0,0,0-23.25-1.16c-5.32.42-12.1.51-14.39,6.26-5.07,12.69,13.93,19.91,22,24.41,16.85,9.38,33.81,18.32,52.29,24.07,3.08,1,4.39-3.87,1.33-4.82-17.47-5.43-33.5-13.81-49.44-22.64q-5.81-3.23-11.57-6.51c-3.36-1.92-7.83-3.92-9.65-7.58-5.12-10.34,16.72-8.6,22.06-8.26,35.75,2.3,66.91,23.55,95.75,42.85,2.68,1.8,5.19-2.53,2.52-4.31Z"/><path class="cls-2" d="M281.41,1182.13a132.7,132.7,0,0,0,9.08-20.91c.59-1.79.86-4.34,1.81-5.94l.46-1.72a3.87,3.87,0,0,1,4.66.23c3.25,1,8.81,3.73,11.29,5.93l-.64-2.43c-1,4.34-4.5,8.89-6.34,13-1.54,3.42-3,6.9-4.29,10.41q-.62,1.66-1.2,3.33c.4.82,0,.63-1.09-.58-1.3-.33-2.79-1.79-4-2.39a31.87,31.87,0,0,0-10.26-2.84c-3.18-.39-3.16,4.61,0,5a25.37,25.37,0,0,1,8.43,2.52c1.93,1,3.49,2.63,5.4,3.56,2.46,1.19,4.5.4,5.66-2,2.4-4.86,3.78-10.36,6.05-15.32,1.95-4.25,5.45-8.83,6.48-13.36a2.52,2.52,0,0,0-.65-2.44c-3.7-3.29-9.46-5.36-13.9-7.51-3.15-1.53-6.42-2.94-9,.31s-3,8.78-4.28,12.59a125.22,125.22,0,0,1-8,18c-1.53,2.83,2.79,5.36,4.32,2.52Z"/><path class="cls-3" d="M1202.69,639.54c-32.28,107.62-62.72,215.91-94.48,323.7-1.39,4.74,1.21,5.59,2.88.93,37.69-105.85,76.75-211.35,113.93-317.37C1237.75,610.5,1213.76,602.63,1202.69,639.54Z"/><path class="cls-3" d="M1019.26,860.58c-.51,29.49.52,59.14-1.42,88.71-.09,1.3,2.62,1.78,3,.52,8.11-28.58,16.15-57.59,21.8-86.78C1044.54,853,1019.42,850.47,1019.26,860.58Z"/><path class="cls-3" d="M1041.64,680.46c-3.4,24.79-5.15,49.65-6.31,74.42s-1.69,49.5-2.58,74.17a1.52,1.52,0,1,0,3,.3c8-48.71,17.37-97.29,29-144.51,2-8.06-3.12-13.36-9.1-14.61S1042.82,672,1041.64,680.46Z"/><path class="cls-3" d="M1054.31,589.26c0,19.81,2,39.89,2.55,59.77,0,.88,2.74,1.23,3,.39,5.63-19.07,12.66-38,17.75-57.13C1079.35,585.73,1054.31,582.46,1054.31,589.26Z"/><path class="cls-3" d="M895.73,622c9.09,109.87,20.14,219.69,29.77,329.53.43,4.83,3.17,4.67,3-.18-3.41-110.2-5.4-220.57-9.34-330.73C917.82,582.89,892.61,584.32,895.73,622Z"/><path class="cls-3" d="M795.61,875.29C806.41,910.91,820,946,834.9,980c.65,1.5,3.25.61,2.86-1-9-35.94-13.56-72.63-19.25-109C816.58,857.59,791.92,863.05,795.61,875.29Z"/><path class="cls-3" d="M761.56,736.6c13.16,33.75,25.66,68.58,36.7,103.79.48,1.55,3.16,1,3-.66-5-36.53-8.61-73.56-17.21-110.08C781,717.1,757,725.13,761.56,736.6Z"/><path class="cls-3" d="M737.26,645.2c7.59,18.94,17.08,37.4,25.2,56.2.36.83,3,.14,2.92-.76-2.08-20.37-2.79-41.12-5.39-61.36C759.09,632.35,734.65,638.7,737.26,645.2Z"/><path class="cls-3" d="M599.6,745.76c48.95,93,99.67,185.29,149.11,278.1,2.17,4.08,4.63,2.87,2.7-1.34C707.57,927,665,830.67,620.65,735.34,605.47,702.7,582.81,713.85,599.6,745.76Z"/><path class="cls-3" d="M605.94,1021.79c21.95,23.25,45.43,45.28,67.8,68.19,1,1,3.13-.71,2.36-1.89-17.5-26.81-33.91-54.52-51.84-81C618.12,998,598.41,1013.82,605.94,1021.79Z"/><path class="cls-3" d="M516.75,910.58C542,938,568.88,964.2,594.59,991.28c1.13,1.19,3.27-.52,2.36-1.89-20.85-31-40.61-62.87-61.88-93.51C527.79,885.39,508.08,901.17,516.75,910.58Z"/><path class="cls-3" d="M458.48,837.92c13.19,12.32,27.91,23.43,41.52,35.41.6.53,2.74-1.19,2.35-1.89-8.74-15.89-16.38-32.67-25.55-48.21C473.67,817.9,454,833.69,458.48,837.92Z"/><path class="cls-3" d="M366,989.49c80.29,60.06,161.83,118.62,242.46,178.25,3.54,2.62,5.25.47,1.87-2.37-76.76-64.53-152.7-130.22-229.79-194.32C354.15,949.11,338.46,968.89,366,989.49Z"/><path class="cls-3" d="M1703,1391.85c-100.06,6.51-200.09,15-300.12,22.05-4.4.31-4.3,3,.12,3,100.27-.82,200.67-.23,300.92-1.59C1738.26,1414.85,1737.33,1389.62,1703,1391.85Z"/><path class="cls-3" d="M1489.8,1278.22c-32,11.46-63.7,24.33-96.21,34.77-1.43.47-.84,3.15.65,3,33.91-4.35,68.16-8.52,101.77-15.07C1507.53,1298.61,1500.76,1274.28,1489.8,1278.22Z"/><path class="cls-3" d="M1630.26,1237.94c-35.24,12.87-69.94,27.62-105,41-1.54.59-.78,3.23.84,2.9,36.81-7.39,74-13.42,110.71-21.33C1649.33,1257.8,1642.34,1233.53,1630.26,1237.94Z"/><path class="cls-3" d="M1710.49,1215.91c-16.16,7.08-31.81,16-47.82,23.65-.71.33,0,3,.79,2.91,17.66-1.58,35.7-1.79,53.21-3.9C1722.66,1237.85,1716,1213.49,1710.49,1215.91Z"/><path class="cls-3" d="M1644.08,1060.92c-91.91,51-183,103.85-274.64,155.38-4,2.27-2.76,4.71,1.4,2.68,94.56-46,189.84-90.78,284.14-137.26C1687.27,1065.81,1675.61,1043.41,1644.08,1060.92Z"/><path class="cls-3" d="M1398.24,1054.69c-25.34,25.14-49.22,51.79-74.77,76.72-1.12,1.09.62,3.22,1.92,2.33,29.52-20.12,59.5-40,88.14-61.23C1423.34,1065.26,1406.94,1046.06,1398.24,1054.69Z"/><path class="cls-3" d="M1518.24,957.45c-31.06,25.91-59.19,54.85-87.62,83a1.53,1.53,0,0,0,2,2.3c32.45-23.43,66.15-45.17,99.53-66.39C1543.52,969.21,1529,948.57,1518.24,957.45Z"/><path class="cls-3" d="M1586.72,902c-12.63,13.7-24,28.92-36.29,43-.54.62,1.2,2.74,1.92,2.33,16.23-9.29,33.38-17.5,49.27-27.22C1607.06,916.81,1591.05,897.29,1586.72,902Z"/><path class="cls-3" d="M1467.27,794.89c-68,86.79-134.48,174.88-202,262-3,3.83-.86,5.58,2.33,1.91,72.38-83.17,145.9-165.5,217.85-249C1510.05,781.2,1490.58,765.12,1467.27,794.89Z"/><path class="cls-3" d="M1226.6,910.76c-12.78,30.33-23.82,61.55-36.09,92.08-.54,1.35,1.9,2.6,2.68,1.39,17.82-27.67,36.9-54.68,54.21-82.56C1253.33,912.13,1231,900.36,1226.6,910.76Z"/><path class="cls-3" d="M1306.46,767.67c-21.3,39.82-39.1,81.29-57.35,122.25a1.51,1.51,0,0,0,2.67,1.42c23.75-38,49.38-74.89,74.72-111.43C1335.19,767.46,1313.83,754,1306.46,767.67Z"/><path class="cls-3" d="M1354.28,681.21c-8.91,21.71-16.1,44.37-24.52,66.33-.37,1,2,2.29,2.65,1.45,13.9-19,29.06-37.3,42.49-56.53C1379.49,685.87,1357.33,673.77,1354.28,681.21Z"/><text class="cls-4" transform="translate(810.35 1079.66) rotate(18.01)">Elizabeth<tspan x="-48.84" y="98.01">Richardson</tspan></text><text class="cls-5" transform="translate(708.64 1266.97) rotate(18.01)">y<tspan class="cls-6" x="39.25" y="0">o</tspan><tspan class="cls-7" x="72.34" y="0">ur </tspan><tspan class="cls-8" x="159.31" y="0">d</tspan><tspan class="cls-9" x="195.9" y="0">es</tspan><tspan class="cls-7" x="261.43" y="0">k </tspan><tspan class="cls-10" x="315.21" y="0">i</tspan><tspan class="cls-7" x="337.72" y="0">s a </tspan><tspan class="cls-11" x="431.45" y="0">m</tspan><tspan class="cls-9" x="489.1" y="0">e</tspan><tspan class="cls-12" x="522.51" y="0">ss</tspan></text><text class="cls-13" transform="translate(555.69 1539.96) rotate(18.01)">liz_ardson@outlook.com</text><text class="cls-13" transform="translate(692.32 1652.07) rotate(18.01)">st. catharines</text><text class="cls-13" transform="translate(750.59 1536.7) rotate(18.01)">905 746 4497</text><text class="cls-14" transform="translate(1083.94 431.21) rotate(18.01)">@liz_ard_queen</text><path class="cls-15" d="M1227,305.3c6.5,2.24,13,4.41,19.5,6.74,5.45,2,10.44,4.74,14.23,9.25a25.82,25.82,0,0,1,5.9,20.43c-.69,5.92-2.61,11.54-4.41,17.17-2.64,8.23-5.29,16.44-8.08,24.61-1.69,5-3.48,9.94-6.7,14.2-5.92,7.83-13.84,11.25-23.57,10.57-5-.34-9.69-1.82-14.38-3.3-9.56-3-19.09-6.11-28.58-9.33-5-1.69-9.92-3.5-14.18-6.74-7.79-5.93-11.16-13.82-10.49-23.5.34-5,1.82-9.69,3.31-14.38q4.52-14.28,9.29-28.48c1.7-5,3.51-10,6.77-14.28,5.92-7.79,13.82-11.15,23.5-10.49,5,.34,9.67,1.87,14.38,3.3,4.52,1.37,9,2.9,13.47,4.36Zm-26.08,87.63c5.49,1.56,13.12,4,20.9,5.85,8.07,1.89,15.08-.88,19.48-8.24,2.39-4,3.76-8.4,5.24-12.74q4.11-12,7.87-24.22a102.35,102.35,0,0,0,3.11-12.41c1.32-7.51-2-14.11-8.53-18-4-2.38-8.48-3.77-12.86-5.26q-11.89-4.06-23.9-7.77a106.15,106.15,0,0,0-12.52-3.15c-7.55-1.35-14.16,1.93-18.06,8.54-2.37,4-3.75,8.41-5.23,12.75q-4.08,12-7.83,24.11a92.45,92.45,0,0,0-3.11,12.42c-1.11,6.93,1.06,12.82,6.94,16.93a31.75,31.75,0,0,0,7.07,3.64C1185.86,387.79,1192.32,389.93,1200.92,392.93Z"/><path class="cls-15" d="M1203.53,377.47a25.73,25.73,0,1,1,32.62-17.06A25.81,25.81,0,0,1,1203.53,377.47Zm2.82-8.57a16.69,16.69,0,1,0-10.74-21A16.78,16.78,0,0,0,1206.35,368.9Z"/><path class="cls-15" d="M1250.89,337.7a6,6,0,0,1-7.59,3.93,6.16,6.16,0,0,1-3.88-7.67,6,6,0,0,1,7.67-3.78A5.87,5.87,0,0,1,1250.89,337.7Z"/><path class="cls-15" d="M1375.39,408.46c-.62,1.48-1.23,3-1.89,4.43a46.55,46.55,0,0,1-8.64,12.77A49.23,49.23,0,0,1,1351.08,436a49.74,49.74,0,0,1-27.3,5.29c-1.11-.1-2.2-.29-3.3-.44.06-.2.14-.4.2-.59q2.68-8.23,5.36-16.47l5.26-16.18h0l10.74,3.49a1.35,1.35,0,0,0,.35,0l.44-.85q2.06-4.08,4.1-8.15c.32-.63.61-1.27.92-1.9l.91-1.83.07-.07.07-.15,0-.09-.47-.17-9.18-3-3.34-1.1,0-.09,2.25-7c.28-.85.54-1.7.81-2.55.28-.55.5-1.12.83-1.64a6.3,6.3,0,0,1,6-3.19,26.52,26.52,0,0,1,3.14.56l5.77,1.89a.57.57,0,0,0,.22,0l.06-.06a4.31,4.31,0,0,0,.22-.49q1.71-5.24,3.41-10.47a4.51,4.51,0,0,0,.1-.53,1.75,1.75,0,0,0-.29-.26l-.92-.4c-1.42-.66-2.83-1.37-4.28-2-1.08-.47-2.2-.85-3.3-1.27l-.95-.37-1-.33-.83-.21a18.74,18.74,0,0,0-4.13-.8,16.09,16.09,0,0,0-14.11,5.5,22.15,22.15,0,0,0-4.13,7.17,7,7,0,0,0-.3.68l-3.57,10.92-.48-.14-10.6-3.44c-.29-.1-.58-.18-.88-.27l-.08,0c-.06.16-.12.31-.17.47q-1.93,5.93-3.85,11.84c-.14.44-.28.88-.41,1.32a2.06,2.06,0,0,0,.41.23l5.85,1.9,5.74,1.86h0c-.07.23-.14.45-.22.68l-10.38,31.93c-.07.21-.12.43-.19.64-1.19-.66-2.41-1.27-3.57-2a48.94,48.94,0,0,1-15.64-15.3,49.53,49.53,0,0,1-8-30.28c.1-1.72.29-3.44.54-5.14.21-1.39.57-2.77.89-4.15.18-.74.4-1.47.61-2.21l.67-2.08c.33-.88.62-1.78,1-2.66s.8-1.82,1.24-2.71a50.15,50.15,0,0,1,5.32-8.61,50.29,50.29,0,0,1,42.87-19.5,37,37,0,0,1,6.11.8c1.21.27,2.43.55,3.64.84.53.12,1,.26,1.57.4l2.08.67c1,.39,2,.74,3,1.16A49.06,49.06,0,0,1,1369.59,363a49.57,49.57,0,0,1,8.8,29.8,47.38,47.38,0,0,1-.86,7.88c-.21,1.1-.52,2.18-.78,3.27-.1.43-.22.86-.32,1.29Z"/><path class="cls-15" d="M1462.41,380.21l32.25,10.47a16,16,0,0,1,5.82,3.26,16,16,0,0,1,5.17,14.9,12.92,12.92,0,0,1-.42,1.71q-10.67,32.79-21.33,65.58a14.58,14.58,0,0,1-3,5.2,15.82,15.82,0,0,1-8.73,5.11,15.15,15.15,0,0,1-6.29.05c-.66-.14-1.3-.31-1.94-.51l-65-21.13a15.41,15.41,0,0,1-8.68-7A15.69,15.69,0,0,1,1388,449a15.22,15.22,0,0,1,.71-4q10.61-32.64,21.23-65.27a15.24,15.24,0,0,1,6.65-8.38,15.74,15.74,0,0,1,9.64-2.39,16.43,16.43,0,0,1,3.87.79l29.25,9.52Zm-32,29.89-.38-.17c-.51-.24-1-.51-1.51-.7a6.21,6.21,0,0,0-8.16,7.75,9.9,9.9,0,0,0,1.69,3.13c.73.92,1.47,1.83,2.21,2.75.11.15.22.31.32.47a.78.78,0,0,1,0,.9,3.87,3.87,0,0,1-.48.59,17.29,17.29,0,0,1-5,3.56,24.76,24.76,0,0,1-7.25,2.11,10.57,10.57,0,0,0-1.67.36,4.33,4.33,0,0,0-2.93,5.55,6.78,6.78,0,0,0,1.5,2.63,17.6,17.6,0,0,0,3.71,3.18,2.31,2.31,0,0,1,1.2,2.05,5,5,0,0,0,2.34,4.15,12,12,0,0,0,2.39,1.17c1.2.48,2.4.93,3.57,1.47a9.8,9.8,0,0,1,3.43,2.59c.48.58,1,1.13,1.46,1.7a20,20,0,0,0,17.48,7.05,36,36,0,0,0,4.62-.93,11,11,0,0,1,4.16-.22,33.92,33.92,0,0,1,4,.92,17.43,17.43,0,0,0,2,.44,5.21,5.21,0,0,0,5.24-2,1.89,1.89,0,0,1,1.84-.83h.28a19.25,19.25,0,0,0,5-.45,6.49,6.49,0,0,0,2.79-1.38,4.27,4.27,0,0,0,.83-5.79,9.94,9.94,0,0,0-1.26-1.49,29.4,29.4,0,0,1-2.88-3.23,19.16,19.16,0,0,1-3.58-7.62,12,12,0,0,1-.23-1.46c-.05-.66.18-.95.82-1.16l.27-.08,3-.81a11.53,11.53,0,0,0,2.61-1,6.56,6.56,0,0,0,3.06-3.34,6.11,6.11,0,0,0-1.58-6.93,7.44,7.44,0,0,0-4.06-1.72l-.53-.08c.13-.41.25-.75.36-1.1a39.93,39.93,0,0,0,1.45-5.82,18.26,18.26,0,0,0,0-6.3,19.59,19.59,0,0,0-6.39-11.17,23.23,23.23,0,0,0-11.64-5.52,21,21,0,0,0-10,.57,18.83,18.83,0,0,0-9.19,6,24,24,0,0,0-3.83,7.09C1431.11,408,1430.81,409,1430.46,410.1Z"/><path class="cls-15" d="M1430.46,410.1c.35-1.07.65-2.1,1-3.1a24,24,0,0,1,3.83-7.09,18.83,18.83,0,0,1,9.19-6,21,21,0,0,1,10-.57,23.23,23.23,0,0,1,11.64,5.52,19.59,19.59,0,0,1,6.39,11.17,18.26,18.26,0,0,1,0,6.3,39.93,39.93,0,0,1-1.45,5.82c-.11.35-.23.69-.36,1.1l.53.08a7.44,7.44,0,0,1,4.06,1.72,6.11,6.11,0,0,1,1.58,6.93,6.56,6.56,0,0,1-3.06,3.34,11.53,11.53,0,0,1-2.61,1l-3,.81-.27.08c-.64.21-.87.5-.82,1.16a12,12,0,0,0,.23,1.46,19.16,19.16,0,0,0,3.58,7.62,29.4,29.4,0,0,0,2.88,3.23,9.94,9.94,0,0,1,1.26,1.49,4.27,4.27,0,0,1-.83,5.79,6.49,6.49,0,0,1-2.79,1.38,19.25,19.25,0,0,1-5,.45h-.28a1.89,1.89,0,0,0-1.84.83,5.21,5.21,0,0,1-5.24,2,17.43,17.43,0,0,1-2-.44,33.92,33.92,0,0,0-4-.92,11,11,0,0,0-4.16.22,36,36,0,0,1-4.62.93,20,20,0,0,1-17.48-7.05c-.48-.57-1-1.12-1.46-1.7a9.8,9.8,0,0,0-3.43-2.59c-1.17-.54-2.37-1-3.57-1.47a12,12,0,0,1-2.39-1.17,5,5,0,0,1-2.34-4.15,2.31,2.31,0,0,0-1.2-2.05,17.6,17.6,0,0,1-3.71-3.18,6.78,6.78,0,0,1-1.5-2.63,4.33,4.33,0,0,1,2.93-5.55,10.57,10.57,0,0,1,1.67-.36,24.76,24.76,0,0,0,7.25-2.11,17.29,17.29,0,0,0,5-3.56,3.87,3.87,0,0,0,.48-.59.78.78,0,0,0,0-.9c-.1-.16-.21-.32-.32-.47-.74-.92-1.48-1.83-2.21-2.75a9.9,9.9,0,0,1-1.69-3.13,6.21,6.21,0,0,1,8.16-7.75c.52.19,1,.46,1.51.7Zm3.74,1.49-.75,2.81c-.13.48-.25,1-.39,1.43s-.51.76-1.08.47a4.55,4.55,0,0,1-.79-.53c-.71-.55-1.41-1.13-2.13-1.67A6.13,6.13,0,0,0,1427,413a2.1,2.1,0,0,0-2.62,1.15,2.28,2.28,0,0,0,.07,2.08,9.15,9.15,0,0,0,1,1.57c1,1.26,2,2.48,3,3.73a12.81,12.81,0,0,1,.93,1.38,1.73,1.73,0,0,1,0,1.61,8.89,8.89,0,0,1-1.24,2,20.54,20.54,0,0,1-7.22,5.58,27.83,27.83,0,0,1-8.28,2.45,6,6,0,0,0-.84.17c-.56.19-.72.55-.43,1.07a4.35,4.35,0,0,0,.62.84,18,18,0,0,0,3.36,2.72,20,20,0,0,1,1.9,1.42,2,2,0,0,1,.66,2c-.06.33-.1.66-.16,1a1.33,1.33,0,0,0,.81,1.56c.63.3,1.28.55,1.92.82,1.12.47,2.25.89,3.34,1.41a13.65,13.65,0,0,1,4.54,3.4l1.56,1.8a15.63,15.63,0,0,0,6.92,4.87,16,16,0,0,0,6.32.94,27.48,27.48,0,0,0,4.49-.82,15.26,15.26,0,0,1,5-.51,26.83,26.83,0,0,1,4.63.88c.84.23,1.69.44,2.55.62a1.31,1.31,0,0,0,1.56-.79c.14-.28.29-.56.43-.85a2.08,2.08,0,0,1,1.72-1.26c.25,0,.51-.06.76-.06.55,0,1.11,0,1.66,0a16.73,16.73,0,0,0,4.41-.26,4.26,4.26,0,0,0,.85-.29c.54-.26.63-.63.27-1.12a7.26,7.26,0,0,0-.7-.77,28.6,28.6,0,0,1-4-4.84,21.86,21.86,0,0,1-3.52-9,13.36,13.36,0,0,1-.1-3.46,2.13,2.13,0,0,1,1.56-2c.32-.09.63-.21.95-.31,1.11-.31,2.24-.61,3.35-.93.79-.22,1.59-.46,2.37-.72a3.82,3.82,0,0,0,1.37-.84,2.14,2.14,0,0,0-.42-3.41,3.15,3.15,0,0,0-.56-.26,7,7,0,0,0-2.45-.26c-.92,0-1.84.08-2.76.11a2.72,2.72,0,0,1-.8-.08c-.48-.12-.62-.37-.48-.85.11-.33.24-.66.37-1a53.22,53.22,0,0,0,2.75-8.52,16.1,16.1,0,0,0,.41-4.59,15,15,0,0,0-3.89-9.11,18,18,0,0,0-7.22-4.89,18.43,18.43,0,0,0-8.83-1.23,15,15,0,0,0-12.78,9.37A45.22,45.22,0,0,0,1434.2,411.59Z"/></g></g></svg>