<svg xmlns="http://www.w3.org/2000/svg" viewBox="0 0 713.57 764.51"><defs><style>.cls-1{fill:#eae3ca;}.cls-2{fill:#38301f;}</style></defs><title>notebook2</title><g id="Layer_2" data-name="Layer 2"><g id="paper"><path class="cls-1" d="M29.89,579.66c.58.23-3.38,9.74-3.38,9.74s7.67,3.85,10.41,4.79L464.63,740.77c27.9,9.56,84.46,22,84.46,22,7.25-50.72,147.5-534.83,162.72-590.59,0,0-154.52-55.19-230.79-81.72L416.55,68,376.81,54.22l-22.28-7.76L227.27,2.2C227.78,4,224.5,5.06,225,6.84"/><path class="cls-2" d="M28.2,580.13c.57,1.48-2.71,7.16-3.39,8.8a1.76,1.76,0,0,0,.81,2c14.22,7.12,29.73,11.45,44.75,16.59l60.29,20.67L251.25,669.5l120.59,41.33,60.29,20.66c16.14,5.53,32.18,11.4,48.58,16.1,22.42,6.43,45.15,11.87,67.91,16.88a1.78,1.78,0,0,0,2.17-1.23c1.29-8.92,3.58-17.74,5.7-26.49,3.76-15.56,7.79-31,11.88-46.52,11.78-44.68,24.11-89.23,36.5-133.76Q626.45,479,648.45,401.64q19.8-69.83,39.73-139.6c8.05-28.22,16.18-56.42,24-84.7.43-1.56.87-3.12,1.29-4.69a1.79,1.79,0,0,0-1.22-2.16q-59.4-21.21-118.83-42.29Q489.11,91.21,384.51,55L227.74.5a1.78,1.78,0,0,0-2.23,1.7c0,1.58-2.2,2.7-2.27,4.64-.07,2.27,3.45,2.27,3.52,0C226.81,5.26,229,4.15,229,2.2L226.8,3.9Q360,50.24,493.21,96.57,580.17,127,666.88,158l44.46,15.85-1.23-2.16c-6.88,25.19-14.18,50.27-21.33,75.38q-19.24,67.48-38.44,135-22,77.42-43.69,154.91c-12.88,46.11-25.68,92.25-38,138.51-7.28,27.29-15.25,54.69-20.5,82.46-.27,1.45-.52,2.89-.73,4.35l2.16-1.23q-29.09-6.41-57.9-14.1c-34.52-9.32-68.12-22.15-101.93-33.73L149.5,630.92,82.61,608c-18.39-6.3-37.81-11.39-55.21-20.11l.81,2c1-2.51,4.44-8,3.38-10.67-.81-2.09-4.22-1.18-3.39.93Z"/><path class="cls-2" d="M35.15,572.87c2.81-7,4.9-14.34,7.29-21.53.71-2.16-2.68-3.08-3.4-.94-2.39,7.19-4.47,14.49-7.28,21.53-.84,2.11,2.56,3,3.39.94Z"/><path class="cls-2" d="M45.89,541.63c2.07-6.43,4.88-12.69,7.26-19,.8-2.13-2.6-3-3.4-.94-2.37,6.33-5.18,12.58-7.25,19-.7,2.17,2.7,3.09,3.39.94Z"/><path class="cls-2" d="M55.15,513.35c2-6.9,5.44-13.27,6.77-20.35.42-2.21-3-3.16-3.39-.93-1.34,7.08-4.8,13.45-6.77,20.34-.62,2.19,2.77,3.12,3.39.94Z"/><path class="cls-2" d="M63.11,485.58C66.36,479.2,67.71,472,71.7,466c1.26-1.89-1.79-3.65-3-1.77-4,6-5.34,13.23-8.59,19.61-1,2,2,3.8,3,1.78Z"/><path class="cls-2" d="M74.05,456.85c1.18-6.84,5.23-12.53,7.89-18.82.87-2.06-2.16-3.86-3-1.78-2.77,6.57-7,12.53-8.24,19.67-.39,2.21,3,3.16,3.39.93Z"/><path class="cls-2" d="M83.29,428.4a85.76,85.76,0,0,0,9.38-17.77c.82-2.12-2.58-3-3.4-.94a81.39,81.39,0,0,1-9,16.93c-1.29,1.87,1.76,3.63,3,1.78Z"/><path class="cls-2" d="M95.4,400.07q3.51-8.52,6.39-17.26c.71-2.15-2.69-3.08-3.4-.93q-2.88,8.75-6.38,17.25c-.86,2.09,2.54,3,3.39.94Z"/><path class="cls-2" d="M120.6,318.22a105.36,105.36,0,0,0,6.79-17.34c.64-2.18-2.76-3.11-3.39-.93a100.47,100.47,0,0,1-6.44,16.49c-1,2,2,3.81,3,1.78Z"/><path class="cls-2" d="M129.76,292.12a142.86,142.86,0,0,1,5.87-19.07c.85-2.09-2.55-3-3.4-.93a143.39,143.39,0,0,0-5.86,19.07c-.56,2.19,2.83,3.13,3.39.93Z"/><path class="cls-2" d="M146.39,236.47a130.65,130.65,0,0,0,7.75-17.65c.76-2.14-2.64-3.06-3.39-.94a126.4,126.4,0,0,1-7.39,16.81c-1.06,2,2,3.78,3,1.78Z"/><path class="cls-2" d="M157,210.72c1.05-3.18,2-6.43,3.16-9.57s2.46-5.72,3.13-8.91c.46-2.21-2.94-3.16-3.4-.94-.66,3.17-2,5.9-3.12,8.92s-2.11,6.38-3.16,9.57c-.71,2.16,2.68,3.08,3.39.93Z"/><path class="cls-2" d="M165.92,185.35c2.75-5.76,4.26-12.19,6.11-18.28.66-2.17-2.73-3.1-3.39-.94-1.76,5.79-3.15,12-5.76,17.45-1,2,2.06,3.82,3,1.77Z"/><path class="cls-2" d="M174.12,158.33q3.23-8.4,6.21-16.9c.75-2.14-2.65-3.06-3.4-.93q-3,8.49-6.21,16.89c-.81,2.12,2.59,3,3.4.94Z"/><path class="cls-2" d="M181.9,133c2.17-3,3.18-6.44,4.28-9.93.93-2.94,2.44-5.63,3.1-8.64.48-2.2-2.91-3.15-3.4-.93-.57,2.62-1.89,5-2.74,7.51-1.18,3.56-2,7.12-4.28,10.21-1.32,1.84,1.73,3.6,3,1.78Z"/><path class="cls-2" d="M192.35,106c-.61-2,2.12-6.18,2.93-8l3.38-7.57c.91-2-2.12-3.84-3-1.78l-4.68,10.49c-1.1,2.46-2.83,5-2,7.8.66,2.16,4.06,1.24,3.39-.94Z"/><path class="cls-2" d="M200.49,81.09a12.8,12.8,0,0,1,1.2-3.15c1.08-2-2-3.77-3-1.78a16.85,16.85,0,0,0-1.55,4c-.54,2.2,2.85,3.14,3.39.94Z"/><path class="cls-2" d="M220.79,27.79c.74-4.34,1.67-9,3.83-12.86,1.1-2-1.94-3.76-3-1.78-2.32,4.17-3.39,9-4.18,13.71-.38,2.21,3,3.16,3.39.93Z"/><path class="cls-2" d="M194.26,6.44c5.26-10,18.7-2,25.8,1.07s15.78,5.73,20.35,12.5c.63.93,2.15,0,1.52-.89-5.94-8.8-18.37-12-27.65-16-7-3-17.08-6-21.54,2.47-.52,1,1,1.89,1.52.89Z"/><path class="cls-2" d="M197.65,8.59c6.56-2.31,14.52.9,20.67,3.42a51.08,51.08,0,0,1,17.76,11.7c.79.81,2-.43,1.25-1.25a53.26,53.26,0,0,0-18.54-12.15c-6.49-2.64-14.65-5.87-21.61-3.42-1.06.37-.6,2.08.47,1.7Z"/><path class="cls-2" d="M235.56,13.81c.2-.47.6-2.05,1.07-2.22S239.51,12.7,240,13s1.7.74,1.83,1.53c.07.41-.45,1.33-.59,1.73a47.23,47.23,0,0,1-1.85,4.41c-.92,1.94-2,1.88-3.84,1a5.82,5.82,0,0,1-1.65-.89c-.49-.6-.32-.84-.11-1.69.66-2.57,1.51-5.1,2.26-7.65a.88.88,0,0,0-1.69-.46c-.8,2.69-1.63,5.39-2.39,8.09-.4,1.39-.55,2.11.63,3s4.2,2.59,5.91,2.43c1.52-.15,2.06-2.19,2.6-3.34,1.1-2.38,4.38-7.42,1.15-9.11-1.09-.57-2.34-1-3.48-1.42-.73-.3-1.63-.93-2.45-.82-1.5.19-1.79,2-2.3,3.16-.45,1,1.07,1.92,1.52.89Z"/><path class="cls-2" d="M228.23,39.94c.21-1.24.29-2.42,1.83-2.18a7.36,7.36,0,0,1,2.58.59c1,.61.4,1.17-.18,1.84a4,4,0,0,0-1,1.72.88.88,0,0,0,1.7.46c.28-1.19,1.65-1.76,1.8-3.07a2.6,2.6,0,0,0-1.86-2.65,9.19,9.19,0,0,0-2.13-.51,9.87,9.87,0,0,0-2.29-.31c-1.6.14-2,2.4-2.17,3.64s1.51,1.59,1.7.47Z"/><path class="cls-2" d="M183.77,57.3c-6.32-1.3-9.08,5.52-6.41,10.55,1.74,3.27,5.27,5.42,8.46,7.05,1.86.95,3.8,1.72,5.73,2.52,2.61,1.09,4.36,2.74,6.8,4,1,.51,1.9-1,.89-1.52-1.58-.79-2.76-2.07-4.3-2.92-1.94-1.07-4.19-1.67-6.2-2.58a38.06,38.06,0,0,1-5.3-2.85A13.11,13.11,0,0,1,179.63,68a4.06,4.06,0,0,1-1.2-2.81q-2-4.55,4.87-6.18c1.1.23,1.58-1.47.47-1.69Z"/><path class="cls-2" d="M181.9,55.94c-5-1.22-5.82,4.57-3.38,7.7,4.25,5.46,13.1,7.19,19.25,9.42,1.07.39,1.53-1.31.47-1.7-3.27-1.18-6.56-2.31-9.8-3.56a30.32,30.32,0,0,1-5-2.34,15.06,15.06,0,0,1-2.85-2.18q-3.06-2.46.88-5.64c1.1.27,1.57-1.43.47-1.7Z"/><path class="cls-2" d="M210.44,89A45.12,45.12,0,0,0,192.6,78.57c-5.47-1.65-13.66-3.41-19-.39-3.65,2.07-5.39,6.41-2.87,10.06,1.69,2.45,4.75,3.74,7.31,5,4.37,2.17,8.8,4.21,13.25,6.21,1,.46,1.92-1.06.89-1.52-4.73-2.12-9.44-4.29-14.07-6.61-3.25-1.62-5.16-2.41-5.7-6.32-.47-3.41.22-4.51,3.42-5.77a15,15,0,0,1,5.73-.73c10.3.18,20.2,4.79,27.64,11.75.82.78,2.07-.47,1.24-1.24Z"/><path class="cls-2" d="M211.36,96.52a65.19,65.19,0,0,0-19.81-11.76c-6-2.2-14.24-4.92-20-.81-4.32,3.06-4.71,8.42-1.69,12.56,4.28,5.85,13.42,7.13,19.86,9.12,1.08.33,1.55-1.36.47-1.7-4.8-1.48-10.38-2.53-14.77-5-3.88-2.21-7.54-6.57-4.77-11.19,2.09-3.48,5.94-4.29,9.81-4,10.74.77,21.71,7.24,29.7,14.06.86.73,2.11-.51,1.24-1.24Z"/><path class="cls-2" d="M209,96.15l1.81-6.77-1.73-.24c-.26,2.92-5.35,7-1.11,8.92,1.35.6,4.21,2.19,5.71,1.49,1.35-.62,1.13-3,1.08-4.14s-1.82-1.13-1.76,0c0,.33.21,2.2-.1,2.42s-1.37-.32-1.6-.4c-.69-.23-1.39-.48-2.07-.75-1.14-.45-1.19-.83-.78-1.85s1.27-2,1.74-3a8.05,8.05,0,0,0,.65-2.65c.09-1-1.48-1.17-1.73-.23l-1.81,6.77a.88.88,0,0,0,1.7.47Z"/><path class="cls-2" d="M206.48,119c-3.19-6.74-11.08-10.34-17.53-13.25s-15.55-6.3-22.5-3.64c-4.16,1.59-6.92,6.32-4.2,10.36,4.34,6.45,15.08,7,21.16,11.06,1,.63,1.83-.89.89-1.52-3.76-2.54-7.92-3.73-12.11-5.35-2-.79-6.8-2.28-7.91-4.5l1.37-7.72a8.33,8.33,0,0,1,4.4-1.22,23,23,0,0,1,6.3.32,53.27,53.27,0,0,1,15.5,5.57c5,2.61,10.59,5.44,13.11,10.77.49,1,2,.13,1.52-.88Z"/><path class="cls-2" d="M205,123.17a118.93,118.93,0,0,0-23.43-13.06c-5.6-2.31-13.52-6-19.09-1.65-12.34,9.72,12.67,20,19.08,22.14,1.08.35,1.54-1.34.47-1.7-4.74-1.55-9.58-3.15-13.77-5.91-3.48-2.29-9.56-7.44-5.56-12.36,2.55-3.13,7.63-2.52,11-1.54,10.87,3.17,21.21,9.06,30.4,15.6.92.65,1.8-.87.89-1.52Z"/><path class="cls-2" d="M208,114.5c-2.62-1.27-6.14-4.29-7.72-.53a76.07,76.07,0,0,1-3.86,7.65.89.89,0,0,0,.32,1.2c1.61.92,3.91,2.52,5.81,2.74,1.5.17,2.06-1.28,2.74-2.38a59,59,0,0,0,3.7-6,1.85,1.85,0,0,0-1-2.68.88.88,0,0,0-.89,1.52c.65.37-2.95,5.71-3.34,6.27a5.09,5.09,0,0,1-1.11,1.46c-.71-.28-1.4-.57-2.09-.9-1-.47-2-1-2.94-1.55l.31,1.21c.9-1.6,1.76-3.21,2.57-4.85a29.1,29.1,0,0,1,1.38-3c.1-.91.6-1,1.49-.44l.75.36c1,.41,2,1,3,1.44S209,115,208,114.5Z"/><path class="cls-2" d="M197.66,143.66c-4.12-6.25-11.5-9.68-18.41-12-6.66-2.23-16.5-4.54-23.4-2.08-4.84,1.72-5.66,7-2.44,10.77,4.58,5.36,14.84,7.08,21.22,9.11,1.08.35,1.55-1.35.47-1.69-5.09-1.62-10.24-3.23-15.16-5.32a12.67,12.67,0,0,1-4.33-2.7q-3-1.51-.87-4.73c-.58-2.25,0-3.48,1.72-3.71,2.36-1.16,6.17-.75,8.71-.6,10.54.61,24.85,4.54,31,13.84.62.94,2.14.06,1.51-.89Z"/><path class="cls-2" d="M195.65,147.53a58.9,58.9,0,0,0-21.54-11.17,57.29,57.29,0,0,0-11.64-1.93c-2.83-.17-7.09-.79-9.68.86-4.32,2.77-2.1,9,.48,12.05,4.82,5.77,12.67,8.51,19.95,9,1.13.08,1.12-1.68,0-1.76-6-.42-12.07-2.39-16.62-6.41a15.64,15.64,0,0,1-2.83-3.09l-.74-1.24q-2.67-3.81,1.36-5.63c2.9-2.65,5.13-2.28,8.91-2a56.72,56.72,0,0,1,31.11,12.53c.87.71,2.13-.53,1.24-1.24Z"/><path class="cls-2" d="M199.87,140c-1-1.11-3.15-2.47-4.73-2.46s-2,1.59-2.46,2.72c-1.14,2.6-2.14,5.27-3.11,7.94a.91.91,0,0,0,.62,1.09,46.34,46.34,0,0,1,4.59,2.11.88.88,0,0,0,1.2-.31q1.29-2.81,2.48-5.67c.6-1.44,1.71-3.2,1.67-4.79a.88.88,0,0,0-1.76,0c0,1.4-1.21,3.37-1.74,4.64-.69,1.66-1.42,3.3-2.17,4.93l1.2-.31a49,49,0,0,0-5-2.3l.61,1.08c.55-1.52,1.13-3,1.72-4.56a32.14,32.14,0,0,1,1.42-3.43c.22-.4.43-1.17,1-1.3.78-.18,2.79,1.37,3.24,1.87C199.39,142.06,200.63,140.81,199.87,140Z"/><path class="cls-2" d="M190.16,170.91c-5-6.12-12.14-9.75-19.33-12.8-6.2-2.62-15.6-6.09-22.3-3.26-4.44,1.88-4.59,6.59-1.8,10,4.55,5.58,13.49,8.65,20.09,10.91,1.08.37,1.54-1.33.47-1.7a68.6,68.6,0,0,1-15-7c-1.36-.88-3.14-1.81-4-3.22q-2.44-1.78.59-4.37c0-2.53,1-3.68,3-3.44,3.09-.73,7,.14,10,.87,9.64,2.37,20.6,7.53,27,15.28.73.87,2-.38,1.25-1.24Z"/><path class="cls-2" d="M188.21,174.85c-8.42-2.84-15.87-7.67-24-11.1-5-2.12-12.53-5.23-17.87-2.53a6.42,6.42,0,0,0-2.54,9.63c1.77,2.74,5,4.15,7.78,5.63,4.25,2.27,8.51,4.52,12.77,6.79,1,.53,1.89-1,.89-1.52-4.79-2.55-9.61-5-14.37-7.64a16,16,0,0,1-3.78-2.4q-3-1.58,0-5.11-.73-5.4,4-4.57a28.22,28.22,0,0,1,8.59,1.85c9.76,3.31,18.31,9.37,28.09,12.66,1.07.37,1.54-1.33.47-1.69Z"/><path class="cls-2" d="M182.08,175.54a22.27,22.27,0,0,1,2-7,2.1,2.1,0,0,1,2.88-1.32c1,.32,3,.67,3.11,1.83.08.74-.81,2.2-1.09,2.9a15.22,15.22,0,0,1-1.43,3.34c-.11.15-.23.63-.36.69a8.57,8.57,0,0,1-2-.67l-3.57-1.2c-1.08-.36-1.54,1.34-.47,1.7,1.79.6,4,1.82,5.92,2,1.31.1,1.65-.85,2.14-1.93.77-1.71,1.49-3.45,2.14-5.22.43-1.16,1-2.39,0-3.38s-3-1.45-4.26-1.82-2.23-.63-3.2.19c-1.17,1-1.76,2.93-2.28,4.32a25.06,25.06,0,0,0-1.29,5.67c-.13,1.12,1.63,1.11,1.76,0Z"/><path class="cls-2" d="M180.36,197.09c-3.48-5.93-12.4-10.58-18.56-13.09-5.52-2.24-14.58-4.91-20.6-3.18-4.59,1.31-6.73,6.46-3.48,10.3,1.93,2.27,5.28,3.23,7.92,4.34q5.78,2.43,11.61,4.67c1.06.41,1.52-1.29.47-1.69a159.54,159.54,0,0,1-15-6.14,8.88,8.88,0,0,1-3-2q-3-1.59.36-4.46,0-3.69,2.82-3.5c2.52-.74,6,.27,8.47.7a43.67,43.67,0,0,1,14,4.59c4.38,2.41,10.92,5.94,13.49,10.32a.88.88,0,0,0,1.52-.89Z"/><path class="cls-2" d="M177.7,201.78c-6.83-5.21-13.81-10.5-21.86-13.68-6-2.36-14-4.32-19.82-.41-4.71,3.18-2.71,7,.68,10.56,4.9,5.07,12,7.34,18.56,9.37,1.09.33,1.55-1.37.47-1.7-4.92-1.51-9.94-3.11-14.25-6-2.08-1.39-5.59-4.05-6.27-6.62-1.29-4.86,5.8-6,9.06-6,12.22,0,23.31,9,32.54,16,.9.68,1.78-.84.89-1.52Z"/><path class="cls-2" d="M173.39,201l2.66-6.56.66-1.64c.23-.81.67-1,1.33-.55.53,0,2.74.87,2.83,1.21.17.6-.57,1.87-.81,2.46q-.74,1.82-1.59,3.57c-.52,1.08-.7,2.38-2.11,2.26a9.75,9.75,0,0,1-3.52-1.35c-1-.53-1.89,1-.89,1.52a16.71,16.71,0,0,0,5.76,1.82.84.84,0,0,0,.76-.44,60.86,60.86,0,0,0,3.88-8.45c.71-1.93.3-2.68-1.59-3.48-1.65-.69-4.17-2.07-5.32-.07-1.61,2.77-2.55,6.26-3.75,9.24-.43,1,1.28,1.5,1.7.46Z"/><path class="cls-2" d="M170.79,227.68c-5.81-4.7-12.1-10.54-19.54-12.28-6.09-1.43-14.52-4.47-20.75-2.3-3.59,1.25-7,5-4.47,8.76,1.41,2.12,4.46,3.21,6.59,4.37,4.52,2.45,9.12,4.75,13.76,7,1,.49,1.91-1,.89-1.52-4.65-2.2-9.24-4.5-13.76-6.95-1-.52-2.62-1.08-3.38-1.86l-1.06-.63,1.9-7.42c2.15-1.81,8.5-.06,10.74.43,4.76,1.05,9.93,1.52,14.29,3.81,4.86,2.55,9.3,6.45,13.54,9.89.87.7,2.13-.53,1.25-1.25Z"/><path class="cls-2" d="M172.67,221.37A56.49,56.49,0,0,0,152.93,210c-6.33-2.05-15-4-21.55-2.17-3.7,1-6.77,4.72-4.26,8.4,1.95,2.85,6.66,4.26,9.65,5.54a96.37,96.37,0,0,0,11.66,4.07.88.88,0,0,0,.47-1.69,90.3,90.3,0,0,1-16-6.08c-.67-.34-2.27-.84-2.73-1.46l-.21-6.39a10.78,10.78,0,0,1,4.55-1.06,39.06,39.06,0,0,1,7.17.24,53.76,53.76,0,0,1,29.7,13.2c.85.74,2.1-.5,1.25-1.25Z"/><path class="cls-2" d="M165.24,227.59l2.38-10.43-1.09.62a11.19,11.19,0,0,1,3.67.82c2.2,1.22.75,3.85.18,5.57-.3.89-.87,4.05-1.77,4.32-.72.23-3.13-1.24-3.86-1.53-1.05-.42-1.51,1.28-.46,1.69,1.49.6,4.28,2.55,5.75,1.21s1.76-4.4,2.34-6.13c.52-1.58,1.74-3.85.61-5.45s-4.19-1.94-6-2.2a.9.9,0,0,0-1.08.61l-2.38,10.43c-.25,1.1,1.45,1.57,1.7.47Z"/><path class="cls-2" d="M162.72,248.54c-3.52-1.85-5.9-4.84-9-7.28a30.49,30.49,0,0,0-9.81-5.09A61.94,61.94,0,0,0,133.07,234c-3.23-.43-7.2-1.44-10.43-.5-4.36,1.27-5.74,5.32-3.16,9,4.26,6.11,13.13,9.42,20.11,10.81,1.11.22,1.58-1.47.47-1.69a38.15,38.15,0,0,1-14.75-6.17c-3.57-2.52-3.71-2.18-2.88-6.61-.68-2.9.08-4.15,2.3-3.75a11.27,11.27,0,0,1,3.38.08c2.82.21,5.66.62,8.45,1.11,5,.87,10.17,2.24,14.42,5.16,3.86,2.65,6.67,6.46,10.85,8.66,1,.53,1.89-1,.89-1.52Z"/><path class="cls-2" d="M160.22,254.64c-2.16-2.78-5.19-4-8.35-5.33L139.47,244c-5.71-2.47-13-6.89-19.42-4.46-4,1.53-5.45,5.57-3.15,9.27,1.34,2.15,3.63,3.35,5.84,4.39,4.43,2.09,9,3.85,13.56,5.77,1,.44,1.93-1.08.89-1.52-4.52-1.92-9.12-3.7-13.57-5.77a21.46,21.46,0,0,1-2.48-1.27l-2-1.57L121.1,241c2.45-1.85,8.31.65,10.7,1.6,5,2,9.84,4.22,14.75,6.34,4.2,1.82,9.52,3.24,12.43,7,.69.89,1.93-.36,1.24-1.24Z"/><path class="cls-2" d="M154.51,253.68l3.29-7.17.83-1.79c.08-.88.54-1.19,1.39-.93.93-.1,2.77.42,3,1.43.19.76-.73,2.65-1,3.39a33.45,33.45,0,0,1-1.59,3.87c-.25.53-.52,1.06-.8,1.57a5,5,0,0,1-2.14-.38c-1.23-.31-2.45-.76-3.66-1.13s-1.55,1.36-.47,1.7l3.66,1.13c.73.22,1.91.83,2.73.67,1-.21,1.35-1,1.81-1.88a35.07,35.07,0,0,0,2.43-5.92c.4-1.26,1.25-3.07.65-4.4a2.56,2.56,0,0,0-1.88-1.26c-1.09-.32-3.4-1.14-4.52-.56s-1.54,2.57-2,3.61L153,252.79c-.47,1,1,1.92,1.52.89Z"/><path class="cls-2" d="M153.85,275.81c-5.39-5.58-13.92-9.54-21-12.54-5.55-2.36-14-5.44-20.1-3.33-4.22,1.47-4.13,5.84-1.7,9,4.15,5.43,13.36,8.85,19.77,10.38,1.1.26,1.57-1.44.47-1.7A50.49,50.49,0,0,1,116.25,271c-3-1.92-8.7-7.59-1.34-9.64,2.71-.75,6.66.24,9.25.84a60.55,60.55,0,0,1,14.82,6c4.61,2.49,10,5.05,13.62,8.85.79.82,2-.43,1.25-1.24Z"/><path class="cls-2" d="M152.22,280.1c-7-4.28-14-8.59-21.7-11.49-5.69-2.14-14.3-4.95-20.29-2.52-3.92,1.59-4,4.77-1.76,7.9,4.47,6.24,14,9,20.56,12.12,1,.48,1.91-1,.89-1.52-4.88-2.34-10.07-4.42-14.71-7.21a21.47,21.47,0,0,1-3.51-2.46c-2.23-2.05-3.08-2.62-1.15-5.4,1.74-2.51,2.32-2.36,5.16-2.35a30.79,30.79,0,0,1,6,.68c10.8,2.17,20.38,8.09,29.64,13.77a.88.88,0,0,0,.89-1.52Z"/><path class="cls-2" d="M146.72,279.66a25,25,0,0,1,2.2-6.56c.47-.93.91-2.38,2.17-2.37a9.83,9.83,0,0,1,3,1.3c.71,1.07-.54,2.92-1,3.88a22.29,22.29,0,0,1-1.43,3.32c-.95,1.46-1.24,1.2-2.86.65l-3.43-1.16c-1.08-.37-1.54,1.33-.47,1.69,1.81.62,4.33,2,6.24,2.07,1.07,0,1.26-.63,1.68-1.53,1-2.18,1.92-4.43,2.87-6.64.43-1,1-1.89.34-2.9-.74-1.23-2.85-1.66-4.09-2.2-1-.44-1.7-.79-2.61-.11-1.24.93-2.05,3.18-2.65,4.55a27.6,27.6,0,0,0-1.7,5.55c-.22,1.1,1.48,1.58,1.7.46Z"/><path class="cls-2" d="M145.5,301.41c-5.11-5.3-12.77-7.58-19.6-9.81a98.22,98.22,0,0,0-13.8-3.5c-2.86-.49-7-1.64-9.78-.67-4.18,1.44-3,6.18-.37,8.61,5.18,4.87,12.74,7.7,19.55,9.28,1.1.26,1.57-1.44.47-1.69a48.89,48.89,0,0,1-14.08-5.55,36,36,0,0,1-3.39-2.23l-1.78-1.48L104.8,289c1.43-1,7.71,1,9.45,1.33,9.69,2,22.95,5,30,12.36.79.82,2-.43,1.25-1.24Z"/><path class="cls-2" d="M142.45,307A114.54,114.54,0,0,0,120,295.23c-5.44-2.18-15-5.87-20.35-1.42C88.53,303,115.4,310.46,120,312.1c1.07.38,1.53-1.32.47-1.7-5.15-1.83-10.26-3.8-15.25-6a24.8,24.8,0,0,1-2.49-1.2c-3-1.7-2.49-1.36-1.14-5.37s1.25-4.14,5-4.12a25.74,25.74,0,0,1,6,.9c10.19,2.51,20.41,8,29,13.92.93.65,1.81-.88.89-1.52Z"/><path class="cls-2" d="M137.36,307.31c.46-2.34.94-4.67,1.49-7,.34-1.49.57-2.58,2.27-2.48a11.33,11.33,0,0,1,3.67,1c.48.4.4.24.15,1-.18.52-.41,1-.61,1.55l-1.22,3.1c-.48,1.24-.87,2.73-2.4,2.82a8.59,8.59,0,0,1-3.56-1.29c-1-.51-1.9,1-.89,1.52,2,1,6,3,7.39.34a55,55,0,0,0,2.22-5.64c.46-1.15,1.63-2.95.88-4.2s-2.76-1.22-3.94-1.52-2.66-.87-3.85-.31-1.42,2.07-1.71,3.27c-.58,2.46-1.1,4.94-1.58,7.42-.22,1.11,1.48,1.58,1.69.47Z"/><path class="cls-2" d="M126.51,322.24c-3.29-4.07-7.87-6.05-12.92-7-5.68-1.13-12.72-2.14-18.45-1.24-2.8.45-4.92,2.22-3.91,5.24,1.57,4.72,8.66,7.34,12.87,8.8,1.07.38,1.53-1.32.47-1.69-2.46-.86-9.17-3.2-10.51-6-3.11-6.4,10.4-4.47,12.41-4.3,6.92.56,14.18,1.72,18.79,7.43.71.89,1.95-.37,1.25-1.24Z"/><path class="cls-2" d="M120.78,326.17c-1.19-2-4-2.52-6.06-3.28A39,39,0,0,0,103,320.55c-4.71-.38-17.64-2.27-15.31,6.62a.88.88,0,0,0,1.7-.47c-1.7-6.49,8.49-4.8,11.06-4.6s5.22.28,7.77.66,9.64,2,11,4.3a.88.88,0,0,0,1.52-.89Z"/><path class="cls-2" d="M98.63,437.38c-7.67-4.06-15.42-9.06-23.58-12.07-4.84-1.78-12.65-4.72-17.81-2.66-4.13,1.65-4.08,5.88-.7,8.39,2.19,1.62,5.31,2.36,7.82,3.33a93.43,93.43,0,0,1,14,6.38.88.88,0,0,0,.89-1.52,83.05,83.05,0,0,0-12-5.62c-1.35-.53-7.76-2.07-8.43-3.29l1.8-6.45,2.79.29c1.32.2,2.64.52,3.94.81,10.89,2.46,20.58,8.75,30.37,13.93,1,.53,1.89-1,.88-1.52Z"/><path class="cls-2" d="M95.4,443.41c-7.29-4.29-14.64-8.61-22.6-11.55-5.28-1.95-14.07-6-19.74-3.48-3.87,1.7-3.22,5.53-.54,8.08,2.35,2.23,5.73,3.35,8.62,4.69l13.53,6.28c1,.47,1.92-1,.89-1.52l-14.38-6.67c-1.24-.58-6.94-2.52-7.41-4l2.94-5.71,3.08.42c1.48.28,3,.73,4.41,1.12,11,2.93,20.61,8.19,30.32,13.89a.88.88,0,0,0,.88-1.52Z"/><path class="cls-2" d="M89.65,443.55c.82-2.65,1.67-5.29,2.58-7.92.61-1.77,1.07-1.74,2.74-1l4.31,1.9L99,435.32c-1.58,3.44-3.68,6.62-4.38,10.4l1.29-.53a18,18,0,0,0-6.38-2.59c-1.11-.22-1.58,1.48-.47,1.7a16.68,16.68,0,0,1,6,2.41.88.88,0,0,0,1.29-.53c.68-3.62,2.7-6.67,4.21-10a.89.89,0,0,0-.31-1.2c-2.13-.94-4.45-2.4-6.71-3-.67-.16-1.08-.36-1.71.1-1,.75-1.32,3.31-1.69,4.41Q89,439.8,88,443.09c-.34,1.08,1.36,1.54,1.7.46Z"/><path class="cls-2" d="M82.14,459.17a52.75,52.75,0,0,0-4,12.35.9.9,0,0,0,.61,1.08c1.81.63,3.61,1.3,5.42,1.89.66.22,1.56.7,2.26.34s.92-1.48,1.12-2q.95-2.56,1.87-5.14c.56-1.52,2.45-4.5,1.51-6.06-1.12-1.84-5.71-2.26-7.57-2.68-1.1-.25-1.57,1.45-.47,1.7,1.47.33,4.88.63,5.92,1.76.71.13.8.51.26,1.12l-.29.82-1.06,2.88c-.43,1.18-1,4.31-1.87,5.13-1.37,1.22-5.19-.93-6.63-1.43l.62,1.08a50.47,50.47,0,0,1,3.82-11.93c.47-1-1-1.92-1.52-.89Z"/><path class="cls-2" d="M88.88,465.1c-4-2-8.07-3.27-11.78-5.94a37.48,37.48,0,0,0-8.64-4.75c-6.23-2.35-15.49-4.78-22.2-3.58-3.64.65-6.37,3.4-3.15,6.61,2.47,2.45,7,3.51,10.13,4.86l14.05,6.09c1,.44,1.92-1.07.89-1.52l-17.56-7.62c-1.62-.7-9.79-3-4.69-6.6,2-1.45,8.69.32,10.93.68,5.56.9,11.15,2.24,16,5.12,2.27,1.33,4.21,3.14,6.48,4.47,2.7,1.6,5.8,2.29,8.61,3.7,1,.5,1.9-1,.89-1.52Z"/><path class="cls-2" d="M86.53,471.33a203,203,0,0,0-24.14-11.28c-4.92-2-15.3-6.73-20.5-3.28-9.08,6,20.46,17,23.18,18.35,1,.5,1.91-1,.89-1.52-4.38-2.17-8.95-3.92-13.36-6a52.37,52.37,0,0,1-7.06-3.94l-2-1.51,2.68-4.41c1.25-.83,4.87.47,6.09.75,11.45,2.57,23.21,8.6,33.36,14.38a.88.88,0,0,0,.89-1.52Z"/><path class="cls-2" d="M70.91,499.68q1.49-6.18,3.53-12.2l-1.08.62c1.77.71,4.75,1.29,5.32,3.18.5,1.68-1.05,4.28-1.68,5.89-.4,1-1,3.9-2.12,4.08S71,499.43,70,498.94s-1.92,1-.89,1.52c2.06,1,4.46,2.71,6.74,2.93a.87.87,0,0,0,.76-.44c1.06-1.66,1.62-4,2.33-5.86s2-3.88,2-5.79c.06-3.1-4.86-4-7.12-4.9a.9.9,0,0,0-1.08.61q-2,6-3.53,12.2c-.26,1.1,1.43,1.57,1.7.47Z"/><path class="cls-2" d="M78.67,494.37C71.79,490.27,65,486,57.49,483.14a74.85,74.85,0,0,0-13.61-3.77c-2.56-.45-5.91-1.33-8.44-.41-4.41,1.6-1.82,5.5.73,7.61s6.07,3.35,9.15,4.74q6.61,3,13.26,5.86c1,.45,1.93-1.07.89-1.52-5.54-2.41-11.07-4.85-16.56-7.36C41.18,487.5,36.62,486,36,484l1.57-3.58a14.55,14.55,0,0,1,2.72.23c1.64.19,3.28.47,4.9.8,12.05,2.43,22.21,8.28,32.63,14.49a.88.88,0,0,0,.89-1.52Z"/><path class="cls-2" d="M76.32,500.45c-7.51-4.3-14.45-9.45-22.48-12.8-5.18-2.16-15.52-7-21.24-3.87-4.52,2.45-.64,5.94,2.25,7.72,7,4.3,15.2,7.06,22.77,10.11,1.05.42,1.51-1.28.47-1.7-5.83-2.35-11.66-4.7-17.34-7.39-1.64-.77-6.4-2.31-7.18-4.07l.9-3.5a9.75,9.75,0,0,1,4.2,0,39.36,39.36,0,0,1,4.8,1c12,3.12,21.41,9.92,32,16a.88.88,0,0,0,.89-1.52Z"/><path class="cls-2" d="M60.65,528.69l2.58-7.34c.37-1,.67-3.15,1.39-4,.93-1,2.12-.44,3.25-.13s2.24.28,2.55,1.72c.18.8-.77,2.55-1,3.41-.69,2.28-1.11,6.1-2.5,8l1.2-.31a21.22,21.22,0,0,0-3.59-1.73,20.8,20.8,0,0,0-4.72-.44.88.88,0,0,0,0,1.76A18.51,18.51,0,0,1,64,530a20.68,20.68,0,0,1,3.17,1.55.91.91,0,0,0,1.2-.32c.94-1.28,1.18-3.46,1.64-5L72,520c.92-3,.45-3.26-2.53-4.15-1.68-.51-4.73-2.06-6-.29-1.08,1.5-1.46,4.09-2.08,5.86L59,528.22c-.38,1.07,1.32,1.53,1.7.47Z"/><path class="cls-2" d="M48.67,529.44c-6.13-2.32-12.2-4.6-17.82-8-2.12-1.29-5.76-2.76-6.43-5.25-1-1.49-.57-1.9,1.31-1.23l3.33.43c1.49.25,2.95.59,4.42.94,12,2.88,22.8,8.11,34,13.18,1,.47,1.92-1,.89-1.52-7.58-3.44-15.09-7.38-23-10.15A105.42,105.42,0,0,0,31.3,514c-2.31-.46-6.74-1.81-8.92-.77-4.39,2.09,1.27,5.55,3.11,6.8,7.14,4.85,14.67,8,22.71,11.09,1.06.4,1.52-1.3.47-1.7Z"/><path class="cls-2" d="M50.7,523.45C47,520.07,42.55,518.13,38,516a75.68,75.68,0,0,1-7.74-4.15c-1-.61-4.59-2.17-3.09-4.1.38-.48,5.42.83,6.13,1,12.76,2.56,25,8.53,36.93,13.46,1,.43,1.5-1.27.47-1.69-8.41-3.47-16.81-7-25.34-10.16a78.76,78.76,0,0,0-12.49-3.49c-1.78-.33-6.16-1.58-7.94-.65-3.88,2,1.29,5.13,2.93,6.21,6.89,4.53,15.43,6.72,21.58,12.29.84.76,2.08-.48,1.24-1.25Z"/><path class="cls-2" d="M38.91,556.27c-6.79-.81-12.46-3.37-18.35-6.74-2.18-1.24-6.5-3.1-7.71-5.38-1.34-2.53.87-1.76,3.27-1.63a27.1,27.1,0,0,1,5.85,1c12.53,3.51,23.58,10.16,35.26,15.61,1,.47,1.91-1,.89-1.52-9.08-4.24-17.6-9.08-27-12.66-4.17-1.58-17-7.74-20.94-3a.88.88,0,0,0-.22.86c1.69,4.53,8,7.28,11.92,9.44a45,45,0,0,0,17,5.73c1.12.13,1.11-1.63,0-1.76Z"/><path class="cls-2" d="M60.59,550.18C52.83,546.82,46,541.76,38,538.8a66.88,66.88,0,0,0-13.78-3.53c-2.93-.42-6.64-1.22-9.55-.31-4.12,1.3-1.09,4.87,1.17,6.92,2.83,2.58,6.48,4,9.95,5.49l13.94,6.08c1,.45,1.92-1.07.89-1.52-5.77-2.52-11.62-4.9-17.32-7.57-1.66-.77-8.62-3.86-8.4-6.24.29-3.08,9.25-1.11,10.61-.87a68.49,68.49,0,0,1,17.56,5.59c5.69,2.68,10.81,6.36,16.59,8.86,1,.44,1.93-1.07.89-1.52Z"/><path class="cls-2" d="M49,580.9c-8.69-3.08-16.37-8.45-25.29-11.18a109.77,109.77,0,0,0-12.88-3.11c-2.4-.42-5.41-1.11-7.58.3a.91.91,0,0,0-.41,1c1.37,5.51,11.94,7.28,16.29,8.51,9.65,2.75,18.24,6,26.87,11.19l.89-1.52c-7.32-3.64-14.54-7.37-22.36-9.81a91.4,91.4,0,0,0-14.15-3.21c-2.41-.34-6.53-1.32-8.84,0-4.13,2.29.89,6,3.21,7.2,6.85,3.44,14.57,5.55,21.82,7.94,1.08.36,1.54-1.34.47-1.7-4.89-1.6-9.78-3.21-14.59-5-1.93-.73-7.22-1.74-8.22-3.47l.54-3.6a21.92,21.92,0,0,1,2.69.12c2,.18,4,.5,6,.87,11.64,2.13,22,7,32.5,12.25a.88.88,0,0,0,.89-1.52,85.73,85.73,0,0,0-17.85-8.64c-3.69-1.19-7.45-2.12-11.16-3.21-1.81-.53-10-2.23-10.67-4-1.52-3.78,3.19-1.91,4.69-1.61,1.76.35,3.52.76,5.27,1.18a86.26,86.26,0,0,1,10.44,3.1c7.19,2.71,13.74,7.14,20.92,9.69,1.07.38,1.53-1.32.47-1.7Z"/><path class="cls-2" d="M40.59,585.59a52.49,52.49,0,0,1,2.22-6.84c.55-1.34,1.22-4,3-4.28.85-.13,2.41.68,3.22,1,2.16.79,2.09.57,1.26,2.46-.39.87-.74,1.76-1.08,2.64A68.08,68.08,0,0,0,46.8,588l1.08-.62a22.93,22.93,0,0,1-7.74-3,.88.88,0,0,0-.89,1.52,24.52,24.52,0,0,0,8.16,3.14.91.91,0,0,0,1.09-.62c.53-2,1.12-4,1.83-6s2-3.86,2.41-5.81-2.11-2.54-3.71-3.09c-2.68-.93-4.65-2-6.11.75a47.75,47.75,0,0,0-4,10.8.88.88,0,0,0,1.69.46Z"/><path class="cls-2" d="M50.92,556.76a130.08,130.08,0,0,0,3.93-12.83l-1.29.53A26.22,26.22,0,0,0,58,546.93c1.83.76,2.66.59,2,2.68-1,3.13-2.49,6-3.35,9.27l1.08-.62-7.62-2.21a.88.88,0,0,0-.47,1.7L57.25,560a.89.89,0,0,0,1.08-.62,54.66,54.66,0,0,1,2.73-7.87c.43-1,1.86-2.79,1.66-3.87-.16-.9-.38-.89-1.11-1.32-1-.6-2.52-.77-3.63-1.28a24.84,24.84,0,0,1-3.53-2.06.89.89,0,0,0-1.3.52,125.85,125.85,0,0,1-3.93,12.84c-.39,1.06,1.31,1.52,1.7.46Z"/><path class="cls-2" d="M97,384.89c-2.8-.17-5.57-2.65-8.09-3.75s-5.14-1.88-7.61-3.06c-1.57-.75-6.7-3.11-7.11-4.94-.87-3.93,6.55-2.57,8.55-2.38A64.85,64.85,0,0,1,100.51,375c6,2.28,10.81,5.51,16.15,9,1,.62,1.83-.9.88-1.52-7-4.62-13.77-9.15-22-11.32A78.26,78.26,0,0,0,82.74,369c-2.51-.23-8.12-1.43-10.41,0-4,2.49,1.93,6.82,4.14,8.36,3.15,2.2,6.72,3.36,10.25,4.8s6.55,4.29,10.28,4.51c1.13.06,1.12-1.7,0-1.76Z"/><path class="cls-2" d="M114.34,389a77.74,77.74,0,0,0-21.42-11.13c-5.86-2-14.35-5.48-20.59-2.92-4.68,1.92-2.79,5.84.49,8.27A57.44,57.44,0,0,0,83.72,389c4.08,1.81,8.71,2.64,12.37,5.24.93.65,1.81-.87.89-1.52-4.61-3.26-10.59-4.27-15.63-6.77-2.48-1.23-5.41-2.42-7.5-4.24-7-6.09,4.59-5.86,7.87-5.2a79.48,79.48,0,0,1,31.73,14c.91.68,1.78-.85.89-1.52Z"/><path class="cls-2" d="M108.2,387.83c.78-2.76,1.64-5.49,2.6-8.19.56-1.58,1-2.12,2.67-1.52.58.2,3.79,1.18,4.06,1.85.16.4-1.4,2.92-1.61,3.43-.39,1-.74,1.91-1.06,2.88-.44,1.38-.32,3.12-2,2.86-1.37-.22-3.12-1.45-4.38-2-1-.47-1.91,1-.88,1.52l3.88,1.8a8.28,8.28,0,0,0,2.47,1.1c1,.05,1.23-.28,1.62-1.12a31.21,31.21,0,0,0,1-3.66,36.75,36.75,0,0,1,1.64-4.19c.44-.94,1.43-2.1,1-3.22-.54-1.55-6.9-4.22-8.39-3.54-1.23.57-1.53,2.74-1.92,3.85-.89,2.54-1.69,5.11-2.42,7.71a.88.88,0,0,0,1.69.47Z"/><path class="cls-2" d="M108.3,410.33a67.07,67.07,0,0,0-19.65-12.26c-6.52-2.6-16-5.44-22.92-2.56-4.42,1.84-2.41,5.28.53,7.69,6.33,5.2,15.64,7.53,23.12,10.59,1,.43,1.5-1.27.46-1.7-5.36-2.19-10.78-4.29-16.1-6.6-2-.87-6.72-2.6-7.64-4.73l.58-3.71a14.94,14.94,0,0,1,3.32-.54,26.94,26.94,0,0,1,5.08-.1c11.82.91,23.27,7.46,32,15.17.85.74,2.1-.5,1.25-1.25Z"/><path class="cls-2" d="M104.3,416.28c-7-4.69-14.11-9.45-22-12.46A43.16,43.16,0,0,0,70,401c-2.24-.15-6.64-.72-8.62.76-8.18,6.1,21.22,17.32,24.94,18.51,1.08.35,1.54-1.35.47-1.69a90.25,90.25,0,0,1-15.77-7.07c-2.1-1.15-4.25-2.26-6.29-3.52l-2.11-1.45q.2-4,3-3.79a15,15,0,0,1,4.38,0c12.45.9,23.32,8.34,33.38,15.07,1,.63,1.83-.9.89-1.52Z"/><path class="cls-2" d="M99,415.92a48.44,48.44,0,0,0,3.17-7.28,10.79,10.79,0,0,1,.69-2.31c.65-.85,1.31-.51,2.34-.1,1.19.46,2.82,1,2.51,2.33a27.38,27.38,0,0,1-1.88,3.9c-.47,1.08-.78,2.32-1.33,3.34-.42.76.11.74-.54.67-.46-.05-1.2-.78-1.68-1a11.08,11.08,0,0,0-3.24-.9c-1.11-.15-1.58,1.55-.47,1.7a9.49,9.49,0,0,1,3.52,1.08,10.62,10.62,0,0,0,1.75,1.16,1.51,1.51,0,0,0,1.64-.38,4.06,4.06,0,0,0,.55-1.4c.52-1.43,1.08-2.85,1.71-4.25.71-1.56,2-3.17,2.34-4.83a.9.9,0,0,0-.23-.86,18.19,18.19,0,0,0-5.46-2.92c-.83-.29-1.48-.56-2.26,0s-1.06,2.36-1.36,3.35A45,45,0,0,1,97.5,415c-.54,1,1,1.89,1.52.89Z"/></g></g></svg>