<svg xmlns="http://www.w3.org/2000/svg" viewBox="0 0 717.31 163.45"><defs><style>.cls-1{fill:#ad968a;}.cls-2{fill:#38301f;}.cls-3{fill:#81c6d8;}.cls-4{fill:#bfcbc8;}.cls-5{fill:#eae3ca;}.cls-6{fill:#a5c08a;}.cls-7{fill:#979b3d;}.cls-8{fill:#f6bc3c;}.cls-9{fill:#da9b38;}</style></defs><title>palette2</title><g id="Layer_2" data-name="Layer 2"><g id="palette"><path class="cls-1" d="M625.47,157l91.4-21.56L689.62,20.5A24.67,24.67,0,0,0,660,2.18L3,157.6Z" transform="translate(-1.31)"/><path class="cls-2" d="M625.94,158.68,706,139.79l11.32-2.67a1.79,1.79,0,0,0,1.22-2.17L698.11,48.68C695.71,38.55,694,27.93,690.74,18,686.17,4.06,671.91-2.39,658.15.8c-11.9,2.76-23.78,5.63-35.68,8.44L547.38,27,446.48,50.88l-114,27L217.85,105l-101.3,24L41,146.81c-12.29,2.9-24.65,5.59-36.87,8.72-.53.14-1.06.25-1.59.38-1.95.46-1.5,3.46.47,3.45l62.32-.06,148.56-.15L393.44,159l155.24-.16,51.45,0c8,0,16.39.78,24.32,0,.34,0,.69,0,1,0a1.76,1.76,0,0,0,0-3.51l-62.32.06-148.56.14-179.53.18-155.24.16-51.45,0H12.45c-2.45,0-6-.66-8.4,0a4.35,4.35,0,0,1-1,0l.47,3.46,24.86-5.88,66.18-15.66,94.88-22.45,111-26.25L414.81,62l105.26-24.9,83.49-19.76L652.65,5.72c2.56-.61,5.12-1.29,7.71-1.82A23.24,23.24,0,0,1,687.93,21c.77,3,1.42,6,2.12,9l23.19,97.8,1.93,8.16,1.23-2.17-80.08,18.9L625,155.29C622.8,155.81,623.73,159.2,625.94,158.68Z" transform="translate(-1.31)"/><ellipse class="cls-3" cx="638.04" cy="70.04" rx="34.08" ry="47.91" transform="translate(2.04 165.78) rotate(-14.84)"/><path class="cls-2" d="M670.14,61.55c4,15.74,3.33,36.11-9.43,48-12.31,11.44-29.31,6.62-40.08-4.32-12.77-13-18.8-32.92-16.34-50.86,2-15,11.8-31.2,28.79-30.52,19.55.77,32.38,20.85,37.06,37.73a.88.88,0,0,0,1.7-.47C667.21,44.42,655.56,26,637.27,22.53c-16-3-28.41,8.8-32.92,23.25-5.87,18.83-.79,41.25,11.4,56.54,9.45,11.86,25.69,20.57,40.4,12.66,18.57-10,20.24-35.83,15.69-53.9A.88.88,0,0,0,670.14,61.55Z" transform="translate(-1.31)"/><ellipse class="cls-4" cx="560" cy="87.55" rx="34.08" ry="47.91" transform="translate(-5.05 146.37) rotate(-14.84)"/><path class="cls-2" d="M592.1,79.06c4,15.74,3.33,36.11-9.43,48-12.31,11.44-29.31,6.62-40.08-4.32-12.77-13-18.8-32.92-16.35-50.87,2-15,11.81-31.19,28.8-30.52,19.55.78,32.38,20.86,37.06,37.74a.88.88,0,0,0,1.7-.47C589.17,61.93,577.52,43.51,559.23,40c-16-3-28.41,8.8-32.92,23.25-5.87,18.83-.79,41.25,11.4,56.54,9.45,11.86,25.69,20.56,40.4,12.66,18.57-10,20.24-35.83,15.69-53.9A.88.88,0,0,0,592.1,79.06Z" transform="translate(-1.31)"/><ellipse class="cls-5" cx="480.92" cy="105.48" rx="34.08" ry="47.91" transform="translate(-12.28 126.71) rotate(-14.84)"/><path class="cls-2" d="M513,97c4,15.75,3.32,36.11-9.44,48-12.3,11.44-29.31,6.62-40.07-4.32-12.78-13-18.81-32.91-16.35-50.86,2-15,11.8-31.19,28.8-30.52C495.51,60,508.33,80.11,513,97a.88.88,0,0,0,1.69-.47C510.09,79.86,498.44,61.44,480.15,58c-16-3-28.42,8.81-32.92,23.26-5.87,18.83-.79,41.25,11.39,56.53,9.45,11.86,25.69,20.57,40.4,12.67,18.58-10,20.25-35.83,15.69-53.91A.88.88,0,0,0,513,97Z" transform="translate(-1.31)"/><path class="cls-6" d="M375.59,155.18c7.34-.5,14.82-.61,21.38,2.53a5.2,5.2,0,0,1,2.5,2.85c9.85-.81,19.73-1.3,29.62-1.28,6-10.59,7.72-25.64,3.64-41-6.78-25.58-27-42.4-45.22-37.58s-27.45,29.46-20.67,55A64,64,0,0,0,375.59,155.18Z" transform="translate(-1.31)"/><path class="cls-2" d="M375.59,156.06c6.36-.4,19.59-1.81,23.12,4.94a.87.87,0,0,0,.76.44c9.86-.79,19.73-1.27,29.62-1.28a.86.86,0,0,0,.76-.43c13-24,4.34-59.89-18.59-75.11-8.45-5.6-19.16-7.63-28.55-3.1-10.42,5-16.13,16.32-18.08,27.27-2.86,16.15,1.25,33.22,10.2,46.84.62.94,2.14.06,1.52-.89-9.17-14-13.3-31.81-9.45-48.23,3.08-13.18,12.61-26,27.36-25.78S420.71,93.32,427,105.57a65.34,65.34,0,0,1,7,26.32,57.6,57.6,0,0,1-.86,13.37c-.62,3.42-1.87,11.08-5.06,12.72-2.16,1.11-5.46.47-7.88.54-2.63.07-5.27.17-7.9.3-2.94.15-5.93.52-8.88.55-2.51,0-2.91-.32-4.76-1.57-6.55-4.42-15.53-4-23.06-3.5C374.46,154.37,374.45,156.13,375.59,156.06Z" transform="translate(-1.31)"/><path class="cls-7" d="M288.37,157q16.25-.33,32.48-.63,11.31-.21,22.64-.33c3.82,0,7.64,0,11.47,0a64.35,64.35,0,0,0-2.07-21c-6.78-25.57-27-42.4-45.22-37.58s-27.45,29.47-20.67,55C287.41,154,287.87,155.5,288.37,157Z" transform="translate(-1.31)"/><path class="cls-2" d="M288.37,157.85c22.19-.45,44.39-1,66.59-1a.9.9,0,0,0,.88-.88c.89-15.33-3.41-31.13-12.74-43.44-7.11-9.4-18.05-17.44-30.37-16.81-29.46,1.5-32.1,40.46-25.21,61.47.36,1.07,2.06.61,1.7-.47-4.37-13.32-5.32-28.53.51-41.59,4.78-10.72,14.73-18.84,26.95-17.55,12.47,1.31,22.56,11.11,28.65,21.43a65,65,0,0,1,7.73,20.68c.76,3.9,1.81,8.92,1.16,12.92-.39,2.41-.62,2.27-3.09,2.48-2.19.18-4.48,0-6.68,0-18.7.14-37.39.59-56.08,1A.88.88,0,0,0,288.37,157.85Z" transform="translate(-1.31)"/><path class="cls-8" d="M231.74,160.77c3.41-.2,6.82-.45,10.22-.8,1-.1,2.1-.23,3.15-.35l.5-.06,1-.16c2-.29,4-.57,6-.8,7-.83,14-1.15,21.09-1.32l-.32-1.25c-6.78-25.57-27-42.4-45.22-37.57-15.49,4.1-24.5,22.58-22.65,43.77C214.28,161.47,223.06,161.27,231.74,160.77Z" transform="translate(-1.31)"/><path class="cls-2" d="M231.74,161.65c14.07-.86,27.91-3.12,42-3.49a.89.89,0,0,0,.84-1.11c-4.71-18.52-19.51-41.41-41.32-40.26-22.39,1.18-30,26.76-28.59,45.44a.89.89,0,0,0,.88.88c8.71-.72,17.44-1,26.16-1.46,1.13-.07,1.14-1.83,0-1.76-7.16.4-14.33.62-21.49,1.1-1.94.14-3.22.71-3.95-1.13-.41-1-.09-2.75-.07-3.89a55.52,55.52,0,0,1,1-10.13c2.15-10.72,8.17-21.79,18.92-25.81,23.47-8.8,41.85,18.32,46.73,37.48l.85-1.11c-14.12.37-28,2.63-42,3.49C230.62,160,230.61,161.71,231.74,161.65Z" transform="translate(-1.31)"/><path class="cls-9" d="M186.63,158.58C177.28,142.41,162,133.22,148,137c-10.81,2.86-18.47,12.72-21.48,25.62C146.53,161.39,166.54,159.36,186.63,158.58Z" transform="translate(-1.31)"/><path class="cls-2" d="M187.39,158.13c-7.28-12.2-19.8-24-35.07-22.8-14.58,1.12-23.42,13.87-26.7,27a.89.89,0,0,0,.85,1.11c20.06-1.2,40.07-3.17,60.16-4,1.12-.05,1.13-1.81,0-1.76-20.09.82-40.1,2.79-60.16,4l.85,1.12c3.19-12.8,11.85-25.34,26.26-25.79,14.15-.44,25.53,10.68,32.29,22A.88.88,0,0,0,187.39,158.13Z" transform="translate(-1.31)"/><path class="cls-5" d="M699,87.55c-6.76,32.9-40.52,54.08-87.71,69.42l98.56-26Z" transform="translate(-1.31)"/><path class="cls-2" d="M698.59,87.43c-8.56,39.65-53,57.85-87.41,69.12a.44.44,0,0,0,.23.85l86.13-22.7L710,131.42a.46.46,0,0,0,.31-.54L699.44,87.43a.44.44,0,0,0-.85.24l4.59,18.38L706.66,120c.78,3.11,1.21,6.67,2.41,9.65.67,1.66.87.82-.21,1.17-1.83.59-3.76,1-5.63,1.48L681.58,138l-54.82,14.44c-4.47,1.18-10.59,1.7-14.7,3.88-.13.07-.79.09-.87.23-.29.49,5.76-1,5.85-1,2.36-.81,4.7-1.65,7-2.51,6.93-2.56,13.77-5.36,20.44-8.51,24.34-11.5,48.91-29,54.92-56.83C699.56,87.12,698.71,86.88,698.59,87.43Z" transform="translate(-1.31)"/><path class="cls-5" d="M308.91,109.4a25.82,25.82,0,0,0-3.24.76,23.82,23.82,0,0,0-7.48,3,17.05,17.05,0,0,0-2.81,2.63c-2.23,2.54-4,5.76-3.75,9.14a2.4,2.4,0,0,0,.37,1.23c.73,1,2.47.69,3.14,1.7l1.32.72c1.63-.2,2.53-2,3-3.58s.85-3.41,2.28-4.25a8.64,8.64,0,0,1,2.28-.7,11.15,11.15,0,0,0,5.83-4.18,33.34,33.34,0,0,0,3.53-6.38A12.79,12.79,0,0,0,308.91,109.4Z" transform="translate(-1.31)"/><path class="cls-2" d="M308.85,109.19c-6.25,1.25-11.89,3.25-15.42,8.87-1.16,1.84-2.54,4.71-2,7,.45,1.92,1.75,2.29,3.59,3,3.21,1.32,3.41-.8,4.81-3.58s2.9-3.53,5.41-4.58a10.64,10.64,0,0,0,2.64-1.65c2.71-2.24,4.22-5.49,5.68-8.62.05-.11,0-.3-.13-.32a18.37,18.37,0,0,0-4.51-.15c-.28,0-.28.46,0,.44,1.69-.14,3.35.24,3.32,1.79,0,.93-1.22,2.39-1.76,3.2-2.12,3.21-4.39,4.1-7.7,5.55-2.93,1.29-2.42,3.16-3.92,5.75-1.11,1.92-2.47,2.78-4.27,1.26-1.64-1.39-.14,2-1.72-2.66-.89-2.62-.47-3.94.95-6.23,3.37-5.45,9.18-7.47,15.16-8.67C309.25,109.56,309.13,109.13,308.85,109.19Z" transform="translate(-1.31)"/><path class="cls-5" d="M631.68,28.69a20,20,0,0,0-6.7,1.89c-4.45,1.91-9.1,4.6-10.75,9.15a10.14,10.14,0,0,0,1.67,9.69c2.43,2.95,6.29,4.23,10,5.34,0,0,2.74-13.09,6.82-18.89,1.42-2,3.09-4,5.39-4.92A8,8,0,0,0,631.68,28.69Z" transform="translate(-1.31)"/><path class="cls-2" d="M631.68,28.47c-6.81.87-16.51,5.1-18,12.62C612,49.18,619.38,53,625.79,55a.22.22,0,0,0,.27-.15c1.71-8,4.19-19.7,12.11-23.68a.23.23,0,0,0,.05-.35,9.38,9.38,0,0,0-6.54-2.32.22.22,0,0,0,0,.44,4.27,4.27,0,0,1,5,2.51l-1.17.87a20,20,0,0,1-2.07,2.22,24.5,24.5,0,0,0-3.09,5.22,69.78,69.78,0,0,0-3.92,11.8c-.08.32-.44,2.93-.73,3.08s-5.61-2.27-5.14-2a12.49,12.49,0,0,1-5.27-4.49c-6.18-10.42,8.13-18.13,16.43-19.19C632,28.88,632,28.44,631.68,28.47Z" transform="translate(-1.31)"/><path class="cls-5" d="M583.14,101.34a23.21,23.21,0,0,0-2.62-5.91,60.87,60.87,0,0,1-5.72,27.67,33.44,33.44,0,0,0,4.64-.46,4.72,4.72,0,0,0,2.07-.8,5,5,0,0,0,1.09-1.51,24.29,24.29,0,0,0,2.33-5.24C586.14,110.55,584.63,105.79,583.14,101.34Z" transform="translate(-1.31)"/><path class="cls-2" d="M583.35,101.28a30,30,0,0,0-2.64-6,.22.22,0,0,0-.41.11A63.65,63.65,0,0,1,574.61,123c-.06.15,0,.34.19.33,4.12-.15,6.72-.35,8.67-4.15,3.13-6.09,2-11.57-.12-17.89-.09-.27-.51-.16-.42.11,1.86,5.67,3.61,12.08.16,17.56-1.16,1.84-4.58,5-7.18,3.88-1.15-.5-.42.22-.19-1.24a23.32,23.32,0,0,1,1-2.53,61.3,61.3,0,0,0,4-19.17c.21-5,1.18-1.54,2.22,1.5C583,101.66,583.44,101.55,583.35,101.28Z" transform="translate(-1.31)"/></g></g></svg>