<svg xmlns="http://www.w3.org/2000/svg" viewBox="0 0 369.53 222.53"><defs><style>.cls-1{fill:#a5c08a;}.cls-2{fill:#38301f;}.cls-3{fill:#ad968a;}.cls-4{fill:#979b3d;}.cls-5{fill:#eae3ca;}</style></defs><title>pilll</title><g id="Layer_2" data-name="Layer 2"><g id="tablets"><path class="cls-1" d="M219.69,64.32a261.9,261.9,0,0,1-24.68,25c-15.37,13.41-21.58,20.43-26.48,32-2.78,6.54-1.53,7.7-1.61,18.4-.07,8.57,10.38,36.25,7.1,37.45,0,0,1.27,14,8.82,19.59,13.39,9.9,32.57,10.64,39.61,9.79,9-1.09,16.65-4.08,27.44-10,12.37-6.79,29.74-20.23,48.87-39.36"/><path class="cls-2" d="M218.45,63.08C208,75.18,196.16,85.36,184.66,96.33c-7.87,7.51-15.13,16.14-18.65,26.62-1.46,4.37-.95,8.83-.87,13.36a58.52,58.52,0,0,0,1.56,12.91c1.21,5.07,2.67,10.08,4,15.12.36,1.38,3,11,2.44,11.3a1.75,1.75,0,0,0-.87,1.52c1,10.45,5.35,19.26,14.78,24.32a63,63,0,0,0,35.41,6.82c13.84-1.51,26.88-8.65,38.23-16.39,14.23-9.72,27.13-21.36,39.32-33.5a1.76,1.76,0,0,0-2.49-2.49c-16.33,16.26-34.07,32.27-54.95,42.46-17.9,8.72-40.62,9.54-57.6-2.27-4.25-3-6.42-7.37-7.81-12.23-.46-1.59-.58-3.36-1.12-4.91a6.13,6.13,0,0,0-.18-1.2c-.75-.54-.68,1.16-.39.52,1.92-4.17.12-9-1-13.34-3.75-14.72-10.09-31.34-3-46C176.3,109.14,184,101.54,192,94.32c10.14-9.13,20-18.39,28.9-28.75,1.47-1.71-1-4.21-2.49-2.49Z"/><path class="cls-1" d="M16.47,57.39c3.69,44.55,18.14,101.84,36.16,163.36,41.36-16.1,82.45-30.17,123.17-41.5C160.94,132,149.67,64.65,134.27,1.75,127.5,3.26,96.64,14.44,89.44,16.38,82.71,18.19,76.23,20.09,70,22"/><path class="cls-2" d="M14.71,57.39c4.74,55.68,20.6,110.41,36.22,163.82a1.78,1.78,0,0,0,2.17,1.23c40.4-15.69,81.41-29.83,123.16-41.49a1.77,1.77,0,0,0,1.23-2.17C159.4,120.79,150.35,60.22,136,1.28A1.79,1.79,0,0,0,133.8.05c-9.65,2.27-19.07,6.08-28.44,9.27-11.84,4-23.86,7.3-35.8,11-2.16.67-1.24,4.07.93,3.4,12-3.72,24-7,35.81-11,9.37-3.19,18.79-7,28.44-9.27l-2.17-1.23C147,61.16,156,121.73,174.1,179.72l1.23-2.17c-41.76,11.66-82.77,25.8-123.17,41.5l2.17,1.23c-15.54-53.1-31.39-107.55-36.1-162.89-.19-2.25-3.71-2.27-3.52,0Z"/><path class="cls-3" d="M274.48,144.29c-35.42-20.45-39.49-21.13-44.06-26.15-7.32-8-12.82-23.76-3.15-57.87C176.78,104.82,154.93,117.9,175,168.18c20.23,15.44,54.49,37.78,74.33,27.26,3.29-1.74,4-3.38,17.92-13.31,19.6-13.94,24.46-17.64,24.45-23.07C291.66,154.4,286.44,151.2,274.48,144.29Z"/><path class="cls-2" d="M274.93,143.53c-10.52-6.06-21.12-12-31.75-17.83-3.72-2.06-7.78-4-10.91-6.93-15.24-14.21-8.93-41.1-4.15-58.26a.89.89,0,0,0-1.47-.86C216,69.08,205,78.26,194.61,88c-7.27,6.79-14.48,14-19.9,22.36-10.33,16-9.11,33.81-3.11,51.25.72,2.09,1.3,5.42,2.69,7.11s4.11,3.13,5.94,4.47c5,3.64,10.13,7.12,15.41,10.36,10.21,6.27,21.35,12.19,33.21,14.57,7.6,1.52,16.19,1.51,22.79-3.09,8.3-5.78,16.25-12.22,24.45-18.17,5.21-3.78,14.67-8.89,16.26-15.85,2-8.77-11.81-14.23-17.42-17.48a.88.88,0,0,0-.89,1.52c5.1,2.95,19.78,8.79,16.1,17-2.93,6.52-12.05,11.25-17.5,15.17-7.23,5.19-14.21,10.69-21.38,15.94-6.69,4.91-15.42,4.77-23.2,3-11-2.48-21.31-7.89-30.9-13.73-4.53-2.76-8.94-5.7-13.26-8.76a75.38,75.38,0,0,1-6.47-4.72c-2.41-2.13-3.11-4.81-4.14-7.8-5.7-16.6-7.21-33.62,2.4-49,5.51-8.83,13.09-16.27,20.66-23.32,10.27-9.56,21-18.61,31.54-27.89L226.42,60c-4.94,17.78-10.91,44.22,3.93,59.31,2.94,3,6.75,5,10.38,7,11.13,6.2,22.28,12.34,33.31,18.7A.88.88,0,0,0,274.93,143.53Z"/><path class="cls-3" d="M61.59,35.36l74.59-19.72,30.38,141L46.18,198.35c-13.4-47.88-23.6-93.88-29.71-137.47Z"/><path class="cls-2" d="M61.82,36.21l45-11.89,25.3-6.69c1.44-.38,2.88-.74,4.32-1.14-2.27.63-.72-1.35-1-.06a6.17,6.17,0,0,0,.38,1.76l22.62,105c2.39,11.08,4,22.78,7.25,33.63-.13-.41,1.16-.94.28-.88a6.84,6.84,0,0,0-1.61.56l-6.44,2.23-22.81,7.9L75.91,187.13l-22.06,7.64A43.76,43.76,0,0,1,47.53,197c-.27,0-1,.54-1.29.44.26.09-1-5.83-1.32-6.93C34,150.63,24.79,110.26,18.6,69.39c-.23-1.52-1.8-7.25-1.34-8s2.13-1.2,2.76-1.56l11-6.2L57.12,38.9,62,36.12a.88.88,0,0,0-.88-1.52L16,60.12a.91.91,0,0,0-.41,1c6.57,46.48,17.1,92.29,29.72,137.48a.89.89,0,0,0,1.08.61L152,162.62l14.76-5.11a.91.91,0,0,0,.61-1.09L140.83,33.05,137,15.4a.89.89,0,0,0-1.09-.61L61.36,34.51A.88.88,0,0,0,61.82,36.21Z"/><path class="cls-4" d="M4.53,13.06A68.78,68.78,0,0,0,2.27,26.71c-.46,7.17-.88,13.69,2.58,20.34,1,1.94,4.93,9.48,11.62,10.34,3.57.45,6.42-1.17,9.36-2.91,15.06-8.87,22.58-13.3,22.93-13.56C55.93,35.61,64,29.54,72.32,19.29A107.8,107.8,0,0,0,79.1,9.93Z"/><path class="cls-2" d="M2.83,12.6c-3,11.6-5,26.13,1.37,36.94,2.18,3.73,5.26,7.41,9.42,8.93C20,60.78,25.46,56.74,30.7,53.65,38,49.38,45.64,45.48,52.38,40.4A116.8,116.8,0,0,0,80.62,10.82,1.77,1.77,0,0,0,79.1,8.17L4.53,11.3c-2.26.1-2.27,3.62,0,3.52L79.1,11.69,77.58,9C67.44,24.6,53.82,35.93,38.05,45.24c-4.83,2.84-9.58,6-14.57,8.57-6.86,3.48-12.06.66-15.81-5.33-6.26-10-4.29-24.08-1.45-34.95C6.8,11.34,3.4,10.4,2.83,12.6Z"/><path class="cls-4" d="M270.55,13.06c-1.45.54-3.46,1.32-5.81,2.36A95.6,95.6,0,0,0,246,26.07,74.41,74.41,0,0,0,227,48.35c-3.21,5.68-11.92,21.08-10,39.06.51,4.8,1.57,7.89,1,13.88-.9,8.93-4.21,11.5-6.46,19.37-3.91,13.72.39,26,1.29,28.41,1.54,4.14,5.32,14.33,15.5,20.34,13.29,7.85,28.6,3.32,33.25,1.94,3.45-1,8.11-3,17.44-7.1,8.91-3.88,10.79-5.08,15.49-6.14,8-1.79,9.82-2,15.82-3.22,5-1,28.09-15.82,32.61-24.54C391.24,72.44,360.94-12.79,270.55,13.06Z"/><path class="cls-2" d="M270.08,11.37c-17.64,6.65-32.62,16.84-42.78,33a81.43,81.43,0,0,0-11,25.74,55.39,55.39,0,0,0-1.1,17.32c.57,5.67,1.69,11,.55,16.67-.94,4.7-3.4,8.77-5,13.22a45.09,45.09,0,0,0-2.48,18.89A52.7,52.7,0,0,0,214,156.38c9.5,18.35,29.76,22.4,48.3,16.57,8.76-2.76,17.07-7.07,25.47-10.71,7.64-3.31,16-3.42,23.78-5.89,6.84-2.16,13.4-7.23,19-11.48,6.4-4.8,11.06-10,15.92-16.26,18.52-23.75,27.78-57.26,15.29-85.9a58.84,58.84,0,0,0-32-31.09c-19-7.69-40.4-5.68-59.74-.25a1.76,1.76,0,0,0,.94,3.39c29.27-8.21,65.21-6.91,83.28,21.3,15.58,24.32,10.82,56.27-3.4,80A105.61,105.61,0,0,1,338,133.88c-5.56,5.9-12.5,10.7-19.4,14.9-5.85,3.56-10.88,4.76-17.54,6.11a100.2,100.2,0,0,0-21.3,7.1c-16.66,7.34-37.51,16.88-54.06,3.51-14.34-11.57-17.34-34.43-10.23-50.49,1.88-4.23,3.56-8.2,4.12-12.87.69-5.68-.64-10.89-1-16.52C217.78,73.81,221.41,62.31,227,52c9.84-18.34,24.78-30,44.07-37.25C273.12,14,272.21,10.56,270.08,11.37Z"/><path class="cls-3" d="M250.93,145.61l-6.9-5c-6.07-4.4-12.29-9-16.19-15.36l-2.19,1.07a45.13,45.13,0,0,0-2,11.87,22.34,22.34,0,0,0,.57,6.32c1.82,6.92,8.62,11.69,15.66,12.91s14.28-.52,21-2.94c1.19-.43,2.54-1.06,2.79-2.3C259,151.38,254.85,148.46,250.93,145.61Z"/><path class="cls-2" d="M251.37,144.85c-8.16-5.91-17.19-11.43-22.77-20a.9.9,0,0,0-1.2-.31c-2.17,1.06-2.39.91-3.07,3.26a41.47,41.47,0,0,0-1.51,10.44c-.14,6.2,1.74,11.57,6.71,15.53s11.25,5.34,17.49,4.9c4.9-.34,14.89-1.25,17.47-6a.88.88,0,0,0-.52-1.29c-4.81-1.05-8.67-3.65-12.6-6.48-.92-.66-1.8.87-.89,1.52,4.07,2.94,8.07,5.58,13,6.66l-.52-1.3c-1.73,3.17-9.22,4.19-12.66,4.74a27.61,27.61,0,0,1-14.31-1c-9.12-3.53-12.19-11.45-11.2-20.68.17-1.56.94-9.5,3.14-8.14,0,0,1.84,2.87,2.07,3.14a43.24,43.24,0,0,0,3.3,3.47c5.2,4.95,11.36,8.95,17.16,13.15C251.4,147,252.28,145.51,251.37,144.85Z"/><path class="cls-5" d="M306.87,123.11c-14-2.91-29.25-11.33-38.67-22-7.1-8.08-11.84-16.24-17.11-25.62-3.67-6.52-6.21-19-5.65-26.5l-3.5,5.19c-9.9,18.64-6,43.09,6.44,60.16A60.6,60.6,0,0,0,287.85,138a68,68,0,0,0,45.3-9.43c5.77-3.52,11.16-8,14.31-14C336.18,123.28,320.84,126,306.87,123.11Z"/><path class="cls-2" d="M306.93,122.9a74.18,74.18,0,0,1-44-28.72C253.27,81,244.77,65.86,245.66,49a.22.22,0,0,0-.41-.11c-12.64,18.76-11.38,42.74.42,61.81,13.66,22.09,40.63,32.11,65.68,26.81,13.75-2.91,29.13-10.12,36.3-22.81.1-.17-.12-.44-.3-.3-11.66,8.69-26.27,11.28-40.42,8.55-.27-.06-.39.37-.11.42A53.22,53.22,0,0,0,336.56,121a45.78,45.78,0,0,0,5.75-2.73,21.91,21.91,0,0,1,2.69-1.64c1.76-.66,1.75-1.78.66.51-2.61,5.5-9.73,9.69-14.81,12.55-21.62,12.15-49.08,12-69.44-2.74C242.69,113.4,232.6,88,238,65.39a39.85,39.85,0,0,1,4.93-12.26c.53-.84,1.54-3,2.37-3.53s-.22-.07-.1.51c.32,1.6,0,3.56.19,5.21a59.58,59.58,0,0,0,8.15,24.84c6,10.45,12.76,20.78,22.29,28.37a76.5,76.5,0,0,0,31,14.79C307.09,123.38,307.21,123,306.93,122.9Z"/><path class="cls-5" d="M163.2,178.3C162,173.11,117.47,34.54,110.42,11.22c-5.94-.89-15.91,4.41-26.79,8.43C82.5,20.06,114,138.82,132.31,189a5,5,0,0,0,1.23,2.16c1.34,1.17,3.4.62,5.07,0l22.46-8.27a4,4,0,0,0,1.84-1.09C163.67,180.83,163.46,179.47,163.2,178.3Z"/><path class="cls-2" d="M163.41,178.25c-1.32-5.61-3.37-11.12-5.09-16.61Q152.71,143.79,147,126q-13.59-42.75-27.2-85.48c-3.09-9.77-6.22-19.53-9.19-29.33a.23.23,0,0,0-.21-.16c-4.77-.44-9.46,1.53-13.82,3.24-3.22,1.26-6.41,2.63-9.63,3.89-.53.21-3.23.91-3.55,1.42-.58.94.68,4,.9,5,2.79,12.18,6.09,24.25,9.34,36.32C103.64,98,114,135.1,126.08,171.6q2,6.19,4.19,12.33c.88,2.51,1.47,7.07,4.4,8,2.33.74,5.64-1.19,7.74-2l13.1-4.82c4-1.49,8.79-1.78,7.9-6.88,0-.28-.47-.16-.42.11.94,5.4-18,10.19-21.63,11.52s-7,2.38-9.29-2.21a40.39,40.39,0,0,1-1.69-4.74c-2.42-6.92-4.71-13.88-6.93-20.86-5.24-16.39-10.14-32.89-14.91-49.43C100.52,84.86,92.66,57,85.8,28.89c-.51-2.09-2.29-6.06-1.87-8.23s5-2.83,7.29-3.77c4.83-2,9.82-4.36,15-5.27,3.8-.66,4-.14,5,2.88l1.65,5.29q2.23,7.14,4.49,14.29,13,41.28,26.25,82.53,6.69,21,13.35,42.08c2,6.5,4.5,13,6.06,19.67C163.05,178.64,163.47,178.52,163.41,178.25Z"/><path class="cls-5" d="M75.42,93.05c-.39-.69-13.25,3-13.82,4.07s30.62,99.81,31.8,105.1a3.65,3.65,0,0,0,1.18,2.34c.76.52,8.76-1.77,11.43-3.49C98.52,177.86,81.8,104.49,75.42,93.05Z"/><path class="cls-2" d="M75.53,92.86c-1-.49-2.88.26-3.8.48A38.2,38.2,0,0,0,63,96.05c-1.93,1-1.61.89-1.3,2.77,1.35,8.09,4.73,16.28,7.12,24.11,7.24,23.68,14.71,47.28,21.91,71,.82,2.72,1.46,5.58,2.42,8.26.62,1.7.68,2.35,2.3,2.65,2.93.56,8.14-2.11,10.66-3.56a.21.21,0,0,0,.11-.24c-6.21-19.39-10.74-39.35-15.88-59C87.67,131.7,85,121.41,82,111.2c-1.78-6.08-3.34-12.65-6.37-18.26a.22.22,0,0,0-.38.22c3.23,6,4.86,13.09,6.74,19.58,3,10.54,5.82,21.16,8.59,31.78,2.85,11,5.66,21.95,8.56,32.91,1.26,4.78,2.54,9.55,3.88,14.31.5,1.76,1,3.53,1.53,5.29.78,2.59,1.76,3.87-1.19,5.08-2.58,1-6.26,2.91-8.51,1.12-1.55-1.23-1-.94-1.52-2.2a53.23,53.23,0,0,1-1.66-5.61c-2-6.66-4.07-13.31-6.13-19.95C80,157.63,74.45,139.81,69,122c-2.12-6.95-4.28-13.89-6.22-20.88-.27-1-1.28-3.16-.78-4,.92-1.56,11.64-4.67,13.3-3.83C75.56,93.37,75.78,93,75.53,92.86Z"/><path class="cls-2" d="M279.77,11.37c-25.37,9.14-44.52,30.05-50.23,56.52-3.71,17.23-1,35.57,9.21,50.15,7.6,10.79,18.56,18.73,30.73,23.64,29.47,11.9,65.67,5.19,85-21.25,16.9-23.14,20.43-57.61,6.3-82.67C354.12,26,343.66,15.32,330.81,10.63c-16.29-6-34.83-4.67-51,.74-2.14.71-1.22,4.11.94,3.39,14.86-4.95,31.07-6.19,46.22-1.7,10.6,3.14,19.88,10.78,26.46,19.77,15.75,21.53,15.73,50,5,73.71-14.36,31.93-51.31,44.39-83.53,33.41-26.82-9.14-45.62-33.07-43.28-62.23,2.32-28.81,22.08-53.22,49.1-63C282.82,14,281.91,10.6,279.77,11.37Z"/></g></g></svg>