<svg xmlns="http://www.w3.org/2000/svg" viewBox="0 0 1110.89 820.59"><defs><style>.cls-1{fill:#81c6d8;}.cls-2{fill:#38301f;}.cls-3{fill:#f26633;}.cls-4{fill:#eae3ca;}.cls-5{fill:#a5c08a;}.cls-6{fill:#ad968a;}.cls-7{fill:#979b3d;}</style></defs><title>pilll2</title><g id="Layer_2" data-name="Layer 2"><g id="tablets"><path class="cls-1" d="M20.63,187.2l18.53-5.46,5.14,17.42-18.53,5.46C17.05,207.2,11.91,189.78,20.63,187.2Z"/><path class="cls-2" d="M21.1,188.9l18.53-5.46-2.17-1.23,5.14,17.42,1.23-2.17c-5.57,1.65-11.12,3.36-16.72,4.93-2.93.83-5.26,1-7.29-1.91-2.29-3.24-3.38-9.87,1.28-11.58,2.11-.77,1.2-4.18-.94-3.39-9,3.3-6.82,18.57,2,20.88,3.29.87,7.19-1,10.29-1.89l12.35-3.64A1.8,1.8,0,0,0,46,198.69l-5.14-17.42A1.8,1.8,0,0,0,38.69,180l-18.53,5.47C18,186.15,18.92,189.54,21.1,188.9Z"/><path class="cls-3" d="M61,193.41l-16.88,5-4.68-15.88,16.88-5C64.22,175.19,68.9,191.06,61,193.41Z"/><path class="cls-2" d="M60.72,192.56l-16.88,5,1.08.61-4.68-15.87-.62,1.08c5.08-1.49,10.14-3.06,15.23-4.49,3-.83,5.45-.83,7.47,2.08,2.37,3.41,3.14,9.87-1.6,11.61-1,.39-.6,2.09.47,1.7,7.54-2.77,5.49-15.74-1.79-17.64-2.84-.74-6.33.94-9,1.73l-11.25,3.32a.89.89,0,0,0-.62,1.08l4.68,15.87a.89.89,0,0,0,1.08.61l16.89-5A.88.88,0,0,0,60.72,192.56Z"/><path class="cls-4" d="M21.83,193.05a1.5,1.5,0,0,0,.49,1.65l17.34-5.11-.49-1.65Z"/><path class="cls-2" d="M21.61,193.05c0,1.21-.15.77.52,1.77a.22.22,0,0,0,.25.1l17.34-5.12a.21.21,0,0,0,.15-.27l-.49-1.65a.21.21,0,0,0-.27-.15l-17.34,5.11a.22.22,0,0,0,.12.43l9-2.66,6-1.77c1.34-.39,2-1.06,2.31,0s-.61.86-1.94,1.25l-5.66,1.67-6.24,1.84c-1.51.44-3.35,1.78-3.31-.53C22.06,192.77,21.62,192.77,21.61,193.05Z"/><path class="cls-4" d="M59.17,184a1.52,1.52,0,0,0-.48-1.65l-17.35,5.11.49,1.65Z"/><path class="cls-2" d="M59.39,184c0-1.2.15-.76-.51-1.76a.23.23,0,0,0-.25-.1l-17.34,5.11a.22.22,0,0,0-.16.27l.49,1.65a.23.23,0,0,0,.27.16l17.34-5.12a.22.22,0,0,0-.12-.42l-9,2.65-6,1.77c-1.34.4-2,1.06-2.32,0s.62-.86,2-1.25l5.66-1.67,6.24-1.84c1.51-.44,3.34-1.77,3.3.53A.22.22,0,0,0,59.39,184Z"/><path class="cls-1" d="M13.73,47.28l17,9.23L22,72.47l-17-9.24C-2.94,58.88,5.75,42.93,13.73,47.28Z"/><path class="cls-2" d="M12.84,48.8l17,9.23-.63-2.4L20.49,71.58,22.9,71,8.12,62.9c-2.62-1.43-4.69-2.7-4.41-6.17.33-4.1,4.44-10.07,9.13-7.93,2.05.93,3.84-2.11,1.78-3C5.88,41.78-3.49,54.12,1.29,62c1.79,2.93,5.89,4.39,8.76,6l11.08,6a1.78,1.78,0,0,0,2.4-.64L32.22,57.4a1.79,1.79,0,0,0-.63-2.4l-17-9.24C12.63,44.67,10.85,47.71,12.84,48.8Z"/><path class="cls-3" d="M37.86,80.17,22.4,71.76l7.91-14.54,15.46,8.42C53.05,69.6,45.13,84.14,37.86,80.17Z"/><path class="cls-2" d="M38.3,79.41l-6.14-3.34c-2.38-1.3-5.64-4-8.31-4.52-.3-.06-.59-.36-.87-.48.62.26-.27,1.52.45.63a21.48,21.48,0,0,0,1.78-3.27l4.86-8.93a6.15,6.15,0,0,0,.73-1.33c.19-1.11.91.69-.88-.16.76.36,1.48.81,2.22,1.21l8.94,4.87c2.17,1.18,5.54,2.36,6.42,4.89,1.72,4.9-3.73,12.9-9.2,10.43-1-.46-1.92,1.06-.88,1.52,7.4,3.35,15.36-7.6,11-14.06-1.6-2.37-5.17-3.61-7.57-4.91l-10.09-5.5a.9.9,0,0,0-1.21.32L21.64,71.31A.9.9,0,0,0,22,72.52l15.46,8.41C38.41,81.48,39.3,80,38.3,79.41Z"/><path class="cls-4" d="M10.14,52.16a1.51,1.51,0,0,0-.83,1.51l15.88,8.65L26,60.8Z"/><path class="cls-2" d="M10,52a2,2,0,0,0-.89,1.67.21.21,0,0,0,.11.19l15.88,8.65a.24.24,0,0,0,.3-.08l.82-1.52a.22.22,0,0,0-.08-.3L10.25,52a.22.22,0,0,0-.23.38l8.23,4.48,5.49,3a7,7,0,0,1,1.63.89c.5.64.59-.3,0,.75-.44.85.1.47-.53.44-.42,0-1.19-.64-1.54-.83l-5.4-2.94L12.24,55c-1.22-.66-3.78-1.22-2-2.7C10.51,52.14,10.2,51.83,10,52Z"/><path class="cls-4" d="M43.08,71.85a1.5,1.5,0,0,0,.82-1.51L28,61.7l-.82,1.51Z"/><path class="cls-2" d="M43.23,72a2,2,0,0,0,.89-1.67.23.23,0,0,0-.11-.19L28.13,61.51a.22.22,0,0,0-.3.08L27,63.1a.22.22,0,0,0,.08.3L43,72a.22.22,0,0,0,.22-.38L35,67.18l-5.48-3a6.58,6.58,0,0,1-1.63-.89c-.51-.63-.59.3-.05-.75.44-.85-.1-.47.54-.44.41,0,1.18.64,1.53.83l5.4,2.94L41,69c1.22.66,3.79,1.22,2,2.7C42.7,71.88,43,72.19,43.23,72Z"/><path class="cls-5" d="M961.06,64.32a263,263,0,0,1-24.69,25c-15.37,13.41-21.58,20.43-26.47,32-2.78,6.54-1.53,7.7-1.62,18.4-.07,8.57,10.38,36.25,7.1,37.45,0,0,1.27,14,8.82,19.59,13.39,9.9,32.57,10.64,39.61,9.79,9-1.09,16.65-4.08,27.44-10,12.37-6.79,29.74-20.23,48.87-39.36"/><path class="cls-2" d="M959.81,63.08c-10.4,12.1-22.28,22.28-33.78,33.25-7.87,7.51-15.13,16.14-18.65,26.62-1.47,4.37-1,8.83-.88,13.36a58.52,58.52,0,0,0,1.56,12.91c1.21,5.07,2.67,10.08,4,15.12.36,1.38,3,11,2.45,11.3a1.74,1.74,0,0,0-.88,1.52c1,10.45,5.35,19.26,14.78,24.32a63,63,0,0,0,35.41,6.82c13.85-1.51,26.89-8.65,38.23-16.39,14.23-9.72,27.13-21.36,39.32-33.5a1.76,1.76,0,0,0-2.48-2.49c-16.34,16.26-34.07,32.27-55,42.46-17.89,8.72-40.62,9.54-57.6-2.27-4.24-3-6.41-7.37-7.81-12.23-.46-1.59-.58-3.36-1.11-4.91a7.13,7.13,0,0,0-.19-1.2c-.74-.54-.68,1.16-.38.52,1.91-4.17.12-9-1-13.34-3.76-14.72-10.09-31.34-3-46,4.78-9.83,12.49-17.43,20.52-24.65,10.15-9.13,20-18.39,28.9-28.75,1.47-1.71-1-4.21-2.49-2.49Z"/><path class="cls-5" d="M757.83,57.39C761.52,101.94,776,159.23,794,220.75c41.36-16.1,82.45-30.17,123.17-41.5C902.3,132,891,64.65,875.63,1.75,868.86,3.26,838,14.44,830.8,16.38c-6.73,1.81-13.2,3.71-19.41,5.65"/><path class="cls-2" d="M756.07,57.39c4.74,55.68,20.6,110.41,36.23,163.82a1.76,1.76,0,0,0,2.16,1.23c40.4-15.69,81.41-29.83,123.17-41.49a1.79,1.79,0,0,0,1.23-2.17c-18.1-58-27.15-118.56-41.53-177.5A1.79,1.79,0,0,0,875.17.05c-9.66,2.27-19.08,6.08-28.44,9.27-11.85,4-23.86,7.3-35.81,11-2.16.67-1.24,4.07.94,3.4,11.94-3.72,24-7,35.8-11,9.37-3.19,18.79-7,28.44-9.27l-2.16-1.23c14.38,59,23.43,119.52,41.52,177.51l1.23-2.17c-41.76,11.66-82.76,25.8-123.16,41.5l2.16,1.23c-15.53-53.1-31.39-107.55-36.1-162.89-.19-2.25-3.71-2.27-3.52,0Z"/><path class="cls-6" d="M1015.85,144.29c-35.43-20.45-39.5-21.13-44.07-26.15-7.32-8-12.82-23.76-3.15-57.87-50.49,44.55-72.34,57.63-52.28,107.91,20.22,15.44,54.49,37.78,74.32,27.26,3.29-1.74,4-3.38,17.92-13.31,19.6-13.94,24.46-17.64,24.45-23.07C1033,154.4,1027.81,151.2,1015.85,144.29Z"/><path class="cls-2" d="M1016.29,143.53c-10.52-6.06-21.12-12-31.75-17.83-3.71-2.06-7.77-4-10.91-6.93-15.24-14.21-8.92-41.1-4.15-58.26a.89.89,0,0,0-1.47-.86c-10.7,9.43-21.63,18.61-32,28.35-7.27,6.79-14.47,14-19.9,22.36-10.32,16-9.11,33.81-3.11,51.25.72,2.09,1.31,5.42,2.69,7.11s4.11,3.13,6,4.47c5,3.64,10.13,7.12,15.4,10.36,10.21,6.27,21.35,12.19,33.21,14.57,7.61,1.52,16.19,1.51,22.8-3.09,8.3-5.78,16.24-12.22,24.44-18.17,5.21-3.78,14.68-8.89,16.26-15.85,2-8.77-11.81-14.23-17.42-17.48a.88.88,0,0,0-.89,1.52c5.1,2.95,19.78,8.79,16.1,17-2.93,6.52-12,11.25-17.5,15.17-7.23,5.19-14.21,10.69-21.37,15.94-6.69,4.91-15.42,4.77-23.21,3-11-2.48-21.31-7.89-30.9-13.73-4.53-2.76-8.94-5.7-13.26-8.76a75.38,75.38,0,0,1-6.47-4.72c-2.4-2.13-3.11-4.81-4.13-7.8-5.71-16.6-7.21-33.62,2.4-49,5.5-8.83,13.08-16.27,20.65-23.32,10.27-9.56,21-18.61,31.54-27.89L967.78,60c-4.94,17.78-10.9,44.22,3.93,59.31,2.94,3,6.75,5,10.38,7,11.13,6.2,22.28,12.34,33.31,18.7A.88.88,0,0,0,1016.29,143.53Z"/><path class="cls-6" d="M803,35.36l74.59-19.72,30.38,141L787.55,198.35c-13.41-47.88-23.61-93.88-29.72-137.47Z"/><path class="cls-2" d="M803.19,36.21l45-11.89,25.29-6.69c1.44-.38,2.88-.74,4.32-1.14-2.27.63-.71-1.35-1-.06a6.17,6.17,0,0,0,.38,1.76l22.62,105c2.39,11.08,4,22.78,7.25,33.63-.13-.41,1.16-.94.29-.88a6.92,6.92,0,0,0-1.62.56l-6.44,2.23-22.81,7.9-59.2,20.51-22.07,7.64a43.76,43.76,0,0,1-6.32,2.19c-.27,0-1,.54-1.28.44.25.09-1-5.83-1.33-6.93C775.37,150.63,766.15,110.26,760,69.39c-.23-1.52-1.8-7.25-1.34-8s2.13-1.2,2.77-1.56l11-6.2L798.48,38.9l4.92-2.78a.88.88,0,0,0-.89-1.52L757.39,60.12a.9.9,0,0,0-.4,1c6.56,46.48,17.09,92.29,29.71,137.48a.89.89,0,0,0,1.08.61L893.4,162.62l14.76-5.11a.9.9,0,0,0,.61-1.09L882.19,33.05l-3.8-17.65a.88.88,0,0,0-1.08-.61L802.72,34.51A.88.88,0,0,0,803.19,36.21Z"/><path class="cls-7" d="M745.89,13.06a68.78,68.78,0,0,0-2.26,13.65c-.46,7.17-.88,13.69,2.58,20.34,1,1.94,4.93,9.48,11.62,10.34,3.57.45,6.42-1.17,9.37-2.91,15-8.87,22.57-13.3,22.92-13.56,7.17-5.31,15.26-11.38,23.57-21.63a107.8,107.8,0,0,0,6.78-9.36Z"/><path class="cls-2" d="M744.19,12.6c-3,11.6-5,26.13,1.38,36.94,2.18,3.73,5.25,7.41,9.42,8.93,6.33,2.31,11.83-1.73,17.07-4.82,7.26-4.27,14.94-8.17,21.68-13.25A117,117,0,0,0,822,10.82a1.77,1.77,0,0,0-1.52-2.65L745.89,11.3c-2.26.1-2.27,3.62,0,3.52l74.58-3.13L819,9c-10.15,15.56-23.76,26.89-39.54,36.2-4.83,2.84-9.58,6-14.57,8.57-6.85,3.48-12.05.66-15.81-5.33-6.26-10-4.29-24.08-1.44-34.95C748.16,11.34,744.77,10.4,744.19,12.6Z"/><path class="cls-7" d="M1011.92,13.06c-1.45.54-3.46,1.32-5.82,2.36a95.6,95.6,0,0,0-18.72,10.65,74.41,74.41,0,0,0-19,22.28c-3.21,5.68-11.91,21.08-10,39.06.51,4.8,1.58,7.89,1,13.88-.9,8.93-4.21,11.5-6.46,19.37-3.91,13.72.4,26,1.3,28.41,1.53,4.14,5.31,14.33,15.49,20.34,13.29,7.85,28.6,3.32,33.26,1.94,3.44-1,8.11-3,17.43-7.1,8.91-3.88,10.79-5.08,15.5-6.14,8-1.79,9.82-2,15.82-3.22,5-1,28.08-15.82,32.6-24.54C1132.61,72.44,1102.3-12.79,1011.92,13.06Z"/><path class="cls-2" d="M1011.45,11.37c-17.65,6.65-32.63,16.84-42.78,33a81.45,81.45,0,0,0-11,25.74,55.69,55.69,0,0,0-1.1,17.32c.58,5.67,1.69,11,.55,16.67-.93,4.7-3.39,8.77-5,13.22a45.09,45.09,0,0,0-2.48,18.89,53.05,53.05,0,0,0,5.77,20.19c9.5,18.35,29.76,22.4,48.3,16.57,8.76-2.76,17.07-7.07,25.48-10.71,7.63-3.31,15.95-3.42,23.78-5.89,6.83-2.16,13.39-7.23,19-11.48,6.4-4.8,11.06-10,15.92-16.26,18.52-23.75,27.78-57.26,15.3-85.9a58.86,58.86,0,0,0-32-31.09c-19-7.69-40.4-5.68-59.73-.25a1.76,1.76,0,0,0,.93,3.39c29.27-8.21,65.21-6.91,83.28,21.3,15.58,24.32,10.82,56.27-3.4,80a104.52,104.52,0,0,1-12.91,17.83c-5.56,5.9-12.5,10.7-19.4,14.9-5.85,3.56-10.88,4.76-17.54,6.11a100.2,100.2,0,0,0-21.3,7.1c-16.66,7.34-37.51,16.88-54.06,3.51-14.34-11.57-17.34-34.43-10.22-50.49,1.87-4.23,3.55-8.2,4.12-12.87.68-5.68-.65-10.89-1-16.52-.79-11.81,2.85-23.31,8.38-33.61,9.85-18.34,24.78-30,44.07-37.25C1014.48,14,1013.57,10.56,1011.45,11.37Z"/><path class="cls-6" d="M992.29,145.61l-6.9-5c-6.06-4.4-12.29-9-16.19-15.36L967,126.32a45.55,45.55,0,0,0-2,11.87,22.34,22.34,0,0,0,.57,6.32c1.82,6.92,8.62,11.69,15.67,12.91s14.27-.52,21-2.94c1.19-.43,2.54-1.06,2.8-2.3C1000.32,151.38,996.21,148.46,992.29,145.61Z"/><path class="cls-2" d="M992.73,144.85c-8.16-5.91-17.19-11.43-22.77-20a.9.9,0,0,0-1.2-.31c-2.17,1.06-2.39.91-3.07,3.26a41.47,41.47,0,0,0-1.51,10.44c-.14,6.2,1.74,11.57,6.71,15.53s11.26,5.34,17.49,4.9c4.9-.34,14.89-1.25,17.48-6a.88.88,0,0,0-.53-1.29c-4.8-1.05-8.67-3.65-12.6-6.48-.92-.66-1.8.87-.89,1.52,4.07,2.94,8.07,5.58,13,6.66l-.52-1.3c-1.73,3.17-9.22,4.19-12.66,4.74a27.61,27.61,0,0,1-14.31-1c-9.12-3.53-12.19-11.45-11.2-20.68.17-1.56.94-9.5,3.14-8.14,0,0,1.84,2.87,2.07,3.14a43.24,43.24,0,0,0,3.3,3.47c5.2,4.95,11.36,8.95,17.16,13.15C992.76,147,993.64,145.51,992.73,144.85Z"/><path class="cls-4" d="M1048.24,123.11c-14-2.91-29.26-11.33-38.68-22-7.1-8.08-11.84-16.24-17.11-25.62-3.67-6.52-6.21-19-5.65-26.5l-3.5,5.19c-9.9,18.64-6,43.09,6.45,60.16A60.55,60.55,0,0,0,1029.21,138a68,68,0,0,0,45.3-9.43c5.77-3.52,11.17-8,14.31-14C1077.54,123.28,1062.2,126,1048.24,123.11Z"/><path class="cls-2" d="M1048.3,122.9a74.21,74.21,0,0,1-44-28.72C994.63,81,986.13,65.86,987,49a.22.22,0,0,0-.41-.11C974,67.6,975.24,91.58,987,110.65c13.66,22.09,40.63,32.11,65.69,26.81,13.74-2.91,29.13-10.12,36.29-22.81.1-.17-.11-.44-.3-.3-11.66,8.69-26.26,11.28-40.41,8.55-.28-.06-.4.37-.12.42a53.26,53.26,0,0,0,29.75-2.37,45.65,45.65,0,0,0,5.74-2.73,21.91,21.91,0,0,1,2.69-1.64c1.76-.66,1.75-1.78.67.51-2.61,5.5-9.74,9.69-14.81,12.55-21.63,12.15-49.09,12-69.45-2.74C984.05,113.4,974,88,979.33,65.39a39.58,39.58,0,0,1,4.92-12.26c.53-.84,1.54-3,2.38-3.53s-.23-.07-.11.51c.32,1.6,0,3.56.19,5.21a59.58,59.58,0,0,0,8.15,24.84c6,10.45,12.76,20.78,22.29,28.37a76.5,76.5,0,0,0,31,14.79C1048.46,123.38,1048.57,123,1048.3,122.9Z"/><path class="cls-4" d="M904.56,178.3c-1.16-5.19-45.73-143.76-52.78-167.08-5.94-.89-15.9,4.41-26.79,8.43-1.12.41,30.33,119.17,48.68,169.31a5,5,0,0,0,1.23,2.16c1.35,1.17,3.41.62,5.08,0l22.45-8.27a4.13,4.13,0,0,0,1.85-1.09C905,180.83,904.82,179.47,904.56,178.3Z"/><path class="cls-2" d="M904.77,178.25c-1.31-5.61-3.36-11.12-5.09-16.61q-5.61-17.85-11.3-35.67-13.59-42.75-27.19-85.48C858.09,30.72,855,21,852,11.16a.25.25,0,0,0-.22-.16c-4.77-.44-9.46,1.53-13.82,3.24-3.22,1.26-6.4,2.63-9.63,3.89-.53.21-3.22.91-3.55,1.42-.58.94.68,4,.9,5,2.8,12.18,6.1,24.25,9.34,36.32C845,98,855.38,135.1,867.44,171.6q2,6.19,4.19,12.33c.89,2.51,1.48,7.07,4.4,8,2.34.74,5.64-1.19,7.75-2l13.1-4.82c4-1.49,8.78-1.78,7.89-6.88,0-.28-.47-.16-.42.11.94,5.4-18,10.19-21.63,11.52s-7,2.38-9.29-2.21a40.34,40.34,0,0,1-1.68-4.74c-2.43-6.92-4.71-13.88-6.94-20.86-5.23-16.39-10.14-32.89-14.91-49.43C841.88,84.86,834,57,827.17,28.89c-.51-2.09-2.3-6.06-1.87-8.23s5-2.83,7.28-3.77c4.84-2,9.83-4.36,15-5.27,3.81-.66,4-.14,5,2.88.54,1.76,1.09,3.53,1.64,5.29q2.24,7.14,4.5,14.29,13,41.28,26.24,82.53,6.69,21,13.35,42.08c2.05,6.5,4.5,13,6.06,19.67C904.41,178.64,904.84,178.52,904.77,178.25Z"/><path class="cls-4" d="M816.78,93.05c-.38-.69-13.24,3-13.82,4.07s30.63,99.81,31.8,105.1a3.7,3.7,0,0,0,1.18,2.34c.76.52,8.76-1.77,11.44-3.49C839.88,177.86,823.17,104.49,816.78,93.05Z"/><path class="cls-2" d="M816.89,92.86c-1-.49-2.87.26-3.79.48a38.28,38.28,0,0,0-8.73,2.71c-1.93,1-1.61.89-1.3,2.77,1.35,8.09,4.74,16.28,7.13,24.11,7.23,23.68,14.7,47.28,21.9,71,.83,2.72,1.46,5.58,2.43,8.26.61,1.7.68,2.35,2.29,2.65,2.93.56,8.14-2.11,10.67-3.56a.21.21,0,0,0,.1-.24c-6.21-19.39-10.74-39.35-15.87-59-2.69-10.29-5.39-20.58-8.38-30.79-1.77-6.08-3.34-12.65-6.37-18.26a.22.22,0,0,0-.38.22c3.23,6,4.87,13.09,6.74,19.58,3,10.54,5.83,21.16,8.59,31.78,2.86,11,5.66,21.95,8.56,32.91,1.26,4.78,2.54,9.55,3.88,14.31.5,1.76,1,3.53,1.53,5.29.78,2.59,1.76,3.87-1.19,5.08-2.58,1-6.26,2.91-8.51,1.12-1.55-1.23-1-.94-1.51-2.2a51,51,0,0,1-1.66-5.61c-2-6.66-4.08-13.31-6.13-19.95-5.52-17.84-11.08-35.66-16.53-53.51-2.12-6.95-4.28-13.89-6.22-20.88-.27-1-1.28-3.16-.78-4,.92-1.56,11.64-4.67,13.31-3.83C816.92,93.37,817.14,93,816.89,92.86Z"/><path class="cls-2" d="M1021.13,11.37c-25.36,9.14-44.52,30.05-50.22,56.52-3.72,17.23-1.06,35.57,9.2,50.15,7.6,10.79,18.56,18.73,30.73,23.64,29.47,11.9,65.67,5.19,85-21.25,16.89-23.14,20.43-57.61,6.29-82.67C1095.49,26,1085,15.32,1072.18,10.63c-16.3-6-34.84-4.67-51.05.74-2.14.71-1.22,4.11.94,3.39,14.86-4.95,31.08-6.19,46.23-1.7,10.59,3.14,19.88,10.78,26.45,19.77,15.76,21.53,15.73,50,5,73.71-14.37,31.93-51.32,44.39-83.53,33.41-26.83-9.14-45.63-33.07-43.28-62.23,2.31-28.81,22.07-53.22,49.09-63C1024.18,14,1023.27,10.6,1021.13,11.37Z"/><path class="cls-1" d="M657.37,818.46l-17.86-7.35,6.9-16.79,17.87,7.34C672.69,805.12,665.78,821.92,657.37,818.46Z"/><path class="cls-2" d="M657.84,816.76,640,809.42l1.23,2.16,6.91-16.8L646,796l15.7,6.46c2.88,1.18,4.88,2.56,4.67,6.15-.24,4.24-3.66,9.74-8.48,8.14-2.15-.71-3.08,2.69-.93,3.4,9.2,3.05,16.84-11,11-18-2.16-2.57-6.47-3.59-9.45-4.82l-11.58-4.76c-1-.39-1.84.44-2.16,1.23l-6.91,16.79c-.39,1,.44,1.85,1.23,2.17l17.87,7.35C659,821,659.91,817.61,657.84,816.76Z"/><path class="cls-4" d="M660.07,813.38a1.49,1.49,0,0,0,.65-1.59L644,804.91l-.65,1.6Z"/><path class="cls-2" d="M660.22,813.54c.7-.84.63-.64.72-1.75a.21.21,0,0,0-.16-.21l-16.72-6.88c-.12-.05-.23.06-.27.16l-.65,1.59a.22.22,0,0,0,.15.27L660,813.6c.26.1.38-.32.12-.43l-8.68-3.57-5.66-2.32c-.39-.17-1.65-.44-1.91-.79-.38-.51-.55.34,0-.72.48-.91.89-.3,2.21.24l5.58,2.3,6.13,2.52c1.47.6,3.55.66,2.1,2.4C659.73,813.44,660,813.76,660.22,813.54Z"/><path class="cls-4" d="M625.06,797a1.51,1.51,0,0,0-.65,1.6l16.72,6.87.65-1.59Z"/><path class="cls-2" d="M624.91,796.88c-.7.84-.63.63-.72,1.75a.22.22,0,0,0,.16.21l16.72,6.88a.23.23,0,0,0,.27-.16L642,804a.22.22,0,0,0-.15-.27l-16.72-6.88c-.26-.1-.38.32-.12.43l8.68,3.56,5.66,2.33c.39.16,1.65.44,1.92.79.38.51.54-.34,0,.72s-.89.3-2.21-.25l-5.58-2.29-6.13-2.52c-1.47-.6-3.55-.66-2.1-2.4C625.4,797,625.09,796.66,624.91,796.88Z"/><path class="cls-3" d="M629.83,788.37l16.28,6.69-6.3,15.31-16.28-6.7C615.87,800.52,622.17,785.22,629.83,788.37Z"/><path class="cls-2" d="M629.59,789.22l6.52,2.68,5.17,2.12c.9.37,2.78,1.6,3.8,1.57,1.23-.05.28-.59,0-.27-.76.79-1.23,3-1.64,4-1.21,3-3.09,6.18-3.82,9.29-.54,2.31-.69.39.24.85-.85-.42-1.77-.73-2.65-1.09l-9.91-4.07c-3.09-1.27-6.13-2.09-6.34-6.13-.24-4.52,3.55-10.62,8.65-8.92,1.08.35,1.54-1.35.47-1.7-7.7-2.56-14.12,9.31-9.32,15.15,1.85,2.26,5.71,3.15,8.29,4.21l10.55,4.33c.48.2.92-.22,1.08-.61l6.3-15.3c.19-.48-.23-.92-.62-1.09l-16.28-6.69C629,787.09,628.56,788.79,629.59,789.22Z"/><path class="cls-1" d="M919.78,294.71l17,9.24-8.68,15.95-17-9.24C903.11,306.31,911.79,290.36,919.78,294.71Z"/><path class="cls-2" d="M918.89,296.23l17,9.24-.63-2.41L926.54,319l2.41-.63-14.79-8.05c-2.62-1.43-4.69-2.7-4.41-6.17.34-4.1,4.44-10.07,9.14-7.93,2.05.93,3.84-2.11,1.78-3-8.74-4-18.11,8.36-13.33,16.24,1.78,2.93,5.89,4.39,8.76,6l11.07,6a1.8,1.8,0,0,0,2.41-.63l8.68-16a1.77,1.77,0,0,0-.63-2.4l-17-9.24C918.68,292.1,916.9,295.14,918.89,296.23Z"/><path class="cls-3" d="M943.9,327.61l-15.45-8.42,7.91-14.53,15.46,8.41C959.09,317,951.18,331.57,943.9,327.61Z"/><path class="cls-2" d="M944.35,326.85l-6.14-3.35c-2.39-1.3-5.64-4-8.31-4.52-.3-.06-.59-.36-.88-.48.62.26-.27,1.52.46.63a21.48,21.48,0,0,0,1.78-3.27l4.86-8.93a6.61,6.61,0,0,0,.73-1.33c.18-1.11.91.69-.88-.16.75.36,1.48.81,2.21,1.21l9,4.87c2.16,1.18,5.53,2.36,6.42,4.89,1.72,4.91-3.74,12.9-9.2,10.44-1-.47-1.92,1-.89,1.52,7.41,3.34,15.36-7.61,11-14.07-1.6-2.37-5.17-3.6-7.57-4.91L936.8,303.9a.88.88,0,0,0-1.2.31l-7.91,14.53A.89.89,0,0,0,928,320l15.46,8.42C944.46,328.91,945.34,327.39,944.35,326.85Z"/><path class="cls-4" d="M932.31,308.22l-15.88-8.64a1.5,1.5,0,0,0-.82,1.51l15.87,8.64Z"/><path class="cls-2" d="M932.42,308l-15.88-8.64a.23.23,0,0,0-.27,0,2,2,0,0,0-.88,1.67.21.21,0,0,0,.11.19l15.87,8.64a.22.22,0,0,0,.3-.07l.83-1.52c.13-.25-.25-.47-.38-.22-.84,1.53-.36,1.52-1.93.67L925.1,306l-5.85-3.19c-.55-.3-3.22-1.28-3.42-1.86-.79-2.26,2.06-.34,2.45-.13l5.4,2.94,8.52,4.64A.22.22,0,0,0,932.42,308Z"/><path class="cls-4" d="M950.28,318.24l-15.88-8.65-.83,1.51,15.88,8.65A1.52,1.52,0,0,0,950.28,318.24Z"/><path class="cls-2" d="M950.39,318.05l-15.88-8.65a.22.22,0,0,0-.3.08l-.83,1.51a.24.24,0,0,0,.08.3l15.88,8.65a.23.23,0,0,0,.27,0,2,2,0,0,0,.89-1.66c0-.29-.42-.28-.44,0-.24,2.26-1.92.54-3.09-.09l-5.64-3.07-5.48-3a6.61,6.61,0,0,1-1.63-.89c-.5-.63-.59.31,0-.74.44-.85-.11-.47.53-.45.42,0,1.18.65,1.54.84l5.4,2.94,8.51,4.64C950.41,318.56,950.64,318.18,950.39,318.05Z"/><path class="cls-1" d="M848.42,315.22l-8.3-17.45,16.4-7.8,8.3,17.45C868.72,315.63,852.32,323.43,848.42,315.22Z"/><path class="cls-2" d="M849.94,314.33l-8.3-17.44-.63,2.4,16.4-7.8-2.41-.63,7.23,15.21c1.33,2.79,2.06,5.09-.42,7.71-2.92,3.08-9.36,5-11.87.55-1.12-2-4.16-.2-3,1.78,4.75,8.38,19.68,3.38,20.24-5.66.21-3.38-2.29-7.05-3.68-10L858,289.09a1.79,1.79,0,0,0-2.41-.63l-16.4,7.79a1.8,1.8,0,0,0-.63,2.41l8.3,17.45C847.87,318.15,850.9,316.37,849.94,314.33Z"/><path class="cls-3" d="M848.24,274.42l7.55,15.9-14.94,7.11-7.56-15.9C829.73,274.05,844.68,266.94,848.24,274.42Z"/><path class="cls-2" d="M847.48,274.87l3,6.31L853,286.4c.41.87.93,2.9,1.68,3.54a2.61,2.61,0,0,1,.37.77c-.57-1.58.86-1.13-.17-.9a17.46,17.46,0,0,0-3.36,1.59c-3,1.44-6.72,2.6-9.46,4.5-1.9,1.32-1.08-.18-.48,1-.49-.92-.89-1.89-1.34-2.83l-4.42-9.29c-1.24-2.61-3-5.17-1.39-8.07,2.37-4.24,10.28-6.74,13.09-1.79A.88.88,0,0,0,849,274c-4-7-16.58-2.73-17.1,4.79-.2,2.93,2.06,6.2,3.26,8.72l4.93,10.38a.89.89,0,0,0,1.2.32l15-7.11a.89.89,0,0,0,.31-1.2L849,274C848.51,273,847,273.85,847.48,274.87Z"/><path class="cls-4" d="M846.11,296.8l7.77,16.33a1.52,1.52,0,0,0,1.55-.74l-7.76-16.33Z"/><path class="cls-2" d="M845.92,296.91l7.77,16.33a.22.22,0,0,0,.24.1c1.19-.17.77,0,1.66-.8a.23.23,0,0,0,0-.26L847.86,296a.22.22,0,0,0-.3-.08l-1.56.74c-.25.12,0,.5.22.38,1.47-.7,1.18-1,1.89.51l2.53,5.31,2.8,5.9c.23.49,1.95,3.12,1.74,3.67-.81,2.18-1.9-1-2.12-1.47l-2.58-5.45-4.18-8.77C846.18,296.43,845.8,296.65,845.92,296.91Z"/><path class="cls-4" d="M846.65,293.75l-7.77-16.33a1.5,1.5,0,0,0-1.55.74l7.76,16.33Z"/><path class="cls-2" d="M846.84,293.64l-7.77-16.33a.21.21,0,0,0-.25-.1c-1.19.17-.77,0-1.65.79a.24.24,0,0,0,0,.27l7.76,16.33a.24.24,0,0,0,.3.08l1.56-.74c.25-.12,0-.5-.22-.38-1.48.7-1.18,1-1.89-.51l-2.53-5.32-2.8-5.89c-.24-.5-2-3.13-1.75-3.67.82-2.19,1.91,1,2.13,1.47l2.58,5.44,4.18,8.78C846.58,294.11,847,293.89,846.84,293.64Z"/><path class="cls-1" d="M861.34,219.48,879.87,214,885,231.43l-18.53,5.47C857.76,239.47,852.62,222.05,861.34,219.48Z"/><path class="cls-2" d="M861.81,221.17l18.53-5.46-2.16-1.23,5.13,17.42,1.23-2.16c-5.57,1.64-11.12,3.36-16.71,4.92-2.94.83-5.26,1-7.3-1.91-2.29-3.24-3.38-9.87,1.28-11.58,2.11-.77,1.2-4.17-.93-3.39-9,3.3-6.83,18.57,2,20.89,3.29.86,7.19-1,10.29-1.9l12.35-3.64a1.8,1.8,0,0,0,1.23-2.17l-5.14-17.42a1.79,1.79,0,0,0-2.16-1.23l-18.53,5.47C858.71,218.42,859.63,221.82,861.81,221.17Z"/><path class="cls-3" d="M901.67,225.68l-16.89,5-4.68-15.87,16.89-5C904.93,207.46,909.61,223.34,901.67,225.68Z"/><path class="cls-2" d="M901.43,224.83l-16.88,5,1.08.61L881,214.55l-.61,1.08c5.07-1.49,10.13-3.06,15.23-4.49,3-.83,5.45-.82,7.46,2.08,2.37,3.41,3.14,9.87-1.6,11.61-1,.39-.6,2.09.47,1.7,7.54-2.77,5.49-15.74-1.79-17.64-2.84-.74-6.33.94-9,1.73l-11.25,3.32a.9.9,0,0,0-.62,1.08l4.68,15.87a.91.91,0,0,0,1.09.62l16.88-5A.88.88,0,0,0,901.43,224.83Z"/><path class="cls-4" d="M879.38,220.12,862,225.24a1.52,1.52,0,0,0,.48,1.65L879.93,222l.45-.13-.52-1.86Z"/><path class="cls-2" d="M879.32,219.91,862,225a.22.22,0,0,0-.16.22c0,1.2-.15.76.51,1.76a.23.23,0,0,0,.25.1c5.95-1.68,11.93-3.29,17.86-5a.22.22,0,0,0,.15-.27l-.52-1.86a.21.21,0,0,0-.27-.15l-.48.13a.22.22,0,0,0,.12.42c.45-.12.79,1.12.66,1.37s-.7.16-.8.23c-1.25.81-3.6,1-5,1.41l-6.55,1.85c-1.11.31-3.69,1.6-4.82,1.36-1.91-.41-.11-1.31.81-1.58l6-1.77,9.73-2.87A.22.22,0,0,0,879.32,219.91Z"/><path class="cls-4" d="M900.11,214.29l-16.92,4.77.52,1.86,16.89-5A1.51,1.51,0,0,0,900.11,214.29Z"/><path class="cls-2" d="M900.05,214.07l-16.92,4.78a.22.22,0,0,0-.16.27l.53,1.86a.22.22,0,0,0,.27.15l16.89-5a.23.23,0,0,0,.16-.21c0-1.2.15-.77-.52-1.76-.16-.24-.54,0-.38.22,1.28,1.91-.76,1.73-2.27,2.18l-6.22,1.83-5.62,1.66a6.05,6.05,0,0,1-1.75.51c-.53-.11-.11.37-.4-.65-.21-.73-.35-.49-.12-.74s1.32-.37,1.64-.46l5.86-1.66,9.13-2.57A.22.22,0,0,0,900.05,214.07Z"/></g></g></svg>