<svg xmlns="http://www.w3.org/2000/svg" viewBox="0 0 555.43 410.34"><defs><style>.cls-1{fill:none;}.cls-2{fill:#a5c08a;}.cls-3{fill:#38301f;}.cls-4{fill:#ad9689;}.cls-5{fill:#979b3d;}.cls-6{fill:#eae3ca;}</style></defs><title>pill2</title><g id="Layer_2" data-name="Layer 2"><g id="candle"><path class="cls-1" d="M10.3,93.62l9.25-2.75,2.55,8.7-9.25,2.75C8.5,103.62,5.9,94.92,10.3,93.62Z"/><path class="cls-1" d="M10.5,94.47c3.1-.9,6.2-1.8,9.25-2.75-.35-.2-.7-.4-1.1-.6l2.55,8.7c.2-.35.4-.7.6-1.1-2.8.8-5.55,1.7-8.35,2.45-1.45.4-2.65.5-3.65-1s-1.6-4.9.7-5.75c1.05-.4.6-2.1-.45-1.7-4.5,1.65-3.4,9.3,1,10.45,1.65.45,3.6-.5,5.15-1l6.2-1.8a.88.88,0,0,0,.6-1.1l-2.55-8.7a.88.88,0,0,0-1.1-.6c-3.1.9-6.2,1.8-9.25,2.75A.85.85,0,1,0,10.5,94.47Z"/><path class="cls-1" d="M30.45,96.72,22,99.22l-2.35-8,8.45-2.5C32.05,87.62,34.4,95.57,30.45,96.72Z"/><path class="cls-1" d="M30.3,96.32c-2.8.85-5.65,1.65-8.45,2.5l.55.3c-.8-2.65-1.55-5.3-2.35-8-.1.2-.2.35-.3.55,2.55-.75,5.05-1.55,7.6-2.25,1.5-.4,2.7-.4,3.75,1,1.2,1.7,1.6,4.9-.8,5.8-.55.2-.3,1.05.25.85,3.75-1.4,2.75-7.85-.9-8.8-1.4-.35-3.15.45-4.5.85L19.5,90.87a.43.43,0,0,0-.3.55c.8,2.65,1.55,5.3,2.35,8a.43.43,0,0,0,.55.3c2.8-.85,5.65-1.65,8.45-2.5C31.1,97,30.85,96.12,30.3,96.32Z"/><path class="cls-1" d="M10.9,96.57a.79.79,0,0,0,.25.85l8.65-2.55L19.55,94Z"/><path class="cls-1" d="M10.75,96.57c0,.6-.1.4.25.9a.15.15,0,0,0,.1,0L19.75,95c.05,0,.1-.1.1-.15-.1-.3-.15-.55-.25-.85,0,0-.1-.1-.15-.1L10.8,96.42c-.15,0-.1.25,0,.2l4.5-1.35,3-.9c.65-.2,1-.55,1.15,0s-.3.45-.95.6c-.95.3-1.9.55-2.85.85l-3.1.9c-.75.2-1.65.9-1.65-.25C11,96.42,10.75,96.42,10.75,96.57Z"/><path class="cls-1" d="M29.55,92a.79.79,0,0,0-.25-.85l-8.65,2.55.25.85Z"/><path class="cls-1" d="M29.65,92c0-.6.1-.4-.25-.9a.15.15,0,0,0-.1-.05l-8.65,2.55s-.1.1-.1.15c.1.3.15.55.25.85,0,0,.1.1.15.1l8.65-2.55c.15,0,.1-.25-.05-.2l-4.5,1.35-3,.9c-.65.2-1,.55-1.15,0s.3-.45,1-.6c.95-.3,1.9-.55,2.85-.85l3.1-.9c.75-.2,1.65-.9,1.65.25C29.45,92.17,29.65,92.17,29.65,92Z"/><path class="cls-1" d="M6.85,23.67l8.5,4.6-4.35,8-8.5-4.6C-1.5,29.47,2.85,21.47,6.85,23.67Z"/><path class="cls-1" d="M6.4,24.42c2.85,1.55,5.65,3.1,8.5,4.6l-.3-1.2c-1.45,2.65-2.9,5.3-4.35,8l1.2-.3-7.4-4.05c-1.3-.7-2.35-1.35-2.2-3.1.15-2.05,2.2-5,4.55-3.95,1,.45,1.9-1.05.9-1.5-4.35-2-9,4.2-6.65,8.1.9,1.45,3,2.2,4.4,3l5.55,3a.94.94,0,0,0,1.2-.3c1.45-2.65,2.9-5.3,4.35-8a.94.94,0,0,0-.3-1.2C13,26,10.2,24.42,7.35,22.92,6.3,22.37,5.4,23.87,6.4,24.42Z"/><path class="cls-1" d="M18.9,40.12l-7.75-4.2,3.95-7.25,7.75,4.2C26.5,34.82,22.55,42.07,18.9,40.12Z"/><path class="cls-1" d="M19.1,39.72l-3.05-1.65c-1.2-.65-2.8-2-4.15-2.25-.15,0-.3-.2-.45-.25.3.15-.15.75.25.3a17.37,17.37,0,0,0,.9-1.65c.8-1.5,1.6-3,2.45-4.45a2.08,2.08,0,0,0,.35-.65c.1-.55.45.35-.45-.1.4.2.75.4,1.1.6,1.5.8,3,1.6,4.45,2.45,1.1.6,2.75,1.2,3.2,2.45.9,2.45-1.85,6.45-4.6,5.2-.5-.25-1,.55-.45.75,3.7,1.65,7.7-3.8,5.5-7-.8-1.2-2.6-1.8-3.8-2.45-1.7-.9-3.35-1.85-5.05-2.75a.46.46,0,0,0-.6.15c-1.3,2.4-2.65,4.85-3.95,7.25a.46.46,0,0,0,.15.6l7.75,4.2A.42.42,0,1,0,19.1,39.72Z"/><path class="cls-1" d="M5.05,26.12a.67.67,0,0,0-.4.75l8,4.3.4-.75Z"/><path class="cls-1" d="M5,26a.93.93,0,0,0-.45.85c0,.05,0,.1,0,.1,2.65,1.45,5.3,2.9,8,4.3.05.05.1,0,.15-.05.15-.25.25-.5.4-.75,0,0,0-.1-.05-.15-2.65-1.45-5.3-2.9-7.95-4.3a.11.11,0,0,0-.1.2l4.1,2.25L11.8,30c.2.1.7.25.8.45.25.3.3-.15,0,.35s.05.25-.25.2a2.18,2.18,0,0,1-.75-.4c-.9-.5-1.8-1-2.7-1.45S7,28.07,6.05,27.57c-.6-.35-1.9-.6-1-1.35C5.2,26.07,5.05,25.92,5,26Z"/><path class="cls-1" d="M21.5,36a.67.67,0,0,0,.4-.75L14,30.92l-.4.75Z"/><path class="cls-1" d="M21.6,36a.93.93,0,0,0,.45-.85c0-.05,0-.1-.05-.1-2.65-1.45-5.3-2.9-7.95-4.3-.05-.05-.1,0-.15.05-.15.25-.25.5-.4.75-.05.05,0,.1.05.15,2.65,1.45,5.3,2.9,8,4.3a.11.11,0,0,0,.1-.2l-4.1-2.25-2.75-1.5c-.2-.1-.7-.25-.8-.45s-.3.15,0-.35,0-.25.25-.2a2.18,2.18,0,0,1,.75.4c.9.5,1.8,1,2.7,1.45s1.9,1,2.85,1.55c.6.35,1.9.6.95,1.35C21.3,36,21.45,36.12,21.6,36Z"/><path class="cls-2" d="M480.5,32.17a127.51,127.51,0,0,1-12.35,12.5c-7.7,6.7-10.8,10.2-13.25,16-1.4,3.25-.75,3.85-.8,9.2-.05,4.3,5.2,18.1,3.55,18.75,0,0,.65,7,4.4,9.8,6.7,5,16.3,5.3,19.8,4.9,4.5-.55,8.35-2,13.7-5,6.2-3.4,14.85-10.1,24.45-19.7"/><path class="cls-3" d="M479.85,31.57c-5.2,6-11.15,11.15-16.9,16.65-3.95,3.75-7.55,8.05-9.3,13.3-.75,2.2-.45,4.4-.45,6.7a28.12,28.12,0,0,0,.8,6.45c.6,2.55,1.35,5,2,7.55.2.7,1.5,5.5,1.2,5.65a.93.93,0,0,0-.45.75c.5,5.25,2.65,9.65,7.4,12.15a31.42,31.42,0,0,0,17.7,3.4c6.9-.75,13.45-4.35,19.1-8.2A142.57,142.57,0,0,0,520.6,79.22.88.88,0,0,0,519.35,78c-8.15,8.15-17.05,16.15-27.5,21.25-9,4.35-20.3,4.75-28.8-1.15a10.81,10.81,0,0,1-3.9-6.1c-.25-.8-.3-1.7-.55-2.45a3.69,3.69,0,0,0-.1-.6c-.35-.25-.35.6-.2.25.95-2.1.05-4.5-.5-6.65-1.9-7.35-5.05-15.65-1.5-23,2.4-4.9,6.25-8.7,10.25-12.35A163.08,163.08,0,0,0,481,32.82C481.85,32,480.6,30.72,479.85,31.57Z"/><path class="cls-2" d="M378.9,28.72c1.85,22.3,9.05,50.9,18.1,81.7a646.75,646.75,0,0,1,61.6-20.75C451.15,66,445.55,32.37,437.85.92c-3.4.75-18.8,6.35-22.4,7.3-3.35.9-6.6,1.85-9.7,2.8"/><path class="cls-3" d="M378,28.72c2.35,27.85,10.3,55.2,18.1,81.9a.88.88,0,0,0,1.1.6c20.2-7.85,40.7-14.9,61.6-20.75a.88.88,0,0,0,.6-1.1c-9-29-13.55-59.3-20.75-88.75a.93.93,0,0,0-1.1-.6c-4.85,1.15-9.55,3.05-14.2,4.65-5.9,2-12,3.65-17.9,5.5-1.1.35-.6,2.05.45,1.7,6-1.85,12-3.5,17.9-5.5,4.7-1.6,9.4-3.5,14.2-4.65-.35-.2-.7-.4-1.1-.6,7.2,29.45,11.7,59.75,20.75,88.75.2-.35.4-.7.6-1.1-20.9,5.85-41.4,12.9-61.6,20.75.35.2.7.4,1.1.6C390,83.57,382.05,56.37,379.7,28.67,379.65,27.57,377.9,27.57,378,28.72Z"/><path class="cls-4" d="M507.9,72.17c-17.7-10.25-19.75-10.55-22-13.1-3.65-4-6.4-11.9-1.55-28.95-25.25,22.25-36.15,28.8-26.15,53.95,10.1,7.7,27.25,18.9,37.15,13.65,1.65-.85,2-1.7,8.95-6.65,9.8-6.95,12.25-8.8,12.2-11.55C516.5,77.22,513.85,75.62,507.9,72.17Z"/><path class="cls-3" d="M508.1,71.77c-5.25-3-10.55-6-15.85-8.9a27.92,27.92,0,0,1-5.45-3.45c-7.6-7.1-4.45-20.55-2.05-29.15a.46.46,0,0,0-.75-.45c-5.35,4.7-10.8,9.3-16,14.2a60.49,60.49,0,0,0-9.95,11.2c-5.15,8-4.55,16.9-1.55,25.6.35,1.05.65,2.7,1.35,3.55a18.4,18.4,0,0,0,2.95,2.25c2.5,1.8,5.05,3.55,7.7,5.2,5.1,3.15,10.7,6.1,16.6,7.3,3.8.75,8.1.75,11.4-1.55,4.15-2.9,8.1-6.1,12.2-9.1,2.6-1.9,7.35-4.45,8.15-8,.95-4.4-6-7.1-8.75-8.75-.5-.3-1,.5-.45.75,2.55,1.45,9.9,4.4,8.05,8.5-1.45,3.25-6,5.65-8.75,7.6-3.6,2.6-7.1,5.35-10.7,7.95-3.35,2.45-7.7,2.4-11.6,1.5-5.5-1.25-10.65-3.95-15.45-6.85-2.25-1.4-4.45-2.85-6.65-4.4-1.05-.75-2.25-1.5-3.25-2.35-1.2-1-1.55-2.4-2.05-3.9-2.85-8.3-3.6-16.8,1.2-24.5,2.75-4.4,6.55-8.15,10.35-11.65,5.15-4.8,10.5-9.3,15.75-14L483.8,30c-2.45,8.9-5.45,22.1,1.95,29.65a21.58,21.58,0,0,0,5.2,3.5c5.55,3.1,11.15,6.15,16.65,9.35C508.15,72.82,508.6,72.07,508.1,71.77Z"/><path class="cls-4" d="M401.45,17.72l37.3-9.85L454,78.37l-60.2,20.85A529.68,529.68,0,0,1,378.9,30.47Z"/><path class="cls-3" d="M401.55,18.12c7.5-2,15-4,22.5-6,4.2-1.1,8.45-2.25,12.65-3.35.7-.2,1.45-.35,2.15-.55-1.15.3-.35-.65-.45,0a2.92,2.92,0,0,0,.2.9q5.63,26.25,11.3,52.5c1.2,5.55,2,11.4,3.6,16.8-.05-.2.6-.45.15-.45a2.61,2.61,0,0,0-.8.3c-1.05.35-2.15.75-3.2,1.1-3.8,1.3-7.6,2.65-11.4,3.95-9.85,3.4-19.75,6.85-29.6,10.25-3.7,1.25-7.35,2.55-11,3.8a23.5,23.5,0,0,1-3.15,1.1c-.15,0-.5.25-.65.2a22,22,0,0,0-.65-3.45A530.76,530.76,0,0,1,380,34.67c-.1-.75-.9-3.65-.65-4s1-.6,1.4-.8l5.5-3.1c4.35-2.45,8.7-4.95,13.05-7.4l2.45-1.4a.44.44,0,1,0-.45-.75L378.75,30a.41.41,0,0,0-.2.5A537.79,537.79,0,0,0,393.4,99.22a.43.43,0,0,0,.55.3l52.8-18.3c2.45-.85,4.9-1.7,7.4-2.55a.45.45,0,0,0,.3-.55q-6.68-30.83-13.3-61.7c-.65-3-1.25-5.9-1.9-8.8a.43.43,0,0,0-.55-.3c-12.45,3.3-24.85,6.55-37.3,9.85C400.8,17.42,401,18.27,401.55,18.12Z"/><path class="cls-5" d="M372.9,6.57a36.77,36.77,0,0,0-1.15,6.85c-.25,3.6-.45,6.85,1.3,10.15.5.95,2.45,4.75,5.8,5.15,1.8.25,3.2-.6,4.7-1.45,7.55-4.45,11.3-6.65,11.45-6.8a59.12,59.12,0,0,0,11.8-10.8c1.5-1.85,2.6-3.5,3.4-4.7Z"/><path class="cls-3" d="M372.05,6.32c-1.5,5.8-2.5,13.05.7,18.45a9.89,9.89,0,0,0,4.7,4.45c3.15,1.15,5.9-.85,8.55-2.4a114.53,114.53,0,0,0,10.85-6.65A56.72,56.72,0,0,0,411,5.37a.86.86,0,0,0-.75-1.3c-12.45.5-24.85,1-37.3,1.55-1.15,0-1.15,1.8,0,1.75,12.45-.5,24.85-1,37.3-1.55-.25-.45-.5-.9-.75-1.3-5.05,7.8-11.9,13.45-19.75,18.1-2.4,1.4-4.8,3-7.3,4.3-3.45,1.75-6,.35-7.9-2.65-3.15-5-2.15-12-.7-17.45A.91.91,0,0,0,372.05,6.32Z"/><path class="cls-5" d="M505.9,6.57a30.74,30.74,0,0,0-2.9,1.2,45.64,45.64,0,0,0-9.35,5.35,36,36,0,0,0-9.5,11.15c-1.6,2.85-5.95,10.55-5,19.55.25,2.4.8,4,.5,7-.45,4.45-2.1,5.75-3.25,9.7a23.79,23.79,0,0,0,.65,14.2c.75,2,2.65,7.15,7.75,10.15,6.65,3.9,14.3,1.65,16.65,1a85.43,85.43,0,0,0,8.7-3.55c4.45-2,5.4-2.55,7.75-3,4-.9,4.9-1,7.9-1.6,2.5-.5,14.05-7.9,16.3-12.25C566.25,36.22,551.1-6.38,505.9,6.57Z"/><path class="cls-3" d="M505.7,5.72c-8.8,3.35-16.3,8.4-21.4,16.5a40.63,40.63,0,0,0-5.5,12.85,28,28,0,0,0-.55,8.65c.3,2.85.85,5.5.3,8.35-.45,2.35-1.7,4.4-2.5,6.6a22.45,22.45,0,0,0-1.25,9.45,25.79,25.79,0,0,0,2.9,10.1c4.75,9.15,14.9,11.2,24.15,8.3,4.4-1.4,8.55-3.55,12.75-5.35,3.8-1.65,8-1.7,11.9-3,3.4-1.1,6.7-3.6,9.5-5.75a39.62,39.62,0,0,0,8-8.15c9.25-11.85,13.9-28.65,7.65-42.95a29.37,29.37,0,0,0-16-15.55C526.05,2,515.35,3,505.7,5.72a.88.88,0,0,0,.45,1.7C520.8,3.32,538.75,4,547.8,18.07c7.8,12.15,5.4,28.15-1.7,40a53.84,53.84,0,0,1-6.45,8.9,46.8,46.8,0,0,1-9.7,7.45,23.74,23.74,0,0,1-8.75,3A50.29,50.29,0,0,0,510.55,81c-8.35,3.65-18.75,8.45-27.05,1.75-7.15-5.8-8.65-17.2-5.1-25.25a20.69,20.69,0,0,0,2.05-6.45c.35-2.85-.3-5.45-.5-8.25-.4-5.9,1.45-11.65,4.2-16.8,4.9-9.15,12.4-15,22.05-18.6C507.2,7,506.75,5.32,505.7,5.72Z"/><path class="cls-4" d="M496.1,72.82c-1.15-.85-2.3-1.65-3.45-2.5-3-2.2-6.15-4.5-8.1-7.7l-1.1.55a21.46,21.46,0,0,0-.95,6,9.52,9.52,0,0,0,.3,3.15c.9,3.45,4.3,5.85,7.85,6.45s7.15-.25,10.5-1.45a2,2,0,0,0,1.4-1.15C500.1,75.72,498.05,74.27,496.1,72.82Z"/><path class="cls-3" d="M496.35,72.47c-4.1-3-8.6-5.7-11.4-10a.48.48,0,0,0-.6-.15c-1.1.55-1.2.45-1.55,1.65a20.42,20.42,0,0,0-.75,5.2c-.05,3.1.85,5.8,3.35,7.75a12.75,12.75,0,0,0,8.75,2.45c2.45-.15,7.45-.6,8.75-3a.45.45,0,0,0-.25-.65,17.6,17.6,0,0,1-6.3-3.25c-.45-.35-.9.45-.45.75a18.31,18.31,0,0,0,6.5,3.35,3.47,3.47,0,0,1-.25-.65c-.85,1.6-4.6,2.1-6.35,2.35a13.85,13.85,0,0,1-7.15-.5c-4.55-1.75-6.1-5.75-5.6-10.35.1-.8.45-4.75,1.55-4.05a17.09,17.09,0,0,0,1,1.55,18,18,0,0,0,1.65,1.75,85.19,85.19,0,0,0,8.6,6.6C496.35,73.52,496.8,72.77,496.35,72.47Z"/><path class="cls-6" d="M524.1,61.57a37.33,37.33,0,0,1-19.35-11,71.4,71.4,0,0,1-8.55-12.8,28.11,28.11,0,0,1-2.8-13.25l-1.75,2.6c-4.95,9.3-3,21.55,3.2,30.1A30.42,30.42,0,0,0,514.6,69.07a34,34,0,0,0,22.65-4.7,18.51,18.51,0,0,0,7.15-7A25.41,25.41,0,0,1,524.1,61.57Z"/><path class="cls-3" d="M524.1,61.47a37.17,37.17,0,0,1-22-14.35c-4.85-6.6-9.1-14.15-8.65-22.6a.11.11,0,0,0-.2-.05c-6.3,9.4-5.7,21.35.2,30.9,6.85,11.05,20.3,16.05,32.85,13.4,6.85-1.45,14.55-5,18.15-11.4a.11.11,0,0,0-.15-.15,25.59,25.59,0,0,1-20.2,4.25c-.15,0-.2.2-.05.2a26.4,26.4,0,0,0,14.85-1.2,24.91,24.91,0,0,0,2.85-1.35,8.74,8.74,0,0,1,1.35-.8c.9-.35.9-.9.35.25-1.3,2.75-4.85,4.85-7.4,6.25-10.8,6.05-24.55,6-34.7-1.35C492,56.72,487,44,489.65,32.72a19.81,19.81,0,0,1,2.45-6.15c.25-.4.75-1.5,1.2-1.75s-.1-.05-.05.25c.15.8,0,1.8.1,2.6a28.69,28.69,0,0,0,4.1,12.4c3,5.25,6.4,10.4,11.15,14.2a38.39,38.39,0,0,0,15.5,7.4C524.2,61.72,524.25,61.52,524.1,61.47Z"/><path class="cls-6" d="M452.25,89.17c-.6-2.6-22.85-71.9-26.4-83.55-3-.45-8,2.2-13.4,4.2-.55.2,15.15,59.6,24.35,84.65a3,3,0,0,0,.6,1.1c.65.6,1.7.3,2.55,0,3.75-1.4,7.5-2.75,11.25-4.15a1.54,1.54,0,0,0,.9-.55C452.5,90.42,452.35,89.77,452.25,89.17Z"/><path class="cls-3" d="M452.35,89.12c-.65-2.8-1.7-5.55-2.55-8.3-1.85-5.95-3.75-11.9-5.65-17.85q-6.82-21.37-13.6-42.75c-1.55-4.9-3.1-9.75-4.6-14.65a.11.11,0,0,0-.1-.1c-2.4-.2-4.75.75-6.9,1.6L414.15,9a7.9,7.9,0,0,0-1.8.7c-.3.45.35,2,.45,2.5,1.4,6.1,3.05,12.15,4.65,18.15,5,18.55,10.2,37.1,16.2,55.35l2.1,6.15c.45,1.25.75,3.55,2.2,4,1.15.35,2.8-.6,3.85-1l6.55-2.4c2-.65,4.45-.75,4-3.35,0-.15-.25-.1-.2,0,.45,2.7-9,5.1-10.8,5.75s-3.5,1.2-4.65-1.1c-.35-.75-.55-1.6-.85-2.35-1.2-3.45-2.35-7-3.45-10.45-2.6-8.2-5-16.45-7.45-24.7-4-13.9-7.95-27.85-11.35-41.9-.25-1.05-1.15-3.05-1-4.1s2.5-1.4,3.65-1.9a36.15,36.15,0,0,1,7.5-2.65c1.9-.35,2,0,2.5,1.45.25.9.55,1.75.8,2.65.75,2.4,1.5,4.75,2.25,7.15,4.35,13.75,8.75,27.5,13.1,41.25,2.25,7,4.45,14,6.7,21,1,3.25,2.25,6.5,3.05,9.85C452.15,89.32,452.4,89.27,452.35,89.12Z"/><path class="cls-6" d="M408.35,46.52c-.2-.35-6.6,1.5-6.9,2s15.3,49.9,15.9,52.55a1.63,1.63,0,0,0,.6,1.15c.4.25,4.4-.9,5.7-1.75C419.9,89,411.55,52.27,408.35,46.52Z"/><path class="cls-3" d="M408.4,46.47c-.5-.25-1.45.15-1.9.25a21.93,21.93,0,0,0-4.35,1.35c-.95.5-.8.45-.65,1.4.65,4.05,2.35,8.15,3.55,12.05C408.65,73.37,412.4,85.17,416,97c.4,1.35.75,2.8,1.2,4.15.3.85.35,1.15,1.15,1.35,1.45.3,4-1,5.35-1.8.05,0,.05-.1.05-.1-3.1-9.7-5.35-19.65-7.95-29.5-1.35-5.15-2.7-10.3-4.2-15.4a41.3,41.3,0,0,0-3.2-9.25c0-.1-.2.05-.15.15,1.6,3,2.45,6.55,3.35,9.8,1.5,5.25,2.9,10.6,4.3,15.9,1.45,5.5,2.85,11,4.3,16.45.65,2.4,1.25,4.75,1.95,7.15.25.9.5,1.75.75,2.65.4,1.3.9,2-.6,2.55-1.3.55-3.15,1.45-4.25.55-.8-.6-.5-.45-.75-1.1a25.92,25.92,0,0,1-.85-2.8c-1-3.35-2.05-6.65-3.05-10-2.75-8.9-5.55-17.85-8.25-26.75-1-3.45-2.15-7-3.1-10.45-.15-.5-.65-1.6-.4-2,.45-.8,5.8-2.35,6.65-1.9C408.4,46.72,408.55,46.52,408.4,46.47Z"/><path class="cls-3" d="M510.55,5.72A38.77,38.77,0,0,0,485.45,34c-1.85,8.6-.55,17.8,4.6,25.05a34.38,34.38,0,0,0,15.35,11.8c14.75,6,32.85,2.6,42.5-10.65,8.45-11.55,10.2-28.8,3.15-41.35C547.75,13,542.5,7.62,536.1,5.27c-8.2-2.9-17.45-2.25-25.55.45-1.05.35-.6,2.05.45,1.7a38.38,38.38,0,0,1,23.1-.85c5.3,1.55,9.95,5.4,13.25,9.9,7.9,10.75,7.85,25,2.5,36.85-7.2,15.95-25.65,22.2-41.75,16.7-13.4-4.55-22.8-16.55-21.65-31.1S497.5,12.32,511,7.42C512.05,7,511.6,5.32,510.55,5.72Z"/><path class="cls-1" d="M328.65,409.27l-8.95-3.65,3.45-8.4,9,3.65C336.3,402.57,332.85,411,328.65,409.27Z"/><path class="cls-1" d="M328.9,408.42c-3-1.2-5.95-2.45-8.95-3.65.2.35.4.7.6,1.1l3.45-8.4c-.35.2-.7.4-1.1.6,2.6,1.1,5.25,2.15,7.85,3.25,1.45.6,2.45,1.3,2.35,3.05-.1,2.1-1.8,4.85-4.2,4.05-1.1-.35-1.55,1.35-.45,1.7,4.6,1.55,8.4-5.5,5.5-9-1.1-1.3-3.25-1.8-4.75-2.4l-5.8-2.4c-.5-.2-.9.2-1.1.6l-3.45,8.4c-.2.5.2.9.6,1.1,3,1.2,5.95,2.45,8.95,3.65C329.45,410.52,329.9,408.82,328.9,408.42Z"/><path class="cls-1" d="M330,406.72a.74.74,0,0,0,.35-.8L322,402.47l-.35.8Z"/><path class="cls-1" d="M330.1,406.77c.35-.4.3-.3.35-.85a.11.11,0,0,0-.1-.1L322,402.37c-.05,0-.1.05-.15.1a5.56,5.56,0,0,1-.35.8c0,.05.05.1.1.15l8.35,3.45c.15.05.2-.15.05-.2l-4.35-1.8c-.95-.4-1.9-.8-2.85-1.15-.2-.1-.85-.2-.95-.4s-.25.15,0-.35.45-.15,1.1.1l2.8,1.15,3.05,1.25c.75.3,1.75.35,1.05,1.2C329.85,406.72,330,406.92,330.1,406.77Z"/><path class="cls-1" d="M312.5,398.52a.74.74,0,0,0-.35.8l8.35,3.45.35-.8Z"/><path class="cls-1" d="M312.4,398.47c-.35.4-.3.3-.35.85a.11.11,0,0,0,.1.1l8.35,3.45c.05,0,.1-.05.15-.1a5.56,5.56,0,0,1,.35-.8c0-.05-.05-.1-.1-.15l-8.35-3.45c-.15-.05-.2.15-.05.2l4.35,1.8c.95.4,1.9.8,2.85,1.15.2.1.85.2.95.4s.25-.15,0,.35-.45.15-1.1-.1l-2.8-1.15-3.05-1.25c-.75-.3-1.75-.35-1.05-1.2C312.65,398.52,312.5,398.37,312.4,398.47Z"/><path class="cls-1" d="M314.9,394.22l8.15,3.35-3.15,7.65-8.15-3.35C307.9,400.27,311.05,392.62,314.9,394.22Z"/><path class="cls-1" d="M314.75,394.62,318,396c.85.35,1.7.7,2.6,1a7,7,0,0,0,1.9.8c.6,0,.15-.3,0-.15a7,7,0,0,0-.8,2,33.64,33.64,0,0,0-1.9,4.65c-.25,1.15-.35.2.1.4-.4-.2-.9-.35-1.3-.55-1.65-.7-3.3-1.35-5-2.05s-3-1.05-3.15-3.05c-.2-2.25,1.7-5.3,4.25-4.45.55.2.75-.65.25-.85-3.85-1.3-7.05,4.65-4.65,7.55.95,1.15,2.85,1.55,4.15,2.1,1.75.7,3.5,1.45,5.25,2.15.25.1.45-.1.55-.3l3.15-7.65c.1-.25-.1-.45-.3-.55L315,393.72C314.45,393.57,314.25,394.42,314.75,394.62Z"/><path class="cls-1" d="M459.85,147.37l8.5,4.6L464,160l-8.5-4.6C451.5,153.17,455.85,145.22,459.85,147.37Z"/><path class="cls-1" d="M459.4,148.12c2.85,1.55,5.65,3.1,8.5,4.6l-.3-1.2c-1.45,2.65-2.9,5.3-4.35,8l1.2-.3-7.4-4.05c-1.3-.7-2.35-1.35-2.2-3.1.15-2,2.2-5,4.55-3.95,1,.45,1.9-1.05.9-1.5-4.35-2-9.05,4.2-6.65,8.1.9,1.45,3,2.2,4.4,3l5.55,3a.94.94,0,0,0,1.2-.3c1.45-2.65,2.9-5.3,4.35-8a.94.94,0,0,0-.3-1.2c-2.85-1.55-5.65-3.1-8.5-4.6C459.3,146.07,458.4,147.57,459.4,148.12Z"/><path class="cls-1" d="M471.9,163.82l-7.75-4.2,4-7.25,7.75,4.2C479.5,158.52,475.55,165.82,471.9,163.82Z"/><path class="cls-1" d="M472.15,163.42l-3-1.65c-1.2-.65-2.8-2-4.15-2.25-.15-.05-.3-.2-.45-.25.3.15-.15.75.25.3a17.37,17.37,0,0,0,.9-1.65c.8-1.5,1.6-3,2.45-4.45a2.08,2.08,0,0,0,.35-.65c.1-.55.45.35-.45-.1.4.2.75.4,1.1.6,1.5.8,3,1.6,4.45,2.45,1.1.6,2.75,1.2,3.2,2.45.85,2.45-1.9,6.45-4.6,5.2-.5-.25-.95.55-.45.75,3.7,1.65,7.7-3.8,5.5-7-.8-1.2-2.6-1.8-3.8-2.45-1.7-.9-3.35-1.85-5-2.75a.46.46,0,0,0-.6.15c-1.3,2.4-2.65,4.85-3.95,7.25a.46.46,0,0,0,.15.6l7.75,4.2A.42.42,0,1,0,472.15,163.42Z"/><path class="cls-1" d="M466.1,154.12l-8-4.3a.67.67,0,0,0-.4.75l7.95,4.3Z"/><path class="cls-1" d="M466.15,154c-2.65-1.45-5.3-2.9-7.95-4.3-.05-.05-.1,0-.15,0a.93.93,0,0,0-.45.85c0,.05,0,.1,0,.1,2.65,1.45,5.3,2.9,8,4.3,0,.05.1,0,.15-.05.15-.25.25-.5.4-.75a.11.11,0,0,0-.2-.1c-.4.75-.2.75-.95.35s-1.7-.9-2.55-1.4l-2.95-1.6c-.25-.15-1.6-.65-1.7-.95-.4-1.15,1.05-.15,1.25-.05.9.5,1.8,1,2.7,1.45l4.25,2.3C466.2,154.27,466.3,154.12,466.15,154Z"/><path class="cls-1" d="M475.1,159.12l-8-4.3-.4.75,7.95,4.3A.74.74,0,0,0,475.1,159.12Z"/><path class="cls-1" d="M475.15,159c-2.65-1.45-5.3-2.9-7.95-4.3-.05-.05-.1,0-.15.05-.15.25-.25.5-.4.75,0,0,0,.1.05.15,2.65,1.45,5.3,2.9,7.95,4.3.05.05.1,0,.15,0a.93.93,0,0,0,.45-.85.1.1,0,1,0-.2,0c-.1,1.15-.95.25-1.55-.05-.95-.5-1.9-1-2.8-1.55L468,156c-.2-.1-.7-.25-.8-.45s-.3.15,0-.35,0-.25.25-.2a2.18,2.18,0,0,1,.75.4c.9.5,1.8,1,2.7,1.45l4.25,2.3C475.15,159.32,475.3,159.12,475.15,159Z"/><path class="cls-1" d="M424.15,157.62l-4.15-8.7,8.2-3.9,4.15,8.7C434.3,157.82,426.1,161.72,424.15,157.62Z"/><path class="cls-1" d="M425,157.17c-1.4-2.9-2.75-5.8-4.15-8.7l-.3,1.2,8.2-3.9-1.2-.3c1.2,2.55,2.4,5.05,3.6,7.6.65,1.4,1,2.55-.2,3.85-1.5,1.55-4.7,2.5-5.95.25a.87.87,0,0,0-1.5.9c2.4,4.2,9.85,1.7,10.1-2.85.1-1.7-1.15-3.5-1.85-5l-2.7-5.7a.88.88,0,0,0-1.2-.3l-8.2,3.9a.88.88,0,0,0-.3,1.2c1.4,2.9,2.75,5.8,4.15,8.7C423.9,159.12,425.4,158.22,425,157.17Z"/><path class="cls-1" d="M424.1,137.22l3.8,7.95-7.45,3.55-3.8-7.95C414.85,137,422.3,133.47,424.1,137.22Z"/><path class="cls-1" d="M423.7,137.47l1.5,3.15c.4.85.85,1.75,1.25,2.6.2.45.45,1.45.85,1.75.1.05.15.3.2.4-.3-.8.45-.55-.1-.45a8.69,8.69,0,0,0-1.7.8A34.31,34.31,0,0,0,421,148c-.95.65-.55-.1-.25.45-.25-.45-.45-.95-.65-1.4-.75-1.55-1.45-3.1-2.2-4.65-.6-1.3-1.5-2.6-.7-4.05,1.2-2.1,5.15-3.35,6.55-.85a.44.44,0,1,0,.75-.45c-2-3.5-8.3-1.35-8.55,2.4-.1,1.45,1.05,3.1,1.65,4.35.8,1.75,1.65,3.45,2.45,5.2a.42.42,0,0,0,.6.15c2.5-1.2,5-2.35,7.45-3.55a.42.42,0,0,0,.15-.6c-1.25-2.65-2.5-5.3-3.8-7.95C424.2,136.52,423.45,136.92,423.7,137.47Z"/><path class="cls-1" d="M423,148.42l3.9,8.15a.82.82,0,0,0,.8-.35l-3.9-8.15Z"/><path class="cls-1" d="M422.9,148.47c1.3,2.7,2.6,5.45,3.9,8.15,0,0,.1,0,.1,0,.6-.1.4,0,.85-.4a.09.09,0,0,0,0-.15c-1.3-2.7-2.6-5.45-3.9-8.15a.18.18,0,0,0-.15-.05c-.25.1-.5.25-.8.35-.15,0,0,.25.1.2.75-.35.6-.5.95.25.4.9.85,1.75,1.25,2.65s.95,1.95,1.4,2.95c.1.25,1,1.55.85,1.85-.4,1.1-.95-.5-1.05-.75-.45-.9-.85-1.8-1.3-2.7-.7-1.45-1.4-2.95-2.1-4.4C423.05,148.22,422.85,148.37,422.9,148.47Z"/><path class="cls-1" d="M423.3,146.87l-3.9-8.15a.82.82,0,0,0-.8.35l3.9,8.15Z"/><path class="cls-1" d="M423.4,146.82c-1.3-2.7-2.6-5.45-3.9-8.15,0,0-.1,0-.1,0-.6.1-.4,0-.85.4a.09.09,0,0,0,0,.15c1.3,2.7,2.6,5.45,3.9,8.15a.18.18,0,0,0,.15.05c.25-.1.5-.25.8-.35s0-.25-.1-.2c-.75.35-.6.5-.95-.25-.4-.9-.85-1.75-1.25-2.65s-1-1.95-1.4-2.95c-.1-.25-1-1.55-.85-1.85.4-1.1.95.5,1,.75.45.9.85,1.8,1.3,2.7.7,1.45,1.4,3,2.1,4.4C423.25,147.07,423.45,147,423.4,146.82Z"/><path class="cls-1" d="M430.65,109.77,439.9,107l2.55,8.7-9.25,2.75C428.85,119.77,426.3,111,430.65,109.77Z"/><path class="cls-1" d="M430.85,110.62c3.1-.9,6.2-1.8,9.25-2.75-.35-.2-.7-.4-1.1-.6l2.55,8.7c.2-.35.4-.7.6-1.1-2.8.8-5.55,1.7-8.35,2.45-1.45.4-2.65.5-3.65-.95-1-1.6-1.6-4.9.7-5.75,1-.4.6-2.1-.45-1.7-4.5,1.65-3.4,9.3,1,10.45,1.65.45,3.6-.5,5.15-1l6.2-1.8a.88.88,0,0,0,.6-1.1l-2.55-8.7a.88.88,0,0,0-1.1-.6c-3.1.9-6.2,1.8-9.25,2.75A.85.85,0,1,0,430.85,110.62Z"/><path class="cls-1" d="M450.8,112.87l-8.45,2.5-2.35-8,8.45-2.5C452.45,103.77,454.75,111.67,450.8,112.87Z"/><path class="cls-1" d="M450.7,112.42c-2.8.85-5.65,1.65-8.45,2.5l.55.3c-.8-2.65-1.55-5.3-2.35-8-.1.2-.2.35-.3.55,2.55-.75,5.05-1.55,7.6-2.25,1.5-.4,2.7-.4,3.75,1.05,1.15,1.7,1.55,4.95-.8,5.8-.55.2-.3,1,.25.85,3.75-1.4,2.75-7.85-.9-8.8-1.4-.35-3.15.45-4.5.85L439.9,107a.43.43,0,0,0-.3.55c.8,2.65,1.55,5.3,2.35,8a.43.43,0,0,0,.55.3c2.8-.85,5.65-1.65,8.45-2.5C451.45,113.12,451.2,112.27,450.7,112.42Z"/><path class="cls-1" d="M439.65,110.07,431,112.62a.79.79,0,0,0,.25.85L440,111l.25,0-.25-1Z"/><path class="cls-1" d="M439.6,110,431,112.52a.11.11,0,0,0-.1.1c0,.6-.1.4.25.9a.15.15,0,0,0,.1,0c3-.85,5.95-1.65,8.95-2.5.05,0,.1-.1.1-.15a5.27,5.27,0,0,1-.25-1s-.1-.1-.15-.1a.38.38,0,0,1-.25.1c-.15,0-.1.25,0,.2s.4.55.35.7a1.18,1.18,0,0,1-.4.1,10.27,10.27,0,0,1-2.5.7l-3.3.9a8.72,8.72,0,0,1-2.4.7c-.95-.2,0-.65.4-.8l3-.9c1.6-.5,3.25-.95,4.85-1.45C439.8,110.17,439.75,109.92,439.6,110Z"/><path class="cls-1" d="M450,107.17l-8.45,2.4.25,1,8.45-2.5A.76.76,0,0,0,450,107.17Z"/><path class="cls-1" d="M450,107.07l-8.45,2.4c-.05,0-.1.1-.1.15.1.3.15.6.25.95,0,.05.1.1.15.1,2.8-.85,5.65-1.65,8.45-2.5a.11.11,0,0,0,.1-.1c0-.6.1-.4-.25-.9-.1-.1-.25,0-.2.1.65,1-.4.85-1.15,1.1l-3.1.9c-.95.3-1.85.55-2.8.85a2.67,2.67,0,0,1-.9.25c-.25-.05-.05.2-.2-.35-.1-.35-.15-.25-.05-.35s.65-.2.8-.25c1-.3,1.95-.55,2.95-.85,1.5-.45,3.05-.85,4.55-1.3C450.2,107.22,450.15,107,450,107.07Z"/></g></g></svg>