<svg xmlns="http://www.w3.org/2000/svg" viewBox="0 0 833.78 660.06"><defs><style>.cls-1{fill:#81c6d8;}.cls-2{fill:#38301f;}.cls-3{fill:#979b3d;stroke:#38301f;stroke-miterlimit:10;}.cls-4{fill:#a5c08a;}.cls-5{fill:#ad968a;}.cls-6{fill:#723a29;}.cls-7{fill:#a34928;}.cls-8{fill:#eae3ca;}.cls-9{fill:#ca7529;}</style></defs><title>plant</title><g id="Layer_2" data-name="Layer 2"><g id="Plant"><path class="cls-1" d="M798.84,89.72C779.72,48.65,755.94,24.4,738,5.88L74.26,9.93c-22.1,34.13-64,109.15-68.79,212.79C2.72,281.43,10.33,382.27,77,478.62c60.5,87.43,139.39,127.43,176.1,143.08,23.54,10,167.78,68.84,320.1,1.83,75.72-33.3,120.41-83.16,144-110.06,25.28-28.82,89.58-104.11,106.4-221C828.76,256.59,839.21,176.45,798.84,89.72Z"/><path class="cls-2" d="M803.16,87.2c-12.51-26.62-29.35-50.47-49.33-72-3.78-4.07-7.54-8.25-11.56-12.09A6.67,6.67,0,0,0,737.79.88c-.91-.09-1.87,0-2.78,0l-39.46.25-75.87.46L519,2.21,406.62,2.9l-112.94.69L193.35,4.2,117,4.67,77.3,4.91c-.92,0-1.89-.08-2.8,0-5.15.54-8,7.81-10.46,11.85A436.3,436.3,0,0,0,0,239.15c-.45,53.54,8.76,107.41,28,157.41A407,407,0,0,0,139.54,556.1a418.62,418.62,0,0,0,109.14,69.1,427,427,0,0,0,96,28.25c60.3,10.52,122.79,8.9,181.85-7.82,59.75-16.92,114.23-48.9,159.17-91.61a557,557,0,0,0,69.07-79.53c30.56-42.81,53.53-91.13,66.17-142.24,12-48.67,16.39-100.61,9.77-150.39A329,329,0,0,0,803.16,87.2c-2.7-5.84-11.32-.76-8.64,5C820.9,149.39,828.16,212.39,821,274.53c-6.6,57-24,111.56-53,161.13-19.21,32.89-43,62.59-68.83,90.44-41,44.19-90.59,79.65-147.33,100.74-63,23.43-131.68,28.6-197.92,18.07a449.77,449.77,0,0,1-67.61-16.19q-10.74-3.47-21.29-7.54c-2.47-1-4.92-1.95-7.37-3l-1.3-.54c-.87-.36.77.33-.27-.11l-4.65-2a410.65,410.65,0,0,1-118.81-79.35A397.17,397.17,0,0,1,26.08,359.15a422.15,422.15,0,0,1,39.33-325q6.27-11,13.16-21.7l-4.31,2.48,66.36-.41,158.29-1,191.84-1.17,165.77-1L711,11c8.42,0,17.5.87,25.87-.16a10.84,10.84,0,0,1,1.14,0l-3.54-1.47C744.72,20,754.87,30.71,764,42.32a258,258,0,0,1,30.52,49.93C797.26,98.07,805.88,93,803.16,87.2Z"/><rect class="cls-3" x="291.65" y="119.48" width="233.58" height="209.48"/><path class="cls-2" d="M770.41,83.88c-17.78-41.07-30.36-59.48-47.06-78L108.22,9.46c-20.54,34.13-66.49,85.4-71,189-2.55,58.71-12.15,141,49.87,237.4,56.27,87.42,146.3,145.93,180.44,161.59,21.89,10,156,68.83,297.69,1.83,70.41-33.31,115.12-77.9,137.06-104.79C725.8,465.7,790.59,386,798.09,268.2,800.39,232.12,808,170.6,770.41,83.88Z"/><path class="cls-2" d="M772.57,82.61C762.34,59.09,751,35.93,735,15.73c-2.83-3.56-6.11-9-9.87-11.62a4.38,4.38,0,0,0-2-.73,17.45,17.45,0,0,0-2.8,0L681,3.62,606,4.06l-98,.57L399.3,5.26l-106.8.63-92.44.53-65.57.39-18.81.11c-2.31,0-5.11-.41-7.4,0s-2.8,2.21-3.89,4c-1.89,3-3.84,6-5.8,9-4.45,6.74-9,13.43-13.32,20.23A339.08,339.08,0,0,0,57.08,93.3a297.23,297.23,0,0,0-19.84,75.8c-3.05,23.64-3.75,47.84-4.38,71.66-1.41,53.05,6.31,105.16,28.59,153.69,25,54.51,64.82,101.46,110,140.47,28.86,25,60.85,49.22,95.76,65.12a376,376,0,0,0,95.53,28.42c58.36,9.47,118.76,5.4,174.53-14.79,53.67-19.44,103.65-52,144-92.32,23.37-23.29,43.92-50.13,61.4-78.06,27.39-43.78,46.73-92.71,54.54-143.85,3.18-20.79,4.55-42.05,5.32-63.07a341.7,341.7,0,0,0-4-67.32c-4.86-29.83-14-58.71-25.94-86.44-1.27-2.94-5.58-.4-4.32,2.53,13.42,31.21,23.18,64.11,27.23,97.9,2.71,22.58,2.73,45.27,1.29,67.94-1.77,27.69-4.58,55-11.52,82a374.73,374.73,0,0,1-30.92,80A443.54,443.54,0,0,1,689,506c-40.66,44.46-93.16,80.33-149.58,101.5-60.68,22.77-127,26.19-190.3,13.4-31.94-6.45-64.24-16.32-93-32-43.91-24-84-56.65-118.32-92.88C91.65,447.26,55.93,388.2,43.37,321.57c-4.95-26.24-6.2-52.95-5.54-79.61.65-26.41,1.36-53.35,5.34-79.48A290.24,290.24,0,0,1,67.08,82.91c8.75-18.64,19.6-36.06,31-53.17,4.18-6.29,8.41-12.56,12.32-19L108.22,12l69.44-.41L341,10.6,530.71,9.5l148.64-.87,37.93-.22c1.52,0,4.57-.64,6,0,.7.3-4.91-4.21-.95.08,1.47,1.6,2.89,3.27,4.3,4.93,2.94,3.45,5.78,7,8.47,10.64A219.52,219.52,0,0,1,751,49.12c6.4,11.69,12,23.8,17.29,36C769.53,88.08,773.84,85.54,772.57,82.61Z"/><path class="cls-4" d="M370.51,215.84c4.07,2,16-5.47,21.55-17.89,4.68-10.43,4.19-20.15,7.8-20.63,2.11-.28,2.81,3,6.42,5.5,7.33,5.17,14.43-1.1,27.06,0,3.68.32,3.24.87,26.6,10.55,15.93,6.6,18,11.23,18.43,10.57,1.32-2-12.22-17.38-21.64-24.33-14-10.3-21-15.45-32.11-17.43-4.71-.83-17-2.84-29.8,3.67-17.66,9-22.37,27.26-23.85,33C370.71,199.87,366.08,213.71,370.51,215.84Z"/><path class="cls-2" d="M369.85,218.25c9.18,3.37,19.86-10.36,23.34-16.94a53.75,53.75,0,0,0,4.19-11c.59-2.19.81-8,2.52-9.57.84-.75.56-.17,1.55,1a18.93,18.93,0,0,0,3.32,3.13,13.62,13.62,0,0,0,6.54,2.51c8.39.93,17.07-4,25-1.23,3.4,1.2,6.67,2.83,10,4.25,7.14,3.06,14.53,5.73,21.37,9.43,1.81,1,13.29,11.26,13.3,3.65,0-3.44-4-7.25-6-9.65a108.65,108.65,0,0,0-13.64-13.66c-9.69-8.06-21.11-16.9-33.63-19.82s-26.26-1.73-37.38,5.28c-10.42,6.56-17.17,17.23-20.7,28.84-1.9,6.24-7.23,19.11-.37,23.62,2.69,1.77,5.2-2.56,2.52-4.32-3.28-2.16,1.88-15.59,3-19.08,3.21-9.92,9.11-19.11,18.06-24.75,10.46-6.58,23.5-7.57,35.26-4.32,11.22,3.1,22,11.45,30.67,18.91a113.11,113.11,0,0,1,11.87,11.91,49,49,0,0,1,4.18,5.35c.2.31.74,1.64,1,1.77.74.34,3.61-.92,3.33-1.85-.59-2-6.32-4.67-7.9-5.57-5.86-3.33-12.2-5.7-18.4-8.32-5.41-2.28-11-5.5-16.72-7-8.15-2.1-15.84,2.2-23.83,1.62-3.68-.27-5.72-2.61-8.07-5.14-1.21-1.32-2.47-2.52-4.41-2.42-4.09.2-5.14,5.29-5.91,8.42-2,8.08-4.12,15.92-9.72,22.33-2.45,2.81-8.68,9.46-13.06,7.86C368.15,212.32,366.84,217.15,369.85,218.25Z"/><path class="cls-4" d="M367.76,251.61c.17,0-3.91,13.66,2.29,27.06,6.8,14.7,20.72,20,25.68,22,4,1.61,29.25,4.55,39.44-1.38,7.22-4.19,7.34-5.05,12.84-5,6.78,0,14.71,4.32,15.14,9.17.64,7.41-16.39,14.19-23.39,17a69.83,69.83,0,0,1-25.68,5.5c-8.58.15-18.44.31-27.52-5.5-12.27-7.86-15.65-21.86-18.34-33C363.45,267.61,367.57,251.6,367.76,251.61Z"/><path class="cls-2" d="M365.26,251.61a16.72,16.72,0,0,0-.53,2.74c-.26,1.7-.45,3.4-.55,5.11a43.19,43.19,0,0,0,2.71,18.12,42.36,42.36,0,0,0,17.8,20.54c12.17,7.38,27,8.51,40.94,6.58a32.08,32.08,0,0,0,10.8-3.24c3.94-2.08,6.93-4.82,11.58-4.7,4,.1,15.39,3.25,11.79,9.3-2.36,4-8.41,6.5-12.36,8.37-7.95,3.77-16.43,7-25.17,8.32-12.37,1.83-27.64,1.72-37.59-6.84-9.34-8-12.65-21.33-14.87-33a81,81,0,0,1-1.13-21.48,58.67,58.67,0,0,1,.78-6.2c.11-.6.89-3.1.46-2.39,1.68-2.75-2.64-5.26-4.32-2.52-1.07,1.74-1.14,4.48-1.41,6.42a82,82,0,0,0-.61,16.27c.72,11.78,3.52,24.68,9,35.22,11.95,23.09,41.91,23.8,63.79,16.09,8.28-2.91,17.38-6.31,24.19-12,8-6.65,5.13-14.95-4-18.8-4.09-1.73-9.18-2.52-13.53-1.33s-7.8,4.73-12.13,6.19c-9.11,3.09-20.34,2.34-29.72.89-8.43-1.31-16.7-6.23-22.52-12.35a35.26,35.26,0,0,1-9.53-22.57c-.22-4.39,1.07-8.54,1.1-12.81C370.28,248.39,365.28,248.39,365.26,251.61Z"/><path class="cls-4" d="M457.64,337.19c1.46,2.93,5.6,2.69,8.86,2.51,6.54-.37,13,1.24,19.58,1.19a57.9,57.9,0,0,0,13.27-1.9c9.24-2.24,18.35-5.67,25.93-11.41s13.56-14,15.2-23.36a54.58,54.58,0,0,0,.59-9.65,101.49,101.49,0,0,0-1.7-19.54c-2.28-11.26-7.38-21.72-12.44-32-.29-.59-.7-1.26-1.35-1.27a1.7,1.7,0,0,0-1.06.48c-3,2.42-5,5.89-6.56,9.41A70.1,70.1,0,0,0,511.77,278c-.19,5.52.26,11.08-.56,16.54A40,40,0,0,1,500,316.27c-10.44,10.67-25.35,15.42-39.63,19.79"/><path class="cls-2" d="M455.48,338.45c1.79,2.57,4.07,3.56,7.17,3.81,5.42.42,10.85.16,16.3.7,10.82,1.07,21.37-.95,31.53-4.72,17.62-6.54,32.28-20.07,33-39.8a94.08,94.08,0,0,0-4.08-32.81,131.22,131.22,0,0,0-5.27-13.24c-1.56-3.44-3.34-10.16-6.53-12.41-6.49-4.59-12.75,12.13-14.15,16-4,11-3.87,21.6-4.32,33.05-1.08,27.39-26.94,37.71-49.43,44.61-3.07.94-1.76,5.77,1.33,4.82,18.26-5.6,38.31-12.41,48-30.27,5.12-9.39,4.86-18.91,5.13-29.29a68.48,68.48,0,0,1,2.92-18.14c1.58-5.2,4.22-14.39,9.67-16.9h-2.53c1.76.92,3.19,6,4,7.75,1.59,3.36,3.12,6.76,4.46,10.23a80.51,80.51,0,0,1,5,18.8c1.68,13.08,2,27.09-6.67,37.86-7.65,9.52-19.22,14.68-30.79,17.66A59.9,59.9,0,0,1,479,338c-3-.29-5.91-.7-8.89-.79-2.47-.07-8.58,1.17-10.26-1.25-1.83-2.62-6.16-.12-4.32,2.53Z"/><path class="cls-4" d="M625.53,243.47c-.84-7.94-3.2-15.86-7.89-22.32a61.81,61.81,0,0,0-8.14-8.75c-12.7-11.8-27.65-22.69-44.92-24.26,2.46,6.67,7.42,12.06,11.76,17.69,13,16.88,21.48,37.67,38.22,50.82a3.68,3.68,0,0,1,1.45,1.71,3.51,3.51,0,0,1-.39,2.29,191.67,191.67,0,0,1-10.46,21.41,225.64,225.64,0,0,1-30.63,41.33l-.25.34,5.61,7.7A191.72,191.72,0,0,0,619,285.77a42.58,42.58,0,0,0,4-7.84,45,45,0,0,0,2-10.56C625.74,259.42,626.36,251.41,625.53,243.47Z"/><path class="cls-2" d="M628,243.47c-.93-7.8-2.91-15.53-7.26-22.18-4.24-6.46-10.36-11.7-16.25-16.62-11.61-9.67-24.68-17.38-39.94-19a2.51,2.51,0,0,0-2.41,3.16c2.45,6.11,6.33,11.09,10.36,16.21A192.89,192.89,0,0,1,583.9,221.3c6.77,10.66,13.2,21.76,22,30.89,1.91,2,5.5,4,6.86,6.23s-2.72,8.72-3.82,11a196.85,196.85,0,0,1-11.49,20.49,215,215,0,0,1-13.11,18.23c-3.9,4.87-8.61,9.28-12.25,14.32a2.43,2.43,0,0,0,0,2.52l5.61,7.71a2.56,2.56,0,0,0,3.93.5,196.74,196.74,0,0,0,34.79-38.93c4.83-7.13,9.26-14,10.49-22.67A121.52,121.52,0,0,0,628,243.47c-.29-3.18-5.3-3.21-5,0a122.55,122.55,0,0,1-.78,25.68c-1.11,9.27-5.89,16.5-11.09,24a191.93,191.93,0,0,1-33,36.5l3.93.5-5.61-7.7V325c4.06-5.63,9.37-10.58,13.67-16.09,4.5-5.78,8.74-11.76,12.64-18a191.31,191.31,0,0,0,11.32-20.64c2-4.23,6.79-10.85,2.69-15-4.92-5-10-9.22-14.35-14.94-4.07-5.41-7.67-11.16-11.26-16.89s-7.21-11.53-11.25-17c-4.55-6.15-10-11.77-12.9-19l-2.42,3.17c13.8,1.49,25.93,8.84,36.4,17.57,5.11,4.26,10.56,8.8,14.5,14.2,4.49,6.16,6.65,13.58,7.55,21.06C623.4,246.63,628.41,246.66,628,243.47Z"/><path class="cls-4" d="M496.46,362.13c.66-2.36,2.7-4.84,2.9-7.29C498.93,357.24,496.92,359.72,496.46,362.13Z"/><path class="cls-2" d="M498.87,362.79c.87-2.77,2.62-5,3-8,.34-2.79-4.33-3.4-4.91-.66-.55,2.57-2.31,4.7-2.9,7.28-.72,3.13,4.1,4.47,4.82,1.33.58-2.57,2.34-4.69,2.9-7.29l-4.91-.66a10,10,0,0,1-1.27,3.06,24.37,24.37,0,0,0-1.54,3.56C493.08,364.54,497.91,365.86,498.87,362.79Z"/><path class="cls-4" d="M486.47,380c-6.2,7-14.18,12.19-22.67,16.06-9.32,4.26-19.34,7-28.29,12a18.13,18.13,0,0,0-5.43,4.15c-3.69,4.54-3.05,11.09-2.22,16.88l-1.35,2.2a4.94,4.94,0,0,0-.31,4.63c17.21-7.4,34.54-15.67,47.77-28.93,2.15-2.16,4.18-4.43,6.14-6.76a76.57,76.57,0,0,0,5.66-7.52c5.9-9.13,8.62-19.81,10.69-30.55A46,46,0,0,1,486.47,380Z"/><path class="cls-2" d="M484.71,378.21a68,68,0,0,1-22.17,15.67c-9,4.14-18.72,6.8-27.49,11.56-6.32,3.42-10,8.08-10.31,15.45-.12,3,.88,6.3.06,8.39-1.07,2.68-1.94,4.3-1,7.27a2.54,2.54,0,0,0,3.67,1.49c16.55-7.13,33.19-15,46.45-27.54,6.61-6.24,12.89-13.58,17-21.75s6.24-17.05,8-26c.61-3.13-3.88-4.44-4.82-1.33a45.93,45.93,0,0,1-9.34,16.75c-2.1,2.42,1.43,6,3.53,3.53a51.67,51.67,0,0,0,10.63-18.95l-4.82-1.33c-1.71,8.74-3.75,17.57-7.87,25.53s-10.41,15.1-17.06,21.13c-12.72,11.53-28.57,18.87-44.18,25.61l3.67,1.49c-.85-2.72,1.39-3.84,1.75-6.16.56-3.66-1.17-7.28-.27-11.11,1.87-8,13.43-11.21,20.09-13.78,14.1-5.43,27.63-11.07,38.06-22.43C490.41,379.38,486.89,375.83,484.71,378.21Z"/><path class="cls-4" d="M586.33,353.63l-4.89-19.17a63.6,63.6,0,0,1-.13,16.31,84.8,84.8,0,0,1-3.45,14.4c-5.14,15.91-13.4,30.66-18.76,46.5s-7.63,33.75-.72,49l-.31-6.67a20,20,0,0,1,3.66,14.16l3.87-14a81.69,81.69,0,0,1,4-11.95c3.44-7.6,9.11-14,13.38-21.11A65,65,0,0,0,592,390.75C592.55,378.2,589.43,365.81,586.33,353.63Z"/><path class="cls-2" d="M588.74,353l-4.89-19.17c-.67-2.66-5.21-2.2-4.91.66,4.75,44.46-42.13,82.42-22.72,127.45,1,2.31,4.77,1.09,4.66-1.27l-.31-6.67-4.66,1.26a19.13,19.13,0,0,1,3.32,12.9c-.23,2.86,4.17,3.32,4.91.66,2.83-10.21,4.84-21.26,10.33-30.44,4.95-8.28,11.18-15.51,14.91-24.5,8.35-20.13,4.54-40.51-.64-60.88-.8-3.12-5.62-1.8-4.83,1.33,5.36,21.05,9.18,42.27-1.37,62.44-4.17,8-10.39,14.66-14.4,22.72-4.33,8.7-6.24,18.68-8.82,28l4.91.67a23.56,23.56,0,0,0-4-15.42c-1.29-1.94-4.78-1.37-4.66,1.26l.31,6.67,4.66-1.26c-9.19-21.33-.78-44.61,7.93-64.56,8.43-19.3,17.78-38.73,15.47-60.36l-4.91.67q2.44,9.58,4.88,19.17C584.71,357.41,589.53,356.09,588.74,353Z"/><path class="cls-4" d="M432.76,129.93c13.31-9.16,28-17.63,44.13-18.39a99.85,99.85,0,0,1,16.47,1l27.34,3.25a3.75,3.75,0,0,1,1.75.51c1.71,1.19.48,3.82.45,5.9,0,3,2.75,5.2,5.08,7.14,8.84,7.35,14.36,18.08,17.38,29.18s3.74,22.67,4.45,34.15c.27,4.36,0,9.69-3.81,11.76a2.68,2.68,0,0,1,.28-4"/><path class="cls-2" d="M434,132.09c12.81-8.76,27-17.26,42.87-18,8.1-.41,16.27,1,24.28,2l12.69,1.51c2.51.3,5.64-.23,6.76,2.76.29.78-.22,2.29-.07,3.21.85,5.27,6.86,8.31,10.16,12a55.35,55.35,0,0,1,10.86,19.24,107.2,107.2,0,0,1,4.77,24.6c.36,3.82.62,7.65.85,11.49.23,3.68,1.09,9.1-2.45,11.52l3.42.89-.11-1c2.1-2.42-1.42-6-3.54-3.54-1.89,2.18-2.27,4.57-.67,7a2.52,2.52,0,0,0,3.42.89c6-4.09,5.23-11.31,4.81-17.75-.64-9.77-1.44-19.61-3.82-29.13a68.06,68.06,0,0,0-9.74-22.42,50.62,50.62,0,0,0-7.58-8.7c-1.33-1.2-3.07-2.26-4.17-3.69-1.93-2.52-1-3.43-1-6,0-7.34-9.67-6.18-14.87-6.8-10-1.2-20.24-3-30.37-3.18-18.24-.28-34.43,8.78-49.06,18.78-2.64,1.8-.15,6.14,2.52,4.32Z"/><path class="cls-5" d="M227.21,30.63c-7.61,2.14-15.39,4.36-21.88,8.89a55.57,55.57,0,0,0-7.6,6.62A127.46,127.46,0,0,0,172.6,82.53c15.52-6.09,32.51-7,49.17-7.74a2.21,2.21,0,0,0,1-.22c.62-.37.68-1.23.68-1.95a219.65,219.65,0,0,1,4-41.49Z"/><path class="cls-2" d="M226.88,29.42c-6.07,1.72-12.23,3.46-17.85,6.4-5.89,3.09-10.65,7.68-15.13,12.53A130.41,130.41,0,0,0,171.52,81.9c-.41.88.29,2.26,1.41,1.84a113.28,113.28,0,0,1,29.16-6.47c4.17-.42,8.34-.69,12.52-.91,2.33-.12,7.11.69,9.06-.9s1.07-6.3,1.14-8.53q.18-6.65.76-13.26.74-8.34,2.11-16.6c.36-2.14,1.74-5,.61-7.07-.78-1.41-2.94-.15-2.16,1.26.45.81-.53,3.21-.7,4.21-.37,2.18-.72,4.36-1,6.56q-.69,4.86-1.17,9.75-.63,6.61-.88,13.25a37.18,37.18,0,0,1-.12,5.69q.84,2.75-2.26,2.89l-2.68.12c-15.29.72-30.61,2.12-45,7.59l1.41,1.84a128.86,128.86,0,0,1,20.83-31.78c4.25-4.72,8.77-9.39,14.31-12.59,5.79-3.35,12.33-5.15,18.73-6.95A1.26,1.26,0,0,0,226.88,29.42Z"/><path class="cls-6" d="M192.53,45.89c3.13-2.89,7-6.24,6.33-10.45-.53-3.43-3.88-5.59-6.9-7.3-7.76-4.39-15.79-9-20.8-16.4-.74-1.09-1.54-2.32-2.82-2.61a5.3,5.3,0,0,0-2.62.36,32,32,0,0,1-15.1.8c-4.67-.89-9.21-2.82-14-2.57-3.65.2-7.12,1.68-10.75,2.09a48.33,48.33,0,0,1-9-.31c-3.29-.25-6.73-.26-9.71,1.16-5.89,2.8-8,9.92-10.86,15.75a102.2,102.2,0,0,1-7.45,11.8A215.45,215.45,0,0,0,61,96.5l1-3.42c-2.28,4.36-.8,10,2.66,13.53S73.07,111.7,78,112s9.81-.5,14.68-1.15a90.08,90.08,0,0,1,18.41-.9c4.08.3,8.24,1,12.21,0a29,29,0,0,0,7.38-3.44L158.89,90a50.87,50.87,0,0,0,9.47-6.55c7.27-6.86,9.82-17.23,14.83-25.89A50,50,0,0,1,192.53,45.89Z"/><path class="cls-2" d="M193.41,46.78c3.52-3.25,8.22-7.56,6.33-12.9s-9-7.75-13.31-10.41a57.47,57.47,0,0,1-9.83-7.3c-2.29-2.19-3.8-5.68-6.37-7.46-1.89-1.31-3.57-.73-5.66-.2a32.43,32.43,0,0,1-15.36.2c-3.3-.74-6.51-1.85-9.9-2.15-4.19-.38-7.85,1.06-11.92,1.76-7.23,1.25-15.34-2.22-22,1.93-5.25,3.26-7.23,9.64-9.79,14.9-3.55,7.26-8.77,13.65-13,20.52a219.79,219.79,0,0,0-22.83,50.5l2.41.66,1-3.42c.38-1.32-1.72-2.29-2.29-1-5,11.76,6.5,20.09,17.11,20.81,8.57.59,17.16-1.86,25.71-2.16,7.7-.27,15.81,2.12,23.13-1.07,7.59-3.31,14.77-8.42,21.91-12.6,6.63-3.88,14.13-7.37,19.9-12.52,5.26-4.68,8.22-11.11,11.08-17.41,3.55-7.8,7.45-14.73,13.71-20.72,1.17-1.12-.6-2.88-1.76-1.77-9.16,8.76-12.43,19.83-18.67,30.46-3.62,6.16-8.67,9.92-14.72,13.48-6.36,3.75-12.74,7.45-19.1,11.18s-12.77,8.9-20.21,9.1c-7,.18-13.77-.91-20.79-.26-6.7.63-13.44,2.27-20.19,1.79-8.44-.6-19.21-7.06-14.95-17.05l-2.28-1-1,3.42a1.25,1.25,0,0,0,2.41.66A217.19,217.19,0,0,1,84.28,47.68c4.49-7.34,10-14.13,13.77-21.91,1.44-3,2.61-6.14,4.42-8.94,3.23-5,7.89-6.43,13.64-6.13,4,.22,7.93.77,11.94,0,5.54-1,9.58-2.2,15.29-1,4.13.92,8.06,2.18,12.33,2.3a34.46,34.46,0,0,0,5.08-.27c1.59-.2,3.76-1.18,5.31-1.11,4.09.18,6.6,5.25,9.33,7.78a61,61,0,0,0,9.1,6.73c3,1.87,6.22,3.39,9.11,5.39,6.91,4.76,2.69,10.12-1.95,14.41C190.46,46.1,192.23,47.87,193.41,46.78Z"/><path class="cls-7" d="M71.5,131c8.78-3.27,18.17-1,27.06,1.15,8.31,2,14.5,3.5,18.8,8.71,6.12,7.4,4.59,17.67,3.21,26.14-1.71,10.52-5.44,33.39-26.14,46.32-13.78,8.6-26.72,7.58-47.23,6-3.17-.25-5.23-.56-7.11-2.06-10.88-8.7,3.38-41.76,8.71-54.12C56.85,144.44,61.17,134.85,71.5,131Z"/><path class="cls-2" d="M71.84,132.2C83,128.51,97,132,107.85,136c13,4.82,13.6,17.31,11.75,29.22-2.26,14.52-6.3,29-16.88,39.84C87.64,220.46,67.19,220.18,47.2,218c-9.57-1-10.53-8.5-9.54-16.69,1-7.87,3.52-15.58,6.27-23,3.21-8.67,6.91-17.22,10.8-25.61,3.82-8.23,8.19-17,17.11-20.55,1.47-.58.83-3-.67-2.41-7.73,3.07-12.34,9.33-16.07,16.52a284.26,284.26,0,0,0-11.91,27C39.77,182,36.58,191,35.3,200.23c-.8,5.89-1.18,14,4.16,18.06,3.91,3,10.07,2.44,14.68,2.77a134.77,134.77,0,0,0,17.86.42,48.86,48.86,0,0,0,27.08-9.87c15-11.44,20.52-29.27,23.15-47.16,1.65-11.2,1-23.64-10.32-29.41-5.63-2.86-12.29-4-18.4-5.36-7.5-1.61-14.94-2.33-22.34.11C69.65,130.29,70.3,132.71,71.84,132.2Z"/><path class="cls-6" d="M134.1,184.43c-6.07,0-10.31,3.54-18.8,10.54-5,4.11-19.71,16.26-16.74,24.08,1,2.57,2.74,1.69,6.42,6,1.77,2.05,7.09,8.9,6.42,17.2-.39,4.82-2.5,6.33-1.37,8.25,1.9,3.26,10.37,3.1,17,.46,3.73-1.49,8.16-4.28,24.08-30,5.64-9.11,6.38-10.86,6.42-13.52C157.66,196.49,146,184.33,134.1,184.43Z"/><path class="cls-2" d="M134.1,183.18c-7.9.33-13.9,6.12-19.68,10.91-5.41,4.47-11,9.22-14.82,15.2-2.68,4.23-4.21,9.5.2,13a26.82,26.82,0,0,1,7.93,9,21.3,21.3,0,0,1,2.35,7.86c.29,3.23-.91,5.76-1.42,8.78-1.77,10.34,18,5.58,22.79,1.79,3.6-2.85,6.39-6.79,9.05-10.48a228.72,228.72,0,0,0,16-25c7.72-14.35-7.95-30.62-22.37-31.07-1.61-.05-1.61,2.45,0,2.5,8.92.27,17.06,6.51,20.58,14.6,2.5,5.77,1.49,9.56-1.47,14.66-6.15,10.59-12.77,22.55-21.56,31.26a16.19,16.19,0,0,1-4.8,3.44,23.86,23.86,0,0,1-10.76,2c-6.37-.39-4.47-3.25-3.68-7.58,1.15-6.34-1.23-12.8-4.94-17.88-3-4.12-9.45-6.29-7.52-12.08,2.16-6.47,8.66-11.81,13.69-16.1,5.78-4.93,12.41-12,20.46-12.3C135.71,185.61,135.71,183.11,134.1,183.18Z"/><path class="cls-5" d="M39.86,238.08c4.53-9,12.71-13.26,17.2-15.59,10.69-5.54,31.05-11.17,39.67-2.29,6.63,6.83.87,16.66,10.09,25.91,3.74,3.76,6.4,3.84,8.94,8.25,3.66,6.36,2.37,13.51,1.6,17.43-2.1,10.77-8.2,17.8-14,24.3-2.7,3-9.18,8.11-22,18.12S65,326.57,59.81,326.36c-7.25-.29-12.45-5.55-13.76-6.88-9-9.12-4.67-18.64-7.57-54.57C37.37,251.1,36.16,245.46,39.86,238.08Z"/><path class="cls-2" d="M40.94,238.71c5-9.34,14.39-14.82,24.1-18.32,8.71-3.14,23.34-7.09,30.8.69,3.8,4,3.24,9.73,4.25,14.74a21.78,21.78,0,0,0,7,12.3c1.91,1.68,4.3,2.83,6,4.74a16.65,16.65,0,0,1,3.8,10.41,37.32,37.32,0,0,1-4.4,18.43c-4,7.69-10.17,14.14-16.84,19.61-8.58,7-17.27,14.39-26.57,20.45-7.59,4.95-15.29,3.71-21.87-2.82-4-4-5.42-8.73-5.89-14.23-.82-9.66-.44-19.44-.94-29.13-.37-7.25-1.15-14.45-1.64-21.69-.35-5.3-.19-10.29,2.14-15.18.69-1.44-1.47-2.71-2.16-1.26-5,10.44-1.78,22.85-1.08,33.89s.26,22.29,1.18,33.37c.48,5.69,1.87,10.89,5.82,15.17,5.09,5.51,13.15,9.64,20.62,6.79,4.36-1.67,8.18-4.86,11.84-7.65,5.59-4.25,11.11-8.59,16.6-12.95,7.68-6.11,14.76-12.62,19.84-21.16,5.38-9,9.18-23.53,2.19-32.75-1.63-2.15-3.82-3.42-5.9-5.06a19.41,19.41,0,0,1-7.25-11.29c-1.14-5.13-.63-10.84-4-15.25-7.1-9.38-22.31-6.46-31.82-3.42-11.19,3.56-22.34,9.65-28.07,20.31C38,238.87,40.18,240.13,40.94,238.71Z"/><path class="cls-7" d="M68.52,328.65a34.62,34.62,0,0,0-3.21,19c.4,3.16,2,16.22,10.32,18.8,7.7,2.39,16-5.87,16.74-6.65,6.3-6.44,3.43-11,9.86-17.43,5.59-5.56,9.8-4.14,12.61-9.4,3.44-6.44-.06-13.86-.23-14.21-4.56-9.34-16.45-10.25-17.65-10.32C83.48,307.65,72.88,319.63,68.52,328.65Z"/><path class="cls-2" d="M67.44,328c-4.65,9.89-5,22.5.07,32.37,5.79,11.27,17.86,8.22,25.55.53,6-6.06,5.49-15.09,13.11-20.1,5.47-3.59,10.43-4.81,11.32-12.32,1.33-11.31-7.64-19.3-18.09-21-14.06-2.27-26.07,8.76-32,20.5-.72,1.44,1.44,2.71,2.16,1.27C75.39,317.74,87.24,307,101,310.38c5.87,1.44,11.26,4.89,13.21,10.85,1.59,4.85,1.31,11.1-3.28,14.24-2.6,1.79-5.6,2.65-8.09,4.71-6.22,5.15-6,13.22-11.35,18.78-4.1,4.23-11.3,8.92-17.16,5.6-5-2.82-6.63-9.65-7.49-14.89a34.5,34.5,0,0,1,2.76-20.38C70.28,327.84,68.13,326.57,67.44,328Z"/><path class="cls-6" d="M89.16,379.1c5.66,7.32,22.68,3.29,32.79-1.83,5.09-2.59,10.64-5.4,14-11.93,5-9.67,1.05-19.62-.23-22.47-3.11-6.88-10.22-15.12-15.37-13.76-3.47.93-2.74,5.36-8.48,14.22a76.49,76.49,0,0,1-11.92,13.76c-7.77,7.52-12,9.26-12.61,14.44A10.75,10.75,0,0,0,89.16,379.1Z"/><path class="cls-2" d="M88.28,380c7.18,8.21,22.16,3.58,30.54.09,12.07-5,22.05-13.51,20.68-27.8-.83-8.59-7.13-23.1-16.94-24.46-3.47-.48-5.17,1.51-6.51,4.39-3.44,7.38-7,13.77-12.71,19.75-7,7.34-22.9,15.67-15.26,27.78.86,1.36,3,.11,2.16-1.26-3.74-5.93-.84-10.28,3.69-14.29,5-4.47,10.15-8.95,14.49-14.14a61.78,61.78,0,0,0,9.36-15.54c1.07-2.5,1.77-4.86,5.11-4.07s6.61,4.82,8.53,7.53c8.7,12.27,7.31,28.59-6.54,36.36-8.29,4.65-26.89,13-34.84,3.9C89,377,87.22,378.78,88.28,380Z"/><path class="cls-5" d="M123.1,383.23c-14.45-4.51-27.84-8.69-38.07-2.07-5.11,3.31-9.57,9.4-10.09,16.06-.45,5.78,2.23,10.25,7.34,18.8,4.54,7.58,5.78,7.14,10.09,14.44,6.16,10.45,5.06,13.79,8.71,15.37,5.15,2.21,8-4.11,22.47-8.49,9.52-2.88,13.41-1.69,19.49-6.19,2.25-1.66,2.26-2.22,8-8.94,11.48-13.38,14.07-14.2,13.76-17.2-.23-2.21-2-4.73-22.93-14C132,386.63,127,384.44,123.1,383.23Z"/><path class="cls-2" d="M123.43,382c-11.09-3.45-24.69-8.59-36.11-3.5-8.24,3.68-14.79,13-13.5,22.22,1.33,9.6,8.81,18.07,14.38,25.62A67.5,67.5,0,0,1,96,440.61c1,2.27,1.69,4.71,3.93,6,5.09,3,11.09-2.62,15.39-4.74a68.77,68.77,0,0,1,17.33-5.39c4.3-.84,8.3-2,11.75-4.82a44.76,44.76,0,0,0,5.43-6.07c3.72-4.44,7.6-8.74,11.55-13,2.1-2.25,5.55-5,4.57-8.55-1.15-4.12-7.41-6.55-10.73-8.24-10.14-5.16-20.91-10.34-31.77-13.84-1.54-.49-2.19,1.92-.67,2.41,8,2.59,15.82,6.4,23.49,9.91,5,2.28,12.4,4.68,16.22,8.91,1.83,2,.92,3.39-.76,5.34-5.21,6-10.75,11.77-15.87,17.91-4.26,5.12-9.36,6.68-15.76,8-8.5,1.7-15.48,5.12-23,9.16-6.55,3.52-7.76-1.83-10-6.92-3.56-7.92-9.19-14-13.66-21.31-2.92-4.76-6.76-10.18-7.18-15.92-.45-6,2.95-11.93,7.44-15.71,11-9.28,27.12-3.07,39.14.67C124.3,384.91,125,382.5,123.43,382Z"/><path class="cls-7" d="M168,408.45c-4.22.67-10.6,1.7-12.38,2.29-5.7,1.92-6.49,13.62-8.26,31-3,29.67-4.51,32.87-1.6,40.81,1.56,4.27,5.16,14.1,14.9,19.27,14.47,7.67,30.59-1.22,33.25-2.76,11-6.35,15.49-16.23,19.26-24.53,4.45-9.8,10-22,5-31.87-4.47-9-11.65-4.31-24.77-16.74C185.16,418,178.67,407.21,171,408,170.71,408,169.82,408.17,168,408.45Z"/><path class="cls-2" d="M167.71,407.25c-8.09,1.29-15.32,1-18.06,9.7-3.56,11.35-3.4,24.3-4.7,36-.82,7.38-2.37,15.11-1.93,22.56.32,5.35,2.53,10.74,5.15,15.35,10.64,18.69,34.57,18.6,50.4,6.56,8.39-6.39,12.84-15.78,17-25.19s9.37-22.28,2.75-32c-1.8-2.65-4.32-4.08-7.23-5.28-6.3-2.59-11.67-5.22-16.73-10s-9.32-11.09-15.09-15.35c-3.82-2.8-7.06-3.11-11.57-2.39-1.59.25-.92,2.66.66,2.41,10.86-1.74,17.31,10.55,24.24,17.1a44.22,44.22,0,0,0,11.17,7.91c2.79,1.34,5.87,2.12,8.59,3.59,10.26,5.52,6.27,20,2.84,28.56-3.62,9-7.72,18.82-14.76,25.72-14.06,13.78-39.39,15.94-50.12-2.91-5.58-9.81-4.93-18.4-3.71-29.25,1.34-11.95,2.1-24.05,4-35.92.55-3.48,1-8.85,3.79-11.43,3.07-2.88,10.08-2.75,14-3.37C170,409.4,169.28,407,167.71,407.25Z"/><path class="cls-6" d="M239.35,445.14c-3.8-1.88-11.4,4.87-15.59,10.55-6.33,8.57-3.81,13.26-8.94,24.3-2.28,4.89-8,17.29-19.72,22.47-11.24,5-19.66-.4-25,5.74-4.38,5-2.61,13.18-2.29,14.67,3.14,14.43,17.91,13.8,39.9,34.63,9.82,9.29,12.86,15.1,20.63,15.59,9.83.62,17.62-7.86,19-9.4,7.53-8.2,8.21-18.22,8.48-23.16.43-8-1.41-11.54-6.42-28.44-5.68-19.14-8.52-28.72-9.17-36.45C238.74,457.48,243.52,447.2,239.35,445.14Z"/><path class="cls-2" d="M239.68,443.93c-4.47-1.49-9.13,2.69-12.1,5.53A33.24,33.24,0,0,0,218,465c-3.26,12.52-7.42,25.64-18.57,33.56-7.21,5.13-14.38,4.38-22.61,5.27a11.24,11.24,0,0,0-10,7.64c-2.94,8.23.48,17.83,7,23.17,3.86,3.14,8.31,5.52,12.52,8.15a128.42,128.42,0,0,1,19.7,15c8.57,8,16,20.15,29.49,15.58,10.43-3.54,18.1-13.51,20.42-24,2.15-9.68.56-18.11-2.3-27.41-4.47-14.57-10.41-29.81-12.09-45.07-.86-7.86-.14-15.64.51-23.48.26-3.06,1-7.39-2.16-9.27a1.25,1.25,0,0,0-1.26,2.16c2.57,1.55.78,8.58.56,10.94a100,100,0,0,0-.19,19.26c1,9.54,4.08,18.86,6.78,28,5.82,19.77,16.88,44.06-1.91,60.88-4.62,4.14-11,7.62-17.38,6.28-5.49-1.15-9.34-6.26-13-10.07a152.35,152.35,0,0,0-30.39-23.7c-7.49-4.59-13.91-9.24-14.64-18.66-.25-3.1.05-6.57,1.82-9.22,2.21-3.29,5.81-3.69,9.44-3.79,5.82-.16,11.25-.37,16.62-2.93,9.86-4.71,16.18-14.59,20.28-24.37,2.41-5.74,2.72-12.15,5.3-17.78,2.14-4.68,10.72-16.85,17.05-14.74C240.55,446.86,241.2,444.44,239.68,443.93Z"/><path class="cls-7" d="M337.26,536.4c-1.86-2.42-6.71-3.37-38.52,7.34-16.91,5.69-19.26,7.21-21.33,10.09-7.18,10-2.4,24.57-.68,29.81,1.66,5.08,4.45,13.59,12.38,19.72,6.51,5,16.81,5.48,37.15,6.19,22,.76,25.18-1,26.14-3.21,1.16-2.67-1.41-5.07-6.43-14.22-6.15-11.23-9.23-16.85-9.85-22.7-.58-5.38.79-6.61,1.83-27.06C338.13,538.75,338.15,537.56,337.26,536.4Z"/><path class="cls-2" d="M338.15,535.52c-1.94-2.41-5.6-2-8.3-1.71-10.7,1.3-21.3,5.31-31.44,8.72-6.71,2.26-16.89,4.2-21.65,10.1-6.62,8.2-4.7,20.23-1.83,29.49s7.17,19.23,16.18,24,20.8,4.16,30.57,4.52a205.49,205.49,0,0,0,21.06.15c2.62-.18,5.67-.29,8.09-1.44,4.84-2.31,2.6-6.91.47-10.53a221.2,221.2,0,0,1-11.25-20.69,26.78,26.78,0,0,1-2.79-12.21c.15-3.72.78-7.44,1.11-11.15q.54-6.19.83-12.4c.1-2.26.4-4.59-.86-6.59-.85-1.36-3-.11-2.16,1.26,1.45,2.31.47,6.5.32,9.06s-.35,5.38-.58,8.06c-.28,3.27-.7,6.53-1,9.8a29.07,29.07,0,0,0,2.75,14.91c2.36,5.33,5.28,10.46,8.15,15.53,1.23,2.17,6.81,8.79,5.42,11.51-1.87,3.62-12,2.56-15,2.57-11.65.06-24,.12-35.54-1.94-10.35-1.86-17.11-8.59-21-18.32-3.38-8.4-6.49-18.62-4-27.61,2.24-8.23,8.07-10.21,15.46-12.89,11.47-4.15,23.26-8.32,35.24-10.78,2.54-.52,8-2.2,10.05.35C337.39,538.54,339.15,536.76,338.15,535.52Z"/><path class="cls-5" d="M370.28,521c-3-.25-7.43,3-16.28,9.4-8.06,5.86-12.09,8.79-14.45,13.07-4.26,7.75-2.46,15.88,0,27.06,3.73,16.88,11.56,27.28,13.53,29.8,6,7.69,11,14.11,18.35,14.45,5.27.24,10.16-3.74,19.95-11.69,10.14-8.25,10.06-10.76,18.57-16.28,7.17-4.66,10.33-4.89,10.78-7.57.9-5.45-11.58-8.2-22.93-18.57C379.08,543.6,381.09,521.92,370.28,521Z"/><path class="cls-2" d="M370.28,519.79c-3,0-5.63,1.73-8,3.28-5.39,3.5-10.63,7.38-15.7,11.33-7.14,5.57-11.21,12-10.78,21.35a84.76,84.76,0,0,0,22.92,53.37c5.61,5.87,12.66,9,20.21,4.86,9-4.92,16.7-12.72,23.94-19.83a55.81,55.81,0,0,1,12.07-8.83c2.36-1.31,6.12-2.48,6.94-5.42,1.74-6.26-10.31-10.8-13.95-13.13-12.7-8.13-20.14-19.2-25.85-32.84-2.39-5.7-4.73-13.23-11.78-14.14-1.59-.21-1.58,2.29,0,2.5,6.14.79,8.41,10.08,10.4,14.76,3.2,7.57,7.05,14.78,12.61,20.9,6.46,7.12,14.58,11.2,22.39,16.51,3,2,5.42,4.3,1.54,6.79-3.71,2.36-7.68,4.15-11.22,6.83-6.08,4.6-11.07,10.56-17,15.39-6.42,5.22-14.44,13.47-23.23,8.32-6.35-3.73-11.37-11.08-15.24-17.29a81.72,81.72,0,0,1-10.16-26.1c-2.47-11.27-4-22.16,5.63-30.35,4.46-3.81,9.41-7.16,14.19-10.54,2.77-2,6.5-5.27,10.1-5.22A1.25,1.25,0,0,0,370.28,519.79Z"/><path class="cls-7" d="M422.79,583c-1.09.21-6.33,1.35-9.4,6-2.75,4.12-3.06,10-.69,14,2.54,4.3,6.78,4.16,16.05,7.56,13.45,4.94,12.27,8.07,22.47,11,4.75,1.37,14.12,4.07,24.08.92,10.71-3.39,9.56-9.56,20.18-13.3,11.57-4.09,16.7,1.92,26.14-3.44,1.25-.71,9.68-5.66,10.32-13.53.4-5-2.94-9.08-9.63-17-8.15-9.6-12.23-14.41-16.74-14.67-7-.42-9.41,7.19-24.08,20.4C469.13,592,463,597.59,455.81,597.62,441.86,597.68,436,580.38,422.79,583Z"/><path class="cls-2" d="M422.46,581.74c-9.25,1.94-15.86,12.16-11.15,21.16,1.83,3.5,5,4.85,8.63,6,6.45,2.08,12.9,4,18.71,7.64,8.91,5.53,18.6,9.22,29.35,8.46,5.77-.4,11.53-2.16,15.95-6,5.58-4.83,9.88-9.3,17.79-10.1,5.41-.55,10.88,1.19,16.22-.36a24,24,0,0,0,9.54-5.75c7.91-7.49,6.26-15.48.08-23.28-4.38-5.52-8.93-11.32-14.12-16.1-2.4-2.22-5.16-4.28-8.57-4.23-7.69.12-13.74,10.47-18.46,15.24A166.61,166.61,0,0,1,467,591.64c-5,3.66-10.36,6-16.57,3.8-10.21-3.68-15.89-15.55-28-13.7-1.59.25-.91,2.65.66,2.41,9.74-1.49,15.69,8,23.35,12.2,6.34,3.45,12.9,3.09,19-.63,9.39-5.73,17.89-14.31,25.4-22.25,4.18-4.43,10.35-14.76,17.63-10.76,4,2.19,7,6.43,9.92,9.79,3.9,4.53,8.88,9.22,11.34,14.75,4.43,9.94-8,19.37-16.92,19.52-4.33.07-8.53-.82-12.87-.12a25.76,25.76,0,0,0-12.65,5.66c-4.11,3.52-7,7.12-12.34,8.87-7,2.29-14.44,1.52-21.43-.35-9.41-2.54-16.91-9-26.14-12.17-5.28-1.83-12.75-2.42-14.6-8.7-2.2-7.48,3.14-14.3,10.32-15.81C424.7,583.82,424,581.41,422.46,581.74Z"/><path class="cls-5" d="M551,536.86c-.31,7.07,2.39,9.6,1.15,19.72-.83,6.74-2.58,10.14-.69,14.67,1.56,3.75,5.56,8.13,10.09,8.26,7,.19,7.53-10,17.88-15.59,10.15-5.48,15.58,1.15,27.29-4.36,9.74-4.58,14.61-13.22,16-16,4.82-9.53.83-12.92,3-30.27.89-7.21,3.12-17.26,7.57-37.38,1.32-6,2.84-12.62-.69-16.28-2.53-2.61-5.38-1.36-10.55-2.75-3.29-.88-6.35-2.51-20.86-17.88-9.63-10.19-13-14.42-16.74-13.53-3.36.79-4.91,5.09-5.05,5.5-1.84,5.34,2,9.79,4.13,15.59,2.37,6.59,1.05,13.11-1.61,26.14a105.64,105.64,0,0,1-10.09,29.58C561.18,522.55,551.53,523.77,551,536.86Z"/><path class="cls-2" d="M549.72,536.86a45.41,45.41,0,0,0,.88,8.54,43,43,0,0,1-.34,15c-1.2,6.66-1.23,12.37,4.22,17.26,3.63,3.27,8.71,4.39,12.54.91,6.1-5.52,8.41-13.12,17.44-15.24,7.16-1.67,14.1.89,21.23-1.94A35.19,35.19,0,0,0,621.56,548a27.13,27.13,0,0,0,4.85-12.43c.6-6.52-.36-13.1.27-19.66,1.44-15,6.2-29.46,8.76-44.26.9-5.21,1.32-12.46-4.74-14.67-4.12-1.5-8.45-.66-12.24-3.21-5.16-3.48-9.53-8.52-13.8-13-4.82-5-9.53-11.91-15.6-15.53-3.36-2-6.78-1.15-9.13,2-3.71,5-1.79,10.27.56,15.38,4.48,9.75,2.5,18.52.42,28.72a115.36,115.36,0,0,1-8.48,26.89c-4.18,8.78-9.83,16.1-16,23.49-3.82,4.57-6.3,9.07-6.69,15.11-.1,1.6,2.4,1.6,2.5,0,.37-5.75,3-9.83,6.61-14.11a115.65,115.65,0,0,0,11.37-15.06c7.8-12.92,11.59-27.11,14.34-41.8,1-5.45,2.13-11.2,1-16.73-1.25-6.24-8.24-13.58-4-19.81,4.35-6.42,9.76.92,13.1,4.45,5.36,5.66,10.6,11.45,16.27,16.81,2.4,2.27,4.94,4.75,7.9,6.3,3.41,1.78,7.25,1.12,10.75,2.31,8.29,2.84,1.63,20.32.36,26.1-1.39,6.32-2.8,12.64-4,19a115.37,115.37,0,0,0-2,14.8c-.32,5.34.45,10.72,0,16-1.07,12.68-14.22,24.93-26.64,25.5-6.6.3-12.38-1.14-18.53,2.19a26.6,26.6,0,0,0-8,6.92c-1.81,2.24-3.24,5.16-5.47,7-4.77,3.94-10.82-1.36-12.62-6-1.74-4.49.11-9.26.69-13.83.88-6.94-1.23-13.21-1.1-20A1.25,1.25,0,0,0,549.72,536.86Z"/><path class="cls-6" d="M637,461.65c1.66-3.35,13.79,4.44,29.12,2.29,12.57-1.76,15.84-8.62,27-6.88,2.57.4,8.34,1.3,11.24,5.74,3.15,4.81,1.16,11.11-.92,17.42a63.49,63.49,0,0,1-9.86,18.8c-26.86,33.43-40.29,50.14-52.05,48.62a21,21,0,0,1-15.13-10.32C620.1,525.71,629.74,510,631,508c3.52-5.58,5.39-5.42,12.62-15.6,7.78-11,7.42-13.71,6.87-15.13-1.51-4-6.8-3.68-11.46-10.55C637.48,464.43,636.38,462.81,637,461.65Z"/><path class="cls-2" d="M638,462.28c1-1.41,9,1.51,10.52,1.85a50.15,50.15,0,0,0,17.52,1.06c9.79-1.33,17.75-8.58,27.95-6.72,7.8,1.43,11.87,6.61,10.21,14.61a64.83,64.83,0,0,1-7.6,19.17c-5.32,9.09-12.85,17.06-19.54,25.15-5.89,7.13-11.86,14.35-18.66,20.64-4.09,3.78-9.35,8.35-15.26,8.44s-11.9-3.84-15-8.65c-3.35-5.17-3.06-11.51-1.47-17.23a43.61,43.61,0,0,1,10.38-18.13,98.45,98.45,0,0,0,10.46-13.68c1.72-2.68,3.89-5.84,4.34-9.1a5.77,5.77,0,0,0-1.46-4.9,19.52,19.52,0,0,0-4.35-3.12c-2.39-1.57-8.63-6.17-7.91-9.69.32-1.57-2.09-2.24-2.41-.66-.84,4.07,4,8.76,6.86,11s7.54,3.5,6.64,7.7c-1.19,5.53-6.29,11.37-9.64,15.65-2.55,3.27-5.63,6.09-8.13,9.4-5.05,6.71-8.83,15.95-8.42,24.4.48,10,9.11,19,19.3,19.5,5.88.26,11.08-3.36,15.39-7,8.51-7.16,15.6-16.1,22.64-24.66,7.31-8.9,15.55-17.61,20.68-28,4.32-8.77,11.39-24.82-.08-31.15A23.66,23.66,0,0,0,685.62,456c-6.1,1.26-11.29,5.1-17.44,6.34-8.26,1.67-16.19.09-24.22-1.85-2.48-.6-6.28-2-8.08.57C635,462.34,637.11,463.59,638,462.28Z"/><path class="cls-7" d="M729.82,335.08c3.07-4.17,10.56-3.51,16.51-3,3.87.35,11.62,1.14,18.8,7.11,1.49,1.24,9.74,8.34,10.78,19.49.72,7.75-2.38,13.74-4.36,17.66-16.88,33.43-20.37,51-24.76,50-2.36-.56-1-5.58-4.36-19.26-4.43-18.25-11.2-27.5-7.1-31.88,2.8-3,8.19-1,9.17-3.67.89-2.41-3.22-5.26-6.88-9.63C731,354,725.6,340.81,729.82,335.08Z"/><path class="cls-2" d="M730.71,336c5.54-6.21,21.45-2.67,28,.56a29.73,29.73,0,0,1,14.7,16.58c4,11.46-2.32,21.08-7.09,31-3.67,7.68-7.09,15.48-10.37,23.33-2.1,5-3.88,10.52-6.71,15.22-2.7,4.47-2.81.55-3.25-2.89a132.12,132.12,0,0,0-6.39-26.5c-1.56-4.49-8.19-16.21-.92-18.52,2.28-.72,5.83,0,6.95-2.77s-1.91-5.37-3.53-7.1c-5.79-6.21-17-20.05-11.21-29.21.86-1.37-1.3-2.63-2.16-1.27-4.7,7.46,1,18.47,5.29,24.76a46.1,46.1,0,0,0,3.93,5c2,2.25,7.74,6.25,2.64,7.79-2.91.88-5.84.77-7.27,4-2.48,5.72,2.82,14.79,4.58,20a125.61,125.61,0,0,1,4.72,18c.62,3.47.41,7.75,1.68,11.09,3.6,9.54,11.18-10,12-11.9,4.49-10.77,9.09-21.47,14.23-32,4.84-9.84,9.22-19.17,4.85-30.17A32.25,32.25,0,0,0,756.86,333c-7.39-2.74-22-5.45-27.92,1.18C727.87,335.39,729.63,337.16,730.71,336Z"/><path class="cls-6" d="M690.38,256c7.22-5.63,18.16-4.13,28-2.07,13.45,2.82,23,4.83,37.83,11.93,21.13,10.12,33.1,15.85,37.15,28.43,3.44,10.7.66,24.85-6,27.74-2.8,1.23-4.18-.46-9.41-.45-9.32,0-12.65,5.42-21.55,8.71-8.11,3-21.46,4.47-28.89-1.83-4.87-4.14-2.73-7.81-7.8-22.25-3.45-9.83-6.81-19.39-14.67-28-8.65-9.44-18.56-13.11-17.43-18.57C687.8,258.84,688.28,257.61,690.38,256Z"/><path class="cls-2" d="M691,257.05c9.61-6.82,22.69-2.93,33.21-.63a141.88,141.88,0,0,1,29.59,9.66c15.67,7.26,37.93,15.17,39.64,35.18a30.39,30.39,0,0,1-1.57,13.18c-.83,2.2-2.17,4.9-4.33,6.07s-4.1.32-6.27,0c-8.82-1.2-14.45,3.4-21.9,7.07-8.34,4.12-20.76,6.25-29.15,1.21-6.12-3.68-5.86-11.66-7.64-17.84-3.11-10.77-7.26-22.08-14.31-30.91-3.8-4.77-8.44-8.53-13.18-12.3-3.77-3-8.94-6.49-3.83-10.92,1.21-1.06-.56-2.82-1.77-1.77-6.85,5.95-.29,11.19,4.92,15.32,5.69,4.5,11,9.25,14.91,15.4,3.82,5.94,6.32,12.54,8.65,19.17a143.14,143.14,0,0,1,4.43,16.1c.59,2.63,1.27,5.12,3.11,7.16,6.08,6.76,17.2,6.59,25.32,4.91a43.26,43.26,0,0,0,12.91-5.06c6.41-3.71,11.44-6,19-4.74s11.15-5.34,12.55-11.95c1.81-8.58.48-18.22-4.87-25.33-5.91-7.86-15.5-12.43-24.09-16.69-13-6.43-25.82-11.86-40-15-11.53-2.58-26.06-7-36.62.55C688.45,255.81,689.7,258,691,257.05Z"/><path class="cls-7" d="M711,248.4c9.73-.9,12.39,1.15,28.43,2.29,17.74,1.27,21-.76,22.47-1.83,4.26-3.19,4-6.89,7.34-17.43,4-12.35,5.48-10.7,16-35.31,5.14-12,7.71-18,8.26-20.87,1.53-8.21.32-12.85-6-39.44-6.57-27.8-7.88-33.9-14.22-37.14a20,20,0,0,0-17.66.23c-5.19,2.71-7.5,7.45-11.92,16.51-2.59,5.29-3.88,7.94-3.44,10.31,1.62,8.71,17.46,12.45,21.1,13.3,12,2.84,20.91.62,21.55,3,.41,1.53-3.6,3-8,6.65-3,2.5-6.8,6.43-12.15,17.43-9.2,18.94-6.61,24.92-13.76,38.29-5.62,10.52-12.59,16.86-19.26,22.93-17.18,15.64-34.26,21.59-33.48,23.39C696.78,251.71,701.92,249.24,711,248.4Z"/><path class="cls-2" d="M711,249.65c8.1-.67,16,1.16,24,1.93,7.68.72,17.58,2.28,25.13-.42,4-1.43,6-5,7.25-8.84,2.16-6.82,3.7-13.71,6.86-20.16s6.39-12.5,9.28-18.92c3.78-8.44,8.31-17.19,10.84-26.12,3.42-12.12-1.94-26.26-4.7-37.9-2.41-10.23-4.37-20.79-7.8-30.74-1.35-3.9-3-7.81-6.61-10.16-6.61-4.37-16.72-3.68-22.83,1.25a25.87,25.87,0,0,0-6,7.91c-2.57,4.66-6,10.08-7.12,15.36-3.09,14.09,23.46,18.33,32.47,18.91,2.15.14,4.3.13,6.45.24.33,0,2.89-.05,3,.25.33.7-2.42,2.13-2.73,2.33a39.51,39.51,0,0,0-8.09,6.83c-6.39,7.43-10.68,17.23-13.8,26.44-3.38,9.95-4.86,19.94-10.42,29.09-7.48,12.29-19.48,22.5-31.29,30.45-4.39,3-9,5.62-13.58,8.22-1.48.84-5.3,2.25-6,4.11-.53,1.37.16,2.15,1.47,2.47,1,.24,2.55-.4,3.52-.62A92.31,92.31,0,0,1,711,249.65c1.58-.17,1.6-2.67,0-2.5-3.74.4-8.86.52-12.27,2.21-1.15.57-2.43,1.16-.47.94.94-.11,2.59-1.57,3.47-2.07a175.85,175.85,0,0,0,23.09-15c15-11.94,26.53-25.73,31.29-44.5a111.63,111.63,0,0,1,10.59-27.35,45,45,0,0,1,6.59-9.42c2.79-2.9,6.5-4.56,9.43-7.23,3.61-3.3-.25-5-3.53-5.15-8.14-.51-16-.89-23.82-3.5a31.13,31.13,0,0,1-10-5c-5-4.14-3.83-8-1.34-13.31C748.68,108,753.29,97.34,766,98c15,.79,16.07,19.66,18.74,30.93,2.36,9.91,4.89,19.82,6.89,29.82.95,4.75,1.73,9.56,1.07,14.41-.89,6.56-4.38,12.91-6.95,18.91-3.48,8.12-7.06,16.19-11.13,24a97.38,97.38,0,0,0-6,13.27c-1.88,5.53-2.49,16-8.4,19.06-2.19,1.12-5,1.2-7.38,1.32a120.56,120.56,0,0,1-17-.62c-8.31-.75-16.46-2.69-24.83-2C709.43,247.28,709.41,249.78,711,249.65Z"/><path class="cls-5" d="M701.16,6.72c3.84,1.43,7.5,4.56,14.67,10.78,12.2,10.56,18.3,15.84,22.48,22.93,5.17,8.77,6.34,16.62,7.56,24.76,2.41,16.11-.28,27.86-3,39.67-3.26,14.24-5.87,15.51-7.11,15.82-5,1.28-7.47-8.15-17.88-14.68-16.55-10.37-32.45-.41-40.36-10.77-2.64-3.47-2.83-7.43-3.21-15.37-.64-13.36,3.48-18.31,4.82-28.43,3-22.36-12.61-32.34-6.19-41.27C678.08,3,692.3,3.42,701.16,6.72Z"/><path class="cls-2" d="M700.83,7.92c4.35,1.76,7.91,5.12,11.43,8.14,4.94,4.23,9.92,8.46,14.67,12.91,7.77,7.29,13.27,15.4,15.82,25.93A93.09,93.09,0,0,1,744,93.79c-1,5.32-2.12,10.66-3.59,15.87-.66,2.36-1.74,8.33-4.43,9.6s-5.44-3-6.93-4.72a46.56,46.56,0,0,0-10.5-9.61,36.15,36.15,0,0,0-15.15-5.12c-5.81-.69-11.88.16-17.61-1.06-12.37-2.63-11.3-20-9.57-29.62s5.45-18.08,4.3-28.13a53.12,53.12,0,0,0-3.94-14.14c-1.34-3.28-3.2-6.61-3.76-10.15-2.19-13.93,20.48-11.43,28-8.79,1.52.54,2.17-1.88.66-2.41-8.48-3-22-4.55-28.73,2.91-5.24,5.77-1.08,13.09,1.39,19.1a48,48,0,0,1,4.12,17.71c.09,6.58-1.82,12.6-3.48,18.87a59.9,59.9,0,0,0-1.54,19.16c.27,4.4.53,9.08,3.31,12.73,7.08,9.26,22.21,4.69,32,7.32,7.8,2.09,13.57,7,18.68,13,1.91,2.24,4.22,5.66,7.53,5.72,5.92.11,7.64-10.15,8.65-14.12,3.43-13.51,5.71-27.2,3.9-41.14-1.76-13.6-5.41-26.1-15.14-36.14C726.74,25,720.62,20,714.68,14.85c-4.06-3.5-8.15-7.31-13.19-9.34C700,4.91,699.35,7.33,700.83,7.92Z"/><path class="cls-8" d="M132.27,97.29c-1-1.55,10.15-6.36,21.55-21.32,9.3-12.21,8.61-17.8,18.58-27.29,7.34-7,17.42-13.2,19.49-11.24,1.12,1.08-.39,4.38-1.84,7.34-8.11,16.57-12.17,24.85-20.41,32.79C153.86,92.79,133.52,99.34,132.27,97.29Z"/><path class="cls-2" d="M132.87,97.13c-.33-1,9.37-7.85,10.19-8.58a86.08,86.08,0,0,0,16-19.13c3.48-5.7,6.06-11.82,10.5-16.9a62.22,62.22,0,0,1,10.59-9.46c1.63-1.17,7.46-5.94,9.63-5.24,4,1.28-3.13,12.49-4.27,14.77-1.76,3.51-3.54,7-5.5,10.39a64.64,64.64,0,0,1-12,15.3,86.56,86.56,0,0,1-21.09,14.29c-1.59.77-12.19,6.37-14.18,4.28-.56-.58-1.44.3-.88.88,1.46,1.54,5.38,0,6.92-.52a74.65,74.65,0,0,0,16.67-7.9,76.69,76.69,0,0,0,28.33-30.54c2.08-3.94,4-7.93,6-11.93.93-1.9,3.94-6.37,3.12-8.77-1-3-4.86-1.07-6.83-.11a57.38,57.38,0,0,0-18.27,14.75c-4,4.89-6.5,10.71-9.78,16.08A86.71,86.71,0,0,1,138.4,90.87c-1.12.9-7.44,4.41-6.73,6.59C131.91,98.22,133.12,97.89,132.87,97.13Z"/><path class="cls-8" d="M110.71,171.58c-3.82-1.78-10.72,5.33-18.34,13.3C81.41,196.36,81.14,200,72.88,206c-7.22,5.2-12.25,6.17-11.92,7.57.53,2.3,15,3.23,28-2.53,12.31-5.46,24.2-17.39,24.54-30.49C113.5,179,113.66,173,110.71,171.58Z"/><path class="cls-2" d="M110.88,171c-3.57-1.13-7,2-9.49,4.11A138.31,138.31,0,0,0,85,192.24c-2.92,3.56-5.58,7.37-9,10.47a48.4,48.4,0,0,1-8.37,5.9c-1.84,1-4.77,1.84-6.25,3.35-4.54,4.62,10.11,3.94,11.69,3.79,12.87-1.23,25.28-7.23,33.57-17.26,3.89-4.71,6.81-10.37,7.38-16.51.33-3.63.39-8.7-3-10.93-.67-.45-1.3.63-.63,1.07,4.93,3.27,1.91,14,.13,17.95-2.94,6.46-8.13,11.83-13.89,15.87a48.62,48.62,0,0,1-19.22,7.94c-1.25.23-16,2.2-15.19-1,.18-.72,4.77-2.49,5.39-2.83a56.85,56.85,0,0,0,6.69-4.36,47.93,47.93,0,0,0,8.37-8.53c3.44-4.33,7-8.53,10.8-12.53,3.34-3.5,11.37-14.25,17.07-12.44C111.32,172.43,111.65,171.22,110.88,171Z"/><path class="cls-8" d="M120.34,244.5c2.9-2.16-2-8.61-.23-17,1.49-6.85,5.75-6.77,9.18-14.67,3.61-8.34,3.64-19.42,0-21.1-2-.91-3.49,1.66-19,14.91-5,4.23-7.29,6.08-7.11,8.71.31,4.48,7.43,4.38,10.32,10.55,3.3,7.07-2.89,14,.91,17.65C116,245.11,118.86,245.6,120.34,244.5Z"/><path class="cls-2" d="M120.79,244.94c2.66-2.71,0-8-.34-11.17-.43-4.39.42-8.54,3.26-12,1.77-2.13,3.62-3.94,5-6.38a31.53,31.53,0,0,0,3.85-17.54c-.18-2.15-.74-6.33-3.48-6.86-1.23-.24-2.21.55-3.15,1.21-3.44,2.43-6.46,5.61-9.62,8.38-4.91,4.3-20.11,12.91-10.12,19.43,4.14,2.7,7.5,5.31,7.65,10.77.1,3.27-1.62,6.46-1.33,9.71a5.61,5.61,0,0,0,8.16,4.51c.73-.33.1-1.41-.63-1.08-4.56,2.09-6.54-3-5.94-6.55.21-1.25.55-2.48.74-3.75a15,15,0,0,0-.22-6.49c-1.16-3.9-4.16-5.87-7.38-7.95-3.82-2.45-4-5.22-.76-8.42,2.61-2.58,5.59-4.84,8.36-7.24,3.5-3.05,6.89-6.24,10.46-9.21,2.46-2,4.17-3.5,5.58.89,2,6.34-.52,15.5-4,20.84-2.59,4-6.24,6.46-7.34,11.29a21.3,21.3,0,0,0-.12,7.8c.34,2.33,2.38,7,.51,8.89C119.34,244.63,120.22,245.52,120.79,244.94Z"/><path class="cls-8" d="M82.74,356.17c5.08-6.36,11.51-14.4,11.23-22.47-.23-6.93-5.22-8.66-3.66-13.53,1.29-4,6.31-7.84,11.46-6.88,5.5,1,8.11,6.93,8.26,11,.13,3.65-1.69,6.31-4.59,10.55-3.68,5.38-5,4.82-8.48,9.63-4.67,6.51-3.33,9.15-7.57,13.07s-9.8,5.41-10.55,4.35C78.32,361.16,80.29,359.24,82.74,356.17Z"/><path class="cls-2" d="M83.18,356.61c5.35-6.7,12.64-15.16,11.29-24.42-.5-3.43-3.16-5.94-3.73-9.21-.86-4.91,5-9.33,9.49-9.21,4,.1,7,3.05,8.35,6.61,3.9,10.29-7.69,17.17-12.65,24.5-2.24,3.3-3.1,7.42-5.5,10.56a17,17,0,0,1-7.22,5.25c-.39.16-3.26,1.37-3.6.4-.19-.58,3.25-4.09,3.57-4.48.51-.62-.37-1.5-.88-.88-1.27,1.55-6.33,5.74-2.77,7.09s10.09-4.21,11.9-6.57c1.49-1.93,2.12-4.21,3.12-6.39a31.35,31.35,0,0,1,7-9.54c3.87-3.72,8.54-9.16,9.06-14.69,1-11-12.57-18.19-19.55-8.26-2.75,3.91-1.31,6.66.64,10.48,5.15,10.12-3.39,20.34-9.4,27.88C81.8,356.35,82.68,357.24,83.18,356.61Z"/><path class="cls-8" d="M101.54,252.76c-4.74,2-1.87,9.64-6.42,20.63-3.72,9-7.63,8.66-19.49,25.69-8,11.54-7.22,13.1-6.88,13.52,2,2.46,12.8-2.94,19-6.88,5.21-3.28,16-10.28,22.48-24.07,3-6.29,7.79-16.53,3-23.62C110.64,254.2,105.2,251.22,101.54,252.76Z"/><path class="cls-2" d="M101.23,252.22c-4.41,2.34-3.66,9.32-4.46,13.43a32.54,32.54,0,0,1-7.73,16c-3.74,4.18-7.46,8.28-10.82,12.78s-8.63,10.37-10,16.12c-1.79,7.39,12.17.09,14.29-1,11.41-6,21.58-14.42,27.58-26,3.24-6.28,7.16-14.34,5.49-21.6-1.37-5.93-7.9-11.51-14.17-9.72a.63.63,0,0,0,.33,1.21c6.89-2,12.75,5.28,12.94,11.56.14,4.86-1.88,9.7-3.83,14a55.92,55.92,0,0,1-13.19,18.65c-3.14,2.88-26.95,19.41-28.42,14-.33-1.21,1.61-3.87,2.17-4.84A112.91,112.91,0,0,1,78.3,296.4c3.59-4.92,7.58-9.36,11.62-13.88a31.12,31.12,0,0,0,5.74-8.81,44.33,44.33,0,0,0,2.89-11.32c.42-3.05.17-7.43,3.31-9.09C102.57,252.92,101.94,251.84,101.23,252.22Z"/><path class="cls-8" d="M113.92,368.78c-.85-3.67,2.51-5.75,14.45-19.49,3-3.4,4.21-5,5.27-4.58,2.13.72,2,8.56-.23,14.9-2.3,6.53-8.24,15.45-14,14.45A7.35,7.35,0,0,1,113.92,368.78Z"/><path class="cls-2" d="M114.53,368.62c-.51-2.61,1.77-4.81,3.31-6.6,3.77-4.39,7.75-8.61,11.56-13,1.1-1.26,1.78-2.78,3.58-2.66,2.07.13,1.55,1.9,1.55,3.67a28.64,28.64,0,0,1-2.17,10.49c-2.23,5.61-13.17,21.27-17.83,8.06-.27-.76-1.48-.43-1.21.33,3,8.39,10.88,6.05,15.37.5A32.44,32.44,0,0,0,135.06,356c.61-2.8,2-8.61-.24-11.07-1.09-1.21-1.92-.95-3.21-.09-2.39,1.57-4.23,4.64-6.11,6.77s-3.87,4.31-5.81,6.46c-2.54,2.81-7.2,6.56-6.37,10.87C113.47,369.74,114.68,369.4,114.53,368.62Z"/><path class="cls-8" d="M94.89,410.29c3,1.23,5.25.42,12.38-1.38,11.19-2.82,16.79-4.23,20.64-4.36,6.05-.2,7.21,1.07,18.35,1.15,5.9,0,8.86.05,9.17-.92.82-2.6-13.53-10.12-27.29-14.21-7.55-2.25-13.86-4.05-22-2.76-3.3.53-16.92,2.68-18.35,10.55C87,403,90.46,408.43,94.89,410.29Z"/><path class="cls-2" d="M94.73,410.89c4.61,1.69,10-.71,14.52-1.83,5.76-1.45,11.7-3.34,17.65-3.82,4.57-.37,9.09.63,13.64.9a103.15,103.15,0,0,0,11.26.16c.91-.05,3.18.09,3.87-.79,3.49-4.43-18.17-12.39-20.78-13.35-12.22-4.49-24.66-7.31-37.3-3-4,1.38-8.77,3.68-10.17,8.06-1.77,5.54,2.42,11.21,7.16,13.58.71.36,1.35-.71.63-1.07-4.19-2.1-8.2-7.17-6.58-12.18,1.1-3.41,4.7-5.38,7.79-6.63a42.5,42.5,0,0,1,13.35-2.89c8.12-.45,16.42,2.31,24,5,6.35,2.28,13.4,4.95,18.84,9.09,4.41,3.36-1.91,2.93-4.46,2.93-3.17,0-6.33-.06-9.48-.33-4-.34-8-1.11-12.08-.74a84.46,84.46,0,0,0-12.78,2.62c-5.34,1.31-13.26,5.05-18.72,3C94.3,409.4,94,410.61,94.73,410.89Z"/><path class="cls-8" d="M175.38,428.63c-1.34,3.83-1.31,6.51-1.38,12.61-.22,18.15-.87,21.76,2.06,24.08,2.32,1.83,3.7.35,7.57,2.75a17.35,17.35,0,0,1,7.11,8.94c2,6.44-1.82,10.95-.23,12.15,2.13,1.62,11.41-4.7,17.66-14,1.3-1.95,12.45-18.53,6.19-28.67-3.46-5.58-8.32-2.94-16.74-9.86-9.94-8.16-10.8-18.09-15.36-17.65C178.62,419.35,176.32,425.93,175.38,428.63Z"/><path class="cls-2" d="M174.77,428.46c-2.53,7.84-1.5,17-1.6,25.09,0,3.37-.71,8.35,1.53,11.28a6.37,6.37,0,0,0,3.93,2.19,14.85,14.85,0,0,1,10,7,13.63,13.63,0,0,1,1.78,9.82c-.22,1.19-.89,2.59-.88,3.79s0,1.88,1.18,2.37c4.19,1.78,11.73-6.78,13.86-9.16a54.7,54.7,0,0,0,9.62-15.44c2.28-5.52,4.08-12.44,1.27-18.12-3-6.08-11-6.34-16.06-10-4.71-3.43-8-8-10.95-12.91-1.09-1.84-2.32-4.7-4.46-5.58-5.19-2.15-8,6.28-9.23,9.75-.26.76.94,1.09,1.21.34.84-2.41,2-6.53,4.24-8.09,3.78-2.64,5.6,1.59,7.16,4.21,3.2,5.37,6.83,10.3,12.06,13.87,4.5,3.08,11.88,3.58,14.66,8.56,3.53,6.31.52,14.57-2.41,20.51a54.31,54.31,0,0,1-8,12.05,38.12,38.12,0,0,1-8.16,7.16c-1.31.82-2.63,2-3.88.78s-.3-2.26,0-3.73a15.39,15.39,0,0,0-4.39-13.92,16.58,16.58,0,0,0-4-3.08c-2.18-1.15-5.35-.86-7.12-2.63-2.59-2.6-1.68-8.29-1.64-11.55.11-7.82-.88-16.63,1.55-24.14C176.23,428,175,427.7,174.77,428.46Z"/><path class="cls-8" d="M180.42,527.46c10.09,3.9,20.14.16,22.93-.92,11.27-4.37,17.35-12.73,21.1-17.89A51.44,51.44,0,0,0,234.08,488c1.59-8-.43-9.11.91-19.95,1.53-12.34,5.07-18.38,3.21-19.49s-7.24,3.55-10.54,8.71c-2.95,4.61-3.19,8-4.82,14.22-1.56,5.92-3.43,13-7.34,19.26-1.48,2.37-9.05,14.43-21.55,16.74-7.92,1.46-11.77-2.11-16.51,1.37-3.74,2.75-6.15,8.51-4.36,12.84C174.48,525.1,178,526.51,180.42,527.46Z"/><path class="cls-2" d="M180.25,528.06c17.15,5.9,33.64-4.12,43.65-17.61,5.14-6.92,9.34-14.34,10.9-22.93a42.4,42.4,0,0,0,.41-9.35,69,69,0,0,1,1.48-16.59c.48-2.32,4.63-11.62,1.83-13.54-4.42-3-12.18,9.89-13.29,12.52-3.94,9.29-4.31,19.47-9.4,28.44-3.67,6.47-9,12.5-15.76,15.81-6,2.95-11.38,1.76-17.67,1.86a9.61,9.61,0,0,0-7.39,3.67c-6,7.12-2.61,14.61,5.24,17.72.75.3,1.08-.91.34-1.21-6-2.36-9.51-7.32-6-13.67,2.52-4.59,6.3-5.48,11.05-5a26.9,26.9,0,0,0,18.95-4.62c9.88-6.89,15-17.78,18.13-29.09,2.29-8.39,3.49-16.33,10.21-22.55,1.46-1.35,4.52-3.71,5.11-1.15.16.72-.45,2-.63,2.71-.93,3.62-1.88,7.21-2.49,10.9-1.06,6.39-.48,12.54-.83,18.93-.46,8.37-4.12,16.35-8.84,23.16-10,14.42-26.19,26.72-44.64,20.37C179.82,526.59,179.5,527.8,180.25,528.06Z"/><path class="cls-8" d="M330.61,542.82c-3.37-1.56-9.92,4.37-13.3,10.09-4.28,7.26-3.75,14.72-3.44,18.34.22,2.54,1.56,15.18,11.93,24.54,6.77,6.12,16.47,10,18.34,7.79.86-1-.28-2.91-5-12.15-5.48-10.61-8.22-15.95-8.49-18.11-.86-7,2.6-8.23,2.52-19.49C333.1,548.75,333.07,544,330.61,542.82Z"/><path class="cls-2" d="M330.78,542.22c-4.43-1.29-8.9,3.6-11.36,6.62a28.52,28.52,0,0,0-6.38,18.1,39.78,39.78,0,0,0,10,27c2,2.2,19.53,16.37,21.93,9.39.83-2.42-2.78-7.26-3.71-9.07-3.2-6.19-7.27-12.53-9.5-19.16-1.73-5.18.88-10,1.61-15.07.65-4.57,2.12-14.56-2.44-17.74-.66-.46-1.29.62-.63,1.08,3.13,2.18,2.3,8.76,2.19,12.25A39.77,39.77,0,0,1,331,565c-.88,3.26-1.61,6.5-.62,9.84,1.24,4.18,3.72,8.19,5.7,12,1.8,3.52,3.64,7,5.43,10.53.4.8,2.89,4.53,2.28,5.59-1.26,2.2-7.94-1.28-9.05-1.85a38.78,38.78,0,0,1-9.07-6.36,36.54,36.54,0,0,1-10.12-17.65,38.71,38.71,0,0,1-1.1-13,26.74,26.74,0,0,1,5.88-14.46c2.17-2.67,6.23-7.43,10.15-6.3A.62.62,0,0,0,330.78,542.22Z"/><path class="cls-8" d="M370.28,527c-3.66-.66-7.54,2.81-12.61,7.34-4.45,4-7.12,6.35-6.88,9.17.31,3.72,5.41,4.94,17.43,11,7.69,3.89,13.67,7.46,22.7,12.85,10,6,15.19,9.69,15.59,9.17.64-.84-14.6-8.25-23.85-24.77C375.41,538.81,376.21,528.06,370.28,527Z"/><path class="cls-2" d="M370.28,526.37c-5.69-.44-10.68,5.33-14.47,8.79-2.47,2.26-6.9,5.73-5.34,9.66,1.35,3.38,6.45,4.95,9.39,6.34,7.12,3.38,14.11,7,20.93,10.93,2.16,1.25,24.91,16.59,26.21,14.82.79-1.08-1.75-2.4-2.34-2.83a89.87,89.87,0,0,1-13.36-11.51c-6.75-7.36-10.91-15.91-13.94-25.36-1.25-3.91-2.31-9.61-6.91-10.81a.62.62,0,0,0-.34,1.2c5.5,1.44,7,13.35,8.82,17.81a60.51,60.51,0,0,0,10.53,17,76.73,76.73,0,0,0,11.73,10.69c1.19.9,2.78,2.56,4.2,3.09,2.15.78-.8-1.14-1.58-1.61-12.76-7.58-25.15-15.68-38.52-22.19-3.48-1.69-11.77-3.88-13.53-7.72s3.93-7.71,6.35-9.87c3.29-2.94,7.34-7.53,12.17-7.16C371.08,527.69,371.08,526.44,370.28,526.37Z"/><path class="cls-8" d="M506.71,569c-2.55.65-2.4,3.38-8,15.36-5.75,12.26-8.76,15.5-7.11,17.89,2,2.92,8.87,1.45,15.59,0,9.19-2,15.05-3.24,17.2-7.57C529,585.36,513.91,567.13,506.71,569Z"/><path class="cls-2" d="M506.55,568.36c-1.69.53-2.37,1.87-3.09,3.4-2.43,5.11-4.38,10.42-6.88,15.51-1.53,3.12-8.86,12.44-4.84,16,2.76,2.46,8.29,1,11.43.39,5.58-1.07,11.93-1.93,17.07-4.49,6.78-3.39,6.41-10.46,3.5-16.55C521,577,514,567.07,506.55,568.36c-.79.13-.46,1.34.33,1.2,7.42-1.28,14.75,10.29,16.76,16.06,1.49,4.27,1.46,9-2.68,11.76s-10,3.39-14.79,4.41c-3.22.68-15,4-14.23-2.12.41-3.13,3.27-6.88,4.66-9.63q3.33-6.63,6.19-13.47c.83-2,1.7-6.26,4.09-7C507.65,569.32,507.32,568.12,506.55,568.36Z"/><path class="cls-8" d="M637,532.5c6.85-.15,9.27-8.89,20.17-22.93a132.35,132.35,0,0,1,20.87-22c12.21-10,20.21-12.09,20.18-18.12,0-4.48-4.5-9.14-8.71-9.63-3.9-.44-5.23,2.95-12.62,6.88-8.2,4.36-10.4,2.22-15.13,5.74-5.32,3.95-3.69,7.53-9.17,17.19-4.55,8-6.55,7.11-16,20.18-8.81,12.12-9,15.46-8,17.66C629.72,530.39,633.45,532.58,637,532.5Z"/><path class="cls-2" d="M637,533.13c5.2-.37,8.08-5,10.74-9,5.39-8,10.83-15.92,17.26-23.16,7.87-8.85,17-15.77,26.64-22.5,3.94-2.74,8.33-5.86,6.86-11.25-1.41-5.17-7.54-10-12.79-7.2-3.78,2-6.86,5.08-10.8,6.92-3.6,1.69-7.58,1.85-11.13,3.5-6.77,3.14-7.42,10.38-10.45,16.41-3.16,6.3-7.94,10.76-12.35,16.11-5,6.08-24.33,29-4,30.12.8,0,.8-1.21,0-1.25-19.68-1.1,3.32-26.42,7.79-31.39,2.58-2.85,5.24-5.52,7.29-8.79a50.87,50.87,0,0,0,4.22-8.41c1.11-2.83,1.78-6,3.75-8.38,4.1-5,11.71-4.79,17.16-7.68,3-1.6,5.49-3.88,8.39-5.62,5.2-3.13,12.76,2.38,11.93,8.47-.79,5.74-9.89,9.53-14.07,12.54A118.24,118.24,0,0,0,665.07,499a162.92,162.92,0,0,0-13.74,17.45c-3.38,4.92-7.5,14.9-14.37,15.39C636.16,531.93,636.15,533.18,637,533.13Z"/><path class="cls-8" d="M586.05,432.53c-1.5,1.18,2.18,5.54,3.44,13.76,1.33,8.65-.9,15.88-4.13,26.36-4,13.1-7,15.35-5.25,19.78,2.56,6.51,12.63,11,19.06,8.46,6.21-2.46,6.41-10.48,12.33-11.27,4.27-.56,5.93,3.37,9.18,2.3,4.27-1.42,5.08-9.44,6-18.12.71-7.09,1-10.67-1.15-12.38-3.31-2.59-7.8,2.65-13.07.69-5.75-2.15-4.17-9.81-11.46-19.26C595.64,436,587.9,431.08,586.05,432.53Z"/><path class="cls-2" d="M585.61,432.09c-.81,1-.46,2-.13,3.12,1.35,4.81,3.38,8.92,3.71,14.08.65,10.12-3.33,20.9-6.84,30.24-1.51,4-4.46,8.67-2.84,13.07,2,5.55,8.71,9.13,14.33,9.57a11.35,11.35,0,0,0,7.78-1.95c2.76-2,3.77-5.31,6.09-7.69,4.23-4.35,6.7-.64,11,.09,2.3.39,4.09-.94,5.26-2.82,1.69-2.71,2.11-6.22,2.55-9.31a94.61,94.61,0,0,0,1.29-13.85c0-4.76-2.33-7.42-7.2-6.07-2.85.79-5.82,2.29-8.76.59-2.25-1.31-3.09-3.82-4-6.11-1.74-4.5-3.48-8.79-6.47-12.65-2.4-3.1-10.63-12.83-15.66-10.41-.73.35-.1,1.42.63,1.08,2.36-1.14,7.21,3.19,8.7,4.48a36.87,36.87,0,0,1,8.7,10.89c2.05,3.95,2.83,10.35,6.61,13.24,4.7,3.61,11.76-2.7,15.46,1.07,1.71,1.74.54,7.21.34,9.35a90.9,90.9,0,0,1-1.69,12.65c-.45,1.9-1,4-2.46,5.34-2.24,2.12-4.4.52-6.66-.43a7.11,7.11,0,0,0-5.54-.22c-4.69,1.83-5.57,8-9.88,10.38-6.35,3.56-18.27-1.34-19.61-8.77-.8-4.4,2.85-10,4.24-14,2.67-7.68,5.52-15.9,5.88-24.1a35.09,35.09,0,0,0-1.23-10.84c-.34-1.25-3.72-7.93-2.74-9.13C587,432.35,586.12,431.46,585.61,432.09Z"/><path class="cls-8" d="M734,344c.55,2.16,5.52.47,13.07,3.67s8.4,7.32,16.51,9.86c2.88.9,7.18,2.24,8.71.45,2.26-2.61-2.11-11.16-8-16.28-2.36-2-9.82-7.73-18.81-6C739.24,337,733.32,341.54,734,344Z"/><path class="cls-2" d="M733.41,344.33c1.15,2.45,6.72,2,8.65,2.42,6.45,1.47,10.32,5.49,15.65,8.83,3.94,2.47,17.75,7.92,15.46-1.65-2-8.33-10.3-15.75-18.31-18.2a20,20,0,0,0-14.25.95c-2.73,1.24-7.42,3.76-7.29,7.34,0,.8,1.28.8,1.25,0-.16-4.32,7.84-7,11-7.65A20.22,20.22,0,0,1,759.29,339a27.6,27.6,0,0,1,6.62,5.21c1.93,2.06,6.77,7.62,6.18,10.89-1.57,8.8-16.9-3.21-20.16-5.45a27.63,27.63,0,0,0-8.79-3.94c-1.64-.41-7.91-.45-8.65-2C734.15,343,733.07,343.61,733.41,344.33Z"/><path class="cls-8" d="M696.34,259.41c-1.26,3.36,9.52,6.55,17.89,19.95,6.87,11,6.76,20.29,10.32,20.4S728,290.42,736.24,283c9.07-8.13,19.54-6,20-9.4.54-4.54-17.66-10.46-30.72-13.3C722.69,259.72,698.23,254.41,696.34,259.41Z"/><path class="cls-2" d="M695.74,259.24c-.71,3,3.64,5.32,5.49,6.82a54.81,54.81,0,0,1,17,22.7c1,2.66,2.17,10.55,5.66,11.52s5-5.25,6-7.37c4.52-9.46,12-13.86,21.85-16.24,2.22-.53,5.91-1.21,4.81-4.32-1.47-4.19-9.52-6.31-13.11-7.6a146.8,146.8,0,0,0-19.67-5.42,128.28,128.28,0,0,0-16.88-2.54c-3-.2-9.37-1.05-11.12,2.3-.37.71.71,1.35,1.08.63,1.52-2.91,8.45-1.82,11.07-1.59a126.08,126.08,0,0,1,13.51,2c9.71,1.9,19.88,4.28,28.76,8.77,2,1,5.5,2.4,4.41,4.74-1,2.09-4.42,2.05-6.51,2.61A28.62,28.62,0,0,0,733.46,285a31.68,31.68,0,0,0-4.07,6.17c-1,1.92-1.56,4.59-2.91,6.27-2.4,3-3.76.15-4.7-2.37-1-2.67-1.83-5.4-2.94-8a52.48,52.48,0,0,0-11.67-17.37c-1.63-1.61-10.87-7.36-10.22-10.06C697.14,258.79,695.93,258.46,695.74,259.24Z"/><path class="cls-8" d="M740.6,233.5c-7.43-2.25-9.53-1.82-10.78-1.38-3.43,1.2-7,4.74-6.42,7.57.81,4.31,10.75,5.63,18.35,6.65,7.9,1,12,1.59,15.82-.69,4.43-2.62,5.61-7.17,8-14.68,0,0,3.09-9.61,11.7-31.41,6.88-17.44,12.18-23.93,10.54-25.22-2-1.57-13,5.43-19,16.51-3.06,5.65-2.34,7.8-7.79,29.35-2.91,11.5-4.48,16.27-8,17.19C750.51,238,749.5,236.19,740.6,233.5Z"/><path class="cls-2" d="M740.77,232.89c-5.94-1.72-14.92-3.54-17.67,4.42s12.86,8.86,17.12,9.45c7.5,1,16.68,3.08,21.6-4.39,2.93-4.46,3.94-10.09,5.7-15.11,3.44-9.85,7.14-19.64,11.08-29.3,2.2-5.41,4.67-10.67,7.27-15.9.85-1.7,2.91-4.52,2.84-6.56-.15-4.54-6.69,0-8.27,1.11-5.88,4.25-11.18,10.46-13.74,17.31-3.08,8.27-4.14,17.59-6.3,26.11-1.09,4.32-2,12.72-5.85,15.8-3.37,2.72-10.33-1.85-13.78-2.94-.77-.24-1.1,1-.34,1.21,3.65,1.15,9.94,5.57,13.93,3.41,4.77-2.58,5.88-11.8,7-16.27,3.21-12.53,4-26.61,12.62-36.86a35.41,35.41,0,0,1,9.67-8.38c.62-.34,3.23-1.94,3.83-.82.32.59-1,2.77-1.2,3.2-3.55,7.58-7.25,15-10.32,22.8-4.44,11.26-8.54,22.6-12.41,34.06-1.67,4.93-3.83,9.79-9.41,11.07-5.1,1.17-11.4-.39-16.43-1.16a54,54,0,0,1-7.53-1.51,15,15,0,0,1-3.69-1.4c-3.31-2.08-1.74-6.36,1.1-8.29,4-2.73,8.53-1.1,12.82.15A.63.63,0,0,0,740.77,232.89Z"/><path class="cls-8" d="M684.42,58.77c-6.89,4.25-6.68,16.35-2.75,23.85,4.31,8.23,13.1,10.91,14.22,11.23,7.25,2.1,10-1.19,17.88,1.38,7.15,2.32,9.41,6.46,11.47,5.27,2.87-1.66,2.51-12.09-3-16.28-6-4.55-13.28,1.87-18.58-2.29-6.41-5,.23-17.58-6.65-22.93C693.44,56.21,687.83,56.66,684.42,58.77Z"/><path class="cls-2" d="M684.11,58.23c-8.45,5.94-6.84,19.79-1.39,27.25A24.89,24.89,0,0,0,694.39,94c5.39,1.92,10.59.21,16.05,1.1,4,.64,7.31,2.44,10.65,4.6,1,.68,2.37,1.85,3.75,1.59,2.92-.56,2.9-5.32,2.72-7.44-.37-4.22-2.3-9-6.27-11-6.51-3.3-16.87,4.19-19.67-5.54-1.59-5.52,1.06-12.08-2.54-17.09-3.43-4.79-10.28-4.53-15-2-.71.38-.08,1.46.63,1.08,4.43-2.37,11.19-2.5,13.88,2.56,1.58,3,1.25,6.68,1.29,9.92,0,3.7.16,8.07,3.33,10.58,4,3.16,8.9.69,13.37.77,5,.1,8,3.61,9.23,8.08.56,2,1.71,9.31-2.38,8.53-2-.38-4.52-3-6.4-3.89a24,24,0,0,0-6.61-2.07c-5.43-.81-10.66.92-16-1.09a22.5,22.5,0,0,1-13.19-12.51c-2.59-6.62-3-16.34,3.49-20.88C685.39,58.85,684.77,57.77,684.11,58.23Z"/><path class="cls-9" d="M377.54,229.6C383.36,222,360.41,210.85,354,209c-11.7-3.45-21.91,2.17-22.93,2.75-8.75,5-12.4,13.45-17.88,26.14-7.05,16.3-5.56,22.19-12.39,27.06-8,5.72-18.17,3.39-18.34,5.5-.16,1.9,8.13,2.67,18.34,8.26,6.61,3.61,10.76,7.45,15.6,11.92,12.51,11.58,10.59,14.82,19.26,22,3,2.54,17.69,14.69,31.64,10.55,8.06-2.39,12.74-7.33,10.24-11.47C359.3,281.45,364.09,247.14,377.54,229.6Z"/><path class="cls-2" d="M379.7,230.86c5.34-8.06-7.12-15.58-12.76-18.76-10.19-5.75-20.92-8.84-32.41-4.66-10.76,3.92-16.38,13.15-20.88,23.15a182.4,182.4,0,0,0-8,20.9c-1.61,5.2-3,9.79-8.1,12.51-3.28,1.75-6.85,2.29-10.49,2.68-1.77.19-4.16.07-5.66,1.21-2.92,2.25-.66,5.08,1.83,6.25,7,3.32,14.33,5,20.91,9.44a86.31,86.31,0,0,1,18,16.56c3,3.62,5.22,7.75,8.46,11.15a57,57,0,0,0,10.63,8.46c10.58,6.71,25.86,10.46,36.13.9,5.71-5.32,2.33-9.85-.62-15.65a79.32,79.32,0,0,1-8.26-28.53c-1.45-15.81,1.63-32.69,11.27-45.61,1.92-2.58-2.42-5.08-4.32-2.52-14.26,19.11-15.27,46.49-7.61,68.39a88.61,88.61,0,0,0,3.46,8.45c1.29,2.76,5.34,7.49,3.94,10.38-3,6.31-14.48,6.56-20,5.1a45.87,45.87,0,0,1-23.23-15.44c-6.8-8.83-13.37-17-22.38-23.85a68.32,68.32,0,0,0-18.06-9.56c-1-.36-5.87-2.78-6.67-2.39-.62.3-.56,2.56-.51,2.59s1-.21,1.22-.19a20.21,20.21,0,0,0,3.79-.38c9.32-1.14,16.52-5.27,19.72-14.22,4.2-11.73,7.51-24,14.38-34.59a26.81,26.81,0,0,1,31.37-10.78c4,1.41,24.63,10.42,20.61,16.49C373.6,231,377.92,233.53,379.7,230.86Z"/><path class="cls-9" d="M460.35,337.9a6.77,6.77,0,0,1-3.44-2.22,7.19,7.19,0,0,1-.83-3.85q-.21-9.31-.43-18.63A347.19,347.19,0,0,1,413.79,327c-5.36,1.39-11,2.66-16.4,1.64l-.34,1.41c-4,15.21-16.62,26.32-28.35,36.78a12.87,12.87,0,0,0-3.81,4.7c-1,2.68-.12,5.66.76,8.38,1.54,4.74,3.11,9.52,5.7,13.77a50.65,50.65,0,0,0,6,7.74,131.31,131.31,0,0,0,51.83,34.8,28.27,28.27,0,0,1-2-8.24c-.15-4,1.44-7.88,3.64-11.22,5.68-8.63,15.13-13.89,24.21-18.82l20.19-11a61.65,61.65,0,0,0,11.39-7.3c11.14-9.67,14-25.75,14.19-40.5A63.76,63.76,0,0,1,460.35,337.9Z"/><path class="cls-2" d="M461,335.49c-3.62-1.49-2.55-9-2.62-12l-.24-10.25c0-1.47-1.6-3-3.17-2.41q-13.37,5.31-27.1,9.57c-9.26,2.84-20.06,7.21-29.83,5.82a2.56,2.56,0,0,0-3.07,1.75c-3,12.57-11.76,22.14-21,30.7-4.11,3.82-10.91,7.87-11.91,13.83-.93,5.55,2.34,12.29,4.49,17.26,5.17,12,16.23,21.51,26.38,29.3a136.84,136.84,0,0,0,35.6,19.56,2.51,2.51,0,0,0,3.07-3.08c-2.44-6.92-2.23-12.74,2.23-18.8,3.42-4.63,8.11-8.19,12.95-11.22,10.27-6.45,21.32-11.72,31.92-17.61,8.65-4.82,15.35-10.92,19.36-20.12,3.92-9,5-18.9,5.22-28.62a2.53,2.53,0,0,0-3.17-2.41A63.23,63.23,0,0,1,461,335.49c-3-1.08-4.34,3.75-1.33,4.82a67.83,67.83,0,0,0,41.79,1.23l-3.16-2.41c-.22,10.78-1.54,22.17-7.33,31.52-6.5,10.48-19.22,15.32-29.63,21-9.43,5.12-19.62,9.86-27.39,17.43A32.7,32.7,0,0,0,426,420.61c-2.1,5.63-1.14,10.7.8,16.22l3.08-3.08a131.41,131.41,0,0,1-32.84-17.85c-10.15-7.6-21.42-17.21-26.33-29.17a61.22,61.22,0,0,1-3.17-9.19c-1.22-5.32,1.15-7.41,4.68-10.56,4.36-3.89,8.69-7.82,12.68-12.09,6.85-7.35,12.55-15.75,14.89-25.64L396.72,331c9.8,1.39,19.51-2,28.82-4.71,10.42-3.08,20.68-6.67,30.77-10.68l-3.16-2.41c.15,6.4,0,12.92.47,19.3.33,4.24,2.24,6.24,6.06,7.81C462.65,341.54,464,336.71,461,335.49Z"/><path class="cls-9" d="M470.57,263.09c-.3-3.67.47-8.32-.39-11.13a6.07,6.07,0,0,1,0-3.77,4.3,4.3,0,0,0-1-.71c-5.63-2.63-11,10.6-28,18.81-15.64,7.57-27.32,4.19-33.47,14.21-.88,1.42-3.33,5.42-1.84,8.26,3.41,6.49,25.49,3.26,32.1,2.29,7.5-1.1,11.16-2.35,15.14,0,5.41,3.2,5.3,9.49,9.63,10.09,3.41.47,7.47-2.89,8.25-6.42.69-3.1,2.18-4.87.95-8.55C469.77,279.81,470.74,265.13,470.57,263.09Z"/><path class="cls-2" d="M473.07,263.09c-.12-2.45.08-4.89,0-7.34,0-2.14-1-4.84-.55-6.9A2.59,2.59,0,0,0,471.4,246c-4.06-2.78-7.73-.49-11,2.39-6.15,5.42-11.64,11.09-19,15-8.24,4.3-17.18,4.91-25.75,8-5.79,2.09-10.7,6.55-12.36,12.65-3.79,14,19.71,11.32,27.06,10.52,2.56-.28,5.11-.62,7.65-1,3.77-.55,8.66-2.21,12.43-1,6.46,2.11,6.33,12.63,14.69,10.88,8.16-1.71,10.56-11.88,8.94-18.82-1.66-7.11-.63-14.35-1-21.54-.15-3.2-5.15-3.22-5,0,.21,4.55-.18,9.12,0,13.68.28,6,3.35,13.58-.27,19-1.38,2-4,3.77-6.17,1.91-.9-.77-1.45-2.33-2.07-3.31a16.16,16.16,0,0,0-5.26-5.46c-5-2.91-10.85-1.2-16.16-.39a145.37,145.37,0,0,1-14.58,1.6c-3.77.19-12,1.21-14.94-1.87-2.08-2.16.95-6.55,2.57-8.33a16.42,16.42,0,0,1,7.94-4.4c6.47-1.87,13.07-2.81,19.36-5.34a64.73,64.73,0,0,0,19.32-12.46c2.22-2,7.76-9.6,11.05-7.35l-1.15-2.82c-.53,2.48.09,4.37.33,6.84.28,2.88-.13,5.83,0,8.72C468.22,266.29,473.23,266.31,473.07,263.09Z"/><path class="cls-9" d="M441.13,205.75c-1.12,3.36,7.49,6.42,17.89,20.64,3.9,5.33,6.62,9,8.71,14.67,3.07,8.25,2.11,13.34,3.67,37.61.58,9,.92,11.52,2.75,12.38,6.06,2.84,20-16.12,20.64-17a74.57,74.57,0,0,0,13.76-33.93c1.28-10.35,2.83-22.89-4.59-29.81-3.56-3.33-9.6-3.79-21.55-4.59C447.21,203.41,442,203.26,441.13,205.75Z"/><path class="cls-2" d="M438.72,205.09c-.61,2.67.95,4.58,2.74,6.37,3.55,3.55,7.43,6.69,10.78,10.47,7.12,8,13.87,17.41,15.1,28.35,1.27,11.27.88,22.7,2,34,.29,2.93.41,6.94,3.2,8.72,2.47,1.57,5.53.63,7.87-.69,6.49-3.65,11.62-10.36,16-16.23a77.32,77.32,0,0,0,13.84-30.84c1.9-9.51,3.67-21.19-.22-30.37-4.32-10.19-14.3-10.68-24-11.38-12.6-.9-25.4-2.22-38.05-2.05-3.33,0-7.83-.05-9.22,3.65-1.13,3,3.7,4.31,4.82,1.32-.31.84-.73.33.6.26,1.7-.09,3.37-.24,5.08-.23,8.57,0,17.17.76,25.72,1.32,5.7.37,11.45.61,17.13,1.25,4.86.54,9.51,1.24,12.29,5.71,4.81,7.74,2.81,19.45,1.29,28a75.8,75.8,0,0,1-23.86,42.37c-1.08,1-5.13,4.81-6.72,3.49-.86-.72-.73-4-.81-4.91-.32-3.49-.5-7-.69-10.5-.46-8.06-.36-16.26-1.4-24.28-1.09-8.41-5-15.51-10-22.31a97.27,97.27,0,0,0-11.84-13.71c-.9-.85-7-5.67-6.83-6.42C444.26,203.28,439.44,201.94,438.72,205.09Z"/><path class="cls-9" d="M401.69,268.58c3.58-20.18-3.42-24.43.46-33.48S414,228.15,432,209.88c6.68-6.8,6.8-8.35,6.42-9.17-1.94-4.2-22.28-1-38.06,8.71-5.55,3.42-12.84,8-17.89,17.43a41.31,41.31,0,0,0-4.58,24.3c2,15.76,13.72,30.48,19.26,28.89C399.75,279.29,400.57,275,401.69,268.58Z"/><path class="cls-2" d="M404.11,269.24c1.44-8.7.86-16.46-.38-25.07-.83-5.74.92-10.49,5.73-13.82,6.51-4.5,13.14-8.34,19.06-13.69a78.19,78.19,0,0,0,10.32-10.74c1.17-1.57,2.57-3.51,2-5.6-1.29-5.13-9.69-4-13.32-3.51a76,76,0,0,0-29.44,11C381.74,218,371.92,235.35,376,255c1.91,9.22,7,20.54,15.2,25.89,9,5.92,11.69-4.59,12.95-11.6.56-3.14-4.26-4.49-4.83-1.33-.4,2.28-.79,9.65-3.68,9.62-2.64,0-6-4.87-7.29-6.69a42.45,42.45,0,0,1-8.16-27.4c1.26-17.22,13.72-28.77,28.62-35.73,7.16-3.34,15.69-6.35,23.71-6.31a9.18,9.18,0,0,1,3.26.34c.75.3.23,0,.22-.47.05,2.31-5.7,6.79-7.13,8.21a99.93,99.93,0,0,1-17.93,14.07c-3.34,2.06-6.85,4-9.19,7.28a18.12,18.12,0,0,0-3,13.24c1.06,8.21,2,15.51.58,23.84C398.76,271.06,403.58,272.41,404.11,269.24Z"/><path class="cls-9" d="M411.78,241.52c-3.12-6.08,21.53,13.07,26.14,17.89,5.14,5.35-38,20.58-37.6,25.22C401.17,295,416.05,249.81,411.78,241.52Z"/><path class="cls-2" d="M413.94,240.26l-2.24,2.57a1.79,1.79,0,0,1,.46.16c.11.21.95.45,1.13.6.75.59,1.68,1,2.48,1.52,2.68,1.74,5.26,3.64,7.8,5.57,4.13,3.13,7.95,7.38,12.26,10.17.16.1.49-.78-.2-.32a18.63,18.63,0,0,0-1.54,1.42,44.2,44.2,0,0,1-6.49,4c-5,2.79-10.22,5.25-15.35,7.83-3.44,1.73-18.18,7.19-13.72,13.47,4.89,6.88,10.34-11.72,11-13.84a130.51,130.51,0,0,0,4.78-19.57c.68-4.37,1.52-9.43-.38-13.61-1.33-2.93-5.64-.39-4.31,2.52,1.6,3.54,0,9.35-.68,12.91A139.45,139.45,0,0,1,404.44,273c-.76,2.33-1.55,4.66-2.5,6.93-.29.67-2.25,3.61-2.14,4.16-.2-1,4.22.65,2.87,1.16.27-.1.59-.64.9-.84,1.85-1.22,3.72-2.36,5.68-3.42,9.22-5,19.95-8.63,28.13-15.3,2.2-1.79,4.5-4.33,2.9-7.29-1.95-3.59-7.27-6.63-10.38-9.08-4.7-3.69-9.64-8-15.1-10.57-3.36-1.56-7.09-.13-5.17,4.05C411,245.7,415.28,243.17,413.94,240.26Z"/><path class="cls-9" d="M412.24,231.89c-3.53,3.74,42.69,12.81,44.49,2.29.79-4.62-9.47-25.59-17.43-23.38C427.13,214.17,416.19,227.71,412.24,231.89Z"/><path class="cls-2" d="M410.08,230.63c-3.76,5,8.64,7.69,11.06,8.27,8.77,2.07,18.38,3.47,27.38,2.39,6.66-.8,12.17-3.82,10.15-11.26s-8.13-20.09-16.68-21.74c-5.73-1.11-12.59,4.09-16.76,7.35-5.49,4.28-10,9.41-14.76,14.48-2.18,2.36,1.34,5.9,3.54,3.54,3.42-3.68,6.72-7.46,10.45-10.85,3.51-3.2,11.57-10.64,16.89-9.54,4.21.87,7.62,7.4,9.42,10.74,1.06,2,4.58,7.77,3.28,10.22-1.13,2.12-6.42,2.2-8.31,2.3a72.83,72.83,0,0,1-12.78-.59,90.19,90.19,0,0,1-12.41-2.35,33.36,33.36,0,0,1-4.49-1.4c-.29-.13-1.14-.7-1.4-.66-.1-.16-.22-.23-.36-.19-.62-.68-.59-.07.1,1.81C416.33,230.57,412,228.08,410.08,230.63Z"/><path class="cls-9" d="M367.76,251.61c-1.14,9.16-3,27.83,14.67,41.73,31.2,24.48,68.14-2,68.14-2s-26.91,1.25-50.67-1.6C379.27,280.89,372.34,251.61,367.76,251.61Z"/><path class="cls-2" d="M365.26,251.61c-1.22,10-.86,20,3.64,29.22,6.05,12.38,18.93,21.25,32.21,24.17,17,3.75,36.6-1.47,50.72-11.5,1.86-1.33,1.42-4.78-1.26-4.66-7.21.33-14.43.34-21.64.21-6.75-.11-13.51-.4-20.25-.94-3.26-.26-6.76-.19-9.75-1.59a29.62,29.62,0,0,1-6.49-4.44c-7-6-11.61-14.17-15.89-22.21-1.88-3.53-4.13-10.22-8.79-10.76-3.19-.37-3.17,4.63,0,5-.94-.11.38.85.7,1.46.67,1.26,1.45,2.46,2.13,3.72,1.85,3.43,3.62,6.91,5.61,10.27,4.51,7.59,10.05,14.9,17.57,19.73,4.82,3.1,9.25,3.37,14.91,3.82,6.74.54,13.5.83,20.25.94,7.21.13,14.43.12,21.64-.21l-1.27-4.66C437,297.9,420.15,303,405.19,300.7c-13.14-2-26.08-10.22-32-22.39-4.07-8.39-4.07-17.65-3-26.7C370.65,248.42,365.64,248.45,365.26,251.61Z"/><path class="cls-9" d="M362.83,123.65l-20.32-17a37.22,37.22,0,0,0-8-5.56c-3.35-1.54-7.08-2-10.73-2.52a120,120,0,0,0-16.59-1.4c-15.62.14-30.45,6.35-45.68,9.78-11.09,2.5-22.46,3.53-33.78,4.55-2.84.26-1.16,5.23.64,7.63a23.62,23.62,0,0,1,3.18,7.13c1.2,3.79,2.4,7.58,3.46,11.41,3.72,13.43,5.7,27.36,10.59,40.4s12.45,24.67,20.75,35.71a51.81,51.81,0,0,0,7,8c8.61,7.59,20.77,9.27,32.16,10.62,2.41.28,5,.54,7.14-.51,4.13-2,5-7.6,8.1-10.89,4.62-9.55,13.84-12.29,23.41-12.33,4.89-.92,9.85.25,15.32,2.4.13,0,10.91,4.76,11,4.73-3.83-4.55,3.24-39.48,24.31-50,.09-.35-.31-3.39-.21-3.75C395.73,158,375.77,134.45,362.83,123.65Z"/><path class="cls-2" d="M364.6,121.88l-17.42-14.53c-5.09-4.25-9.88-8.52-16.49-10.11a92.08,92.08,0,0,0-41.9-.09c-15.44,3.54-30.15,8.53-46,10.39-3.76.45-7.54.81-11.32,1.16-1.77.16-4.2-.07-5.82.93-3.5,2.15-1.59,7.19-.06,9.92,7.07,12.58,9.12,27.9,12.46,41.82a130.11,130.11,0,0,0,16.25,39.51c6.57,10.45,13.94,22.66,25.5,28.1A62.48,62.48,0,0,0,297,233.81c5.13.81,12,2.78,16.9.28,4.69-2.4,7-8.88,9.69-13.11,4.05-6.45,10.41-9.19,17.84-9.68,6.81-.45,12.59.15,18.9,2.89,3.12,1.35,6.27,3,9.52,4.06,2,.63,4.11-1.89,2.82-3.67s-.65-5.31-.39-7.39a60.31,60.31,0,0,1,3.46-13.45c3.84-10.39,10.29-20.48,20.34-25.73a2.52,2.52,0,0,0,1.24-2.16c.09-7.51-3.88-12.59-8.43-18.38a176.09,176.09,0,0,0-24.29-25.59c-2.45-2.06-6,1.46-3.54,3.54a175.39,175.39,0,0,1,22,22.71,79.46,79.46,0,0,1,7.73,10.61c1.58,2.73,1.59,3.75,1.55,7.11l1.23-2.16c-11.21,5.87-18.35,17.14-22.63,28.72a63.09,63.09,0,0,0-3.69,15.17c-.3,2.91-.72,7,1.12,9.52l2.82-3.67c-6.78-2.19-12.55-6.12-19.75-7.21-8.47-1.29-19.55.22-26.45,5.62-3.37,2.63-5.69,6.32-7.9,9.92-1.33,2.19-2.27,5.28-4.24,7-2.79,2.44-7.16,1.23-10.45.81-6-.78-12.11-1.76-17.78-3.95-6.88-2.65-11.72-7.27-16.09-13.05-7.82-10.34-15.08-21.41-19.88-33.5-5-12.68-7.08-26.24-10.5-39.38a165.43,165.43,0,0,0-5.18-17,49,49,0,0,0-3-5.63c-.77-1.42-1.41-2-.33-3.15.77-.84,6.32-.59,7.56-.72a223.69,223.69,0,0,0,39-7.45,185.19,185.19,0,0,1,21-5.12c8.32-1.33,16.48-.79,24.79.29,3.49.46,7.14.79,10.45,2.07,3.75,1.46,6.76,4.2,9.81,6.73l18.86,15.75C363.52,127.46,367.07,124,364.6,121.88Z"/><path class="cls-9" d="M512.34,242a16.29,16.29,0,0,0-1.55,3.13c-1.41,3-4,5.26-6.09,7.81.08,8.36-5.09,16.55-11,23.38a27.64,27.64,0,0,1-4.19,6.17c-4.55,4.94-11.09,7.5-16.44,11.56-6.26,4.74-10.76,11.39-15.14,17.9l1,.16q.12,12.83.23,25.64l28.07-10.48a14.12,14.12,0,0,0,8.12-5.89l8.82-11.21a27.17,27.17,0,0,0,3.19-4.72,26.62,26.62,0,0,0,2-8.84l2.82-25.42c1.21-11,3-23.1,11.62-30C519.93,239.81,514.83,238.76,512.34,242Z"/><path class="cls-2" d="M510.18,240.78A63.35,63.35,0,0,1,504,250c-2.33,2.69-1.68,5.19-2.59,8.58a35.71,35.71,0,0,1-5.67,11.21c-2.35,3.31-4.73,7-7.29,10.11-4.71,5.77-12.13,8.41-17.85,13-6.1,4.9-10.54,11.45-14.86,17.88a2.5,2.5,0,0,0,1.49,3.67l1,.16-1.84-2.41q.12,12.83.23,25.64a2.51,2.51,0,0,0,3.16,2.41l17.78-6.63c5.05-1.89,11.15-3.25,15.61-6.38,4.26-3,7.33-8.36,10.52-12.41,2.65-3.37,5.53-6.59,6.86-10.74,1.54-4.82,1.6-10.23,2.16-15.21.67-6.11,1.33-12.21,2-18.32,1.14-9.95,2.82-20.65,10.81-27.55,1.51-1.3.55-3.62-1.1-4.18-4.76-1.59-10.1-2.49-13.91,1.49-2.22,2.33,1.31,5.87,3.54,3.54,2.42-2.54,6.19-1.16,9-.2L522,239.43c-6.26,5.4-9.25,13-10.81,21-2,10.3-2.66,20.93-3.82,31.35-.63,5.69-.84,11-4.35,15.79-3.2,4.33-6.57,8.61-10,12.75-4,4.83-11.06,6.31-16.79,8.44l-17.78,6.64,3.17,2.41q-.12-12.82-.23-25.64a2.52,2.52,0,0,0-1.83-2.41l-1-.16,1.49,3.67c5.11-7.59,10.26-14.66,18.1-19.62,5.86-3.7,11.81-6.88,15.78-12.79,4.25-6.32,9.35-12.12,11.83-19.45,1.11-3.28.84-6.38,2.9-9.13,2.21-3,3.9-5.82,5.82-9C516.18,240.55,511.86,238,510.18,240.78Z"/><path class="cls-9" d="M445.67,13.24q-8.42-5.2-17-10.18c-11.19.35-22.39.81-33.58,1.25H395Q384,15.77,372.37,26.6c-5.74,5.34-11.63,10.61-16.34,16.88s-8.22,13.73-8.43,21.57c-.18,6.34,1.78,12.53,3.72,18.57l10.88,33.89a43,43,0,0,0,4.33,10.31c3.12,4.83,8,8.18,12.18,12.12a54.52,54.52,0,0,1,15,24.76l1.07-1.94a110,110,0,0,1,38.71-1.2c-.75-8.15-1.12-16.34-1.1-24.52a10.54,10.54,0,0,1,.93-5.2,9.93,9.93,0,0,1,2.73-2.79A87.26,87.26,0,0,1,489.88,111c2.48-20.34,4.75-42-4.3-60.4C477.41,34,461.37,23,445.67,13.24Z"/><path class="cls-2" d="M446.93,11.08q-5.35-3.3-10.76-6.53C433,2.64,430.5.55,426.74.62c-9.55.18-19.11.69-28.65,1.07-3.66.14-4.17.16-6.8,2.87q-4.55,4.7-9.21,9.29c-6.36,6.26-13,12.17-19.39,18.44-10.6,10.45-19.51,23.5-17.14,39.09,1.4,9.21,5.06,18.19,7.89,27,2.68,8.33,5,16.94,8.19,25.07,3.07,7.74,8.79,12.22,14.73,17.7a53.13,53.13,0,0,1,14.92,24.18,2.53,2.53,0,0,0,4.57.6c1.11-2,1.56-1.22,4.13-1.65a107.15,107.15,0,0,1,11.31-1.25,110.66,110.66,0,0,1,21.52.91c1.45.2,3.32-.61,3.16-2.41-.66-7.53-1.07-15.07-1.1-22.63,0-1.71-.22-4.28.59-5.82s3.16-2.92,4.57-3.93a83.92,83.92,0,0,1,8.65-5.4,85.84,85.84,0,0,1,41.2-10.29,2.57,2.57,0,0,0,2.5-2.5c2.45-20.23,4.73-41.86-4.28-60.89C479.77,32.5,463,21,446.93,11.08c-2.74-1.7-5.26,2.62-2.52,4.32,15.29,9.5,31.51,20.35,39.37,37.22,8.47,18.17,5.93,39.14,3.6,58.37l2.5-2.5a91,91,0,0,0-46.68,12.66c-5.12,3-12.25,6.72-13.19,13.2-1.27,8.7.19,18.51,1,27.21l3.17-2.41a116.76,116.76,0,0,0-26.55-.82A92.22,92.22,0,0,0,395.91,160c-2.7.61-3.11,1.16-4.38,3.45l4.57.6a58.69,58.69,0,0,0-8.78-18c-3.81-5.23-8.59-9.21-13.33-13.54-6-5.45-8.18-11.87-10.59-19.37q-3.93-12.24-7.85-24.47c-2.51-7.81-5.92-16-5.4-24.4S355.21,48,360.64,41.74c10.2-11.85,23.72-20.8,33.54-33,1.62-2,1-2,3.91-2.08L405,6.42l13.83-.53c5.63-.2,9.16-.38,14,2.52q5.81,3.43,11.54,7C447.15,17.09,449.67,12.77,446.93,11.08Z"/><path class="cls-9" d="M577.53,4.15c-15.39.1-30.79.26-46.18.07S500.66,3.05,485.3,2.64c-18.22-.49-36.44-.2-54.65.36,0,.16,0,.32,0,.48l-.12,1.25C445.17,12.94,460,21.27,472.3,32.79s21.91,26.72,23.36,43.49c1,11.27-1.74,22.49-4.44,33.48q13.26,3.1,26.64,5.63a113.9,113.9,0,0,1,29.32-38.74c7.84-6.71,17.07-12.51,27.35-13.4,2.9-.25,6.18-.25,8.21-2.33a9.92,9.92,0,0,0,2.09-4.51c4.43-17,4-34.93.89-52.24C583,4.14,580.28,4.13,577.53,4.15Z"/><path class="cls-2" d="M577.53,1.65c-24.37.16-48.69.22-73-.8-24.63-1-49.2-1.09-73.84-.35a2.57,2.57,0,0,0-2.5,2.5c-.06.58-.12,1.15-.17,1.73a2.45,2.45,0,0,0,1.23,2.16c18.74,10.48,38.45,21.38,51.5,39a63.54,63.54,0,0,1,11.92,26.41c2.21,12.37-.88,24.85-3.82,36.82a2.55,2.55,0,0,0,1.75,3.08q13.26,3.09,26.64,5.63a2.57,2.57,0,0,0,2.82-1.15,114.27,114.27,0,0,1,21.53-31.31c9.19-9.4,20.22-18.27,33.72-19.65,4.28-.43,8.4-.91,10.67-5,2.55-4.67,3-11,3.71-16.2,1.79-13.66.85-27.41-1.52-40.93a2.52,2.52,0,0,0-2.41-1.84q-4.1,0-8.19,0c-3.21,0-3.22,5,0,5q4.1,0,8.19,0l-2.41-1.83c2.4,13.73,3.25,27.9,1,41.72a63.69,63.69,0,0,1-1.92,9.18c-1.37,4.33-3.72,4.55-7.89,5a44,44,0,0,0-14.4,4.13c-19.82,9.56-35.26,29.76-44.42,49.25l2.82-1.15q-13.38-2.55-26.64-5.63l1.74,3.07c3-12.18,5.92-24.66,4.17-37.26C496.36,62.83,492,53.09,486,44.62c-13.54-19.09-34.21-30.86-54.22-42L433,4.73c0-.58.11-1.15.17-1.73l-2.5,2.5c24.64-.74,49.21-.68,73.84.35,24.35,1,48.67,1,73,.8C580.75,6.63,580.76,1.63,577.53,1.65Z"/><path class="cls-9" d="M674.46,99.7c-1.91-8.16-5.4-17.14-1.31-24.46-10.68,3-22,.21-32.75-2.52L606,64c-3.82-1-7.61-2.49-11.56-2.5-24.89,0-35.49,3.12-47.25,15.19C541,83,535.6,88.06,530.07,94.92c-3.63,4.5-5.63,11.78-9.68,15.9a5,5,0,0,0-1.68,2.67c-.33,2.73,3.49,3.91,4.83,6.32.88,1.57.6,3.58,1.39,5.21.92,1.9,3,2.83,4.81,4,6.53,4.13,9.56,11.92,12.18,19.18,4.56,12.64,9.18,25.69,8.44,39.1l3.73-2.13a95.62,95.62,0,0,1,61.84,33.29c23.19-12.76,46-29.85,55.22-54.66,4.74-12.72,5.52-26.56,5.48-40.14C676.6,115.6,676.3,107.51,674.46,99.7Z"/><path class="cls-2" d="M676.88,99c-1.77-7.22-5-15.35-1.57-22.54a2.53,2.53,0,0,0-2.82-3.67c-11.24,2.77-22.41-.23-33.34-3s-21.7-5.38-32.49-8.27c-14.34-3.84-31.45-3.89-45.41,2a47.31,47.31,0,0,0-14.17,9.63c-6.65,6.38-13.61,13.07-19.17,20.44-2.35,3.11-3.86,6.67-5.7,10.08-1.64,3-5.49,5.94-6,9.41-.37,2.81,1.54,4.33,3.31,6.09,2.67,2.65,2.07,6.34,4.72,9,3.36,3.38,7.42,4.87,10.11,9.16s4.33,9.23,6,14c4.15,11.61,7.89,23.37,7.42,35.84a2.52,2.52,0,0,0,3.76,2.16c1-.58,2.42-1.83,3.52-2,.94-.16,3.31.84,4.47,1.05,1.53.28,3.07.61,4.59,1a92.52,92.52,0,0,1,19.23,6.84,94.85,94.85,0,0,1,30.73,23.92,2.55,2.55,0,0,0,3,.39c19.9-11,39.68-25,51.21-45.1,6.17-10.81,9.09-22.83,10.15-35.16,1.17-13.58,1.26-27.92-1.67-41.28-.7-3.14-5.52-1.82-4.83,1.33,2.72,12.33,2.55,25.55,1.65,38.1s-3.85,24.88-10.4,35.81c-11.22,18.72-29.89,31.6-48.63,42l3,.39a98.48,98.48,0,0,0-55.23-32.71c-2.57-.52-6.42-1.8-9.05-1.22-1.48.33-3,1.64-4.32,2.38l3.76,2.16c.35-9.43-1.53-18.61-4.33-27.58-2.53-8.07-5.09-16.84-9.44-24.17A26.53,26.53,0,0,0,532.7,128c-1.22-.94-2.75-1.55-3.9-2.54-2.49-2.17-1.67-4.08-3-6.65a10.45,10.45,0,0,0-2.31-2.78c-1.76-1.67-2.47-1.52-.91-4,2.07-3.28,4.15-6.33,5.95-9.82,4.25-8.27,11.32-14.67,17.79-21.22,4.57-4.62,9.07-9.1,14.95-12s12.48-4.06,19-4.59c4.12-.34,8.29-.51,12.43-.47,5.41,0,10.32,1.81,15.52,3.13C619.61,70,631,73,642.43,75.81c10.36,2.57,20.85,4.44,31.39,1.84L671,74c-4.21,8.69-1.1,17.55,1.06,26.39C672.82,103.49,677.64,102.17,676.88,99Z"/><path class="cls-9" d="M541.9,302.17c12.31,6.27,25,12.86,33.56,23.72,17.5-18.34,33.18-39.16,41.12-63.24a6.35,6.35,0,0,0,.46-3c-.28-1.62-1.7-2.75-3-3.75-6.74-5.14-13.14-11-17.53-18.23-2.08-3.41-3.67-7.09-5.59-10.6-7.16-13.09-18.63-23.52-25.2-36.91a3.8,3.8,0,0,0-1.57-2,3.64,3.64,0,0,0-2-.12l-5.79.74a4.64,4.64,0,0,0-2.68.93,5.26,5.26,0,0,0-1.17,2.43c-2.45,8-9.79,13.69-17.66,16.52s-16.35,3.27-24.67,4.07a2,2,0,0,0-1.42.54,2,2,0,0,0-.23,1.31l1.61,26.4c4.26-.68,8.87-1.31,12.69.69,3,1.55,5,4.43,6.66,7.29a87.41,87.41,0,0,1,11.74,53.17"/><path class="cls-2" d="M540.64,304.33c12.12,6.18,24.32,12.58,33.05,23.33a2.53,2.53,0,0,0,3.54,0c12.93-13.63,24.93-28.43,33.62-45.17q2.86-5.5,5.22-11.27c1.41-3.46,4.21-8.36,3.38-12.24-.69-3.22-4-5-6.33-6.94a73.26,73.26,0,0,1-10.94-10.62c-6.23-7.69-9.58-17.31-15.39-25.35-5.51-7.61-11.78-14.69-16.56-22.81-1.43-2.42-2.51-6.4-5.42-7.47s-8.15,0-10.88,1c-3.6,1.34-3.7,5.15-5.34,8.14-2.27,4.16-6.16,7.28-10.28,9.49-5.36,2.86-11.46,4-17.44,4.79-3.68.45-9.91-.35-13.08,1.73s-1.52,8.12-1.33,11.21L507.61,241a2.56,2.56,0,0,0,3.17,2.41c3.44-.53,7.5-1.2,10.76.44,2.61,1.31,4.29,4,5.76,6.39A80.68,80.68,0,0,1,534.89,267a87.08,87.08,0,0,1,3.81,35.2c-.3,3.2,4.71,3.18,5,0a90.72,90.72,0,0,0-6.65-43.62c-2.46-5.83-5.38-12.64-10.17-17s-11.33-3.89-17.43-2.95l3.16,2.41-.8-13.2c-.19-3.14-2.07-11.51,1-12.8s8-.75,11.37-1.25a55.92,55.92,0,0,0,12.67-3.19,32.78,32.78,0,0,0,14.45-10.69c2.36-3.23,2.76-7.57,6.94-8.82,5.67-1.7,6.42,2.83,8.94,6.82,4.29,6.8,9.52,12.92,14.29,19.36,4.92,6.65,8.26,13.86,12.42,20.95,4,6.8,9.58,12.45,15.68,17.37,1.79,1.45,3.49,2.29,4.12,4.64s-.35,4.23-1.23,6.55a122.14,122.14,0,0,1-5.18,11.71c-8.57,17-20.56,31.91-33.61,45.65h3.54c-9-11.05-21.59-17.75-34.07-24.11-2.86-1.46-5.39,2.86-2.52,4.32Z"/><path class="cls-9" d="M579,335.43c-2.43-6.87-7.46-12.57-13.26-17s-12.38-7.66-18.92-10.87l-2.44-4.35a62.91,62.91,0,0,1-43.69,34.4,84.94,84.94,0,0,1-29.51,72.43,10.6,10.6,0,0,0-3.14,3.47,9.88,9.88,0,0,0-.59,4.12c0,7.76.13,16.06,4.54,22.44a27,27,0,0,0,8.61,7.56c11.11,6.54,24.55,7.88,37.43,7.31s25.66-2.88,38.56-3c-4.68-8.44-1.82-18.92,1.4-28,7.06-20,15.35-39.59,20.38-60.18C580.66,354.45,582.22,344.46,579,335.43Z"/><path class="cls-2" d="M581.43,334.76c-3.15-8.15-8.81-14.51-15.89-19.55a100.55,100.55,0,0,0-13.37-7.77c-1.93-1-2.79-1.05-4-2.5a22,22,0,0,1-1.66-3,2.52,2.52,0,0,0-4.32,0A61.23,61.23,0,0,1,500,335.22a2.51,2.51,0,0,0-1.84,2.41,83,83,0,0,1-6,39.56c-5.25,12.57-13.38,22.55-23.37,31.62-4.55,4.13-4,9.36-3.76,15.12.29,6.06,1.31,12.3,4.78,17.42,7,10.34,21.26,14.41,33,15.7,17.95,2,35.83-2.27,53.76-2.59a2.53,2.53,0,0,0,2.16-3.76c-4.61-9.23-.64-19.71,2.59-28.74,3.58-10,7.41-19.86,10.95-29.86,6.14-17.37,15.05-38.85,9.13-57.34-1-3.05-5.81-1.74-4.83,1.33,3.46,10.77.85,21.84-2,32.43s-6.5,20.82-10.26,31c-3.56,9.67-7.59,19.27-10.49,29.16-2.41,8.21-3.3,16.63.63,24.5l2.16-3.76c-18.76.34-37.7,5.18-56.44,2.23-8.16-1.28-16.91-4-23.13-9.68S469,425.89,470,417.65c.57-4.73,4.39-6.85,7.55-9.94a82.11,82.11,0,0,0,7.54-8.49,87.78,87.78,0,0,0,18.15-61.59L501.37,340a65.91,65.91,0,0,0,45.18-35.55h-4.32a27.15,27.15,0,0,0,2.44,4.35c2.48,2.9,8.11,4.45,11.43,6.33,8.68,4.91,16.81,11.35,20.5,20.92C577.75,339.06,582.59,337.77,581.43,334.76Z"/><path class="cls-9" d="M735,362.15c-7.25-7.76-8-19.31-9.7-29.81-3.7-23.36-13.9-46-30.67-62.68s-40.36-26.91-64-25.54a4.44,4.44,0,0,0-2.33.58c-1.37,1-1.26,3-1,4.66a69.16,69.16,0,0,1,.85,15.06c-1.5,19.38-16,34.91-29.69,48.72l-11.8,11.91c-1.81,1.83-3.74,3.91-3.85,6.48s1.56,4.72,2.75,7c2.46,4.58,3,9.91,3.48,15.09q1.65,18.9,1.91,37.9l.7-.34a3.92,3.92,0,0,0,1.28,1.38A110.94,110.94,0,0,0,632,411.45c10.23,2.65,21,3.81,31.37,1.61,29.84-6.36,49.77-38.81,80.09-42.2C741.37,367.38,737.76,365.13,735,362.15Z"/><path class="cls-2" d="M736.75,360.39c-7.78-8.9-7.65-21.66-9.75-32.69a124,124,0,0,0-10.34-31.19c-9.74-20-25.55-37-45.77-46.59a86.07,86.07,0,0,0-30.6-8.23c-3.77-.27-9.88-1.34-13.23.86-4,2.61-1.92,8.72-1.59,12.44,2.31,25.67-16.05,43.52-32.72,60.35-3.87,3.91-10.45,8.53-12.09,14s3.61,11,4.79,16.24c1.68,7.45,1.74,15.48,2.18,23.09s.69,15.17.81,22.76a2.54,2.54,0,0,0,3.77,2.16l.69-.34-3.42-.9c4,5.53,12.55,9.48,18.45,12.51a114,114,0,0,0,21.75,8.51c15,4.12,30.51,4.77,45-1.37,24.16-10.24,41.76-35.25,68.83-38.68,1.69-.22,3.36-2,2.16-3.77-2.47-3.58-5.86-6.14-8.9-9.2-2.26-2.29-5.8,1.24-3.53,3.53,2.71,2.73,5.91,5,8.11,8.2l2.16-3.76C718.78,371.49,702,391,681.51,403a59.88,59.88,0,0,1-43.35,7.31,105.42,105.42,0,0,1-23-7.42,107.54,107.54,0,0,1-10.85-5.68c-3.27-1.95-8.3-4.23-10.53-7.32a2.58,2.58,0,0,0-3.42-.9l-.7.34,3.76,2.16c-.2-12.65-.77-25.3-1.91-37.9-.43-4.82-.93-9.69-2.81-14.2-1.16-2.75-4.22-6.25-2.88-9.44,1.12-2.66,4.54-5.09,6.51-7.08,14.18-14.32,31.14-29.23,36.71-49.37a48.43,48.43,0,0,0,1.67-14.72c-.1-2.63-.41-5.25-.73-7.86-.59-4.86,1.59-4.43,5.48-4.4a78.28,78.28,0,0,1,32.15,7.39c20.14,9.32,35.55,26,45.07,45.87a121.86,121.86,0,0,1,10.29,34c1.67,10.74,2.79,21.66,10.23,30.16C735.34,366.35,738.87,362.8,736.75,360.39Z"/><path class="cls-9" d="M742.93,421.61c-2.88-15.2-1.5-31.84-9.61-45a3.52,3.52,0,0,0-1.66-1.64,3.56,3.56,0,0,0-2.48.36c-11.7,4.88-20.94,14.13-31.5,21.14A92.35,92.35,0,0,1,593,394.7a109.57,109.57,0,0,1-9.88,25.89l.79,1.19c16.85,8.82,28.72,25.48,45.94,33.58,11.72,5.52,25.1,6.61,38,5.67a50,50,0,0,0,11.08-1.81,64.87,64.87,0,0,0,9.83-4.29q6.79-3.37,13.65-6.62c14.21-6.7,29.52-13,45.12-11.22A79,79,0,0,1,742.93,421.61Z"/><path class="cls-2" d="M745.34,421c-1.57-8.8-1.87-17.75-3.33-26.56-1-6.2-2.76-16-7.63-20.53-4.5-4.16-12.73,2.27-16.57,4.78-7.17,4.7-13.6,10.4-20.7,15.2-31.17,21-72.2,20.14-102.86-1.3a2.52,2.52,0,0,0-3.67,1.5A112.84,112.84,0,0,1,581,419.33a2.52,2.52,0,0,0,0,2.52c1.24,1.87,2.51,2.49,4.45,3.63a85.86,85.86,0,0,1,9.84,6.88c5.82,4.64,11.23,9.75,17,14.42,11.52,9.31,23.92,15.18,38.78,16.63a91.05,91.05,0,0,0,23.09-.57c8.21-1.31,15.34-5.51,22.72-9.1,15.87-7.69,32.57-15.91,50.7-14.15a2.52,2.52,0,0,0,2.41-3.17A88.74,88.74,0,0,1,745.34,421c-.63-3.16-5.45-1.82-4.82,1.33a87.89,87.89,0,0,0,4.61,15.47l2.41-3.16c-15.17-1.47-29.5,3.81-43.08,10-7.33,3.35-14.42,7.25-21.78,10.5-7.94,3.5-16.88,3.92-25.45,3.68-16.41-.46-30.11-6.2-42.67-16.56-5.33-4.39-10.38-9.1-15.78-13.41-2.23-1.78-4.5-3.52-6.86-5.12-1.87-1.28-5.46-2.58-6.65-4.38v2.52a118.49,118.49,0,0,0,10.13-26.48l-3.67,1.49a95.87,95.87,0,0,0,92.7,9.59c15.48-6.68,26.83-19.06,41.55-26.85,1-.52,1.95-1,2.95-1.46q2.48-1.35,3.06,1.14c1,1.25,1.93,4,2.43,5.34a64,64,0,0,1,3,12.74c1.22,8.29,1.59,16.66,3.07,24.92C741.08,425.44,745.9,424.1,745.34,421Z"/><path class="cls-9" d="M575.47,433.47q-8,18.54-16,37.1a34.17,34.17,0,0,1-3.86-8.85c-.54-2-1-4.16-2.44-5.61-2.5-2.47-6.61-1.72-10-.85-14,3.59-28.67,6.3-43,4.05S471.72,449,465.45,436c-2.47-5.15-3.43-11.84.28-16.18l-1.51-2.93c-12.12,16.75-8.47,40.56-18.1,58.86a54.42,54.42,0,0,1-13.55,16.23c-2.12,1.77-4.4,3.47-5.71,5.9-2.8,5.19-.2,11.6,3,16.56a75.61,75.61,0,0,0,40,30.9c7.09,2.32,14.49,3.56,21.65,5.69,17.75,5.28,34.39,16.92,41.79,33.9-3-19.19,6.55-38,17.27-54.24s23.2-32.11,27.13-51.14C580.75,464.37,578.11,448.7,575.47,433.47Z"/><path class="cls-2" d="M573.31,432.21l-16,37.09h4.32c-4.26-7.25-4.09-18.49-15.13-17.22-5.4.63-10.7,2.47-16,3.51a101,101,0,0,1-20,2c-10.83-.09-21.62-2.68-30.62-8.89-7.64-5.27-19-18.13-11.94-27.69a2.5,2.5,0,0,0,0-2.52l-1.51-2.94c-.92-1.79-3.32-1.44-4.32,0-8.84,12.74-9.52,28.36-12.75,43-1.77,8.1-4.51,15.79-9.6,22.42a61.12,61.12,0,0,1-8.91,9.14c-2.82,2.42-5.79,4.75-7,8.44-2.25,6.93,1.73,14.12,5.6,19.64A78.53,78.53,0,0,0,464,545.83c8.35,3.41,17.25,4.82,25.88,7.31,17.51,5.06,33.51,16.08,41.19,33,1.28,2.83,4.92.6,4.57-1.92-4-28.72,18-52,31.84-74.68,6.37-10.42,11.62-21.64,13.31-33.84,2-14.35-.46-28.77-2.91-42.91-.54-3.16-5.36-1.82-4.82,1.33,2.63,15.21,5.36,31.05,1.8,46.34-3,12.81-9.92,24.19-17.14,35-14,21.07-30.62,43.26-26.9,70.06l4.57-1.92c-5.81-12.79-16.34-22.7-28.7-29.14-14.27-7.44-30.66-8.16-45-15.15a74.16,74.16,0,0,1-19.2-13.45c-5.48-5.31-12.29-12.65-13.91-20.35-1.26-6,2.38-8.9,6.42-12.36a61.26,61.26,0,0,0,8.5-8.84,53.75,53.75,0,0,0,9-17.76c4.86-16.12,4-34.17,13.94-48.47h-4.32l1.51,2.93v-2.52c-5.83,7.92-1.52,18.4,3.87,25.32,6.07,7.82,14.85,13.14,24.23,16.06,11.46,3.56,23.69,3.18,35.42,1.33,6.52-1,12.85-3.21,19.35-4.14,5.34-.77,5.91,3,7.2,6.84a41,41,0,0,0,3.64,7.9c.86,1.47,3.55,1.78,4.32,0q8-18.56,16-37.1C578.89,431.81,574.59,429.26,573.31,432.21Z"/><path class="cls-9" d="M464.18,544.64a93.71,93.71,0,0,1-14.42-7.2c-3.77-2.19-7.56-4.49-10.48-7.72-4-4.38-6-10.09-8-15.65-2-5.71-4.06-11.81-2.68-17.71l-.3-1.84A325.07,325.07,0,0,1,378.48,520a4,4,0,0,0-1.45.86c-1,1.1-.47,2.86.17,4.23a111.15,111.15,0,0,0,14.34,23c14.58,18,34.32,30.94,53.73,43.58a13.52,13.52,0,0,0,3.34,1.76c3.17,1,6.53-.46,9.48-2,12.62-6.51,24-15.16,35.29-23.77,4.47-3.41,9.07-7,11.84-11.86C492.67,549.13,477.52,549.59,464.18,544.64Z"/><path class="cls-2" d="M464.85,542.23c-10-3.9-22.27-9.83-27.43-19.72a75.56,75.56,0,0,1-5.69-15.22c-1.23-4.58-.26-8.92-1-13.44a2.52,2.52,0,0,0-3.68-1.49q-11.51,7.15-23.53,13.41c-8.41,4.34-17.21,7.72-25.69,11.86-5.26,2.57-3.84,6.69-1.6,11.2a114.35,114.35,0,0,0,13.56,21c10.09,12.47,22.75,22.56,35.84,31.7,6.43,4.5,13,9.65,20,13.25,6.52,3.37,12.88-.59,18.6-3.85a233.59,233.59,0,0,0,24.51-16.64c6.74-5.08,14.15-9.9,18.63-17.24a2.51,2.51,0,0,0-.89-3.42c-13.07-6.62-28-6.61-41.63-11.43-3-1.07-4.35,3.76-1.33,4.82,13.21,4.67,27.81,4.53,40.43,10.93l-.89-3.42c-4.88,8-13.92,13.34-21.31,18.77a189.85,189.85,0,0,1-23.28,15.1c-2.74,1.45-5.93,3.44-9.2,2.59-1.94-.51-3.93-2.28-5.58-3.36-3.32-2.17-6.64-4.35-9.93-6.56a263,263,0,0,1-22-16.28,135.53,135.53,0,0,1-18.45-18.5,105,105,0,0,1-8-11.31c-1-1.63-7.39-10.82-6.38-12.46.56-.91,4.78-2,5.95-2.51,2.29-1,4.56-2,6.83-3q6-2.71,11.79-5.66c8.9-4.49,17.56-9.42,26-14.68l-3.68-1.5c.36,2.14-.3,4.31-.19,6.53a36.12,36.12,0,0,0,1.72,8.67c1.73,5.66,3.74,11.68,6.85,16.75,6.08,9.9,18.81,15.86,29.25,19.92C466.52,548.22,467.82,543.39,464.85,542.23Z"/><path class="cls-9" d="M431.47,433.7c-2,.81-4.11,1.62-6.17,1.09a11.76,11.76,0,0,1-3.83-2.23c-7.81-5.72-17.61-8-26-12.78a48.87,48.87,0,0,1-18.71-19.18l-.32-.63c-2.85,9.43-10.43,16.85-19.06,21.59s-18.32,7.12-27.92,9.34c-9.79,2.25-20.05,4.38-29.78,1.89-1.54,17.92-.21,37.42,11,51.46,5.9,7.36,14,12.57,20.74,19.22s12.17,15.84,10.39,25.1c-.49,2.54-1.5,5.18-.67,7.63,3.14-.4,4.85-3.72,6.7-6.29,6.72-9.34,19.53-11.18,30.74-13.82A126.44,126.44,0,0,0,429.52,491c5.66-4.62,11-9.82,14.63-16.15,9.45-16.39,6.33-37.61,15.07-54.39A291.29,291.29,0,0,1,431.47,433.7Z"/><path class="cls-2" d="M430.8,431.29c-4.06,1.59-5.92.49-9.39-1.81a54.51,54.51,0,0,0-7-3.87c-4.64-2.17-9.48-3.89-14.09-6.12a46.91,46.91,0,0,1-21.71-20.78c-1-2-3.94-1.31-4.57.6-4.36,13.17-16.71,20.77-29.26,24.92-13.59,4.5-30.18,9.37-44.43,6.15a2.54,2.54,0,0,0-3.16,2.41c-1.5,18.6-.12,38.91,12.3,53.86,6.57,7.91,15.65,13.17,22.39,20.89,3.49,4,6.51,8.76,7.5,14.05s-1.63,10.09-.6,15.27a2.53,2.53,0,0,0,3.08,1.75c3-.81,4.81-2.66,6.6-5.14,2.3-3.18,4.51-5.82,7.93-7.87,6.07-3.62,13.27-4.91,20.07-6.45a133.1,133.1,0,0,0,43.48-18c12.59-8.21,24.76-18.37,30-32.89,5.46-15.11,4.23-31.94,11.47-46.5A2.52,2.52,0,0,0,458,418.3q-13.26,7.15-27.16,13c-2.92,1.22-1.64,6.06,1.33,4.82,9.67-4,19.13-8.51,28.35-13.49l-3.42-3.42c-6.75,13.57-6.55,28.74-10.52,43.1-4.44,16.08-16.92,26.76-30.57,35.4-13.06,8.26-27.27,13.57-42.3,16.95-6.33,1.42-12.83,2.86-18.61,6a27.89,27.89,0,0,0-7.17,5.36c-2.32,2.48-3.91,6.89-7.39,7.83l3.07,1.74c-.87-4.38,1.5-9.16.85-13.76a30.69,30.69,0,0,0-4.76-12.16c-5.38-8.37-13.66-13.94-20.88-20.54-16.09-14.69-18.29-35.65-16.62-56.28L299,435.2c8.57,1.94,17.05,1.07,25.57-.67a163,163,0,0,0,24.79-6.63c13.1-4.91,24.94-13.53,29.48-27.26l-4.57.6c5.25,10.44,14.45,18.41,25,23.25,5.86,2.7,12,4.75,17.61,8s8.53,6.22,15.29,3.58C435.1,435,433.81,430.12,430.8,431.29Z"/><path class="cls-9" d="M336.2,509.69c-4.58-5.45-11-9-16.36-13.66a58.76,58.76,0,0,1-17.53-27.95,80.39,80.39,0,0,1-2.15-33.14l1.86-2.25-18.06-3c-10.88-1.8-22-3.61-32.87-2.05a2.91,2.91,0,0,0-2.94,2.27c-10.47,27-6.06,57.76,4.7,84.61a99.83,99.83,0,0,1,3.91,10.56c2.72,9.86,1.55,20.32.37,30.47,5.48-6.57,13.39-10.81,21.65-13s16.93-2.53,25.48-2.28a71.36,71.36,0,0,0,9.7-.09c4.66-.52,9.12-2.14,13.52-3.75s8.88-3.34,11.51-7.08C343.09,523.5,340.77,515.13,336.2,509.69Z"/><path class="cls-2" d="M338,507.92c-4.78-5.39-10.95-9-16.35-13.65a54.74,54.74,0,0,1-13.42-17.79,65.88,65.88,0,0,1-6.12-23.91c-.38-5.34-1.63-14.07,1.72-18.11,1.06-1.29.93-3.84-1.11-4.18-8.58-1.42-17.15-3-25.76-4.23-8.35-1.23-17.44-2.51-25.83-.91-5.49,1.05-6.18,5.89-7.62,10.79a95.61,95.61,0,0,0-3.7,23.11c-.64,15.61,2.17,31.31,7,46.12,2.63,8,6.81,15.74,8.36,24.09,1.61,8.66.48,17.64-.52,26.3-.25,2.15,2.91,3.32,4.27,1.77,7.41-8.45,17.88-12.63,28.87-14s22.19,1,32.86-2c7.5-2.08,17.91-4.91,21.54-12.57,3.38-7.12.34-15-4.21-20.84-2-2.53-5.5,1-3.53,3.53,2.88,3.68,5.09,8.71,3.87,13.45s-5.83,6.93-10,8.56a65.38,65.38,0,0,1-13.23,4c-5.06.79-10.26.18-15.36.18-16.21,0-33.16,3.4-44.31,16.12l4.27,1.76c.83-7.17,1.68-14.41,1.12-21.64s-2.87-13.45-5.49-20.06c-5.49-13.85-9.4-28.44-10.35-43.36a101.17,101.17,0,0,1,.89-22.13,85.7,85.7,0,0,1,2.25-10.26c.48-1.7,1-3.37,1.6-5,1-2.83,1.31-2.92,4.33-3.26,15.62-1.73,32,2.74,47.37,5.29l-1.1-4.18a11.74,11.74,0,0,0-2.59,4c-1.41,4.33-.91,10.35-.74,14.85a73.66,73.66,0,0,0,5.39,25.71,61,61,0,0,0,12.3,19c6.07,6.3,14,10.38,19.82,16.93C336.57,513.87,340.09,510.32,338,507.92Z"/><path class="cls-9" d="M395.52,326a9.49,9.49,0,0,0-2.89-2.56l-8-5.29a9.18,9.18,0,0,0-4.66-2c-2.3-.06-4.24,1.54-6.16,2.8-9.32,6.14-22.1,4.92-31.83-.56s-16.91-14.52-23-23.87l-1.66-.5c-5.69-.3-11.06,2.39-16.12,5l-20,10.32c-8.48,4.38-17.19,8.94-23.39,16.2C247,338.26,246,356.33,245.47,373a148.81,148.81,0,0,0,.25,19.24c.45,4.48,1.3,9,1,13.46-.43,6.12-3,11.91-3.66,18a1.68,1.68,0,0,0,.21,1.25c.41.51,1.22.38,1.87.21,11.62-3,24-1.11,35.53,2.17,5.31,1.51,10.56,3.3,16,4.22,6.88,1.16,13.92.9,20.89.63,6.26-.25,12.63-.51,18.54-2.58,5.31-1.86,10-5.1,14.64-8.31l16.21-11.21a19.12,19.12,0,0,0,4.59-3.95c3.62-4.81,2-11.69-.49-17.17s-5.75-11.15-4.89-17.1c1.18-8.17,9.33-13.06,15.52-18.52A50.19,50.19,0,0,0,395.3,333.6C396.23,331.15,396.92,328.24,395.52,326Z"/><path class="cls-2" d="M397.28,324.25c-2.53-3.07-6.49-5-9.77-7.18-2.88-1.9-5.9-4-9.52-3.14-3.35.83-6,3.55-9.13,4.85a26.21,26.21,0,0,1-13.5,1.54c-9.2-1.21-17-6.39-23.36-13a83.88,83.88,0,0,1-8.17-10.06c-1.64-2.33-2.53-4.78-5.41-5.5-7.26-1.83-15.71,3.69-21.81,6.84-8.15,4.21-16.43,8.23-24.41,12.74-14.3,8.1-23.5,19.5-26.82,35.76-3.64,17.77-2.4,35.83-1.22,53.73.34,5.23-.83,9.94-2.09,14.95-.66,2.62-2.75,7.82-1,10.39,1.57,2.29,4.22,1.39,6.44.95a54.34,54.34,0,0,1,15.38-.78c10.21.87,19.59,4.58,29.48,6.85,9.12,2.1,18.45,1.77,27.73,1.34,8.24-.38,16.05-1.57,23.35-5.62,8.61-4.77,16.72-11,24.73-16.71,6.72-4.8,9.26-10.68,7.08-18.88-2.52-9.52-11.11-18.63-3.34-28,5.5-6.64,13.21-10.85,18.48-17.83,4.5-5.95,10.54-15.15,7.25-22.75-1.27-2.95-5.58-.4-4.31,2.52,1.59,3.69-1.83,9.16-3.68,12.34a47.45,47.45,0,0,1-7.43,9.72c-4.69,4.72-10.61,8.19-14.69,13.52a18.21,18.21,0,0,0-3.36,16c1.8,7.15,7.76,13.82,6.83,21.5-.64,5.23-5.47,7.59-9.41,10.32l-11.34,7.84c-7.14,4.95-14,9.28-22.82,10.42a121.09,121.09,0,0,1-26.09.64c-8.71-.8-16.84-4.08-25.3-6.08-7.79-1.85-15.9-2.92-23.9-2.14-1.71.17-3.41.42-5.09.75a12.1,12.1,0,0,1-2.63.59c1.29.94,1.59-2,1.59-2a66.09,66.09,0,0,0,2.88-12.56c1.21-8.42-1.11-17.09-1.14-25.56,0-7.94.23-16,1-23.87,1.46-16.06,6.6-30.48,20.53-39.73,6.55-4.35,13.73-7.73,20.71-11.33,7.45-3.85,15.86-9.87,24.31-10.93,1.59-.2,2.74-.15,3.42.42,1.42,1.18,2.56,3.73,3.68,5.25a84.34,84.34,0,0,0,7.62,9,48.3,48.3,0,0,0,18.63,12.19c6.83,2.29,14.58,2.75,21.47.4,3.79-1.29,8.67-6.06,12.82-4.65,1.87.64,3.8,2.48,5.45,3.57,2.19,1.46,4.68,2.77,6.37,4.82C395.8,330.27,399.32,326.72,397.28,324.25Z"/><path class="cls-9" d="M266.76,312.5a318.08,318.08,0,0,1-36,1.92,62.42,62.42,0,0,1-13.17-1.08A65.38,65.38,0,0,1,207.53,310c-10.33-4.11-20.89-8.75-28.38-17l-.3-1.88a74,74,0,0,0-27.71,38.08c-5.87,18.81-4.41,40.47-16,56.43,10.49-1.18,20.73,4.05,28.93,10.7s15.12,14.81,23.55,21.18a71,71,0,0,0,14.29,8.36c13.2,5.77,29.11,7.2,41.73.25-2.61-4.72,1-10.26,2.84-15.35,3.69-10.4-.61-21.7-2.46-32.58A73.71,73.71,0,0,1,266.76,312.5Z"/><path class="cls-2" d="M266.76,310c-8.18.88-16.38,1.49-24.6,1.76-8.39.27-17.43.94-25.61-1.25A106.31,106.31,0,0,1,195.64,302c-4.2-2.18-13.57-6.45-14.37-11.54a2.52,2.52,0,0,0-3.68-1.49,77.52,77.52,0,0,0-29.32,41.11c-5.25,18.07-4.13,38.31-15.26,54.3a2.51,2.51,0,0,0,2.16,3.76c23.86-1.93,37.56,22.87,55.29,34.39,16,10.38,36.94,14.9,54.48,5.76a2.5,2.5,0,0,0,1.14-2.82c-2.25-5.39,2-10.59,3.36-15.68a36,36,0,0,0,.54-14.26c-1.31-10-4.49-19.43-4.4-29.6a71.9,71.9,0,0,1,22.95-51.66c2.36-2.2-1.18-5.73-3.54-3.54a77,77,0,0,0-24.31,52.12c-.56,10.63,2.18,20.39,4,30.75,1.18,6.79,1,12.9-1.67,19.32-1.89,4.58-3.74,9-1.72,13.87l1.15-2.82c-19.66,10.25-43,.95-58.42-12.69-14.1-12.48-27.91-29.83-48.82-28.14l2.16,3.76c10.13-14.55,10.5-32.51,14.19-49.26,3.94-17.88,13.68-33.58,28.6-44.35l-3.68-1.5c.88,5.53,8,9.51,12.51,12.21A123.57,123.57,0,0,0,211,314c8.58,3.06,17.41,3,26.42,2.89,9.81-.17,19.59-.82,29.34-1.87C269.93,314.66,270,309.65,266.76,310Z"/><path class="cls-9" d="M314.61,288c-7.77-9.85-21.88-11.52-32.65-18A27.53,27.53,0,0,0,301.58,261c6.68-7.46,8.71-17.88,10.2-27.78l-20.08-5.32c-5.36-1.42-10.77-2.86-15.66-5.47-13.88-7.4-21.26-22.74-27.73-37.08q-3.94-8.7-7.87-17.42l1.05-.82a104.57,104.57,0,0,0-24.69.18,52.28,52.28,0,0,0-14.55,3.67c-5.77,2.55-10.72,6.61-15.34,10.91-17.77,16.52-31.46,36.87-45,57,10,3.25,19.69,9.3,24.11,18.8,2.36,5.07,3.06,10.74,4.72,16.08,5.47,17.6,21.28,30.45,38.51,37a91.72,91.72,0,0,0,44.36,5.13c21.45-2.85,41.09-13.17,60.2-23.31a3.4,3.4,0,0,0,1.68-1.46C316,290,315.31,288.88,314.61,288Z"/><path class="cls-2" d="M316.38,286.23c-8.5-10.14-22.18-12-33.16-18.37L282,272.52A30.55,30.55,0,0,0,304.76,261c6-7.79,8-17.66,9.43-27.18a2.56,2.56,0,0,0-1.74-3.07c-16.44-4.36-35.24-6.6-46.88-20.23-10.61-12.44-16.33-29.21-23-43.91L241.7,170l1.06-.82a2.53,2.53,0,0,0-1.27-4.66c-11.31-1.16-23.35-1.05-34.4,2-10.3,2.85-18.34,9.78-25.78,17.16-16.15,16-28.91,35-41.54,53.85a2.52,2.52,0,0,0,1.5,3.67c7.13,2.43,14.11,6.07,19,11.95,5.44,6.52,5.84,14.89,8.53,22.6C173.07,288,182,297.89,192.63,305c27,18,61,17.13,90.14,5.38,8.32-3.35,16.37-7.32,24.33-11.46,4.77-2.48,14.27-5.3,9.67-12.17-1.79-2.66-6.12-.16-4.32,2.53,1,1.51-9.53,6.19-11.1,7-4.3,2.2-8.63,4.34-13,6.34a136.35,136.35,0,0,1-28.26,9.62c-19,4-39.65,1.8-57.07-7-15.39-7.77-26.92-20.14-31.12-37-1.94-7.82-4.17-14.89-10.05-20.69-5.35-5.28-12.16-8.68-19.21-11.07l1.49,3.68c11.74-17.5,23.56-35.13,38.26-50.32,7.22-7.46,15.08-15.13,25.27-18.18,10.79-3.23,22.76-3.19,33.87-2.05l-1.26-4.66-1.06.82a2.6,2.6,0,0,0-.89,3.42c7,15.57,13.08,33.13,24.72,46,12.25,13.56,31.29,16,48.12,20.42l-1.75-3.08c-2.48,16.16-8.12,34-27.41,35-2.4.13-3.5,3.37-1.26,4.66,10.55,6.08,24,7.88,32.14,17.58C314.91,292.23,318.43,288.68,316.38,286.23Z"/><path class="cls-9" d="M177.6,289.78c-5.11-9.37-8.15-19.71-12.81-29.31s-11.42-18.82-21.22-23l-1.8.25c-2,10.75-7.92,20.31-13.74,29.58q-6.12,9.75-12.29,19.47c-3.62,5.7-7.32,11.48-12.39,15.93a3.18,3.18,0,0,0-1.18,1.55c-.25,1.19.91,2.15,1.93,2.8,9,5.71,18.13,11.41,25.75,18.87s13.69,17,15.09,27.54c5.84-22.37,14.48-45.27,32.12-60.22a2.84,2.84,0,0,0,1.08-1.35A3,3,0,0,0,177.6,289.78Z"/><path class="cls-2" d="M179.76,288.52c-6.32-11.91-9.61-25.3-16.92-36.69-4.28-6.67-12.81-17.78-21.73-16.55a2.41,2.41,0,0,0-1.75,1.75c-2.74,13.14-10.53,24.29-17.57,35.47-3.63,5.76-7.19,11.57-11,17.24a64,64,0,0,1-6.25,8.22c-1.42,1.53-3.78,3-4.57,5-1.59,4.09,3,6.34,5.83,8.12a166,166,0,0,1,17,11.85c9.79,8.08,17.74,18.34,19.73,31.16.39,2.53,4.23,2.24,4.82,0,3.51-13.31,7.8-26.55,14.7-38.54a79.92,79.92,0,0,1,12.18-16.3c3.37-3.41,8-5.49,5.53-10.73-1.35-2.92-5.66-.38-4.32,2.52.2.43-10.19,10.84-11.25,12.23a96.44,96.44,0,0,0-9.42,15.3c-5.43,10.87-9.15,22.47-12.24,34.19h4.82c-1.72-11.11-7.81-20.82-15.73-28.63a103.92,103.92,0,0,0-13.59-11c-2.68-1.87-5.41-3.65-8.16-5.41-1.08-.69-3.05-1.39-3.76-2.39-1.08-1.51-.78-1,.84-2.62,8.72-8.73,14.68-20.57,21.2-30.93,6.61-10.52,13.46-21.08,16-33.42l-1.74,1.74c3.17-.44,8,4.45,10.36,6.92a54.07,54.07,0,0,1,8.8,12.66c5.29,10.15,8.47,21.24,13.84,31.36C177,293.89,181.27,291.36,179.76,288.52Z"/><path class="cls-9" d="M225.18,111.42a93.47,93.47,0,0,1,11.1.43l.7-1.54c-4.65-11.14-11.77-23-10.77-35-21.82,1.66-39,3.06-58.81,12.38a140.81,140.81,0,0,0-15.23,8.59,323.25,323.25,0,0,0-37.41,27.61c9.1,5.74,14.1,16.18,17.26,26.47,3.39,11,5.23,22.59,9.89,33.15s13,20.39,24.18,23.05c3.64-11.55,11-22.16,21.3-28.45,6.29-3.82,13.44-5.94,20.51-8,11-3.19,22.67-6.3,33.8-3.55A258.07,258.07,0,0,0,225.18,111.42Z"/><path class="cls-2" d="M225.18,113.92c3.72,0,7.4.1,11.1.43a2.41,2.41,0,0,0,2.16-1.24c2.16-4.77-1.64-9.32-3.64-13.78-3.46-7.69-6.53-15.48-6.09-24a2.51,2.51,0,0,0-2.5-2.5c-20.08,1.53-39.87,3.57-58.42,12-19.95,9-38.2,23.24-54.79,37.35-1.31,1.1-.73,3.1.5,3.92,16.36,11,17.52,33.4,23.11,50.48,4.67,14.26,13.48,28.37,28.82,32.45a2.54,2.54,0,0,0,3.07-1.75c4.5-13.67,13.66-24.92,27.14-30.45a154,154,0,0,1,20-6.19c8.38-2.15,16.88-3.48,25.44-1.6a2.54,2.54,0,0,0,3.08-3.07,268.84,268.84,0,0,0-16.77-55.72c-1.25-3-5.56-.41-4.32,2.52a262.61,262.61,0,0,1,16.27,54.53l3.07-3.08c-8.84-1.94-17.6-1-26.32,1.15-8,1.95-16.3,4.2-23.89,7.55-14.15,6.24-23.69,18.53-28.47,33l3.08-1.75c-18.44-4.91-24.6-24.87-28.77-41.24-3.9-15.3-8.05-31.87-22-41.18l.51,3.92c15.85-13.47,33.24-26.87,52.14-35.8,18.15-8.58,37.78-10.54,57.54-12l-2.5-2.5c-.67,13.09,6.15,24.63,11.11,36.29V109l-.7,1.55,2.16-1.24c-3.7-.33-7.38-.47-11.1-.43C222,109,222,114,225.18,113.92Z"/><path class="cls-9" d="M360.36,39.32l19.42-20.51a62.17,62.17,0,0,0-15.13-13.4c-42.94,1.36-87.55,2.76-133,2.29,0,.27-1.29,16-3.68,26.34-5.12,22.19-4.73,46.53,6.14,66.54v4.2c-1.77.5-2,3.19-.72,4.54s3.24,1.64,5.08,1.75c14.48.88,28.39-5,42-10s28.42-9.43,42.42-5.6c11.89,3.25,21.42,12,30.15,20.67,4,4,8.27,8.2,13.78,9.3q-4.68-18.69-11.21-36.86c-2.24-6.24-4.66-12.47-5.77-19S349,56.05,352,50.11C354,46,357.22,42.64,360.36,39.32Z"/><path class="cls-2" d="M362.13,41.09l19.42-20.51a2.57,2.57,0,0,0,0-3.53A66.35,66.35,0,0,0,369.4,5.64c-2.48-1.81-3.61-2.72-6.61-2.67s-6.25.2-9.38.29q-19.94.63-39.88,1.15c-27.27.68-54.55,1.06-81.84.79a2.57,2.57,0,0,0-2.5,2.5c-.64,6.25-1.23,12.49-2.25,18.69-1.54,9.38-3.85,18.49-4.42,28a98.12,98.12,0,0,0,2.33,28.64,78.59,78.59,0,0,0,4.53,13.43c.71,1.63,1.94,3.3,2.27,4.92a18.07,18.07,0,0,1,0,3.37l1.24-2.16c-3.58,2.18-3.51,6.84-.17,9.29,4.25,3.11,11.72,1.82,16.54,1.18,14.78-2,28.15-8.93,42.31-13.17,15.54-4.65,30.64-4.87,44.4,4.58,5.62,3.85,10.51,8.62,15.35,13.39,4.37,4.31,8.78,8.39,14.88,9.94a2.53,2.53,0,0,0,3.08-3.08c-3.69-14.54-8.4-28.67-13.36-42.82-2.32-6.63-4.45-13.55-4.12-20.66.39-8.41,4.76-14.28,10.33-20.18,2.21-2.34-1.32-5.88-3.54-3.54-5,5.31-9.61,10.79-11.12,18.12-1.41,6.9-.46,14,1.42,20.71,2.25,8.05,5.51,15.83,8.1,23.78q4.18,12.84,7.46,25.92l3.08-3.07c-8.38-2.14-14.09-10.4-20.31-15.92-5.71-5.06-12-9.68-19.09-12.52-17.48-6.95-35.91-.57-52.55,5.67-9.09,3.4-18.38,7-28.1,8.07-2.47.29-11.7,1.58-11.81-1.57,0-.22.87-1.51,1-2a11.28,11.28,0,0,0,0-3c-.15-2.69-1.49-4.59-2.61-7.08a73.26,73.26,0,0,1-4.57-13.83,95.13,95.13,0,0,1-1.89-27.35c.66-9.77,3.22-19.13,4.64-28.77.83-5.68,1.39-11.38,2-17.09l-2.5,2.5c25.68.25,51.37-.07,77-.68q18.57-.43,37.15-1l9.41-.3c2.93-.09,6.79-.93,9.52.3,5,2.26,9.75,7.91,13.2,12.08V17.05q-9.7,10.24-19.42,20.5C356.38,39.89,359.91,43.43,362.13,41.09Z"/><path class="cls-9" d="M617.17,218.72l.22-.14-.28-.73Z"/><path class="cls-2" d="M618.43,220.88l.22-.14a2.55,2.55,0,0,0,1.15-2.83l-.28-.72a2.52,2.52,0,0,0-2.74-1.79,2.47,2.47,0,0,0-2.17,2.45l.06.87a2.5,2.5,0,1,0,5,0l-.06-.87-4.91.67.28.72,1.15-2.82-.22.14a2.5,2.5,0,0,0,2.52,4.32Z"/><path class="cls-9" d="M754.59,139c-4.92-2.23-9-5.92-13.09-9.45-13.46-11.6-28.21-22.17-45-27.94-6.75-2.31-14.27-3.8-20.93-1.23,2.67,13.91,3.86,28.21,2,42.25s-6.77,27.85-15.45,39a104.64,104.64,0,0,1-14.39,14.62,239.46,239.46,0,0,1-30.35,22.34l1.9,5L626,241a3.84,3.84,0,0,0,1,1.74,4,4,0,0,0,2.6.53,114.13,114.13,0,0,1,51.37,11,6.05,6.05,0,0,0,3.52.88,5.91,5.91,0,0,0,2.1-1l17.1-10.88c18-11.42,36.95-24,45.11-43.7,3.3-8,4.58-16.6,7.11-24.83,4.14-13.49,12.81-26.8,26.26-31.09C773,141.84,763.12,142.83,754.59,139Z"/><path class="cls-2" d="M755.85,136.79c-7.26-3.56-13-9.55-19.2-14.57a167.74,167.74,0,0,0-18.79-13.3c-12.14-7.28-28.59-15.8-43-11a2.58,2.58,0,0,0-1.75,3.08c4.37,23.4,4.59,48.71-7.14,70.14-10.68,19.52-31.41,33.73-49.86,45.28a2.52,2.52,0,0,0-1.15,2.82q2.28,6,4.58,11.93c1.45,3.79,2.46,8.58,4.67,12,1.3,2,3.11,2.48,5.4,2.56,4.88.18,9.72.09,14.6.62a112,112,0,0,1,27.7,6.69c3.47,1.31,7.05,3.77,10.72,4.44,3,.55,5.18-1.17,7.57-2.69,25.62-16.3,55.26-31.93,63.93-63.33,4.85-17.58,9.09-38.63,28.71-45.42,2.11-.74,2.63-4.37,0-4.83-9.22-1.61-18.83-1-27.61-4.66-3-1.23-4.26,3.6-1.33,4.82,8.82,3.67,18.36,3,27.61,4.67V141.2c-12.07,4.18-20.36,14.14-25.33,25.62-6.38,14.75-6.85,30.89-16.86,44.11-8.74,11.55-21,19.91-33,27.67-3.09,2-6.2,4-9.3,5.93-3.43,2.18-7.78,6.18-11.66,7.42-3.4,1.08-8.1-2.19-11.25-3.41a112,112,0,0,0-12.16-4,117.56,117.56,0,0,0-26.84-3.85c-3-.07-5.65.72-7.39-2.19-1.2-2-1.84-4.78-2.67-7l-5.25-13.67-1.15,2.83c19.64-12.3,41.55-27.51,52.46-48.57,11.61-22.42,11.37-48.25,6.84-72.5l-1.74,3.07c14.41-4.8,31.76,5.57,43.49,13.23A180.09,180.09,0,0,1,737.11,129c5.19,4.36,10.08,9.06,16.21,12.07C756.2,142.52,758.74,138.21,755.85,136.79Z"/><path class="cls-9" d="M667.82,5.88c-14.26,1.53-26.6-.47-41.93.86-13.56,1.17-26.71-2.43-40.19-2.57A96,96,0,0,1,589.12,28c0,10.5-2.1,20.9-4.92,31l0,1.24c6.75-1.77,13.89-.26,20.64,1.54,20.56,5.49,40.82,13.79,62.1,13.88a3.81,3.81,0,0,0,1.84-.31,3.74,3.74,0,0,0,1.35-1.7c3.69-7.52,4.57-16.07,5.22-24.42.5-6.43.89-12.93,0-19.32C674.25,22.36,670.76,13,667.82,5.88Z"/><path class="cls-2" d="M667.82,3.38c-13.32,1.3-26.69-.17-40,.71C613.59,5,599.85,2,585.7,1.67a2.53,2.53,0,0,0-2.41,3.17c2.48,9.74,3.85,19.6,3.09,29.66a104,104,0,0,1-2.31,14.89c-.8,3.57-2.33,7.24-2.4,10.9a2.54,2.54,0,0,0,3.17,2.41c7.75-1.72,15.37.41,22.82,2.5,7.07,2,14.05,4.22,21.1,6.27A196.24,196.24,0,0,0,650,76.61c3.19.54,6.41,1,9.64,1.26,2.74.24,6.2.94,8.87.21,4.61-1.26,6-8.14,7-12.11,1.67-6.68,2.17-13.7,2.58-20.55C679,31,675.67,18.5,670.23,5.21c-1.2-2.94-6-1.65-4.82,1.33,5,12.12,8.45,23.72,7.79,36.94-.34,7.05-.8,14.29-2.52,21.16-.55,2.22-1.49,7.66-3.77,8.57s-7.48-.32-10-.61c-13.09-1.54-25.72-5.58-38.29-9.38-11.24-3.39-23.3-8-35.15-5.34l3.16,2.41c.08-4.27,2.16-9,3-13.2a106.24,106.24,0,0,0,1.85-14.43c.53-9.86-1-19.62-3.39-29.15L585.7,6.67c14.15.3,27.89,3.37,42.09,2.42,13.34-.9,26.71.59,40-.71C671,8.06,671,3.06,667.82,3.38Z"/><path class="cls-9" d="M542,176.39c-2.81-9.73-7.84-18.63-11.89-27.9s-7.19-19.37-5.85-29.41l-39.53,11-49.4,3,2.25.35-4.67.78.36,17.24c.08,3.6.21,7.39,2.11,10.44a20.28,20.28,0,0,0,5.65,5.34q16.32,11.9,32.1,24.5c1.65,1.31,3,8.29,3.15,10,.25,2.86,3.3,4.71,6.16,5s5.72-.41,8.59-.3c4.9.17,9.38,2.7,14.14,3.86,7.3,1.78,15,.27,22.32-1.23l11.9-2.44a7,7,0,0,0,3.12-1.2c1.24-1.06,1.55-2.84,1.72-4.47A65.15,65.15,0,0,0,542,176.39Z"/><path class="cls-2" d="M544.38,175.72c-5.73-18.89-19.86-36-17.65-56.64.17-1.64-1.74-2.81-3.17-2.41L486.29,127c-.68.19-1.37.43-2.06.58-.19,0,.89-.11-.16,0-2.28.25-4.61.28-6.91.42l-24.47,1.5L435.3,130.6c-2.63.16-3.61,4.44-.66,4.91l2.24.35V131l-4.67.78a2.51,2.51,0,0,0-1.83,2.41q.17,7.67.32,15.32c.09,3.91,0,8,1.52,11.68,3,7.19,12.43,11.75,18.34,16.19q6.66,5,13.23,10.14c3.42,2.67,7.6,4.8,8.88,9.12,1.53,5.16,1.16,10.08,7.25,12,3.67,1.19,7.35,0,11.08.22,4.73.25,8.94,2.69,13.47,3.77,9,2.14,18.21-.12,27-1.93,6.3-1.29,13.62-1.1,15-8.59,1.61-8.58.13-18.15-2.15-26.47-.85-3.1-5.67-1.78-4.82,1.33a66.17,66.17,0,0,1,2.27,12.4c.25,3.27.92,8.3-.13,11.51-1.37,4.15-6.15,3.9-9.8,4.65s-7.1,1.53-10.67,2.12c-4.79.8-9.71,1.32-14.51.35-3.54-.71-6.8-2.3-10.27-3.23a26.62,26.62,0,0,0-8.89-.76c-4.22.26-7.62.8-9-4-1.31-4.47-1.41-8.17-5.16-11.3-5.82-4.84-11.95-9.37-18-13.94q-5-3.76-10-7.47c-3.34-2.46-7.49-4.72-8.85-8.9-1.11-3.4-.79-7.3-.86-10.83q-.14-6.7-.28-13.41l-1.84,2.41,4.67-.78c2.38-.39,2.4-4.44,0-4.82l-2.24-.35-.67,4.91,39.95-2.44c3.53-.22,7.25-.11,10.72-.83,6.6-1.39,13.14-3.66,19.64-5.47l19.28-5.37-3.16-2.41c-2.28,21.26,11.95,38.59,17.83,58C540.49,180.12,545.32,178.81,544.38,175.72Z"/></g></g></svg>