<svg xmlns="http://www.w3.org/2000/svg" viewBox="0 0 293.51 232.48"><defs><style>.cls-1{fill:#81c6d8;}.cls-2{fill:#38301f;}.cls-3,.cls-5{fill:#979b3d;}.cls-3{stroke:#38301f;stroke-miterlimit:10;stroke-width:0.35px;}.cls-4{fill:#a5c08a;}.cls-6{fill:#ad968a;}.cls-7{fill:#723a29;}.cls-8{fill:#a34928;}.cls-9{fill:#eae3ca;}</style></defs><title>plant2</title><g id="Layer_2" data-name="Layer 2"><g id="Plant"><path class="cls-1" d="M281.16,31.55c-6.73-14.46-15.1-23-21.42-29.52L26.11,3.46A151.41,151.41,0,0,0,1.9,78.36C.93,99,3.61,134.52,27.08,168.43a144.72,144.72,0,0,0,62,50.37c8.28,3.53,59.05,24.23,112.67.64,26.65-11.72,42.38-29.27,50.69-38.74,8.89-10.14,31.53-36.64,37.45-77.8C291.69,90.28,295.37,62.07,281.16,31.55Z"/><path class="cls-2" d="M282.68,30.66a100.79,100.79,0,0,0-17-25c-2-2.15-3.72-5-6.7-5.39-4.39-.5-9.16,0-13.57.08L182.64.74,39.23,1.62c-3.95,0-8.78-.72-12.67.08-2.6.53-3.63,3.44-4.94,5.66a154.81,154.81,0,0,0-10.11,20.2C-3.57,64-4,106.13,11.08,142.64c27.82,67.52,106.49,105.19,176.6,83.88,32.5-9.88,58.79-32.54,78.2-59.88,20.89-29.42,31.35-67.12,26.43-103.1a117.71,117.71,0,0,0-9.63-32.88c-.94-2.06-4-.27-3,1.77,16.68,36.69,12.1,81.11-6.68,116.14-13.78,25.7-35.62,49.67-61.13,63.9-64.9,36.18-150.91,9.87-188.36-52.89C2.75,124.85-1.87,81.57,9.74,43a149.37,149.37,0,0,1,9.81-24.54q2.19-4.34,4.65-8.52a24.64,24.64,0,0,0,2.21-3.65c.31-.86,1.81-1.77-.25-1,2.42-.86,6.66,0,9.18-.06l130.91-.8L233,4l20.44-.13a32,32,0,0,1,5.09,0c.31.05.78-.12,1.07,0,0,0,.12,0,.16,0-1.13-.55.53,1.26.64,1.43a29.6,29.6,0,0,0,2.78,2.94,97.53,97.53,0,0,1,16.49,24.27C280.61,34.48,283.65,32.69,282.68,30.66Z"/><rect class="cls-3" x="102.63" y="42.02" width="82.22" height="73.74"/><path class="cls-2" d="M271.15,29.49C264.89,15,260.46,8.55,254.59,2L38.07,3.29c-7.24,12-23.41,30.06-25,66.54-.9,20.67-4.28,49.65,17.55,83.56,19.81,30.78,51.5,51.37,63.51,56.88,7.71,3.53,54.93,24.23,104.79.65,24.79-11.73,40.52-27.42,48.24-36.89,8.28-10.14,31.08-38.2,33.73-79.66C281.71,81.67,284.37,60,271.15,29.49Z"/><path class="cls-2" d="M271.91,29c-3.61-8.25-7.57-16.39-13.19-23.49-1.56-2-2.62-3.94-5-4.39-4.14-.79-9.26.05-13.46.08l-61.89.36L45.85,2.37c-2.11,0-6.5-.85-8.41.3C36.17,3.44,34.84,6.72,34,8c-1.86,2.8-3.73,5.6-5.5,8.46a112.4,112.4,0,0,0-9.56,19.21c-6.28,16.62-7.25,34.47-7.45,52.07-.22,18.68,3.15,37,11.43,53.81,9.19,18.69,23.26,34.78,39.1,48.15,9.86,8.32,20.67,16.36,32.5,21.69,30,13.5,65.76,15.63,96.57,3.82,61.38-23.53,100.54-90.69,90-155.73A132.25,132.25,0,0,0,271.91,29c-.44-1-2-.14-1.52.89,14.4,33.88,13.83,74.12-1.22,107.78a146.44,146.44,0,0,1-55.49,64.15c-33.8,21.09-74.26,24.63-111.47,10.8a114,114,0,0,1-25.68-14C61,187.78,46.71,174.45,35.53,159,23,141.74,15.2,121.83,13.6,100.53c-1.24-16.52-.65-34.84,3-51C19.93,34.87,26.79,22,35.05,9.59c1.21-1.83,2.52-5,3.68-5.42s3.06,0,4.2,0l119.83-.69,65.34-.38L248,3a30,30,0,0,1,5.28,0c2.16.39,2.13,1.26,3.89,3.45,5.67,7.09,9.63,15.29,13.25,23.56C270.84,31,272.36,30.07,271.91,29Z"/><path class="cls-4" d="M130.39,75.94c1.43.69,5.63-1.93,7.59-6.3,1.64-3.67,1.47-7.09,2.74-7.26.74-.1,1,1,2.26,1.94,2.58,1.82,5.08-.39,9.52,0,1.3.11,1.15.3,9.37,3.71,5.61,2.32,6.33,4,6.49,3.72.46-.7-4.3-6.12-7.62-8.56-4.92-3.63-7.38-5.44-11.3-6.14A16.44,16.44,0,0,0,139,58.34c-6.22,3.17-7.88,9.6-8.4,11.62C130.46,70.31,128.83,75.19,130.39,75.94Z"/><path class="cls-2" d="M130.16,76.79c3.75.8,7.22-3.85,8.58-6.7a23.33,23.33,0,0,0,1.13-3.23c.2-.82.41-1.65.6-2.47.78-.65,1.41-.46,1.89.55,1.51.53,2.09,1,3.83.92,2.37-.12,4.69-1.09,7.07-.51a35.89,35.89,0,0,1,5.12,2.17c3,1.29,5.75,2.81,8.62,4.31.61.32.79,1,1.59.77a.91.91,0,0,0,.65-.85c0-4.12-7.18-8.71-10.11-10.82-4.7-3.39-9.61-5.77-15.56-4.93a16.3,16.3,0,0,0-12.72,10.22c-1.08,2.6-3.38,8-1.08,10.34.79.81,2-.43,1.24-1.24-1.65-1.71,1.45-8.7,2.36-10.29a14.87,14.87,0,0,1,17-6.89c5.1,1.38,10,5.43,13.65,9.14.77.8,2,3,2.95,3.44.29.14,1.89,1.06,1.3-.13-.5-1-2.9-1.91-3.75-2.33a67.76,67.76,0,0,0-10.29-4.43c-2.31-.7-4.45-.09-6.8.06a5.48,5.48,0,0,1-4.78-1.12L142,62c-.42-.09-.46-.44-1-.48a1.92,1.92,0,0,0-1.39.58c-1,.79-1.07,3.21-1.39,4.28-.76,2.53-3.67,9.53-7.55,8.7C129.52,74.85,129.05,76.55,130.16,76.79Z"/><path class="cls-4" d="M129.42,88.53a15.59,15.59,0,0,0,.81,9.52c2.39,5.18,7.29,7,9,7.75,1.39.57,10.29,1.6,13.88-.48,2.54-1.48,2.58-1.78,4.52-1.78,2.39,0,5.18,1.52,5.33,3.23.22,2.61-5.77,5-8.24,6a24.47,24.47,0,0,1-9,1.94c-3,0-6.5.11-9.69-1.94-4.32-2.76-5.51-7.69-6.46-11.62A26.9,26.9,0,0,1,129.42,88.53Z"/><path class="cls-2" d="M128.57,88.29c-2.35,13.6,10.45,22.14,23,18.59,1.38-.39,2.43-1.29,3.73-1.81a3.84,3.84,0,0,1,2.38-.65l3.49,4c-.16.73-2.76,1.77-3.37,2.08a29,29,0,0,1-13.38,3.34c-7.76-.08-11.87-4.48-13.68-11.73-1-4-1.91-9.29-.46-13.33.38-1.07-1.32-1.52-1.7-.47-2.52,7,0,19.47,5.82,24.32,7,5.82,20.15,2.89,27-2.13,1.88-1.38,3.26-3.09,1.89-5.32-2-3.25-6.48-2.68-9.27-1.36-11.09,5.25-26.18-.73-23.7-15C130.46,87.65,128.77,87.18,128.57,88.29Z"/><path class="cls-4" d="M161.06,118.65c.51,1,2,.95,3.12.89,2.3-.13,4.59.43,6.89.41a20.47,20.47,0,0,0,4.67-.66,24.66,24.66,0,0,0,9.13-4,13.57,13.57,0,0,0,5.35-8.22,20.3,20.3,0,0,0,.21-3.4,36.07,36.07,0,0,0-.6-6.88c-.8-4-2.6-7.64-4.38-11.28-.1-.2-.25-.44-.48-.44a.55.55,0,0,0-.37.17,8.69,8.69,0,0,0-2.31,3.31,24.81,24.81,0,0,0-2.18,9.28,51.47,51.47,0,0,1-.2,5.83,14.05,14.05,0,0,1-3.93,7.65c-3.67,3.76-8.92,5.43-13.95,7"/><path class="cls-2" d="M160.44,119.27c1.27,1.15,2.07,1,3.74,1.15a51.58,51.58,0,0,0,8.69.29c5.52-.58,11.59-3,15.21-7.31,3.39-4.07,3.55-9,3-14.06-.46-4.34-2.15-11.78-5.49-14.92a.91.91,0,0,0-1.06-.13c-4.15,1.9-5.07,9.62-5.3,13.52-.32,5.54-.41,10-5,13.92-3.5,3-8.1,4.34-12.41,5.68-1.08.33-.62,2,.47,1.69,5.6-1.73,11.66-3.67,15.44-8.46,4.64-5.86,2.26-13,4.56-19.64a17.57,17.57,0,0,1,1.39-3.25q2.26-1.19,2.53,1.32c1,1.21,1.93,4.58,2.39,6.25,1.23,4.54,1.87,11-.63,15.27s-7.67,6.78-12.44,7.85a24.17,24.17,0,0,1-6.17.56c-1.67-.06-6.41.15-7.66-1-.84-.76-2.09.48-1.24,1.24Z"/><path class="cls-4" d="M220.15,85.66a16.14,16.14,0,0,0-2.77-7.85,21.47,21.47,0,0,0-2.87-3.08c-4.47-4.16-9.73-8-15.81-8.54.87,2.35,2.61,4.24,4.14,6.23,4.57,5.93,7.56,13.25,13.45,17.88a1.33,1.33,0,0,1,.51.6,1.28,1.28,0,0,1-.13.81A69.08,69.08,0,0,1,213,99.25,79.4,79.4,0,0,1,202.2,113.8l-.08.12,2,2.71a67.42,67.42,0,0,0,13.75-16.08,13.81,13.81,0,0,0,1.41-2.76,15.58,15.58,0,0,0,.7-3.72A40.77,40.77,0,0,0,220.15,85.66Z"/><path class="cls-2" d="M221,85.43c-1.5-10.3-12-18.71-22.06-20.09a.9.9,0,0,0-1,1.29c1.95,4.3,5.42,7.85,7.95,11.84,2.29,3.63,4.52,7.4,7.57,10.47.46.47,2,1.41,2.21,2,.35,1-1,3.22-1.49,4.16a70.82,70.82,0,0,1-3.65,6.54c-2.7,4.27-6.25,7.79-9.17,11.84a.84.84,0,0,0,0,.89l2,2.71a.89.89,0,0,0,1.38.18,70.19,70.19,0,0,0,13-14.87c3.31-5.15,3.73-10.66,3.3-16.72-.08-1.12-1.84-1.13-1.76,0,.45,6.35-.32,11.88-4,17.19A69.83,69.83,0,0,1,203.47,116l1.38.18c-2.22-3.05.86-5,2.78-7.42,1.57-2,3.05-4.09,4.42-6.24a70.43,70.43,0,0,0,4.37-8.06c.41-.9,1.57-2.63,1.23-3.79s-2.07-2.09-3-3a48.84,48.84,0,0,1-6.09-8.2c-2.87-4.51-7-8.92-9.15-13.76l-1,1.29c9.5,1.3,19.42,9.16,20.84,18.87C219.47,87,221.16,86.54,221,85.43Z"/><path class="cls-4" d="M174.72,127.43c.24-.83.95-1.7,1-2.57C175.59,125.71,174.89,126.58,174.72,127.43Z"/><path class="cls-2" d="M175.57,127.66a15.2,15.2,0,0,0,1.05-2.8c.12-1-1.52-1.19-1.73-.23s-.81,1.66-1,2.57c-.25,1.1,1.45,1.57,1.7.46.21-.9.83-1.65,1-2.56l-1.73-.24a3.28,3.28,0,0,1-.44,1.08,8.29,8.29,0,0,0-.55,1.26C173.53,128.28,175.23,128.74,175.57,127.66Z"/><path class="cls-4" d="M171.21,133.71a24,24,0,0,1-8,5.66c-3.28,1.5-6.81,2.46-10,4.22a6.23,6.23,0,0,0-1.91,1.46c-1.3,1.6-1.08,3.9-.78,5.94l-.48.78a1.72,1.72,0,0,0-.11,1.62c6.06-2.6,12.16-5.51,16.82-10.18.75-.76,1.47-1.56,2.16-2.38a28.05,28.05,0,0,0,2-2.64c2.08-3.22,3-7,3.76-10.76A16,16,0,0,1,171.21,133.71Z"/><path class="cls-2" d="M170.59,133.09c-3.7,3.8-7.79,5.54-12.62,7.44-2.3.91-5,1.71-6.79,3.49s-1.49,3.26-1.67,5.41c-.11,1.39-.62,2.79-.37,4.2a.9.9,0,0,0,1.3.52c12.59-5.47,22.28-12.45,25.13-26.49a.88.88,0,0,0-1.7-.46,16.92,16.92,0,0,1-3.28,5.89c-.72.87.52,2.12,1.24,1.24a20.43,20.43,0,0,0,3.74-6.67l-1.7-.46c-1.33,6.55-3.83,12-8.88,16.52-4.45,4-10,6.55-15.44,8.91l1.29.53a26,26,0,0,1,.52-2.95c1.75-6.65,4-6.69,9.6-9a30.2,30.2,0,0,0,10.87-6.93C172.62,133.52,171.38,132.28,170.59,133.09Z"/><path class="cls-4" d="M206.36,124.44q-.87-3.37-1.72-6.75a22.5,22.5,0,0,1,0,5.74,30.18,30.18,0,0,1-1.21,5.07c-1.81,5.6-4.72,10.79-6.61,16.37s-2.68,11.88-.25,17.24l-.11-2.35a7,7,0,0,1,1.29,5c.45-1.64.91-3.27,1.36-4.91a28.08,28.08,0,0,1,1.4-4.21c1.21-2.67,3.21-4.91,4.71-7.43a22.88,22.88,0,0,0,3.19-10.68C208.55,133.09,207.45,128.73,206.36,124.44Z"/><path class="cls-2" d="M207.2,124.21l-1.71-6.75c-.24-.94-1.81-.78-1.73.23,1.21,15.62-14.34,28.82-8.09,44.65.34.85,1.78.84,1.73-.23l-.11-2.35-1.64.44a6.25,6.25,0,0,1,1.17,4.54.88.88,0,0,0,1.73.23c1.09-3.95,1.95-7.92,4.1-11.46,1.63-2.7,3.6-5,4.81-8,2.91-7.05,1.55-14.2-.26-21.34a.88.88,0,0,0-1.69.46c2.16,8.57,3.12,16.53-1.89,24.32a51.38,51.38,0,0,0-6.77,15.52l1.73.23a9.4,9.4,0,0,0-1.41-5.43.89.89,0,0,0-1.64.45l.11,2.35,1.73-.24c-6.11-15.46,9.35-28.71,8.15-44.18l-1.73.24c.57,2.25,1.14,4.49,1.72,6.74A.88.88,0,0,0,207.2,124.21Z"/><path class="cls-2" d="M129.12,2.44A13.93,13.93,0,0,1,132.31,7a.9.9,0,0,0,1.47.39c1.92-1.72,3.82-3.44,5.63-5.27a.89.89,0,0,0-.62-1.5c-3,.12-6,.23-9,.33-1.13,0-1.14,1.8,0,1.76,3-.1,6-.21,9-.33l-.62-1.5c-1.81,1.82-3.72,3.55-5.63,5.26l1.47.39a15.85,15.85,0,0,0-3.65-5.32C129.55.41,128.3,1.65,129.12,2.44Z"/><path class="cls-5" d="M132.86,80.78c2-2.67-6-6.6-8.28-7.26a11,11,0,0,0-8.07,1c-3.08,1.76-4.37,4.74-6.3,9.21-2.48,5.73-1.95,7.81-4.36,9.52-2.82,2-6.39,1.19-6.45,1.94s2.86.94,6.45,2.9a25.73,25.73,0,0,1,5.49,4.2c4.41,4.08,3.73,5.22,6.78,7.75,1.08.89,6.23,5.17,11.14,3.71,2.84-.84,4.48-2.58,3.6-4C126.44,99,128.13,87,132.86,80.78Z"/><path class="cls-2" d="M133.62,81.22c1.54-3.13-2.37-5.42-4.68-6.71-3.71-2.06-7.78-3.05-11.84-1.28-4.24,1.85-6.06,6.19-7.74,10.22-1,2.53-1.52,6.61-3.49,8.61s-5.34.66-7.1,2.46a.91.91,0,0,0-.13,1.07c.89,1.58,4,1.92,5.44,2.61a27.75,27.75,0,0,1,10.16,8.6c2.83,3.79,6.54,7.24,11.46,8,3.58.52,9-1.17,7.92-5.52-.61-2.53-2.5-4.9-3.18-7.54a28.35,28.35,0,0,1-.9-7.4,23,23,0,0,1,4.08-13.07c.66-.92-.86-1.8-1.52-.88a23.78,23.78,0,0,0-4.19,11.77,28.36,28.36,0,0,0,.2,7c.42,2.79,1.87,5.3,2.38,8l.75,1.54c-.14,3.32-1.47,4.76-4,4.32a8.78,8.78,0,0,1-5.62-1.5,17.63,17.63,0,0,1-4.36-3.42c-2.82-3.16-4.94-6.46-8.46-9a24.54,24.54,0,0,0-5.6-3c-2.46-1-2.62-.26-.25-.58,3-.4,4.87-2.43,5.87-5.12,1.82-4.89,3.15-12.12,8.1-15a10.19,10.19,0,0,1,9.28-.13c1.32.59,6.88,3.17,5.87,5.23C131.61,81.35,133.12,82.24,133.62,81.22Z"/><path class="cls-4" d="M152.3,45.7c4.69-3.22,9.86-6.21,15.54-6.48a35.12,35.12,0,0,1,5.79.37l9.62,1.15a1.31,1.31,0,0,1,.62.17c.6.42.17,1.35.16,2.08,0,1.07,1,1.83,1.79,2.51a20.1,20.1,0,0,1,6.12,10.28,59.78,59.78,0,0,1,1.56,12c.1,1.53,0,3.41-1.34,4.14a.94.94,0,0,1,.1-1.41"/><path class="cls-2" d="M152.75,46.46c5.18-3.5,10.56-6.51,17-6.35,2.89.07,5.81.59,8.67.93,1.55.19,2.6.1,3.8,1.15,2.37,2.06-.33-.14,1.22,2,2.26,3.15,5.13,5.29,6.66,9a34.11,34.11,0,0,1,2.12,9.36c.24,2.29,1.3,6.85-.7,8.71l1.47.39V71c.53-1-1-1.89-1.52-.89a1.83,1.83,0,0,0-.19,2.09.89.89,0,0,0,1.47.39c3.52-3.27,1.33-11.17.41-15.34a24.83,24.83,0,0,0-3.59-8.8,19,19,0,0,0-2-2.51c-1.94-2-1.2-1.44-2.51-4.19-.68-1.45-.26-1.25-1.55-1.83-2.86-1.3-8.58-1.15-11.78-1.4-7.63-.59-13.62,2.25-19.85,6.45-.94.63-.06,2.15.89,1.52Z"/><path class="cls-6" d="M80,10.75a25,25,0,0,0-7.7,3.12,20.44,20.44,0,0,0-2.68,2.33A44.92,44.92,0,0,0,60.73,29c5.46-2.14,11.44-2.48,17.3-2.72a.71.71,0,0,0,.36-.08c.22-.13.24-.43.24-.68a77,77,0,0,1,1.42-14.61Z"/><path class="cls-2" d="M79.83,10.32c-4.33,1.23-7.85,2.75-11,6a46.83,46.83,0,0,0-8.46,12.43c-.15.31.1.79.49.65A45.54,45.54,0,0,1,73.29,27c1.21-.09,4.6.46,5.48-.55,1.14-1.28.41-5.13.54-6.78.19-2.57,1.17-5.37,1-7.89,0-.73.29-.7,0-1.24s-1,0-.76.45c.51.92-.81,5.25-.94,6.49s-.23,2.44-.3,3.66c0,.45.13,4.12-.14,4.41-1,1.06-5.52.6-6.94.74a48.81,48.81,0,0,0-6.13.95c-2.12.49-4.23,2.18-2.54-.89a43.24,43.24,0,0,1,4.68-6.91,23.63,23.63,0,0,1,12.81-8.25A.44.44,0,0,0,79.83,10.32Z"/><path class="cls-7" d="M67.74,16.12c1.1-1,2.46-2.2,2.23-3.68-.19-1.21-1.37-2-2.43-2.57C64.81,8.32,62,6.69,60.22,4.09c-.26-.38-.54-.81-1-.91a1.82,1.82,0,0,0-.92.12A11.15,11.15,0,0,1,53,3.58c-1.64-.31-3.24-1-4.91-.9-1.29.07-2.51.59-3.79.74a17.62,17.62,0,0,1-3.16-.11,6.72,6.72,0,0,0-3.42.41c-2.07,1-2.8,3.49-3.82,5.54a35.77,35.77,0,0,1-2.62,4.15,75.67,75.67,0,0,0-9.84,20.52l.35-1.2a4.23,4.23,0,0,0,.93,4.76,7.22,7.22,0,0,0,4.71,1.9,27.24,27.24,0,0,0,5.17-.4,31.14,31.14,0,0,1,6.47-.32,13.78,13.78,0,0,0,4.3,0A10.6,10.6,0,0,0,46,37.47l9.94-5.82a17.46,17.46,0,0,0,3.33-2.3c2.56-2.42,3.46-6.07,5.22-9.11A17.7,17.7,0,0,1,67.74,16.12Z"/><path class="cls-2" d="M68.05,16.43c4.48-4.22,1-5.9-3-8.55-2-1.33-3.61-4.37-5.81-5.14-.27-.1-.75.17-1,.14-2.3-.21-4.32.3-6.72-.11a16,16,0,0,0-4.14-.42c-2.36.16-4.7.4-7.07.51a6.13,6.13,0,0,0-3.32.86c-2.42,1.61-3.19,5.07-4.68,7.43A120.19,120.19,0,0,0,25.2,23.08Q24,25.51,23,28a14.92,14.92,0,0,0-1.22,3.3c0,.26-.1,3.21.38,1.53a.44.44,0,0,0-.85-.23c-1,3.28.83,5.91,4,6.85,2.9.86,5.9,0,8.82-.23s6.29.54,9.16-.11c2.19-.5,4.23-2.1,6.14-3.21,2.94-1.72,6.21-3.23,8.91-5.32,4.67-3.61,5.48-10,9.64-14.16a.44.44,0,0,0-.62-.62C65,18.27,63.61,21,62.09,24.12c-2.39,4.88-6,6.94-10.55,9.58-1.91,1.11-3.8,2.46-5.8,3.39-3.44,1.6-4.92,1.09-8.3,1.08-2.22,0-4.37.41-6.57.61a19,19,0,0,1-3.45.17q-5.3-10-6.42-5.14a.44.44,0,0,0,.85.24,78.93,78.93,0,0,1,7.89-17.47C31.21,14.19,33,12,34.27,9.48c1.66-3.17,1.32-4.82,6.86-5.73,1-.16,2.24.19,3.22.1A44.79,44.79,0,0,1,52.93,4c1.69.14,4.76-.55,6.2,0,1.62.63,2.7,2.63,4.12,3.7,2.31,1.73,8.3,4.2,4.18,8.09C67,16.2,67.64,16.82,68.05,16.43Z"/><path class="cls-8" d="M25.14,46.07c3.09-1.15,6.4-.35,9.53.41,2.92.7,5.1,1.23,6.61,3.06,2.16,2.61,1.62,6.23,1.13,9.21-.6,3.7-1.91,11.75-9.2,16.3-4.85,3-9.4,2.67-16.62,2.1a4.23,4.23,0,0,1-2.51-.73c-3.83-3.06,1.19-14.7,3.07-19.05C20,50.81,21.5,47.43,25.14,46.07Z"/><path class="cls-2" d="M25.26,46.5c4.7-1.27,15-.06,16.85,5.6,1,3,0,6.8-.73,9.76C39.48,70,33.85,76.49,25.11,77.05c-4.25.26-12.19.47-12-5.27a30.14,30.14,0,0,1,2.22-8.84c2-5.44,4.33-14,10-16.49.52-.22.07-1-.44-.76-4.11,1.81-5.76,6-7.47,9.89a69.87,69.87,0,0,0-4.68,12.83c-.55,2.5-1.3,6.4,1,8.32,1.47,1.22,4.51,1,6.22,1.11a31.74,31.74,0,0,0,7.85-.23c9.52-1.84,13.8-10.64,15.1-19.4.56-3.76.64-7.73-2.71-10.18C36.38,45.22,29.51,44.44,25,45.65A.44.44,0,0,0,25.26,46.5Z"/><path class="cls-7" d="M47.18,64.88c-2.14,0-3.64,1.25-6.62,3.71-1.75,1.45-6.94,5.73-5.89,8.48.34.9,1,.59,2.26,2.1a8.82,8.82,0,0,1,2.26,6c-.14,1.7-.89,2.23-.49,2.91.67,1.14,3.65,1.08,6,.16,1.32-.53,2.87-1.51,8.48-10.58,2-3.2,2.24-3.82,2.26-4.76C55.47,69.13,51.36,64.85,47.18,64.88Z"/><path class="cls-2" d="M47.18,64.44c-3.27.3-5.81,2.8-8.17,4.88-1.73,1.53-5.22,4.38-4.91,7.08.13,1.11.55,1.13,1.12,1.87,1.37,1.8,2.48,1.94,3.2,4.36a16.88,16.88,0,0,0-.24,4.82c.7,1.93,1.92,2.15,4.18,1.89,6-.71,9.28-8.15,11.92-12.63,3.3-5.62-.61-11.67-7.1-12.27-.57,0-.56.83,0,.88,5,.46,9.18,5.29,6.9,10a56,56,0,0,1-4.49,7.11c-1.45,2.12-6.17,9-9.39,5.2-1.21-1.43-.45-4.33-1.4-6.37A16.71,16.71,0,0,0,36.34,78c-2.29-2.94.18-5.19,2.53-7.36s5-5,8.31-5.31C47.74,65.27,47.74,64.39,47.18,64.44Z"/><path class="cls-6" d="M14,83.77a12.9,12.9,0,0,1,6.06-5.49c3.76-2,10.93-3.93,14-.81,2.34,2.41.31,5.87,3.55,9.12,1.32,1.32,2.25,1.35,3.15,2.91,1.29,2.24.83,4.75.56,6.13-.74,3.79-2.88,6.27-4.92,8.56-1,1.06-3.23,2.85-7.75,6.37s-5.76,4.36-7.58,4.28a7.55,7.55,0,0,1-4.85-2.42c-3.17-3.21-1.64-6.56-2.66-19.21C13.13,88.35,12.7,86.36,14,83.77Z"/><path class="cls-2" d="M14.38,84c2.38-4,6.65-6.2,11.07-7.21,4.16-1,8.72.25,9.57,4.93A11.41,11.41,0,0,0,35.9,85a10.76,10.76,0,0,0,2.37,2.8c2.71,2.63,3.37,5.64,2.19,9.29-1.26,3.91-4.27,6.91-7.38,9.43s-6.63,6.45-10.41,7.59-7.26-2.09-8-5.59c-.66-3.25-.28-6.89-.42-10.18-.19-4.5-1.72-10.07.11-14.32.23-.52-.53-1-.76-.45-2.24,5.21-.28,12.06-.14,17.56.08,3.35-.45,7.59,1.5,10.56,5.78,8.78,15.43-1.52,20.27-5.82,3.52-3.13,6.62-7.43,6.76-12.32a7.55,7.55,0,0,0-1.66-5.26c-1.79-2.15-3.32-1.93-4.29-5.47-.3-1.11-.16-2.35-.53-3.45-3.17-9.35-18.68-1.18-21.91,4.2A.44.44,0,0,0,14.38,84Z"/><path class="cls-8" d="M24.09,115.65a12.18,12.18,0,0,0-1.13,6.7c.14,1.11.72,5.71,3.63,6.62,2.71.84,5.63-2.07,5.9-2.35,2.21-2.26,1.2-3.88,3.47-6.13,2-2,3.45-1.46,4.44-3.31a6,6,0,0,0-.08-5c-1.61-3.29-5.8-3.61-6.22-3.63C29.36,108.25,25.63,112.47,24.09,115.65Z"/><path class="cls-2" d="M23.71,115.43c-1.64,3.6-2.24,10.65,1.61,13.34,2,1.42,4.37.59,6.21-.75a8.34,8.34,0,0,0,2.21-2.26,19.85,19.85,0,0,0,.89-2.09c1.38-2.78,1.91-3.07,4.14-4.49,4.36-2.8,2.67-8.65-1.78-10.42-5.63-2.24-10.74,1.84-13.28,6.67-.26.5.5.94.76.44,2.13-4,6.16-7.83,11.08-6.64,2.4.58,4.51,2.24,4.8,4.79.43,3.85-2.75,4.17-4.7,6.16a10.32,10.32,0,0,0-1.87,3.26,12.2,12.2,0,0,1-2,3.28c-1.1,1.11-4.14,2.11-5.66,1.53-4-1.49-2.75-9.87-1.61-12.38C24.7,115.36,24,114.91,23.71,115.43Z"/><path class="cls-7" d="M31.36,133.4c2,2.58,8,1.16,11.54-.64,1.79-.91,3.74-1.9,4.92-4.2,1.75-3.4.37-6.91-.08-7.91-1.09-2.42-3.6-5.32-5.41-4.84-1.22.32-1,1.88-3,5a26.93,26.93,0,0,1-4.2,4.85c-2.73,2.64-4.21,3.26-4.44,5.08A3.79,3.79,0,0,0,31.36,133.4Z"/><path class="cls-2" d="M31.05,133.72c3.55,3.6,10.94.53,14.39-1.89,4.7-3.31,4.51-9.65,1.16-13.88-.92-1.17-2.7-3.14-4.44-2.54-.63.21-.79.58-1.16,1.08-1.09,1.47-1.57,3.47-2.69,5-2.05,2.8-5.42,4.64-7.3,7.44a4.21,4.21,0,0,0,0,4.7c.27.49,1,.05.76-.45-2.13-3.91,3.59-6.86,5.81-9.34a20.59,20.59,0,0,0,3.08-4.38c.23-.44.38-1,.65-1.4.07-1.06.61-1.48,1.64-1.25a1.77,1.77,0,0,1,2.4,1c3.86,4.06,4,10.6-1.09,13.76-3,1.88-9.55,4.6-12.56,1.54C31.27,132.69,30.65,133.31,31.05,133.72Z"/><path class="cls-6" d="M43.3,134.86c-5.08-1.59-9.8-3.06-13.4-.73a7.83,7.83,0,0,0-3.55,5.65c-.16,2,.79,3.61,2.59,6.62,1.59,2.67,2,2.51,3.55,5.08,2.17,3.68,1.78,4.86,3.06,5.41,1.81.78,2.83-1.45,7.91-3,3.35-1,4.72-.6,6.86-2.18.8-.59.8-.79,2.83-3.15,4-4.71,5-5,4.84-6.06-.08-.77-.68-1.66-8.07-4.92C46.42,136.06,44.67,135.28,43.3,134.86Z"/><path class="cls-2" d="M43.42,134.43c-4.27-1.32-9.67-3.32-13.83-.61A7.49,7.49,0,0,0,26.53,143c1.1,2.81,3.1,5.06,4.78,7.5,1.18,1.71,1.66,4.61,3.07,6,1.76,1.72,3,.75,4.95-.27,4-2.06,9-1.93,12.27-5.07,1.89-1.81,3.62-4.07,5.34-6.07.44-.5,1.35-1.23,1.44-1.95.15-1.26-.55-1.72-1.48-2.47-3.61-2.91-9.1-4.69-13.48-6.18-.54-.18-.77.67-.24.85a84,84,0,0,1,9.47,4.05c1,.47,4.71,1.74,4.89,3.13.21,1.63-3.73,4.67-4.7,5.81-2.26,2.62-3.86,3.86-7.34,4.68-2.49.58-5.06,2.49-7.43,2.93-3.74.68-4.64-3.92-6.33-6.31-2-2.84-4.81-5.86-4.73-9.5.2-9.11,10.77-6.46,16.17-4.79C43.73,135.45,44,134.6,43.42,134.43Z"/><path class="cls-8" d="M59.12,143.74c-1.48.23-3.73.59-4.36.8-2,.68-2.28,4.8-2.9,10.9-1.07,10.44-1.59,11.57-.57,14.37.55,1.5,1.82,5,5.25,6.78,5.09,2.7,10.77-.43,11.7-1,3.88-2.24,5.46-5.72,6.78-8.64,1.57-3.45,3.51-7.73,1.78-11.22-1.57-3.15-4.1-1.51-8.72-5.89-2.93-2.78-5.22-6.57-7.91-6.3Z"/><path class="cls-2" d="M59,143.31c-4.58.74-6,1-6.85,5.73a129.89,129.89,0,0,0-1.8,16.45c-.3,6.95,4.9,13.41,12.3,12.51A14.9,14.9,0,0,0,73,171.78c2.38-3.4,5.26-9.14,4.93-13.4-.38-4.79-3.61-4.79-7.07-6.9-4-2.44-6.48-9-11.83-8.17-.55.09-.32.94.24.85,4.36-.67,7.89,6.06,11.15,8.08,3.85,2.39,7.56,2.79,6.33,9-1.54,7.84-8,17.25-17,15.75-6.78-1.13-8.85-7.37-8.29-13.18.33-3.39.72-6.78,1.1-10.17.22-2.06.07-4.73,1-6.64,1.27-2.64,3.38-2.49,5.76-2.87C59.8,144.07,59.56,143.22,59,143.31Z"/><path class="cls-7" d="M84.22,156.65c-1.33-.66-4,1.71-5.49,3.71-2.22,3-1.34,4.67-3.14,8.56-.8,1.72-2.83,6.08-6.94,7.91s-6.92-.14-8.8,2c-1.55,1.77-.92,4.64-.81,5.16,1.1,5.08,6.3,4.86,14,12.19,3.46,3.27,4.53,5.31,7.27,5.49,3.46.22,6.2-2.77,6.7-3.31a12.55,12.55,0,0,0,3-8.15c.16-2.82-.49-4.07-2.26-10-2-6.74-3-10.11-3.22-12.84C84,161,85.69,157.37,84.22,156.65Z"/><path class="cls-2" d="M84.22,156.21c-4.85-.59-7,6.23-8,9.72-1.32,4.64-4.29,9.76-9.3,11-2,.52-4.61-.26-6.48.88-3.24,2-2.23,7.11-.11,9.51,1.33,1.51,3.34,2.45,5,3.5a67.93,67.93,0,0,1,10.56,8.8c7.72,7.34,15.5-3.92,14.52-11.69-.74-5.88-3.58-11.53-4.85-17.32-.8-3.63-.55-7.07-.37-10.74.07-1.26.42-2.64-.64-3.55-.42-.37-1,.25-.62.62,1.22,1,.19,4.87.13,6.17a29.19,29.19,0,0,0,.22,5.53c.67,4.52,2.27,9,3.59,13.32,1.2,4,2.44,7.63,1.21,11.78-1.15,3.85-3.46,6.22-7.28,6.93-4,.75-5.73-2.3-8.38-4.8-3.21-3-6.89-5.07-10.47-7.56A8.47,8.47,0,0,1,60,185.47c-1.24-2.3-.62-3.15,1-5.16,2.18-2.64,1.81-1.93,4.44-2.25a12.64,12.64,0,0,0,2.44-.53c3.36-1.12,5.69-3.87,7.3-6.91,2-3.73,2.94-14.26,9-13.53C84.78,157.16,84.78,156.28,84.22,156.21Z"/><path class="cls-8" d="M118.69,188.77c-.66-.85-2.37-1.18-13.56,2.59-5.95,2-6.78,2.54-7.51,3.55-2.53,3.52-.84,8.65-.24,10.49a13.48,13.48,0,0,0,4.36,6.94c2.29,1.77,5.91,1.93,13.07,2.18,7.74.27,8.87-.36,9.2-1.13.41-.94-.49-1.78-2.26-5-2.16-4-3.25-5.94-3.47-8s.28-2.33.65-9.53C119,189.6,119,189.18,118.69,188.77Z"/><path class="cls-2" d="M119,188.46c-1.11-1.25-3.38-.56-4.74-.28-4.88,1-11.51,2.32-15.62,5.24-5.91,4.2-1.86,16.55,3.48,19.71,4,2.39,10,1.81,14.49,1.88,1.52,0,6.83.75,7.78-1.4.35-.78,0-1.36-.31-2.09-1.2-3.31-3.9-6-5-9.45-1.34-4.34,1.53-9.2,0-13.41-.19-.53-1-.3-.85.23,1.1,3-.42,7-.45,10.12a12.37,12.37,0,0,0,1.36,5.44c1,2.11,2.35,4,3.34,6.13.84,1.77,1.42,2.59-.44,3.34-3.64,1.47-10.09.2-13.92-.18-5.26-.51-8.42-2.92-10.21-8-1.32-3.8-2.31-9,1.42-11.67,3.27-2.32,8.79-3.31,12.62-4.36,1.38-.37,5.19-1.95,6.4-.59C118.75,189.51,119.37,188.89,119,188.46Z"/><path class="cls-6" d="M130.31,183.37c-1.06-.09-2.62,1-5.73,3.3-2.84,2.07-4.26,3.1-5.09,4.6-1.5,2.73-.86,5.59,0,9.53a26.46,26.46,0,0,0,4.77,10.49c2.11,2.71,3.87,5,6.45,5.09,1.86.08,3.58-1.32,7-4.12s3.55-3.79,6.54-5.73c2.53-1.64,3.64-1.72,3.8-2.66.31-1.92-4.08-2.89-8.08-6.54C133.41,191.31,134.11,183.68,130.31,183.37Z"/><path class="cls-2" d="M130.31,182.93c-3.37.33-7.84,4.16-10.07,6.63-2.75,3-2.16,6.84-1.35,10.54,1.11,5,6.19,18.94,13.65,16.37,5-1.72,8.28-7.22,12.63-10,1.72-1.09,4.23-1.71,2.85-4-.85-1.41-3.23-2.2-4.5-3a22.12,22.12,0,0,1-8.1-9.31c-1.16-2.45-1.89-6.52-5-7.18-.56-.12-.79.73-.24.85,2.9.62,3.58,5,4.75,7.35a22,22,0,0,0,6.08,7.62c.85.67,1.78,1.26,2.69,1.84l2.21,1.33c1.26,1.83,1.08,3-.52,3.4-1.31,1.55-4.1,3.08-5.64,4.55-3.59,3.43-8.47,8.39-13.15,3.59a25.54,25.54,0,0,1-4.69-6.89c-1.85-3.92-4.31-10.93-2-15.08,1.43-2.63,7.31-7.38,10.44-7.69C130.87,183.75,130.87,182.87,130.31,182.93Z"/><path class="cls-8" d="M148.79,205.16a5.23,5.23,0,0,0-3.31,2.1,4.81,4.81,0,0,0-.24,4.92c.9,1.51,2.39,1.46,5.65,2.66,4.73,1.74,4.32,2.84,7.91,3.88a14.44,14.44,0,0,0,8.48.32c3.76-1.19,3.36-3.36,7.1-4.68,4.07-1.44,5.88.67,9.2-1.21.44-.25,3.41-2,3.63-4.76.14-1.77-1-3.2-3.39-6-2.87-3.38-4.3-5.07-5.89-5.16-2.45-.15-3.31,2.53-8.48,7.18-4.35,3.92-6.52,5.88-9,5.89C155.51,210.34,153.44,204.26,148.79,205.16Z"/><path class="cls-2" d="M148.68,204.73c-3.14.78-5.9,4.5-3.82,7.67.79,1.2,1.92,1.52,3.2,2a77.88,77.88,0,0,1,8.43,3.92c4,2,9.71,2.65,13.5-.17,2.65-2,3.4-3.63,7.41-3.87,1.2-.07,2.41.28,3.61.14a7.68,7.68,0,0,0,4.09-1.78c3-2.44,3.06-5.17,1-8.13-1.65-2.36-5.5-8.42-9.2-7.55-1.49.34-2.56,1.9-3.54,2.93a77.22,77.22,0,0,1-7.93,7.52c-4.57,3.64-7.33,1.94-11.46-1a7.17,7.17,0,0,0-5.17-1.69c-.56,0-.56.92,0,.88,6-.48,8.71,7.89,15.22,3.93,3.39-2.06,6.44-5.27,9.14-8.14,1.38-1.46,2.43-3.28,4.57-3.28,2.52,0,4.26,2.78,5.79,4.61,2.2,2.65,4.27,6.05,1.3,9-1.81,1.81-4.44,1.59-6.78,1.68-3.24.12-5,1.12-7.5,3-5,3.81-10.36,2.93-15.41,0a26.43,26.43,0,0,0-4.11-2,27,27,0,0,1-2.72-.89c-2.43-.27-2.69-1.68-.8-4.23q-.84-3.41,1.42-3.72A.44.44,0,0,0,148.68,204.73Z"/><path class="cls-6" d="M193.91,188.93c-.11,2.49.84,3.38.4,6.95-.29,2.37-.9,3.57-.24,5.16.55,1.32,2,2.86,3.55,2.91,2.47.06,2.66-3.53,6.3-5.49s5.48.4,9.6-1.54a12.6,12.6,0,0,0,5.65-5.65c1.7-3.35.3-4.54,1.05-10.65.32-2.54,1.1-6.08,2.67-13.16.46-2.11,1-4.44-.25-5.73-.89-.92-1.89-.48-3.71-1-1.16-.31-2.24-.89-7.34-6.3-3.39-3.59-4.56-5.08-5.9-4.76-1.18.28-1.72,1.79-1.77,1.94-.65,1.88.71,3.44,1.45,5.48.84,2.32.37,4.62-.56,9.2a37.08,37.08,0,0,1-3.56,10.42C197.5,183.9,194.11,184.33,193.91,188.93Z"/><path class="cls-2" d="M193.47,188.93c0,.92.16,1.8.26,2.71.25,2.4-.34,4.64-.32,7a5.69,5.69,0,0,0,.91,3.73c2.66,3.71,4.94,1.39,7.06-1,3.09-3.54,6.24-2.55,10.17-3.32a11.05,11.05,0,0,0,6.18-3.82c2.88-3.37,2.58-6.28,2.7-10.44.17-6.14,2.59-11.84,3.23-17.89.58-5.54-1.64-4-5.43-5.83-2.13-1-13.86-16.91-14.83-7.7a6.37,6.37,0,0,0,.65,2.9c.93,2.6,1.45,4.13,1.1,6.8a46.91,46.91,0,0,1-2.9,11.43c-1.69,4.18-4.26,7.18-6.89,10.73a8.78,8.78,0,0,0-1.89,4.74c-.06.57.82.56.88,0,.34-3.36,2.82-5.31,4.71-7.86a33,33,0,0,0,4-7.25c1.69-4.14,3.23-9.45,3.16-14,0-2.28-1.1-4.2-1.43-6.44-1-6.93,6.33,1.26,7.65,2.63a23.46,23.46,0,0,0,6.34,5.15c2,1,3-1.63,4.16,3.1.4,1.64-.89,4.79-1.29,6.58-.59,2.7-1.23,5.41-1.66,8.14-.69,4.39.54,9.45-2,13.32-2.62,4-6.23,4.73-10.61,4.87a8,8,0,0,0-5.05,1.75c-.58.46-1.22,1.59-1.79,1.9-.82,1.74-1.94,1.35-3.38-1.19q-3.65-.87-2.48-3.67c-.19-2.22-.34-4.84-.39-7.06A.44.44,0,0,0,193.47,188.93Z"/><path class="cls-7" d="M224.18,162.46c.58-1.18,4.85,1.57,10.25.81,4.42-.62,5.57-3,9.52-2.42.9.14,2.94.45,4,2s.41,3.92-.33,6.14a22.56,22.56,0,0,1-3.47,6.62c-9.45,11.76-14.18,17.64-18.32,17.11a7.39,7.39,0,0,1-5.33-3.63c-2.22-4.09,1.18-9.63,1.62-10.34,1.23-2,1.89-1.9,4.44-5.48,2.74-3.86,2.61-4.83,2.42-5.33-.53-1.39-2.4-1.3-4-3.71C224.36,163.44,224,162.87,224.18,162.46Z"/><path class="cls-2" d="M224.49,162.77c.78-.67,4.43.73,5.34.86a16.17,16.17,0,0,0,4.66.07,17.19,17.19,0,0,0,4.08-1.25c4.84-2,10.38-1.1,8.59,6.43-1.15,4.84-5.35,9-8.39,12.64a59.82,59.82,0,0,1-7.91,8.61c-5.44,4.43-12.16-.1-10.16-7.35.9-3.28,3.17-5.33,5.18-7.91,1.07-1.37,3.86-4.37,3.59-6.42-.39-2.87-4.48-2.74-4.85-6-.07-.56-1-.56-.88,0,.21,1.88,1.58,2.81,2.87,4.07s2.09,1.15,1.55,3.27c-.46,1.8-2.65,4.19-3.73,5.48-2.45,2.92-4.82,5.77-5.1,9.8a7.4,7.4,0,0,0,6.34,8.07c2.74.29,5-1.61,6.87-3.35a98.69,98.69,0,0,0,12.15-14.21c2.11-2.91,6-9.33,3.6-13-2-3-6.29-2.48-9.14-1.43-4.7,1.75-7.74,1.67-12.55.82-1-.18-1.9-.6-2.73.12C223.44,162.52,224.06,163.14,224.49,162.77Z"/><path class="cls-8" d="M256.87,117.91c1.08-1.47,3.71-1.24,5.81-1a11.42,11.42,0,0,1,6.61,2.5,10.66,10.66,0,0,1,3.8,6.86,11,11,0,0,1-1.54,6.22c-5.94,11.76-7.17,17.95-8.71,17.59-.83-.19-.37-2-1.54-6.78-1.55-6.42-3.94-9.68-2.5-11.22,1-1.05,2.89-.36,3.23-1.29s-1.13-1.85-2.42-3.39C257.28,124.57,255.38,119.93,256.87,117.91Z"/><path class="cls-2" d="M257.18,118.22c3.27-2.76,10-.38,12.57,2.15,4.78,4.79,2.2,10.11-.22,15.21-1.27,2.67-2.45,5.39-3.59,8.12-.5,1.2-1.94,6.18-3.22,5.25-.26-.19-.57-3.9-.62-4.15a48.09,48.09,0,0,0-1.74-6.24,19.19,19.19,0,0,1-1.17-3.34c-.62-1.35-.1-2.5,1.58-3.46a2.11,2.11,0,0,0,1-.2c.56-1.05.86-.29.61-1.71-.2-1.08-2.86-3.34-3.21-3.84-1.5-2.16-3.11-5.26-1.89-7.88.23-.51-.53-1-.76-.44-1.89,4.06,1.48,7.23,3.29,10.5s0,2-1.36,3.62c-.68.85-.46,1.77-.32,2.77.33,2.39,1.67,4.78,2.34,7.11.51,1.79.35,6.52,1.55,8,.68.84.89.93,1.85.39,2.13-1.22,3.61-7.75,4.44-9.65,1.91-4.36,5.74-9.31,5.23-14.32-.68-6.79-11.05-13.48-17-8.5C256.12,118,256.75,118.58,257.18,118.22Z"/><path class="cls-7" d="M243,90.06c2.54-2,6.39-1.45,9.85-.72a50.74,50.74,0,0,1,13.32,4.19c7.43,3.56,11.65,5.58,13.07,10,1.21,3.77.23,8.75-2.1,9.77-1,.43-1.47-.17-3.31-.16-3.28,0-4.45,1.9-7.58,3.06-2.86,1.06-7.56,1.57-10.17-.64-1.72-1.46-1-2.75-2.75-7.83-1.21-3.46-2.39-6.83-5.16-9.85-3.05-3.32-6.53-4.61-6.14-6.54A2.25,2.25,0,0,1,243,90.06Z"/><path class="cls-2" d="M243.2,90.44c7.29-4.39,20.79,2.32,27.36,5.74,4.24,2.21,8.32,4.73,8.72,10,.23,3-.32,5.65-4,6.66-1.09.3-2.48-.14-3.68.23-3.72,1.12-6.33,3.71-10.54,3.61-5.88-.14-5.72-4.07-7.06-8.28A31.13,31.13,0,0,0,249.62,99c-1.06-1.4-8.49-6.4-6.33-8.61a.44.44,0,0,0-.62-.62c-2.25,2.3-.26,3.73,1.78,5.43,6.23,5.17,7.41,11.14,9.92,18.31,1,3,3.6,4,6.68,4.07a14.57,14.57,0,0,0,6.11-1.28c2.27-1,3.95-2.6,6.65-2.69.82,0,1.73.44,2.54.29,3.35-.62,4-4.82,3.81-7.7-.27-3.87-2.37-6.59-5.51-8.69a57.13,57.13,0,0,0-17.31-7.6c-4.66-1.18-10.16-2.87-14.58-.21C242.28,90,242.72,90.74,243.2,90.44Z"/><path class="cls-8" d="M250.25,87.4c3.42-.32,4.36.4,10,.81,6.24.44,7.4-.27,7.9-.65,1.5-1.12,1.4-2.42,2.59-6.13,1.39-4.35,1.93-3.77,5.65-12.43,1.81-4.22,2.71-6.32,2.9-7.35.54-2.89.12-4.52-2.1-13.88-2.31-9.79-2.77-11.93-5-13.08a7.08,7.08,0,0,0-6.21.08c-1.83,1-2.65,2.63-4.2,5.82-.91,1.86-1.37,2.79-1.21,3.63.57,3.06,6.14,4.38,7.42,4.68,4.24,1,7.37.22,7.59,1.05.15.53-1.27,1.06-2.82,2.34-1.07.88-2.4,2.26-4.28,6.13-3.24,6.67-2.33,8.78-4.84,13.48A28.91,28.91,0,0,1,256.87,80c-6.05,5.51-12.06,7.6-11.79,8.24C245.24,88.56,247,87.69,250.25,87.4Z"/><path class="cls-2" d="M250.25,87.84c5.32-.35,12.23,2.75,17.28.54,3.41-1.5,3.38-6.71,4.73-9.69,2.4-5.31,5.63-10.45,7.23-16.08,1.23-4.32-.46-9-1.44-13.19-.94-4-1.31-11.6-4.78-14.55-3-2.58-7.72-1.2-9.86,1.75-2.61,3.6-5.12,8.08-.56,10.86a18.35,18.35,0,0,0,6.78,2.17c1.12.17,4.24-.19,4.12.86s-1.6,1.67-2.28,2.39c-5.38,5.69-5.06,14-9.08,20.28-3.21,5-8.43,9-13.48,12-1,.61-3.9,1.51-4.25,2.86a.45.45,0,0,0,.3.54c1.46.41,4.13-.64,5.29-.79.55-.07.56-1,0-.88a29.56,29.56,0,0,1-3.28.53c-1.72,0-1,.68-.32,0,1.62-1.6,4.44-2.55,6.33-3.89,4.3-3,8.54-6.82,11-11.52,2.26-4.24,2.72-9.13,4.84-13.47a17.61,17.61,0,0,1,4.48-6.22c.92-.76,2.22-1.22,2.66-2.36a.42.42,0,0,0-.11-.43c-.62-.62-1.24-.44-2.06-.58-2.45-.41-4.93-.27-7.35-1-10.78-3.36-.13-17.64,6.19-12.49,2.86,2.33,3.33,9.06,4.1,12.34.9,3.82,2.49,8.13,2.28,12.11-.35,7-5.73,13.39-8.21,19.8-1.55,4-1.24,7.83-6.23,8.09s-9.56-1.24-14.37-.93C249.68,87,249.68,87.88,250.25,87.84Z"/><path class="cls-6" d="M246.78,2.33c1.35.5,2.64,1.61,5.16,3.79,4.29,3.72,6.44,5.58,7.91,8.07a22.1,22.1,0,0,1,2.67,8.72c.84,5.67-.1,9.81-1,14-1.15,5-2.07,5.46-2.51,5.57-1.77.45-2.63-2.87-6.29-5.16-5.83-3.66-11.42-.15-14.21-3.8-.93-1.22-1-2.61-1.13-5.4-.22-4.71,1.23-6.45,1.7-10,1-7.87-4.44-11.39-2.18-14.53C238.65,1,243.66,1.17,246.78,2.33Z"/><path class="cls-2" d="M246.55,2.71c3.57,1.6,6.89,5.11,9.66,7.8,4,3.89,5.63,8.73,6.08,14.24.35,4.18.22,11.21-2.06,15-1.64,2.7-2.72,1.44-4.54-.46a13.46,13.46,0,0,0-4.38-3.2c-3.79-1.65-7.62-.34-11-2.76-2.42-1.74-2.5-2.49-2.54-5.23a20.19,20.19,0,0,1,.3-4.18c.33-1.72,1-3.36,1.27-5.09a16.61,16.61,0,0,0-1.05-8.95c-.37-1-1.66-2.7-1.44-3.77A5.57,5.57,0,0,1,242,2a15.1,15.1,0,0,1,4.71.78c.54.17.77-.68.23-.85C243.87,1,237.68,0,236.12,4c-1.34,3.35,2.34,7.78,2.57,11.19.38,5.7-3.81,12-1.11,17.7,2.22,4.68,9.5,2.45,13.35,4.15,2.26,1,3.59,2.54,5.28,4.21.51.5,1.1,1.49,1.9,1.62a2,2,0,0,0,1.49-.21c2.89-1.63,3.2-9.36,3.5-12.16.64-6-.18-13.17-4-18.07-3-3.85-7.7-8.44-12.14-10.43C246.49,1.72,246,2.48,246.55,2.71Z"/><path class="cls-9" d="M46.53,34.21c-.34-.55,3.57-2.24,7.59-7.51,3.27-4.29,3-6.26,6.53-9.6,2.59-2.46,6.14-4.65,6.87-4,.39.38-.14,1.54-.65,2.59-2.86,5.83-4.28,8.74-7.18,11.54C54.13,32.62,47,34.93,46.53,34.21Z"/><path class="cls-2" d="M46.75,34.21c0-.83,3.16-2.69,3.7-3.19a30.63,30.63,0,0,0,4.74-5.43c1.23-1.81,2.08-3.84,3.31-5.65a18.54,18.54,0,0,1,3.32-3.59c.11-.09,4.05-3.33,4.74-3,2.46,1.12-5.83,12.6-7,13.77a29.29,29.29,0,0,1-7,5c-.91.48-4.67,2.72-5.93,1.93-.24-.15-.46.23-.22.38,1,.63,3-.42,3.91-.77a30,30,0,0,0,8.45-5.24,25,25,0,0,0,5.52-7.08c1.15-2.09,3.94-5.69,3.43-8.22a.23.23,0,0,0-.16-.16c-1.64-.53-3.79,1.33-5,2.23a21.11,21.11,0,0,0-5.73,6.71,34.32,34.32,0,0,1-7.95,9.89c-.66.55-2.6,1.45-2.61,2.45A.22.22,0,0,0,46.75,34.21Z"/><path class="cls-9" d="M38.94,60.36c-1.34-.63-3.77,1.87-6.45,4.68-3.86,4-4,5.33-6.86,7.43-2.55,1.83-4.32,2.17-4.2,2.66.19.81,5.29,1.14,9.85-.89,4.33-1.92,8.51-6.12,8.63-10.73C39.93,63,40,60.84,38.94,60.36Z"/><path class="cls-2" d="M39,60.15c-1.91-.33-3.48,1.53-4.72,2.73-2.41,2.34-4.32,5-6.6,7.47A16.13,16.13,0,0,1,24,73.25c-.31.18-2.4.93-2.54,1.41-.18.65-.26.33.16.93.67,1,4.38.3,5.17.18A17.7,17.7,0,0,0,35.27,72c2.64-2.14,7.38-8.55,3.83-11.83-.21-.19-.52.12-.31.32,4,3.69-2.68,10.67-5.65,12.49a17.47,17.47,0,0,1-7.45,2.45c-1.57.15-4.67.35-2.31-1.35,2.19-1.58,4-2.64,5.7-4.75s6.59-9.33,9.8-8.79C39.16,60.62,39.28,60.2,39,60.15Z"/><path class="cls-9" d="M42.33,86c1-.76-.72-3-.08-6,.53-2.41,2-2.38,3.23-5.16,1.27-2.94,1.28-6.84,0-7.43-.7-.32-1.23.59-6.7,5.25-1.74,1.49-2.56,2.14-2.5,3.07.11,1.57,2.62,1.54,3.63,3.71,1.16,2.49-1,4.94.32,6.21A1.83,1.83,0,0,0,42.33,86Z"/><path class="cls-2" d="M42.52,86.14c.42-.61.28-.39.34-1.17a18.62,18.62,0,0,0-.42-2.66A7.53,7.53,0,0,1,44,77.49c1.43-2.14,2.53-4,2.63-6.71.07-2.07-.4-4.35-2.56-3a43.61,43.61,0,0,0-6.76,5.89c-.86.87-1.59,1.57-1,2.82.09.2.37.33.47.51l.56.4a2.72,2.72,0,0,1,1.62,2.75c1.08,2.68.5,2.1.64,4.13a2.88,2.88,0,0,0,.06.83,2.05,2.05,0,0,0,2.75,1.12.22.22,0,0,0-.12-.43c-3.12,1-1.65-4.32-1.83-5.32a4.32,4.32,0,0,0-1.54-2.58c-1.19-1-1.3-.37-1.48-2.24-.17-1.72.35-1.79,1.52-2.81,1.51-1.31,3-2.65,4.52-4s2.28-1.93,2.75,1.4c.4,2.86-1.49,5.3-3,7.42A6.15,6.15,0,0,0,42,80.05c-.35,1.5.91,4.69.11,5.87C42,86.15,42.36,86.37,42.52,86.14Z"/><path class="cls-9" d="M29.1,125.33c1.79-2.24,4-5.06,3.95-7.91-.08-2.44-1.84-3-1.29-4.76a3.75,3.75,0,0,1,4-2.42c1.93.36,2.85,2.44,2.9,3.87s-.59,2.23-1.61,3.72c-1.3,1.89-1.78,1.7-3,3.39-1.64,2.29-1.17,3.22-2.66,4.6s-3.45,1.9-3.72,1.53S28.23,126.41,29.1,125.33Z"/><path class="cls-2" d="M29.25,125.49c1.61-2,3.56-4.29,3.94-6.94a5.61,5.61,0,0,0-.31-2.9,6.53,6.53,0,0,1-.35-.7l-.33-.57q-.65-4.39,3.16-2.53c1.82-.56,2.78-.12,2.86,1.31A2,2,0,0,1,38,115.4,8.83,8.83,0,0,1,35.85,119a23.4,23.4,0,0,0-1.92,2.06,17.12,17.12,0,0,0-1.31,2.42,7.11,7.11,0,0,1-1.34,2.16c-.69.67-3.49,1.61-2-.17.18-.22-.13-.53-.31-.31-.49.6-1.39,1.32-1.44,2.17a.22.22,0,0,0,.17.21c2.89,1.18,4.85-3.15,5.83-4.94,1.68-3.05,6.58-5.84,5.14-9.92a3.66,3.66,0,0,0-6.19-1.53,3.06,3.06,0,0,0-.9,2.82c.25,1.6,1.33,2.65,1.12,4.46-.28,2.55-2.2,4.8-3.73,6.73C28.77,125.4,29.08,125.71,29.25,125.49Z"/><path class="cls-9" d="M35.71,88.93c-1.66.7-.65,3.4-2.26,7.27-1.31,3.16-2.68,3-6.86,9-2.83,4.06-2.54,4.61-2.42,4.76.71.86,4.51-1,6.7-2.42a20.15,20.15,0,0,0,7.91-8.48c1-2.21,2.74-5.81,1-8.31C38.92,89.44,37,88.39,35.71,88.93Z"/><path class="cls-2" d="M35.6,88.74c-2.21,1.54-1.46,5.71-2.62,8s-3.34,4.11-4.93,6.16c-.85,1.1-6.57,7.17-2.84,7.52,2.25.21,5.59-2.42,7.29-3.65A20.23,20.23,0,0,0,39,99.21c1.67-3.35,3.25-11.62-3.31-10.49-.28,0-.16.47.11.42,3.42-.58,4.55,4.56,4,7a14.91,14.91,0,0,1-1.55,3.52,19.48,19.48,0,0,1-5.63,6.51,27.63,27.63,0,0,1-4.25,2.6c-.33.16-3.64,1.84-4,.62-.11-.43,1.35-2.47,1.54-2.77,1.91-3,4.44-5.33,6.49-8.14a10.7,10.7,0,0,0,1.23-2.19c.7-1.67.67-6.1,2.16-7.13C36.06,89,35.84,88.58,35.6,88.74Z"/><path class="cls-9" d="M40.07,129.77c-.3-1.29.88-2,5.09-6.86,1-1.19,1.48-1.74,1.85-1.61.75.25.71,3-.08,5.24S44,132,42,131.63A2.6,2.6,0,0,1,40.07,129.77Z"/><path class="cls-2" d="M40.29,129.71c-.18-1,.67-1.74,1.23-2.4,1.16-1.34,2.37-2.62,3.54-4,.42-.48,1.44-2.25,2.18-1.3.56.72-.11,3.07-.32,3.81A11.6,11.6,0,0,1,45.45,129c-1,1.48-3.78,4.37-5.16.69-.1-.26-.53-.14-.43.12,1.15,3.06,4,2,5.59-.05A11.59,11.59,0,0,0,47.56,125c.17-.89.63-3-.17-3.72-.37-.34-.53-.24-1-.08-.79.29-1.66,1.77-2.19,2.37-.67.76-1.35,1.51-2,2.26-.91,1-2.65,2.4-2.36,4C39.91,130.11,40.34,130,40.29,129.71Z"/><path class="cls-9" d="M33.37,144.38c1,.44,1.85.15,4.36-.48A43.21,43.21,0,0,1,45,142.36c2.13-.07,2.54.38,6.45.41,2.08,0,3.12,0,3.23-.33.29-.91-4.76-3.56-9.6-5-2.66-.79-4.88-1.42-7.75-1-1.16.19-5.95.94-6.46,3.71A4.21,4.21,0,0,0,33.37,144.38Z"/><path class="cls-2" d="M33.32,144.59c3.65,1.06,7.93-1.84,11.68-2,2.68-.12,7.57,1.74,9.79,0a.21.21,0,0,0,.1-.24c-.51-2-4.12-3-5.8-3.74C45.23,137,41,135.6,36.76,136.34c-4.59.81-8.91,4.73-3.5,8.23.24.16.46-.23.23-.38l-1.58-5.41,2.47-1.38a12.36,12.36,0,0,1,1.78-.49,15.63,15.63,0,0,1,8.08.52c2.42.69,5.35,1.48,7.43,2.9,2.61,1.78.93,2.31-1.7,2.18a41.16,41.16,0,0,0-5.65-.31c-3.31.29-7.63,2.92-10.89,2A.22.22,0,0,0,33.32,144.59Z"/><path class="cls-9" d="M61.7,150.84a12.6,12.6,0,0,0-.48,4.44c-.08,6.39-.31,7.66.73,8.47.81.65,1.3.13,2.66,1a6.08,6.08,0,0,1,2.5,3.15c.7,2.26-.64,3.85-.08,4.28.75.56,4-1.66,6.22-4.93.46-.68,4.38-6.52,2.18-10.09-1.22-2-2.93-1-5.9-3.47-3.5-2.87-3.8-6.37-5.4-6.21C62.84,147.57,62,149.89,61.7,150.84Z"/><path class="cls-2" d="M61.49,150.78c-.7,2.51-.51,5.17-.54,7.75,0,1.23-.42,3.51.3,4.7.43.69.72.57,1.39,1.08l1.86.6c1.89,1.2,2.7,3.11,2.41,5.73-.69-1.56.07,2.27-.09,1.56a.22.22,0,0,0,.15.16c5.08,1.1,11.31-11.37,8.65-15.34-1.1-1.62-3-1.65-4.59-2.58-2.31-1.32-3.26-3.13-4.72-5.13-.36-.49-.78-1.68-1.48-1.91-2-.66-2.81,1.93-3.34,3.38-.09.27.33.38.43.12,1.75-4.82,3.85-1.23,5.36.71s2.88,2.55,4.77,3.81c4.41,3,4,6.71,1.75,10.49-.84,1.45-4.18,6.49-5.81,5.22-.92-.71-.3-2.11-.69-3.37a6.62,6.62,0,0,0-2.58-3.23c-1.26-1-2,0-3.19-1.82-.4-.64-.15-2.25-.16-2.94,0-2.85-.23-6.13.55-8.87A.22.22,0,0,0,61.49,150.78Z"/><path class="cls-9" d="M63.48,185.63a11.49,11.49,0,0,0,8.07-.33A16.51,16.51,0,0,0,79,179a18.27,18.27,0,0,0,3.39-7.27c.56-2.8-.15-3.2.32-7,.54-4.34,1.78-6.47,1.13-6.86s-2.55,1.25-3.71,3.07c-1,1.62-1.13,2.83-1.7,5a24.1,24.1,0,0,1-2.58,6.78c-.52.83-3.19,5.08-7.59,5.89-2.79.52-4.14-.74-5.81.49a3.51,3.51,0,0,0,1,6.54Z"/><path class="cls-2" d="M63.42,185.84c7.26,2,13.22-2.38,16.89-8.41,2-3.21,2.34-6.19,2.43-9.82a32.06,32.06,0,0,1,.73-6,9,9,0,0,0,.64-2.54c-.09-.5.21-.8-.1-1.3a.21.21,0,0,0-.19-.11c-2.56.23-4.2,3.37-4.95,5.52-1.82,5.26-2.41,11-7.78,14.09-3.19,1.81-8.08-.48-10,3.2-1.33,2.5-.06,4.34,2.32,5.37.26.11.48-.27.22-.38-2.71-.81-2.45-3,.8-6.69.57.07,1.14.12,1.71.16a15.69,15.69,0,0,0,3.47-.43,11.06,11.06,0,0,0,4.08-2.66c3.38-3.32,4.15-7.56,5.49-11.92A8.88,8.88,0,0,1,80.3,161q4.22-3.78,3-.78c.19,1.19-.73,3.22-.87,4.4-.31,2.64.1,5.26-.54,7.86-2,8-9.88,15.21-18.4,12.89A.22.22,0,0,0,63.42,185.84Z"/><path class="cls-9" d="M116.35,191c-1.19-.55-3.5,1.54-4.69,3.55a10.71,10.71,0,0,0-1.21,6.46,13.53,13.53,0,0,0,4.2,8.64c2.39,2.15,5.8,3.51,6.46,2.74.3-.35-.1-1-1.78-4.28-1.92-3.73-2.89-5.61-3-6.37-.31-2.47.91-2.9.88-6.86C117.22,193.12,117.21,191.43,116.35,191Z"/><path class="cls-2" d="M116.35,190.81c-5-.49-6.56,7.51-6,11,.64,4.21,4.45,10.76,9.39,10.9,3.71.11,0-4.3-.88-6-.72-1.41-1.88-3.09-2.21-4.67s.39-3.11.65-4.69c.31-1.92.71-4.93-.78-6.48-.19-.21-.51.1-.31.31,2.68,2.79-.52,7.4-.06,10.58.35,2.43,2.24,5,3.33,7.11.22.42,1.24,1.86,1.18,2.31-.23,1.83-2.74.45-3.46,0a12.93,12.93,0,0,1-5.55-6.37,13.35,13.35,0,0,1-1-4.18c-.19-3,1.36-9.85,5.7-9.42C116.63,191.28,116.63,190.84,116.35,190.81Z"/><path class="cls-9" d="M130.31,185.46c-1.29-.23-2.65,1-4.44,2.59-1.57,1.4-2.51,2.23-2.42,3.22.11,1.31,1.9,1.74,6.13,3.88,2.71,1.37,4.82,2.62,8,4.52,3.52,2.1,5.35,3.41,5.49,3.23s-5.14-2.9-8.39-8.72C132.12,189.62,132.4,185.84,130.31,185.46Z"/><path class="cls-2" d="M130.31,185.24c-2.31.08-5.71,2.82-6.69,4.76-.64,1.3-.31,1.89.71,2.78,1.3,1.14,3.62,1.79,5.14,2.56,2,1,3.88,2.09,5.78,3.2s3.9,2.36,5.84,3.55c.55.34,1.27,1,2,1a.22.22,0,0,0,.21-.28c-.12-.48-1-.85-1.29-1.11a28.76,28.76,0,0,1-5.82-5.63c-2-2.71-2.62-5.79-3.94-8.78-.46-1-.79-1.67-1.85-2.07-.27-.1-.38.33-.12.43,1.9.71,2.32,4.32,3,6a21.72,21.72,0,0,0,3.28,5.6,25.5,25.5,0,0,0,4.12,4c.33.27,2.75,1.88,1.89,1.19-3.31-2.67-7.62-4.74-11.37-6.73-1.64-.87-4.35-1.6-5.75-2.84-3-2.62,1.8-7.09,4.9-7.2C130.59,185.67,130.59,185.23,130.31,185.24Z"/><path class="cls-9" d="M178.33,200.23c-.89.23-.84,1.19-2.82,5.41s-3.08,5.46-2.5,6.3c.71,1,3.12.51,5.48,0,3.24-.7,5.3-1.14,6.06-2.67C186.17,206,180.87,199.59,178.33,200.23Z"/><path class="cls-2" d="M178.27,200c-.83.28-1.07,1.16-1.38,1.9-1.17,2.75-2.57,5.35-3.8,8.06-1.61,3.57,2.84,2.72,5.07,2.25,3.4-.71,8-1.48,6.63-6-.74-2.43-3.51-6.64-6.52-6.2-.27,0-.16.47.12.43,2.68-.4,5.34,3.75,6,5.88,1.25,4.2-3.27,4.84-6.33,5.48-1.19.25-5.3,1.32-4.82-1a17.23,17.23,0,0,1,1.77-3.54c.69-1.4,1.33-2.82,1.94-4.26.31-.75.59-2.23,1.46-2.52C178.66,200.36,178.54,199.93,178.27,200Z"/><path class="cls-9" d="M224.18,187.4c2.41-.05,3.26-3.13,7.1-8.07a46.79,46.79,0,0,1,7.34-7.75c4.3-3.52,7.12-4.25,7.11-6.38a3.79,3.79,0,0,0-3.07-3.38c-1.37-.16-1.84,1-4.44,2.42-2.89,1.53-3.66.78-5.33,2-1.87,1.4-1.29,2.66-3.22,6.06-1.6,2.82-2.31,2.5-5.65,7.1-3.11,4.27-3.16,5.44-2.83,6.22A3.29,3.29,0,0,0,224.18,187.4Z"/><path class="cls-2" d="M224.24,187.61c2.65-.41,3.88-3.47,5.25-5.44a51.59,51.59,0,0,1,13-13.15c1.39-1,3.4-1.94,3.45-3.87a3.74,3.74,0,0,0-4.1-3.48c-1.82.3-4.57,2.71-6.32,3.37-1.22.46-2.16.46-3.16,1.41a7.74,7.74,0,0,0-1.63,3,22.37,22.37,0,0,1-4,6.18c-2.35,2.75-10,10.64-2.64,12,.28,0,.39-.37.12-.42-7.32-1.3,2.91-10.92,4.64-13.27,1.24-1.67,1.6-3.62,2.63-5.33,1.33-2.2,6.18-4.19,8.63-5.31l1.23-.89q5.79,3.13,2.6,5a20.63,20.63,0,0,1-3.45,2.44,42.23,42.23,0,0,0-6.14,5.43,56.7,56.7,0,0,0-3.82,4.64c-1.56,2.08-3.61,6.82-6.44,7.26C223.84,187.23,224,187.66,224.24,187.61Z"/><path class="cls-9" d="M206.26,152.21c-.53.41.77,1.95,1.21,4.84.47,3-.32,5.59-1.45,9.28-1.42,4.61-2.47,5.41-1.85,7,.9,2.29,4.44,3.87,6.71,3s2.25-3.69,4.34-4c1.5-.2,2.08,1.18,3.23.8,1.5-.49,1.79-3.32,2.09-6.37.26-2.5.37-3.76-.4-4.36-1.16-.91-2.75.93-4.6.24-2-.75-1.47-3.45-4-6.78C209.63,153.42,206.91,151.7,206.26,152.21Z"/><path class="cls-2" d="M206.05,152.15c-.35,1.13.58,2.32.86,3.39.84,3.16.26,6.15-.64,9.22-.71,2.41-3.14,6-2.32,8.59.68,2.14,3.75,3.65,5.89,3.38,1.45-.19,1.77-.87,2.83-1.65,2.34-1.74-2.09-.05,2.4-1.51,1.07-.35,2,0,2.57-.23,2.26-.75,2.44-1.52,2.86-4.34.24-1.58,1.42-5.57-.23-6.79-.85-.64-1,.16-1.78-.15l-.92.3a5.48,5.48,0,0,1-4.28-3.91c-.43-.66-.7-1.37-1.13-2-1.14-1.71-3.59-4.8-6-4.42-.28,0-.16.47.12.42,4.68-.73,5.8,6.63,7.8,9.22a2.8,2.8,0,0,0,2.5,1.36c.12,0,1.89-.54,2-.52,2.56.51,1.87,2.67,1.71,4.26a24.59,24.59,0,0,1-.59,4.09c-1,1.79-2.19,2.26-3.42,1.38-.19,0-2,0-1.09-.12-1.1.14-1.26.95-2,1.47-2.9,1.91-9.84,4-8.64-2.54a23.72,23.72,0,0,1,1.18-3.07,30.31,30.31,0,0,0,2.08-8.37c.11-2.19-1.88-5.54-1.33-7.31C206.56,152,206.13,151.88,206.05,152.15Z"/><path class="cls-9" d="M258.32,121.06c.19.76,1.94.16,4.6,1.29s3,2.58,5.81,3.47c1,.31,2.53.79,3.07.16.79-.92-.75-3.93-2.83-5.73-.83-.72-3.45-2.72-6.62-2.1C260.18,118.58,258.1,120.18,258.32,121.06Z"/><path class="cls-2" d="M258.13,121.17c.48.82,2,.64,2.75.79,2.7.55,4.2,2.41,6.52,3.55,1.63.82,5.33,2.07,4.71-1s-3.76-5.59-6.52-6.4c-2.07-.61-7.32,0-7.49,3,0,.28.42.28.44,0,.11-1.94,3.62-2.8,5.07-2.8a7.84,7.84,0,0,1,3.95,1.23c1.53.93,6.52,6,2.24,6.4-2.19.19-4.2-2.38-6-3.35a10.19,10.19,0,0,0-2.48-.93c-.48-.12-2.58-.21-2.84-.67A.22.22,0,0,0,258.13,121.17Z"/><path class="cls-9" d="M245.08,91.27c-.44,1.19,3.35,2.31,6.3,7,2.42,3.88,2.38,7.15,3.63,7.19s1.21-3.29,4.12-5.89c3.19-2.87,6.87-2.11,7-3.31.19-1.6-6.22-3.69-10.82-4.68C254.36,91.38,245.74,89.51,245.08,91.27Z"/><path class="cls-2" d="M244.86,91.27c-.1,1.62,2.89,3.07,3.86,4,2.34,2.36,3.48,5.05,4.69,8,.19.47.46,1.89,1.07,2.14.93.4,1.1-.1,1.65-.76a14.91,14.91,0,0,0,.94-2,10.59,10.59,0,0,1,5.32-4.78c.87-.32,2.84-.31,3.49-1,2.43-2.61-8.21-5-9.31-5.27-2.5-.6-9.82-3-11.68-.49-.17.23.21.45.38.22,1.64-2.21,8.85.14,11.19.7,1.91.46,7.5,1.39,8.5,3.1,1.2,2.06-2.18,2-3.79,2.78a9.8,9.8,0,0,0-3.93,3.54c-.84,1.31-.65,2.79-2.29,2.44s-1.49-1.92-2.07-3.24a19,19,0,0,0-3-4.8c-.78-.89-4.65-3.37-4.57-4.63C245.32,91,244.88,91,244.86,91.27Z"/><path class="cls-9" d="M260.66,82.15c-2.61-.79-3.36-.64-3.79-.48-1.21.42-2.45,1.67-2.26,2.66.28,1.52,3.78,2,6.45,2.34s4.21.56,5.57-.24c1.56-.92,2-2.52,2.83-5.17,0,0,1.08-3.38,4.11-11.05,2.43-6.14,4.29-8.43,3.72-8.88s-4.59,1.91-6.7,5.81c-1.08,2-.83,2.75-2.75,10.33-1,4-1.57,5.73-2.82,6C264.15,83.75,263.79,83.1,260.66,82.15Z"/><path class="cls-2" d="M260.72,81.94c-1.89-.51-5.09-1.33-6.09,1.29-1.23,3.23,4.56,3.42,6.37,3.65,3.53.47,6.05.69,7.73-2.81,1.48-3,2.32-6.71,3.52-9.86,1.36-3.56,2.89-7,4.49-10.46.13-.27,1.12-1.83.86-2.26-.64-1.08-2.1.1-2.83.58a13.34,13.34,0,0,0-5.38,7.76c-.67,2.5-1.11,5.07-1.76,7.58-.27,1-.6,4-1.49,4.76-1.85,1.64-3.66.36-5.42-.23-.27-.09-.39.33-.12.42,3.87,1.3,5.19,2.46,6.66-1.92,2-6,1.62-12.94,6.92-17.35,4.57-3.81.46,4-.11,5.33-1.48,3.45-2.79,7-4.05,10.53-.63,1.78-1.09,4.5-2.15,5.91-1.47,2-7.45,2.65-9.55,1.17q-3.39-.09-.68-4.27a12.45,12.45,0,0,1,3,.6A.22.22,0,0,0,260.72,81.94Z"/><path class="cls-9" d="M240.88,20.65c-2.42,1.5-2.35,5.75-1,8.39a8.57,8.57,0,0,0,5,4c2.55.74,3.51-.42,6.3.48,2.51.82,3.31,2.28,4,1.86,1-.59.89-4.26-1.05-5.73-2.1-1.6-4.67.66-6.54-.81-2.25-1.77.08-6.19-2.34-8.07A4.15,4.15,0,0,0,240.88,20.65Z"/><path class="cls-2" d="M240.73,20.49c-4.08,3.15-1.55,9.78,2.27,11.92,2.16,1.22,4.06.78,6.42.94a9,9,0,0,1,3.88,1.38c.29.17.89.75,1.26.8s.43.17.82,0c1.32-.63.64-3.45.23-4.37-.88-2-2.39-2.45-4.41-2.26-6.79.63-2.84-4.73-5.21-7.78-1.27-1.65-3.55-1.45-5.22-.64-.25.12,0,.5.23.38,3-1.45,5.21.71,5.33,3.61,0,.7,0,1.42.06,2.12A3.5,3.5,0,0,0,247.51,29a3.74,3.74,0,0,0,3,.47c2.08-.2,4.24.16,4.94,2.46.33,1.07.56,3.06-1.19,2.93-1.1-.08-2.67-1.58-3.94-1.8-1.82-.33-3.57.28-5.39-.26-4.49-1.33-8.43-8.42-3.85-11.95C241.26,20.63,241,20.32,240.73,20.49Z"/><path class="cls-5" d="M162,118.9a2.36,2.36,0,0,1-1.21-.78,2.48,2.48,0,0,1-.29-1.35l-.15-6.56a122.69,122.69,0,0,1-14.74,4.84,13.51,13.51,0,0,1-5.77.58l-.12.49c-1.4,5.36-5.85,9.27-10,12.95a3.38,3.38,0,0,0-1.07,4.6,22.62,22.62,0,0,0,2,4.85,18.63,18.63,0,0,0,2.13,2.72,46.27,46.27,0,0,0,18.25,12.25,9.8,9.8,0,0,1-.72-2.9,6.94,6.94,0,0,1,1.28-4c2-3,5.33-4.89,8.52-6.62l7.11-3.86a22.07,22.07,0,0,0,4-2.57c3.92-3.4,4.92-9.06,5-14.25A22.47,22.47,0,0,1,162,118.9Z"/><path class="cls-2" d="M162.46,118.14c-1.75-1.12-1.18-6.13-1.22-7.93a.89.89,0,0,0-1.12-.85c-6,2.36-13.71,6-20.27,5.39a.88.88,0,0,0-.85.64c-1.27,5.38-5.45,8.93-9.3,12.55-3.09,2.9-2.44,5.42-.67,9.26,3.83,8.29,13.64,14,21.79,17.14a.88.88,0,0,0,1.08-1.08c-3.41-10.41,14-13.85,19.8-18.91,4.33-3.76,5.26-9.56,5.43-15a.89.89,0,0,0-1.11-.85,23,23,0,0,1-13.77-.44c-1.08-.35-1.54,1.35-.47,1.7a25.09,25.09,0,0,0,14.71.44l-1.12-.85c-.17,5.44-1.1,11-5.82,14.45-3.42,2.49-7.56,4.12-11.22,6.22-5.31,3.05-10.3,7.1-8.12,13.71l1.08-1.08a45.79,45.79,0,0,1-16.77-10.87c-3.07-3.19-7-8.32-3.58-12.58,1.73-2.15,4.17-3.74,5.93-5.93A32.74,32.74,0,0,0,140,118c1.26-2.34,0-1.33,2.94-1.49,5.78-.31,12.29-3.36,17.61-5.44l-1.11-.85c.08,3.3-1,7.48,2.09,9.45C162.52,120.28,163.4,118.76,162.46,118.14Z"/><path class="cls-5" d="M165.61,92.57c-.11-1.29.17-2.93-.14-3.92a2.16,2.16,0,0,1,0-1.33,1.74,1.74,0,0,0-.36-.24c-2-.93-3.88,3.72-9.85,6.61-5.51,2.67-9.62,1.48-11.78,5-.31.5-1.18,1.9-.65,2.9,1.2,2.29,9,1.15,11.3.81,2.64-.38,3.93-.83,5.33,0,1.9,1.13,1.86,3.34,3.39,3.55a3,3,0,0,0,2.9-2.26c.24-1.09.77-1.71.33-3C165.33,98.45,165.67,93.29,165.61,92.57Z"/><path class="cls-2" d="M166.49,92.57c0-1.85,1-6.27-1.85-6.49-2.54-.2-5.56,4.21-7.35,5.42-4,2.67-9.42,2.25-13.08,5.07-1.75,1.35-3.4,4.29-1.57,6.16s6.57,1.15,8.89.9c1.67-.18,3.58-.79,5.23-.7,3.14.17,3.06,2.67,5.25,3.62,6.82,3,4.52-11.63,4.48-14a.88.88,0,0,0-1.76,0,62.67,62.67,0,0,0,.11,6.28c.12,1,.79,2.74.34,3.64-2.67,5.48-3.1.6-4.17.08-1.78-.85-2.14-1.54-4.28-1.44-2.38.1-4.75.77-7.15.91a12.14,12.14,0,0,1-3.51,0c-3.84-.93-1.37-4,1.24-5,2.44-1,5.19-1.15,7.65-2.24a24.44,24.44,0,0,0,6.61-4.51c.36-.32,2.11-2.38,2.56-2.26,1.09.28.59,3.85.6,4.57A.88.88,0,0,0,166.49,92.57Z"/><path class="cls-5" d="M155.25,72.39c-.4,1.18,2.63,2.26,6.29,7.26a20,20,0,0,1,3.07,5.17c1.08,2.9.74,4.69,1.29,13.23.21,3.19.33,4.06,1,4.36,2.14,1,7-5.67,7.27-6a26.33,26.33,0,0,0,4.84-12c.45-3.64,1-8-1.62-10.49-1.25-1.17-3.38-1.33-7.58-1.61C157.39,71.56,155.54,71.51,155.25,72.39Z"/><path class="cls-2" d="M154.37,72.39c-.06,1,.62,1.52,1.25,2.25,2.34,2.7,5.07,4.82,6.94,8,3,5.16,1.92,11.34,2.58,17.06,1,8.52,8.64-1,10.75-4.29,3.41-5.38,8.57-20.61-.48-23.3-5.07-1.5-11.8-1.27-17.1-1.24-1.13,0-3.22-.23-3.82,1.07-.47,1,1,1.92,1.52.89.77-1.67,16.51.56,17.91.83,5.67,1.08,4.81,8.53,3.79,12.91a26.6,26.6,0,0,1-5.26,10.61,23.6,23.6,0,0,1-2.57,2.81c-3,2.77-3.08-1.46-3.21-3.79a84.8,84.8,0,0,0-.55-9,17.23,17.23,0,0,0-3.34-7.31,34.22,34.22,0,0,0-3.66-4.39c-.55-.55-3-2.14-3-3.09C156.19,71.25,154.43,71.26,154.37,72.39Z"/><path class="cls-5" d="M141.37,94.5c1.25-7.1-1.21-8.6.16-11.78s4.18-2.45,10.49-8.88c2.35-2.4,2.39-2.94,2.26-3.23-.68-1.48-7.84-.36-13.4,3.07a15.89,15.89,0,0,0-6.29,6.13A14.55,14.55,0,0,0,133,88.37c.71,5.55,4.83,10.73,6.78,10.17C140.68,98.27,141,96.74,141.37,94.5Z"/><path class="cls-2" d="M142.22,94.74a25.65,25.65,0,0,0,.21-6.72c-.21-1.86-.88-3.74.17-5.49.93-1.54,2.92-2.31,4.35-3.28a36.65,36.65,0,0,0,5.69-4.79c6.07-6.26-2.1-5.73-6.93-4-8.18,2.9-15.17,9.54-13.45,18.91,1,5.22,8,15.7,10,5.39.2-1.11-1.49-1.59-1.7-.47-.78,4.16-3.66,1.64-4.93-.7a14.93,14.93,0,0,1-1.85-7,13.63,13.63,0,0,1,5.8-11,25.7,25.7,0,0,1,8.77-4.13c.59-.15,4.83-1.2,5-.48s-2.95,3.24-3.22,3.5c-2.62,2.41-7.15,4-9,7.15-2.1,3.49,0,8.83-.57,12.63C140.36,95.38,142.05,95.85,142.22,94.74Z"/><path class="cls-5" d="M144.92,85c-1.1-2.14,7.57,4.6,9.2,6.29,1.81,1.89-13.37,7.25-13.24,8.88C141.18,103.8,146.42,87.89,144.92,85Z"/><path class="cls-2" d="M145.77,84.74c-1,.39-1.15.67-.55.84l.66.38a11.05,11.05,0,0,0,1.47,1c1.25.88,2.46,1.81,3.64,2.77.35.29,2.31,1.58,2.28,2,0,.57-2.13,1.51-2.55,1.75-2.33,1.32-4.78,2.4-7.14,3.65-1.06.56-3.18,1.36-3.53,2.68a1.29,1.29,0,0,0,1.36,1.74c1.14-.24,1.66-2.35,2-3.24a45.71,45.71,0,0,0,2.16-7.6c.35-1.79.93-4.18.2-6-.43-1-2.14-.57-1.7.47.81,2-.12,4.8-.57,6.72-.56,2.35-2,4.87-2.34,7.2-.08.54-1.3,1.3.56,1.22.2,0,.54-.5.77-.6,1-.44,2-1.11,2.94-1.61,2.42-1.24,4.95-2.33,7.24-3.79,1-.6,2.61-1.54,2.46-2.89s-2.84-3-3.82-3.73c-1.54-1.22-3.63-3.32-5.58-3.85-.95-.25-2.21,0-1.66,1.33C144.5,86.24,146.2,85.79,145.77,84.74Z"/><path class="cls-5" d="M145.08,81.59c-1.24,1.31,15,4.51,15.66.8.28-1.62-3.34-9-6.14-8.23C150.32,75.35,146.47,80.11,145.08,81.59Z"/><path class="cls-2" d="M144.32,81.14c-1.44,2.42,5.41,3.25,6.47,3.41,2.57.41,8.6,1.6,10.43-1.12s-2.24-8.32-4.43-9.63c-4.28-2.54-9.86,4.49-12.33,7.17-.77.83.47,2.07,1.24,1.24,1-1.1,2-2.22,3.07-3.25C150,77.74,153,74.83,155,75s5.85,6,4.53,7.61-5.78.59-7.35.39a29.37,29.37,0,0,1-4.18-.8c-.4-.1-.87-.32-1.27-.38-1.2-.18-.38-.68-.92.22A.88.88,0,0,0,144.32,81.14Z"/><path class="cls-5" d="M129.42,88.53c-.4,3.22-1.07,9.8,5.17,14.69,11,8.61,24-.71,24-.71a126.2,126.2,0,0,1-17.83-.56C133.47,98.84,131,88.53,129.42,88.53Z"/><path class="cls-2" d="M128.54,88.53c-2.08,17.66,17.54,23.78,30.47,14.74.67-.46.5-1.68-.44-1.64-6.34.28-16.38,1.6-21.19-3.06-2.33-2.26-3.74-5.17-5.3-7.95-.6-1.08-1.15-2.54-2.42-2.94-1.09-.34-1.55,1.36-.47,1.7,1.31.41,3.17,5.47,3.88,6.56,1.56,2.39,3.53,4.88,6.11,6.22,3.11,1.61,7.25,1.19,10.67,1.28,2.9.08,5.82.08,8.72,0l-.45-1.64c-11.77,8.23-29.75,3.18-27.82-13.22C130.43,87.41,128.67,87.42,128.54,88.53Z"/><path class="cls-5" d="M127.69,43.49l-7.15-6a13.2,13.2,0,0,0-2.82-2,13.12,13.12,0,0,0-3.78-.89,42.34,42.34,0,0,0-5.84-.49c-5.5,0-10.72,2.24-16.08,3.44a91.08,91.08,0,0,1-11.89,1.6c-1,.1-.41,1.85.23,2.69a8.35,8.35,0,0,1,1.12,2.51c.42,1.33.84,2.67,1.22,4,1.3,4.72,2,9.63,3.72,14.22a51.41,51.41,0,0,0,7.31,12.57A17.83,17.83,0,0,0,96.19,78c3,2.67,7.31,3.26,11.32,3.74A4.54,4.54,0,0,0,110,81.6c1.45-.7,1.75-2.67,2.85-3.83,1.63-3.36,4.87-4.33,8.24-4.34a9.74,9.74,0,0,1,5.39.84s3.84,1.68,3.89,1.67C129,74.34,131.53,62,139,58.34c0-.12-.11-1.19-.08-1.32C139.27,55.57,132.24,47.29,127.69,43.49Z"/><path class="cls-2" d="M128.31,42.86c-4.52-3.77-8.36-8.18-14.37-9.07-8.06-1.18-14.42,1.27-22.15,3A71.55,71.55,0,0,1,83.55,38c-.9.1-3-.06-3.65.36s-.94.51-1.12,1.18c-.49,1.81,1.8,5,2.27,6.43,1.15,3.51,1.85,7.15,2.72,10.74,2.72,11.19,8.85,23.72,21.23,25.6,1.68.26,3.84.87,5.46,0,1.93-1,2.5-3.56,3.85-5.11,4.54-5.18,10.57-2.51,15.85-.46.75.29,1.34-.68,1-1.3-1.06-1.88.4-5.52,1.08-7.33a16.63,16.63,0,0,1,7.16-9.06.88.88,0,0,0,.44-.76c-.34-6.07-7.26-11.79-11.52-15.48-.85-.73-2.1.51-1.25,1.25a53.16,53.16,0,0,1,9.73,10.59c.87,1.33,1.47,2.11.73,3.44-.62,1.11-2.71,2.22-3.57,3.3-2.47,3.09-6.64,10.84-4.32,14.94l1-1.29c-5.2-2-11.41-4.56-16.4-.42-1.45,1.21-1.88,2.85-3.11,4.19-2.78,3-7.24,1.86-10.7.55-5.61-2.13-9.45-9-12-14.22C85.69,59.39,85,53,83.16,46.86c-.34-1.16-2.16-4.26-2-5.39.24-2.35,4.34-1.87,6.07-2.11,6.74-.93,13.2-3.93,20-4.25,3.67-.18,7.73.07,10.9,2s6.08,4.63,9,7C127.93,44.83,129.18,43.59,128.31,42.86Z"/><path class="cls-5" d="M180.31,85.16a5.61,5.61,0,0,0-.54,1.1A13.8,13.8,0,0,1,177.62,89c0,2.94-1.79,5.83-3.87,8.23a10,10,0,0,1-1.48,2.17c-1.6,1.74-3.9,2.64-5.79,4.07a25.23,25.23,0,0,0-5.32,6.3l.35.06c0,3,.05,6,.08,9l9.88-3.68a5,5,0,0,0,2.86-2.08l3.1-3.94a8.92,8.92,0,0,0,1.13-1.67,9.4,9.4,0,0,0,.71-3.11l1-8.94c.43-3.86,1.07-8.14,4.09-10.58C183,84.38,181.19,84,180.31,85.16Z"/><path class="cls-2" d="M179.55,84.72c-.76,1.53-2,2.71-2.79,4.17-.95,1.81-.8,3.65-1.84,5.36.59-1-3.66,5-3.27,4.54-1.59,1.75-4,2.63-5.79,4.07a27.37,27.37,0,0,0-5.46,6.48.88.88,0,0,0,.52,1.29c-.31,0-.22,7.55-.21,8.23a.88.88,0,0,0,1.11.85c3.48-1.29,7.77-2.22,11-4.12,2.31-1.38,4.26-4.14,5.72-6.39,4.52-7,0-17.41,6.47-23.72a.88.88,0,0,0-.39-1.47c-1.79-.53-3.15-.77-4.71.39-.9.67,0,2.2.89,1.52l3.36-.21-.39-1.47c-4.23,4.11-4.24,10.16-4.85,15.67-.55,5-1.43,9-5.17,12.57-3.06,3-8.46,4.08-12.35,5.54l1.11.84c0-3-.05-6-.08-9a.89.89,0,0,0-.65-.85l-.35-.06.53,1.3a28.94,28.94,0,0,1,8.61-8.29,18.56,18.56,0,0,0,4.85-5.32,22.89,22.89,0,0,0,3-5.91c.67-1.95,1.82-3.26,2.73-5.11C181.57,84.59,180.06,83.7,179.55,84.72Z"/><path class="cls-5" d="M156.84,4.62q-3-1.83-6-3.58c-3.94.12-7.89.29-11.82.44H139q-3.87,4-8,7.85a46.16,46.16,0,0,0-5.76,5.94,13.56,13.56,0,0,0-3,7.59,19.79,19.79,0,0,0,1.32,6.54q1.9,6,3.82,11.93A15.7,15.7,0,0,0,129,45c1.1,1.7,2.81,2.88,4.28,4.26a19.13,19.13,0,0,1,5.28,8.72l.38-.69a38.73,38.73,0,0,1,13.62-.42q-.39-4.3-.39-8.63a3.78,3.78,0,0,1,.33-1.83,3.58,3.58,0,0,1,1-1,30.78,30.78,0,0,1,19-6.36c.87-7.16,1.67-14.79-1.52-21.26C168,11.94,162.37,8,156.84,4.62Z"/><path class="cls-2" d="M157.29,3.86c-1.7-1-4-3.11-6-3.58a16.91,16.91,0,0,0-4.38,0c-2.25.08-6.35-.59-8.37.42-1.42.71-3,3-4.11,4.12-1.72,1.69-3.5,3.33-5.25,5-2.47,2.36-5,4.79-6.46,7.93-3.21,6.9.91,14.59,3,21.24.89,2.78,1.57,5.51,3.49,7.77,3.34,3.91,6.72,6.17,8.41,11.4a.89.89,0,0,0,1.61.21c1.27-2.3,10.82-1,13.24-.67a.87.87,0,0,0,.88-.88c-.18-2.18-.65-4.72-.37-6.9.38-3,1.74-4.62,4.37-6.12a31,31,0,0,1,15-3.9.92.92,0,0,0,.88-.88c.86-7.19,1.71-15-1.64-21.7-3-6.06-8.79-10-14.36-13.47-1-.6-1.85.92-.89,1.52,8.5,5.32,15.27,11.31,15.86,21.93a48.49,48.49,0,0,1-.19,6.71c-.26,3.19-.07,3.53-3,4.29s-5.8,1-8.66,2.14c-2.55,1-7,2.7-8.49,5.3-1.32,2.3-.16,5.15-.45,7.63-.32,2.74.08,1.95-2.27,2.22s-4.57-.05-6.84.22c-1.86.21-3.59,0-4.52,1.67l1.61.21c-1.68-5.19-4.75-7.77-8.32-11.65-2.51-2.71-3.3-6.63-4.41-10.07a96.27,96.27,0,0,1-3.12-10c-1.79-8.86,6.66-14.44,12.16-19.86.71-.7,2.49-3.24,3.35-3.72s4.83-.19,5.91-.23c4.74-.18,7.49.83,11.43,3.25C157.37,6,158.25,4.46,157.29,3.86Z"/><path class="cls-5" d="M203.26,1.42c-5.42,0-10.84.1-16.26,0S176.2,1,170.8.89C164.38.72,158,.82,151.56,1c0,.06,0,.11,0,.17l0,.44c5.17,2.89,10.4,5.82,14.72,9.87s7.71,9.41,8.22,15.31c.35,4-.61,7.92-1.56,11.79q4.67,1.09,9.38,2a40,40,0,0,1,10.32-13.64c2.76-2.36,6-4.4,9.62-4.71,1-.09,2.18-.09,2.89-.82a3.53,3.53,0,0,0,.74-1.59,42.87,42.87,0,0,0,.31-18.39Z"/><path class="cls-2" d="M203.26.54c-17.24.12-34.46-.9-51.7-.4a.9.9,0,0,0-.88.88l-.06.61a.86.86,0,0,0,.43.76c6.46,3.61,13.12,7.32,17.73,13.27,5.5,7.08,5.28,14.35,3.25,22.7a.9.9,0,0,0,.62,1.09q4.66,1.06,9.37,2a.91.91,0,0,0,1-.41,40.32,40.32,0,0,1,9-12.41,20.85,20.85,0,0,1,8.14-5.09c1.37-.38,3.24-.14,4.53-.83,2.25-1.21,2.39-4.08,2.73-6.38A48.49,48.49,0,0,0,207,1.2a.88.88,0,0,0-.85-.65h-2.88a.88.88,0,0,0,0,1.76c3.6,0,2.94,7.53,2.79,10.22-.11,1.92.16,5.48-1.07,7.06-2,2.6-2.52,1.32-4.54,2a29.41,29.41,0,0,0-12.91,9.14c-1.74,2-2.92,4.56-4.61,6.59s-1.76,1.81-4.19,1.65c-1.41-.1-3.9-.32-4.6-1.82-.56-1.2,1.28-6.94,1.26-8.66a21,21,0,0,0-1.75-8.22c-2.17-5-6-9.11-10.38-12.39a54.48,54.48,0,0,0-9-5.72c-1-.5-2.52-.48-1.32-.66s3.78.24,5.34.22c15-.25,30,.67,45,.56A.88.88,0,0,0,203.26.54Z"/><path class="cls-5" d="M237.38,35.06c-.68-2.87-1.9-6-.46-8.61-3.76,1-7.75.07-11.53-.89l-12.11-3.08a16.55,16.55,0,0,0-4.07-.88c-8.76,0-12.49,1.1-16.63,5.34-2.17,2.22-4.08,4-6,6.43-1.27,1.59-2,4.15-3.4,5.6a1.7,1.7,0,0,0-.59.94c-.12,1,1.22,1.38,1.7,2.22.31.56.21,1.27.48,1.84a4,4,0,0,0,1.7,1.39c2.3,1.46,3.36,4.2,4.28,6.76,1.61,4.44,3.24,9,3,13.76l1.31-.75a33.64,33.64,0,0,1,21.77,11.72c8.16-4.5,16.18-10.51,19.43-19.24,1.67-4.48,1.95-9.35,1.93-14.13A37.08,37.08,0,0,0,237.38,35.06Z"/><path class="cls-2" d="M238.23,34.82c-.71-2.79-1.56-5.29-.46-8.14.26-.67-.49-1.2-1.09-1.08-10.16,2-19.84-5.17-29.94-4.85-6.79.22-11.31,2.05-16.06,6.86a51.63,51.63,0,0,0-7.5,9.76c-1.05,1.7-1.79,2.1-1,4,1.43,3.27,4.32,4.42,6.12,7.42a35.55,35.55,0,0,1,4.48,17.11.89.89,0,0,0,1.32.76c2.83-1.62,8.37,1.06,11,2.32a34.36,34.36,0,0,1,11,8.51.91.91,0,0,0,1.07.14c7.26-4.08,14.55-9.18,18.5-16.75s4.14-17.76,2.51-26c-.22-1.11-1.92-.64-1.7.47,1.54,7.82,1.4,17.5-2.33,24.68a30.59,30.59,0,0,1-6.48,8.22c-2.29,2.11-6.27,5.8-9.35,6.74-2.44.74-4.35-2.27-6.28-3.76a34.8,34.8,0,0,0-7.6-4.43c-3.31-1.4-7.88-3.54-11.24-1.62l1.33.76c0-6.66-2-15.17-6.47-20.31-1.77-2-4.54-4-3.56-7,1.16-3.53,4.24-6.55,6.77-9.14,6.15-6.29,13-8.23,21.72-6.14,7.69,1.83,16.13,5.58,24.11,4l-1.08-1.09c-1.2,3.14-.34,5.94.46,9.08A.88.88,0,0,0,238.23,34.82Z"/><path class="cls-5" d="M190.72,106.33c4.33,2.2,8.81,4.52,11.81,8.35,6.16-6.46,11.68-13.79,14.48-22.27a2.25,2.25,0,0,0,.16-1A2.36,2.36,0,0,0,216.11,90a23.7,23.7,0,0,1-6.17-6.42c-.73-1.2-1.3-2.49-2-3.73-2.52-4.61-6.56-8.28-8.87-13a1.36,1.36,0,0,0-.55-.69,1.31,1.31,0,0,0-.71,0l-2,.26a1.64,1.64,0,0,0-1,.32,2,2,0,0,0-.41.86c-.86,2.81-3.45,4.82-6.21,5.81a35.26,35.26,0,0,1-8.69,1.44.66.66,0,0,0-.5.19.72.72,0,0,0-.08.46l.57,9.29A7.23,7.23,0,0,1,184,85a6.46,6.46,0,0,1,2.34,2.57,30.8,30.8,0,0,1,4.13,18.72"/><path class="cls-2" d="M190.27,107.09c4.33,2.21,8.42,4.48,11.64,8.21a.89.89,0,0,0,1.24,0,83.23,83.23,0,0,0,9.1-11.25c1.8-2.75,6.25-8.89,5.77-12.46-.37-2.66-4-4.23-5.7-6.19-3.19-3.73-5.16-8.55-8.17-12.5-1.55-2-3.25-6.63-5.6-7.57-2.56-1-4.11.83-5.15,2.51-2.12,3.4-5,4.84-8.82,5.59-.4.08-5.09-.06-6,.86-1.78,1.85-.09,8.17.05,10.51,0,.43.38.94.88.88,9.23-1.2,10.52,14.49,10.06,20.65-.08,1.12,1.68,1.12,1.76,0,.52-6.91-.73-20.29-8.78-22.59-2.44-.7-1.94.29-2.39-2.66-.23-1.56-.57-3.35.45-4.61,1.42-1.74,5.63-1.39,7.83-2.2a12.41,12.41,0,0,0,4.72-3c1.15-1.21,2.43-5.12,4.66-4.25,1.51.58,3.8,5.44,4.86,6.83a59.1,59.1,0,0,1,5.16,7.7,26.58,26.58,0,0,0,3.21,5.06c1,1.16,2.18,2,3.24,3.09,1.55,1.57,1.76,1.7,1.29,4-1.22,6.08-6.92,12.71-10.86,17.2-2.5,2.85-2.48,1.7-5.2-.42a51.94,51.94,0,0,0-8.38-5c-1-.52-1.89,1-.89,1.52Z"/><path class="cls-5" d="M203.78,118a13.48,13.48,0,0,0-4.67-6,39.89,39.89,0,0,0-6.66-3.82l-.86-1.53a22.11,22.11,0,0,1-15.37,12.11,29.89,29.89,0,0,1-10.39,25.49,3.79,3.79,0,0,0-1.11,1.22,3.55,3.55,0,0,0-.2,1.45c0,2.73,0,5.66,1.59,7.9a9.48,9.48,0,0,0,3,2.66c3.91,2.3,8.64,2.78,13.17,2.58s9-1,13.57-1.06c-1.65-3-.64-6.66.49-9.86,2.49-7,5.41-13.94,7.18-21.19C204.36,124.73,204.91,121.21,203.78,118Z"/><path class="cls-2" d="M204.54,117.59a15.59,15.59,0,0,0-5-6.3c-2.26-1.72-5.82-2.56-7.21-5a.89.89,0,0,0-1.52,0A22,22,0,0,1,176,118a.88.88,0,0,0-.64.85,29.63,29.63,0,0,1-6.92,21.71c-1.3,1.5-3.6,2.75-4.46,4.56s-.37,4.48-.06,6.25c2.45,13.73,22.77,8.89,32,8.6.51,0,1.08-.56.85-1.11-2.79-6.65,3.13-16.25,5.27-22.55,2-5.9,4.28-12.25,2.62-18.47a.88.88,0,0,0-1.7.47c2.12,7.91-2.43,17.22-5.15,24.55-1.91,5.15-5,11-2.74,16.46l.85-1.11c-8.34.27-21.6,4.17-28.28-2.89-2.31-2.43-3-7.41-1.16-10.35,1-1.55,3-2.84,4.17-4.33a30.66,30.66,0,0,0,4-6.74,31.37,31.37,0,0,0,2.39-8.81c.12-1-.28-3.89.18-4.74.74-1.37,2-1.37,3.38-2a23.59,23.59,0,0,0,11.76-11.21h-1.52c1,1.75,1.32,1.88,3.24,2.88,3.88,2,7.13,4.33,9,8.46C203.48,119.51,205,118.62,204.54,117.59Z"/><path class="cls-5" d="M258.68,127.44c-2.55-2.73-2.83-6.8-3.41-10.49a39.83,39.83,0,0,0-10.8-22.07c-5.9-5.87-14.2-9.47-22.51-9a1.52,1.52,0,0,0-.82.21c-.49.34-.45,1.05-.36,1.64a24.75,24.75,0,0,1,.29,5.3c-.53,6.82-5.63,12.29-10.45,17.15l-4.15,4.19a3.74,3.74,0,0,0-1.36,2.28,5.17,5.17,0,0,0,1,2.45,13.5,13.5,0,0,1,1.23,5.31q.57,6.64.67,13.34l.25-.12a1.29,1.29,0,0,0,.45.48,38.85,38.85,0,0,0,13.76,6.67,24.33,24.33,0,0,0,11.05.57C244,143.12,251,131.7,261.68,130.5,260.93,129.28,259.66,128.49,258.68,127.44Z"/><path class="cls-2" d="M259.31,126.82c-3.75-4.75-3.16-12.12-5.08-17.69a40.22,40.22,0,0,0-6.54-12A33.3,33.3,0,0,0,236,87.87c-3.67-1.73-9.88-4-14-2.86-2.86.81-1.94,2.68-1.79,5.37.42,7.45-4.17,13-9,18.05-2.66,2.75-7.46,5.48-6.54,9.73.6,2.78,1.76,5.14,2,8.16.32,3.8.45,7.62.52,11.44a.9.9,0,0,0,1.33.76c-1,.47,4.25,3.27,4.84,3.59a40.93,40.93,0,0,0,7.29,3.07c5.1,1.55,10.61,2.12,15.72.29,9.35-3.37,15.48-12.57,25.63-14.12.73-.11.75-1,.39-1.47a30.86,30.86,0,0,0-3-3.06c-.83-.78-2.07.46-1.25,1.24a30.83,30.83,0,0,1,3,3.06l.39-1.47c-7.92,1.22-13.46,6.93-19.92,11.13-4.73,3.07-9.62,4.57-15.3,3.82s-13.33-3.2-17.37-7.58a.89.89,0,0,0-1.07-.14l-.24.12,1.32.76a116.67,116.67,0,0,0-.84-14.95c-.31-2.09-1.27-3.88-1.05-6,.31-3,3.29-5,5.39-7.15,3-3.08,6-6.36,7.83-10.26a18.81,18.81,0,0,0,1.56-4.83,18.49,18.49,0,0,0,.24-3.32c0-1.75-.86-2.93.6-4,3.54-2.7,12.85,2.06,15.94,4a33.58,33.58,0,0,1,11.23,12.12,43.85,43.85,0,0,1,4.77,14.48c.59,3.77,1.13,7.14,3.53,10.18C258.76,129,260,127.7,259.31,126.82Z"/><path class="cls-5" d="M261.48,148.37c-1-5.35-.53-11.21-3.38-15.85a1.25,1.25,0,0,0-.59-.57,1.27,1.27,0,0,0-.87.12c-4.12,1.72-7.37,5-11.09,7.44a32.52,32.52,0,0,1-36.85-.61,38.68,38.68,0,0,1-3.48,9.11l.28.42c5.93,3.1,10.11,9,16.17,11.82a26.89,26.89,0,0,0,13.38,2,17.09,17.09,0,0,0,3.9-.64,23.15,23.15,0,0,0,3.47-1.5c1.59-.8,3.19-1.57,4.8-2.33,5-2.36,10.39-4.59,15.88-4A28.2,28.2,0,0,1,261.48,148.37Z"/><path class="cls-2" d="M262.33,148.13c-.69-4.24-.1-12.95-3.61-16.23-2.57-2.4-6.84,1.82-8.89,3.36-6,4.46-11.92,8-19.54,8.68a32.68,32.68,0,0,1-21.14-5.8.89.89,0,0,0-1.3.52,43.54,43.54,0,0,1-3.39,8.9.94.94,0,0,0,0,.89c.75,1.13,2.13,1.59,3.22,2.35,2.5,1.71,4.67,3.85,7,5.77,4,3.32,8.15,5.69,13.4,6.39,4.32.58,9,.46,13.07-1.28,7.22-3.13,13.74-7.48,21.94-7a.89.89,0,0,0,.85-1.12,35.55,35.55,0,0,1-1.62-5.45c-.24-1.1-1.94-.63-1.7.47a36.7,36.7,0,0,0,1.62,5.45l.85-1.11c-5.85-.36-11.09,1.63-16.32,4.07-6.75,3.14-12.37,5.51-20,4-7-1.41-11.34-6.55-16.76-10.65-.67-.51-1.35-1-2.06-1.47a15.72,15.72,0,0,0-1.81-1.08l.6-.77c.05-2.2,2.26-5.7,2.83-7.87l-1.29.53A34,34,0,0,0,238.49,144c5.48-1.9,9.54-5.48,14.26-8.68,1.91-1.29,2.18-1.95,4.34-.68,1.84,1.09,1.92,2.27,2.29,4.19.62,3.23.72,6.55,1.25,9.8C260.81,149.72,262.51,149.24,262.33,148.13Z"/><path class="cls-5" d="M202.53,152.54l-5.64,13.06a12,12,0,0,1-1.36-3.11,4.13,4.13,0,0,0-.86-2c-.88-.87-2.32-.6-3.52-.3-4.94,1.26-10.09,2.22-15.13,1.43s-10-3.62-12.21-8.22c-.87-1.81-1.21-4.17.1-5.7l-.54-1c-4.26,5.9-3,14.28-6.37,20.72a19,19,0,0,1-4.77,5.71,7.75,7.75,0,0,0-2,2.08c-1,1.83-.07,4.08,1,5.83a26.73,26.73,0,0,0,14.06,10.88c2.5.81,5.11,1.25,7.63,2,6.24,1.86,12.1,6,14.71,11.93-1.07-6.76,2.3-13.39,6.07-19.09s8.17-11.3,9.55-18C204.39,163.42,203.46,157.9,202.53,152.54Z"/><path class="cls-2" d="M201.78,152.1q-2.84,6.53-5.65,13.06h1.52c-1.06-2-1.22-5.25-3.78-6a6.71,6.71,0,0,0-3,.23c-3.45.6-6.58,1.56-10.15,1.66-5.4.14-11.34-1.36-14.75-5.85a6,6,0,0,1-1.58-5.06c-.21,3,.35-2.12.33-2.27a4.92,4.92,0,0,0-.64-1.59.89.89,0,0,0-1.52,0c-4.08,6.33-2.93,14.18-6.37,20.72-3.06,5.83-10,7.33-5.73,14.5,3.16,5.35,8.79,9.35,14.59,11.29,8.82,2.94,17.26,4.22,21.81,13.53a.89.89,0,0,0,1.64-.45c-1.2-11.39,7.36-19.4,12.4-28.65,4.41-8.08,4-16.06,2.43-24.88-.19-1.12-1.88-.64-1.69.47,1,5.7,1.93,11.57.38,17.26-1.29,4.76-4.14,8.94-6.87,13-4.68,6.93-9.33,14.1-8.41,22.82l1.64-.44a23.37,23.37,0,0,0-12.19-11.24c-7-3-14.05-3.16-20-8.57-1.45-1.33-3.64-3.12-4.24-5l-.28-5.89c.75-.64,1.5-1.29,2.23-1.95a19.71,19.71,0,0,0,4.45-6.31c2.7-6.29,1.9-13.41,5.7-19.31h-1.52c.39.76-.35,1.83-.43,2.74a8.16,8.16,0,0,0,.82,3.89,15.12,15.12,0,0,0,7.23,7,23,23,0,0,0,11.49,2c2.65-.16,5.19-1,7.8-1.23,1.85-.17,3.61-.45,5.17,1.2-.63-.66,1.83,4.07,1.44,3.32a.88.88,0,0,0,1.52,0l5.64-13C203.74,152,202.22,151.06,201.78,152.1Z"/><path class="cls-5" d="M163.36,191.67a32.4,32.4,0,0,1-5.07-2.53,14.81,14.81,0,0,1-3.69-2.72,15.64,15.64,0,0,1-2.81-5.51c-.72-2-1.44-4.16-.95-6.23l-.11-.65a115,115,0,0,1-17.53,9,1.19,1.19,0,0,0-.51.3c-.36.38-.17,1,.05,1.48a39.59,39.59,0,0,0,5,8.09c5.13,6.33,12.08,10.89,18.92,15.34a4.87,4.87,0,0,0,1.17.62,4.59,4.59,0,0,0,3.34-.7,86,86,0,0,0,12.42-8.37,14.92,14.92,0,0,0,4.17-4.17C173.39,193.25,168.06,193.41,163.36,191.67Z"/><path class="cls-2" d="M163.6,190.83c-4.72-1.94-8.76-4.43-10.7-9.42-1-2.58-.89-5-1.32-7.61a.89.89,0,0,0-1.29-.53,120.83,120.83,0,0,1-12.61,6.84c-1.82.84-5.59,1.28-6,3.68-.39,2.08,2.42,5.43,3.48,7a46.23,46.23,0,0,0,8.33,9.06,99.46,99.46,0,0,0,9.39,6.91c2.72,1.81,4.5,3.6,7.78,2.59,3.64-1.13,7.11-4.06,10.12-6.29,2.84-2.09,5.79-4.07,7.82-7a.88.88,0,0,0-.32-1.2c-4.67-2.17-9.8-2.45-14.65-4-1.08-.36-1.55,1.34-.47,1.69,3.05,1,6.9,1,9.78,2.26,2.27,1,2.74,1.46,1.29,3.46-.84,1.15-3.71,2.85-5,3.79-2.85,2.07-8.22,6.76-12,5.44-2.8-1-5.73-3.75-8.13-5.5a60.37,60.37,0,0,1-8.46-7.26c-1.77-1.88-6.14-6.08-6.35-8.92-.26-3.34,4.52-4.21,6.79-5.33,3.49-1.72,6.86-3.63,10.18-5.67l-1.3-.53c.71,4.25.69,8.26,3.49,12,2.32,3.07,6.28,4.84,9.76,6.27C164.17,193,164.63,191.25,163.6,190.83Z"/><path class="cls-5" d="M151.85,152.62a3.58,3.58,0,0,1-2.18.39,4.16,4.16,0,0,1-1.34-.79c-2.75-2-6.2-2.81-9.16-4.5a17.18,17.18,0,0,1-6.59-6.75l-.11-.22a13.56,13.56,0,0,1-6.71,7.6,37.81,37.81,0,0,1-9.83,3.29c-3.44.79-7.05,1.54-10.48.66-.54,6.31-.07,13.17,3.89,18.12,2.07,2.59,4.94,4.42,7.3,6.76s4.28,5.58,3.65,8.84a5.38,5.38,0,0,0-.23,2.68c1.1-.14,1.71-1.31,2.36-2.21,2.36-3.29,6.87-3.94,10.82-4.86a44.59,44.59,0,0,0,17.92-8.84,21.12,21.12,0,0,0,5.15-5.68c3.33-5.77,2.23-13.24,5.3-19.15A101.4,101.4,0,0,1,151.85,152.62Z"/><path class="cls-2" d="M151.61,151.77c-2.36.82-8.27-2.91-10.48-4a17.14,17.14,0,0,1-7.9-7.43c-.37-.74-1.36-.44-1.61.21-3.32,8.66-17.5,12.45-25.94,10.93a.9.9,0,0,0-1.11.85c-.44,6.14-.16,12.73,3.55,17.92,1.84,2.59,4.4,4.31,6.68,6.45a16.05,16.05,0,0,1,3.7,4.39c1.45,2.93.56,4.79.68,7.64a.89.89,0,0,0,1.32.76c1.94-.88,2.68-2.78,4.37-4,2.48-1.85,5.67-2.23,8.6-2.95a46.36,46.36,0,0,0,15.46-6.89c3.62-2.52,7.07-5.51,8.92-9.6,2.53-5.58,2-12,4.52-17.57a.89.89,0,0,0-1.2-1.21q-4.78,2.55-9.77,4.66c-1,.44-.14,2,.89,1.52q5-2.12,9.77-4.66l-1.2-1.2c-2,4.38-2.27,9-3.33,13.64-1.58,6.88-6.42,11.23-12.32,14.71-4.91,2.9-10.11,4.29-15.56,5.68a18.62,18.62,0,0,0-5.26,2c-1.75,1.09-3,3.57-4.78,4.39l1.33.76c-.11-2.59.66-4.73-.32-7.24a17.47,17.47,0,0,0-5.21-6.58c-3.46-3-6.62-5.65-8.11-10.19-1.31-4-1.26-8.26-1-12.39l-1.11.85c9.64,1.73,24.28-2.22,28.1-12.16l-1.61.21a18.93,18.93,0,0,0,9.31,8.41c2.5,1.16,5,2.75,7.54,3.76a3.92,3.92,0,0,0,3.52.1C153.15,153.11,152.69,151.41,151.61,151.77Z"/><path class="cls-5" d="M118.31,179.37c-1.61-1.92-3.86-3.17-5.76-4.81a20.68,20.68,0,0,1-6.17-9.84,28.14,28.14,0,0,1-.75-11.66l.65-.79-6.35-1.06c-3.83-.63-7.73-1.27-11.58-.72a1,1,0,0,0-1,.8c-3.69,9.49-2.13,20.33,1.66,29.78a35.27,35.27,0,0,1,1.37,3.72c1,3.47.55,7.15.13,10.72a14.85,14.85,0,0,1,7.62-4.58,31.4,31.4,0,0,1,9-.81,22.82,22.82,0,0,0,3.41,0,20.41,20.41,0,0,0,4.76-1.32,8,8,0,0,0,4.06-2.49C120.74,184.23,119.92,181.29,118.31,179.37Z"/><path class="cls-2" d="M118.93,178.75c-3.47-3.62-7.67-5.79-10.13-10.38-1.79-3.33-4.63-12.18-1.9-15.48.38-.45.33-1.35-.38-1.47-5.06-.84-13.26-3.59-18.28-1.79-2.93,1-3.11,5.46-3.51,8.16a42.29,42.29,0,0,0,1.23,17c.83,3.07,2.16,5.93,3.14,8.93,1.27,3.93,1,7.74.5,11.75-.09.78,1,1.14,1.5.63,7.17-7.56,17.11-3,25.62-7,4.57-2.14,5.2-6.19,2.35-10.21-.65-.92-2.17,0-1.52.88q1.77,1.71.12,4.14c.41,2.38-.48,3.7-2.66,4a24.48,24.48,0,0,1-3.14,1c-3.37.74-6.92.08-10.34.47a18.18,18.18,0,0,0-11.67,5.47l1.5.62c.5-4.45.68-8.55-.8-12.83-1.54-4.44-3.24-8.65-4-13.34-.67-4.36-1.52-12.32,1-16.22,3-4.57,13.86-.77,18.45,0l-.39-1.47c-2.85,3.43-1.08,10.85.34,14.71,2.36,6.42,7.19,8.95,11.69,13.63C118.48,180.81,119.72,179.57,118.93,178.75Z"/><path class="cls-5" d="M139.19,114.72a3.24,3.24,0,0,0-1-.9L135.37,112a3.24,3.24,0,0,0-1.64-.7,4.07,4.07,0,0,0-2.17,1c-3.28,2.16-7.78,1.73-11.2-.2s-6-5.11-8.11-8.4l-.58-.18c-2-.1-3.89.84-5.68,1.76l-7,3.64c-3,1.54-6,3.14-8.23,5.7-3.81,4.46-4.17,10.82-4.35,16.68a52.73,52.73,0,0,0,.08,6.77,28,28,0,0,1,.35,4.74c-.15,2.15-1.06,4.19-1.29,6.34a.66.66,0,0,0,.07.44c.15.18.43.13.66.07,4.09-1.06,8.44-.39,12.51.77a53,53,0,0,0,5.63,1.48,35.49,35.49,0,0,0,7.36.22,22,22,0,0,0,6.52-.9,22.36,22.36,0,0,0,5.16-2.93l5.7-3.94a6.81,6.81,0,0,0,1.62-1.4c1.27-1.69.7-4.11-.17-6s-2-3.92-1.72-6c.41-2.88,3.28-4.6,5.46-6.52a17.65,17.65,0,0,0,4.8-6.94A3.06,3.06,0,0,0,139.19,114.72Z"/><path class="cls-2" d="M139.81,114.1c-1.55-1.38-4.07-3.81-6.32-3.69s-3.94,2-6.15,2.27c-3.72.47-7.24-1.39-9.86-3.89-1.89-1.79-3.11-5.33-5.58-6.17-3-1-8.43,2.93-10.75,4.13-7.82,4-13.63,7.74-15.08,17a61.21,61.21,0,0,0-.54,13.46,30.83,30.83,0,0,1-.19,8.52c-.26,1.36-.82,2.68-.6,4.07a.9.9,0,0,0,.85.65c2,.23,4-.51,6-.44a36.32,36.32,0,0,1,8.32,1.66,34.62,34.62,0,0,0,10,1.39c8.09-.1,13.85-3.18,20.1-8.28,6-4.93-2.83-11.12,1.55-16.89,3.14-4.12,9.79-7.08,8.48-13.37-.23-1.11-1.93-.64-1.7.46,1.42,6.82-8.11,9.26-10,14.5-.85,2.32-.06,4.22.81,6.4,1.32,3.36,1.16,6.14-1.88,8.68a48.58,48.58,0,0,1-4.28,3c-7.39,5-15.72,4.26-24,2-3.53-.95-6.53-.83-10.08-1.23-2.11-.24-1.76.21-1.87-2.13-.05-1,.59-2.38.65-3.41.46-7.23-1.41-14.36.69-21.57,1.32-4.53,4-7.52,8.05-10,3.67-2.21,8.47-5.18,12.55-6.4,2.56-.76,2.78-.21,4.2,1.71.64.84,1.31,1.68,2,2.46a17.93,17.93,0,0,0,6.25,4.56,12.79,12.79,0,0,0,6.26.94,20.49,20.49,0,0,0,3-.79c3.79-1,4.72-1.13,7.85,1.64C139.41,116.09,140.66,114.85,139.81,114.1Z"/><path class="cls-5" d="M93.87,110a111.68,111.68,0,0,1-12.67.68,22.44,22.44,0,0,1-4.63-.38A23.45,23.45,0,0,1,73,109.08c-3.64-1.45-7.35-3.09-10-6l-.1-.66a26,26,0,0,0-9.76,13.4c-2.06,6.63-1.55,14.25-5.62,19.87,3.7-.42,7.3,1.42,10.19,3.76s5.32,5.22,8.28,7.46a25.36,25.36,0,0,0,5,2.94c4.65,2,10.25,2.54,14.69.09-.91-1.66.37-3.61,1-5.4,1.3-3.67-.21-7.64-.86-11.47A25.94,25.94,0,0,1,93.87,110Z"/><path class="cls-2" d="M93.87,109.08c-5.38.55-11.71,1.48-17.07.33-2.88-.62-12.47-3.75-13-7.2a.89.89,0,0,0-1.3-.53,28,28,0,0,0-9.66,12.48c-2.62,7-1.87,14.67-6,21.1a.89.89,0,0,0,.76,1.33c9.38-.27,14.1,9.52,21.74,13.42,5.38,2.74,11.38,3.32,16.9.71a.9.9,0,0,0,.4-1c-.67-2.73,1.5-5.55,1.54-8.37.05-3.34-1.21-6.58-1.55-9.87a25.39,25.39,0,0,1,7.91-20.9c.82-.79-.43-2-1.24-1.24a27.4,27.4,0,0,0-8.33,16c-1.07,7.72,3,14.89-.23,22.36-3.45,8-17.07-.34-21.06-4-4.75-4.4-9.13-9.08-16.08-8.88l.76,1.32c3-4.7,3.59-10,4.61-15.36,1.34-7.17,4.55-13.15,10.45-17.59l-1.29-.53c.56,3.54,7.26,5.86,10,7,6.94,2.8,14.47,1.94,21.77,1.19C95,110.73,95,109,93.87,109.08Z"/><path class="cls-5" d="M110.71,101.34C108,97.87,103,97.28,99.22,95a9.75,9.75,0,0,0,6.91-3.19c2.35-2.63,3.06-6.3,3.59-9.78l-7.07-1.88a24.65,24.65,0,0,1-5.51-1.92c-4.89-2.61-7.48-8-9.76-13L84.6,59.06l.38-.29a37.23,37.23,0,0,0-8.7.06,18.78,18.78,0,0,0-5.12,1.29A20.21,20.21,0,0,0,65.76,64c-6.25,5.82-11.07,13-15.83,20.08,3.51,1.14,6.93,3.27,8.49,6.61a45.41,45.41,0,0,1,1.66,5.66c1.92,6.2,7.49,10.72,13.56,13a32.17,32.17,0,0,0,15.61,1.81c7.55-1,14.46-4.64,21.19-8.21a1.19,1.19,0,0,0,.59-.51A1.11,1.11,0,0,0,110.71,101.34Z"/><path class="cls-2" d="M111.33,100.71c-3.16-3.44-7.68-4.29-11.66-6.46l-.45,1.64c7.61-.83,10.24-6.73,11.35-13.62a.91.91,0,0,0-.62-1.08c-6.82-1.81-13.62-2.76-17.9-9-.93-1.35-6.72-12.58-6.63-12.65A.89.89,0,0,0,85,57.89c-8-.7-14.57.43-20.45,6C58.48,69.69,53.8,76.69,49.17,83.59a.89.89,0,0,0,.53,1.29c2.81,1,5.59,2.43,7.29,5,1.34,2,1.49,4.39,2.24,6.65a19.15,19.15,0,0,0,3.54,6.36c4.32,5.14,10.91,8.06,17.45,9,7.37,1.09,14.44-.58,21.19-3.52,2.39-1,12.28-3.8,10.06-7.52a.88.88,0,0,0-1.52.89c.81,1.36-17.08,7.85-19.2,8.23-7.55,1.38-15.87,0-22.25-4.34a19.87,19.87,0,0,1-6.62-7.25c-1.32-2.57-1.42-5.52-2.66-8.11-1.78-3.72-5.31-5.77-9-7.12l.52,1.29c3.93-5.84,7.87-11.72,12.69-16.88,2.75-2.94,5.75-6,9.67-7.23,3.76-1.22,8-1.06,11.93-.72L84.53,58l-.37.29a.92.92,0,0,0-.32,1.2c2.9,6.42,5.44,14.58,11.58,18.72,3.23,2.19,7,2.35,10.53,3.73,2.8,1.1,2.92,1.32,2,4.34-1.28,4.32-4,7.32-8.76,7.84-.8.09-1.28,1.18-.44,1.64,3.8,2.07,8.29,2.91,11.31,6.19C110.86,102.79,112.1,101.55,111.33,100.71Z"/><path class="cls-5" d="M62.49,102C60.69,98.67,59.62,95,58,91.65S54,85,50.51,83.54l-.63.09C49.16,87.41,47.09,90.78,45,94q-2.16,3.43-4.33,6.85a24.85,24.85,0,0,1-4.36,5.61,1.16,1.16,0,0,0-.41.55c-.09.41.32.75.68,1a53.46,53.46,0,0,1,9.06,6.65A17.08,17.08,0,0,1,51,124.37c2.06-7.88,5.1-15.94,11.31-21.2a1.09,1.09,0,0,0,.38-.47A1.12,1.12,0,0,0,62.49,102Z"/><path class="cls-2" d="M63.25,101.52C61,97.05,57.05,81.76,49.64,82.78a.85.85,0,0,0-.61.62c-1.28,5.3-4.47,9.76-7.34,14.31a62.27,62.27,0,0,1-4.13,6.15c-.44.55-2.38,2-2.47,3-.17,1.74,1.94,2.52,3.12,3.28,5.52,3.58,10.6,7.72,11.93,14.51a.89.89,0,0,0,1.7,0c1.43-5.33,3.18-10.68,6.26-15.32,1.42-2.15,5.95-4.78,5.24-7.55a.88.88,0,0,0-1.7.47c.16.61-3,3.43-3.6,4.18a33.15,33.15,0,0,0-3.37,5.29,62.75,62.75,0,0,0-4.53,12.46h1.7c-1-5.17-4-9.09-8.13-12.33-1.23-1-2.77-1.76-3.94-2.79-1.9-1.68-1.94-1.81-.86-4s3-4.33,4.3-6.45c1.74-2.76,3.62-5.49,5.13-8.39A23.71,23.71,0,0,0,49.81,87c.55-1.62,0-2.37,1.5-2.07,3.07.61,5.36,6,6.51,8.52,1.34,3,2.42,6,3.91,9C62.24,103.42,63.76,102.53,63.25,101.52Z"/><path class="cls-5" d="M79.24,39.18a36.32,36.32,0,0,1,3.9.15l.25-.54c-1.64-3.92-4.14-8.1-3.79-12.33-7.68.58-13.73,1.08-20.7,4.36a47.8,47.8,0,0,0-5.36,3,113.77,113.77,0,0,0-13.17,9.72c3.2,2,5,5.7,6.07,9.32,1.2,3.88,1.84,7.95,3.49,11.67s4.55,7.17,8.51,8.11a17.94,17.94,0,0,1,7.49-10,29.36,29.36,0,0,1,7.22-2.82c3.88-1.12,8-2.21,11.9-1.24A91.33,91.33,0,0,0,79.24,39.18Z"/><path class="cls-2" d="M79.24,40.06a36.32,36.32,0,0,1,3.9.15.85.85,0,0,0,.76-.43,3.21,3.21,0,0,0,.25-1.43C84.23,37,82,33.5,81.6,32.51a16.53,16.53,0,0,1-1.12-6,.89.89,0,0,0-.88-.88c-7,.54-13.87,1.22-20.35,4.12-7.12,3.19-13.57,8.24-19.5,13.24a.89.89,0,0,0,.17,1.38c9.91,7.26,4.83,25,18.28,29.19a.89.89,0,0,0,1.08-.62c3.47-9.79,15.46-15.22,25.53-13.46a.89.89,0,0,0,1.09-1.08A98.92,98.92,0,0,0,80.08,39c-.42-1-2.13-.58-1.69.47a99.17,99.17,0,0,1,5.81,19.4l1.08-1.08c-5.63-1-11.57.55-16.8,2.69A18.77,18.77,0,0,0,63,63.71c-2.09,1.89-2.8,4.58-4.6,6.51C53.82,75.16,48.77,58.07,48,55.16c-1.31-4.88-3-9.29-7.19-12.36L41,44.18c8-6.76,16.95-13.46,27.45-15.56a43.64,43.64,0,0,1,7.72-1c2.66,0,2.13.07,2.8,2.25a51.61,51.61,0,0,0,2,5.63c.26.6,1.31,2.08,1.28,2.7s-1.72.12-3,.11A.88.88,0,0,0,79.24,40.06Z"/><path class="cls-5" d="M126.82,13.8l6.83-7.21a21.56,21.56,0,0,0-5.32-4.72c-15.12.47-30.82,1-46.8.8A83.93,83.93,0,0,1,80.23,12c-1.8,7.81-1.66,16.37,2.16,23.42v1.48c-.62.17-.69,1.12-.25,1.59a2.56,2.56,0,0,0,1.79.62c5.09.31,10-1.75,14.78-3.53s10-3.32,14.93-2c4.19,1.14,7.54,4.21,10.62,7.28,1.4,1.4,2.9,2.88,4.85,3.27q-1.65-6.59-4-13a39.64,39.64,0,0,1-2-6.69,11.15,11.15,0,0,1,.74-6.85A16.38,16.38,0,0,1,126.82,13.8Z"/><path class="cls-2" d="M127.44,14.43l6.83-7.22a.9.9,0,0,0,0-1.25c-1.54-1.79-3.62-4.21-5.94-5-2-.64-5.54.17-7.61.23L113,1.45c-10.5.27-21,.43-31.5.34a.9.9,0,0,0-.88.88c-.69,7.39-3,14.6-2.26,22.07.35,3.69,2.2,6.84,2.82,10.33.23,1.29-.69,2.76.31,4,1.19,1.48,4.55.91,6,.73,4.83-.57,9.26-2.76,13.84-4.26,6.8-2.22,12.95-2.08,18.66,2.58,3,2.42,5.14,5.56,8.84,6.85A.89.89,0,0,0,130,43.88c-1.14-4.39-2.45-8.7-4-13-2.12-6-3.52-11.12,1.43-16.47.77-.83-.47-2.08-1.24-1.25-3.17,3.42-4.67,6.74-3.92,11.5,1,6.63,4.3,13.14,6,19.66l1.08-1.08c-5.71-2-8.72-8.32-14.7-10.29-5.13-1.69-10.44-.32-15.36,1.43a88.1,88.1,0,0,1-8.9,3.05c-1.52.36-6.14,1.71-7.23-.16-.06-.11.22-.63.12-.83-.34-.67-.51-2.18-.83-3a31.26,31.26,0,0,1-2.45-12c0-5.47,1.54-10.76,2.15-16.16a12.72,12.72,0,0,1,.25-2.48,24.26,24.26,0,0,0,4.12.68q5.44,0,10.9-.06c7.13-.09,14.26-.27,21.4-.48,3.56-.1,9.8-1.31,12.28,2.07,1.35,1.85.74,1.77-.79,3.74-1.21,1.55-2.76,2.91-4.1,4.33C125.42,14,126.66,15.25,127.44,14.43Z"/><path class="cls-5" d="M217.21,77l.08,0-.1-.25Z"/><path class="cls-2" d="M217.66,77.71l.07,0a.89.89,0,0,0,.41-1l-.1-.26a.89.89,0,0,0-1-.63.88.88,0,0,0-.76.87l0,.3c.08,1.12,1.84,1.13,1.76,0l0-.3-1.73.23.1.26.41-1-.08,0C215.81,76.8,216.7,78.32,217.66,77.71Z"/><path class="cls-5" d="M265.58,48.87a19.87,19.87,0,0,1-4.6-3.32c-4.74-4.09-9.94-7.81-15.85-9.84-2.38-.81-5-1.34-7.37-.43a46.74,46.74,0,0,1,.71,14.87A28.38,28.38,0,0,1,233,63.89,36.29,36.29,0,0,1,228,69a83.87,83.87,0,0,1-10.68,7.86l.67,1.75c.78,2,1.57,4.08,2.35,6.13a1.42,1.42,0,0,0,.37.61,1.44,1.44,0,0,0,.92.19,40.19,40.19,0,0,1,18.08,3.86,2.13,2.13,0,0,0,1.24.31,2.26,2.26,0,0,0,.74-.34l6-3.83c6.32-4,13-8.46,15.87-15.38,1.17-2.81,1.62-5.84,2.51-8.74,1.46-4.75,4.51-9.44,9.24-11C272.06,49.89,268.59,50.24,265.58,48.87Z"/><path class="cls-2" d="M266,48.11c-8.7-4.72-17.16-16.68-28.51-13.68a.9.9,0,0,0-.61,1.08c1.51,8.49,1.6,17.47-2.79,25.18-3.77,6.62-11,11.46-17.27,15.45a.89.89,0,0,0-.41,1c.86,2.23,1.7,7.33,3.62,8.87,1.51,1.21,4.77.46,6.62.66a39.47,39.47,0,0,1,8,1.73c1.77.58,4.05,2.4,6,2.2,2.34-.25,4.72-2.53,6.68-3.78,5.59-3.56,11.51-7.26,15.2-12.92,4.86-7.46,3.24-18.74,13-22.54.7-.27,1-1.55,0-1.69-3.27-.49-6.58-.52-9.72-1.64-1.07-.39-1.53,1.31-.47,1.69,3.19,1.15,6.37,1.14,9.72,1.64V49.67a16,16,0,0,0-8.91,9c-1.34,3.08-1.75,6.43-2.83,9.6a23.52,23.52,0,0,1-7.05,10.09,72.24,72.24,0,0,1-9,6.47,39.47,39.47,0,0,1-4.51,2.87c-2.31,1-1.29,1.17-4.35.21a61.75,61.75,0,0,0-9.89-2.76c-4.32-.64-7.77-.21-9.08-5.19-1.06-4,2.17-4.72,5.16-7a60.05,60.05,0,0,0,7.32-6.39,28.81,28.81,0,0,0,7.44-16.16,42.81,42.81,0,0,0,0-10.49c-.2-1.8-1.31-3.51,1.34-4.21,1.8-.48,5.8,1.43,7.16,2.05,6.53,3,11.12,8.54,17.3,11.89C266.13,50.17,267,48.65,266,48.11Z"/><path class="cls-5" d="M235,2c-5,.54-9.36-.16-14.76.3-4.77.42-9.4-.85-14.14-.9a33.67,33.67,0,0,1,1.2,8.4,40.16,40.16,0,0,1-1.73,10.92v.44c2.37-.63,4.89-.1,7.26.54,7.24,1.93,14.37,4.85,21.86,4.88a1.32,1.32,0,0,0,.65-.11,1.24,1.24,0,0,0,.47-.6,23.4,23.4,0,0,0,1.84-8.59,31.55,31.55,0,0,0,0-6.8A38.75,38.75,0,0,0,235,2Z"/><path class="cls-2" d="M235,1.15c-9.69.81-19.25-.22-28.9-.6a.89.89,0,0,0-.85,1.12A33.29,33.29,0,0,1,206,15.11c-.33,2-1.25,4-1.28,6.08a.89.89,0,0,0,1.11.84c6.62-1,13.8,2.9,20.15,4.33,2.19.5,7.91,2.25,10,.77,2.52-1.79,2.45-7.95,2.63-10.67A31.78,31.78,0,0,0,235.89,1.8c-.42-1-2.12-.59-1.7.47,1.77,4.4,3,8.53,2.73,13.34-.1,1.94-.13,5-.78,6.74-1.54,4-4.3,3.38-8,2.68-7.46-1.42-15.08-5.83-22.77-4.69l1.12.85c.05-3.11,1.5-6.32,1.69-9.51A35.62,35.62,0,0,0,207,1.2l-.84,1.11c9.64.38,19.22,1.41,28.9.6C236.16,2.82,236.17,1.06,235,1.15Z"/><path class="cls-5" d="M190.74,62.05c-1-3.42-2.76-6.56-4.18-9.82S184,45.41,184.5,41.88l-13.92,3.87L153.2,46.81l.79.13-1.65.27c0,2,.09,4,.13,6.07a7.19,7.19,0,0,0,.74,3.68,7.44,7.44,0,0,0,2,1.88q5.75,4.19,11.3,8.62c.58.46,1.06,2.91,1.11,3.51a2.29,2.29,0,0,0,2.17,1.77c1,.11,2-.15,3-.11,1.73.06,3.3,1,5,1.36,2.57.62,5.26.09,7.85-.44l4.19-.85a2.36,2.36,0,0,0,1.1-.43,2.3,2.3,0,0,0,.61-1.57A23,23,0,0,0,190.74,62.05Z"/><path class="cls-2" d="M191.59,61.82c-2.2-6.7-6.67-12.61-6.21-19.94a.89.89,0,0,0-1.12-.85c-4.61,1.28-9.82,3.25-14.27,3.88-5.5.77-11.25.68-16.79,1-.93.06-1.27,1.57-.24,1.73l.79.13v-1.7l-1.64.27a.89.89,0,0,0-.65.85c.06,2.92-.5,6.65.66,9.41,1,2.31,3.56,3.64,5.5,5.08s3.77,2.71,5.47,4.18a10.28,10.28,0,0,1,3.32,3.52,13.63,13.63,0,0,1,.35,1.8c.94,1.39,1,1.82,2.78,2.38,1.67.52,3.76,0,5.53.46a28.25,28.25,0,0,0,4.26,1.07c3,.27,6.41-.56,9.33-1.28,1.81-.45,2.71-.43,3.56-2,1.34-2.55,0-7.35-.63-10a.88.88,0,0,0-1.69.46,16.69,16.69,0,0,1,.84,5.8c-.25,2.23-.58,3.25-2.55,4a21.79,21.79,0,0,1-8.73,1.13,37.31,37.31,0,0,1-6.66-1.51c-1.81-.54-3.18,0-4.58-2.29-.3-.49-.25-1.26-.55-1.79-1.65-2.92-6.49-5.48-9.16-7.48-3.61-2.71-5-3.85-5.19-8.43-.07-1.77-.89-3.68.9-4a.89.89,0,0,0,0-1.7l-.79-.13-.23,1.73c5.63-.34,11.54-.18,17.11-1,4.84-.75,9.69-2.61,14.42-3.92l-1.11-.85c-.47,7.54,4,13.51,6.28,20.4C190.25,63.36,192,62.9,191.59,61.82Z"/></g></g></svg>