<svg xmlns="http://www.w3.org/2000/svg" viewBox="0 0 138.7 216.67"><defs><style>.cls-1{fill:#ad968a;}.cls-2{fill:#38301f;}.cls-3{fill:#723a29;}.cls-4{fill:#f6bc3c;}.cls-5{fill:#ca7529;}.cls-6{fill:#eae3ca;}</style></defs><title>polish2</title><g id="Layer_2" data-name="Layer 2"><g id="nail_polish" data-name="nail polish"><path class="cls-1" d="M57.1,75.66l-8.46-.33a9.49,9.49,0,0,0-9.25,6.12L2,179.89A9.48,9.48,0,0,0,2.68,188l.55.95a9.47,9.47,0,0,0,4.35,3.9L55.92,214.4a9.5,9.5,0,0,0,12.53-4.8c21.27-37.64,48.91-81.12,46.49-99.8.48-5.59-1.36-7.49-3.87-10.28l-4.6-3.37A9.46,9.46,0,0,0,103,93.7,92,92,0,0,1,60.31,76.35,9.56,9.56,0,0,0,57.1,75.66Z"/><path class="cls-2" d="M57.1,73.9c-5.72-.22-12.32-1.54-16.82,3-1.91,1.92-2.72,4.45-3.66,6.91l-10.5,27.67-25,65.77c-3.22,8.48.57,14.94,8.47,18.46l34.2,15.23c8.32,3.7,19.34,10.76,25.84.13,12.24-20,24-40.72,34.52-61.67,4.47-8.91,8.89-18.16,11.33-27.86,1.59-6.33,2.93-15.29-1.16-20.86-1.87-2.54-4.38-4-6.83-5.93-4.58-3.59-10-3.56-15.53-5A89.13,89.13,0,0,1,72.52,82c-5-2.7-9.69-7.4-15.42-8.13-2.24-.28-2.22,3.24,0,3.52,3.25.41,6.56,3.48,9.31,5.16q2.84,1.74,5.79,3.26A93.79,93.79,0,0,0,86.3,91.7C91.1,93.25,96,94,100.86,95.15c2.76.64,6.48,3.45,8.74,5.47,5.1,4.56,4.18,12.84,2.76,19-1.82,7.89-5.16,15.42-8.62,22.71C94.8,161.09,84,179,73.63,197c-3.78,6.57-7.72,19.23-17.37,15.66-3.36-1.25-6.62-2.95-9.9-4.41L14.7,194.13c-2.4-1.07-5.37-1.94-7.54-3.49-4.32-3.07-4.28-8.08-2.62-12.47l21.57-56.79L38.39,89C39.24,86.78,40,84.38,41,82.2c3.1-6.56,10.17-5,16.12-4.78C59.37,77.51,59.37,74,57.1,73.9Z"/><path class="cls-3" d="M60.31,76.35C60.23,64,82.74,4.45,82.74,4.45c3.84-11.14,58.14,16.08,54,19.86,1.69,2.2-27.18,58.53-33.74,69.39C94,92.57,60.36,84.12,60.31,76.35Z"/><path class="cls-2" d="M62.07,76.35c.1-8.88,4-18.33,6.67-26.68,3.49-11,7.3-21.79,11.21-32.6q1.81-5,3.67-10c.61-1.63.74-2.66,2.49-3.3,3.33-1.22,8.21.42,11.42,1.31a112.3,112.3,0,0,1,15.19,5.58,135.57,135.57,0,0,1,14.76,7.52,49.88,49.88,0,0,1,5.36,3.51,14.92,14.92,0,0,0,1.82,1.58c1.09.57-.28,1,.83-.24a1.85,1.85,0,0,0-.28,2.13c-.47-1-.24-.06-.47.65s-.57,1.63-.88,2.44c-1,2.66-2.21,5.26-3.4,7.85-3.19,7-6.58,13.87-10,20.73-6,12.08-12,24.35-19,36l2-.81a133.46,133.46,0,0,1-21.95-5.3,86.88,86.88,0,0,1-12.68-4.88c-1.92-1-6.54-2.91-6.76-5.48-.2-2.24-3.72-2.26-3.52,0,.6,6.86,11.37,10,16.63,11.93a133.1,133.1,0,0,0,27.35,7.12,1.83,1.83,0,0,0,2-.81c7.7-12.86,14.3-26.5,20.95-39.92,3.46-7,6.9-14,10-21.15,1-2.41,4.15-7.35,2.79-10.1L138,25.55c4.15-4.76-10.92-11.69-13.43-13C114.66,7.26,103.6,2.07,92.43.39c-3.11-.47-7.31-.94-9.88,1.33-1.47,1.3-2,3.5-2.64,5.27q-6,16.14-11.52,32.45C66,46.66,63.61,53.91,61.57,61.25c-1.35,4.85-3,10-3,15.1C58.52,78.62,62,78.62,62.07,76.35Z"/><path class="cls-4" d="M80.32,181a29.18,29.18,0,0,1-12.11,8c-8.47,2.72-16.11.22-24.21-2.42a64.22,64.22,0,0,1-21.8-12.11S2,165.41,9,161.62c5.35-8.8,21.77-60.91,34.8-83.32C50.09,67.41,79,90.57,103.8,94.77,131.89,99.52,96.53,164.2,80.32,181Z"/><path class="cls-2" d="M79.69,180.35c-7.46,7.52-16.5,10.28-26.9,7.89a75,75,0,0,1-23.23-9.47c-2.86-1.82-5.32-4.19-8.3-5.75-3.55-1.86-7.29-3.57-10.38-6.18A6.9,6.9,0,0,1,9,164.94c-.79-1.77-.16-1.25.56-2.7.56-1.11,1.22-2.18,1.74-3.33,1.6-3.48,3-7.07,4.35-10.64,4.4-11.4,8.55-22.89,13-34.27C33.18,102.44,37.58,90.24,44,79.58c2.78-4.59,7.74-3.38,12.2-2,6.07,1.9,11.83,4.78,17.61,7.41a197,197,0,0,0,18.92,7.8c4.89,1.64,11.39,1.72,15.71,4.64,7.06,4.79,5.14,15.89,3.47,22.85-2.87,11.92-8.26,23.27-14.21,33.94-5.1,9.16-10.78,18.48-18,26.11-.78.82.47,2.06,1.25,1.24,7.12-7.48,12.73-16.54,17.78-25.49,6-10.66,11.47-22,14.57-33.91,1.87-7.2,3.83-17.12-1.1-23.6-2.4-3.16-5.75-4.17-9.48-4.91C94.1,92,86,88.54,78,85c-6.38-2.86-12.67-6-19.26-8.38C55,75.26,50,73.49,46.09,75.15s-5.75,7.48-7.49,11.06c-3,6.08-5.6,12.31-8.15,18.57C25,118.2,20.06,131.83,14.9,145.37c-1.77,4.64-3.34,9.61-5.73,14-1.16,2.12-3.24,3.21-2.09,5.84,1.7,3.94,7.79,6.57,11.32,8.38,3.9,2,7.05,4.74,10.8,7.06a72.29,72.29,0,0,0,26.76,10c9.79,1.45,18.15-2.17,25-9A.88.88,0,0,0,79.69,180.35Z"/><path class="cls-2" d="M83.05,4C91,9.07,99,14.67,107.77,18.22c9,3.64,18.78,4.5,28.4,5,1.13.06,1.13-1.7,0-1.76-9.62-.5-19.33-1.38-28.31-5.09-8.51-3.53-16.18-9-23.92-13.9-1-.61-1.84.92-.89,1.52Z"/><path class="cls-5" d="M113.38,101.18c-1-2.24-7.21-6.07-9.55-7.48-1.17-.7-11.71-1.53-15.71-3.62a11.06,11.06,0,0,0-.78,2.16c2.59,3.8,6.78,6.13,10.63,8.64s7.74,5.61,9.07,10a14.93,14.93,0,0,1-1.15,10.34c-1.49,3.21-3.85,5.92-5.93,8.79-11.18,15.44-22.54,30.41-34.64,43.44-2,2.15-3.79,4.69-6.53,5.77-3.67,1.45-7.81.2-11.47-1.29A95.13,95.13,0,0,1,30,168.7c-1-.66-2.49-1.26-3.16-.29a8,8,0,0,0-1,1.72c-.53,4.48,1.78,7.39,5.38,10.11a31,31,0,0,0,8.74,4.68c6.36,1.93,13,4.88,19.66,5.2,8.72.4,17.32-3.14,24.5-8.1,1.09-.75,5.16-7,5.69-8.22,2.17-5.2,15.39-31.72,17-35a90.65,90.65,0,0,0,9-31.07C115.86,106.77,113.77,102,113.38,101.18Z"/><path class="cls-2" d="M113.76,101c-2-3.16-6.66-6.45-10.11-7.81-4.86-1.9-10.45-1.21-15.31-3.45a.45.45,0,0,0-.6.15c-1.36,3-.08,3.91,2.34,6.07,4.88,4.35,11.88,6.58,15.34,12.44,4.64,7.84-1.31,15.31-5.84,21.44S90.66,142,86,148c-4.48,5.82-9.07,11.55-13.86,17.11-5,5.79-11.18,15.67-19.85,14-6.63-1.28-13.45-5.31-19.15-8.85-2.19-1.36-5-4.29-7.1-1.58-5.23,6.68,8,14.42,12.24,16.13,11.75,4.71,23.55,7.92,35.75,3.12,7.52-3,12.49-6.71,16.09-13.91,3.09-6.18,5.91-12.52,9-18.73,3.47-7.07,7.24-14.07,10.3-21.33a90,90,0,0,0,6.38-22.56c.57-4.14-.35-6.68-2-10.44-.24-.51-1-.07-.76.45.88,2,2.07,4.13,2.34,6.31.39,3.18-1,7.33-1.7,10.52a97.83,97.83,0,0,1-7.38,20.59c-2.92,6-6,12-8.91,18.07-2.86,5.84-5.37,12-8.48,17.67a23,23,0,0,1-9.18,9.7c-6.66,3.76-14.17,6-21.85,5.21a70.41,70.41,0,0,1-20.71-6.14c-3.44-1.6-7.33-4-9.46-7.18-.83-1.25-2.47-4.84-1.25-6.35,1.5-1.85,3.13-.49,4.81.25,8.22,3.67,21,15.22,30.25,8.05,4.25-3.28,7.84-8.34,11.32-12.38,4.43-5.15,8.7-10.44,12.86-15.8s8.37-11,12.44-16.61c3.53-4.84,8.07-9.59,9.44-15.58a13.4,13.4,0,0,0-3.25-12.32c-2.25-2.53-17.22-10.51-16.4-13.53.56-2.06,3.53-.16,4.94.16,2.58.59,5.21.94,7.82,1.39,4.44.77,10,4.13,12.35,8C113.29,101.89,114.06,101.44,113.76,101Z"/><polygon class="cls-1" points="126.26 21.93 100.1 92.91 104.05 92.97 136.8 23.23 126.26 21.93"/><path class="cls-2" d="M125.84,21.81l-26.17,71a.45.45,0,0,0,.43.56l4,.05a.43.43,0,0,0,.38-.21l32.75-69.74a.45.45,0,0,0-.38-.66l-10.54-1.3c-.56-.07-.55.81,0,.88,2.8.34,6.11,1.32,8.9,1.1,1.41-.12,1.24.53,1.2-.32a4,4,0,0,1-.63,1.32c-2.52,3.9-4.13,8.81-6.1,13L110.46,78.28c-2,4.17-3.54,9.51-6.23,13.27-1.09,1.51.13.71-2.16,1-1.9.19-1.8.8-.87-1.33,5-11.49,8.75-23.73,13.09-35.5l12.4-33.62C126.88,21.51,126,21.28,125.84,21.81Z"/><path class="cls-6" d="M38.91,95.25h7.75s-33.21,99.91-33.93,99.91-9.26-3.75-9.26-3.75Z"/><path class="cls-2" d="M38.91,95.47c1.9,0,3.85.14,5.74,0,1.3-.09,1.58-.26,1.68.08.28.91-1.27,3.81-1.56,4.69q-3.66,11-7.34,22c-6.38,19.1-12.77,38.21-19.31,57.26-1.13,3.3-2.26,6.6-3.43,9.88-.41,1.17-.92,4.35-1.89,5.17-.7.58-8.59-2-9.09-3.26,0,0,.83-2.14,1-2.71l18-48.92L39.12,95.31c.1-.27-.32-.38-.42-.12l-31,84.17-4.42,12a.23.23,0,0,0,.1.25c1.52.67,8,4.48,9.45,3.77.56-.28.85-1.86,1-2.36,2.57-6.82,4.83-13.76,7.18-20.66q10.44-30.66,20.64-61.43,2.61-7.8,5.2-15.61a.22.22,0,0,0-.21-.28H38.91A.22.22,0,0,0,38.91,95.47Z"/><polygon class="cls-6" points="93.25 9.43 105.34 16.22 76.2 87.02 65.96 82.3 93.25 9.43"/><path class="cls-2" d="M93.14,9.62l8.16,4.58c1.56.88,3.56,1.5,3.6,2.52,0,1.25-1.42,3.45-1.9,4.6l-3.39,8.24L81.2,74.3l-3.29,8c-.38.91-1,3.64-1.76,4.27s.64,0-.46,0c-1.42-.05-3.66-1.68-5-2.28-1.65-.75-4.27-1.41-4.36-2.45-.1-1.19,1.3-3.49,1.72-4.59L71.18,69l8.46-22.6L93.46,9.49c.1-.27-.32-.38-.42-.12L65.75,82.25a.21.21,0,0,0,.1.24l10.24,4.72a.22.22,0,0,0,.32-.13l29.14-70.8a.21.21,0,0,0-.1-.25L93.36,9.24C93.12,9.1,92.89,9.48,93.14,9.62Z"/></g></g></svg>