<svg xmlns="http://www.w3.org/2000/svg" viewBox="0 0 484.43 253.47"><defs><style>.cls-1{fill:#bfcbc8;}.cls-2{fill:#38301f;}.cls-3{fill:#ad968a;}.cls-4{fill:#eae3ca;}.cls-5{fill:none;stroke:#38301f;stroke-miterlimit:10;stroke-width:0.7px;}</style></defs><title>rune</title><g id="Layer_2" data-name="Layer 2"><g id="runes"><path class="cls-1" d="M94.31,168.93c-2.46-2.44-5.79-4.22-9.25-4.06a18.08,18.08,0,0,0-6,1.7,184.41,184.41,0,0,0-25.2,13c-2.82,1.74-5.72,3.68-7.25,6.62-2.56,4.93-.53,10.9,1.54,16.07q2.16,5.43,4.34,10.86l-1.57-2.9A146.88,146.88,0,0,0,70.79,246c1.79,2.37,3.85,4.82,6.73,5.53a13.78,13.78,0,0,0,5.78-.23l14.24-2.63c5.6-1,11.33-2.12,16.23-5s8.86-8.07,8.72-13.76a23.45,23.45,0,0,0-1.3-6.23c-1.84-6-3.85-11.86-6.26-17.61-4.14-9.9-9.43-19.27-14.71-28.62A38.2,38.2,0,0,0,94.31,168.93Z"/><path class="cls-2" d="M95.56,167.68c-5.25-4.75-10.58-5.41-17-2.8A171.78,171.78,0,0,0,56,176.18c-5.27,3.11-11.17,6.42-12.18,13-1.25,8.2,4,17,7,24.33L54,212.2l-1.57-2.91c-.92-1.72-4-.53-3.22,1.35a155,155,0,0,0,10.65,22.15c3.56,6.07,7.89,14.59,13.8,18.78,5.07,3.6,11.69,1.15,17.24.13,7.46-1.38,15.43-2.21,22.27-5.7,5.07-2.58,9.54-7.14,10.77-12.84,1.46-6.78-2.33-14.39-4.59-20.6a178.51,178.51,0,0,0-10.26-22.74c-4-7.45-7.75-15.91-13.52-22.14-1.55-1.66-4,.83-2.49,2.49,4.75,5.13,7.84,12,11.17,18.09a198.6,198.6,0,0,1,9.07,18.47A135,135,0,0,1,120,225.67c1.92,7.65-1.65,13.77-8.56,17.29-5.75,2.93-12.5,3.69-18.77,4.85-3.26.6-6.52,1.27-9.79,1.81-4.28.71-7.1-.34-9.87-3.66-8.8-10.53-15.4-23.55-20.36-36.25l-3.22,1.35L51,214c.92,1.72,4,.53,3.22-1.35C51.91,207,49,201.23,47.65,195.28c-1.88-8.4,3.69-12.27,10.12-16.06,4.83-2.85,9.8-5.48,14.87-7.87,7-3.31,13.77-7.21,20.43-1.18C94.74,171.69,97.24,169.21,95.56,167.68Z"/><path class="cls-2" d="M70.91,243.92a63.7,63.7,0,0,1,30-12.61c6.74-1.05,12.31-3.71,11.73-11.44-.64-8.6-5.3-17.76-8.75-25.56a197.26,197.26,0,0,0-16.05-29.2c-.62-.94-2.15-.06-1.52.89,10.11,15.27,20.07,33.15,24.1,51.2,1.55,6.92-1.93,11.07-8.63,12.21a96.18,96.18,0,0,0-10.91,2.19,63.56,63.56,0,0,0-21.22,11.08c-.89.69.36,1.93,1.24,1.24Z"/><path class="cls-3" d="M117,232.66c-5.16-1.67-10.83-1.23-16,.3a75.8,75.8,0,0,0-14.81,6.7c-3.81,2.08-7.92,4.58-9.21,8.74-.15.48-.46,1.3-.46,1.3,2.76,2.4,6.9,2,10.51,1.38,7.55-1.21,15.22-2.47,22.1-5.82,4.39-2.14,8.72-5.67,9.32-10.52a2.05,2.05,0,0,0-.17-1.32A2.17,2.17,0,0,0,117,232.66Z"/><path class="cls-2" d="M117,232.44c-8.85-2.43-17.4.1-25.41,4.07-6.46,3.2-12.76,6.08-15.38,13.13a.21.21,0,0,0,.1.25c3.27,2.31,6.87,2,10.68,1.4,6.65-1,13.44-2.17,19.68-4.74,3.11-1.28,17.1-9.91,10.38-14.08-.24-.15-.46.23-.22.38,5,3.07-4.38,10.24-6.6,11.54a42,42,0,0,1-10.35,3.94c-3.13.83-6.32,1.42-9.52,2-2.57.44-10.71,2.68-12.73,0-3.7-4.91,10-11.31,13.37-13,8.15-4.11,16.78-6.92,25.88-4.42A.22.22,0,0,0,117,232.44Z"/><path class="cls-3" d="M90.64,172.35a219,219,0,0,1,18.78,39.55c1.93,5.42,7.93,13.85,7.93,13.85a2.13,2.13,0,0,0,2.4-1c.59-1.27.07-2.76-.46-4.06-5.06-12.48-10.14-25-17.08-36.55C99.32,179.33,95.83,174.47,90.64,172.35Z"/><path class="cls-2" d="M90.45,172.46C98,185.11,103.79,198.29,109.2,212a64.13,64.13,0,0,0,6.51,11.78c1,1.46,1.16,2.69,3,2.09,2.94-.94.71-5.28.06-6.91-2.39-6-4.87-11.95-7.55-17.81-4.56-10-9.87-24-20.51-29-.25-.12-.47.26-.22.38C100.07,177,105,189,109.33,198c2.63,5.51,5,11.14,7.32,16.78.71,1.73,3.18,5.57,2.91,7.31-.12.79-1.92,3.27-2.28,3.17s-.77-1.12-1-1.38c-5.06-7.53-7.83-15.66-11.35-23.95a226.19,226.19,0,0,0-14.15-27.69A.22.22,0,0,0,90.45,172.46Z"/><path class="cls-4" d="M86.41,168.45a3.8,3.8,0,0,0-6.2,3.7,12.43,12.43,0,0,0,1.57,4.4l5,10A53.09,53.09,0,0,1,91.5,198c.91,3.85,1,7.85,1.67,11.75s2.25,7.87,5.39,10.26,10.61.27,10.61.27c.72-2.91-.1-5.95-1-8.8A158.37,158.37,0,0,0,89.48,172,11.87,11.87,0,0,0,86.41,168.45Z"/><path class="cls-2" d="M86.52,168.26c-3.4-1.59-6.83-.28-6.52,4,.26,3.78,3.29,7.83,4.94,11.1,2.52,5,5.38,10,6.52,15.53,1.37,6.68.45,16,6.4,20.79,3.13,2.55,7.72,1.81,11.37.81a.22.22,0,0,0,.16-.15c1.25-8.54-4.14-18.53-7.55-26.16a157,157,0,0,0-7.14-14c-2.3-4-4.56-8.73-8.14-11.78-.21-.18-.53.12-.31.31,3.69,3.14,6.14,8.26,8.51,12.45s4.42,8.24,6.35,12.49q3.24,7.15,5.76,14.61a37.37,37.37,0,0,1,2,6.82c.55,4.2.8,5.12-2.85,5.65-13.23,1.9-12.29-13-14.18-21.91a48.42,48.42,0,0,0-4.49-11.52c-1.1-2.21-2.22-4.41-3.33-6.61-.56-1.1-1.14-2.2-1.67-3.32a20.66,20.66,0,0,1-1-2.24q-2.68-4.32,4.94-6.39C86.55,168.76,86.77,168.38,86.52,168.26Z"/><path class="cls-4" d="M83.64,227.57c-4.88.48-9.64-1.79-13.55-4.74s-7.23-6.61-11.13-9.58c-1.6-1.22-4-2.29-5.52-1.19l0-.77c0,.27,0,.54,0,.8a2.52,2.52,0,0,0-.25.21c-1.56,1.47-.59,4.06.47,5.93A18.32,18.32,0,0,1,58.17,224c2.72,5.55,3.86,12.17,8.43,16.33a4.22,4.22,0,0,0,2.46,1.28,4.73,4.73,0,0,0,2.24-.6,38,38,0,0,0,14.26-11.61,1.58,1.58,0,0,0,.36-.72C86,227.67,84.6,227.48,83.64,227.57Z"/><path class="cls-2" d="M83.64,227.35c-8.75.33-14.71-5.71-20.77-11.11-1.58-1.4-3.22-3.14-5.17-4.06a17.65,17.65,0,0,0-4.06-.89.22.22,0,0,0-.44,0c-.06,2.17-1.47,2.67-.63,5.16.73,2.16,2.44,3.25,3.77,5.06,4.1,5.58,4.49,15.32,10.72,19.4,4.47,2.92,11.53-3.86,14.56-6.76,1.66-1.6,7.52-6.69,2-6.8a.22.22,0,0,0,0,.44l.81,2.64c-.48.6-1,1.18-1.52,1.74-.71.76-1.43,1.49-2.19,2.19a37.53,37.53,0,0,1-6.81,5c-2.5,1.41-3.25,2.09-6,.81a8.88,8.88,0,0,1-4.55-4.42,52.44,52.44,0,0,1-3.07-7.2c-1.24-3.21-2.55-6.35-4.92-8.91-1.95-2.12-3.53-4.35-1.85-7.39.1-.2-.36-1-.34-.19a.23.23,0,0,0,.28.21c5.18-1.78,13.36,8.53,17.15,11.23a20.63,20.63,0,0,0,13,4.29C83.92,227.78,83.92,227.34,83.64,227.35Z"/><path class="cls-2" d="M58.14,194l11.68,2.16A1.83,1.83,0,0,0,72,195l4.76-12-3.22.42,13.28,28.82,1.52-2.65-9-.56a1.75,1.75,0,0,0-1.52.88L73.53,218c-1,2,2,3.79,3,1.77l2.13-4.09A23,23,0,0,0,80,213.25c.25-.69,1.5-1.89.12-1.13s.33.35,1,.49a20.48,20.48,0,0,0,2.72.16l4.51.28c1.45.09,2-1.53,1.52-2.65L76.57,181.58c-.71-1.53-2.72-.82-3.22.42L68.6,194l2.16-1.23-11.69-2.16c-2.21-.41-3.16,3-.93,3.39Z"/><path class="cls-1" d="M459.58,3.8c-2.83-2.21-6.77-2.31-10.32-1.8-6.67,1-12.93,3.73-19.08,6.48-2.93,1.31-6,2.73-7.89,5.31-3.19,4.33-2.11,10.35-.89,15.6l2.85,12.27A77.12,77.12,0,0,0,427,51.47a74.11,74.11,0,0,0,4.1,8.58q5.53,10.49,11.09,21a33.15,33.15,0,0,0,5.17,1.72c9.48,1.89,19.13-2.22,27.29-7.39,3-1.89,6-4.1,7.35-7.35,1.69-4,.44-8.62-.89-12.79A425.07,425.07,0,0,0,463.8,10.14C462.75,7.81,461.6,5.38,459.58,3.8Z"/><path class="cls-2" d="M460.47,2.28c-6.44-4.16-14.73-1.82-21.41.6-5.9,2.15-14.27,4.54-18.15,9.84-4,5.54-2.21,12.78-.8,18.89C422,39.76,423.4,48.24,427,55.85c2.07,4.4,4.48,8.66,6.76,12.95L437,74.92c1.06,2,2.25,5.56,3.84,7.16,3.68,3.73,12.44,3.19,17.05,2.33a50,50,0,0,0,20.55-9.53c5.7-4.4,7-10.11,5.33-16.95-2.55-10.29-6.73-20.45-10.63-30.29q-2.66-6.69-5.53-13.29c-1.82-4.18-3.36-8.62-6.76-11.79-1.65-1.55-4.14.93-2.48,2.49,3.12,2.92,4.53,7.23,6.2,11.08q2.88,6.6,5.51,13.31c3.18,8.06,6.13,16.22,8.79,24.47,1.46,4.53,3.62,10,1,14.53-2.19,3.71-6.81,6-10.49,8A42,42,0,0,1,456.92,81c-3.64.64-10.37,1.19-13.51-1.39-1-.81-1.78-3.43-2.48-4.74l-3.23-6.12c-2.14-4-4.33-8.06-6.41-12.14-4-7.9-5.59-16.5-7.58-25.08-.93-4-2.19-8.12-1.61-12.23.7-4.94,4.16-7.11,8.34-9,7.5-3.46,20.25-10.13,28.25-5C460.6,6.55,462.37,3.51,460.47,2.28Z"/><path class="cls-2" d="M437,69.47c5.74,1.76,11,.87,16.37-1.68a105.74,105.74,0,0,0,17.73-10.36c4.39-3.29,5.51-7.72,4.7-13-1.19-7.84-4.5-15.73-7.32-23.1-.4-1.05-2.1-.59-1.7.47,2.08,5.42,4,10.91,5.66,16.48,2.09,7,3.39,14-3.62,18.62-8.81,5.84-20.38,14.27-31.35,10.9-1.09-.34-1.55,1.36-.47,1.7Z"/><path class="cls-3" d="M473.65,61.17a21.33,21.33,0,0,0-6.8.94c-6.53,1.65-13.56,3.61-17.7,8.93-2,2.6-5.6,7.25-5.6,7.25a5,5,0,0,0,3.38,4.06,12.83,12.83,0,0,0,5.52.44c7.87-.63,15.79-2.74,22.22-7.32a14.16,14.16,0,0,0,4.5-4.71,6.76,6.76,0,0,0,.23-6.31A7.15,7.15,0,0,0,473.65,61.17Z"/><path class="cls-2" d="M473.65,61c-8.58-.05-19.52,3.57-25,10.4-1.3,1.62-4.89,4.89-5.29,6.88-.5,2.5,3,4.31,4.87,4.7,8.63,1.78,21.35-2.71,27.88-8.27,5.45-4.64,5.74-12.4-2.38-13.7-.28,0-.4.38-.12.43,4.37.7,7.44,4.92,5.39,9.26a13.88,13.88,0,0,1-4.42,4.63,35.82,35.82,0,0,1-9.72,4.85,50.06,50.06,0,0,1-9,2.06,19.92,19.92,0,0,1-4.74.47c-1.82-.22-7.17-3.18-6.83-4.88s3.37-4.41,4.36-5.65a21.11,21.11,0,0,1,6.07-5.45,41.79,41.79,0,0,1,19-5.29C473.93,61.4,473.93,61,473.65,61Z"/><path class="cls-4" d="M425.26,40.75A31.53,31.53,0,0,0,464,58.89c-6.33,6.27-14.7,11.68-23.54,10.59a5.49,5.49,0,0,1-2.82-1,6.1,6.1,0,0,1-1.36-1.91,159.64,159.64,0,0,1-10.1-23.15"/><path class="cls-2" d="M425.07,40.86c5.68,13,18.87,21.14,33.16,19.47.76-.09,4-1,4.17-.77.62.66-4.4,4.14-4.63,4.3A27.57,27.57,0,0,1,445,69.2c-7.66.89-10-5.12-12.61-10.82-2.27-4.91-4.25-9.92-6-15-.1-.27-.52-.15-.43.12a168.14,168.14,0,0,0,6.86,16.75c1.59,3.33,2.87,8.27,6.83,9.31,9,2.36,18.46-4.68,24.49-10.49a.22.22,0,0,0-.21-.37,31.87,31.87,0,0,1-38.45-18c-.11-.26-.49,0-.38.22Z"/><path class="cls-4" d="M460.26,6c-2.95-2.86-7.35-4.59-11.25-3.31,12.4,15.08,17.81,55,17.81,55a8.35,8.35,0,0,0,5.86-4.21,15.63,15.63,0,0,0,1.87-7.15c.36-6.78-1.72-13.45-4.06-19.83q-1.85-5-3.92-9.95C465,12.73,463.2,8.89,460.26,6Z"/><path class="cls-2" d="M460.41,5.87C457.06,3,453.38,1.48,449,2.5a.23.23,0,0,0-.1.37c7.6,9.56,11,22.49,13.77,34.15,1.64,6.82,3,13.74,4,20.7,0,.12.17.17.27.15,9.4-2.34,8.56-14.29,6.86-21.69a116.7,116.7,0,0,0-6.27-18.07c-1.83-4.43-3.74-8.71-7.06-12.24-.19-.21-.5.1-.31.31,5.2,5.53,7.62,13.35,10.18,20.35,2.63,7.19,5.55,15.72,3.53,23.41-.5,1.91-4.82,9.17-6.83,7.29-.26-.24-.23-1.54-.28-1.88-.45-2.89-1-5.77-1.53-8.65a188.5,188.5,0,0,0-6.59-25.41,86.49,86.49,0,0,0-5-11.88c-.75-1.42-2.95-3.77-3.23-5.3s-1.38.33.51-1.21c2.5-2,7.51,1.78,9.23,3.28C460.32,6.37,460.63,6.06,460.41,5.87Z"/><path class="cls-1" d="M338.15,170.52c-1.49-4.89-4.2-9.3-6.89-13.65l-4.54-7.35-4.23-6.85c-4.79-7.75-9.69-15.64-16.58-21.61a11.62,11.62,0,0,0-3.55-2.31c-2.62-.94-5.52-.15-8.16.75a95.16,95.16,0,0,0-22.1,11,20.37,20.37,0,0,0-4.06,3.33c-4.26,4.87-3.57,12.15-2.56,18.57a38.13,38.13,0,0,1,4.61,8.75c.83,2.24,1.45,4.57,2.46,6.75a41.4,41.4,0,0,0,2.39,4.26l13.81,22.48c2.5,4.07,5.3,8.39,9.75,10.11a16.3,16.3,0,0,0,9.61.18c6.65-1.61,12.52-5.41,18.25-9.14,4.27-2.79,8.73-5.78,11.08-10.32S339.64,175.41,338.15,170.52Z"/><path class="cls-2" d="M339.85,170.05c-2.92-8.72-8.5-16.39-13.3-24.16-4.66-7.53-9.15-15.32-15.15-21.9-2.3-2.53-5-5.63-8.36-6.85-3.64-1.34-7.51,0-11,1.25-8.21,3-17.51,7-24,12.94-5.52,5-5.66,12.91-4.51,19.79.63,3.76,3.48,6.87,4.86,10.48a73.61,73.61,0,0,0,6,13c5.11,8.34,9.81,17.25,15.62,25.12,4.22,5.7,9.81,8.47,17,7.19,9.25-1.66,18.46-7.68,25.69-13.46,7.58-6,9.68-14.17,7.18-23.43a1.76,1.76,0,0,0-3.39.94c1.61,6,1.43,12.08-2.88,16.92-3,3.39-7.19,5.79-11,8.2-7.6,4.81-19.52,12-27.48,4.25-3.26-3.18-5.44-7.6-7.8-11.44l-6.9-11.25c-2.73-4.44-5.62-8.71-7.46-13.61a107.42,107.42,0,0,0-4.59-10.49,20.83,20.83,0,0,1-1.28-14.21c1.6-5.58,7.2-8.4,11.92-11.08a94.26,94.26,0,0,1,12.35-5.87c2-.79,4.38-1.9,6.57-2.14,4.4-.48,6.51,1.63,9.24,4.36,6.32,6.3,10.84,14.13,15.5,21.67,4.89,7.91,10.82,15.81,13.8,24.69C337.17,173.13,340.57,172.21,339.85,170.05Z"/><path class="cls-1" d="M265.54,152.73l-.06-.35-.65-.9Z"/><path class="cls-2" d="M267.23,152.26a3.75,3.75,0,0,0-.88-1.67,1.76,1.76,0,0,0-3,1.78l.71,1.25a1.78,1.78,0,0,0,2.41.63,1.8,1.8,0,0,0,.63-2.41l-.71-1.25-3,1.78.38.52.17.23c-.06-.15-.07-.13,0,.08a1.76,1.76,0,0,0,2.16,1.22A1.79,1.79,0,0,0,267.23,152.26Z"/><path class="cls-1" d="M213.33,136.08c-.82-6.83-1.79-13.77-4.74-20-1.31-2.75-3.12-5.44-5.82-6.84s-6.11-1.32-9.24-1.07a238.8,238.8,0,0,0-33.24,5.6c-5.07,1.16-10.23,2.41-14.67,5.14A13.18,13.18,0,0,0,142,122a14,14,0,0,0-2.31,5.71c-1.6,7.75-.23,15.76,1.13,23.55,1.24,7.09,2.51,14.25,5.34,20.86a5.26,5.26,0,0,0,1.43,2.19,5.59,5.59,0,0,0,3.45.86,196.47,196.47,0,0,0,55.34-6.54l-1.32-.11c3.94-6.58,8-13.44,8.77-21.07A51.68,51.68,0,0,0,213.33,136.08Z"/><path class="cls-2" d="M215.09,136.08c-1.26-10.26-3-28-16-29.66-7-.88-14.84.93-21.77,2.12a193.52,193.52,0,0,0-24.2,5.26c-5.59,1.72-11.68,4.32-14.09,10-2.63,6.25-2,13.92-1.09,20.44a148.91,148.91,0,0,0,4.43,22.42c1.58,5.27,2.67,9.81,8.69,10.25,18.43,1.33,38-2,55.8-6.6,2-.53,1.43-3.29-.46-3.46l-1.32-.11,1.52,2.65c2.95-4.94,5.91-10,7.65-15.49,1.86-5.91,1.59-11.76.88-17.85-.26-2.22-3.79-2.25-3.52,0,.67,5.75,1,11.31-.75,16.92-1.65,5.22-4.51,10-7.3,14.64a1.78,1.78,0,0,0,1.52,2.65l1.32.11-.47-3.45a198.53,198.53,0,0,1-48.12,6.52,31.09,31.09,0,0,1-5.79,0c-3.81-.73-5-3.63-6-6.83a94.18,94.18,0,0,1-2.52-10.49c-1.45-7.49-3.16-15.33-2.7-23,.3-5,1.23-9.82,5.75-12.68a36.91,36.91,0,0,1,10.86-4.16c7.17-1.82,14.47-3.29,21.77-4.51,6.66-1.11,19.15-4.68,24.8.51,5.88,5.4,6.72,16.43,7.63,23.8C211.84,138.3,215.36,138.33,215.09,136.08Z"/><path class="cls-1" d="M175.58,109.37l-.08,0-.13,0Z"/><path class="cls-2" d="M176.05,107.67l-.22-.07a1.76,1.76,0,0,0-.93,3.4l.21.07a1.76,1.76,0,1,0,.94-3.4l-.22-.07-.93,3.4a.86.86,0,0,1,.21.07,1.77,1.77,0,0,0,2.17-1.23A1.82,1.82,0,0,0,176.05,107.67Z"/><path class="cls-1" d="M223.07,72.53c-1.14-6.26-6.2-11.05-11.48-14.61C201,50.8,188.71,46.77,177.47,40.77c-5.06-2.71-10.78-5.91-16.19-4-4.25,1.5-6.81,5.73-9,9.65l-7.92,14A62.05,62.05,0,0,0,138.76,72a21,21,0,0,0-.42,12.7,15.65,15.65,0,0,0,3.2,5.6,28.4,28.4,0,0,0,5.37,4.38,133.21,133.21,0,0,0,28.59,14.62c7.24,2,15.18-1.31,22.72-.26,2.7.38,5.46,1.31,8.08.56,3-.85,4.93-3.6,6.51-6.25a95.33,95.33,0,0,0,8.51-18.29C222.71,81.06,223.83,76.74,223.07,72.53Z"/><path class="cls-2" d="M224.76,72.06c-3.8-16.35-25.31-22.79-38.6-29-7-3.24-15.54-10-23.71-8.44-7.54,1.47-11,9.56-14.37,15.54-7.59,13.41-20.54,32.2-4.19,44.54a116.59,116.59,0,0,0,24.49,13.66c4,1.72,7.8,3.27,12.23,3.36,5,.11,10-1.26,15-1.1,4.26.14,8.72,2.12,12.81,0,3.19-1.63,5.14-5,6.86-8,5-8.67,10.8-19.9,9.57-30.17-.27-2.22-3.79-2.25-3.52,0,1.2,10-4.79,21.67-10,30-1.37,2.18-2.81,4.58-5.46,5.43-2.33.75-5.25-.33-7.61-.62-4.16-.51-8.23.17-12.36.59-10.61,1-19.9-4-28.94-9.07s-19.5-11-17.27-23.19c1.64-9,7.9-17.37,12.35-25.23,2.26-4,4.51-9.35,8.82-11.53,5.84-3,12.26,1.61,17.3,4.2,7.74,4,15.87,7.12,23.61,11.11,8,4.12,17.44,9.35,19.64,18.79C221.88,75.2,225.28,74.27,224.76,72.06Z"/><path class="cls-1" d="M175.37,109.3l-1-.31C174.72,109.11,175,109.21,175.37,109.3Z"/><path class="cls-2" d="M175.83,107.6l-1-.3a1.77,1.77,0,0,0-2.17,1.23,1.8,1.8,0,0,0,1.23,2.16l1,.31a1.76,1.76,0,0,0,.93-3.4q-.48-.13-1-.3l-.94,3.39,1,.31a1.77,1.77,0,0,0,2.16-1.23A1.8,1.8,0,0,0,175.83,107.6Z"/><path class="cls-1" d="M348.41,94.45c-.4-3.37-2.57-6.25-3.82-9.41a56.87,56.87,0,0,1-1.85-6.71c-1.8-7-5.11-13.58-8.68-19.9-1.13-2-2.39-4.09-4.44-5.15-2.75-1.42-6.08-.58-9.05.3-9.31,2.73-18.71,5.5-27.11,10.35-3.37,1.94-6.58,4.22-10.23,5.57-3.31,1.23-7.1,1.79-9.51,4.36-2,2.09-2.55,5.06-3.36,7.8s-2.16,5.66-4.79,6.77l1,1.5c1.17,9,5.16,17.27,9.17,25.36a12.47,12.47,0,0,0,3.41,4.75c2.89,2.11,6.94,1.33,10.28.06s6.78-3,10.32-2.45a10.43,10.43,0,0,1,6.79,4.44,4.33,4.33,0,0,0,1.45,1.55,3.64,3.64,0,0,0,2.48,0,75,75,0,0,0,30.24-15.31C344.92,104.78,349.06,99.94,348.41,94.45Z"/><path class="cls-2" d="M350.1,94c-1-5.31-4.11-10-5.45-15.28a76.7,76.7,0,0,0-6.46-16.38c-1.88-3.61-3.85-8.56-7.68-10.57-4.1-2.15-8.95-.32-13,.89a157.63,157.63,0,0,0-16.56,5.67c-5.49,2.31-10.27,5.64-15.55,8.3-4.16,2.11-9.53,2.48-12.89,6-3.88,4.06-2.64,11.33-7.8,14.29a1.77,1.77,0,0,0-.63,2.41c1.34,2.08,1.4,4.86,2,7.25a71.39,71.39,0,0,0,3.3,9.34c1.93,4.59,3.9,10.46,7.27,14.21,2.64,2.95,6.5,3.41,10.22,2.59,3.29-.73,6.23-2.61,9.58-3.1,5.11-.76,6.11,1.69,9.45,4.6,3.08,2.7,7.33.6,10.75-.54a77.06,77.06,0,0,0,15.16-6.91c7.93-4.73,18.79-11.87,18.35-22.31-.1-2.25-3.62-2.27-3.52,0,.43,10.28-13.2,17.74-21.1,21.74-4.15,2.1-10,5.25-14.75,5.54-3.35.2-5-3.59-8-5-3.47-1.57-7-.89-10.5.31-2.5.86-5,2.27-7.67,2.36-4,.13-6.22-2.67-7.81-5.86a109,109,0,0,1-6.59-15.37c-1.13-3.55-1.13-7.54-3.15-10.68L266.46,90c2.83-1.63,4.33-4.09,5.37-7.13.87-2.54,1.24-5.65,3.14-7.71s4.81-2.57,7.29-3.42c4.11-1.4,7.64-3.64,11.37-5.82a85.88,85.88,0,0,1,16.09-7.11c4.57-1.54,9.59-3.61,14.38-4.27,7-1,9.71,6.82,12.27,12.05a85.26,85.26,0,0,1,5.5,15.65c1.19,4.42,4,8.25,4.84,12.73C347.14,97.14,350.53,96.2,350.1,94Z"/><path class="cls-2" d="M305.61,170.22c4.6-6.87,5.4-15.39,8.45-23a1.8,1.8,0,0,0-1.23-2.17c-6.78-2.16-14-1.07-20.76-3.07-2.18-.64-3.11,2.75-.94,3.39,6.81,2,14,.92,20.77,3.08l-1.23-2.17c-2.92,7.28-3.7,15.58-8.1,22.14-1.26,1.89,1.79,3.65,3,1.78Z"/><path class="cls-2" d="M301.37,95.47A239.1,239.1,0,0,0,326.06,84.7c1.27-.64,1.08-3-.42-3.22-1.68-.25-12-1-12.26-2-.17-.62,2.62-4.12,3-4.74l3.87-6.08a1.78,1.78,0,0,0-2-2.58A165,165,0,0,0,290,75.28c-2.07.89-.28,3.93,1.78,3a160.45,160.45,0,0,1,27.39-8.9l-2-2.58c-1.93,3-3.94,6-5.8,9.11-1,1.62-2.44,3.45-1.42,5.43.82,1.6,2.41,1.56,4.1,1.89,3.5.69,7.08,1.07,10.61,1.61l-.42-3.22a233.68,233.68,0,0,1-23.86,10.42c-2.11.78-1.19,4.19.94,3.39Z"/><path class="cls-2" d="M141.81,64.6c-5.69,7.27,2,13.89,8.16,17.07,11.48,5.91,23.75,10.22,36,14.2,9.79,3.19,18.71,5,24.63-5.11,5.31-9.07,9-20.85,4.8-30.9-.43-1-2.13-.58-1.7.47,3.81,9.11.69,18.46-3.31,27-1.82,3.9-4.42,7.93-8.76,9.28-4.93,1.53-10.54-.91-15.2-2.42-7.68-2.5-53.46-15.46-43.39-28.33.69-.88-.55-2.14-1.24-1.25Z"/><path class="cls-2" d="M144.15,157.79c15.09-5.08,30.92-6.49,46.75-6.89,7-.17,25.31,1.79,23-10.41-.21-1.11-1.9-.64-1.69.47.6,3.16-2.17,6.14-4.78,7.1a18.64,18.64,0,0,1-5.75.91c-2.66.12-5.34.06-8,.11-5.83.11-11.66.32-17.47.77a134.7,134.7,0,0,0-32.51,6.24c-1.07.36-.61,2.06.47,1.7Z"/><path class="cls-2" d="M265.26,137.1c.16,11,5.67,21.43,11.86,30.25,5.81,8.27,13.09,17.49,21.19,23.62,8.34,6.29,18.95-2.91,26-7.13,6.37-3.78,14.79-7.8,13.48-16.76-.16-1.11-1.85-.64-1.69.47,1.4,9.61-12.15,14.46-18.56,18.27-4,2.37-8.65,6-13.52,5.63-4.65-.32-8.44-5.39-11.43-8.48C280.9,170.88,267.27,154.89,267,137.1a.88.88,0,0,0-1.76,0Z"/><path class="cls-2" d="M270.34,76.43c-2.53,9.09,2.05,17.92,6.41,25.7,4.11,7.35,9.08,12.4,17.87,10.36,10.57-2.46,21.06-5.59,30.87-10.29a140.21,140.21,0,0,0,14.2-8.11c2.89-1.82,5.31-2.93,6.81-6.13.47-1-1-1.91-1.52-.88-1.51,3.21-4.74,4.61-7.61,6.44-3.4,2.17-6.86,4.2-10.45,6a124.79,124.79,0,0,1-23.35,8.81c-4.29,1.18-8.77,2.8-13.22,2.88-5.46.1-8.74-4.3-11.3-8.61-4.5-7.55-9.51-16.75-7-25.73a.88.88,0,0,0-1.7-.46Z"/><path class="cls-3" d="M282.59,120.59l-.32,0-.08,0Z"/><path class="cls-2" d="M282.53,120.38a1.65,1.65,0,0,0-.45.11c-.24.11-.07.45.17.4l.4-.09c.27-.06.16-.48-.12-.42l-.4.09.17.4.35-.07C282.93,120.75,282.81,120.33,282.53,120.38Z"/><path class="cls-3" d="M282.19,120.68l-1.27.28A3.45,3.45,0,0,0,282.19,120.68Z"/><path class="cls-2" d="M282.13,120.47l-1.27.28a.22.22,0,0,0,.06.43,3.83,3.83,0,0,0,1.33-.29c.26-.1.14-.53-.12-.42a3.61,3.61,0,0,1-1.21.27l.05.43,1.28-.28C282.52,120.83,282.41,120.41,282.13,120.47Z"/><path class="cls-3" d="M285.66,112.75a3.46,3.46,0,0,0-1.17-1.11c-5.71-4-8.8-10.74-11.64-17.14-1.49-3.34-3-6.77-3.25-10.42q-1.26,2-2.5,4a6.58,6.58,0,0,0-1,2.23,6,6,0,0,0,0,1.85,52.87,52.87,0,0,0,8.6,23.49c1.78,2.66,4.48,5.42,7.6,5a4.83,4.83,0,0,0,2-1.82,12.61,12.61,0,0,0,1.39-3.9A3.17,3.17,0,0,0,285.66,112.75Z"/><path class="cls-2" d="M285.81,112.59c-1.13-1.36-2.71-2.27-4-3.51a30.88,30.88,0,0,1-5.18-7.19c-3-5.45-6-11.61-6.83-17.81a.22.22,0,0,0-.41-.11c-1.19,1.89-3.07,4-3.57,6.29s.53,5.68,1,7.74a50.5,50.5,0,0,0,7.64,17.74c1.54,2.18,4.63,6.07,7.84,5.11,2.87-.84,4-5.71,3.55-8.16-.05-.28-.48-.16-.42.11.56,3.07-1.79,8.89-6.81,6.69-1.94-.86-3.58-3.66-4.7-5.39a49.8,49.8,0,0,1-4.76-9.76,52.16,52.16,0,0,1-2.42-8.93c-.29-1.66-.25-10.6,2.85-9.47.71.26,2.08,6.44,2.68,7.83,1.13,2.59,2.28,5.19,3.62,7.68a36.32,36.32,0,0,0,4.12,6.3c1.62,1.94,3.89,3.24,5.47,5.15C285.68,113.12,286,112.81,285.81,112.59Z"/><path class="cls-3" d="M301.79,117"/><path class="cls-2" d="M301.79,117.26a.22.22,0,0,0,0-.44.22.22,0,0,0,0,.44Z"/><path class="cls-3" d="M346,99.23a3.09,3.09,0,0,0-3.1-1.47,9.62,9.62,0,0,0-3.4,1.24,92.83,92.83,0,0,1-18.95,7c-4,1-8.09,1.82-11.74,3.72a14.57,14.57,0,0,0-7,7.29,10.46,10.46,0,0,0,8,5.08c4,.47,7.91-.78,11.66-2.13,9.48-3.42,19.35-8.22,24-17.15C346.06,101.72,346.56,100.37,346,99.23Z"/><path class="cls-2" d="M346.16,99.07c-2.26-2.63-4.92-1.15-7.59.15a106.88,106.88,0,0,1-20.64,7.24c-3.74.93-21.27,6.56-14.64,12.91,6.87,6.58,18.22,1.24,25.36-2.06,5.79-2.67,19.17-10,17.57-18.14-.06-.28-.48-.16-.43.11,1.46,7.39-10.73,14.43-16,17-6.3,3.07-18.83,9.25-25.1,3.58-8.55-7.74,12.73-12.72,17.68-14.09a96.62,96.62,0,0,0,10.46-3.52c3.29-1.33,10-6.31,13-2.87C346,99.6,346.35,99.28,346.16,99.07Z"/><path class="cls-3" d="M305,201.52v0Z"/><path class="cls-2" d="M305.2,201.58a.34.34,0,0,0,0-.2c-.08-.22-.45-.21-.43.06v.08a.22.22,0,0,0,.44,0v-.08l-.43.06v0C304.73,201.74,305.15,201.86,305.2,201.58Z"/><path class="cls-3" d="M305,201.44"/><path class="cls-2" d="M305,201.66a.22.22,0,0,0,0-.44.22.22,0,0,0,0,.44Z"/><path class="cls-3" d="M336.25,177c-1.69-1-3.79.07-5.44,1.12l-12.15,7.73a49.36,49.36,0,0,0-8.63,6.4,16.69,16.69,0,0,0-5,9.23,3.16,3.16,0,0,0,1.71,1.77,6.51,6.51,0,0,0,3.69.16c6.45-1.17,12-5.14,17.14-9.18,4.11-3.22,8.32-6.84,9.88-11.81C338,180.5,338,178,336.25,177Z"/><path class="cls-2" d="M336.31,176.78c-3.8-1.12-7.14,2.11-10.17,4-4.53,2.88-9.36,5.56-13.57,8.9-2.45,2-12.3,11.76-5.33,13.88,8.28,2.53,38.51-18.2,29.16-26.77-.2-.19-.52.12-.31.31l1.11,5.21a13.32,13.32,0,0,1-1.62,3.43,25.19,25.19,0,0,1-3.4,4.17,59.25,59.25,0,0,1-6.08,5.1,64.81,64.81,0,0,1-6.76,4.65c-2.08,1.19-7.63,4.48-10.2,3.64l-3.63-3.3,1.07-2.78a20.51,20.51,0,0,1,3.08-4.31,38.17,38.17,0,0,1,7.59-6c2.51-1.63,5.06-3.22,7.59-4.83,2.9-1.83,7.73-6,11.35-5A.22.22,0,0,0,336.31,176.78Z"/><path class="cls-3" d="M299.41,197.21a17.8,17.8,0,0,0-3.15-7.28A33.67,33.67,0,0,0,282,178.11a2.31,2.31,0,0,0-1.61-.27,1.62,1.62,0,0,0-1,1.64,4.49,4.49,0,0,0,.66,1.92c4.35,8.21,17.4,23.32,17.4,23.32A9.29,9.29,0,0,0,299.41,197.21Z"/><path class="cls-2" d="M299.63,197.15c-1.5-7-6.85-12.82-12.72-16.63-1.64-1.07-8.09-5.5-7.61-.49.22,2.2,2.53,4.8,3.72,6.56,1.79,2.65,3.72,5.21,5.68,7.73,2.78,3.59,5.65,7.12,8.61,10.55a.23.23,0,0,0,.35,0,10.3,10.3,0,0,0,2-7.62c0-.28-.46-.28-.44,0,.14,1.57-.19,7.63-1.94,6.92-.73-.3-1.78-2.11-2.28-2.71-3.11-3.74-6.16-7.55-9-11.47-1.32-1.81-2.62-3.64-3.82-5.54a9.74,9.74,0,0,1-1.39-2.28c-.73-2.75,1.93-3.22,4-2.45,6.66,2.53,13.08,10.87,14.52,17.59C299.26,197.55,299.69,197.43,299.63,197.15Z"/><path class="cls-3" d="M264.48,163.4a218.78,218.78,0,0,1-13.93,41.51c-2.36,5.24-3.89,15.47-3.89,15.47a2.12,2.12,0,0,0,2.42.94c1.31-.5,2-1.94,2.49-3.24,5-12.5,10.05-25.05,13.06-38.17C265.88,174.45,266.74,168.53,264.48,163.4Z"/><path class="cls-2" d="M264.27,163.34c-3.33,14.36-8.27,27.87-13.91,41.46a62,62,0,0,0-3.4,12.5c-.27,1.46-1.09,2.89.2,3.93,4.43,3.53,11-19.4,11.91-21.94,3.78-10.61,9.85-24.7,5.62-35.95-.1-.26-.52-.15-.42.12,3.89,10.35-1.31,23.18-4.72,33.11-1.69,4.92-3.55,9.78-5.47,14.63-1.22,3.09-1.93,7.71-5.24,8.6-2.67.72-1.93.25-1.54-1.89,1.48-8.2,4.7-15.34,7.72-23a223.37,223.37,0,0,0,9.67-31.4C264.76,163.18,264.33,163.06,264.27,163.34Z"/><path class="cls-3" d="M149.78,171.46"/><path class="cls-2" d="M149.78,171.68a.22.22,0,0,0,0-.44.22.22,0,0,0,0,.44Z"/><path class="cls-3" d="M203.86,157.94a12.69,12.69,0,0,0-5.39-2.38c-10-2.31-20.42.81-30.24,3.9-4.2,1.32-8.47,2.68-12.07,5.21a24.29,24.29,0,0,0-6.38,6.79c.9,1.18,2.77,1.43,4.34,1.46a211.55,211.55,0,0,0,43.14-3.52,17.6,17.6,0,0,0,5.58-1.73,6.34,6.34,0,0,0,3.37-4.54A6.09,6.09,0,0,0,203.86,157.94Z"/><path class="cls-2" d="M204,157.75c-8.32-5.79-20.73-2.91-29.67-.36-9.59,2.73-18.84,5.34-24.71,14a.23.23,0,0,0,0,.27c3.74,3.23,11.29,1.61,15.81,1.46a212.28,212.28,0,0,0,21.66-1.83c5.17-.7,12.92-.65,17.12-4.26,3.23-2.78,2.51-6.43-.19-9.21-.2-.2-.51.11-.32.31q3.27,9.06-3.62,10.46-1.43.38-2.88.63c-1.84.37-3.71.67-5.57,1-4.94.79-9.92,1.4-14.91,1.83-4.38.37-8.78.62-13.17.72-2.46.06-12.92,1.41-12.7-2.41.09-1.49,4.16-4.53,5.42-5.42a31,31,0,0,1,7.31-3.63c3.83-1.41,7.79-2.59,11.73-3.67,8.65-2.39,20.45-5,28.44.56C204,158.29,204.2,157.91,204,157.75Z"/><path class="cls-3" d="M185.62,104.29a19,19,0,0,0-5.21-4.16c-5.47-3.41-10.95-6.82-16.61-9.92a44.21,44.21,0,0,0-11.3-4.72,18.77,18.77,0,0,0-10.22.32c1.08,3.6,4.23,6.33,7.35,8.55A85.76,85.76,0,0,0,172.57,106c4.17,1.38,9,2.36,12.73.08a1.3,1.3,0,0,0,.7-.81A1.33,1.33,0,0,0,185.62,104.29Z"/><path class="cls-2" d="M185.78,104.14c-2.85-3.11-6.63-5.07-10.19-7.26-4.09-2.52-8.21-5-12.45-7.27-6.59-3.53-13.44-6.12-20.91-4a.23.23,0,0,0-.16.27c3.1,8.16,13.44,13,20.8,16.5,5.5,2.58,18,9.08,23.28,3a.23.23,0,0,0,.06-.22l-.37-1c-.11-.26-.53-.15-.43.12,1.66,4.25-8.84,2.49-9.56,2.33a43.59,43.59,0,0,1-4.85-1.46,84.46,84.46,0,0,1-10.22-4.38,83.4,83.4,0,0,1-8.2-4.73c-2.58-1.68-8.07-4.6-8.94-7.87-1.41-5.3,8.76-2.66,11.33-1.83a59,59,0,0,1,10.41,4.93c6.56,3.68,15,7.54,20.09,13.11C185.66,104.66,186,104.34,185.78,104.14Z"/><path class="cls-3" d="M222.16,77.54a2.46,2.46,0,0,0-.53-1.37,1.89,1.89,0,0,0-2.22-.21,5.42,5.42,0,0,0-1.7,1.67c-6.34,8.36-14.19,26.42-14.19,26.42a3,3,0,0,0,1.27,3.12,4.4,4.4,0,0,0,4.64-.36,11.82,11.82,0,0,0,3.19-3.69,78.27,78.27,0,0,0,8.63-19A16,16,0,0,0,222.16,77.54Z"/><path class="cls-2" d="M222.37,77.48C220,71.11,214.1,82.61,213,84.6c-2.23,3.89-4.26,7.89-6.2,11.93-1,2.13-2.89,4.83-3.31,7.17-.8,4.39,3.94,5,6.76,2.74,3.94-3.2,6.33-9.5,8.27-14s4.11-9.74,3.91-14.87c0-.28-.46-.28-.44,0,.29,7.32-3.86,15.47-7.3,21.7-.91,1.65-1.81,3.74-3.17,5.06q-2.24,4.28-7.73-.2l.08-.18a12.19,12.19,0,0,1,1.39-3.09c1.76-3.83,3.6-7.62,5.57-11.35,1.22-2.33,2.5-4.63,3.87-6.88.69-1.13,5.54-9.62,7.29-5C222,77.86,222.47,77.75,222.37,77.48Z"/><path class="cls-4" d="M275.85,74.85"/><path class="cls-2" d="M275.85,75.07a.22.22,0,0,0,0-.44.22.22,0,0,0,0,.44Z"/><path class="cls-4" d="M290.44,107c-1.05-3.48-3.33-6.42-5.34-9.44a72.35,72.35,0,0,1-8.28-16.86,14.8,14.8,0,0,1-1-5.84v0c-3.53,2.37-5.13,6.92-4.91,11.17s2,8.26,4.07,12c2.65,4.78,6,9.46,11,11.83,1.53.74,3.81,1,4.53-.55A3.21,3.21,0,0,0,290.44,107Z"/><path class="cls-2" d="M290.65,106.93C286.75,96,276,87.31,276.07,74.85a.22.22,0,0,0-.43-.06c-.22.65-1.92,1.66-2.47,2.41a12.25,12.25,0,0,0-1.39,2.5,15.19,15.19,0,0,0-.92,7.92c.71,5.34,3.65,10.64,6.74,15,2.18,3,6.13,7.89,10.35,8,2.53.09,3.16-1.44,2.7-3.69,0-.28-.48-.16-.42.12,1.27,6.26-6.82,1-7.82.22a24.53,24.53,0,0,1-3.11-3.17,42.71,42.71,0,0,1-5.59-9c-1.74-3.71-3-7.71-2.37-11.83.12-.85,3.48-9.35,4.7-8.27-.36-.32.46,5.43.57,5.78a64.23,64.23,0,0,0,3.24,8c3,6.31,8,11.74,10.38,18.32C290.32,107.31,290.75,107.2,290.65,106.93Z"/><path class="cls-4" d="M343,84.1l-9.18-23.81c-.41-1.07-1.08-2.33-2.23-2.32-.32,3.07,1.83,5.82,2.48,8.84.73,3.39-.49,6.86-1.7,10.11-1.84,4.91-3.78,9.92-7.25,13.84-5.05,5.72-13,8.73-16.75,15.38l-1,.75a73.67,73.67,0,0,0,33.23-15.06c1.42-1.14,4.94-2.51,5.15-4.31C345.87,86.35,343.39,85.2,343,84.1Z"/><path class="cls-2" d="M343.17,84q-3.53-9.15-7.06-18.31c-1-2.59-1.57-6.91-4.5-8a.22.22,0,0,0-.28.21,14.34,14.34,0,0,0,1.19,5.22,15.46,15.46,0,0,1,.74,10.36,46.07,46.07,0,0,1-7.39,15.84c-3,3.87-7.12,6.43-10.94,9.41-2.95,2.29-4.89,5.74-7.72,7.93-.19.15,0,.41.21.37A75.39,75.39,0,0,0,336.68,95c2-1.39,3.92-2.88,5.94-4.23.84-.57,2.48-1.26,2.93-2.28,1-2.26-1.13-2.72-2.4-4.53-.16-.23-.54,0-.38.22,1.35,1.94,3.1,2.87.74,5.52-1.29,1.44-5,3.42-6.37,4.43a73.85,73.85,0,0,1-16.92,9,69.81,69.81,0,0,1-8,2.48c-.89.23-3,1.13-3.74.89-1.35-.46.34.92,0-.27-.39-1.51,4.36-5.24,5.57-6.23,2.22-1.84,4.64-3.42,6.9-5.21,6.93-5.48,12.61-15.63,13.4-24.54a12.3,12.3,0,0,0-.58-5c-.27-.86-1.47-2.67-1.43-3.64.11-2.68,2.16,1.56,2.6,2.39,3.29,6.18,5.25,13.61,7.77,20.15C342.85,84.42,343.28,84.31,343.17,84Z"/><path class="cls-4" d="M300.32,180.77c-5.73-8.83-12.69-16.87-17.7-26.13-3.32-6.14-5.75-12.75-9.51-18.63a7.29,7.29,0,0,0-2.3-2.29l0,0a1,1,0,0,0-.4-.16,2.11,2.11,0,0,0-2.24.15c-1.08.81-1.08,2.5-2.07,3.41,0,0,1.73,6.57,3.09,10.37a92.9,92.9,0,0,0,24.34,36.8,9.22,9.22,0,0,0,3.91,2.49,3.38,3.38,0,0,0,4-1.67C302,183.65,301.17,182.07,300.32,180.77Z"/><path class="cls-2" d="M300.51,180.66c-5.31-8-11.53-15.51-16.41-23.85-1.14-1.95-11.49-24.12-13.14-22.92a.22.22,0,0,0-.06-.4c-3.76-1.55-5.16,3-4.39,5.82A98.33,98.33,0,0,0,276.79,164c4.52,7.52,10.58,16.38,17.83,21.52,4.61,3.26,8.92.45,5.89-4.82a.22.22,0,0,0-.38.22q-4.15,5.88-7,2.67c-.4-.37-.8-.75-1.19-1.14-1-1-1.95-1.94-2.89-2.94A93.54,93.54,0,0,1,274,158a89.38,89.38,0,0,1-5.88-14.71c-.46-1.54-1.47-3.66-1.49-5.28,0-2.68,1.74-2.74,4.09-4.44a.23.23,0,0,0,0,.35c3.86,3.06,5.86,8.66,7.92,13a125.35,125.35,0,0,0,6,11.62c4.74,7.74,10.52,14.78,15.51,22.34C300.29,181.12,300.67,180.9,300.51,180.66Z"/><path class="cls-4" d="M334.43,164.72a38,38,0,0,0-6.57-8.21q-1.23,5.09-2.44,10.16a38.68,38.68,0,0,1-2.55,8c-1.2,2.43-3,6.61-5.42,7.84.22.42,10.4.12,14.11-2.75a10.8,10.8,0,0,0,3.71-4.66A11.31,11.31,0,0,0,334.43,164.72Z"/><path class="cls-2" d="M334.62,164.61a37.57,37.57,0,0,0-6.61-8.25.22.22,0,0,0-.36.09c-1.89,7.84-3,20.89-10.31,25.83-.12.08-.16.31,0,.38,3.14,1.43,10.35-.54,13.12-2,6.12-3.27,7-10.27,4.16-16-.12-.26-.5,0-.38.22,4.26,8.73-1.25,15.74-9.95,17.13-.37,0-5.53.95-5.81.27-.11-.26,2-2.59,2.32-3.12,2.71-4.35,4-9.14,5.23-14.08.28-1.14,1-7.48,2.51-7.57s5.06,6.28,5.7,7.37C334.38,165.07,334.77,164.85,334.62,164.61Z"/><path class="cls-4" d="M210.74,134.51Q210,128,209.29,121.6c-.24-2.15-.59-4.51-2.23-5.9a1.72,1.72,0,0,0-1.38-.5,1.84,1.84,0,0,0-.85.52c-2.06,2-2.36,5.15-2.88,8a37.68,37.68,0,0,1-15.7,24.14s9.73,1,14.43.24c3.61-.56,7.51-1.89,9.27-5.09C211.34,140.46,211.06,137.37,210.74,134.51Z"/><path class="cls-2" d="M211,134.51c-.21-1.8-1-24.08-6.73-18.4-1.36,1.35-1.75,3.61-2.11,5.37a50.62,50.62,0,0,1-2.44,9.21,38.31,38.31,0,0,1-13.54,17,.22.22,0,0,0,.11.41c5.39.52,11.22,1.14,16.53-.18,7.12-1.77,8.88-6.54,8.18-13.37,0-.28-.47-.29-.44,0,.62,6-.94,11-7.18,12.77a31.13,31.13,0,0,1-9.77.8c-1.35,0-5.74.46-6.84-.42a19.65,19.65,0,0,1,2.05-1.43,25.62,25.62,0,0,0,3.77-3.52,38,38,0,0,0,8.76-15.36c.48-1.66.77-3.34,1.11-5a25.53,25.53,0,0,1,.61-2.86q5.82-3.24,5.83.87c.82,1.84.61,4.81.83,6.8q.41,3.69.83,7.38C210.55,134.78,211,134.79,211,134.51Z"/><path class="cls-4" d="M157.1,147.56c-2.89-2.46-6.3-4.57-8-7.95-2.35-4.62-.87-10.17-1.19-15.35,0-.64-.32-1.49-1-1.44a1.22,1.22,0,0,0-.78.53,18.08,18.08,0,0,0-3.22,6.85,42.38,42.38,0,0,0-1.54,10.62,18.26,18.26,0,0,0,.84,6.54,39,39,0,0,0,3.35,6c4.08.41,8.58.71,11.89-1.71a2.58,2.58,0,0,0,1.06-1.3C158.83,149.29,157.94,148.28,157.1,147.56Z"/><path class="cls-2" d="M157.25,147.4c-5.57-4.59-9.46-8.22-9.28-16,.05-2.4,1.46-7.18-.94-8.73a.22.22,0,0,0-.22,0c-4.09,2.77-5,10.13-5.44,14.61s-.48,12.36,3.68,15.73c3,2.46,18,.23,12.2-5.57a.22.22,0,0,0-.31.31q.31,4.74-2.95,5.26a12.34,12.34,0,0,1-3.74.45,10.26,10.26,0,0,1-3.88-.26c-1.66-.7-2.76-3.15-3.52-4.88-1.5-3.45-1.41-7.36-1-11,.21-2.05,1.09-10.69,3.25-11.89,3.4-1.9,2.52,3.83,2.47,6a19.38,19.38,0,0,0,.74,6.9c1.47,4.23,5.37,6.73,8.67,9.45C157.16,147.89,157.47,147.58,157.25,147.4Z"/><path class="cls-4" d="M212.5,71.52c-.17-5.34-2.69-10.76-7.23-13.56a1.28,1.28,0,0,0-.51-.22c-.87-.11-1,1.19-.88,2a38.3,38.3,0,0,1-7.74,31.07,3.62,3.62,0,0,0,2.9,1.88c3.78.36,6.88-2.9,8.87-6.12C210.72,82.08,212.67,76.85,212.5,71.52Z"/><path class="cls-2" d="M212.72,71.52a18.43,18.43,0,0,0-4-10.89c-.59-.7-3.37-4.23-4.75-2.73-.46.5-.25,1.37-.26,2-.09,3.37.82,6.68.54,10.12A39,39,0,0,1,196,90.71c0,.07-.1.18,0,.26,2.77,3.71,7.32,1.52,9.93-1.29a27.62,27.62,0,0,0,6.84-18.16.22.22,0,0,0-.44,0,26.47,26.47,0,0,1-2.34,10.74c-1.15,2.6-3.94,8.77-7.07,9.36l-5.61-1.85c.17-.22.33-.45.49-.68.22-1,1.54-2.32,2.1-3.32a39.15,39.15,0,0,0,4.86-21.3,31.54,31.54,0,0,1-.34-3.15c.17-4.52,1.14-3.24,3-1.43,3.2,3.07,4.58,7.31,4.89,11.63C212.3,71.8,212.74,71.8,212.72,71.52Z"/><path class="cls-4" d="M154.11,73.05A19.16,19.16,0,0,1,150,55.34a6.16,6.16,0,0,0-2.65,3.33s-3.25,7-4.94,11.31a4.93,4.93,0,0,0-.43,3.49,5,5,0,0,0,2.55,2.32q11.83,6.46,24,12.27c2.93,1.4,6.76,2.66,9.14.44C171.23,81.56,160.44,80.05,154.11,73.05Z"/><path class="cls-2" d="M154.27,72.9a19.63,19.63,0,0,1-4.1-17.5.22.22,0,0,0-.36-.21c-3.22,2.51-4.58,7.46-6.14,11.1-1.34,3.12-3.52,6.57-.32,9.08,2.75,2.16,6.44,3.54,9.53,5.15q6,3.12,12,6.06c3.92,1.91,8.68,4.93,12.83,2.11a.22.22,0,0,0,0-.34C171,81.53,161,79.79,154.27,72.9c-.2-.21-.51.1-.31.31,5.26,5.41,12.48,7.46,18.67,11.5.85.56,2.94,1.54,3.33,2.48.67,1.6-1.9,2.09-3.36,2-2.77-.13-5.86-2.22-8.32-3.43q-7.36-3.6-14.59-7.44a28.28,28.28,0,0,1-3.39-1.82c-1.87-1.36-3.84-3.86-3.72-6.48.09-1.85,1.79-4.3,2.56-6,.17-.38,3.36-7.84,3.84-7.62.72.32.3,7,.62,8.39A20.32,20.32,0,0,0,154,73.21C154.14,73.42,154.45,73.11,154.27,72.9Z"/><path class="cls-2" d="M159.85,136l17.49-16h-2.49L189,136v-2.49l-15.8,12.42h2.49l-15.79-12.42c-1.76-1.39-4.27,1.09-2.49,2.49l15.79,12.42a1.84,1.84,0,0,0,2.49,0L191.43,136a1.78,1.78,0,0,0,0-2.49l-14.09-16a1.8,1.8,0,0,0-2.49,0l-17.49,16C155.69,135,158.18,137.52,159.85,136Z"/><path class="cls-1" d="M51.6,106.74h-.09l-.12,0Z"/><path class="cls-2" d="M51.6,105c-.23,0-.46,0-.68.1a1.78,1.78,0,0,0-1.23,2.17,1.82,1.82,0,0,0,2.17,1.23l.21,0a1.77,1.77,0,0,0,1.23-2.17A1.82,1.82,0,0,0,51.13,105l-.21,0,.94,3.4-.26,0a1.8,1.8,0,0,0,1.76-1.76C53.32,105.88,52.58,104.87,51.6,105Z"/><path class="cls-1" d="M73.12,52.54c-4-5-10.49-7-16.59-7.78-12.21-1.56-24.24,1.26-36.47,1-5.5-.11-10.9,1.78-14.45,5.92A15.89,15.89,0,0,0,1.75,63C1.82,68.33,1.9,72,2,77.37A64.41,64.41,0,0,0,3,90.22,22.58,22.58,0,0,0,8.8,101.7a16.2,16.2,0,0,0,5.36,3.52,26.69,26.69,0,0,0,6.57,1.47,122.9,122.9,0,0,0,30.78.06c7-1.49,10.85-3.21,17.16-6.67a33.68,33.68,0,0,0,8.53-7c2-2.09,2.34-5.42,2.37-8.49a100.79,100.79,0,0,0-1.81-20.09C77,60.28,75.79,55.94,73.12,52.54Z"/><path class="cls-2" d="M74.36,51.3C62.6,37.71,40.32,43.44,24.88,44c-7.67.26-15,.26-20.52,6.49C-.8,56.29,0,63.68.11,70.94c.14,8.53-.48,17.64,3.11,25.61,3.33,7.38,9.49,10.82,17.28,11.87,17.53,2.35,37,2,52-8.65C75,98,78,95.53,79.6,92.84c2.11-3.43,1.8-8,1.7-11.9-.24-9.57-.94-21.23-6.66-29.28-1.31-1.84-4.36-.08-3,1.77C77,61,77.55,72,77.78,80.94c.14,5.29-.18,9.51-4.19,13.31a39.49,39.49,0,0,1-10.17,6.6c-8.62,4.2-17.76,5.1-27.25,5.08-10.14,0-23.72.59-29.19-9.69C2.61,88,3.74,77.67,3.59,68.67,3.52,64.08,3,59.24,5.34,55.09a15.46,15.46,0,0,1,12-7.4c4.7-.54,9.54-.25,14.28-.61s9.56-.86,14.36-1c9.07-.25,19.56.36,25.91,7.7C73.36,55.51,75.84,53,74.36,51.3Z"/><path class="cls-1" d="M51.39,106.78l-1,.16C50.76,106.9,51.07,106.84,51.39,106.78Z"/><path class="cls-2" d="M50.92,105.08l-1,.17a1.76,1.76,0,0,0-1.23,2.16,1.82,1.82,0,0,0,2.17,1.23c.31,0,.63-.1,1-.16a1.78,1.78,0,0,0,1.22-2.17,1.8,1.8,0,0,0-2.16-1.23l-1,.17.94,3.39,1-.16a1.77,1.77,0,0,0,1.22-2.17A1.8,1.8,0,0,0,50.92,105.08Z"/><path class="cls-2" d="M58.6,64.44,19,67.13l1.24,3L28.39,59.7c1.38-1.77-1.1-4.27-2.49-2.49L17.79,67.65c-.83,1.07-.44,3.11,1.25,3L58.6,68c2.25-.15,2.27-3.68,0-3.52Z"/><path class="cls-2" d="M1.85,82.51c-1.28,9.71,10,11.28,17,11.19,13.06-.18,26.17-2,39-4.37,9.45-1.73,14.28-6.89,13.72-16.73C71,62.39,68.82,51.53,60.66,44.72c-.86-.72-2.11.52-1.24,1.25,7.37,6.16,9.15,15.17,10.21,24.3.51,4.48.67,9.86-2.63,13.38-2.85,3-7.39,3.61-11.27,4.28-8.5,1.45-54.34,11.44-52.12-5.42.15-1.12-1.61-1.11-1.76,0Z"/><path class="cls-3" d="M59.85,96.47a19.12,19.12,0,0,0-6.56-1.16c-6.44-.37-12.89-.75-19.34-.76a44.46,44.46,0,0,0-12.18,1.26A19,19,0,0,0,13,101c2.68,2.64,6.75,3.53,10.55,4a85.86,85.86,0,0,0,25.7-.78c4.32-.79,9-2.23,11.21-6a1.27,1.27,0,0,0,.23-1A1.31,1.31,0,0,0,59.85,96.47Z"/><path class="cls-2" d="M59.91,96.25c-4-1.35-8.25-1.27-12.42-1.49-5.09-.26-10.2-.51-15.29-.42-7.17.14-14.14,1.27-19.4,6.49a.22.22,0,0,0,0,.31c7,6,19.65,5.09,28.18,4.37,5.66-.48,18.27-1,19.87-8.32A.2.2,0,0,0,60.8,97L60,96.31c-.22-.18-.53.13-.31.31,3.59,3-8.26,6.89-9.25,7.11a75,75,0,0,1-12.23,1.53,86.68,86.68,0,0,1-11-.13c-3.08-.25-9.41-.26-11.87-2.66-3.75-3.66,5.62-6.29,8.23-6.87a54.43,54.43,0,0,1,12.36-.81c7.51.08,16.77-.54,23.9,1.89C60.06,96.77,60.18,96.35,59.91,96.25Z"/><path class="cls-3" d="M74.79,57.41a2.53,2.53,0,0,0-1.1-1,1.68,1.68,0,0,0-1.94.82,5.5,5.5,0,0,0-.61,2.25c-1.2,10.29,1,29.88,1,29.88a3.13,3.13,0,0,0,2.57,2.21,4,4,0,0,0,3.67-2.42,11.68,11.68,0,0,0,.85-4.72,81.24,81.24,0,0,0-2.06-20.8A17.28,17.28,0,0,0,74.79,57.41Z"/><path class="cls-2" d="M75,57.26c-5.08-4.55-4.39,8.46-4.38,10.6,0,4.28.27,8.57.59,12.84.2,2.58,0,5.77.76,8.28,1.08,3.69,5,3.44,6.71.25,2.29-4.25.91-11.63.41-16.16C78.45,67.75,77.76,62,75,57.3c-.15-.24-.53,0-.38.22C78.48,64,79,73.23,79.08,80.66c0,1.75.52,5.35-.36,7-4,3.32-6.12,3.86-6.33,1.61,0-.13,0-.26,0-.4A13.72,13.72,0,0,1,72,85.31c-.39-4.27-.7-8.54-.87-12.83C71,70.09,71,67.69,71,65.29c0-1.34,0-10.93,3.61-7.72C74.84,57.76,75.16,57.45,75,57.26Z"/><path class="cls-4" d="M63.87,56.43c-2.72-4.67-7.45-8.34-12.57-8.78a1.18,1.18,0,0,0-.53,0c-.77.3-.28,1.54.27,2.23A40.78,40.78,0,0,1,59.67,81a3.42,3.42,0,0,0,3.32.35c3.3-1.39,4.3-5.68,4.39-9.44A29.31,29.31,0,0,0,63.87,56.43Z"/><path class="cls-2" d="M64.06,56.31c-2.26-3.56-5.25-6.61-9.29-8.08-1.39-.51-3.78-1.72-4.61,0-.37.77,1.4,2.71,1.66,3.07A43.63,43.63,0,0,1,57.14,61,41.13,41.13,0,0,1,59.45,81a.21.21,0,0,0,.11.19c4,2,6.73-1.85,7.59-5.41,1.54-6.4,0-13.78-3.09-19.48-.14-.25-.52,0-.38.23,3.05,5.69,5,14,2.71,20.35-.83,2.33-5.11,6.29-6.23,1.8-.28-1.11.16-2.7.14-3.9a41.25,41.25,0,0,0-.78-7.09,41.47,41.47,0,0,0-5.52-14c-1-1.69-4-5.52,0-5.27s7.85,5.23,9.69,8.13C63.83,56.77,64.21,56.55,64.06,56.31Z"/><path class="cls-4" d="M16.21,84.18a20.38,20.38,0,0,1-12-13.86,6.13,6.13,0,0,0-.58,4.16S4.3,82.18,5,86.76a5.3,5.3,0,0,0,1.33,3.3,4.87,4.87,0,0,0,3.24.9q12.95.41,25.85.06c3.11-.09,6.89-.7,7.78-3.75C34.53,84,24.85,87.54,16.21,84.18Z"/><path class="cls-2" d="M16.32,84A20.93,20.93,0,0,1,4.4,70.27a.22.22,0,0,0-.42,0C2.5,74,3.8,79,4.26,82.91c.41,3.44.2,7.27,4.13,8.19,3.32.79,7.7.25,11.12.28q6.47.06,12.92-.08c3.93-.08,9.06.29,11-3.92a.22.22,0,0,0-.13-.32c-8.81-2.89-18.19-.11-27-3.09-.27-.09-.39.33-.12.42A35.78,35.78,0,0,0,28,86c2.29,0,4.58-.11,6.86,0,1.53.08,9.61-.15,6.22,3.58C38.86,92,30.48,90.91,27.46,90.94c-5.12,0-10.84.65-15.91-.14-4.63-.72-6.13-2.22-6.68-6.54-.23-1.78-.42-3.57-.61-5.36-.07-.63-.75-7.23-.37-7.21.88,0,3.34,5.72,4.08,6.63a20.89,20.89,0,0,0,8.13,6.05C16.35,84.48,16.58,84.11,16.32,84Z"/><path class="cls-1" d="M269.5,163.48c-.08-3.46-1.24-7-3.85-9.34a17.91,17.91,0,0,0-5.52-2.95A184.89,184.89,0,0,0,233,143c-3.24-.7-6.68-1.32-9.82-.26-5.27,1.77-7.94,7.49-10,12.64l-4.41,10.83.88-3.18a147.48,147.48,0,0,0-10.55,39.62c-.35,2.94-.56,6.14,1,8.65a13.93,13.93,0,0,0,4.33,3.84l12.07,8c4.76,3.14,9.64,6.34,15.18,7.65s12,.34,15.83-3.86a23.67,23.67,0,0,0,3.39-5.39c2.81-5.56,5.46-11.21,7.71-17,3.88-10,6.58-20.43,9.26-30.82A38,38,0,0,0,269.5,163.48Z"/><path class="cls-2" d="M271.26,163.48c-.44-6.43-3.22-10.86-9.2-13.41a159.24,159.24,0,0,0-27.67-8.53c-6.4-1.42-12.65-1.85-17.38,3.42-5,5.57-7.22,14-10,20.82l3.39.93.89-3.18c.63-2.25-2.55-3-3.39-.94a152,152,0,0,0-8,24.89c-1.44,6.35-4,15.05-2.57,21.61,1.4,6.31,8.83,9.35,13.72,12.59,6.26,4.14,12.66,9.12,20.12,10.81,5.48,1.24,11.72.64,16.17-3.05,5.26-4.37,8-12.74,10.62-18.84a185.34,185.34,0,0,0,8.16-23.6c2.12-7.57,5-15.6,5.13-23.52,0-2.27-3.48-2.27-3.52,0-.14,7-2.66,14.06-4.49,20.76-1.76,6.39-3.67,12.74-6,18.94a135.13,135.13,0,0,1-8.6,18.9c-4,6.9-10.7,8.76-18.15,6.57-6.17-1.81-11.59-6-16.88-9.51-2.76-1.83-5.62-3.56-8.3-5.49-3.62-2.61-4.93-5.1-4.62-9.48,1-13.85,5.34-27.9,10.64-40.64l-3.39-.94-.89,3.19c-.63,2.24,2.56,3,3.39.93,2.27-5.57,4.11-11.7,7.31-16.82,4.33-6.95,10.49-6.19,17.56-4.53q8.75,2.05,17.26,4.94c7.16,2.43,14.59,4.38,15.19,13.18C267.89,165.73,271.41,165.75,271.26,163.48Z"/><path class="cls-2" d="M200.59,201.25c11.3,1.18,21.23,5.37,30.49,11.82,5.82,4.06,11.78,5.65,16.62-.63,5.17-6.72,8.19-16.1,11.08-24a196.77,196.77,0,0,0,8.7-32.17c.21-1.1-1.49-1.58-1.69-.46-3.31,17.95-8.57,37.53-18,53.34-3.54,5.93-8.67,7.21-14.55,3.29a106.06,106.06,0,0,0-9.65-6.19,63.6,63.6,0,0,0-23-6.76c-1.12-.12-1.11,1.64,0,1.76Z"/><path class="cls-4" d="M221.12,198.3c-3.85-3-5.7-8-6.47-12.81s-.62-9.78-1.36-14.62c-.31-2-1.26-4.39-3.15-4.69l.52-.57c-.2.18-.39.37-.58.57a1.66,1.66,0,0,0-.32,0c-2.15,0-3.24,2.52-3.77,4.6a18.34,18.34,0,0,1-.71,7.28c-1.89,5.89-5.66,11.45-5.26,17.62a4.27,4.27,0,0,0,.89,2.62,4.67,4.67,0,0,0,2,1.12,38,38,0,0,0,18.33,1.54,1.56,1.56,0,0,0,.76-.28C222.76,200,221.88,198.91,221.12,198.3Z"/><path class="cls-2" d="M221.27,198.15c-6.92-6.11-6.56-15.17-7.34-23.64-.18-1.94-.23-4.39-1.15-6.18-.31-.6-2.06-2.45-2-2.56s-.11-.51-.31-.31c-1.32,1.29-2.59.78-3.76,2.65-1.54,2.46-.68,5.31-1.2,8-1.15,5.93-8.21,14.67-5.5,21,2,4.57,11.53,4.58,15.67,4.52,2.38,0,9.3.26,5.56-3.48a.22.22,0,0,0-.31.31c3.39,3.39-5.69,2.76-7.1,2.71-2.86-.1-6.41-.25-9.1-1.43-7.65-3.36-3.38-11.41-1.11-16.89a37.85,37.85,0,0,0,2.64-11c.29-2.61.62-4.71,3.85-5.41.14,0,.46-1-.15-.36a.22.22,0,0,0,.09.36c5.31,2.14,3.62,15.73,4.63,20.61A20.12,20.12,0,0,0,221,198.46C221.17,198.65,221.48,198.34,221.27,198.15Z"/><path class="cls-4" d="M264.13,157.65a3.8,3.8,0,0,0-7-1.63,12.5,12.5,0,0,0-1.92,4.25q-1.65,5.34-3.29,10.67a53.34,53.34,0,0,1-4.56,11.49c-2,3.4-4.76,6.32-7,9.61s-3.84,7.23-3.23,11.14,7.45,7.55,7.45,7.55c2.53-1.59,4.05-4.35,5.39-7a158.68,158.68,0,0,0,13.91-41.38A11.88,11.88,0,0,0,264.13,157.65Z"/><path class="cls-2" d="M264.34,157.59c-1.2-3.56-4.7-4.88-7.39-1.73-2.14,2.51-2.69,6.64-3.63,9.69-1.66,5.36-3,11-5.75,16-3.56,6.45-11.64,12.63-10.71,20.8.47,4.07,4.26,6.74,7.63,8.58a.2.2,0,0,0,.22,0c6.64-5,9.59-15.56,12.36-23.07a158.65,158.65,0,0,0,4.87-15.67c1.18-4.61,2.88-9.73,2.41-14.53,0-.28-.47-.28-.44,0,.48,5-1.37,10.51-2.62,15.3s-2.68,9.36-4.33,13.93A155.7,155.7,0,0,1,250.6,202a28,28,0,0,1-3.93,6.68c-2.64,2.9-1.61,1.68-3.76.82-6.78-2.74-6.23-10.51-3.24-15.85,2.22-4,5.55-7.16,7.85-11.07A55,55,0,0,0,252.1,171c.74-2.37,1.46-4.74,2.19-7.11l1.1-3.56q1-5.25,8.53-2.62C264,158,264.43,157.86,264.34,157.59Z"/><path class="cls-2" d="M227.84,194.82l12.76-37.59c.73-2.15-2.67-3.07-3.39-.93l-12.76,37.58c-.73,2.15,2.67,3.07,3.39.94Z"/><path class="cls-2" d="M225.3,168.08l9.4,19.58c1,2,4,.26,3-1.78l-9.4-19.58c-1-2-4-.26-3,1.78Z"/><polyline class="cls-5" points="254.47 33.8 240.64 36.19 250.65 48.51"/><path class="cls-1" d="M279.79,22.09c-1.23-3.38-4.53-5.54-7.82-7-6.18-2.69-13-3.64-19.63-4.55-3.17-.43-6.52-.84-9.5.35-5,2-7.25,7.68-9,12.78l-4.05,11.94A76.32,76.32,0,0,0,227,45.41a76.73,76.73,0,0,0-1,9.45q-.81,11.83-1.63,23.66a31.86,31.86,0,0,0,3.49,4.19c7.05,6.61,17.42,8.21,27.08,8.11,3.52,0,7.25-.32,10.12-2.36,3.56-2.53,4.92-7.1,6-11.34A424.5,424.5,0,0,0,280,29.7C280.37,27.16,280.68,24.5,279.79,22.09Z"/><path class="cls-2" d="M281.31,21.2c-2.93-6.37-10.37-8.81-16.71-10.32S248.38,6.63,242,9.39c-6.19,2.66-8.39,9.69-10.38,15.54-2.8,8.26-6.12,16.45-7,25.19-.5,4.85-.73,9.74-1.06,14.6l-.48,6.9c-.13,1.94-1,5.49-.41,7.37,1.5,4.91,8.61,8.83,13,10.57,11.23,4.48,30.35,6.69,35.6-7,3.78-9.84,5.34-21.05,7.24-31.38Q280,42.61,281.21,34c.59-4.16,1.39-8.25.28-12.38a1.76,1.76,0,0,0-3.39.93c1.32,4.9-.24,10.39-1,15.29s-1.55,9.54-2.44,14.28c-1.64,8.68-3.38,17.44-5.76,25.95-1.34,4.77-3.17,9.14-8.47,10.47-3.68.92-8,.63-11.73.33-7-.58-18.79-3-22.15-10.25-1.54-3.33.19-10.08.45-13.9.31-4.55.51-9.12,1-13.66.88-8.74,4.18-16.93,7-25.2,1.23-3.62,2.38-7.68,4.94-10.64,3.64-4.21,8.88-3.4,13.78-2.71,7.87,1.1,20.79,2.23,24.57,10.46C279.22,25,282.25,23.24,281.31,21.2Z"/><path class="cls-2" d="M250.75,61.6,256,41.46c1.71-6.61,3-13.54,6-19.72,1-2-2.06-3.82-3-1.78-2.86,5.91-4.22,12.33-5.86,18.65l-5.72,22.06c-.57,2.19,2.83,3.13,3.4.93Z"/><path class="cls-2" d="M226,66c4.38,5,10,6.81,16.45,7.33s14,1.37,20.33.24c4.57-.81,7.38-3.93,9.21-8,3.27-7.38,4.62-16,6.14-23.89.21-1.11-1.49-1.59-1.7-.47-1.16,6-2.5,12-4.14,17.91s-4,12.3-11.19,12.92c-5,.43-10.31,0-15.34-.26-7.12-.31-13.58-1.33-18.52-7-.74-.85-2,.4-1.24,1.25Z"/><path class="cls-3" d="M261.5,78.25a21.41,21.41,0,0,0-6.27-2.78c-6.43-2-13.44-4.09-19.76-1.75-3.09,1.14-8.57,3.2-8.57,3.2a5,5,0,0,0,.73,5.23,12.62,12.62,0,0,0,4.46,3.29c7,3.61,14.85,6,22.73,5.5a14.15,14.15,0,0,0,6.31-1.63,6.75,6.75,0,0,0,3.52-5.24A7.14,7.14,0,0,0,261.5,78.25Z"/><path class="cls-2" d="M261.61,78.06c-8.23-5.18-19.41-7.09-28.52-3.69-1.62.6-5.24,1.15-6.38,2.44-1.89,2.15.67,5.66,2.25,7,6.86,5.61,18.89,8.52,27.56,7.23,7.13-1,11.26-7.58,5.13-12.89-.21-.19-.52.12-.31.31a3.89,3.89,0,0,1,1.71,4.46c1.42,2.15,1.19,3.78-.68,4.91-1.72,2.32-4.86,2.73-7.55,2.94a36,36,0,0,1-10.75-1,49.66,49.66,0,0,1-10.24-3.68,16.18,16.18,0,0,1-4-2.26c-1.42-1.3-3.25-5.52-2.16-6.94.79-1,4.32-1.61,5.52-2.06a25.64,25.64,0,0,1,8-1.88c6.29-.28,14.92,2.18,20.23,5.52C261.62,78.59,261.85,78.21,261.61,78.06Z"/><path class="cls-4" d="M231.15,35.38A31.52,31.52,0,0,0,254.46,71.2c-8.68,2-18.64,2.18-25.58-3.41A5.43,5.43,0,0,1,227,65.45a6.11,6.11,0,0,1-.16-2.34,160.65,160.65,0,0,1,3.63-25"/><path class="cls-2" d="M230.94,35.33c-2,14.09,4.86,28,17.9,34.08.69.33,3.92,1.18,4.15,1.61s-5.1,1-6,1.12A30.6,30.6,0,0,1,235.33,71c-3.83-1.26-7.49-3.21-8.25-7.87-.38-2.3.43-5.44.7-7.75a167.21,167.21,0,0,1,2.93-17.19c.06-.27-.37-.39-.43-.11a168.79,168.79,0,0,0-3.15,19.24c-.42,4-1.58,7.72,1.62,10.66,6.68,6.13,17.67,5.2,25.77,3.45.22,0,.2-.36,0-.42a31.85,31.85,0,0,1-23.16-35.55c0-.27-.38-.39-.42-.11Z"/><path class="cls-4" d="M279.2,24.33c-1-4-3.82-7.77-7.82-8.74,2.59,19.35-13.83,56.07-13.83,56.07a8.31,8.31,0,0,0,7.19-.48,15.74,15.74,0,0,0,5.37-5.09c3.88-5.57,5.63-12.33,7-19q1.08-5.24,1.91-10.52C279.66,32.52,280.19,28.32,279.2,24.33Z"/><path class="cls-2" d="M279.41,24.27c-1.27-4.22-3.68-7.48-8-8.89a.22.22,0,0,0-.28.21c1.37,11.79-2.32,24.13-5.94,35.23a212.23,212.23,0,0,1-7.86,20.73.23.23,0,0,0,.13.33c8.9,2.87,14.46-7,17-14a104.33,104.33,0,0,0,4.18-17.71c.92-5.29,1.8-10.54.76-15.88-.05-.27-.48-.16-.43.12,1.55,7.93-.72,16.55-2.43,24.32-1.5,6.79-3.5,14.41-8.47,19.57-1,1-9.48,6.26-10.23,3.23-.09-.39.68-1.58.85-2,1-2.42,2-4.87,2.94-7.32a189.75,189.75,0,0,0,8.05-25.69,87.63,87.63,0,0,0,2-12.56c.14-1.88-.43-4.7.08-6.43l-.09-1a3.11,3.11,0,0,1,3.07,1.09c2.3,1.48,3.45,4.25,4.2,6.75A.22.22,0,0,0,279.41,24.27Z"/><path class="cls-2" d="M256,30.67l-17.48,3c-1.44.25-1.52,2-.78,2.94l12.66,15.58c1.43,1.76,3.91-.74,2.49-2.48L240.27,34.14l-.78,3,17.49-3c2.23-.39,1.28-3.78-.94-3.39Z"/><path class="cls-2" d="M433.13,20l14.4,37.08c.81,2.09,4.22,1.19,3.39-.93L436.53,19.09c-.82-2.09-4.22-1.19-3.4.93Z"/><path class="cls-2" d="M444.46,14.69l-6.29,17.36c-.78,2.14,2.62,3.06,3.39.94l6.29-17.37c.77-2.13-2.63-3-3.39-.93Z"/><path class="cls-2" d="M446.74,46.32l7.7-21.52c.77-2.14-2.63-3.06-3.39-.94l-7.71,21.53c-.76,2.13,2.64,3,3.4.93Z"/><path class="cls-2" d="M181.27,47.14,160,55.64c-1.26.5-1.93,2.48-.42,3.21l34.76,16.86.42-3.21-20,6.22c-2.15.67-1.23,4.07.94,3.39l20-6.22c1.35-.42,1.85-2.52.42-3.22L161.39,55.81,161,59l21.23-8.5c2.08-.83,1.17-4.24-.93-3.39Z"/></g></g></svg>