<svg xmlns="http://www.w3.org/2000/svg" viewBox="0 0 396.13 1238.02"><defs><style>.cls-1{fill:#979b3d;}.cls-2{fill:#38301f;}.cls-3{fill:#ad968a;}.cls-4{fill:#eae3ca;}.cls-5{fill:#a5c08a;}</style></defs><title>screwdrivah2_1</title><g id="Layer_2" data-name="Layer 2"><g id="screwdriver"><path class="cls-1" d="M210.19,17c15.52,7,26.15,9.71,30.27,12.84.36.27,11.74,4.2,13.76,14.21,15.59,51.37,70.86,254.72,77,292.13,0,.28-3.64,8.43-7.79,19.72-6,16.24-7.51,23.42-8.26,27.52a101.15,101.15,0,0,0-1.83,17.42c-.12,13.32,3.43,23.13,10.55,42.19,6.14,16.47,9.36,24.9,16.5,34.4s13.62,5.84,16.51,17c4.85,18.62,16.52,45.68,17,64.2,0,.57.09,9.86-6,10.09,0,0-251.77,56.62-255.44,55.49-2.62-1.09-7-6-7.34-11.46-.9-13-11.09-40.43-13.3-61.46-1-9.43,5.84-8.21,8.72-18.8,2.08-7.68,1.93-13.29.91-31.64-1.13-20.61-1.7-30.91-2.29-33.94-2.74-14.11-4.71-24.3-12.38-34.39-7-9.21-12.9-10.67-25.22-25.68,0,0-6.63-3.62-8.26-11C45.06,358.11,2,144.82,5.2,90.82,6.09,75.84,18,65.6,18,65.6A121.21,121.21,0,0,0,37.76,46.8C114.56-17.88,208.37,13.66,210.19,17Z"/><path class="cls-2" d="M207.67,21.3c8.9,4,18.42,6.8,27.18,11.06,4.07,2,9,4.21,12,7.7s3.91,9.68,5.24,14.21,2.72,9.34,4.06,14c7.75,27,15.22,54.11,22.61,81.22,15.38,56.42,31,112.92,44,170,.9,3.95,1.77,7.91,2.57,11.88.29,1.41.49,2.86.82,4.26.74,3.06,0-.71.3-.66-.07,0-1.19,2.91-1.3,3.17-6.27,15.13-12.61,30.73-15.25,47-1.55,9.55-2,19.11-.38,28.68,1.7,9.9,5.46,19.37,8.95,28.75,3.57,9.6,6.93,19.47,11.89,28.46,4.45,8.07,9.65,13.88,17.48,18.65,3.74,2.29,4.22,5.9,5.38,9.9,1.42,4.95,3,9.85,4.66,14.75,3.35,10.15,6.84,20.31,9.17,30.75.71,3.17,4.42,15.94.84,18.65-.15.11-2.37.42-3,.55-13.57,2.9-27.08,6.08-40.61,9.1q-75.31,16.83-150.71,33.31c-17.81,3.85-35.6,7.78-53.48,11.25-2.06.4-4.13.77-6.19,1.13l-1,.16c-1,.15,1.1.2.41-.06a1.73,1.73,0,0,0-.5.05c1.18-.37,1.86,1,0-1.11-2.83-3.17-2.69-7.19-3.34-11.12-.73-4.41-1.82-8.75-2.92-13.08-2.72-10.64-5.78-21.2-7.93-32-.75-3.76-2.79-9.9-1.69-13.68.88-3,4.15-5.24,5.77-7.92,3.67-6,4.48-13.76,4.55-20.69.11-10.4-.82-20.84-1.41-31.22-.38-6.73-.59-13.51-1.4-20.2-2.08-17.2-7.56-34.38-20.6-46.34-2.41-2.21-4.93-4.28-7.33-6.49-4-3.73-7.26-8.51-11.34-12.1-1.88-1.66-3.87-2.66-5.32-4.88-1.35-2.07-1.76-4.43-2.27-6.79C46.62,341,37.06,290.13,28.23,239.17c-5.3-30.59-10.34-61.27-14.16-92.1-1.48-12-2.81-24-3.56-36.13-.66-10.73-1.93-22.59,3.54-32.3a37.85,37.85,0,0,1,5.76-7.79c.52-.54,1.07-1,1.6-1.57-1.17,1.14-.51.4.51-.39,7.64-5.93,13.6-13.3,20.72-19.68,15.94-14.3,36.89-24.44,57.25-30.53a180.48,180.48,0,0,1,91.88-2.76,109.31,109.31,0,0,1,11.63,3.32c.66.23,1.31.47,2,.72,1.31.52-.57-.15.6.27,1.88.66.9.74-.08-.72,3.57,5.31,12.24.31,8.63-5.05-3.28-4.86-12.43-6.27-17.63-7.58a187.08,187.08,0,0,0-39.61-5.39C117.87.19,78.31,11,46.12,34,41.56,37.28,36.84,40.64,33,44.71A174.71,174.71,0,0,1,20.37,57.32c-3.27,2.83-6.67,5.19-9.48,8.52C5,72.77,1.09,80.94.26,90.05a107.37,107.37,0,0,0-.13,13.06c.86,26.15,4.79,52.28,8.63,78.13C17.93,243,29.53,304.42,41.94,365.59q2.72,13.37,5.54,26.69c1.19,5.56,2.59,10.67,6.7,14.94,2.13,2.22,4.43,3.55,6.27,5.94A82.8,82.8,0,0,0,71.09,424c6.09,5.42,11.82,10.43,15.72,17.77a60,60,0,0,1,5,14c.61,2.5,1.13,5,1.64,7.55.21,1.08.43,2.16.64,3.25-.23-1.15.61,3.67.37,1.88,1,7.12,1.06,14.41,1.46,21.57.59,10.48,1.67,21.12,1.28,31.63a40.19,40.19,0,0,1-1,7.89c-1,4.28-3.14,7-5.81,10.29-6,7.47-2.89,17.77-1.11,26.32,2.23,10.71,5.29,21.21,8,31.81a122.29,122.29,0,0,1,2.67,12.23c.69,4.78,1.26,9,4.2,13,4.81,6.6,8.83,6.24,15.6,5s13.66-2.71,20.48-4.13c50.15-10.49,100.16-21.71,150.17-32.85q31.37-7,62.73-14c4.88-1.09,9.75-2.24,14.63-3.28,2-.44,2.7-.25,4.66-1.29,5.85-3.09,6.86-10.55,6.43-16.5-1.54-21.31-11-41.4-16.69-61.76-1.16-4.11-2.54-8-5.83-10.88-3.13-2.77-7.2-4-10.16-7-6.51-6.63-10.32-16.32-13.63-24.82-7.71-19.84-16.22-39.38-13.38-61.09,2.21-16.9,8.81-33.16,15.28-48.8,1.74-4.23,1.75-6.9.89-11.33-.78-4-1.65-7.95-2.54-11.92-2.54-11.3-5.3-22.56-8.1-33.81-7.59-30.48-15.59-60.86-23.7-91.21Q288.3,146.14,275.18,99,270,80.41,264.67,61.85c-2.82-9.77-4.61-23.41-12.36-30.45-3.56-3.23-8.11-5.57-12.41-7.68-8.76-4.29-18.27-7.07-27.18-11C206.89,10.06,201.8,18.68,207.67,21.3Z"/><path class="cls-2" d="M79.72,24.51c5.52-2.49,11.41-4.41,17.53-4a25.71,25.71,0,0,1,3,.35,9.67,9.67,0,0,1,2.54.7c-.22-.62-.33-.64-.32-.08.23,1.9-2.46,4.87-3.47,6.32a202.08,202.08,0,0,1-15.72,19.1c-4.1,4.54-8.43,8.67-13.86,11.56-5.69,3-15,7.78-20.41,2-4.74-5.11-2.41-9.57,1.87-13.58,8.67-8.11,18-17.09,28.8-22.29,5.8-2.78.74-11.4-5-8.63C62.85,21.55,52,31.63,42.79,40.74,38.35,45.12,35.65,50,36.58,56.4A19.9,19.9,0,0,0,49,72.07c7.81,2.86,16-.53,23.13-3.82A54.22,54.22,0,0,0,88.38,56.11,249.46,249.46,0,0,0,105,36.34c3.45-4.48,7.93-10.05,7.46-16.09-.61-7.89-9.22-9.49-15.66-9.8-7.77-.37-15.2,2.28-22.16,5.43C68.82,18.52,73.9,27.14,79.72,24.51Z"/><path class="cls-2" d="M116.4,9.7c-1.71,7.3,3.3,14.22,8.38,19,6.09,5.76,14.14,8.55,21.81,11.52,13.35,5.16,26.61,8,40.42,2.74,6.12-2.32,11.91-6.36,13.5-13.08,1.46-6.18-1.19-12.91-5.29-17.57-3.27-3.72-8-5.65-12.6-7.14A117.08,117.08,0,0,0,156.31.31,127,127,0,0,0,136.9.45c-6.76.49-16.62,1-20,8.05-2.75,5.78,5.87,10.86,8.63,5.05,2-4.32,14.24-3.32,18.16-3.49a102.71,102.71,0,0,1,14,.38c8.22.76,17,2.18,24.69,5.25,4,1.59,6.07,3.37,7.61,7,5.55,12.93-19,14.24-26.21,12.69-7.9-1.7-15.82-4.88-23.17-8.19a31,31,0,0,1-9.32-6c-1.84-1.83-6-5.93-5.28-8.81C127.52,6.09,117.88,3.42,116.4,9.7Z"/><path class="cls-2" d="M234.28,438.49c-2.94-9.3-6.48-18.79-6.22-28.68a69,69,0,0,1,3.74-20.71c3.08-8.86,9.07-17.11,18.64-19.36,13.45-3.15,20.71,11,25.42,21,3.91,8.36,6,16.71,7.83,25.71,2.8,13.47,6.57,26.64,10.31,39.87,2.85,10,4.5,19.72,3.65,30.18-.32,4-.94,9.54-3.38,12.55-3.1,3.84-8.79,4.27-13.34,3.77-13.9-1.53-21.12-10.7-27.51-22.11-7.6-13.56-14.41-27.43-19.14-42.26-1.95-6.11-11.61-3.5-9.65,2.65,4.92,15.4,11.93,29.86,19.77,44,6.37,11.46,13.44,21.16,26.26,25.58,11,3.78,26.4,3.76,32.91-7.61,5.9-10.31,5.13-25.06,3.2-36.39-2.42-14.2-7.68-27.93-11-41.93-2.69-11.27-4.18-22.78-8.78-33.49-5.08-11.84-11.61-26-24.67-30.61-12.56-4.44-26.06,2.41-33.49,12.58-6.86,9.4-9.61,21.4-10.54,32.82-1,12.18,2.72,23.61,6.35,35.09C226.57,447.26,236.22,444.65,234.28,438.49Z"/><path class="cls-2" d="M127.6,395.57c8-3,19.51,4.87,25.57,10.09a56.44,56.44,0,0,1,18.16,29.39c3.1,12.9,3.92,26.91,4.09,40.13a124.53,124.53,0,0,1-2.5,28.77c-1.71,7.62-3.84,16.72-9,22.65-4,4.62-10.77,6-16.57,4.37-5.19-1.44-7.85-4.79-9.09-9.82-1.62-6.57-2.13-13.41-3.37-20.06-1.46-7.85-3.27-15.64-4.75-23.49-2.15-11.4-4.1-22.81-6.63-34.13a77.12,77.12,0,0,1-2.29-17.87c0-8.52-1.49-25.83,7.61-30.54,5.72-3,.67-11.59-5-8.63-10.84,5.6-12,20.36-12.45,31.13-.29,7.86-.17,15.6,1.39,23.33,2.19,10.92,4.7,21.75,6.6,32.73,1.63,9.46,3.75,18.82,5.56,28.25,1.5,7.77,1.86,16,4.17,23.63,3.95,13,18.23,18.73,30.85,15,13.2-3.89,17.94-17.07,21.44-29.06,6.83-23.34,4.74-49.84.79-73.45a66.58,66.58,0,0,0-20.94-38.6c-8.82-7.92-24.15-18-36.22-13.48C119,388.16,121.55,397.83,127.6,395.57Z"/><path class="cls-2" d="M207.67,21.3c8.9,4,18.42,6.8,27.18,11.06,4.07,2,9,4.21,12,7.7s3.91,9.68,5.24,14.21,2.72,9.34,4.06,14c7.75,27,15.22,54.11,22.61,81.22,15.38,56.42,31,112.92,44,170,.9,3.95,1.77,7.91,2.57,11.88.29,1.41.49,2.86.82,4.26.74,3.06,0-.71.3-.66-.07,0-1.19,2.91-1.3,3.17-6.27,15.13-12.61,30.73-15.25,47-1.55,9.55-2,19.11-.38,28.68,1.7,9.9,5.46,19.37,8.95,28.75,3.57,9.6,6.93,19.47,11.89,28.46,4.45,8.07,9.65,13.88,17.48,18.65,3.74,2.29,4.22,5.9,5.38,9.9,1.42,4.95,3,9.85,4.66,14.75,3.35,10.15,6.84,20.31,9.17,30.75.71,3.17,4.42,15.94.84,18.65-.15.11-2.37.42-3,.55-13.57,2.9-27.08,6.08-40.61,9.1q-75.31,16.83-150.71,33.31c-17.81,3.85-35.6,7.78-53.48,11.25-2.06.4-4.13.77-6.19,1.13l-1,.16c-1,.15,1.1.2.41-.06a1.73,1.73,0,0,0-.5.05c1.18-.37,1.86,1,0-1.11-2.83-3.17-2.69-7.19-3.34-11.12-.73-4.41-1.82-8.75-2.92-13.08-2.72-10.64-5.78-21.2-7.93-32-.75-3.76-2.79-9.9-1.69-13.68.88-3,4.15-5.24,5.77-7.92,3.67-6,4.48-13.76,4.55-20.69.11-10.4-.82-20.84-1.41-31.22-.38-6.73-.59-13.51-1.4-20.2-2.08-17.2-7.56-34.38-20.6-46.34-2.41-2.21-4.93-4.28-7.33-6.49-4-3.73-7.26-8.51-11.34-12.1-1.88-1.66-3.87-2.66-5.32-4.88-1.35-2.07-1.76-4.43-2.27-6.79C46.62,341,37.06,290.13,28.23,239.17c-5.3-30.59-10.34-61.27-14.16-92.1-1.48-12-2.81-24-3.56-36.13-.66-10.73-1.93-22.59,3.54-32.3a37.85,37.85,0,0,1,5.76-7.79c.52-.54,1.07-1,1.6-1.57-1.17,1.14-.51.4.51-.39,7.64-5.93,13.6-13.3,20.72-19.68,15.94-14.3,36.89-24.44,57.25-30.53a180.48,180.48,0,0,1,91.88-2.76,109.31,109.31,0,0,1,11.63,3.32c.66.23,1.31.47,2,.72,1.31.52-.57-.15.6.27,1.88.66.9.74-.08-.72,3.57,5.31,12.24.31,8.63-5.05-3.28-4.86-12.43-6.27-17.63-7.58a187.08,187.08,0,0,0-39.61-5.39C117.87.19,78.31,11,46.12,34,41.56,37.28,36.84,40.64,33,44.71A174.71,174.71,0,0,1,20.37,57.32c-3.27,2.83-6.67,5.19-9.48,8.52C5,72.77,1.09,80.94.26,90.05a107.37,107.37,0,0,0-.13,13.06c.86,26.15,4.79,52.28,8.63,78.13C17.93,243,29.53,304.42,41.94,365.59q2.72,13.37,5.54,26.69c1.19,5.56,2.59,10.67,6.7,14.94,2.13,2.22,4.43,3.55,6.27,5.94A82.8,82.8,0,0,0,71.09,424c6.09,5.42,11.82,10.43,15.72,17.77a60,60,0,0,1,5,14c.61,2.5,1.13,5,1.64,7.55.21,1.08.43,2.16.64,3.25-.23-1.15.61,3.67.37,1.88,1,7.12,1.06,14.41,1.46,21.57.59,10.48,1.67,21.12,1.28,31.63a40.19,40.19,0,0,1-1,7.89c-1,4.28-3.14,7-5.81,10.29-6,7.47-2.89,17.77-1.11,26.32,2.23,10.71,5.29,21.21,8,31.81a122.29,122.29,0,0,1,2.67,12.23c.69,4.78,1.26,9,4.2,13,4.81,6.6,8.83,6.24,15.6,5s13.66-2.71,20.48-4.13c50.15-10.49,100.16-21.71,150.17-32.85q31.37-7,62.73-14c4.88-1.09,9.75-2.24,14.63-3.28,2-.44,2.7-.25,4.66-1.29,5.85-3.09,6.86-10.55,6.43-16.5-1.54-21.31-11-41.4-16.69-61.76-1.16-4.11-2.54-8-5.83-10.88-3.13-2.77-7.2-4-10.16-7-6.51-6.63-10.32-16.32-13.63-24.82-7.71-19.84-16.22-39.38-13.38-61.09,2.21-16.9,8.81-33.16,15.28-48.8,1.74-4.23,1.75-6.9.89-11.33-.78-4-1.65-7.95-2.54-11.92-2.54-11.3-5.3-22.56-8.1-33.81-7.59-30.48-15.59-60.86-23.7-91.21Q288.3,146.14,275.18,99,270,80.41,264.67,61.85c-2.82-9.77-4.61-23.41-12.36-30.45-3.56-3.23-8.11-5.57-12.41-7.68-8.76-4.29-18.27-7.07-27.18-11C206.89,10.06,201.8,18.68,207.67,21.3Z"/><path class="cls-3" d="M336.54,1152.48c14.16,1.67,30-1.74,47.23-9.18l6.86,37.72c-17.27-36.73-22.91-27.15-20.84,24.5l9.85,26.75-3.51.8-13.88-25.62c-7.51-19.07-12.83-37-22.12-45.27Z"/><path class="cls-2" d="M336.54,1157.48c17.24,1.81,34-3.18,49.76-9.86l-7.35-3,6.86,37.72,9.13-3.85c-3.49-7.37-7.23-16.54-13.63-22-4.77-4-10.72-3-13.57,2.64-3.76,7.43-3.27,17.62-3.35,25.68-.06,6.85-.77,14.6.48,21.34a42.59,42.59,0,0,0,2.25,6.52l7.7,20.89,3.5-6.15-3.52.79,5.65,2.3c-5.29-9.75-11.48-19.38-15.44-29.74-4.4-11.55-8.17-24-15-34.4a31.73,31.73,0,0,0-4.27-5.63c-.86-.81-2-1.76-.86,0a7.42,7.42,0,0,1-.52-1.41c-1.06-2.71-2-5.46-3-8.19-2.22-6-11.89-3.4-9.64,2.66,1,2.73,2,5.46,3,8.19,1.29,3.41,3.83,5.39,5.91,8.33,7.47,10.57,11.11,23.84,15.73,35.78,4,10.26,10.19,19.82,15.42,29.48a5.11,5.11,0,0,0,5.65,2.3l3.51-.8c2.48-.55,4.4-3.69,3.5-6.15l-7.41-20.09a41.44,41.44,0,0,1-2.35-7.2c-1.16-7.07-.44-15.07-.26-22.23a80,80,0,0,1,1.18-14.16c.2-1,.93-3.38,1-3.5.25-.92.26-.6.41-.64-.53.14-1.23.61-1.82.78-.89.25-1-.64,0,.59A36.24,36.24,0,0,1,378,1168a122.66,122.66,0,0,1,8.33,15.54c2.58,5.45,10.08,1.35,9.14-3.86L388.59,1142c-.64-3.53-4.67-4.13-7.34-3-14.13,6-29.27,10.11-44.71,8.49C330.14,1146.8,330.19,1156.81,336.54,1157.48Z"/><path class="cls-3" d="M298.7,981.88,321.35,977l39.46,170.87c-3.87,6.38-14.47,5.18-25.08,4Z"/><path class="cls-2" d="M300,986.7l22.65-4.87-6.15-3.49,13.33,57.73,21.25,92,4.88,21.12.5-3.85c-3.48,5-16,2-20.76,1.48l4.82,3.67L328,1092.92l-19.89-91.26-4.6-21.11c-1.37-6.29-11-3.63-9.64,2.66l12.55,57.58,19.88,91.26,4.6,21.12c.51,2.32,2.69,3.42,4.82,3.67,6.79.77,14.27,2,20.94-.12,4.45-1.39,9.68-5,8.95-10.22-.29-2.09-1-4.21-1.45-6.27l-8.57-37.12L332,1000.94l-5.84-25.26c-.63-2.74-3.59-4-6.15-3.49l-22.65,4.87C291.08,978.41,293.75,988.05,300,986.7Z"/><path class="cls-3" d="M222.57,723.69l23.59,9.63,17.69-16.51,25.22,8.25,20.18-20.63,51.56,255.44c-18.22,15.8-47,21-81.83,20.17Z"/><path class="cls-2" d="M221.25,728.51l23.58,9.63c1.64.67,3.67-.17,4.87-1.29l17.68-16.51-4.86,1.29,25.22,8.25a5,5,0,0,0,4.87-1.28L312.79,708l-8.36-2.21,17.5,86.73L349.6,929.56,356,961.19l1.29-4.86c-21,17.87-52,19.3-78.3,18.71l4.82,3.67-19.11-86.87L234.36,754l-7-31.64c-1.39-6.28-11-3.63-9.65,2.66l19.12,86.87L267.2,949.73l7,31.64A5.06,5.06,0,0,0,279,985c29.28.65,62.08-1.87,85.37-21.64a5,5,0,0,0,1.28-4.86l-17.5-86.73L320.46,734.73l-6.39-31.63c-.75-3.74-5.86-4.77-8.36-2.21l-20.17,20.64,4.86-1.29L265.18,712a5,5,0,0,0-4.87,1.28l-17.68,16.51,4.86-1.28-23.59-9.63C218,716.43,215.36,726.1,221.25,728.51Z"/><path class="cls-2" d="M292,402.67c-.41-9.3,1-18.7-1.38-27.81-3.24-12.27-11.47-22.86-24-26.38-35.64-10-50,32.9-51.05,60.41-1.22,32.15,12.85,61.25,30.6,87.2,6.83,10,15.32,17.43,26.85,21.22,11.79,3.88,27.11,4.1,33.78-8.41,3.72-7,4.56-16.27,4.46-24-.11-8.72-2.27-17.22-4.84-25.5-3.06-9.88-6.88-19.5-10-29.36A110,110,0,0,1,292,402.67c-.16-3.2-5.17-3.22-5,0,.71,13.87,3.68,26.41,8.33,39.47,4.92,13.79,10.9,28.54,10.9,43.4,0,6.7-.53,14.84-3.78,20.84-3.63,6.7-10.72,8.88-17.93,8.31a43.51,43.51,0,0,1-27-12.34c-9.3-9.43-16.18-22.55-22.36-34.19-6.87-12.94-12-26.8-13.83-41.38a101.81,101.81,0,0,1,2.43-39.25c3.87-14.34,11.1-31.35,27.15-34.71,16.47-3.45,30.29,7.08,34.66,22.51,2.53,8.92,1,18.19,1.44,27.34C287.17,405.87,292.17,405.89,292,402.67Z"/><path class="cls-3" d="M379.64,1232.27c-1.37-6.8-7.18-16.12-9.87-27.12-2.32-9.48-.73-16.8-.44-23.55.4-9.59.93-22,5-22.93,2.65-.61,5.73,3.78,8,7.11,4,5.85,9.76,16.48,11.23,33.24l-7.34,31.19Z"/><path class="cls-2" d="M382.06,1231.61c-2.81-12.16-10.52-22.42-11-35.28-.22-5.89.62-11.8.9-17.68.13-2.76.27-5.52.56-8.27.15-1.43.32-6.9,1.69-8.06,4.4-3.72,13.73,20.36,14.54,23.32a75.8,75.8,0,0,1,1.83,8.69c.71,4.7-.45,8.68-1.52,13.2l-5.18,22,1.75-1.74-6.65,2.06c-3.06,1-1.76,5.78,1.33,4.82,2.15-.66,6.13-1,7.75-2.7,1.85-1.89,2-6.85,2.59-9.36,1.74-7.39,4.71-15.38,5.39-22.93.53-5.77-1.56-12.72-3.3-18.18a65.88,65.88,0,0,0-5.81-13.24c-2.7-4.65-10.87-17.9-16.56-9.38-2.53,3.79-2.7,9.32-3.05,13.71-.49,6.05-.83,12.16-1.17,18.23a55.21,55.21,0,0,0,3.55,22.5c2.4,6.55,6,12.79,7.53,19.61C378,1236.07,382.78,1234.74,382.06,1231.61Z"/><path class="cls-4" d="M340.89,1164.17c4.05,2.52,8.67,11,12.92,20.41,4.39,9.74,3.48,11.74,7.95,21.78a218.57,218.57,0,0,0,14.37,26.71,19.46,19.46,0,0,1-4.89.81c-7-9-14.68-19-21.63-28Q345.25,1185,340.89,1164.17Z"/><path class="cls-2" d="M339.63,1166.33c5.88,4.16,9.21,13.17,12,19.51,2.59,5.84,4,12,6.33,18a179,179,0,0,0,16,30.54l1.49-3.67a13.5,13.5,0,0,1-4.22.72l2.16,1.24q-5.31-6.88-10.63-13.75c-4.14-5.34-9.87-10.82-11.54-17.43-3.18-12.47-5.29-25.33-7.93-37.93-.65-3.15-5.47-1.82-4.82,1.33q2.58,12.33,5.15,24.66,1.39,6.63,2.77,13.27c.77,3.68,1.91,5.51,4.22,8.51l14.94,19.3c1.54,2,3,5.3,5.68,5.8a13.34,13.34,0,0,0,5.55-.9,2.55,2.55,0,0,0,1.5-3.68c-6.88-10.65-13.45-22.32-17.31-34.42a137.13,137.13,0,0,0-7.43-19.23c-2.85-5.79-6-12.32-11.39-16.14C339.52,1160.15,337,1164.49,339.63,1166.33Z"/><polygon class="cls-3" points="196.66 606.74 238.51 597.53 263.85 716.81 246.16 733.32 222.57 723.69 196.66 606.74"/><path class="cls-2" d="M197.32,609.15l41.85-9.21-3.07-1.74,22.16,104.33,3.18,14.94.64-2.43-17.69,16.51,2.44-.64-23.59-9.63L225,723,202.34,620.83l-3.27-14.76c-.7-3.14-5.52-1.81-4.83,1.33L206.56,663l8.8,39.73,3.12,14.06c.5,2.28.7,5.07,1.6,7.23,1.24,3,6,3.83,8.77,5l16.65,6.8a2.49,2.49,0,0,0,2.43-.64l11.32-10.57c2.3-2.14,7.15-5,7-8.47-.28-6.22-2.77-13-4.06-19.1l-16.78-79-4.48-21.07a2.55,2.55,0,0,0-3.08-1.75L196,604.32C192.85,605,194.18,609.84,197.32,609.15Z"/><polygon class="cls-4" points="238.51 597.53 283.12 587.64 309.25 704.43 289.07 725.06 263.85 716.81 238.51 597.53"/><path class="cls-2" d="M239.17,599.94l44.61-9.89-3.07-1.74,22.83,102,3.3,14.74.64-2.43L287.3,723.29l2.44-.64-25.23-8.25,1.75,1.74L244.09,611.81l-3.17-14.94c-.67-3.15-5.49-1.82-4.82,1.33l12.15,57.19,8.55,40.24,3,14.32c.48,2.25.64,5,1.52,7.15,1.3,3.18,6.83,3.76,9.8,4.73l17.25,5.64a2.48,2.48,0,0,0,2.43-.64l10.78-11,6.24-6.39c1-1,2.92-2.37,3.55-3.73.75-1.63-.19-3.91-.56-5.56l-2.64-11.79L290.46,609l-4.93-22a2.54,2.54,0,0,0-3.07-1.75l-44.62,9.89C234.7,595.82,236,600.64,239.17,599.94Z"/><path class="cls-3" d="M127.07,390.42l11.35,44.92L140.6,437l4.7,20.18c11.19,1.32,21.08.5,27.4-6.19L169,432.25l-.17-15.86C156.15,398.27,139.91,388.22,127.07,390.42Z"/><path class="cls-2" d="M124.66,391.08l9.93,39.29c.43,1.7.62,3.94,1.39,5.53a5.29,5.29,0,0,0,2,2.17c1.55,1.08.43,1.21.27-.4,0,.35.23.69.24,1,.15,3.52,1.74,7.44,2.54,10.87l1.91,8.21a2.57,2.57,0,0,0,2.41,1.84c7.34.79,15.17,1.05,22.07-2,3.58-1.58,8.14-4,7.55-8.33s-1.65-8.41-2.47-12.58c-.31-1.61-.76-3.25-1-4.88-.05-.47.09.93,0-.27,0-.73,0-1.46,0-2.19,0-4.06.54-8.67-.14-12.68-.34-2-1.58-3.31-2.83-4.94a84.65,84.65,0,0,0-8.85-10c-8.88-8.46-20.56-15.61-33.27-13.77-3.18.45-1.83,5.27,1.33,4.82,9.65-1.4,19.13,4.29,26.11,10.39a77.42,77.42,0,0,1,6.25,6.17c.94,1,1.87,2.09,2.75,3.18.73.89,3.15,3.08,3.51,3.9.76,1.77.06,5.46.08,7.36.11,9.58,2,18.35,3.85,27.77l.64-2.43c-6.82,6.72-16.74,6.42-25.63,5.46l2.41,1.83c-1.46-6.27-2.72-12.63-4.39-18.85a5.89,5.89,0,0,0-.95-2.43,6.23,6.23,0,0,0-1.6-1.19c-1.56-.85-.18-.85,0,.58-.29-1.85-.94-3.72-1.4-5.53l-9.93-39.29C128.69,386.63,123.87,388,124.66,391.08Z"/><path class="cls-3" d="M254.79,364.27l7.57,39.09-6.54,32.78-8.94.69-18-25.79-4.7-12.18C229.6,377,236.4,365.46,254.79,364.27Z"/><path class="cls-2" d="M252.38,364.94l3.41,17.59,2.36,12.21c.52,2.69.67,5.95,1.65,8.51.57,1.48.19-.68.08-.23-.22.88-.35,1.78-.53,2.67l-2.19,11-3.75,18.8,2.41-1.84-8.94.69,2.16,1.24-10.12-14.51-6.22-8.9c-.5-.72-1.06-1.43-1.51-2.17.27.45-.29-.63-.63-1.52-1.09-2.85-3.68-6.89-3.84-9.93-.08-1.55,1.3-4.45,1.83-6.21a73.38,73.38,0,0,1,3.37-9.2c4.54-9.88,12-15.49,22.87-16.36,3.19-.25,3.21-5.25,0-5-9.2.73-17.34,4.05-23,11.62A50.48,50.48,0,0,0,225,387.07c-1.36,3.9-4.06,9.39-2.85,13.46,3.77,12.69,12.06,22.52,19.53,33.22,1,1.47,2.46,4.59,4.23,5.37,2.5,1.09,7.25-.27,9.9-.48a2.55,2.55,0,0,0,2.41-1.84L262,418c1-4.84,3.21-10.75,2.71-15.71-.69-6.87-2.68-13.84-4-20.61l-3.5-18.08C256.59,360.45,251.77,361.79,252.38,364.94Z"/><polygon class="cls-3" points="54.73 65.37 59.77 66.52 69.98 63.75 79.03 57 85.22 48.63 55.87 55.97 54.73 65.37"/><path class="cls-2" d="M54.06,67.78c3.82.87,5.88,1.28,9.61.27,3.06-.83,6.22-1.29,8.84-3.09,2.89-2,6.3-4.12,8.68-6.7s4.17-5.63,6.19-8.37c1.37-1.85-.88-4.16-2.82-3.67L55.21,53.56A2.59,2.59,0,0,0,53.37,56l-1.14,9.4c-.39,3.19,4.61,3.16,5,0L58.37,56l-1.83,2.41L85.89,51l-2.82-3.67c-2,2.66-3.83,5.45-5.93,8-.72.88,1.21-1.05.29-.28-.5.41-1,.77-1.55,1.15L70.6,60.18C68.48,61.76,66.74,62,63.26,63c-.95.26-2,.44-2.88.78-.73.27-2,.16-.16.29A34,34,0,0,1,55.39,63C52.26,62.25,50.92,67.07,54.06,67.78Z"/><path class="cls-3" d="M149.89,32.12c1.83.23,26.37-5.5,26.37-5.5h7.79l4.36,8Q169.15,44.09,149.89,32.12Z"/><path class="cls-2" d="M149.89,34.62c6.25.19,13.36-2.48,19.4-3.84a52.58,52.58,0,0,1,14.76-1.66l-2.16-1.24,4.36,8,.9-3.42c-12.29,5.74-24.5,4.35-36-2.52-2.77-1.65-5.29,2.67-2.52,4.32,13.13,7.84,27.1,9,41,2.52a2.54,2.54,0,0,0,.9-3.42l-4.36-8a2.5,2.5,0,0,0-2.16-1.24,60,60,0,0,0-14.31,1.43c-3.86.88-7.73,1.75-11.61,2.57-2.59.55-5.57,1.58-8.24,1.5C146.67,29.52,146.67,34.52,149.89,34.62Z"/><path class="cls-4" d="M344.81,972.29,321.35,977l39.46,170.87c5.64,3.91,14.09-.71,22.61-5.51Z"/><path class="cls-2" d="M344.15,969.88l-23.46,4.72a2.53,2.53,0,0,0-1.75,3.07l15.17,65.7,21.73,94.09c.78,3.38,1.2,7.18,2.41,10.44,3.72,10,21.34-.51,26.44-3.37a2.55,2.55,0,0,0,1.14-2.82l-13-57.27L352,992.61l-4.76-21c-.72-3.13-5.54-1.8-4.83,1.33l13,57.27,20.85,91.83,4.76,21,1.15-2.83a68,68,0,0,1-11.78,5.76,24.69,24.69,0,0,1-5.51.75c.19,0-2,.07-1.67.4-.3-.29-.36-1.54-.45-1.94l-2.39-10.35-9.2-39.87L329,999.15l-5.27-22.81L322,979.42l23.46-4.72C348.63,974.07,347.3,969.25,344.15,969.88Z"/><path class="cls-2" d="M247.52,734.6,288.87,727c1.29-.24,1.09-2.07,0-2.41l-12.15-3.9L268.54,718c-1.06-.34-2.85-1.34-4-1.27-2.73.16-6,4.67-7.92,6.4l-10.34,9.36c-1.19,1.08.58,2.85,1.77,1.77l8.89-8,5.89-5.34c.64-.58,1.3-1.13,1.91-1.73s-1.1-.06-.56.1c8,2.4,16,5.13,24,7.7v-2.41l-41.35,7.64C245.27,732.48,245.94,734.89,247.52,734.6Z"/><path class="cls-2" d="M288.15,978.26c22.76,1.55,45-2.79,64.87-14.11a1.25,1.25,0,0,0-1-2.28L287.82,975.8c-1.57.34-.9,2.75.67,2.41l64.23-13.93-1-2.28c-19.53,11.1-41.28,15.28-63.61,13.76C286.55,975.65,286.56,978.15,288.15,978.26Z"/><path class="cls-2" d="M361.59,1152l6.3,30.61a1.26,1.26,0,0,0,2.41,0c.91-5.49,1.4-11,2.11-16.52.16-1.24.19-4.92,1.29-5.86,1.64-1.39,4.07,1.63,5.18,2.69a1.25,1.25,0,0,0,2.08-1.21l-2.21-16.21a1.25,1.25,0,0,0-1.54-.88l-14.75,5.84c-1.48.58-.84,3,.66,2.41l14.76-5.84-1.54-.87,2.21,16.21,2.09-1.22c-2.32-2.22-6.5-6.18-9.09-2.18-1.19,1.83-1.3,4.49-1.57,6.58-.71,5.47-1.19,11-2.09,16.39h2.41l-6.3-30.61C363.67,1149.77,361.26,1150.43,361.59,1152Z"/><path class="cls-2" d="M337.93,1154.71h5.17l-1.21-.92,4.33,16.22,2.09-1.22c-2.08-2.6-4.3-5.13-6.27-7.82-.49-.67.23.67-.12-.26s-.72-2-1.08-2.94l-1.7-4.64c-.55-1.5-3-.85-2.41.66,1,2.81,1.74,6.21,3.35,8.72,1.83,2.85,4.35,5.41,6.46,8,.82,1,2.39-.09,2.09-1.22l-4.33-16.21a1.27,1.27,0,0,0-1.2-.92h-5.17A1.25,1.25,0,0,0,337.93,1154.71Z"/><polygon class="cls-4" points="238.17 735.76 288.15 972.29 320.27 965.67 272.1 730.87 238.17 735.76"/><path class="cls-2" d="M237,736.1l17,80.26,26.81,126.86,6.21,29.4a1.28,1.28,0,0,0,1.54.87l32.11-6.61a1.28,1.28,0,0,0,.88-1.54L305.19,886,279.25,759.5l-5.94-29a1.28,1.28,0,0,0-1.54-.87l-33.94,4.89c-1.58.23-.91,2.64.67,2.41l33.94-4.89-1.54-.88,16.28,79.38,25.95,126.47,5.94,29,.87-1.54-32.12,6.61,1.54.88-17-80.27L245.59,764.83l-6.22-29.4C239,733.86,236.63,734.52,237,736.1Z"/><path class="cls-2" d="M154.24,435.62c4.91-.83,9.85-1.47,14.79-2.12,1.58-.21,1.6-2.71,0-2.5-5.16.68-10.32,1.34-15.46,2.21-1.58.27-.91,2.67.67,2.41Z"/><path class="cls-2" d="M140.93,438.15q3.16-.67,6.35-1.28c1.58-.3.91-2.71-.67-2.41q-3.18.6-6.34,1.28c-1.57.34-.91,2.75.66,2.41Z"/><path class="cls-5" d="M129.94,598.49c-2.23-7.2-.81-12,.46-22,1.42-11.24.85-22.63,1.37-33.94,2.16-46.69-26.63-136.7-36.69-151.34-.94-1.37-4-5.44-3.21-10.09.76-4.27,4.2-5.46,5-9.63,1.08-5.3-3.09-10.2-3.67-11-4.76-6.6-20.47-87-55.49-300.84-6.74-3.49-10.87,1-13.3,10.54C57.66,304.28,76,390.05,86.37,408.63a171,171,0,0,1,11.92,25.68c4.8,13,6.87,23.36,10.55,45.86,4.46,27.19,6.68,40.79,8.72,59.16,4.9,44.26,2.33,53,.91,56.41a18.21,18.21,0,0,0-1.37,8.71c.44,4.54,3.1,12.17,9.63,13.76,3.34.81,8.5.57,10.09-2.29C138.89,612.16,132.78,607.68,129.94,598.49Z"/><path class="cls-2" d="M131.14,598.16c-1.9-6.71-.63-13.09.27-19.86,1.16-8.74,1.24-17.52,1.36-26.32.17-11.8.42-23.28-.92-35-2.75-24.11-8.38-47.93-15.09-71.22-5-17.23-10.12-35.22-18.34-51.24-1.43-2.79-3.6-5.31-4.67-8.25C91.1,379,99,375.53,98.27,368.49c-.4-4-3.29-6.92-4.73-10.19-2.06-4.66-3-10-4.16-14.95C87,333.25,85,323.09,82.94,312.92c-7.48-37.84-14.07-75.86-20.61-113.87q-7.51-43.76-14.76-87.56-2.12-12.69-4.2-25.37-1-6.14-2-12.27c-.37-2.24-.74-4.49-1.1-6.73-.33-2-.15-6.29-1.29-7.82-1.74-2.33-6-2.58-8.56-1.38-3.82,1.82-6.84,7.91-7.15,11.93-.22,3,.83,6.47,1.26,9.5q1,7.2,2.06,14.4,1.86,12.93,3.74,25.85,3.48,23.86,7.08,47.73,6,40,12.54,79.85c5.93,36.1,12.08,72.22,19.77,108,3.56,16.54,6.88,33.84,13.44,49.53a68,68,0,0,0,3.4,6.77,162.06,162.06,0,0,1,14.4,35.09c3.71,13.53,5.65,27.53,7.91,41.35,2.18,13.33,4.38,26.67,6.1,40.08,1.76,13.64,3.22,27.36,3.92,41.1.36,7,.78,14.41-.32,21.43-.75,4.79-3.13,8.88-2.7,13.92.76,8.88,7.31,17,16.91,15.18,12.13-2.28.34-15.7-1.62-21.47-.51-1.52-2.93-.87-2.41.66a44.76,44.76,0,0,0,3.53,7.87c1.14,2,4,5.23,3.54,7.67-.9,4.49-9,3.16-11.72,1.3s-4.5-5.5-5.28-8.72c-1.38-5.62,1.13-9.94,2.07-15.18,1-5.79.89-11.82.71-17.67-.41-13.12-1.76-26.23-3.29-39.26-3-25.77-7-51.7-12.17-77.12a165.05,165.05,0,0,0-10.18-32.63c-2.76-6.41-6.21-12.39-9.3-18.63-6.28-12.7-9-27.63-12.18-41.32-7-30.84-12.56-62-17.87-93.22-9-52.68-17-105.52-24.66-158.4q-1.83-12.6-3.63-25.18c-1.14-7.94-4.4-17.43,0-24.77,1.74-2.94,6.39-6.14,8.6-1.63.9,1.84.78,4.76,1.11,6.82l1.11,6.72Q41.16,88,43.23,100.55q7.17,43.29,14.53,86.55c6.67,39.05,13.42,78.1,20.92,117,3.32,17.22,6.15,34.95,11.38,51.73a25.79,25.79,0,0,0,1.64,4.45,25.52,25.52,0,0,0,1.57,2.32c2.31,3.45,3.39,7.24,1.37,11.14-1.19,2.29-3.11,3.79-3.8,6.37-1.77,6.68,4.11,12.7,6.78,18.43a235.56,235.56,0,0,1,9,23.2,531.07,531.07,0,0,1,18,66.14A311.79,311.79,0,0,1,130,522.94c1,11.89.43,23.74.24,35.65a210.3,210.3,0,0,1-2,24.94c-.71,5.25-.9,10.15.56,15.29A1.25,1.25,0,0,0,131.14,598.16Z"/><path class="cls-5" d="M314.29,510c6.61,13.62,11.64,15.27,15.14,28.89,4.08,15.9,1,28.37,7.34,31.19,3.32,1.48,8.29-.12,10.54-3.21,4.55-6.24-3.07-17-10.09-33.94-.78-1.89-4.19-13.95-11-38.06C315.38,456.5,310,437.33,307.42,421s-1.51-17.54-4.59-35.31a384.06,384.06,0,0,0-10.55-44.94c-.86-2.92-60.4-206.41-61.91-265.07-.23-9-4-21-11.46-44.95-1.32-4.2-3.25-10.13-7.34-11,0,0-12.47,6.31-14.68,14.21-2.07,7.43,1,12.82,4.59,23.85,3.25,10,4.43,20.52,6.88,30.73,3.43,14.29,4.58,20.91,16,77.5,8.17,40.34,12.26,60.51,14.67,71.54,14.81,67.56,15.63,58.34,15.6,66.5,0,10-1.32,33,11,41.73,1.46,1,2.16,1.2,5.05,3.21,9,6.27,15.79,14.11,18.8,19.26,5.85,10,2.24,18,2.29,33,.07,18.29,5.44,17.4,11.93,47.7C311.52,485.25,304.54,489.87,314.29,510Z"/><path class="cls-2" d="M313.22,510.61c3,6,6.93,11.23,10.32,17,4.16,7,5.83,15.2,6.7,23.26.75,6.94-.5,21.79,10.24,21,11.36-.86,9.94-12,6.83-19.49-3.72-9-8.34-17.47-11.08-26.86-7.66-26.22-15.29-52.51-22.05-79-2.25-8.81-4.3-17.67-5.69-26.66-1.81-11.78-2.55-23.66-4.62-35.41-4.5-25.57-12.29-50.26-19.31-75.19C274.18,272.33,264.2,235.31,255,198.1c-9-36.29-18.52-73.21-22.51-110.46-.65-6.13-.54-12.36-1.52-18.44-1.92-11.94-6.11-23.6-9.7-35.1-1.44-4.62-2.65-11.38-6.91-14.41-2.72-1.93-4.11-.75-6.61.83-8.26,5.22-14.32,12.26-12.29,22.54,1.43,7.28,4.79,14.11,6.59,21.3,2.05,8.18,3.24,16.54,5.17,24.74,1,4.45,2.07,8.9,3,13.36,4.2,19.68,8,39.43,12,59.15,8.75,43.23,16.5,87,28.36,129.54,1.22,4.38,2.81,8.46,2.83,12.92,0,10-.41,20.3,2.83,29.95,1.52,4.53,3.9,8.91,7.64,12,5,4.1,10.64,7.08,15.35,11.67s9.76,10.18,11.56,16.77c1.64,6,.49,12.48.07,18.6-.64,9.28-.26,18,2.88,26.82a230.61,230.61,0,0,1,9.89,34.93c2.11,11.07,2.74,22.08,3.53,33.28a61.11,61.11,0,0,0,6,22.54c.69,1.45,2.84.19,2.15-1.26a62.31,62.31,0,0,1-5.87-24.24,232.18,232.18,0,0,0-3.61-31.87,224.11,224.11,0,0,0-9.58-33.67c-3.24-9-3.57-17.81-2.88-27.27.83-11.28,1.12-20.17-6.17-29.48a73.69,73.69,0,0,0-13.7-13.29c-4.73-3.56-9.64-5.71-12.68-11.11-5.33-9.47-5.09-21.34-5-31.89a33.83,33.83,0,0,0-.25-6.6c-1.41-7.72-4.29-15.36-6.19-23-4.89-19.63-9.2-39.41-13.27-59.22-8.36-40.66-15.77-81.57-24.89-122.07-2.05-9.13-3.83-18.31-5.8-27.45-1.64-7.61-4.45-14.72-6.69-22.14-2-6.6-1.76-12.7,3.19-17.87a35.46,35.46,0,0,1,5.83-4.76c.77-.52,3.09-2.53,4.1-2.48,2.49.12,4.48,6.31,5.19,8.31,1.33,3.78,2.41,7.66,3.6,11.49,3.17,10.26,7,20.85,8.17,31.59,1.4,13,2.26,25.86,4.5,38.81,3.11,18,7,35.9,11.08,53.72,8.92,38.83,19,77.38,29.57,115.8,5.52,20.13,11.12,40.25,17,60.27,6.12,20.88,11,42.26,13.13,63.93,1.9,19.49,6.37,38.21,11.53,57.06,4.08,14.88,8.31,29.72,12.51,44.56,2.4,8.47,4.5,17.13,7.36,25.46a146.09,146.09,0,0,0,6.09,13.87c2.26,4.84,6.47,11.59,5.75,17.23-.55,4.3-5.36,7.2-9.47,5.92-3.23-1-3.75-4.41-4.18-7.41-.91-6.47-1-13-2.3-19.43a50.87,50.87,0,0,0-6.07-16.33c-3.34-5.54-7.12-10.65-10-16.46C314.66,507.91,312.5,509.17,313.22,510.61Z"/><path class="cls-2" d="M336.48,1003.66c.08,1.87.32,4.42,1.57,5.91s4.18.66,5.85.46,3.35-.25,4.15-1.8.17-3.74-.21-5.31c-.19-.78-1.4-.45-1.21.34a9.13,9.13,0,0,1,.52,3.22c-.35,2.4-2.7,2.25-4.47,2.45s-3.11.52-4.15-1.17a9.14,9.14,0,0,1-.8-4.1c0-.8-1.29-.8-1.25,0Z"/><path class="cls-2" d="M348.31,1012.9c.45-.11.56,3.49.54,3.83,0,.81,1.21.8,1.25,0,.07-1.35.15-5.55-2.13-5-.78.18-.45,1.38.34,1.21Z"/><path class="cls-2" d="M337.69,1013.19l1.57,5.14c.23.76,1.44.44,1.21-.33l-1.57-5.14a.63.63,0,0,0-1.21.33Z"/><path class="cls-2" d="M339.17,1017a64.94,64.94,0,0,1,9.79-1.63c.79-.09.8-1.34,0-1.25a67.82,67.82,0,0,0-10.12,1.67.63.63,0,0,0,.33,1.21Z"/><path class="cls-2" d="M340.25,1022c3.12-.63,8.48-1.52,10.17,1.89.71,1.42.08,2.07-1.36,2.61-.62.23-1.25.43-1.89.62a34.19,34.19,0,0,1-4.27.94c-.79.12-.45,1.33.34,1.2,2.72-.43,10.57-1.28,8.58-5.78s-8.11-3.46-11.9-2.68c-.79.16-.46,1.37.33,1.2Z"/><path class="cls-2" d="M353.29,1031.18c0,1.51-1.85.69-2.46.62a11.34,11.34,0,0,0-2.73.17,6.93,6.93,0,0,0-3.1,1c-1.42,1-2.2,3-1,4.46,1.44,1.69,4.64,1.46,6.57,1.21,2.48-.32,4-1,3.44-3.72-.15-.79-1.35-.46-1.2.33.52,2.8-4.65,2.6-6.25,2.11-2.07-.65-2.4-2.58-.53-3.58a8.13,8.13,0,0,1,3.37-.72c2.2-.1,5,1.45,5.1-1.89a.63.63,0,0,0-1.25,0Z"/><path class="cls-2" d="M345.31,1044.09c.65,1.44.8,3.35,2.23,4.32,1.24.85,2.94.42,4.33.21s3.78-.57,4.8-1.79.3-3.16.05-4.46c-.15-.79-1.35-.46-1.21.33.34,1.79.47,3.48-1.54,4.17a16,16,0,0,1-3.7.7c-2.87.29-2.95-2-3.88-4.11-.32-.74-1.4-.1-1.08.63Z"/><path class="cls-2" d="M347,1051.85l-.17.35a.64.64,0,0,0,.54.94,78.42,78.42,0,0,0,9-.92c.79-.13.45-1.33-.33-1.21a72.8,72.8,0,0,1-8.71.88l.54.94.17-.35c.35-.72-.72-1.36-1.08-.63Z"/><path class="cls-2" d="M356.08,1050.69a12,12,0,0,1,1.16,3.13c.17.79,1.37.45,1.2-.33a12.79,12.79,0,0,0-1.28-3.43c-.38-.71-1.46-.08-1.08.63Z"/><path class="cls-2" d="M346,1051.28a2,2,0,0,0,.5,1.67,5.35,5.35,0,0,1,.93,2c.18.78,1.38.45,1.21-.33a6.14,6.14,0,0,0-.57-1.55c-.18-.34-.94-1.06-.86-1.47.15-.78-1.05-1.12-1.21-.33Z"/><path class="cls-2" d="M349.36,1067.88c-1.44-2.34-1.89-8.4,2.15-8.17a4.13,4.13,0,0,1,3.64,3.34,2.06,2.06,0,0,1-.27,2.22c-.68.87-1.05.69-2.14.76l.16,1.23c2.2-.31,5.3-.19,7.33-1.07.89-.38,1.31-.79,1.26-1.79l-1.23.17L361,1067c.23.77,1.44.44,1.2-.33l-.74-2.44c-.2-.65-1.27-.57-1.23.16.06,1.06-6.79,1.53-7.67,1.65-.69.1-.53,1.28.17,1.23,2.81-.18,4.19-.12,3.85-3.37a6.57,6.57,0,0,0-4-5.54c-2.12-.71-3.81.57-4.76,2.41a7.88,7.88,0,0,0,.5,7.73.63.63,0,0,0,1.08-.63Z"/><path class="cls-4" d="M381.08,1166.69l5.21,63.52-5.21,1.32-7.86-67.36C373.63,1156.14,378.5,1158.61,381.08,1166.69Z"/><path class="cls-2" d="M380.46,1166.69l4.91,59.86c.07.86.55,2.51.27,3.34s1-.81-.17-.12a11.6,11.6,0,0,1-4.14,1c.7,0,.08,1.19.2-.77a31.54,31.54,0,0,0-.61-5.27l-4.28-36.71-2.14-18.35c-.18-1.53-.48-3.1-.54-4.64,0-.3-.11-.59-.11-.89,0,0,.35-2.5.36-2.52,3.35-4.09,5.73,3.68,6.27,5.19.26.75,1.47.43,1.2-.33-.79-2.26-3.26-9.35-7-7.67-2,.91-2.1,4.11-2,6,.27,6.78,1.59,13.68,2.38,20.41l5.4,46.28a.63.63,0,0,0,.79.61l5.21-1.33a.62.62,0,0,0,.46-.6l-5.21-63.52C381.64,1165.9,380.39,1165.89,380.46,1166.69Z"/><path class="cls-2" d="M362.42,1208.05l4.23-1.08a13.29,13.29,0,0,1,2.74-.7c1,0-.41-.65-.14-.41,1.22,1.11,1.88,5.05,2.44,6.57l4.36,11.69c.6,1.61,3,5.6,2.72,7.3.17-1-1.57,1.15-2.71,1,1,.14.27,0-.1-1-1.07-2.9-3.12-5.76-4.59-8.48l-8.58-15.83c-.38-.71-1.46-.08-1.08.63l13.88,25.61a.64.64,0,0,0,.85.23l3.35-1.54a.61.61,0,0,0,.29-.7l-9.69-26a.64.64,0,0,0-.77-.44l-7.54,1.93A.62.62,0,0,0,362.42,1208.05Z"/><polygon class="cls-4" points="155.62 453.34 153.44 454.03 148.31 434.2 141.98 430.99 138.42 413.1 135.9 413.67 138.19 424.45 140.03 431.9 146.91 435.11 152.06 455.41 158.37 454.03 154.01 434.25 159.52 429.5 156.31 415.62 149.54 400.49 154.7 430.07 151.72 433.48 155.39 452.31 155.62 453.34"/><path class="cls-2" d="M155.45,452.74c-1.14.36-1.9.44-1.47.89-.31-.32-.42-1.65-.52-2l-2-7.66c-.69-2.65-1-8.3-2.93-10.33-1.43-1.51-4.49-1.48-5.91-3-.1-.11.08-.05-.26-.79a16.63,16.63,0,0,1-.67-3.37L139,412.93a.62.62,0,0,0-.76-.43l-2.53.57a.63.63,0,0,0-.43.77c.79,3.71,1.52,7.43,2.38,11.13.44,1.9.6,5.36,1.71,6.95.71,1,2.18,1.39,3.34,1.93,1.62.76,3.34,1.37,3.75,2.12,1,1.79,1.18,4.66,1.69,6.64l3.29,13a.65.65,0,0,0,.77.44l6.31-1.38a.63.63,0,0,0,.43-.77l-3.19-14.5a47,47,0,0,1-1.17-5c.27-.76,4.12-3.37,5.35-4.43a.62.62,0,0,0,.16-.61c-1.07-4.64-1.76-9.59-3.3-14.09-1.77-5.14-4.52-10.1-6.74-15.07-.31-.69-1.25-.16-1.14.49l2.41,13.82,1.68,9.6c.27,1.57,1.33,4.31,1,5.89,0-.21-1,1-1.6,1.73-.39.46-1.16,1-1.33,1.62-.34,1.22.61,3.46.84,4.64,1,5.18,1.91,10.4,3.06,15.55.17.78,1.38.45,1.2-.33-1.14-5.16-2.05-10.37-3.06-15.55a17.45,17.45,0,0,1-.65-3.34c.06-1.49-.43.07.54-1.38.85-1.27,2-1.83,2.21-3.27s-.69-3.94-1-5.49l-1.74-10-2.41-13.83-1.15.48c2.36,5.28,5.45,10.65,7,16.2a88.78,88.78,0,0,1,2.66,11.45c.21,1.6.44.6-1.22,2l-3.85,3.33a.65.65,0,0,0-.16.61l2.8,12.72c.45,2,1,4.09,1.36,6.15.26,1.47.59.07,0,.28-1.36.48-3,.38-4.29.94-1.11.46-1,0-.65.5a7.45,7.45,0,0,1-.5-1.95l-2-8c-.66-2.57-1-8.45-2.81-10.47-1-1.08-3.83-1.86-5.15-2.42-2.28-1-2-2.33-2.64-5.11-1-4-1.5-8.15-2.67-12.07-.3-1,.08-1.41-.36-.83.06-.08,2.37-.26,1.55-.63-.16-.07-.41-.23-.08.28.94,1.43,1,4.83,1.29,6.47l1.6,8.05c.18.92.16,2.37.78,3.12,1.36,1.66,4.91,1.51,6.24,3.18.13.16.84,3.47,1.12,4.56l3.88,15a.63.63,0,0,0,.77.43l2.18-.68C156.55,453.7,156.22,452.5,155.45,452.74Z"/><path class="cls-4" d="M238.74,375.15l2.06,8.14,9.86,21.33.92,30.26h-2l-2.52-8.25-10.78-48-2.4,2.18,12.23,48.73-11.55-20.41-.68-26.6-1.84-.57-.46,9.86,1,18,15.48,27.05,6.31-.69,1.14-31.52,2.3-2.18-7.23-27.86-5.9-7.22C240.52,370.2,238.33,372.82,238.74,375.15Z"/><path class="cls-2" d="M238.14,375.32c2.05,8.07,5.16,14.85,8.67,22.45,1.11,2.39,3,5.81,3.25,7.67.62,4.48.29,9.3.42,13.82s.73,9.55.43,14.21c-.1,1.59-.45,1.43-.84.72-1.11-2-1.58-4.95-2.2-7.2-1.9-6.95-3.21-14.12-4.78-21.15l-6.15-27.41a.63.63,0,0,0-1.05-.28l-2.41,2.18a.65.65,0,0,0-.16.61l12.24,48.72,1.14-.48-6-10.63c-1.54-2.72-4.94-7.48-5.46-9.77-1-4.27-.25-9.63-.36-14l-.32-12.3a.64.64,0,0,0-.46-.6l-1.83-.58a.63.63,0,0,0-.79.61,127.94,127.94,0,0,0-.26,13.42c.26,4.52-.45,10.48.94,14.79,1.52,4.74,5.49,9.61,8,13.92l7.49,13.1a.63.63,0,0,0,.54.31l6.31-.69a.65.65,0,0,0,.62-.63l.65-17.73.39-10.88c.11-3,0-2.57,2.22-4.65a.65.65,0,0,0,.16-.61L253,381.08c-.54-2.07-.8-4.89-1.8-6.82-1.36-2.64-4.11-5-6-7.35a.63.63,0,0,0-.76-.09c-2.84,2-6.47,4.46-6.32,8.33,0,.8,1.28.81,1.25,0-.09-2.31,2.1-5.06,4-6.26s.57-.87,2.08.34a23.23,23.23,0,0,1,4,4.94c1,1.45,1.41,3.91,2,6.05l3.28,12.67c.63,2.4,2.79,6.86,2.43,9.34-.05.34-1.89,1.59-2.24,3-.71,2.81-.24,6.46-.34,9.35l-.51,13.81c-.06,1.74.61,6.08-.27,7.64.46-.82.23-.31-.74-.38a13.31,13.31,0,0,0-3.16.35c-1.72.38-.94.57-1.65-.2-2.16-2.29-3.58-6.26-5.14-9l-6.63-11.6c-.83-1.44-3-4.64-3.22-5.52-.88-3.08-.42-7.19-.6-10.37-.15-2.61-.43-5.25-.42-7.87,0-1.86.18-3.74.26-5.6a14.26,14.26,0,0,1,.14-2.93c.05-.2-.07-.54,0-.72-.36.69.19-.3.58.72-.28-.73.05.91.07,1.44.06,1.87.1,3.73.14,5.6l.39,14.95c.05,1.87-.09,3.49.59,5.17,2.74,6.82,7.53,13.31,11.15,19.71a.63.63,0,0,0,1.15-.48l-11.55-46a8.47,8.47,0,0,1-.62-2.46c.14-.78-.27.78.32-.2.21-.35.73-.59,1-.91,1-1.18.21-.33-.18-.94,1.07,1.69,1.15,5.13,1.58,7l6.61,29.44c1.5,6.69,3.09,13.15,5.09,19.71a.64.64,0,0,0,.6.46h2a.64.64,0,0,0,.63-.63l-.49-16.12c-.14-4.47.62-10.11-.52-14.46-1.39-5.33-5-10.79-7.3-15.79A74.67,74.67,0,0,1,239.34,375,.62.62,0,0,0,238.14,375.32Z"/><path class="cls-4" d="M81.79,72.25C80.85,82.78,98.37,139,112.74,219.46c13.32,74.6,23.16,126.59,28.89,150.65,3,12.73,14.67,7.76,25.45,19.26,32.63,34.77,29.16,85.49,28.9,88.74-2.23,26.95-11.7,28.25-13.07,59.84-.65,14.8,16.85,59.58,21.32,62.77,0,0,15.55,1.55,20-6.36,4-7.13,0-23.79-4.13-35.08-8-22-4.51-36.77-4.81-57.1-.6-39.57-15.16-81-22.7-106.62C151.58,256.47,116.18,42,116.18,38.74,116.18,29.6,81.94,70.55,81.79,72.25Z"/><path class="cls-2" d="M81.16,72.25c-.28,3.93.77,8.11,1.53,11.93,1.54,7.68,3.39,15.3,5.2,22.92,5.85,24.56,11.67,49.11,16.78,73.83,11.24,54.35,19.7,109.24,30.79,163.63,1.52,7.48,3.08,14.95,4.79,22.39.83,3.6,1.57,7.31,4.3,10,3.29,3.25,8.21,4.19,12.3,6,12.37,5.51,20.71,19.49,26.39,31.27a124.49,124.49,0,0,1,10.33,33.19c2.45,14.44,3.14,29.69-.28,44-2.09,8.77-6.1,16.92-8.26,25.67-2.27,9.17-3.66,19.17-2.05,28.56a173.24,173.24,0,0,0,17.59,50.7c2.48,4.64,3.42,5.27,8.7,5,7.36-.35,15.3-2.66,16.81-10.81,2.18-11.75-3.18-24.17-6.65-35.1-4.38-13.8-4.14-27.73-3.7-42,.91-29.74-5.07-58.65-13.26-87.09-6.74-23.41-14-46.62-20.22-70.18-6.5-24.58-12.48-49.3-18.15-74.09-10.88-47.53-20.65-95.32-29.72-143.22C128.65,108.68,123.1,78.38,118.2,48c-.32-2-.34-10.87-3.08-11.2-3.49-.43-8.87,6.29-10.9,8.32-5.56,5.55-10.77,11.46-15.8,17.49-2.06,2.46-6.38,6.21-7.24,9.48a.63.63,0,0,0,1.21.33c.32-1.24,1.87-2.69,2.62-3.66,2-2.56,4.09-5.06,6.2-7.53,4.9-5.76,9.94-11.44,15.38-16.7A40.36,40.36,0,0,1,113,39c1.48-.91,1.84-1.3,2.57,0s.58,4.06.81,5.5c4.12,26.34,8.93,52.59,13.8,78.81,17,91.41,35.4,183.15,61.74,272.39,7.6,25.71,16,51.19,20.11,77.77a237.82,237.82,0,0,1,2.28,44.62c-.42,12.84,0,25.38,3.91,37.73,1.84,5.8,4,11.44,5.28,17.4s2.93,13.26.85,19.14c-2,5.51-8,7.15-13.26,7.66-1.81.17-5.81.55-6.82-.12-1.66-1.11-2.81-4.44-3.65-6.14-2-4-3.7-8.1-5.34-12.24a237,237,0,0,1-9.15-27.38,68.58,68.58,0,0,1-1.41-29.12c1.39-9.09,4.77-17.33,7.67-26,4.27-12.75,5-25.95,4-39.24-1.64-20.21-7.31-40.47-18.42-57.58-5.9-9.09-12.69-17.34-23-21.39-6-2.36-10.84-4.08-12.74-10.92-.84-3.06-1.44-6.21-2.12-9.31C130,314.46,122,267.77,113.69,221.25c-5.07-28.38-11-56.59-17.52-84.66-4.09-17.57-8.74-35-12.27-52.74-.75-3.74-1.77-7.76-1.49-11.6C82.47,71.44,81.22,71.45,81.16,72.25Z"/><path class="cls-2" d="M102.1,387.19c-6,8.44-2.67,21.61-.68,30.75,3.8,17.43,11.23,33.87,16.14,51a200.57,200.57,0,0,1,6,30.93c1.27,10.32,4.93,20.3,5.28,30.74.22,6.47,2.37,11.22,9.27,12.64,7.5,1.55,16.4-.08,23.83-1.5,7.84-1.5,15.36-5,19.37-12.29,4.16-7.53,3.94-17.58,4.94-25.92,1.2-10,2.47-19.91,3.67-29.87.61-5.09.31-10.17.21-15.29-.28-14.47-1.54-28.42-8.71-41.29-8.14-14.63-21.94-26.35-36.45-34.47-12.74-7.12-32.36-8.62-42.43,4.05-2,2.5,1.53,6.06,3.53,3.54,9.12-11.47,26.49-9.11,37.66-2.53,11.56,6.82,22.79,15.75,30.32,27,7.77,11.57,10.38,24,10.91,37.7.25,6.38.75,12.94.2,19.32-.44,5-1.23,10-1.85,14.93q-1.23,10.11-2.45,20.22c-1.09,9.09-.8,20.27-9.21,26-6.57,4.5-15.57,4.95-23.25,5.61-3.24.28-7.06.72-10.2-.31-5.31-1.75-4.16-6.69-4.61-11.18-.86-8.79-3.62-17.23-4.87-26s-2.2-17.52-4.36-26.2c-4.2-17-11.32-32.94-16-49.72-2.27-8.17-4.35-16.83-4.4-25.35,0-3.59.37-7.07,2.49-10.05C108.28,387.09,104,384.59,102.1,387.19Z"/></g></g></svg>