<svg xmlns="http://www.w3.org/2000/svg" xmlns:xlink="http://www.w3.org/1999/xlink" viewBox="0 0 295.3 264.75"><defs><style>.cls-1{fill:none;}.cls-2{fill:#38301f;}.cls-3{fill:#82c6d7;}.cls-4{clip-path:url(#clip-path);}.cls-5{fill:#bfcbc8;}</style><clipPath id="clip-path"><rect class="cls-1" x="24.81" y="153.87" width="38.8" height="67.6"/></clipPath></defs><title>scronchee</title><g id="Layer_2" data-name="Layer 2"><g id="scrunchie"><path class="cls-2" d="M219.41,123.37c-2.2-2.5-4.8-4.9-5.6-8.2-.7-2.7-.6-4.4,1.8-6.6.6-.6,1.5-.7,2.1-1.3,2.4-2.4,1-5.7-.3-8.4-1.5-3.2-4-6.2-7.8-6.4-4.4-.3-7.7,4.2-11.1,6.3-5.3,3.2-11.9,5.3-18,3.3-7.2-2.4-10.1-8.3-9.5-15.4.9-10.2-5.4-13.5-14.7-13.9a1.77,1.77,0,0,0-1.7,2.2,61.21,61.21,0,0,0,7,13.1c3.2,4.4,8.7,8.5,9.1,14.3.4,6.4-5.3,9-7.3,14.3-1.1,3-.7,6,1.6,8.2v-2.5c-3,3.2-7.5,1.5-9-2.4-.9-2.3,0-4.3-.4-6.6s-1.6-4.3-4-4.4c-6.2-.2-3.3,10.4-1.6,13.2a15.26,15.26,0,0,0,7.2,6.3c1.5.6,3.1.9,4.6,1.5,2.2.8,2.3.8,3,3.3.8,2.8.1,3.5-1.2,5.7-2.6,4.5-4.3,12,3,12.8l-1.8-1.8c-.2,3.7-4.8,5.6-5.4,9.4-.5,3.1,1.4,5.2,3.3,7.4,3.1,3.6,1.5,7.9-3.3,8-2,.1-3.9-.6-5.9.1-4.4,1.5-2.5,6.4-5.7,8.7a1.87,1.87,0,0,0-.4,2.8c3.3,3.1,7,6.2,11.4,2.9,1.9-1.4,3-3.5,4.5-5.3,3.7-4.2,6.6-1.9,10.3.8,2.8,2.1,7.1,5,9.7.9,1.2-1.8.7-3.8.5-5.8-.9-6.2,2.2-10.4,8.1-12.1,5.2-1.4,11,0,13.5-6.1,2.9-7.1-2.6-16.2,3.5-22.3,4.1-4.1,6.6-.5,11-.6a5,5,0,0,0,4.2-2.1c2.8-4.4-2-10.3-4.7-13.3-1.5-1.7-4,.8-2.5,2.5a24.83,24.83,0,0,1,3.3,4.5,2.67,2.67,0,0,1,.4,3.6c-.1,1.6-1,1.9-2.4.9-2.2-.2-3.5-1.4-5.9-1-3.7.6-6.8,3.6-8.2,7-2.3,5.4-.6,11-1.1,16.6s-4.6,5.6-9.1,6.3a18.88,18.88,0,0,0-6.5,2,13.42,13.42,0,0,0-7.1,9.3c-.4,2.2,1.2,8.6-2.7,7.9-1.7-.4-4-3.2-5.7-4.2a7.73,7.73,0,0,0-8.5.3c-1.6,1.1-2.7,2.8-4,4.3-.7.8-1.8,2.9-2.9,3.2-2.4.6-4.8-1.5-6.3-2.9-.1.9-.2,1.8-.4,2.8a7.08,7.08,0,0,0,2.9-3.5c.9-2.5-.3-4,4.1-5,1.2-.3,2.8.3,4.1.2,3.4-.4,6.9-2.8,7.7-6.3.9-4.1-2.2-6-4.3-9-3.2-4.6,4.1-8.1,4.3-13,.1-1-.9-1.7-1.8-1.8-5-.5,1.9-10.4,2.4-12.4a7.17,7.17,0,0,0-1.1-6.2c-4.1-5.2-11.7-3.1-15.2-9.9a13.76,13.76,0,0,1-1.2-3.4c-.6-2.3-.5-2.9.2-1.7a15.43,15.43,0,0,1,.3,3.8,10.86,10.86,0,0,0,3.2,6.8,8.58,8.58,0,0,0,12.2-.5,1.85,1.85,0,0,0,0-2.5c-4.2-3.9,3.9-9.8,5.5-13.5a14.38,14.38,0,0,0,0-11.5c-1.4-3.2-3.9-5.8-6.2-8.5a54.11,54.11,0,0,1-8.9-15c-.6.7-1.1,1.5-1.7,2.2,2.6.1,5.7.2,8,1.5,3.9,2.1,3.3,6,3,9.7-.4,4.4.3,8.2,3,11.7,5,6.5,13.6,8.4,21.3,6.4a34.76,34.76,0,0,0,12.5-6.5,14.31,14.31,0,0,1,2.4-1.9c2.8-1.5,5.7-.2,7.1,2.4,1.9,3.4.8,4.5-1.3,7.2-5.7,6.9-.5,13.8,4.5,19.3A1.71,1.71,0,1,0,219.41,123.37Z"/><path class="cls-3" d="M287,106.67c.6-1.6,2-2.6,3.1-3.8,6.3-7,3-18.5-3.1-25.6s-14.6-12.2-20-19.9c-1.8-2.6-3.3-5.5-5.9-7.2-3.2-2-7.2-1.7-10.7-3.1-7.8-3.2-10.3-14.1-18.2-17.2-4.5-1.8-10.5-1-13.2-5-1.5-2.2-1.3-5.2-2.3-7.7-1.8-4.4-7.1-6.2-11.8-6.4s-9.6.5-14.2-.8c-4.9-1.4-8.7-5-13.4-7.1s-11.2-1.7-13.4,2.9c-.9,1.9-.9,4.4-2.6,5.8-1.5,1.3-3.7,1.1-5.5,1.6-7.6,1.9-8.4,12-8.9,19.8-.1,1.4-.3,2.9-1.3,3.8-2.4,2.3-6-.7-8.4-3-3.4-3.3-9.3-5.2-12.6-1.8-1.8,1.8-2.3,4.8-4.4,6.1-1.3.8-3,.8-4.5,1.4-7.1,3-1.7,14.8-6.1,21-1.4,2-3.7,3.1-5.6,4.7-6.4,5.4-6.6,16.5-.4,22.1,1.3,1.2,2.9,2.3,3.2,4,.4,2.2-1.8,4.1-3.9,4.6s-4.4-.1-6.6-.2c-11.5-.8-21.9,11.2-19.6,22.4.5,2.7,1.2,6.3-1.4,7.3-1.9.7-4-1-6-.6-2.6.5-3.3,4-5.5,5.5-2.7,1.7-6.2-.3-9.2-1.5-9-3.7-19.7.3-26.5,7.3s-10.3,16.5-13.3,25.7c-1.2,3.7-2.3,7.4-4.3,10.7-1.5,2.5-3.5,4.7-5,7.2-8.4,13.1-2.8,33,11.1,39.9,10.9,5.4,26,4.3,32.7,14.4,5.4-2.5,12.7-3.8,15.1,1.3.8,1.8.7,3.9,1.8,5.5,3.2,4.8,10.6-.3,16.3.1,4.3.3,7.5,3.9,10.9,6.7s8.6,4.6,11.8,1.6c2.3-2.1,2.7-6.3,5.7-7.3,3.5-1.2,6.1,2.9,9,5.2,5.9,4.6,14.8,1.7,21.5,5,4.6,2.3,7.5,7.2,12.1,9.6,6.8,3.5,15,.3,22-2.9s14.8-7.5,16.1-15c.4-2.1.2-4.2.9-6.2s2.6-3.8,4.7-3.4a7.1,7.1,0,0,1,3,2.2c5.8,5.8,15.9,7.5,22.5,2.7,2.1-1.6,3.8-3.7,6-5.2,2.5-1.7,5.4-2.5,8.2-3.5a79.71,79.71,0,0,0,41-32.4c1.3-2,2.5-4.2,2.4-6.6-.2-4.7-5.3-7.8-6.1-12.4-1.1-6.2,5.6-13.3,1.4-18.1-1.3-1.4-3.2-2.1-4.8-3.2s-2.7-3.5-1.5-4.9,3.7-.9,5.6-.6c8.4,1.3,15.5-7.4,16.3-15.8s-2.4-16.7-4.3-24.9C286.71,109.87,286.41,108.17,287,106.67Zm-64.3,29.1c-.7,1.2-2.4,1.4-3.7,1.1s-2.6-1-3.9-1.3c-4-.9-7.9,2.2-9.5,5.9s-1.3,8-1,12c.3,3.8.3,8.4-2.9,10.5-1.8,1.2-4.2,1.2-6.4,1.4a17.08,17.08,0,0,0-9.5,3.6c-2.6,2.2-4.4,5.7-3.9,9.1a33.92,33.92,0,0,1,.8,4.4c0,1.5-.8,3.2-2.3,3.4a3.44,3.44,0,0,1-2-.4c-4.1-1.9-7.4-7-11.8-6-5.1,1.2-6.6,9.7-11.8,9.3-2.4-.2-3.9-2.3-5.7-3.9a2,2,0,0,1-2.3-.2,1.94,1.94,0,0,0,2.3.2,8.27,8.27,0,0,0-2.3-1.5c-1.9-.8-4.2-.3-6.1.4-9,3.4-15.9,12.6-25.6,12.9-5.1.2-10-2.3-13.7-5.7s-6.6-7.7-9.4-12c2.8,4.3,5.6,8.6,9.4,12s8.6,5.9,13.7,5.7c9.7-.3,16.5-9.5,25.6-12.9,2-.7,4.2-1.2,6.1-.4a7,7,0,0,1,2.3,1.5,4.7,4.7,0,0,0,2.1-2.5c.6-1.9.6-4.1,2.1-5.4,1.7-1.5,4.3-.7,6.5-.6,3.9.1,8.1-3.1,7.3-6.9-.8-3.6-5.6-5.5-5.6-9.2,0-4.1,5.9-6.4,5.5-10.4-2.4.3-4.1-2.6-3.8-4.9s1.8-4.4,3.1-6.4,2.2-4.6,1.3-6.8c-1.4-3.3-5.8-3.7-9.2-5a13.46,13.46,0,0,1-8.3-14.1,2.74,2.74,0,0,1,.8-1.8c1.1-.9,2.8.1,3.3,1.4a11.85,11.85,0,0,1,0,4.2c-.2,3.2,1.2,6.6,3.9,8.2s6.7,1.2,8.6-1.3c-2.3-1.5-2.1-5-.7-7.4s3.6-4.1,5.1-6.4a12.22,12.22,0,0,0,1.3-10.5c-1.3-3.7-4.2-6.6-6.7-9.6a50.33,50.33,0,0,1-8.8-15.2c4.7.1,10.3.8,12.3,5,1.7,3.4.1,7.4.3,11.2.3,7.5,7.7,13.4,15.2,13.9s14.7-3.2,20.4-8.1a9.85,9.85,0,0,1,3-2,6,6,0,0,1,6.1,2,16.34,16.34,0,0,1,3.1,6c.4,1.1.7,2.4.1,3.3s-1.5,1-2.3,1.5c-3,1.7-3.8,5.9-2.6,9.2s3.7,5.8,6,8.4,4.6,5.5,4.9,9C223.11,134.27,223.11,135.07,222.71,135.77Z"/><path class="cls-2" d="M288.51,107.57c2.3-4.4,5.8-6.2,6.6-11.5a23.12,23.12,0,0,0-2-12.4c-4.3-9.8-13.8-15.3-20.9-22.8-3.5-3.7-5.8-9.5-10.2-12.3-5-3.1-10.7-1.8-15.2-6.2-6.2-6.2-8.7-13.4-18.1-15.3-3.5-.7-6.5-.8-8.4-4.1-1.4-2.4-1.2-5.4-2.7-7.8-2.1-3.4-6-5.1-9.7-5.8-5.5-1-11.3.5-16.8-1.1-5.3-1.6-9.3-5.8-14.6-7.5-3.5-1.1-8-1.2-11.2.9a8,8,0,0,0-3,3.3,10.41,10.41,0,0,0-.6,1.6,6.3,6.3,0,0,1-3.5,4.5,25,25,0,0,0-2.9.5c-7.3,2.1-9.1,10-9.8,16.7-.3,2.6.2,7.8-3.4,7.2-2.2-.4-4.2-3.5-6.1-4.7-3-1.9-6.9-3-10.3-1.6a7.61,7.61,0,0,0-3.4,3c-2,2.8-2.1,4.1-5.6,5.3-3.2,1.1-5.3,2.6-6.3,6-1.1,4.1-.1,8.4-1,12.5-1.1,5.4-6.7,6.9-9.5,11.1-4,6.2-3.5,15.1,1.5,20.6,1.3,1.4,6.3,4.5-.2,6.6-.8.3-2.4-.2-3.3-.3a23.53,23.53,0,0,0-7.5.4,21.84,21.84,0,0,0-10.8,7.1,19.78,19.78,0,0,0-4.8,15.6c.1,1.2,1,3.4.7,4.6-.9,3.1-2.7,1.5-4.4,1.3-3.9-.4-4.7,2.1-7,4.5-2.9,3-5.7.7-8.9-.5a21.24,21.24,0,0,0-7.4-1.5c-9.1-.1-17.6,5-23.2,12a60.27,60.27,0,0,0-8.6,16c-2.5,6.5-3.9,13.6-7.7,19.5-3.1,4.7-6.3,8.6-7.6,14.2a31.39,31.39,0,0,0,0,13.3c2,9.2,7.9,17.3,16.6,21.1,9.9,4.4,23.9,3.6,30.7,13.2a1.88,1.88,0,0,0,2.4.6c2.9-1.3,8.1-3.2,11.1-1.1,2.7,1.9,1.9,6.3,4.4,8.6,3.7,3.4,9.3.8,13.4,0,8.2-1.5,11.9,7.2,19.1,9.1a9.24,9.24,0,0,0,5.7-.1c2.9-1.1,3.3-3.1,5-5.4.3-.4.5-1.3.9-1.6,1.5-.9,4.7,0,5.9.8,1,.7,1.8,1.8,2.8,2.6a15.74,15.74,0,0,0,7.7,3.1c2.7.4,5.5.4,8.3.7,4.9.5,8.1,2.6,11.6,5.9,4.6,4.4,9.2,7.3,15.8,6.7s13.5-3.8,19.3-7c4.6-2.6,9.3-6,11.3-11.1a16.66,16.66,0,0,0,.8-3c.5-2.5.1-7.1,3.2-7.1,2.6,0,5.9,3.9,8.4,5.1a20,20,0,0,0,15.9.4c2.7-1.2,4.5-3.1,6.6-5,3.4-3,7.2-4.1,11.3-5.6a82.43,82.43,0,0,0,33.8-23.5c3.6-4.2,9.1-10.1,9.4-16,.3-6.7-7.3-10.1-5.9-17,1-4.9,4.8-10.7.7-15.3-.9-1-3.3-1.7-3.9-2.7.1-.5.1-1.1.2-1.6-.4-1.6.1-2.1,1.4-1.4a11,11,0,0,1,1.8.2,13.85,13.85,0,0,0,8.1-2.5,21.15,21.15,0,0,0,8.7-15.2,37.93,37.93,0,0,0-1-12.1c-1.1-5.1-4.5-11.9-3.5-17.1.4-2.2-3-3.2-3.4-.9-1.3,6.7,2.7,14.1,3.8,20.7,1.4,8.1.3,17.8-7.6,22.2-3.6,2-6.5.4-10.2.8a4.36,4.36,0,0,0-3.9,2.8c-2.2,5.8,6.7,7.2,7.7,11.4.7,2.8-1.5,6.5-2.2,9.1a13.54,13.54,0,0,0-.1,7.2c.8,2.4,2.6,4.3,3.9,6.4,2.8,4.5,1.1,7.9-1.6,11.9a77.17,77.17,0,0,1-35.7,28.6c-2.9,1.1-6,1.9-8.8,3.2s-4.9,3.4-7.3,5.5c-6.8,5.8-15.4,4.4-21.8-1.1-3.2-2.8-6.9-4.2-9.8.2-1.4,2.1-1.3,4.5-1.6,6.9-.6,4.6-3.3,7.8-7,10.4-6,4.2-14.5,8.5-21.9,8.8-8.6.4-11.7-6.8-18.4-10.4-5.5-3.1-11.8-1.7-17.7-3.2-4.9-1.3-8.1-8-13.4-7.7-2.2.1-3.7,1.5-4.9,3.2s-1.7,4.2-3.5,5.2c-2.5,1.4-5.9-.3-7.9-1.6-5.3-3.6-8.7-8.5-15.9-7.5a50.5,50.5,0,0,0-5.3,1.2c-2.7.6-4.4,1.3-6.2-1.2s-1.8-5.7-4.5-7.7c-4.4-3.2-10.7-1.1-15.1.8l2.4.6c-10.5-14.7-33.1-8.2-43.1-24-4.9-7.7-6-18.1-1.9-26.3,2.2-4.5,5.9-8.1,8-12.7,2.2-5,3.5-10.4,5.5-15.5,4.1-10.7,10.7-21.5,22.5-24.7,5.6-1.5,9.9-.3,15.1,1.7,3.2,1.2,6.4,1.7,9.1-.8,2-1.9,1.9-4.2,5.4-4,1.4.1,2.5.8,3.9.4,3.2-.7,3.9-3.7,3.6-6.6-.4-4.9-1.2-8.7,1.3-13.3,2.7-5.1,7.8-9.1,13.7-9.7,4.1-.4,8.8,1.5,12.4-1.2a5.38,5.38,0,0,0,1.7-7c-.9-1.7-2.7-2.7-3.9-4.1a13.13,13.13,0,0,1-3-6.8c-1-6.9,2.7-10.3,7.4-14.4,6.2-5.3,3.9-11.6,5.3-18.7,1-5.4,6.6-4,9.5-7.8,1.5-2,1.8-3.9,4.3-5,3.8-1.6,6.7,1.1,9.5,3.3,5.5,4.4,11,4.6,11.8-3.5.4-4.3.5-8.9,2.4-12.8a8.1,8.1,0,0,1,5.2-4.7c2-.7,4.2-.4,6-1.8,4-3.1,1.9-9.1,8.7-9.6,5.6-.4,10,3.8,14.7,6.2a26.14,26.14,0,0,0,12,2.8c5.9.1,14.4-1.1,17.3,5.6,2,4.4,1.2,8.4,6.1,10.8s10,1.4,14.2,5.2c3.3,3.1,5.4,7.2,8.5,10.5,3.3,3.5,6.8,4.7,11.5,5.6,7.2,1.5,9.3,7.8,13.8,12.7,3.9,4.2,8.6,7.7,12.7,11.7,4.5,4.3,8.2,9.2,9.5,15.4a14.16,14.16,0,0,1-1.2,9.9c-1.3,2.3-3.5,3.7-4.7,6.1A1.68,1.68,0,1,0,288.51,107.57Z"/><path class="cls-2" d="M221.51,134.47c-1.8,1.9-5.4-.8-7.7-.8a9.48,9.48,0,0,0-5.2,1.7c-3.8,2.5-5.5,6.8-5.9,11.2-.2,3,.3,5.9.3,8.9a14.2,14.2,0,0,1-.3,4.1c-1.1,3.7-4.2,3.5-7.3,4-4.7.9-9.1,1.8-12.3,5.7a12,12,0,0,0-2.7,5.4c-.6,2.7.6,4.7-1,7-1.8,2.6-2.2.9-4.5-.8a13.3,13.3,0,0,0-1.9-1.4,10,10,0,0,0-5.2-1.9c-3.4,0-5.6,2.4-7.6,4.9a18.31,18.31,0,0,1-2.4,3.1c-2.3,1.5-4.3.5-6.4-.9-.7-.4-1.1-1.1-1.8-1.4s-1.2.2-1.8,0c-2.1-.9-3.8,2.1-1.8,3a4.17,4.17,0,0,0,3.6.4,1.76,1.76,0,0,0,.8-2.9c-8.2-6.4-17.5,2.6-24.4,7-5.9,3.8-12.1,5.7-18.8,2.3-6.1-3.2-10-9.3-13.7-14.9-1.2-1.9-4.3-.1-3,1.8,5.7,8.7,13,18.8,24.6,18.6,4.6-.1,8.9-2.3,12.7-4.7,4.7-3,14.2-12.2,20.1-7.6.6.4,1.5.8,2.1.3a7.08,7.08,0,0,0,2.9-3.5c.9-2.5-.3-4,4.1-5,1.2-.3,2.8.3,4.1.2,3.4-.4,6.9-2.8,7.7-6.3.9-4.1-2.2-6-4.3-9-3.2-4.6,4.1-8.1,4.3-13,.1-1-.9-1.7-1.8-1.8-5-.5,1.9-10.4,2.4-12.4a7.17,7.17,0,0,0-1.1-6.2c-4.1-5.2-11.7-3.1-15.2-9.9a13.76,13.76,0,0,1-1.2-3.4c-.6-2.3-.5-2.9.2-1.7a15.43,15.43,0,0,1,.3,3.8,10.86,10.86,0,0,0,3.2,6.8,8.58,8.58,0,0,0,12.2-.5,1.85,1.85,0,0,0,0-2.5c-4.2-3.9,3.9-9.8,5.5-13.5a14.38,14.38,0,0,0,0-11.5c-1.4-3.2-3.9-5.8-6.2-8.5a54.11,54.11,0,0,1-8.9-15c-.6.7-1.1,1.5-1.7,2.2,2.8.1,6.5.2,8.8,2,3.3,2.6,2.4,6.3,2.1,10a15.41,15.41,0,0,0,3.4,11.3c6.1,7.5,16.4,8.2,24.8,4.7a36,36,0,0,0,6.1-3.3c1.6-1.1,4-3.9,5.8-4.4,3.7-1.1,6.5,2,7.3,5.1.5,1.9,0,2.8-1.4,4.4a13.9,13.9,0,0,0-2.7,3.2c-1.6,3.5-.7,7.4,1.3,10.6,2.6,4.4,11,9.7,9.1,15.5-.7,2.2,2.7,3.1,3.4.9,1.4-4.3-1.4-8.5-4-11.7-2.1-2.5-4.8-4.8-6.1-7.8s-1.1-5.9,1.4-8.1c.8-.7,1.9-.8,2.6-1.7,2.2-2.9-.4-7.9-2.1-10.4-2.3-3.2-6.1-5.2-9.9-3.4-2.6,1.2-4.6,3.6-7,5.1a26.69,26.69,0,0,1-10.5,4.2c-7.4,1.2-16.4-2.6-17.8-10.7-.9-5.2,2-10.7-2-15.1-3.1-3.4-8.2-3.9-12.5-4.1a1.77,1.77,0,0,0-1.7,2.2,61.21,61.21,0,0,0,7,13.1c3.2,4.4,8.7,8.5,9.1,14.3.4,6.4-5.3,9-7.3,14.3-1.1,3-.7,6,1.6,8.2v-2.5c-3,3.2-7.5,1.5-9-2.4-.9-2.3,0-4.3-.4-6.6s-1.6-4.3-4-4.4c-6.2-.2-3.3,10.4-1.6,13.2a15.26,15.26,0,0,0,7.2,6.3c1.5.6,3.1.9,4.6,1.5,2.2.8,2.3.8,3,3.3.8,2.8.1,3.5-1.2,5.7-2.6,4.5-4.3,12,3,12.8l-1.8-1.8c-.2,3.7-4.8,5.6-5.4,9.4-.5,3.1,1.4,5.2,3.3,7.4,3.1,3.6,1.5,7.9-3.3,8-2,.1-3.9-.6-5.9.1-4.4,1.5-2.5,6.4-5.7,8.7l2.1.3c-8.2-6.4-17.5,2.6-24.4,7-5.9,3.8-12.1,5.7-18.8,2.3-6.1-3.2-10-9.3-13.7-14.9-1.2-1.9-4.3-.1-3,1.8,5.7,8.7,13,18.8,24.6,18.6,4.6-.1,8.9-2.3,12.7-4.7,4.7-3,14.2-12.2,20.1-7.6.3-1,.5-2,.8-2.9h-.9c-2.1-.9-3.8,2.1-1.8,3s2.8,1,4.6,2.4c1.6,1.2,3.2,2.1,5.3,1.9,3.8-.4,5.7-4.1,7.9-6.7,5.4-6.3,9.4,2,14.7,3.6,3.4,1,5.9-1.5,6.1-4.9.2-4.2-1.8-7.5,1.6-11.3,2.9-3.2,7-3.8,11-4.2,5-.6,8.4-2.5,9.3-7.8,1.1-6.4-2.4-14.5,2.9-19.9,4.8-4.9,10.4,2.3,14.9-2.4C225.51,135.37,223,132.87,221.51,134.47Z"/><g class="cls-4"><path class="cls-2" d="M55.41,221a63.3,63.3,0,0,1-2.3-13.7c0-5.2,1.8-9.2,4.2-13.6,3.3-6,3.7-11.2,1.9-17.9-.1-.3-.5-.5-.7-.2-4.2,5.1-8.1,10.8-12.7,15.5-7.3,7.4-15.5,3.4-20.2-4.4-.3-.5-1,0-.8.4,2.9,4.9,7.8,10.1,14,9.1,6.6-1,10.9-8.4,14.7-13.1.6-.7,3.6-5.3,4.3-5.3,2.2.1,1.9,4.8,1.8,6.8-.4,5.5-4,9.3-5.9,14.2-2.9,7.3-1,15.2.8,22.5C54.71,221.77,55.61,221.47,55.41,221Z"/><path class="cls-2" d="M37.81,161.87c0-12.1,9.3-4.9,12.8-.7,1.7,2.1,3.3,4.3,5.7,5.6,3,1.7,6.6,1.4,7.4-2.4.1-.6-.7-.8-.8-.2-2.1,2.9-4.3,3.4-6.7,1.5a16.43,16.43,0,0,1-3-2.9c-1.3-1.4-2.4-3.1-3.8-4.5-1.7-1.7-4.1-3.8-6.4-4.3-4.9-1-5.9,4.1-5.9,7.8C36.91,162.37,37.71,162.37,37.81,161.87Z"/></g><path class="cls-5" d="M173.21,66.27c-2.6-2.1-2.8-6.1-1.7-9.3s2.9-6.1,3.7-9.3c1-4.2.1-8.7-1-12.9-2.1-7.8-4.7-15.5-7.4-23.1,9.1,3.1,15.2,13.4,13.5,22.9a40.56,40.56,0,0,1-2.8,8.3c-3.1,7.8-5.7,16.4-3.3,24.4"/><path class="cls-2" d="M173.81,65.67c-4.4-4.4-.7-10,1.1-14.6a20.73,20.73,0,0,0,1.3-11c-1.4-9.7-5.4-19.3-8.6-28.6l-1.1,1.1c11.2,4.2,15.3,16.1,11.4,26.9-3.4,9.3-7.1,18.1-4.6,28.1a.89.89,0,0,0,1.7-.5c-1.9-7.6,0-15,2.7-22.2,1.9-5.1,4.2-10.1,3.7-15.7a22.3,22.3,0,0,0-14.3-18.3A.93.93,0,0,0,166,12c1.8,5.3,3.7,10.6,5.3,15.9,1.9,6.1,4.6,13.2,3.1,19.6s-7.8,13.5-1.8,19.5A.89.89,0,0,0,173.81,65.67Z"/><path class="cls-2" d="M224.41,86.77c2.5,2,4.9,2,8,2.1,5.7.3,10.6,3,16.1,3.9,3.3.5,6.8.3,9.6-1.6s4.9-8.8,7.4-9.1,5,3.6,6.8,5.1c2.1,1.9,4.2,3.8,6.4,5.6,1,.8,2.2,1.3,2.1,2.5-.1,1.4-2.2,1.8-3.4,2.1a42,42,0,0,1-7.1,1.1c-6.9.8-12.7,2.9-15.1,9.9-.4,1.1,1.3,1.5,1.7.5,4.3-12.3,19-5.5,26.7-13.1a.82.82,0,0,0,0-1.2c-5.4-4.3-10.1-9.8-15.6-13.8-2.3-1.7-3.7-1.9-5.3.5s-2.2,5.5-4.5,7.5c-4,3.6-9.4,2.5-14,1.1a63.59,63.59,0,0,0-8.5-2.5c-3.3-.5-7.3.4-10.1-1.9C224.81,84.77,223.51,86,224.41,86.77Z"/><path class="cls-5" d="M210.11,163.87c3.6-.1,7,1.8,9.6,4.3s4.6,5.6,6.8,8.4a66.39,66.39,0,0,0,14.2,13.8c.7.5,1.9,1,2.4.3a1.93,1.93,0,0,0,.1-1.5c-1.2-4.3-3.5-8.3-5.8-12.1-3.7-6.2-7.5-12.4-11.2-18.7-1-1.6-2.2-3.4-4.1-3.8,0,3.6,1.7,6.9,3.4,10,2.2,4.2,4.4,8.4,6.5,12.6a151.28,151.28,0,0,0-15.5-16.5c-1.4-1.3-3.3-2.6-4.9-1.6-1.9,1.2-1,4.1-1.4,6.3"/><path class="cls-2" d="M210.11,164.77c10,.5,15,12.3,21.2,18.7,1.5,1.6,9.8,11,12.5,7.7,1.2-1.4-.4-4.3-.9-5.5-1.6-4.1-4.1-7.8-6.3-11.6-2.7-4.5-5.4-9-8.2-13.6-1.7-2.8-3-5.5-6.1-6.7-.5-.2-1.2.3-1.1.8.7,8.2,6.3,15.9,10,23.1l1.4-1.1c-3-3.6-6-7.1-9.3-10.4-2.4-2.5-5.4-6.6-8.8-7.9-5.2-2-4.9,3.8-5.3,7.1-.1,1.1,1.6,1.1,1.8,0a17,17,0,0,1,.1-2.3v-1.2c1.5-.2,3.1-.4,4.6-.5,1.7.5,4.4,4.2,5.6,5.5,3.5,3.5,6.7,7.2,9.9,11,.7.8,1.8-.2,1.4-1.1-3.5-6.8-9.1-14.5-9.8-22.2a7.63,7.63,0,0,1-1.1.8c3.6,1.4,5.7,7,7.6,10.1,2,3.4,4.1,6.8,6.1,10.2a81.28,81.28,0,0,1,5.1,9.1c.6,1.3,2.9,4.6.5,4.7-1,.1-4.7-3.7-5.6-4.5-4.9-4.4-8.5-9.6-12.6-14.7-3.4-4.1-7.4-7.2-12.9-7.4C209,162.87,209,164.67,210.11,164.77Z"/><path class="cls-5" d="M235.61,209.37a9.84,9.84,0,0,0,13.4-1.7,14.6,14.6,0,0,0,2.4-8.2c.4-13.2-8.2-25-10.4-38a3.8,3.8,0,0,1,.3-2.6,2.41,2.41,0,0,1,3-.4,5.77,5.77,0,0,1,2.1,2.5,92.66,92.66,0,0,1,4.9,11.2c3.7,9.9,7.4,19.9,8.2,30.4a11,11,0,0,1-.5,5.1,9.88,9.88,0,0,1-3.6,4,32.17,32.17,0,0,1-15.4,6,30,30,0,0,0-6,.9c-7.2,2.1-11.3,10.9-18.7,12-4.2.6-8.3-1.5-11.5-4.3-4.7-4.1-7.7-9.8-10.5-15.3-3-5.9-5.9-12.1-6.1-18.7-.1-2.6.5-5.5,2.7-6.9a5.92,5.92,0,0,1,5.9.1,14.7,14.7,0,0,1,4.4,4.2,40.4,40.4,0,0,1,3.5,5.6c1,1.9,1.5,4.8-.5,5.6-1.3.5-2.7-.4-3.9-1.2-3.2-2.5-6.5-5-9.7-7.5,1.3,9.5,7,17.9,13,25.5,2.1,2.6,4.3,5.2,7.2,6.8s6.8,1.9,9.4-.1c3.6-2.7,3.8-8.3,7.5-10.9,2.2-1.6,5.2-1.6,7.9-1.5"/><path class="cls-2" d="M235.21,210.17a10.65,10.65,0,0,0,12.6-.1c4.7-3.5,4.9-10.3,4.2-15.5-.9-7.5-4.1-14.4-6.7-21.4-1.2-3.2-4.3-9.1-1.9-11.8,1.9-2.2.9-1.5,2.3.1a15.1,15.1,0,0,1,1.6,3.1c1.2,2.6,2.2,5.2,3.2,7.9,3.2,8.6,6.4,17.4,7.8,26.6.5,3.6.9,7-1.3,10.3-1.1,1.7-3.6,2.9-5.4,3.9-4.7,2.5-9.3,3.2-14.5,4-5.7.8-9.1,4-13.3,7.6-3.3,2.9-6.6,5.5-11.3,4.8-5.8-.8-10.1-5.6-13.2-10.2-5.2-7.5-11.9-19-10.9-28.4l.9-3.3c1.7-.7,3.4-1.3,5.1-2,2.1.4,4.2,2.9,5.4,4.6s3.8,4.7,3.8,6.8a7.37,7.37,0,0,0,.4,1.4c-1.3.1-2.6.3-3.9.4-1.2-.3-2.5-1.9-3.5-2.7-2.1-1.6-4.2-3.2-6.2-4.8-.7-.5-1.4.3-1.3,1,1.1,6.9,4.1,13,8,18.8,3.2,4.7,6.9,10.6,11.9,13.6,3.4,2,7.9,2.7,11.2.2,1.7-1.3,2.6-3.2,3.6-5.1a20.59,20.59,0,0,1,1.7-3.3c2.2-3.5,5.7-3.7,9.5-3.7,1.1,0,1.1-1.7,0-1.8-3.8-.1-7.6.2-10.2,3.4-3.8,4.6-4.4,12.8-12.9,9.7-6-2.2-10.3-9.5-13.7-14.6a44,44,0,0,1-7.3-17.6l-1.3,1c2.2,1.7,15.7,14.7,16.2,5.5.2-3.4-2.7-6.9-4.6-9.4-2.3-3-5.7-6.2-9.8-5.1-8.4,2.2-3.8,15.9-1.7,20.8,3.7,8.9,8.9,20.3,17.9,25,8.2,4.3,14-.7,20-6,2.1-1.8,4.3-3.6,7-4.4,2.5-.7,5.1-.6,7.7-1.1a33.77,33.77,0,0,0,14.2-6c7.9-6.1,3.3-18.3.9-26.3-1.8-5.9-3.9-11.6-6.1-17.3-1.2-3.2-2.8-9.2-6.1-10.9-9.1-4.7-1,16.4-.3,18.2,2.5,6.5,5.4,13.2,5.9,20.2.3,4,.2,8.8-2.9,11.8s-8,3-11.5.7C235.21,208,234.31,209.57,235.21,210.17Z"/><path class="cls-5" d="M145.71,188c-2.5,3.2-1.8,8,.4,11.4s5.4,6,8.3,8.8a45,45,0,0,1,6.7,8.4c1.3,2.1,2.5,4.5,2.5,7-1.7-4-3.4-8.1-5.1-12.1-1.5-3.5-2.9-7.3-1.9-10.9a8.28,8.28,0,0,0,.7-2.7,4.16,4.16,0,0,0-2.6-3.4c-1.3-.6-2.9-1-4.3-1.6a9,9,0,0,1-4.8-5.5"/><path class="cls-2" d="M144.91,187.57c-2.9,4.5-1.6,9.6,1.4,13.7,5.4,7.3,15.5,12.4,16.5,22.4a11.14,11.14,0,0,1,1.7-.2c-1.7-4-3.4-8.1-5.1-12.1a25.45,25.45,0,0,1-1.9-6.1c-.4-2.5.8-4.6.7-7a4.69,4.69,0,0,0-1.9-3.7c-3.5-3-7.7-2.2-9.8-7.4-.4-1-2.1-.6-1.7.5a11.52,11.52,0,0,0,3.9,5.3c1.3.9,3.1,1,4.4,1.9,5,3.2,2.8,3.9,2.4,7.3-.8,7.1,4.6,15.5,7.3,21.8.3.8,1.8.9,1.7-.2-.6-5.7-4.4-10.7-8.3-14.8-5-5.3-15.2-12-9.8-20.5C147.11,187.47,145.61,186.57,144.91,187.57Z"/><path class="cls-5" d="M80.51,221.87c-1.3-6-2.3-12.1-3-18.2-1-8.9-1.4-18.2,2.5-26.2,2.2,4.1,2.3,9,1.9,13.6s-1.1,9.3-.7,13.9c.5,5.1,2.6,10,2.7,15.1,0,1.5-.6,3.5-2.1,3.5-1.2,0-1.9-1.4-2.4-2.5"/><path class="cls-2" d="M81.41,221.57c-2.9-13.8-6.7-30.4-.6-43.8h-1.5c3.5,7.7,1.1,15.6,1,23.6a36.39,36.39,0,0,0,1.1,8.7c.3,1.4.7,2.8,1,4.2s.5,2.6.7,4c.7,2-.2,2.7-2.7,2.2-.5-1-2-.1-1.5.9.8,1.8,2.5,4,4.7,2.4,2.9-2.1,1-8,.4-10.8a62.84,62.84,0,0,1-1.2-20.3c.5-5.5.4-10.7-1.9-15.8a.85.85,0,0,0-1.5,0c-6.3,13.9-2.6,30.8.5,45.2C79.91,223.17,81.61,222.67,81.41,221.57Z"/><path class="cls-5" d="M128.51,104.67a20.8,20.8,0,0,1-17.3-8.9c-.4-.6-.8-1.5-.3-2.1s1.5-.1,2.2.3a33,33,0,0,0,11.2,4.5c1.7.3,4.2-.1,4.2-1.9a3.17,3.17,0,0,0-.6-1.5c-1.5-2.2-4-3.6-6.5-4.8s-5-2.3-6.9-4.3-2.9-5-1.7-7.5a1.76,1.76,0,0,1,.8-.9,2.19,2.19,0,0,1,1.9.3c6.1,2.9,10.6,8.2,14.4,13.6s7.4,11.3,12.3,15.8a14.4,14.4,0,0,1-14.2-2.9"/><path class="cls-2" d="M128.51,103.77a20.58,20.58,0,0,1-14.9-6.4c-3.3-3.6-.1-2,2.1-.9a32.33,32.33,0,0,0,5.9,2.2c3.6,1,10.6.5,6.6-4.8-2.2-3-6.1-4.1-9.2-5.9-1.8-1-4.1-2.1-4.7-4.3-1.4-1.3-1.2-2.3.7-3,.6-1.5,1.4-1.8,2.2-1,2.2.4,4.9,3.6,6.4,5.2,6.8,7.1,11.1,16.2,18.2,23.1.1-.5.3-1,.4-1.5a13.49,13.49,0,0,1-13.3-2.7c-.9-.7-2.1.5-1.2,1.2a15.5,15.5,0,0,0,15,3.2.92.92,0,0,0,.4-1.5c-6.8-6.5-10.9-15-17.1-21.9-2.2-2.4-10.3-11.4-13.6-6.9-3.6,4.8,2.9,10.2,6.6,12a46.31,46.31,0,0,1,5.8,3.1l1.9,1.6c-.4,1-.7,2-1.1,3-.8.4-3.4-.6-4.3-.9-3.4-1-7-4.7-10.5-4-.3.1-.6.3-.6.6-.7,3.2,2.9,6,5.2,7.7a22.49,22.49,0,0,0,13.2,4.4C129.61,105.57,129.61,103.77,128.51,103.77Z"/><path class="cls-5" d="M143,160.37c-7.3-.6-14.3,2-21.4,3.9s-14.8,3.3-21.4.2a18.46,18.46,0,0,1-9.6-10.9c4.4,1.7,7.9,5.3,12.5,6.3,5.8,1.3,11.4-1.9,16.9-4.1,10.7-4.4,23.6-5.3,33.2,1.2a19.29,19.29,0,0,1-9.9,3.4"/><path class="cls-2" d="M143,159.47c-16.2-.8-43.2,17-51.5-6.1l-1.3,1c4.3,1.9,8,5.4,12.7,6.4s9.2-.7,13.4-2.5c11.8-5,24.8-7.9,36.4-.5v-1.5a20.8,20.8,0,0,1-9.4,3.3c-1.1.1-1.1,1.9,0,1.8a23.42,23.42,0,0,0,10.3-3.5.85.85,0,0,0,0-1.5c-8.1-5.2-17.8-5.8-27.1-3.5-5.6,1.4-10.5,4.4-16,5.8-8.2,2.2-12.7-2.7-19.6-5.7-.6-.3-1.6.2-1.3,1,2.9,8.1,9.8,13,18.5,13.3,12,.4,22.7-6.6,34.7-5.9A1,1,0,0,0,143,159.47Z"/><path class="cls-2" d="M149.41,132.27c-2.5-4.2-5.1-8.5-6.4-13.3-1.6-5.9-.3-11.1,1.1-16.8,2.1-8.5.3-15.8-1.6-24.1-1.2-5.4-1.9-10.7-.5-16.1,1.2-4.6,3.7-8.8,6-12.9a54.87,54.87,0,0,0,7.2-24.3.45.45,0,1,0-.9,0c-.5,11.6-5.6,20.1-10.5,30.2-3.8,7.8-4,15-2.1,23.3,1.2,5.1,2.7,10.3,2.7,15.6s-2,10.2-2.8,15.4c-1.3,8.7,2.7,16.2,7,23.5C148.91,133.27,149.71,132.77,149.41,132.27Z"/><path class="cls-2" d="M159.21,67.87a17.52,17.52,0,0,1,.7-6.4c.8-2.1,2.3-3.7,3.4-5.6a35.82,35.82,0,0,0,3.2-9.2c.1-.5-.7-.8-.8-.2a41.14,41.14,0,0,1-5.4,12.3c-1.7,2.8-1.9,5.8-1.9,9.1A.4.4,0,0,0,159.21,67.87Z"/><path class="cls-2" d="M200.61,80.57c.2-4.5.5-10.3,4.8-13,3.2-2,6.8-.7,10.2-1.5,4.4-1.1,6.9-5.1,7.6-9.4.8-4.8-1.4-7.8-4.5-11.2a37,37,0,0,1-6.2-9c-.2-.4-6.4-15.5-.6-13.6.5.2.8-.7.2-.8-4.4-1.4-4,3.8-3.4,6.6,1.6,7,5.2,12.7,9.9,18.1,4.1,4.8,5.6,12,.3,16.7-3.8,3.4-8.5,1-12.7,2.8-5.6,2.4-6.2,9.1-6.4,14.4C199.71,81.17,200.51,81.17,200.61,80.57Z"/><path class="cls-2" d="M256.21,140.57c1.7-2.8,2.8-5.9,4.4-8.7,2-3.5,4.9-4.9,7.6-7.6,3.5-3.6,3.7-8.9,3.8-13.6a.45.45,0,1,0-.9,0c-.1,3.2-.2,6.6-1.5,9.6-1.5,3.4-4.2,4.6-6.7,7-3.7,3.5-5,8.6-7.5,12.9C255.11,140.67,255.91,141.07,256.21,140.57Z"/><path class="cls-2" d="M233.11,198.07c-10.4-3.2-23.9-12.7-24.9-24.4a.45.45,0,0,0-.9,0c1,12.2,14.7,21.9,25.5,25.2A.43.43,0,1,0,233.11,198.07Z"/><path class="cls-2" d="M183.81,225.77c-12.9-2.8-11.7-19.6-18-28.6-.3-.5-1.1,0-.8.4,6.4,9.1,5.2,26.1,18.5,29C184.11,226.67,184.31,225.87,183.81,225.77Z"/><path class="cls-2" d="M130.81,237.07a23.59,23.59,0,0,1-3.8-7.6,18.9,18.9,0,0,1-.8-5.3c.1-.8.2-1.7.3-2.5,1.8-.8,3.5-1.6,5.3-2.4,2.1-.1,4.7,2.5,6.4.5,1.5-1.6-.6-5.7-1.4-7.1-2.2-4.1-6-7.2-9-10.7a.42.42,0,0,0-.6.6c2.3,2.6,14.2,14,9.2,16.3-2.9,1.3-6.2-2.1-9.2.2-5.1,4,.1,14.6,2.9,18.4C130.41,238,131.11,237.47,130.81,237.07Z"/><path class="cls-2" d="M102.31,169.87c-9.1.1-16.6-.9-23.6-7.2a.42.42,0,0,0-.6.6c7.2,6.5,14.8,7.6,24.2,7.4A.4.4,0,0,0,102.31,169.87Z"/><path class="cls-2" d="M82.41,147.27c-6.3-3-4-13.5-1.2-18.1.3-.5-.5-.9-.8-.4-3,5-5.2,16.1,1.6,19.3C82.41,148.27,82.91,147.47,82.41,147.27Z"/><path class="cls-2" d="M96.91,115.17c10.2-4.6,20.4,9.9,26.5,15.8,5.1,4.9,11,8.6,18.2,8.3a.45.45,0,0,0,0-.9c-12.5.6-19.2-10.6-27.4-18-4.5-4.1-11.5-8.8-17.8-6C96,114.57,96.41,115.37,96.91,115.17Z"/></g></g></svg>