<svg xmlns="http://www.w3.org/2000/svg" viewBox="0 0 295.44 264.99"><defs><style>.cls-1{fill:#38301f;}.cls-2{fill:#ca7529;}.cls-3{fill:#da9b38;}</style></defs><title>scronchee2</title><g id="Layer_2" data-name="Layer 2"><g id="scrunchie"><path class="cls-1" d="M219.65,123.47c-2.22-2.46-4.77-4.91-5.6-8.21-.67-2.7-.55-4.45,1.82-6.62.6-.55,1.5-.69,2.11-1.31,2.4-2.42,1-5.71-.31-8.43-1.51-3.21-4-6.16-7.81-6.42-4.4-.3-7.68,4.16-11.1,6.26-5.28,3.24-11.89,5.31-18,3.28-7.2-2.4-10.14-8.25-9.47-15.45.95-10.2-5.36-13.51-14.66-13.91A1.77,1.77,0,0,0,155,74.89,56.78,56.78,0,0,0,162,88c3.22,4.39,8.72,8.52,9.1,14.31.41,6.41-5.32,9-7.33,14.27-1.13,3-.74,6,1.62,8.25V122.3c-3,3.19-7.51,1.47-9-2.36-.87-2.26,0-4.32-.36-6.61s-1.6-4.3-4-4.39c-6.24-.22-3.29,10.38-1.62,13.22a15.24,15.24,0,0,0,7.17,6.29c1.49.63,3.08.94,4.6,1.48,2.21.8,2.29.76,3.05,3.32.81,2.75.15,3.48-1.18,5.75-2.63,4.49-4.32,12,3,12.75L165.27,150c-.18,3.71-4.82,5.63-5.41,9.35-.51,3.14,1.37,5.17,3.28,7.38,3.08,3.56,1.47,7.88-3.34,8-2,.06-3.94-.62-5.89.05-4.42,1.51-2.47,6.38-5.68,8.67a1.78,1.78,0,0,0-.35,2.76c3.34,3.12,7,6.19,11.38,2.91,1.87-1.41,3-3.53,4.5-5.27,3.67-4.25,6.62-1.87,10.26.84,2.82,2.1,7,4.95,9.68.93,1.16-1.79.74-3.81.46-5.76-.86-6.21,2.16-10.4,8.15-12.07,5.17-1.45,11-.05,13.5-6.06,2.89-7.08-2.57-16.18,3.49-22.27,4.08-4.1,6.64-.49,11-.6a4.91,4.91,0,0,0,4.18-2.14c2.63-4.35-2.18-10.26-4.79-13.27-1.49-1.72-4,.78-2.49,2.49a22.74,22.74,0,0,1,3.27,4.46,2.69,2.69,0,0,1,.36,3.62c-.14,1.6-.95,1.88-2.44.86-2.24-.19-3.46-1.37-5.93-1-3.74.61-6.78,3.65-8.24,7-2.35,5.42-.59,11-1.06,16.61-.45,5.45-4.61,5.62-9.1,6.32a19.76,19.76,0,0,0-6.5,2,13.44,13.44,0,0,0-7.13,9.33c-.37,2.18,1.22,8.63-2.66,7.85-1.75-.35-4-3.22-5.7-4.15a7.68,7.68,0,0,0-8.45.25,19.39,19.39,0,0,0-4,4.33c-.67.85-1.84,2.9-2.93,3.16-2.37.57-4.79-1.49-6.34-2.93l-.35,2.77a7.36,7.36,0,0,0,2.88-3.52c.94-2.46-.27-4.05,4.13-5,1.25-.26,2.76.33,4.07.16,3.4-.42,6.95-2.76,7.68-6.27.86-4.09-2.24-6-4.29-8.95-3.19-4.59,4.07-8.07,4.31-13a1.8,1.8,0,0,0-1.76-1.76c-5.05-.5,1.91-10.39,2.41-12.42a7,7,0,0,0-1.13-6.16c-4.1-5.22-11.74-3.11-15.24-9.85a12.54,12.54,0,0,1-1.18-3.41q-.84-3.44.22-1.7c.39,1.18.16,2.41.31,3.76a10.83,10.83,0,0,0,3.24,6.83,8.62,8.62,0,0,0,12.19-.49,1.79,1.79,0,0,0,0-2.49c-4.21-3.93,3.9-9.77,5.53-13.47a14.26,14.26,0,0,0,0-11.45c-1.41-3.25-3.92-5.8-6.17-8.46a53.15,53.15,0,0,1-8.86-15l-1.7,2.23c2.63.11,5.66.19,8,1.47,3.94,2.13,3.33,6,3,9.75-.36,4.39.27,8.16,3,11.72,5,6.49,13.62,8.4,21.32,6.38A35,35,0,0,0,204.52,99a19.61,19.61,0,0,1,2.39-1.91c2.84-1.48,5.66-.19,7.13,2.39,1.93,3.42.81,4.55-1.34,7.16-5.7,6.92-.52,13.83,4.46,19.34C218.68,127.64,221.16,125.15,219.65,123.47Z"/><path class="cls-2" d="M287.18,106.84c.57-1.55,2-2.62,3.08-3.84,6.35-7,3-18.5-3.11-25.64s-14.63-12.16-20-19.92c-1.77-2.57-3.26-5.5-5.91-7.16-3.16-2-7.25-1.69-10.7-3.11C242.72,44,240.23,33.08,232.36,30c-4.49-1.79-10.52-1-13.19-5-1.48-2.24-1.26-5.2-2.3-7.67C215,12.87,209.76,11.05,205,10.8s-9.6.53-14.15-.79C186,8.6,182.13,5,177.5,3s-11.2-1.68-13.37,2.88c-.93,1.93-.94,4.39-2.56,5.8-1.47,1.28-3.65,1.13-5.54,1.6-7.58,1.88-8.43,12-8.93,19.84a5.62,5.62,0,0,1-1.28,3.82c-2.41,2.27-6-.73-8.39-3-3.41-3.27-9.32-5.24-12.6-1.84-1.77,1.84-2.25,4.82-4.43,6.14-1.35.82-3.05.79-4.51,1.4-7.06,3-1.65,14.76-6.11,21-1.44,2-3.75,3.14-5.63,4.73-6.39,5.38-6.58,16.52-.38,22.12,1.3,1.17,2.91,2.29,3.2,4,.36,2.19-1.75,4.11-3.92,4.56s-4.41-.09-6.63-.24C85,94.94,74.52,106.9,76.84,118.14c.55,2.65,1.18,6.32-1.35,7.28-1.91.72-4-1-6-.61-2.6.52-3.3,4.05-5.54,5.48-2.73,1.74-6.18-.29-9.18-1.54-9-3.75-19.74.29-26.48,7.31S18,152.53,15,161.8a50.44,50.44,0,0,1-4.3,10.69c-1.51,2.52-3.47,4.73-5,7.2-8.37,13.13-2.84,33,11.11,39.89C27.72,225,42.85,223.85,49.54,234c5.35-2.46,12.68-3.82,15.08,1.31.83,1.77.73,3.91,1.82,5.53,3.22,4.8,10.57-.32,16.33.12,4.32.33,7.52,3.94,10.89,6.67s8.61,4.62,11.77,1.65c2.28-2.15,2.68-6.27,5.65-7.26,3.45-1.16,6.11,2.93,9,5.18,5.86,4.63,14.84,1.69,21.54,5,4.65,2.28,7.53,7.23,12.14,9.57,6.83,3.47,15,.26,22-2.94s14.79-7.47,16.15-15c.38-2.07.21-4.24.87-6.24s2.6-3.85,4.65-3.37a6.85,6.85,0,0,1,3,2.2c5.83,5.8,15.89,7.54,22.52,2.67,2.12-1.56,3.81-3.66,6-5.16,2.46-1.71,5.39-2.54,8.22-3.52a79.46,79.46,0,0,0,41-32.41c1.27-2,2.49-4.23,2.38-6.6-.21-4.65-5.27-7.79-6.1-12.37-1.13-6.18,5.56-13.33,1.42-18.05-1.27-1.45-3.23-2.06-4.78-3.21s-2.67-3.45-1.45-4.94,3.67-.87,5.64-.56c8.38,1.32,15.46-7.35,16.33-15.79s-2.36-16.67-4.27-24.93A8.19,8.19,0,0,1,287.18,106.84Zm-64.26,29c-.71,1.19-2.36,1.45-3.71,1.14s-2.59-1-3.94-1.31c-4-.87-7.93,2.2-9.48,5.94s-1.3,8-1,12c.3,3.8.26,8.37-2.93,10.46-1.84,1.21-4.19,1.17-6.38,1.37A17.24,17.24,0,0,0,186,169a10.53,10.53,0,0,0-3.94,9.1,35.71,35.71,0,0,1,.77,4.43c0,1.5-.85,3.18-2.34,3.4a3.52,3.52,0,0,1-2-.42c-4.12-1.93-7.37-7-11.8-6-5.07,1.17-6.64,9.72-11.83,9.27-2.35-.21-3.9-2.29-5.73-3.88a1.88,1.88,0,0,1-2.26-.19,1.88,1.88,0,0,0,2.26.19,8.13,8.13,0,0,0-2.32-1.51,8.7,8.7,0,0,0-6.11.42c-9.05,3.38-15.93,12.57-25.59,12.88-5.08.16-10-2.32-13.72-5.73s-6.58-7.72-9.36-12c2.78,4.26,5.59,8.56,9.36,12s8.64,5.89,13.72,5.73c9.66-.31,16.54-9.5,25.59-12.88a8.7,8.7,0,0,1,6.11-.42,8.13,8.13,0,0,1,2.32,1.51,4.37,4.37,0,0,0,2.07-2.47c.58-1.87.57-4.12,2.07-5.39,1.72-1.46,4.29-.71,6.54-.62,3.86.14,8.14-3.11,7.3-6.88-.8-3.58-5.61-5.55-5.62-9.22,0-4,5.89-6.39,5.55-10.42-2.37.25-4.1-2.56-3.81-4.93s1.83-4.36,3.08-6.4,2.25-4.55,1.34-6.76c-1.38-3.34-5.84-3.69-9.22-5a13.56,13.56,0,0,1-8.34-14.11,2.78,2.78,0,0,1,.78-1.8c1.07-.91,2.82.09,3.26,1.42s.09,2.77,0,4.17a9,9,0,0,0,3.87,8.24c2.71,1.69,6.71,1.25,8.62-1.31-2.25-1.53-2.1-5-.74-7.39s3.58-4.12,5.06-6.42a12.38,12.38,0,0,0,1.3-10.53c-1.26-3.73-4.21-6.58-6.74-9.6a52.07,52.07,0,0,1-8.84-15.18c4.69.14,10.29.84,12.35,5,1.67,3.39.14,7.43.28,11.21.29,7.51,7.7,13.36,15.19,13.86s14.71-3.23,20.42-8.1a9.93,9.93,0,0,1,3-2c2.14-.73,4.57.3,6.11,2a16.61,16.61,0,0,1,3.14,6c.39,1.08.75,2.36.11,3.31a5.69,5.69,0,0,1-2.27,1.47c-3,1.66-3.76,5.93-2.6,9.2s3.71,5.81,6,8.39,4.55,5.54,4.86,9A3.55,3.55,0,0,1,222.92,135.86Z"/><path class="cls-1" d="M288.7,107.73c2.29-4.36,5.76-6.25,6.55-11.53a23,23,0,0,0-2-12.36C289,74,279.5,68.53,272.39,61c-3.53-3.72-5.77-9.5-10.24-12.26-5-3.07-10.74-1.85-15.18-6.23-6.23-6.15-8.71-13.37-18.06-15.32-3.45-.72-6.54-.82-8.44-4.14-1.4-2.45-1.17-5.41-2.67-7.85-2.07-3.37-6-5.11-9.7-5.82-5.53-1-11.32.52-16.76-1.09S182,2.47,176.78.8c-3.53-1.13-8-1.24-11.18.85a8.68,8.68,0,0,0-3,3.29c-.28.51-.36,1.12-.65,1.63A6.15,6.15,0,0,1,158.49,11c-1,.13-2,.3-2.93.49-7.33,2.07-9.1,10-9.83,16.66-.28,2.58.2,7.79-3.43,7.19-2.18-.36-4.16-3.46-6.06-4.66-3-1.87-6.91-3-10.28-1.55a8.32,8.32,0,0,0-3.44,3c-2,2.77-2.07,4.1-5.58,5.27-3.2,1.07-5.34,2.64-6.26,6-1.11,4.09-.09,8.43-1,12.55-1.14,5.35-6.74,6.85-9.54,11.14-4,6.19-3.53,15.1,1.48,20.61,1.29,1.42,6.27,4.5-.24,6.62-.82.26-2.41-.19-3.32-.26a22.06,22.06,0,0,0-7.51.44A22.24,22.24,0,0,0,75,112.27a19.31,19.31,0,0,0,0,5c.15,1.2,1,3.44.65,4.56-.89,3.09-2.68,1.48-4.39,1.29-3.86-.43-4.67,2.06-7,4.46-2.88,3-5.7.69-8.92-.5a21.87,21.87,0,0,0-7.45-1.49c-9.14-.14-17.62,5-23.16,12a60.4,60.4,0,0,0-8.63,16c-2.49,6.49-3.86,13.58-7.74,19.45C5.16,177.79,2,181.64.7,187.27a31.42,31.42,0,0,0,0,13.34c2,9.17,8,17.29,16.58,21.14,9.87,4.4,23.88,3.6,30.71,13.16a1.84,1.84,0,0,0,2.41.63c2.94-1.27,8.11-3.25,11.15-1.15,2.71,1.88,1.94,6.34,4.37,8.6,3.68,3.43,9.26.77,13.42,0,8.22-1.49,11.9,7.2,19.15,9.13a9.19,9.19,0,0,0,5.68-.09c2.94-1.12,3.26-3.15,5-5.38.29-.36.48-1.33.88-1.57,1.49-.92,4.65,0,5.86.76,1,.66,1.85,1.85,2.83,2.61a16.35,16.35,0,0,0,7.71,3.09c2.75.42,5.53.42,8.29.72,4.89.53,8.13,2.58,11.63,5.92,4.59,4.37,9.23,7.32,15.82,6.7s13.46-3.8,19.3-7c4.62-2.55,9.26-6,11.26-11.06a15.53,15.53,0,0,0,.8-3c.45-2.55.07-7.1,3.16-7.13,2.55,0,5.86,3.92,8.41,5.08a19.57,19.57,0,0,0,15.88.39c2.65-1.19,4.49-3.1,6.65-5,3.39-3,7.21-4.09,11.35-5.6a81.48,81.48,0,0,0,33.81-23.52c3.61-4.25,9.09-10.1,9.35-16,.29-6.68-7.31-10.07-5.86-17,1-5,4.76-10.74.71-15.32-.89-1-3.32-1.72-3.92-2.7l.2-1.64c-.37-1.6.1-2.07,1.41-1.43a8.35,8.35,0,0,1,1.78.19,14.06,14.06,0,0,0,8.06-2.47c5-3.35,8.09-9.31,8.72-15.21a38.6,38.6,0,0,0-1-12.11c-1.07-5.06-4.48-11.9-3.49-17,.43-2.21-3-3.16-3.39-.94-1.31,6.75,2.68,14.09,3.84,20.71,1.41,8.06.34,17.79-7.59,22.24-3.57,2-6.52.42-10.18.79a4.41,4.41,0,0,0-3.94,2.8c-2.16,5.79,6.73,7.24,7.72,11.42.67,2.8-1.54,6.47-2.22,9.14a13.11,13.11,0,0,0-.08,7.24c.77,2.44,2.55,4.29,3.87,6.42,2.81,4.52,1.12,7.93-1.59,11.94a77.57,77.57,0,0,1-35.72,28.56c-2.9,1.13-6,1.91-8.78,3.22s-4.92,3.39-7.32,5.46c-6.77,5.81-15.42,4.38-21.85-1.15-3.23-2.78-6.91-4.16-9.76.19-1.38,2.1-1.26,4.52-1.59,6.9-.63,4.58-3.27,7.82-6.95,10.4-6,4.21-14.49,8.47-21.89,8.81-8.63.4-11.72-6.78-18.36-10.45-5.53-3-11.79-1.68-17.68-3.22-4.91-1.28-8.12-8-13.44-7.68a6.43,6.43,0,0,0-4.9,3.21c-1.09,1.59-1.74,4.21-3.54,5.21-2.45,1.36-5.92-.26-7.92-1.61-5.34-3.6-8.73-8.5-15.86-7.53-1.79.24-3.52.78-5.28,1.17-2.72.6-4.42,1.27-6.16-1.2s-1.8-5.71-4.53-7.68c-4.41-3.19-10.67-1.11-15.13.82l2.41.63C40.55,218.43,18,225,7.93,209.09,3.08,201.41,1.88,191,6,182.77c2.24-4.53,5.92-8.08,8-12.73,2.21-5,3.49-10.38,5.46-15.48,4.12-10.69,10.7-21.48,22.46-24.69,5.63-1.53,9.86-.25,15.1,1.74,3.2,1.21,6.43,1.73,9.11-.81,2-1.85,1.93-4.18,5.38-4,1.42.06,2.45.75,3.92.45,3.23-.68,3.85-3.75,3.63-6.64-.36-4.92-1.2-8.69,1.26-13.34,2.71-5.11,7.84-9.09,13.67-9.67,4.15-.41,8.76,1.54,12.42-1.24a5.37,5.37,0,0,0,1.69-7c-.91-1.68-2.69-2.67-3.92-4.06a12.79,12.79,0,0,1-3-6.77c-1-6.94,2.66-10.26,7.45-14.37,6.2-5.34,3.87-11.58,5.25-18.73,1-5.4,6.56-4,9.51-7.76,1.54-2,1.78-3.94,4.27-5,3.83-1.63,6.71,1.09,9.49,3.35,5.46,4.43,11,4.59,11.77-3.52.38-4.28.49-8.86,2.37-12.81a8.37,8.37,0,0,1,5.23-4.74c2-.66,4.2-.4,6-1.78,4-3.13,1.88-9.12,8.7-9.6,5.65-.41,10,3.75,14.67,6.21a25.64,25.64,0,0,0,12,2.81c5.91.08,14.36-1.06,17.33,5.55,2,4.37,1.24,8.37,6.12,10.77s10,1.37,14.2,5.24c3.33,3,5.42,7.2,8.54,10.45,3.34,3.49,6.81,4.66,11.48,5.63,7.23,1.51,9.26,7.78,13.82,12.72,3.91,4.25,8.55,7.74,12.72,11.72,4.48,4.26,8.24,9.17,9.46,15.37a14.23,14.23,0,0,1-1.19,9.87c-1.3,2.27-3.48,3.74-4.7,6.06C284.6,108,287.64,109.74,288.7,107.73Z"/><path class="cls-1" d="M221.67,134.61c-1.82,1.92-5.41-.81-7.72-.83a9.48,9.48,0,0,0-5.2,1.65c-3.85,2.49-5.51,6.8-5.86,11.22-.24,3,.27,5.94.25,8.92a14.26,14.26,0,0,1-.34,4.07c-1.11,3.67-4.16,3.46-7.31,4.05-4.7.89-9.08,1.83-12.32,5.7a12.57,12.57,0,0,0-2.72,5.37c-.56,2.68.57,4.74-1,7-1.82,2.59-2.23,1-4.47-.76-.63-.47-1.24-1-1.9-1.42a9.66,9.66,0,0,0-5.21-1.88c-3.39,0-5.61,2.45-7.56,4.91-.71.91-1.48,2.41-2.44,3.07-2.26,1.55-4.28.47-6.42-.94-.69-.45-1.07-1.14-1.85-1.45-.59-.23-1.25.25-1.84,0-2.05-.91-3.84,2.12-1.77,3a4.24,4.24,0,0,0,3.61.37c1.18-.29,1.84-2.12.77-2.95-8.2-6.38-17.45,2.58-24.35,7-5.9,3.81-12.12,5.73-18.75,2.28-6.14-3.21-10-9.26-13.72-14.89-1.23-1.89-4.28-.13-3,1.78,5.67,8.66,13,18.83,24.6,18.58,4.63-.1,8.89-2.25,12.69-4.72,4.69-3,14.18-12.18,20.09-7.59a1.82,1.82,0,0,0,2.13.28,7.36,7.36,0,0,0,2.88-3.52c.94-2.46-.27-4.05,4.13-5,1.25-.26,2.76.33,4.07.16,3.4-.42,6.95-2.76,7.68-6.27.86-4.09-2.24-6-4.29-8.95-3.19-4.59,4.07-8.07,4.31-13a1.8,1.8,0,0,0-1.76-1.76c-5.05-.5,1.91-10.39,2.41-12.42a7,7,0,0,0-1.13-6.16c-4.1-5.22-11.74-3.11-15.24-9.85a12.54,12.54,0,0,1-1.18-3.41q-.84-3.44.22-1.7c.39,1.18.16,2.41.31,3.76a10.83,10.83,0,0,0,3.24,6.83,8.62,8.62,0,0,0,12.19-.49,1.79,1.79,0,0,0,0-2.49c-4.21-3.93,3.9-9.77,5.53-13.47a14.26,14.26,0,0,0,0-11.45c-1.41-3.25-3.92-5.8-6.17-8.46a53.15,53.15,0,0,1-8.86-15l-1.7,2.23c2.85.12,6.51.15,8.84,2,3.27,2.61,2.4,6.35,2.13,10A15.3,15.3,0,0,0,171,99.48c6.11,7.47,16.37,8.23,24.82,4.72a35.49,35.49,0,0,0,6.09-3.3c1.6-1.07,4-3.91,5.79-4.44,3.74-1.13,6.48,2.05,7.28,5.06.51,1.91,0,2.8-1.39,4.45-1,1.14-2,1.78-2.67,3.25-1.57,3.54-.66,7.44,1.25,10.63,2.64,4.4,11,9.73,9.06,15.54-.71,2.16,2.69,3.08,3.39.93,1.41-4.29-1.35-8.52-4-11.72-2.07-2.51-4.82-4.79-6.15-7.81s-1.08-5.88,1.39-8.15c.77-.7,1.95-.84,2.63-1.74,2.16-2.89-.36-7.85-2.13-10.37-2.26-3.2-6.14-5.16-9.91-3.37-2.58,1.22-4.63,3.61-7,5.14A27.33,27.33,0,0,1,189,102.53c-7.42,1.18-16.42-2.58-17.77-10.72-.86-5.16,2-10.68-2-15.1-3.11-3.44-8.2-3.86-12.55-4A1.77,1.77,0,0,0,155,74.89,56.78,56.78,0,0,0,162,88c3.22,4.39,8.72,8.52,9.1,14.31.41,6.41-5.32,9-7.33,14.27-1.13,3-.74,6,1.62,8.25V122.3c-3,3.19-7.51,1.47-9-2.36-.87-2.26,0-4.32-.36-6.61s-1.6-4.3-4-4.39c-6.24-.22-3.29,10.38-1.62,13.22a15.24,15.24,0,0,0,7.17,6.29c1.49.63,3.08.94,4.6,1.48,2.21.8,2.29.76,3.05,3.32.81,2.75.15,3.48-1.18,5.75-2.63,4.49-4.32,12,3,12.75L165.27,150c-.18,3.71-4.82,5.63-5.41,9.35-.51,3.14,1.37,5.17,3.28,7.38,3.08,3.56,1.47,7.88-3.34,8-2,.06-3.94-.62-5.89.05-4.42,1.51-2.47,6.38-5.68,8.67l2.13.27c-8.2-6.38-17.45,2.58-24.35,7-5.9,3.81-12.12,5.73-18.75,2.28-6.14-3.21-10-9.26-13.72-14.89-1.23-1.89-4.28-.13-3,1.78,5.67,8.66,13,18.83,24.6,18.58,4.63-.1,8.89-2.25,12.69-4.72,4.69-3,14.18-12.18,20.09-7.59l.77-2.94h-.9c-2.05-.91-3.84,2.12-1.77,3s2.81,1,4.57,2.35a7.2,7.2,0,0,0,5.3,1.93c3.84-.4,5.66-4.11,7.91-6.73,5.38-6.28,9.43,2,14.73,3.56,3.43,1,5.89-1.49,6.06-4.86.2-4.22-1.84-7.51,1.58-11.26,2.88-3.17,7-3.78,11-4.23,5-.55,8.38-2.55,9.3-7.75,1.14-6.44-2.43-14.55,2.85-19.85,4.85-4.87,10.4,2.32,14.86-2.38C225.72,135.46,223.24,133,221.67,134.61Z"/><path class="cls-3" d="M173.4,66.41c-2.62-2.09-2.76-6.11-1.73-9.31s2.94-6.08,3.74-9.35c1-4.22.08-8.66-1-12.87-2.08-7.82-4.74-15.46-7.39-23.1,9.15,3.07,15.22,13.39,13.46,22.88A45.87,45.87,0,0,1,177.66,43c-3.09,7.76-5.7,16.35-3.34,24.37"/><path class="cls-1" d="M174,65.79c-4.43-4.44-.69-10,1.14-14.64a20.27,20.27,0,0,0,1.26-11C175,30.41,171,20.8,167.83,11.54l-1.08,1.09c11.18,4.23,15.26,16.1,11.35,26.85-3.37,9.28-7.12,18.12-4.62,28.12a.88.88,0,0,0,1.69-.47c-1.9-7.62,0-15,2.68-22.22,1.94-5.14,4.24-10.08,3.66-15.71a22.14,22.14,0,0,0-14.29-18.27A.89.89,0,0,0,166.13,12c1.84,5.29,3.68,10.58,5.32,15.93,1.86,6.06,4.64,13.2,3.11,19.58S166.79,61,172.78,67A.88.88,0,0,0,174,65.79Z"/><path class="cls-1" d="M224.63,86.85c2.48,2,4.94,2,8,2.12,5.69.31,10.56,3,16.12,3.87,3.25.48,6.76.26,9.56-1.63s4.87-8.85,7.42-9.08c2.36-.2,5,3.57,6.76,5.14q3.14,2.88,6.41,5.61c1,.8,2.18,1.28,2.06,2.54s-2.21,1.79-3.37,2.13a42.18,42.18,0,0,1-7.07,1c-6.89.77-12.67,2.9-15.12,9.92-.37,1.07,1.33,1.54,1.7.47,4.29-12.32,19-5.46,26.72-13.12a.89.89,0,0,0,0-1.25c-5.37-4.3-10.09-9.75-15.57-13.82-2.29-1.69-3.67-1.89-5.31.53s-2.23,5.46-4.54,7.55c-4,3.58-9.39,2.47-14,1.08a64.53,64.53,0,0,0-8.5-2.47c-3.26-.51-7.31.36-10.1-1.88-.88-.71-2.13.53-1.25,1.24Z"/><path class="cls-3" d="M210.33,164c3.61-.1,7,1.82,9.64,4.31s4.6,5.56,6.8,8.43A68.06,68.06,0,0,0,241,190.5c.73.52,1.86,1,2.4.27a1.75,1.75,0,0,0,.08-1.49c-1.17-4.35-3.52-8.27-5.84-12.12l-11.21-18.67c-1-1.63-2.19-3.43-4.07-3.76,0,3.56,1.71,6.87,3.35,10l6.55,12.62a161.15,161.15,0,0,0-15.48-16.52c-1.36-1.26-3.32-2.56-4.9-1.59-1.89,1.18-1,4.07-1.4,6.26"/><path class="cls-1" d="M210.33,164.86c10,.51,14.95,12.32,21.24,18.73,1.53,1.55,9.76,11,12.52,7.71,1.17-1.42-.39-4.28-.9-5.54a83.89,83.89,0,0,0-6.32-11.59l-8.16-13.58c-1.69-2.8-3-5.49-6.12-6.71a.89.89,0,0,0-1.12.85c.68,8.19,6.32,15.94,10,23.09l1.39-1.07c-3-3.59-6-7.08-9.26-10.42-2.43-2.52-5.39-6.59-8.77-7.87-5.2-2-4.91,3.75-5.26,7.06-.11,1.12,1.65,1.11,1.76,0a12,12,0,0,1,.13-2.34l0-1.17,4.65-.53c1.73.54,4.41,4.23,5.62,5.47,3.45,3.53,6.72,7.23,9.86,11,.66.81,1.82-.22,1.38-1.06-3.51-6.76-9.14-14.52-9.78-22.2l-1.11.85c3.57,1.38,5.75,7,7.62,10.14l6.12,10.18A91.17,91.17,0,0,1,241,185c.56,1.25,2.89,4.56.47,4.74-1,.08-4.65-3.67-5.62-4.54-4.88-4.4-8.48-9.63-12.63-14.67-3.38-4.12-7.39-7.15-12.85-7.43-1.13-.06-1.13,1.7,0,1.76Z"/><path class="cls-3" d="M235.85,209.55a9.79,9.79,0,0,0,13.41-1.74,14.27,14.27,0,0,0,2.38-8.21c.36-13.2-8.23-25-10.37-38a3.4,3.4,0,0,1,.32-2.61,2.35,2.35,0,0,1,3-.36,6.14,6.14,0,0,1,2.1,2.46,76.43,76.43,0,0,1,4.85,11.22c3.66,9.86,7.36,19.88,8.25,30.36a10.91,10.91,0,0,1-.47,5.12,10.09,10.09,0,0,1-3.58,4,32.75,32.75,0,0,1-15.44,6,34.53,34.53,0,0,0-6,.85c-7.19,2.13-11.26,10.9-18.67,12-4.19.62-8.35-1.48-11.51-4.3-4.65-4.14-7.68-9.75-10.51-15.3-3-5.88-5.92-12.06-6.06-18.66,0-2.58.53-5.5,2.7-6.9a6,6,0,0,1,5.91.05,14,14,0,0,1,4.44,4.24,42.34,42.34,0,0,1,3.47,5.59c1,1.89,1.47,4.79-.48,5.62-1.31.54-2.74-.37-3.86-1.23L190,192.28c1.33,9.55,7,17.89,13,25.45,2.06,2.61,4.26,5.24,7.19,6.81s6.78,1.87,9.43-.12c3.55-2.67,3.82-8.31,7.46-10.86,2.23-1.56,5.16-1.55,7.88-1.49"/><path class="cls-1" d="M235.4,210.31a10.89,10.89,0,0,0,12.63-.06c4.69-3.51,4.88-10.26,4.23-15.54-.91-7.49-4.11-14.43-6.71-21.44-1.19-3.19-4.3-9.05-2-11.84,1.87-2.22,1-1.47,2.3.07a15.42,15.42,0,0,1,1.59,3.11c1.21,2.57,2.18,5.25,3.17,7.9,3.23,8.65,6.45,17.4,7.78,26.57.52,3.61.86,7-1.28,10.28-1.13,1.73-3.62,2.89-5.44,3.86-4.73,2.53-9.26,3.24-14.48,4-5.73.8-9.13,4-13.33,7.63-3.33,2.91-6.62,5.48-11.31,4.84-5.78-.8-10.1-5.62-13.23-10.18-5.17-7.52-11.87-19-11-28.41l.87-3.31,5.14-1.95c2.13.36,4.22,2.94,5.43,4.55s3.83,4.71,3.78,6.83l.37,1.38-3.88.42c-1.17-.35-2.52-1.94-3.46-2.67l-6.24-4.8c-.68-.52-1.4.34-1.29,1a47.33,47.33,0,0,0,8,18.77C200.32,216,204,221.86,209,224.87c3.36,2,7.89,2.71,11.2.17a13.63,13.63,0,0,0,3.57-5.09,34,34,0,0,1,1.67-3.3c2.23-3.45,5.73-3.75,9.48-3.7a.88.88,0,0,0,0-1.76c-3.85-.05-7.61.23-10.19,3.4-3.78,4.64-4.4,12.85-12.9,9.66-6-2.25-10.31-9.46-13.67-14.56a45.68,45.68,0,0,1-7.33-17.64l-1.29,1c2.16,1.67,15.73,14.74,16.23,5.53.18-3.36-2.7-6.93-4.59-9.42-2.27-3-5.67-6.2-9.8-5.11-8.42,2.21-3.79,15.85-1.72,20.8,3.72,8.91,8.93,20.26,17.9,25,8.2,4.35,14-.74,20-6,2.09-1.83,4.25-3.61,7-4.43,2.47-.75,5.14-.65,7.67-1.09a32.88,32.88,0,0,0,14.17-6c7.91-6.05,3.33-18.31.93-26.26-1.78-5.86-3.9-11.64-6.13-17.34-1.24-3.16-2.82-9.24-6.12-10.93-9.1-4.65-1,16.45-.27,18.25,2.5,6.53,5.4,13.17,5.93,20.24.3,4,.18,8.8-2.86,11.8s-8,3-11.52.66c-.94-.64-1.82.88-.89,1.52Z"/><path class="cls-3" d="M145.91,188.1c-2.49,3.2-1.77,8,.38,11.42s5.44,6,8.32,8.83a46.61,46.61,0,0,1,6.72,8.43,14.07,14.07,0,0,1,2.55,7l-5.08-12.1c-1.46-3.48-3-7.31-1.87-10.92a8.72,8.72,0,0,0,.66-2.67,4.33,4.33,0,0,0-2.64-3.44c-1.36-.68-2.88-1-4.26-1.63a9.24,9.24,0,0,1-4.83-5.51"/><path class="cls-1" d="M145.15,187.65c-2.86,4.5-1.64,9.65,1.37,13.74,5.4,7.33,15.46,12.42,16.48,22.39l1.73-.23c-1.7-4-3.44-8.05-5.09-12.11a25.62,25.62,0,0,1-1.93-6.08c-.36-2.55.8-4.64.73-7a4.83,4.83,0,0,0-1.89-3.69c-3.48-2.95-7.7-2.2-9.84-7.37-.43-1-2.14-.57-1.7.47a11.07,11.07,0,0,0,3.93,5.29c1.35.93,3.05,1,4.37,1.89,5,3.23,2.83,3.85,2.44,7.28-.79,7.12,4.64,15.53,7.28,21.82.34.81,1.84.85,1.73-.24-.59-5.73-4.45-10.66-8.27-14.76-5-5.32-15.19-12-9.82-20.48.61-1-.92-1.84-1.52-.89Z"/><path class="cls-3" d="M80.71,222c-1.3-6-2.31-12.11-3-18.23-1-8.85-1.41-18.23,2.5-26.25,2.15,4.11,2.29,9,1.94,13.59S81,200.34,81.45,205C82,210,84,214.91,84.17,220c0,1.53-.58,3.54-2.12,3.51-1.23,0-1.93-1.38-2.35-2.54"/><path class="cls-1" d="M81.56,221.74c-2.9-13.78-6.67-30.38-.64-43.8H79.41c3.49,7.66,1,15.55,1,23.55a38.93,38.93,0,0,0,1.09,8.73c.31,1.39.69,2.76,1,4.16a33,33,0,0,1,.69,4q1,3-2.72,2.22c-.47-1-2-.13-1.52.89.82,1.84,2.52,4,4.72,2.4,2.88-2.14,1-8,.35-10.76a63.29,63.29,0,0,1-1.17-20.26c.47-5.52.41-10.66-1.92-15.77a.88.88,0,0,0-1.51,0c-6.28,13.95-2.56,30.81.45,45.16.23,1.1,1.93.64,1.7-.47Z"/><path class="cls-3" d="M128.7,104.79a20.8,20.8,0,0,1-17.29-8.89c-.43-.62-.8-1.51-.28-2.05s1.53-.14,2.21.31a31,31,0,0,0,11.25,4.47c1.74.31,4.22-.11,4.23-1.87a2.68,2.68,0,0,0-.58-1.49c-1.53-2.25-4-3.62-6.48-4.81s-5-2.31-6.9-4.28-2.92-5-1.68-7.47a1.91,1.91,0,0,1,.82-.91,2.32,2.32,0,0,1,1.92.25c6.06,2.85,10.56,8.19,14.44,13.65s7.39,11.28,12.32,15.81a14.08,14.08,0,0,1-14.16-3"/><path class="cls-1" d="M128.7,103.91a20.45,20.45,0,0,1-14.87-6.38c-3.29-3.55-.1-2,2.09-.89a32.52,32.52,0,0,0,5.89,2.25c3.59,1,10.62.53,6.64-4.77-2.25-3-6.06-4.11-9.19-5.87-1.79-1-4.09-2.12-4.67-4.28q-2.09-1.89.68-3c.63-1.49,1.37-1.84,2.24-1,2.21.41,4.89,3.64,6.37,5.17,6.83,7.09,11.05,16.2,18.18,23.06l.39-1.47a13.61,13.61,0,0,1-13.31-2.72c-.85-.73-2.1.51-1.24,1.24a15.44,15.44,0,0,0,15,3.18.89.89,0,0,0,.39-1.47c-6.76-6.5-10.9-15-17.13-21.93-2.2-2.44-10.3-11.35-13.63-6.87-3.58,4.84,2.91,10.16,6.56,12a46.48,46.48,0,0,1,5.79,3.08l1.88,1.61-1.08,3c-.77.4-3.38-.62-4.26-.88-3.37-1-7-4.73-10.54-4a.88.88,0,0,0-.62.62c-.69,3.18,2.88,6,5.18,7.7a22.34,22.34,0,0,0,13.24,4.35.88.88,0,0,0,0-1.76Z"/><path class="cls-3" d="M143.19,160.49c-7.26-.62-14.35,2-21.36,3.93s-14.77,3.27-21.39.24a18,18,0,0,1-9.58-10.92c4.38,1.69,7.94,5.34,12.53,6.34,5.75,1.26,11.42-1.9,16.86-4.14,10.67-4.4,23.65-5.27,33.18,1.23a19.14,19.14,0,0,1-9.85,3.39"/><path class="cls-1" d="M143.19,159.61c-16.2-.82-43.24,17-51.48-6.1l-1.29,1c4.33,1.91,8,5.37,12.73,6.43s9.22-.69,13.42-2.46c11.85-5,24.81-7.93,36.42-.54v-1.52a20.5,20.5,0,0,1-9.41,3.27c-1.12.11-1.13,1.87,0,1.76a22.24,22.24,0,0,0,10.3-3.51.9.9,0,0,0,0-1.52c-8.14-5.18-17.85-5.8-27.07-3.54-5.56,1.36-10.46,4.4-16,5.85C102.67,160.88,98.18,156,91.3,153c-.62-.27-1.57.2-1.29,1a19.67,19.67,0,0,0,18.47,13.34c12,.44,22.71-6.56,34.71-5.95,1.13.06,1.13-1.7,0-1.76Z"/><path class="cls-1" d="M149.58,132.43c-2.49-4.21-5.1-8.54-6.38-13.3-1.57-5.85-.26-11.1,1.13-16.8,2.06-8.47.28-15.8-1.59-24.13-1.21-5.35-2-10.69-.54-16.08,1.2-4.61,3.71-8.79,6-12.94,4.18-7.67,6.81-15.48,7.2-24.26,0-.56-.85-.56-.88,0C154,36.5,148.91,45,144,55.14c-3.77,7.76-4,15-2.1,23.29C143,83.57,144.6,88.69,144.62,94s-2,10.21-2.84,15.4c-1.33,8.7,2.75,16.23,7,23.47a.44.44,0,0,0,.76-.44Z"/><path class="cls-1" d="M159.44,68a19,19,0,0,1,.65-6.37c.76-2.1,2.3-3.69,3.38-5.6a36.83,36.83,0,0,0,3.22-9.18c.13-.55-.72-.79-.85-.24a41.8,41.8,0,0,1-5.38,12.33c-1.72,2.82-1.9,5.83-1.9,9.06a.44.44,0,0,0,.88,0Z"/><path class="cls-1" d="M200.77,80.69c.19-4.49.49-10.32,4.8-13,3.23-2,6.75-.71,10.15-1.54,4.36-1.07,6.87-5.12,7.59-9.36.83-4.82-1.37-7.78-4.45-11.18a39.28,39.28,0,0,1-6.23-9c-.18-.36-6.38-15.5-.56-13.61.54.17.78-.68.24-.85-4.4-1.43-4,3.84-3.43,6.55,1.56,7.05,5.22,12.71,9.86,18.08,4.1,4.76,5.56,12,.3,16.7-3.8,3.39-8.52,1-12.72,2.84-5.58,2.39-6.21,9.1-6.43,14.38,0,.57.85.56.88,0Z"/><path class="cls-1" d="M256.38,140.74c1.67-2.8,2.77-5.86,4.37-8.69,2-3.46,4.95-4.94,7.56-7.64,3.47-3.59,3.71-8.9,3.85-13.6,0-.56-.86-.56-.88,0-.09,3.25-.19,6.6-1.51,9.62-1.47,3.38-4.16,4.63-6.65,7-3.67,3.48-5,8.63-7.5,12.87a.44.44,0,0,0,.76.45Z"/><path class="cls-1" d="M233.31,198.2c-10.43-3.19-23.94-12.66-24.89-24.38,0-.56-.92-.56-.88,0,1,12.22,14.71,21.92,25.54,25.23.54.17.77-.68.23-.85Z"/><path class="cls-1" d="M184,225.87c-12.88-2.75-11.7-19.61-18-28.57-.32-.46-1.09,0-.76.45,6.42,9.09,5.23,26.12,18.55,29,.55.12.79-.73.23-.85Z"/><path class="cls-1" d="M131,237.15a24.28,24.28,0,0,1-3.8-7.55,18.29,18.29,0,0,1-.79-5.3l.27-2.5,5.27-2.39c2.07-.07,4.65,2.46,6.42.5,1.46-1.62-.56-5.65-1.37-7.15-2.24-4.13-6-7.21-9.05-10.72-.37-.43-1,.2-.62.62,2.27,2.63,14.23,14.05,9.19,16.27-2.89,1.28-6.22-2.08-9.17.24-5.12,4,.14,14.64,2.89,18.43.33.45,1.09,0,.76-.45Z"/><path class="cls-1" d="M102.46,170c-9.11.15-16.59-.86-23.57-7.15-.42-.38-1,.24-.63.62,7.19,6.48,14.78,7.56,24.2,7.41a.44.44,0,0,0,0-.88Z"/><path class="cls-1" d="M82.57,147.35c-6.31-2.95-4-13.51-1.24-18,.3-.48-.46-.93-.76-.44-3,5-5.21,16.09,1.56,19.25.51.24,1-.52.44-.76Z"/><path class="cls-1" d="M97.13,115.26c10.24-4.64,20.4,9.95,26.47,15.81,5.05,4.88,11,8.64,18.24,8.28.57,0,.57-.91,0-.88-12.46.62-19.16-10.61-27.37-18-4.54-4.06-11.54-8.84-17.78-6-.52.23-.07,1,.44.76Z"/><path class="cls-1" d="M61.25,210.66c-1.11-4.48-2.23-9-2.26-13.69,0-5.24,1.77-9.15,4.24-13.59,3.33-6,3.74-11.21,1.85-17.88a.44.44,0,0,0-.74-.2c-4.16,5.14-8.06,10.76-12.71,15.47-7.31,7.4-15.52,3.44-20.18-4.45a.44.44,0,0,0-.76.45c2.9,4.89,7.78,10,14.05,9.08,6.59-1,10.88-8.39,14.69-13.09.58-.72,3.56-5.35,4.31-5.32,2.21.09,1.89,4.81,1.77,6.76-.35,5.51-4,9.28-5.9,14.17-2.87,7.29-1,15.21.79,22.52.13.55,1,.32.85-.23Z"/><path class="cls-1" d="M43.58,151.55c0-12.05,9.28-4.89,12.8-.71,1.72,2,3.31,4.27,5.69,5.62,3,1.68,6.62,1.39,7.37-2.4.11-.55-.74-.79-.85-.23q-3.15,4.42-6.69,1.51a16.5,16.5,0,0,1-3-2.86c-1.32-1.44-2.4-3.08-3.78-4.46-1.67-1.66-4.09-3.8-6.45-4.31-4.88-1.05-5.92,4.08-5.93,7.84a.44.44,0,0,0,.88,0Z"/></g></g></svg>