<svg xmlns="http://www.w3.org/2000/svg" viewBox="0 0 507.41 484.4"><defs><style>.cls-1{fill:#ad968a;}.cls-2{fill:#38301f;}.cls-3{fill:#f26633;}</style></defs><title>shell</title><g id="Layer_2" data-name="Layer 2"><g id="Layer_4" data-name="Layer 4"><path class="cls-1" d="M102.31,370.58a627.28,627.28,0,0,1,55.88,36.21c6.18,4.49,12.28,9.08,18.38,13.68,18.16,13.7,36.32,27.4,53.84,41.91,5.06,4.19,10.11,8.48,15.91,11.56,18.78,10,42.66,5.39,60.45-6.25s30.65-29.29,42.59-46.88c0,0,51.24-64,82.49-92a199,199,0,0,1,21.34-17.13c10.09-6.78,21.31-12.05,30.13-20.41a56.78,56.78,0,0,0,14.2-21.61,64.52,64.52,0,0,0,3.32-13.91c.48-3.66.68-7.35.89-11,.14-2.65-1.7-4.28-1.55-6.93.22-3.89,2.42-8.81,2.23-12.71-.7-14.21-8.22-26.64-12.55-40.26-2.49-7.84,0-16.51-2.94-24.92,0,0-1.28-6.33-5.17-10s-8.64-6.43-11.71-10.79c-6.84-9.72-3.65-24.79-12.32-32.92-5.4-5.06-13.79-5.68-19.44-10.44-8.77-7.4-8.18-22.15-17.1-29.37-8.72-7.05-23-3.9-31.11-11.62-6.07-5.75-6.84-16-13.79-20.62-9.62-6.43-23.62,2.36-33.88-3-6.58-3.43-9.33-11.57-15.39-15.85-8.11-5.72-19.44-2.87-28.17,1.84-3,1.64-6.37,3.53-9.71,2.68-3.07-.78-5.06-3.63-7.21-6a28.76,28.76,0,0,0-30.43-7.29c-7.53,2.8-14.05,8.86-22.07,9.17-10.72.42-20.75-9.68-31-6.43-8.9,2.83-12.21,14.18-20.36,18.74-11.1,6.23-26.46-2.36-37.27,4.35-6.7,4.17-9.07,12.72-14.3,18.63a24,24,0,0,1-14.14,7.75c-4.19.66-8.6.21-12.58,1.67C91,63.72,88.05,74.23,84.56,82.88S72.64,100.77,64,97.27l2.46.55a19.27,19.27,0,0,0-13.88,10.42c-4,8.23-1.83,18.82-7.14,26.27-4.63,6.48-13.64,8.63-18.36,15-8.55,11.61,1.33,29.85-6.69,41.83-2.57,3.84-6.68,6.44-9.27,10.26-4.14,6.11-3.72,14.22-2,21.4,1.23,5.17,3.07,10.41,2.33,15.67C11,242,9.57,245,8.36,248.06,5,256.52,3.3,266.26,7,274.57c1.77,4,4.69,7.4,6.13,11.51,2.27,6.44.6,13.59,1.63,20.34,2.31,15.17,17,24.77,30.36,32.39Z"/><path class="cls-2" d="M99.78,374.9c44.5,25.68,86,57.14,125.59,89.77,8.73,7.19,17.3,14.43,28.38,17.62,10,2.88,20.72,2.63,30.8.32,21.55-4.94,38.84-19.67,52.47-36.47,7.47-9.2,13.72-19.2,21.2-28.36q12.93-15.84,26.26-31.33c24.32-28.24,49.37-57.45,81.57-76.88,9.64-5.81,19.19-11.87,26.3-20.76a63.66,63.66,0,0,0,13.06-29.94c.82-5.19,2.21-11.75,1-16.94-.61-2.68-1.34-4.08-.71-7a69.87,69.87,0,0,0,1.51-7.15c1.21-10.7-3.83-21.84-7.74-31.51-2.14-5.3-4.91-10.91-5.65-16.62s0-11.7-1.14-17.49c-1.73-8.58-5.56-14.38-12.33-19.91-4-3.3-7.27-6.51-8.82-11.61-1.31-4.32-1.83-8.83-2.84-13.22-2.17-9.46-7-16.13-16-20-4.4-1.91-9.53-3.21-12.75-7-2.89-3.4-4.25-7.89-5.82-12-3.25-8.5-7.34-16-16.19-19.53-7.76-3.13-19.38-1.89-25.25-8.59s-6.46-16.44-15.06-21.16-18.13-.8-27.31-1.16c-10.28-.4-13.18-11.84-20.79-17-8.37-5.65-19.08-4.28-27.94-.63-2.35,1-4.55,2.17-6.82,3.3-3.56,1.78-4.91,1.51-7.48-1.26C284,8.92,280.75,5.78,276.4,3.63a33.88,33.88,0,0,0-27.64-1.27c-4.65,1.88-8.75,4.83-13.34,6.81-5,2.15-9.29,1.72-14.29-.07C212.51,6,203.91,1.23,194.75,5.48c-8.16,3.78-11,12.77-18.1,17.64-7.77,5.34-19.32.9-28.05,1.79-10.07,1-15.91,7.21-20.89,15.49-2.57,4.27-5,8.5-9.46,11.09-5.14,3-10.65,2.33-16.28,3.34-9.72,1.74-15.08,9.3-18.72,17.87-2.91,6.86-7.54,23.17-17.93,19.75l-2.66,9.64,2.46.55V93a24.74,24.74,0,0,0-15.85,10.91c-4,6.36-3.83,13.86-5.34,21-1.67,7.89-7,10.57-13.17,14.77-5.53,3.75-9.82,8.45-11.47,15.07-1.55,6.27-.84,12.75-.59,19.11.29,7.51-.41,13.14-5.93,18.61S3.63,203.23,3,211.15s2.69,15.16,3.49,23c.84,8.17-4.88,16.15-6.06,24.22A33.45,33.45,0,0,0,4.6,280.7c1.87,3.21,4,6.23,4.55,10,.68,4.33,0,8.81.35,13.18a34.9,34.9,0,0,0,7.17,18.89C27,336.34,44,343.88,58.59,352L99.78,374.9c5.64,3.12,10.68-5.51,5-8.64l-32.48-18C60.54,341.66,48.16,335.56,37,327.93c-5.36-3.66-10.66-8-14.06-13.65-4-6.61-3.26-13.31-3.57-20.71-.33-8.06-3.84-13.12-7.33-20.06-3.72-7.37-1.91-16,.85-23.32,2.83-7.55,4.48-13.46,2.77-21.55-1.52-7.23-4.66-15.07-1.42-22.32,2.78-6.19,9.54-9.48,12.28-15.94,2.31-5.44,2.41-11.41,2.16-17.24-.29-6.58-1.77-14.84,2.39-20.55s11.82-7.75,16.57-12.94c5.28-5.77,6.11-13,7.19-20.39,1.19-8.18,4.23-14.79,13-16.62,4.8-1,4.73-8.58,0-9.64l-2.46-.55c-6.29-1.41-8.77,7.63-2.66,9.64,9.76,3.22,18.31-3.4,23.4-11.27C90.71,83.63,91.52,73.44,98,67.45c4-3.66,9.43-2.94,14.41-3.62a28.89,28.89,0,0,0,13.39-5.37,36.05,36.05,0,0,0,9.12-10.58c2.39-3.87,4.48-8.58,8.45-11.11,7.51-4.77,18.49-.68,26.81-1.38,9.54-.81,15.28-6.1,21-13.26,2.36-3,4.9-6.67,8.66-7.95,4.4-1.5,9.27.8,13.31,2.42,8.89,3.58,16.8,5.77,26,1.81S255.74,8,266.45,10.59a23.77,23.77,0,0,1,11.94,6.85c3.16,3.34,5.92,6.75,10.74,7.43,5.07.73,9.19-1.9,13.56-4.05s9.76-4,14.87-3.62c10.35.86,13.19,12.63,21.12,17.62s17.1,2.47,25.88,2c4.17-.24,8.21.1,11.06,3.51s4.25,8.37,6.56,12.33c4.75,8.12,12.34,11.22,21.22,12.93,4,.77,8.21,1.3,11.9,3.06,4.18,2,6.45,5.85,8.2,10,3.43,8,5.5,16.62,12.92,22,7.59,5.55,18.27,5.57,21.63,15.68,2.66,8,2.43,16.87,7,24.28,4.74,7.77,14.17,10.89,16.9,19.91,1.4,4.61,1.56,9.11,1.67,13.9A50.09,50.09,0,0,0,486.72,191c3.68,10,8.79,19.73,10.34,30.36.8,5.47-1.29,9.76-1.74,15.09a15.83,15.83,0,0,0,.56,5.48c.91,3.52.7,6.46.36,10.14-1.05,11.24-4.73,22.13-12,30.9s-17.35,14.31-27,20.19a193.89,193.89,0,0,0-27.6,20.89c-11.9,10.57-22.82,22.22-33.5,34C379,377,362.37,396.5,346.46,416.49c-4,5-7.32,10.46-11.11,15.58a146.5,146.5,0,0,1-22.76,25.08c-15.73,13.32-38.07,21.79-58.42,14.78-11.28-3.88-20.17-13.15-29.29-20.48-9.44-7.6-19-15-28.68-22.35-19.84-15.11-39.67-30.26-60.55-43.92q-15.14-9.9-30.82-18.92C99.25,363,94.21,371.68,99.78,374.9Z"/><path class="cls-1" d="M138.42,394.09c.21.07.4.16.61.24C139.2,393.53,138.42,394.09,138.42,394.09Z"/><path class="cls-2" d="M137.09,398.91l.16.06-1.2-.51,1.65.7a4,4,0,0,0,2,.09,3.79,3.79,0,0,0,1.86-.6,4.86,4.86,0,0,0,2.3-3,6.47,6.47,0,0,0,.11-2.22,3.9,3.9,0,0,0-.62-2,5.16,5.16,0,0,0-3.13-2.39,5.62,5.62,0,0,0-4,.54l-.27.15a5.37,5.37,0,0,0-2.3,3,5.08,5.08,0,0,0,.51,3.85,5,5,0,0,0,3,2.3,5,5,0,0,0,3.86-.51,1.43,1.43,0,0,1,.27-.15l-1.19.51.12,0-1.33.18h.06l-1.33-.18h0l-1.19-.51,0,0-1-.79,0,0-.78-1,0,.06-.5-1.2v.08l-.18-1.33v.11l.17-1.33,0,.13,6.15-3.5-.15-.06,1.2.51c-.55-.24-1.09-.48-1.65-.7a5,5,0,0,0-5.64,7.35l.78,1A5,5,0,0,0,137.09,398.91Z"/><path class="cls-1" d="M198.75,438.72c-2.76-2.7-5.53-5.38-8.42-7.94-5.93-5.25-12.33-9.94-18.73-14.61l-16.39-12c-5.11-3.73-10.31-7.5-16.18-9.84A195.75,195.75,0,0,0,135,424c-.84,14.07-.09,28.54,5.09,41.65,1.42,3.6,3.32,7.25,6.6,9.32,4.71,3,10.82,1.9,16.27.72l8.81-2,52.63-9Q211.78,451.49,198.75,438.72Z"/><path class="cls-2" d="M202.29,435.19c-9.24-9-19.25-16.82-29.65-24.43-9.91-7.25-19.7-15.92-31.09-20.74-2.75-1.17-6.61-.51-7.35,3-3.35,15.85-5.39,32.39-4.27,48.61.85,12.22,3.11,32,15.5,38.33,8.58,4.36,18.83.31,27.62-1.46,17.42-3.51,35.11-6,52.63-9,3.88-.66,4.59-5.86,2.21-8.35q-12.58-13.2-25.6-26c-4.6-4.51-11.68,2.55-7.08,7.07q13,12.76,25.61,26l2.2-8.36-44.83,7.65c-7.64,1.3-16.7,4.67-24.45,4.32-6.82-.31-8.9-6.95-10.62-12.55a83.19,83.19,0,0,1-3.38-21.2,173.94,173.94,0,0,1,4.11-42.43l-7.35,3c10.85,4.59,20.16,12.75,29.6,19.65,10.22,7.49,20,15.09,29.11,24C199.82,446.76,206.9,439.69,202.29,435.19Z"/><path class="cls-1" d="M395.93,369.43l-7.18,5.8-8.39,10.6c-7.34,9.28-14.7,18.58-22.84,27.16-2.18,2.31-4.42,4.56-6.51,6.94-8.47,9.67-14.27,21.33-20,32.84l65.34.53a4.11,4.11,0,0,0,2.12-.35c1.11-.62,1.4-2.05,1.57-3.31C403.42,424.7,402.85,393.62,395.93,369.43Z"/><path class="cls-2" d="M392.39,365.89a64,64,0,0,0-10.77,10.35c-6.62,8.37-13.16,16.81-20.13,24.89-6.51,7.55-13.84,14.35-19.68,22.45-6,8.31-10.55,17.52-15.09,26.67-1.66,3.35.34,7.49,4.32,7.52l45.54.37,11.88.1c3.34,0,7.07.59,10.35-.16,5.88-1.33,6.19-7.47,6.75-12.39,2.95-25.64,2.16-52.63-4.81-77.59-1.73-6.19-11.38-3.56-9.64,2.66,6.17,22.1,7,45.66,5.1,68.44-.23,2.7-.47,5.4-.84,8.08a13.47,13.47,0,0,1-.23,1.55c-.38,1.3,0,1.12,1.24-.53-1.12-.56-3.73,0-4.95,0l-19.8-.16L331,447.77l4.32,7.53c4.28-8.63,8.58-17.31,14.08-25.25,5.87-8.47,13.67-15.44,20.33-23.26,6.52-7.66,12.69-15.6,18.92-23.48A64.35,64.35,0,0,1,399.46,373C404.47,368.92,397.35,361.88,392.39,365.89Z"/><path class="cls-2" d="M163.11,304.51c3.22,0,3.22-5,0-5s-3.22,5,0,5Z"/><path class="cls-3" d="M14.25,291.61c91.63,31.75,153.46,78.19,196.1,125.51.27.3,3.9,3.87,3.67,4.13-.57.64-22.41-20.51-50.91-40.82-13.29-9.47-26.9-17.32-54.11-33-32.58-18.8-46.93-25.3-54.12-28.44-13.66-6-32-11.92-40.19-14.63Z"/><path class="cls-2" d="M14.08,292.21c69.75,24.29,135,61.87,186.45,115.3,2.47,2.55,4.9,5.15,7.3,7.77.92,1,1.85,2,2.8,3,.55.59,3.41,2.68,3.23,2.2-.31-.82-2.93-2.38-3.59-2.95-2.19-1.88-4.36-3.77-6.55-5.66a524.65,524.65,0,0,0-42.79-33.75c-11.89-8.27-24.44-15.53-37-22.79C107.81,346,91.66,336.57,75.06,328A303.61,303.61,0,0,0,43,313.52c-5-1.91-10.14-3.71-15.25-5.46-3.55-1.22-8.31-1.93-11.52-3.86-1.22-.73-.63.27-1-1.51a31.31,31.31,0,0,1-.15-4.23l-.24-6.85c0-.8-1.28-.81-1.25,0l.44,12.74a.64.64,0,0,0,.46.6c14.86,4.94,29.76,9.86,44,16.34,11.34,5.16,22.34,11.06,33.23,17.09,32.69,18.12,65,36.63,94.09,60.18,7.22,5.84,14.27,11.89,21.3,18,1.09,1,5.2,5.78,7,5.33a.63.63,0,0,0,.44-.77c-.48-1.43-2.1-2.6-3.11-3.66-2.09-2.21-4.11-4.47-6.19-6.69q-7-7.46-14.35-14.56a419.66,419.66,0,0,0-33.29-28.92,464.71,464.71,0,0,0-84-51.85A559.28,559.28,0,0,0,14.41,291C13.65,290.74,13.32,292,14.08,292.21Z"/><path class="cls-3" d="M9,252.94c11.45,7,32.33,20.3,51.82,32.57,32.1,20.18,48.44,30.49,62.83,40.81,15.52,11.13,34.65,25,56.87,45.86,21.62,20.34,40.75,43.33,41.27,42.88s-22-30.09-44.94-53.89c-9.07-9.42-29.51-29.76-93.55-75.21-17.48-12.4-41.09-28.72-69.71-47.23Z"/><path class="cls-2" d="M8.71,253.48c32.8,20.17,65.57,40.59,97.72,61.79,30.59,20.17,59.71,42.78,85.46,68.9,7.49,7.6,14.72,15.43,21.89,23.32,1.37,1.52,5.65,8.11,8,8.19a.62.62,0,0,0,.6-.45c.16-.81-.72-1.72-1.11-2.33-1.79-2.75-3.9-5.34-5.9-7.93-6.4-8.27-13.08-16.34-19.92-24.25a389.91,389.91,0,0,0-27.82-29.52c-26.21-24.6-55.79-45.76-85-66.5q-33.86-24-68.7-46.51a.62.62,0,0,0-.91.37L8.42,252.78c-.25.77,1,1.09,1.2.33l2-6.18c.45-1.39,1.29-6.8,2.49-7.73-.13.1,12.91,9,14.36,10q8.16,5.4,16.27,10.86,27.49,18.52,54.34,38c24.46,17.78,49.12,36,70.88,57.07a433.6,433.6,0,0,1,29.49,32.17c6.14,7.27,12.19,14.65,17.89,22.27.95,1.27,2.24,4.21,3.57,5,2.07,1.27-1.15-2.39-1.75-3-14.69-15.91-29.21-31.87-45.32-46.38C158.08,351,141.24,338.12,124,325.78c-15.35-11-31.37-21-47.32-31C54.25,280.59,31.92,266.29,9.34,252.4A.63.63,0,0,0,8.71,253.48Z"/><path class="cls-3" d="M195.67,354.75c-7.34-11-29.37-42.81-96.3-105C80.9,232.57,55.9,210.2,25.07,185.07l-9.28,11.41c2.33,1.75,5.7,4.3,9.74,7.39s25.09,19.2,40.36,31.65C85.43,251.45,100,265.05,114,278.17c23,21.49,36.92,34.47,54.57,54.57,16.73,19,29.7,36.35,33,40.82,14.42,19.37,25.56,35.95,26.14,35.58C228.56,408.65,212.42,379.8,195.67,354.75Z"/><path class="cls-2" d="M196.21,354.44c-9.38-14-20.15-27.05-31.35-39.64-25.32-28.43-53-54.81-81.2-80.3q-28.44-25.67-58.14-49.87a.64.64,0,0,0-.89,0L15.35,196a.65.65,0,0,0,.13,1C82.68,247.78,148,303.39,198.9,370.94c6.57,8.72,12.93,17.6,19.28,26.49,2.4,3.36,4.74,6.77,7.27,10,.56.73,1.3,2.2,2.32,2.31a.6.6,0,0,0,.54-.31c.48-1.09-.92-3.07-1.36-3.95-2.08-4.18-4.42-8.24-6.74-12.28q-11.34-19.78-24-38.79c-.44-.67-1.53,0-1.08.63q11.09,16.64,21.17,33.9c2.45,4.18,4.87,8.39,7.18,12.65.67,1.22,2.48,6.74,3.66,7.31,1.75.86-.88-2.44-.61-2.1-1.05-1.33-2-2.73-3-4.1-3.2-4.43-6.35-8.89-9.54-13.32-5.71-8-11.47-15.86-17.43-23.62-29.75-38.7-64.32-72.3-100.4-105-18.82-17.06-38.59-32.94-58.67-48.48C30.86,207.16,24.24,202,17.54,197c-1.3-1-1.31.28-.18-1.48a48.54,48.54,0,0,1,3.21-3.95L23.46,188a8,8,0,0,1,1.31-1.61c1.66-1-.91-.82,1.4.34,2.66,1.34,5.26,4.32,7.53,6.2q4.38,3.61,8.72,7.27,8.23,6.91,16.36,13.95Q72.54,226.09,86,238.31C104.35,255,122.33,272,139.65,289.72c19.94,20.38,39.59,41.59,55.48,65.35C195.58,355.73,196.66,355.11,196.21,354.44Z"/><path class="cls-3" d="M226.9,383.18c-5.51-12-11.36-24.75-20.22-40.81-4.16-7.53-14.16-25.17-35.31-55.49-16.63-23.83-30.08-41.06-41.74-55.95-27.72-35.41-36.94-44.29-56.4-72-9.51-13.53-16.83-25-21.56-32.56L37.88,141c8.07,9,20.27,22.61,35.35,39,29.94,32.53,32.27,33.82,45.86,49.53a789,789,0,0,1,48.61,62.82c14.36,20.57,24.63,37.32,32.1,49.53,19.62,32.11,35.78,64.69,36.69,64.21C237,405.88,230.68,391.4,226.9,383.18Z"/><path class="cls-2" d="M227.44,382.86c-7.66-16.69-15.66-33.21-24.92-49.08-10.12-17.33-21.33-34-32.86-50.42-24.23-34.46-51.15-66.69-77.25-99.69a631.33,631.33,0,0,1-40.2-57.61.63.63,0,0,0-1-.13L37.44,140.6a.64.64,0,0,0,0,.88Q63.83,171,90.88,199.94c9.43,10,19,19.92,28,30.35,32,37,59.88,77.41,84.86,119.4,8.14,13.69,15.84,27.64,23.46,41.62,2.19,4,4.34,8.1,6.65,12.06.47.81,1.41,3.28,2.62,3.38a.63.63,0,0,0,.6-.46c.5-2.18-2.19-6.4-3-8.24q-3.23-7.65-6.69-15.19c-.33-.73-1.41-.09-1.08.64,2.51,5.48,4.95,11,7.26,16.55.58,1.39,1,3.88,2,5,1.11,1.34.75.31.21-.87-3.73-8.28-9-16.24-13.35-24.2C209.13,355.78,195,332,179.71,309c-22.3-33.71-46.87-66.4-74.65-95.83q-24.18-25.6-47.91-51.61-6.46-7.12-12.89-14.29a57.43,57.43,0,0,1-4.84-5.4c-.56-.81-.87,0-.83-.62,0-.31,1.08-1.15,1.31-1.39l7.62-8.11c1.14-1.21,2.25-2.49,3.44-3.66,1.42-1.4.67-1.2,1.36.54,2.11,5.39,6.83,10.72,10,15.54q6.29,9.45,12.85,18.69Q83.92,175,93.27,186.75c15,18.79,30.31,37.29,45,56.3,29.91,38.63,58.59,78.88,79.91,123,2.8,5.78,5.48,11.62,8.16,17.46C226.7,384.23,227.78,383.59,227.44,382.86Z"/><path class="cls-3" d="M218.14,327.7c-4.93-11.66-15.06-35.17-37.6-81.63-24.54-50.58-44.1-90.67-74.29-141.71-6.93-11.71-12.85-21.34-17-28L79.14,91.76c1.16,2.3,2.91,5.72,5.09,9.85A600.64,600.64,0,0,0,118.17,158c23.51,35,43.52,71.09,48.61,80.26,22.85,41.16,28.89,59.62,41.27,82.09,2.62,4.75,36.1,81.16,37.61,80.48C247.63,400,228.63,352.48,218.14,327.7Z"/><path class="cls-2" d="M218.68,327.38c-10.55-24.93-22.07-49.44-33.82-73.82-18.78-39-37.74-77.88-58.71-115.73q-17.37-31.34-36.33-61.76a.63.63,0,0,0-1.08,0L78.6,91.45a.64.64,0,0,0,0,.63c18.18,35.88,41.33,68.3,62.16,102.58a994,994,0,0,1,50.78,93.56c9.29,19.77,19.15,39.16,28.12,59.07,5.41,12,10.81,24,16.37,36,2,4.27,4,8.54,6.08,12.75.49,1,1.83,4.93,3.07,5.3,2.06.6,1-2.71.73-3.66-1.59-6.24-4.09-12.32-6.35-18.33-6.58-17.46-13.62-34.76-20.88-51.94-.31-.74-1.39-.1-1.08.63,9.22,21.8,18.75,43.8,26,66.34.44,1.36.77,2.75,1.22,4.11a12.24,12.24,0,0,0,.27,1.2c.14.33.89,1.14.72.52-.4-1.48-1.81-3.18-2.5-4.56-3.48-6.9-6.67-13.95-9.89-21-7.41-16.17-14.6-32.44-22-48.62-7-15.3-14.87-30.28-22.12-45.48-11-22.94-23.16-45.23-36-67.18C139,188.66,123,165.06,107.71,140.91Q95,120.72,83.86,99.57c-.88-1.68-4.13-6.1-4-7.72.06-1.11,2.19-3.32,2.81-4.26,1.93-2.94,4-8,6.73-10.22,1-.86-.45-.2,0,.3a29,29,0,0,1,2.29,3.7q2.91,4.72,5.79,9.47,7.23,11.94,14.25,24,13.29,22.89,25.67,46.27c27.54,51.94,53.58,105.12,76.93,159.09q1.68,3.9,3.33,7.8C217.92,328.75,219,328.11,218.68,327.38Z"/><path class="cls-3" d="M248.87,365.76c-9.59-31.22-13.16-44.56-17.43-58.7-7.36-24.43-10.92-31.77-32.56-91.26-16.54-45.47-29-81.05-36.69-103.19C152,83.38,143.45,58.38,137,39.24L122.75,52.08C126,60.34,131,72.76,137,87.85c24.79,62.49,24.59,62.61,33,83.46,20.67,51.16,21.43,49.41,36.23,87.6,4.67,12.06,3.1,8.37,22.47,60.07,22.12,59,27.32,76.52,27.78,76.36S253.51,380.85,248.87,365.76Z"/><path class="cls-2" d="M249.47,365.59c-9.9-32.27-18.61-64.82-30.31-96.51q-26.83-72.66-52.55-145.72-14.72-42.07-29-84.29a.63.63,0,0,0-1-.27L122.31,51.64a.61.61,0,0,0-.16.6c20.54,51.6,40.18,103.63,61.91,154.74,19,44.71,36,90,52.74,135.64q7.9,21.48,15.46,43.08c.42,1.19,2.39,10.18,4.21,10.26a.62.62,0,0,0,.6-.45c.69-2.14-1.09-6.15-1.59-8.19-1.78-7.3-3.82-14.54-6-21.73-.23-.76-1.44-.44-1.2.34,2.62,8.62,5.15,17.34,7,26.16.11.52.21,2.57.55,2.93,2.51,2.55,1-.2,1-.26,0-.38-.44-.94-.52-1.33-1.11-5.66-4-11.52-6-16.95-10.68-30.26-22.07-60.26-33.26-90.34-13.05-35.06-27.84-69.29-42-103.91-6-14.78-11.9-29.63-17.74-44.49Q149.57,118,141.73,98.18,136,83.81,130.33,69.44,128.17,64,126,58.56c-.6-1.53-1.16-3.08-1.82-4.59-.78-1.77-.88-.93-.25-2.12.8-1.48,3.31-3,4.55-4.11l6.28-5.67a16.39,16.39,0,0,1,1.92-1.72c1.34-.86-.19-.35.11.28,1.71,3.68,2.68,7.93,4,11.77q9.34,27.45,18.88,54.83,16.26,46.72,33,93.26c10,27.67,20.52,55.16,30.37,82.89,6.5,18.33,11.63,37.09,17.14,55.73q4,13.42,8.09,26.82C248.5,366.69,249.71,366.37,249.47,365.59Z"/><path class="cls-3" d="M246.58,286c-12.67-65.43-12.74-63.32-22.93-116.48-8.47-44.14-17.44-92.61-23.39-124.74-2.35-12.66-4.26-23-5.51-29.81L173.2,27.31c2.19,7.31,5.43,18.28,9.17,31.65,11.62,41.52,18.36,71.55,23.85,95.39,10.17,44.17,18,75.9,30.27,125.19,11.57,46.64,26.41,113.75,28.12,113.37C265.83,392.63,259.33,351.82,246.58,286Z"/><path class="cls-2" d="M247.18,285.8c-13.38-69.05-27.15-138-40-207.15q-5.94-31.94-11.82-63.88a.64.64,0,0,0-.92-.38L172.89,26.77a.64.64,0,0,0-.29.71c22.32,74.46,38.13,150.63,56.8,226.05,9,36.57,17.66,73.23,26.48,109.85,1.51,6.24,3,12.49,4.64,18.7.8,3.08,1.28,7.27,2.92,10.05,2.18,3.7,1.86-1.75,1.7-3.36-1.22-11.7-3.41-23.34-5.4-34.92-3.92-22.73-8.18-45.41-12.56-68.05-.15-.79-1.36-.46-1.21.33,5.49,28.35,10.88,56.74,15.43,85.26,1,6.32,2.24,12.72,2.65,19.11.09,1.39.65,3.1.49,1-.19-2.37-1.6-5.18-2.21-7.49-6.28-23.48-11.47-47.28-17.09-70.93-7.24-30.5-14.94-60.89-22.37-91.34-14.3-58.56-26.77-117.54-43.45-175.5q-1.53-5.33-3.09-10.64c-.39-1.31-.78-2.61-1.16-3.92a41.79,41.79,0,0,0-1.61-3.88c.52-1.46,6.5-3.73,7.79-4.48l11.26-6.46c.24-.14,2.19-1.53,2.42-1.39-1-.58-.16,3.5-.16,3.48.32,1.73.63,3.46.95,5.19Q204.39,70.6,213.07,117c9.05,48.26,18.68,96.38,28.12,144.56q2.4,12.29,4.78,24.57C246.13,286.92,247.33,286.58,247.18,285.8Z"/><path class="cls-3" d="M272.26,334.58c-1.62-29.5-5.88-106.68-6.42-116.49-5.06-91.7-6.15-151.12-6.42-167.39-.3-18.1-.41-33.14-.46-43.56l-28.2,7.79c.4,5.13.33,4.24,1.14,13.76,4.37,51.4,9,87.25,12.84,124.28,5.2,49.59,8.61,81.31,13.3,120.15,3,24.7,12.75,118.56,15.14,118.32C274.14,391.34,274.14,368.75,272.26,334.58Z"/><path class="cls-2" d="M272.88,334.58l-6.3-114.44c-2.76-49.87-5-99.78-6.14-149.72q-.75-31.64-.86-63.28a.63.63,0,0,0-.79-.61l-28.2,7.8a.62.62,0,0,0-.45.6C233,51.51,236.94,88,241,124.44c4.3,38.55,8.13,77.16,12.53,115.71,3,26.26,6.09,52.52,9.06,78.79,2.56,22.65,4.41,45.68,8.65,68.1.16.85.4,4.47,1.5,4.9,1.66.63,1.47-2.61,1.52-3.48,1.17-17.81-.42-36.1-1.39-53.88,0-.8-1.29-.81-1.25,0,.88,16.06,1.7,32.18,1.55,48.28,0,1.86,0,3.74-.16,5.6a11.45,11.45,0,0,0-.13,1.75c.05.58.57,1.2.55.6-.09-1.76-.94-3.83-1.25-5.59-3.69-21.16-5.67-42.69-8.08-64q-9.9-87.28-19.42-174.62c-3.7-34.49-7.77-68.93-10.9-103.47q-1.08-11.93-2.06-23.85c-.08-1-.55-3.68-.43-3.82.62-.7,3.53-1,4.4-1.22l15-4.13,6-1.66c.39-.11,1.4-.61,1.8-.5,1.08.3-.09-.66-.13.93-.49,22,.41,44.16,1,66.18q1.05,41.91,3,83.79c2.37,53.55,5.59,107.08,8.54,160.61q.42,7.57.83,15.15C271.68,335.38,272.93,335.38,272.88,334.58Z"/><path class="cls-3" d="M346.74,32.66c-35.87,195.76-49.88,274.94-54.3,311.09-.48,3.88-6.37,45.54-4.36,45.63,1.4.06,8.92-22.26,12.15-43.34,4.21-27.39,17-72.92,17-72.92s5.56-24.53,30.27-115.56c8-29.42,18.65-68.26,31.64-114.2C375.28,30.28,362.63,29.25,346.74,32.66Z"/><path class="cls-2" d="M346.14,32.49c-12.79,69.78-25.62,139.56-37.9,209.43-5.66,32.2-11.52,64.44-15.8,96.86-.88,6.7-1.77,13.4-2.62,20.11-.76,6-1.5,12-2.09,18-.31,3.17-1.75,8.65-.61,11.77.52,1.42.79,1.63,2,.63,1-.85,1.5-3.16,2-4.34,1.41-3.67,2.56-7.45,3.65-11.23,5-17.33,7.16-35.26,11.1-52.84,6.74-30.06,14.92-60,22.71-89.87q13.37-51.14,27.43-102.07,8-29.28,16.22-58.51,2.18-7.77,4.37-15.53c1.12-4,4.12-9.45,2.57-13.48a16.38,16.38,0,0,0-10.94-10c-7-2-14.62-.75-21.58.68-.78.17-.45,1.37.34,1.21,7.68-1.59,17.55-3.39,24.73.93,4.27,2.57,7.1,6.86,6.06,11.87-1.1,5.33-3,10.62-4.47,15.86q-8.1,28.86-16.06,57.77Q343.39,169.79,330.08,220q-10.32,39.18-20.23,78.5c-3.75,14.88-7.36,29.85-9.84,45a263.29,263.29,0,0,1-5.9,27.64c-1,3.52-2,7-3.21,10.48-.42,1.22-1.55,6.52-2.89,7,.7-.25.66-8.48.8-10,.51-5.62,1.18-11.22,1.88-16.81.89-7.1,1.86-14.2,2.77-21.3,3.83-29.78,9.18-59.38,14.35-88.94,10.86-62.24,22.26-124.38,33.62-186.52l5.91-32.28C347.49,32,346.28,31.7,346.14,32.49Z"/><path class="cls-3" d="M395.62,60.79c-6,15.25-14.64,37.69-24.3,65.12-13.87,39.36-23.77,72.87-43.57,139.88,0,0-8.56,29-19.72,73.83-9.67,38.87-12,49.35-10.78,49.76,1.81.59,10.43-16.66,12.15-22.7,16.82-58.81,92.24-243.17,117.41-283.42C423.4,64.9,410.08,62,395.62,60.79Z"/><path class="cls-2" d="M395,60.63c-22.11,56.07-40.64,113.12-57.78,170.87-6.57,22.14-13.14,44.26-19.12,66.57-4.86,18.1-9.45,36.27-13.93,54.46-2.61,10.58-5.54,21.19-7.39,31.93-.24,1.41-1.57,6.15,1.23,5.33,3-.86,5.77-8.72,6.93-11.06a82.39,82.39,0,0,0,5.48-13.39c5.38-18.22,11.88-36.1,18.47-53.91,18.43-49.75,38.45-99,59.69-147.59,8.7-19.91,17.57-39.78,27.3-59.21,3.24-6.47,6.55-12.93,10.27-19.14,2.37-3.94-.21-8.94-2.47-12.65a23.14,23.14,0,0,0-11.06-9.28c-5.38-2.24-11.27-2.91-17-3.39-.8-.07-.8,1.18,0,1.25,6.45.54,13.17,1.32,19,4.45A21,21,0,0,1,422,72.49c1.72,2.5,4.72,7.65,4,10.87-.49,2.27-3.06,5.18-4.2,7.25-1.74,3.15-3.41,6.34-5,9.54-9.06,17.72-17.26,35.88-25.3,54.07q-30.25,68.42-56.83,138.44c-7.34,19.26-14.52,38.59-21,58.17-2.52,7.67-4.42,15.64-7.76,23-1.21,2.67-2.5,5.31-3.9,7.89-1,1.79-2.34,5.35-4.1,6.52-.71.47-.07,1-.33-.06a8.31,8.31,0,0,1,.31-2.71c1.44-9.2,4-18.29,6.2-27.32,4.24-17.32,8.57-34.62,13.13-51.87,5.34-20.21,11.11-40.28,17-60.33,16.66-56.28,34-112.13,55-167q3.46-9,7-18C396.52,60.21,395.31,59.88,395,60.63Z"/><path class="cls-3" d="M288.31,22.27c-1.1,16.77-2.62,41.37-4.13,71.08-7.25,142.48-8,295.87-4.13,296,.74,0,1.19-12.78,4.59-45.63,6.27-60.62,9.41-90.93,12.84-147.21,2.56-42,8.36-103.22,22.87-184Z"/><path class="cls-2" d="M287.68,22.27Q281.61,115.56,279,209c-1.44,50.65-2.66,101.41-1.67,152.09.13,6.43.28,12.87.68,19.29.13,2.06-.3,6.91,1.06,8.7,1.22,1.62,1.64.38,2-1.15,1.52-6.76,1.32-14.29,1.94-21.17C288.2,309.5,294.62,252.44,298.2,195A1548.44,1548.44,0,0,1,316.51,38.4q2.13-12.85,4.44-25.68a.63.63,0,0,0-.77-.77l-32,9.72c-.76.23-.44,1.44.34,1.2l18.83-5.71,11.09-3.37c.34-.1,1.69-.75,2-.61-1-.42-2.86,11.6-3.05,12.69-5.42,31.44-10.06,63-13.73,94.7-6.07,52.33-8.1,105-13,157.41-2.91,31.08-6.5,62.1-9.24,93.2-.37,4.2-.7,8.4-1.1,12.59-.1,1.16-.3,2.34-.36,3.5,0,.39-.19.79-.18,1.18s.59.68.6.4c.1-2.85-.92-6.32-1.1-9.25-1-17.2-.9-34.49-.89-51.71,0-28.12.44-56.24,1.06-84.35q2.22-101.77,8.38-203.43.56-8.91,1.13-17.84C289,21.47,287.74,21.47,287.68,22.27Z"/><path class="cls-3" d="M438.28,95.8c-5.37,8.74-13.06,21.47-22,37-5.6,9.7-28.21,49.1-44.94,83.47-41,84.11-65.49,174.5-63.52,175.18.74.26,7.95-16.66,19.49-41.27,2.76-5.88,13.37-28.3,30.27-57.33,16.16-27.78,28.73-45.54,44-67.87,15.15-22.11,36.48-53.8,61.91-93.55C469.3,114.05,457.16,103.62,438.28,95.8Z"/><path class="cls-2" d="M437.74,95.48C412.29,137,388,179.57,367.11,223.58a944.13,944.13,0,0,0-54.59,144.71c-.55,1.9-7.68,22.43-5,23.68,2,1,19.59-39.86,20.93-42.69,21.14-44.79,47.79-86,75.68-126.85q21.3-31.17,41.93-62.8,6.38-9.8,12.71-19.62c3.3-5.13,6.44-9.3,6.81-15.54.52-8.71-4.47-15.74-11.23-20.74a75.06,75.06,0,0,0-15.7-8.47c-.74-.31-1.37.77-.64,1.08,9.83,4.14,22.09,10,25.52,21.06,1.88,6,.52,11.76-2.67,17-3.93,6.52-8.26,12.84-12.41,19.22q-20,30.75-40.59,61.09c-13.3,19.55-27,38.87-39.47,59q-20,32.07-36.72,66c-7.91,16.05-14.63,32.69-22.69,48.65a12.6,12.6,0,0,0-1.27,2.33c-.19.81.5.34.67-.15a34.09,34.09,0,0,0,.79-4.33c1.19-5.46,2.69-10.85,4.21-16.23a948,948,0,0,1,50.5-136.45c21.71-47.38,47.75-93,75-137.45C439.24,95.43,438.16,94.8,437.74,95.48Z"/><path class="cls-3" d="M471.29,143.8c-12.83,14.36-29.92,34.47-48.61,59.62-68.36,92-111.24,190.24-108.23,191.92.84.47,8.63-13.8,31.64-45.17,2.48-3.38,16.3-22.2,27.52-36.69,19.43-25.11,35.63-43.14,50.9-60.08,16.41-18.2,37.4-40.46,62.83-65.12C495.74,170.58,488.82,156.08,471.29,143.8Z"/><path class="cls-2" d="M470.85,143.36a895.09,895.09,0,0,0-95.79,129.77c-20.94,34.31-40.88,69.92-56.37,107.08-.54,1.29-7,14.92-4.41,15.73,1.36.43,3.12-3.25,3.65-4,4.15-6.16,8.2-12.38,12.4-18.5a1110.08,1110.08,0,0,1,88.36-112.6c18.81-21,38.09-41.45,58.08-61.28,4.76-4.72,10.63-8.74,12.88-15.2a30.63,30.63,0,0,0,1.58-14.51c-1.71-11.55-10.57-20.07-19.62-26.55-.66-.47-1.28.61-.64,1.08,9.4,6.72,18.63,15.85,19.27,28.1.32,6.13-1.28,12.84-5.45,17.45-4.84,5.35-10.39,10.2-15.48,15.32q-24.21,24.35-47.15,49.87A1198,1198,0,0,0,341.08,356q-9,12.4-17.5,25.13c-2.68,4-6,8.06-8.23,12.33a7.48,7.48,0,0,1-.92,1.18c-.19.25.39.59.5.07.21-1,.39-1.9.68-2.84a117.17,117.17,0,0,1,4.29-11.33c14.15-33.93,32.13-66.49,50.94-98A901.22,901.22,0,0,1,471.73,144.24C472.27,143.64,471.38,142.75,470.85,143.36Z"/><path class="cls-3" d="M491.47,195.16c-4.41,4.25-10.77,10.4-18.35,17.89-30.39,30-53.28,54.53-65.58,67.87,0,0-50.44,54.75-73.83,99.51-1.72,3.3-10.29,16.95-8.94,17.9S338.1,385.78,348.39,374c28.64-32.76,34.34-43.11,49.07-58.24,7.73-7.95,9.38-8.4,38.06-31.18,15-11.93,36.47-29.21,62.37-50.91C505.32,220.37,500.48,207.66,491.47,195.16Z"/><path class="cls-2" d="M491,194.72c-29.13,28.05-57.65,56.86-84.86,86.78-23,25.34-44.94,52.43-63.11,81.49-1.56,2.5-21.56,34-18.61,35.88,2.67,1.68,10.92-9.23,12.25-10.7,8.43-9.27,16.63-18.76,24.69-28.35,16.82-20,31.69-41.13,52.41-57.36q27.68-21.66,54.94-43.84,8.89-7.27,17.74-14.61c4.73-3.93,11.18-7.55,13.56-13.34,5.27-12.79-.61-25.33-8-35.82-.46-.66-1.55,0-1.08.63,7.32,10.35,16,27.88,5,39-4.36,4.42-9.82,8.19-14.6,12.15s-9.83,8.09-14.76,12.12Q442.9,278.12,418.83,297c-7.5,5.88-15.15,11.54-21.82,18.38-9.17,9.42-17.14,19.87-25.38,30.09-13.43,16.63-27.07,33.7-42.29,48.73-1.47,1.45-5.25,5.88-3.2,1.21a102.36,102.36,0,0,1,5.42-9.91c4.22-7.27,8.11-14.7,12.58-21.83C362,335,383.51,308.49,406.07,283.47c27.4-30.39,56.37-59.49,85.84-87.87C492.49,195,491.61,194.16,491,194.72Z"/><path class="cls-3" d="M480,256.15c-19.37,13.86-38.26,27.37-58.7,45.41-31.95,28.19-50.77,52.5-55.49,58.7-12.33,16.19-30.29,41.38-28.43,42.88,1.24,1,13.25-11.76,29.81-27.75,25.18-24.31,37.78-36.46,47.69-43.57,14.94-10.7,32-22.9,54.12-32.56,4.13-1.8,11.16-4.7,17.78-11.55,9.21-9.55,12.45-21.39,13.75-29.82L501,241.5C495.9,245,488.62,250,480,256.15Z"/><path class="cls-2" d="M479.69,255.62c-33.31,23.82-65.35,48.83-93.14,79.07C369.38,353.37,353.23,374,340,395.63c-.7,1.13-4.49,6.1-3.29,7.69s3.21-.82,4.06-1.52c5.56-4.59,10.53-10,15.65-15.05,7.59-7.49,15.27-14.89,23-22.28,10-9.58,19.83-19.4,30.57-28.11a288.11,288.11,0,0,1,40.54-27.2c8.88-5,18.68-8.35,27.37-13.61a47.26,47.26,0,0,0,18.68-21.49c4.74-10.75,4.73-21.11,5.09-32.56a.63.63,0,0,0-.94-.54q-10.61,7.2-21,14.66c-.65.46,0,1.54.63,1.07q5.88-4.2,11.82-8.32c1.48-1,8.95-5.48,8.27-6.57.59.93-.14,4.38-.17,5.47l-.25,7.87c-.5,16.15-9.93,32.1-24,40.05-7.41,4.2-15.52,7.13-23,11.19a273.81,273.81,0,0,0-23.55,14.44,263.76,263.76,0,0,0-28.28,21.49c-12.26,11-24,22.55-35.82,34-6.45,6.25-12.78,12.63-19.24,18.88-1.92,1.86-3.84,3.75-5.89,5.48-1.49,1.26-2.74,2.84-1.64.12,2.14-5.29,6.17-10.25,9.38-14.92,4.49-6.52,9.15-12.94,13.88-19.29,6.18-8.3,12.61-16.37,19.43-24.14,29.11-33.13,63.32-60.18,99.06-85.75C481,256.23,480.34,255.15,479.69,255.62Z"/><path class="cls-2" d="M138.11,406.66l34.78,14.7c.73.31,1.37-.77.63-1.08l-34.78-14.7c-.73-.31-1.37.77-.63,1.08Z"/><path class="cls-2" d="M134.78,424.55l63.8,14.78c.79.18,1.12-1,.34-1.21l-63.8-14.77c-.79-.18-1.12,1-.34,1.2Z"/><path class="cls-2" d="M135.44,438.41l69.24,9.94c.78.12,1.12-1.09.33-1.2l-69.24-9.94c-.79-.12-1.13,1.09-.33,1.2Z"/><path class="cls-2" d="M135.85,450.45,214,456.27c.8.06.8-1.19,0-1.25l-78.18-5.82c-.8-.06-.8,1.19,0,1.25Z"/><path class="cls-2" d="M140,466.22,215.87,462c.8,0,.8-1.29,0-1.25L140,465c-.8,0-.8,1.3,0,1.25Z"/><path class="cls-2" d="M397.83,377.85,370,397.79c-.65.46,0,1.55.63,1.08l27.8-19.94c.65-.46,0-1.55-.63-1.08Z"/><path class="cls-2" d="M400.38,393.79l-49.56,29.62a.63.63,0,0,0,.63,1.08L401,394.87a.63.63,0,0,0-.63-1.08Z"/><path class="cls-2" d="M401.74,407.88l-60.26,27.17c-.74.33-.1,1.41.63,1.08L402.37,409c.74-.33.1-1.41-.63-1.08Z"/><path class="cls-2" d="M401.87,421.4l-67.7,24.18c-.75.27-.43,1.48.33,1.21l67.7-24.18c.75-.27.43-1.48-.33-1.21Z"/><path class="cls-2" d="M401.32,435l-59.69,14.23c-.79.19-.46,1.4.33,1.21l59.69-14.24c.78-.18.45-1.39-.33-1.2Z"/></g></g></svg>