<svg xmlns="http://www.w3.org/2000/svg" viewBox="0 0 53.29 44.75"><defs><style>.cls-1{fill:#82c6d7;}.cls-2{fill:#38301f;}.cls-3{fill:#ad9689;}.cls-4{fill:#bfcbc8;}</style></defs><title>spacers2</title><g id="Layer_2" data-name="Layer 2"><g id="candle"><path class="cls-1" d="M7,8.19a16.59,16.59,0,0,0,4.35,7,16.93,16.93,0,0,0,9.2,4.5c2.6.4,4.85.95,6.9-.35a6.54,6.54,0,0,0,2.8-4.25c.3-2-.6-3.5-1.8-5.55-1-1.8-2.5-3.15-5.45-5.1-1.25-.8-8.1-5.5-12.85-2.65C7.4,3.39,7.25,5.94,7,7.34Z"/><path class="cls-2" d="M6.1,8.39a17.82,17.82,0,0,0,11,11.35c3.85,1.35,9.2,2.4,12.2-1C36.4,10.84,22,1,15.05.09c-5.2-.7-9,3-9,8.1a.88.88,0,0,0,1.75,0A6.34,6.34,0,0,1,10.1,2.94c2.3-1.8,5.3-1.2,7.85-.25C21.9,4.24,26,7,28.15,10.69c1.5,2.6,1.85,5.6-.75,7.6-2.1,1.6-5.2.85-7.6.35A16,16,0,0,1,7.9,7.94C7.45,6.84,5.75,7.34,6.1,8.39Z"/><path class="cls-1" d="M28.15,32.39c2-4.9,9.2-5.2,12-5.35,2.3-.1,7.2-.3,10.3,3.05a6.83,6.83,0,0,1,2,4.95c-.15,2.35-1.85,3.9-3,5-5,4.45-11.55,3.8-12.1,3.75-2.35-.25-6-.7-8.1-3.75A8.2,8.2,0,0,1,28.15,32.39Z"/><path class="cls-2" d="M28.9,32.84c2-4.2,7.15-4.7,11.25-4.9a16.14,16.14,0,0,1,6.55.7c2.9,1.1,5.8,4.2,4.65,7.5-1.65,5-8.55,7-13.25,6.8a14.77,14.77,0,0,1-5.3-1.1,7.39,7.39,0,0,1-3.8-9.2c.35-1.05-1.35-1.55-1.7-.45-1.85,5.35,1.55,10.65,6.85,12a18.65,18.65,0,0,0,12.2-1C51,41,55.45,36,52.15,30.94c-2.7-4.15-7.6-4.9-12.2-4.7s-10.4,1-12.6,5.75C26.9,32.94,28.4,33.84,28.9,32.84Z"/><path class="cls-1" d="M51,26.19a2.75,2.75,0,0,1,.55-.55c.9-.7,1-4.9-1.6-7a16.3,16.3,0,0,0-9.2-3.85c-1.45,0-9.8,0-12.9,5.45-.7,1.2-2.35,4.9-1.15,6.8a8.79,8.79,0,0,1,1.1,2,8.33,8.33,0,0,1,.4,2.1,18.72,18.72,0,0,1,17.3-3.75c1.95.5,3.85,2.1,5.95,3.05a6.24,6.24,0,0,1-.75-2.65A2.29,2.29,0,0,1,51,26.19Z"/><path class="cls-2" d="M51.6,26.79c2.35-2.7,1.35-6.65-1.25-8.9A16.32,16.32,0,0,0,38.2,14c-3.85.35-8,1.55-10.45,4.75a11.72,11.72,0,0,0-2.3,5.45c-.4,2.75,1.6,4.25,1.8,7,.05.6.75,1.2,1.3.75a19.52,19.52,0,0,1,10.55-4.3,16.84,16.84,0,0,1,6.1.65c2,.65,3.8,2.05,5.75,3,.75.35,1.7-.4,1.2-1.2a3.64,3.64,0,0,1-.4-3.35c.45-1-1-1.9-1.5-.9a5.55,5.55,0,0,0,.4,5.15l1.2-1.2c-2.05-1-4-2.5-6.15-3.15a18.21,18.21,0,0,0-6.55-.7,20.65,20.65,0,0,0-11.4,4.55c.45.25.9.5,1.3.75a12.34,12.34,0,0,0-1.45-4.4c-.85-1.8-.1-3.85.75-5.5C30,18.09,33.3,16.64,36.7,16a14.67,14.67,0,0,1,7.5.4c3.25,1.15,9.65,5.25,6.2,9.2C49.6,26.39,50.85,27.64,51.6,26.79Z"/><path class="cls-1" d="M7,7.69c.3-.4-.75,1.1-1.55,2.25-.55.75-.3.35-1.75,1.15s-1.25,1.05-1.5,1.3c-2.1,2.45-.85,7.85-.7,8.1a19.19,19.19,0,0,0,6.8,7.05c1.85,1.15,4.55,3.05,8.45,2.85a7.48,7.48,0,0,0,5.45-2.25c.55-.6,2.25-2.25,2-3.95,0-.5.05-.45.2-1.15a3,3,0,0,1,1-1.7c.6-.5,1.25-1.2,1.1-1C15.3,20.14,9.4,14.64,7,7.69Z"/><path class="cls-2" d="M7.55,8.29l0,0c-.45-.35-.9-.7-1.4-1A11.1,11.1,0,0,1,4.05,9.84a14.66,14.66,0,0,0-2.5,1.7A8.32,8.32,0,0,0,0,16.64c0,4.65,2.6,7.9,6.25,10.65s8.1,4.85,12.75,3.65A8.68,8.68,0,0,0,24.1,27a7.16,7.16,0,0,0,.8-2.85A5.39,5.39,0,0,1,27,20.94a.89.89,0,0,0-.6-1.5C18,19.19,10.7,15.54,7.7,7.44c-.4-1.05-2.1-.6-1.7.45,3.3,8.9,11.2,13,20.35,13.3l-.6-1.5c-1.2,1.15-2.15,1.95-2.45,3.65-.2,1-.05,1.85-.65,2.8a7.74,7.74,0,0,1-2.8,2.6c-4.1,2.15-8.85-.25-12.2-2.65-3.5-2.5-6.05-5.6-5.8-10a5.52,5.52,0,0,1,1-3.3,9,9,0,0,1,2.25-1.55A10.61,10.61,0,0,0,7.7,8a.88.88,0,0,0-1.4-1l0,0C5.55,7.89,6.75,9.14,7.55,8.29Z"/><path class="cls-3" d="M27.15,26.69c.7,0,.55-3.15,2.4-5.55,3.3-4.25,12.2-5.3,16.7-1.7,2.85,2.25,3.7,6.1,4.85,5.8.65-.15.85-1.5.85-2.3,0-3.65-4.45-6.2-5.1-6.55-5.85-3.3-12.65-.85-14-.35-1.9.75-5.3,2.7-6.1,6.25C26.35,24.39,26.55,26.64,27.15,26.69Z"/><path class="cls-2" d="M27.25,26.89c.35-.1.4-.35.55-.65.9-1.55.8-3.35,1.95-4.9,2.1-2.8,6-3.9,9.35-3.9a10.72,10.72,0,0,1,9.6,5.2c.4.65,1.3,3.1,2.5,2.8,1.5-.4,1-3.4.65-4.35a9.86,9.86,0,0,0-4.25-4.55c-4.35-2.7-10-2.6-14.6-.75a11,11,0,0,0-5.75,4.75c-.65,1.25-1.9,5.4-.2,6.35.25.15.45-.25.2-.4-1.7-.95.1-5.5.9-6.6a10.19,10.19,0,0,1,4.1-3.3A18.05,18.05,0,0,1,40,14.89a13.91,13.91,0,0,1,9.15,3.3,6.77,6.77,0,0,1,2.55,4.15,3.47,3.47,0,0,1-.05,1.6c-.6,1-1.1,1.15-1.45.25a5.65,5.65,0,0,1-1-1.6c-2.8-4.5-7.25-6.25-12.45-5.5A11.91,11.91,0,0,0,30.2,20a7.41,7.41,0,0,0-1.85,2.8c-.25.6-.55,3.3-1.2,3.5C26.85,26.59,27,27,27.25,26.89Z"/><path class="cls-3" d="M4,11.09c-.25-.15-1.4.75-2.15,1.75l-.05.05a9.42,9.42,0,0,0-.6,6.55c1.3,5.15,6.65,8,8.6,9,2.2,1.15,4.65,2.45,7.75,1.95.55-.1,3.95-.6,5.7-3.4.9-1.4,1.15-3.1.85-3.25s-1.3,2.75-3.75,4.1c-3.4,1.9-7.85-.15-10-1.1S4.8,24.14,3.2,20.39a9.43,9.43,0,0,1-.75-5.45C2.9,12.74,4.2,11.29,4,11.09Z"/><path class="cls-2" d="M4,10.84C.6,11.09.45,16.94.85,19c.8,4,4.1,6.85,7.5,8.85,3.15,1.8,6.55,3.45,10.3,2.45A8.07,8.07,0,0,0,23,27.69c.7-.9,1.9-2.9,1.3-4.1a.26.26,0,0,0-.2-.1c-.35.05-.35.25-.6.45-1.3,1-1.6,2.75-3.25,3.65-3.4,1.9-7.65-.05-10.75-1.6A11.77,11.77,0,0,1,3,19.14a9.2,9.2,0,0,1,.7-6.8c.2-.4.6-.9.5-1.35,0-.25-.5-.15-.4.1.15.45-.8,1.8-1,2.2a9.38,9.38,0,0,0-.6,2.4,9.48,9.48,0,0,0,.4,3.55,10.85,10.85,0,0,0,4.45,5.85c4,2.65,10.75,5.65,14.75,1.75.3-.25,2-2.75,2.05-2.75.65.2-1.05,3-1.2,3.2a7.67,7.67,0,0,1-2.3,1.9c-3.55,1.8-7.1.75-10.45-1a19.94,19.94,0,0,1-6.45-4.85A10.13,10.13,0,0,1,1.1,16.89c0-1.55.6-5.4,2.85-5.6C4.2,11.29,4.2,10.84,4,10.84Z"/><path class="cls-4" d="M8.75,3.29c.35,0,1.55,2.9,1.85,4.1a8.8,8.8,0,0,0,3.6,5.25,17.88,17.88,0,0,0,6.25,3c2.9.6,8.35,1.6,8.4,2s-4.1,2.1-6.65,1.65c-4-.65-8.65-2.15-10.85-4.15-1.8-1.65-4.4-6.2-4.1-8.55C7.35,5.79,8.4,3.29,8.75,3.29Z"/><path class="cls-2" d="M8.7,3.39c1.5,1,1.8,4.4,2.55,5.95a10,10,0,0,0,3.1,3.55c3.9,2.85,8.2,3.25,12.8,4.35.85.2,1.65.15,1.05.8s-2.65.95-3.5,1.1c-3.35.55-7.55-.9-10.55-2.35a11.93,11.93,0,0,1-5.5-5.7A7.81,7.81,0,0,1,7.5,6.29c.1-.75.65-2.5,1.4-2.95.1,0,0-.25-.1-.2-1.35.75-1.7,3.6-1.45,4.95a13.39,13.39,0,0,0,4.7,7.65,22.07,22.07,0,0,0,10.5,3.65c1.5.15,5.6-.2,6.5-1.75v-.15c-.9-.95-3.55-1-4.75-1.25-3-.6-5.85-1.15-8.5-2.85a11.22,11.22,0,0,1-5-6.15c-.4-1.15-.8-3.4-1.9-4.15C8.7,3.14,8.55,3.29,8.7,3.39Z"/><path class="cls-4" d="M51.35,32.34c-.65.55-3.75-1.15-5.3-1.75-1.75-.65-5.25-.65-6.8-.55-.55.05-4.7.6-7.25,2.3s-3.65,3.5-3.9,3.3-.1-2.8,1.2-4.3c2.65-3.1,6.6-3.85,9.6-4,2.4-.1,8.7.4,10.15,2.3C49.5,30.39,51.6,32.09,51.35,32.34Z"/><path class="cls-2" d="M51.3,32.24c-1.65.7-4.55-1.65-6.3-2.05a18,18,0,0,0-5.9-.2,19.3,19.3,0,0,0-5,1.25c-2.15.85-3.3,2.35-5.15,3.6-1.35.9-.9-.55-.5-1.65a7.69,7.69,0,0,1,3.7-3.95,15.77,15.77,0,0,1,7.55-1.7,23,23,0,0,1,6.9.95c.9.3,4.7,2.55,4.65,3.85a.1.1,0,1,0,.2,0c0-1.05-2.85-3.25-3.75-3.7-2.45-1.2-5.75-1.4-8.45-1.35a14.83,14.83,0,0,0-8.45,2.5c-1.45,1.05-3.8,3.9-2.85,6,0,0,.05,0,.1,0,.3,0,.35-.25.6-.35,1.15-.55,2.3-2.25,3.4-2.95a17.41,17.41,0,0,1,7.2-2.3,16,16,0,0,1,8.25,1.15c1,.45,2.7,1.55,3.9,1.1C51.55,32.39,51.4,32.19,51.3,32.24Z"/><path class="cls-2" d="M6.1,8.39a17.82,17.82,0,0,0,11,11.35c3.85,1.35,9.2,2.4,12.2-1C36.4,10.84,22,1,15.05.09c-5.2-.7-9,3-9,8.1a.88.88,0,0,0,1.75,0A6.34,6.34,0,0,1,10.1,2.94c2.3-1.8,5.3-1.2,7.85-.25C21.9,4.24,26,7,28.15,10.69c1.5,2.6,1.85,5.6-.75,7.6-2.1,1.6-5.2.85-7.6.35A16,16,0,0,1,7.9,7.94C7.45,6.84,5.75,7.34,6.1,8.39Z"/><path class="cls-2" d="M28.9,32.84c2-4.2,7.15-4.7,11.25-4.9a16.14,16.14,0,0,1,6.55.7c2.9,1.1,5.8,4.2,4.65,7.5-1.65,5-8.55,7-13.25,6.8a14.77,14.77,0,0,1-5.3-1.1,7.39,7.39,0,0,1-3.8-9.2c.35-1.05-1.35-1.55-1.7-.45-1.85,5.35,1.55,10.65,6.85,12a18.65,18.65,0,0,0,12.2-1C51,41,55.45,36,52.15,30.94c-2.7-4.15-7.6-4.9-12.2-4.7s-10.4,1-12.6,5.75C26.9,32.94,28.4,33.84,28.9,32.84Z"/></g></g></svg>