<svg xmlns="http://www.w3.org/2000/svg" viewBox="0 0 77.62 99.86"><defs><style>.cls-1{fill:#723a29;}.cls-2{fill:#38301f;}.cls-3{fill:#eae3ca;}</style></defs><title>spacer1</title><g id="Layer_2" data-name="Layer 2"><g id="glasses"><path class="cls-1" d="M44.35,3.94c-9,1.2-16.55,6.45-23.2,12.45a69.85,69.85,0,0,0-10.9,12.85A13.94,13.94,0,0,0,8,34.19a56.6,56.6,0,0,1-4.2,11.1c-.2.55-.35,1.05-.55,1.6A55.12,55.12,0,0,0,2,52.59c.6-.45,1.2-.85,1.8-1.3a23.18,23.18,0,0,0-2.7,13.05,13.41,13.41,0,0,1,3.85-5.4,21,21,0,0,0-2.1,11.7l6-8.7c-3.15,6.4-6.35,14.3-2.9,21.25.95-3.7-.7-1.4,0,0a54.34,54.34,0,0,1,5.7-13.55c-1.7,6.15-.55,1,0,0a34.55,34.55,0,0,0,2.15,24c.4-5.7-.75-1.6,0,0A118.12,118.12,0,0,1,17.6,71.94c-1.1,3.7-.45,1.55,0,0a26.65,26.65,0,0,0-.8,11.4A27.44,27.44,0,0,0,20.75,94a24.81,24.81,0,0,0,4.15,5,47.59,47.59,0,0,1-2.85-10.45,48.72,48.72,0,0,1-.3-10.8A42.63,42.63,0,0,1,24,67.19a49.58,49.58,0,0,1,4.55-9.6c1.8-3,3.75-5.9,5.75-8.75s4-5.8,5.85-8.8a38.23,38.23,0,0,0,4.6-9.55c.8-3,.1-6.2-2.9-7.75a8.9,8.9,0,0,0-7.8-.1c-1.35.65-2.6,1.75-2.5,3.4.1,1.35,1.3,2.4,2.6,1.7a1.38,1.38,0,0,0,.8-1.4l-.65.7a3,3,0,0,1,3.9,1,3.7,3.7,0,0,1-.4,4.55c-2.25,2.75-6.5,2.65-9.15.5-3.2-2.55-3-7.35-1.95-10.9a17.09,17.09,0,0,1,7.15-9.25,18.86,18.86,0,0,1,11.65-3,6.13,6.13,0,0,1,1.6.35Z"/><path class="cls-2" d="M44.1,3.09c-11.3,1.65-21.25,9.4-28.6,17.75-3.65,4.15-7.2,8.55-8.7,14A56,56,0,0,1,3.25,44,33.62,33.62,0,0,0,1,52.29c-.15.7.6,1.5,1.3,1s1.2-.85,1.8-1.3l-1.2-1.2A25.74,25.74,0,0,0,.05,64.29a.9.9,0,0,0,1.75.25,13,13,0,0,1,3.65-5c-.45-.35-.9-.7-1.4-1A23.68,23.68,0,0,0,1.8,70.64a.89.89,0,0,0,1.65.45l6-8.7L8,61.49c-3.4,6.9-6.3,14.65-2.9,22.15a.88.88,0,0,0,1.6-.2c.15-.7.6-2,.15-2.7a.88.88,0,0,0-1-.4c-1.15.45-1.2,2.1-.85,3.1a.89.89,0,0,0,1.7,0A56.1,56.1,0,0,1,12.3,70.09l-1.6-.7a17.33,17.33,0,0,1-.8,2.75c.55,0,1,.15,1.6.2.2.6.15-.3.25-.75a7.68,7.68,0,0,1,.55-1.5l-1.6-.7A36.58,36.58,0,0,0,12.9,94c.4.85,1.6.35,1.65-.45s.5-2.9-.3-3.55A.92.92,0,0,0,13,90c-.8.85-.55,2.8-.2,3.8a.89.89,0,0,0,1.75-.25,119.3,119.3,0,0,1,3.85-21.4.88.88,0,0,0-1.7-.45c-.2.7-.45,1.35-.6,2a.88.88,0,0,0,1.7.45c.2-.65.4-1.35.6-2l-1.7-.45a28.15,28.15,0,0,0,7.5,28c.6.55,1.8,0,1.45-.85A45.54,45.54,0,0,1,23.5,71.74c2-8.55,6.8-15.75,11.7-22.9,2.5-3.6,5-7.25,7.15-11.05,1.65-2.9,3.55-6.4,3.45-9.8-.15-6.25-7.6-8.75-12.6-6-2,1.05-3.75,3.7-2,5.8a2.55,2.55,0,0,0,4.5-1.5.88.88,0,0,0-1.5-.6,8.94,8.94,0,0,1-.65.7.89.89,0,0,0,1,1.4c2-.35,3,.4,3.2,2.25a3.71,3.71,0,0,1-1.2,2.45,4.81,4.81,0,0,1-2.35,1.2A6.25,6.25,0,0,1,28.7,32c-2.45-2.45-2.2-6.55-1.2-9.6C29.85,15,38.9,8.89,46.75,11.09c.8.25,1.3-.65,1-1.3l-2.7-6.3c-.45-1.05-1.95-.15-1.5.9l2.7,6.3,1-1.3c-6.1-1.7-13.3,1.3-17.5,5.8-3.6,3.9-6.1,10.4-3.95,15.6,1.85,4.35,7.75,6.4,11.65,3.35a5.05,5.05,0,0,0,1.85-5.9,4,4,0,0,0-5.5-1.95c.35.45.7.9,1.05,1.4a8.94,8.94,0,0,1,.65-.7l-1.5-.6c-1.4-1.2-1.45-2.05-.15-2.6l1.1-.5a8.27,8.27,0,0,1,3.65-.45c2.35.25,4.6,1.4,5.3,3.85,1,3.65-1.5,7.75-3.25,10.75-3.95,6.85-8.95,13-12.95,19.85C20.1,70.14,18.45,85.44,24,99.44c.5-.3,1-.55,1.45-.85a26.4,26.4,0,0,1-7-26.25.88.88,0,0,0-1.7-.45c-.2.7-.4,1.35-.6,2l1.7.45c.2-.7.4-1.35.6-2l-1.7-.45a125.13,125.13,0,0,0-3.9,21.85c.6-.1,1.15-.15,1.75-.25a4.59,4.59,0,0,1-.25-1.4c-.05-.35.3-1,0-.65H13.05c-.4-.35,0,.2-.15.5a11.17,11.17,0,0,0-.1,1.8l1.65-.45A34.8,34.8,0,0,1,12.4,70c.25-1-1.15-1.6-1.6-.7S9.5,72,9.8,73a.88.88,0,0,0,1.6.2,17.73,17.73,0,0,0,1-3.15.89.89,0,0,0-1.6-.7A58.21,58.21,0,0,0,5,83.09H6.7c-.25-.7.3-1.15-.4-.9l-1-.4c-.1-.15-.25,1.1-.3,1.3.55,0,1-.15,1.6-.2-3.1-6.8-.2-14.1,2.9-20.35a.88.88,0,0,0-1.5-.9l-6,8.7,1.65.45a21.23,21.23,0,0,1,2-11.25.88.88,0,0,0-1.4-1,15.18,15.18,0,0,0-4.1,5.75c.6.1,1.15.15,1.75.25a23.41,23.41,0,0,1,2.6-12.6c.35-.7-.45-1.75-1.2-1.2-.6.45-1.2.85-1.8,1.3l1.3,1a36.75,36.75,0,0,1,2.45-8.6A75.18,75.18,0,0,0,8.1,37.14a26.12,26.12,0,0,1,3.2-7.6,70.67,70.67,0,0,1,5.55-7.2C24,14.14,33.65,6.64,44.65,5A1,1,0,0,0,44.1,3.09Z"/><path class="cls-1" d="M46.35,71.24c-1.05,1-2.4,1.8-3.05.45s-.7-4.3.45-5.2a5.36,5.36,0,0,1,4.2-.8c4.35.9,7,5.75,6.65,10.15S51.4,84.09,48.1,87c-2.7,2.4-6.15,4.45-9.7,3.9a9.91,9.91,0,0,1-6.2-4.1,24.8,24.8,0,0,1-3.2-6.9,81.16,81.16,0,0,1-3.15-13.8,24.56,24.56,0,0,0,2.9,27.05,15.31,15.31,0,0,0,8.8,5.4c4.35.65,8.7-1.35,12.15-4.1s6.2-6.25,9.45-9.2c2.05-1.85,4.4-3.7,5.15-6.35a8.33,8.33,0,0,1,1-2.9c.45-.6,1.15-1,1.6-1.5.85-1.15.55-2.8,1.1-4.15.75-1.75,3-2.9,2.85-4.8,0-.5-.3-1-.3-1.5a4.8,4.8,0,0,1,.6-2.15c.9-1.75,1.75-3.5,2.65-5.2.35-.75.7-1.75,0-2.25-.75.25-1.5.45-2.25.7a5.68,5.68,0,0,0,4.3-5.6,4.08,4.08,0,0,0-2.15.35,6.53,6.53,0,0,0,2.85-6.75,5.58,5.58,0,0,0-2.55,1.4,15.25,15.25,0,0,0,1.65-12.4,11.17,11.17,0,0,0-2.65,3.45,9.58,9.58,0,0,0,.4-10,17.5,17.5,0,0,1-4.6,8.75,14.87,14.87,0,0,0,.55-15.9A12.28,12.28,0,0,1,64.6,25a32.14,32.14,0,0,0-7.75-21.6c.45,5.4.6,10.85.55,16.3A20.06,20.06,0,0,0,43.35,1c3.85,7.35,7.3,15.1,8.25,23.3s-.9,17.15-6.55,23.2c-1.1,1.2-1.9,1.6-2.75,3a20.45,20.45,0,0,0-1.7,4c-1.5,5.25-3,10.5-4.35,15.8-.4,1.45-.85,2.15-.6,3.6.45,2.55,3.25,4.25,5.85,4.45s4.8-.2,6.3-2.25a4.39,4.39,0,0,0,1-3.25,2.11,2.11,0,0,0-2.55-1.7"/><path class="cls-2" d="M45.7,70.64c-1.6,1.35-2.15-.1-2-1.65.25-2.15,2.4-2.75,4.3-2.3a7.76,7.76,0,0,1,5.25,5.5c1.75,5.6-2,11.15-6.15,14.6-2.5,2.1-5.85,4.15-9.25,3.25-3-.8-5.15-3.4-6.45-6.1-2.65-5.5-3.85-12-4.7-18a.88.88,0,0,0-1.6-.2A25.54,25.54,0,0,0,23.4,85.14c1.85,5.9,6.1,12,12.2,14,7.4,2.45,14.15-2.8,19-7.8,2.8-2.85,5.95-5.5,8.55-8.5a10.83,10.83,0,0,0,2.1-3.6,7.33,7.33,0,0,1,1.3-3,8.93,8.93,0,0,0,1.55-1.8A9.38,9.38,0,0,0,68.6,72a7.25,7.25,0,0,1,1.9-3.35,4.82,4.82,0,0,0,1.3-3.2,9.53,9.53,0,0,1,.85-4.35c.6-1.15,1.2-2.3,1.75-3.5s1.1-2.35.25-3.6a.88.88,0,0,0-1-.4c-.75.25-1.5.45-2.25.7a.88.88,0,0,0,.45,1.7,6.8,6.8,0,0,0,5-6.45.93.93,0,0,0-.9-.9,7.44,7.44,0,0,0-2.35.35c.25.55.45,1.05.7,1.6a7.59,7.59,0,0,0,3.25-7.7.86.86,0,0,0-1.1-.6,7.49,7.49,0,0,0-3,1.65c.45.35.9.7,1.4,1a16.7,16.7,0,0,0,1.75-13.1.88.88,0,0,0-1.45-.4,13.17,13.17,0,0,0-2.8,3.6.88.88,0,0,0,1.5.9,10.75,10.75,0,0,0,.4-10.95.89.89,0,0,0-1.6.2,17.7,17.7,0,0,1-4.35,8.35c.45.35.9.7,1.4,1a16,16,0,0,0,.55-16.8.88.88,0,0,0-1.6.2,12.13,12.13,0,0,1-4.35,6.1c.45.25.9.5,1.3.75a33.36,33.36,0,0,0-8-22.2.89.89,0,0,0-1.5.6c.4,5.4.6,10.85.55,16.3h1.75A21.21,21.21,0,0,0,43.65,0a.9.9,0,0,0-1,1.3c7.05,13.55,14.15,33.3,1.3,46a16.88,16.88,0,0,0-4.4,7.8c-1.25,4.3-2.45,8.65-3.6,13-.75,2.75-2,5.5-.1,8.1,1.65,2.25,4.55,3.1,7.2,3,3-.1,5.85-1.8,6.55-4.85.55-2.45-1.15-4.55-3.65-4.15-1.1.15-.65,1.85.45,1.7,1.6.75,2,1.75,1.05,3.1a4.88,4.88,0,0,1-1.6,1.75,5.6,5.6,0,0,1-2.8.75,6.72,6.72,0,0,1-5.55-2c-1.75-2-.45-4.65.15-6.85s1.15-4.35,1.75-6.5c1.05-3.9,1.7-9,4.4-12.2,2.15-2.5,4.25-4.4,5.75-7.4,7-13.85,1.2-29.3-5.45-42.05l-1,1.3a19.44,19.44,0,0,1,13.4,17.9.88.88,0,0,0,1.75,0c0-5.45-.1-10.85-.55-16.3L56.2,4a31.57,31.57,0,0,1,7.5,21,.87.87,0,0,0,1.3.75,14.14,14.14,0,0,0,5.2-7.15c-.55.05-1,.15-1.6.2a14.13,14.13,0,0,1-.55,15,.88.88,0,0,0,1.4,1,18.92,18.92,0,0,0,4.8-9.1c-.55.05-1,.15-1.6.2a9.08,9.08,0,0,1-.4,9.15l1.5.9a11.47,11.47,0,0,1,2.55-3.25c-.5-.15-1-.25-1.45-.4a14.78,14.78,0,0,1-1.6,11.7c-.55.9.65,1.7,1.4,1a5.27,5.27,0,0,1,2.2-1.2c-.35-.2-.7-.4-1.1-.6a5.79,5.79,0,0,1-2.45,5.75c-.75.55-.35,1.95.7,1.6a3.14,3.14,0,0,1,1.9-.3l-.9-.9a4.87,4.87,0,0,1-3.65,4.75c.15.55.3,1.15.45,1.7.75-.25,1.5-.45,2.25-.7l-1-.4c1,1.4-2.45,5.9-3,7.3s.2,3.3-.45,4.65-1.9,2-2.45,3.3a28.62,28.62,0,0,0-.55,2.85c-.45,1.3-1.2,1.5-1.9,2.45-1.15,1.45-1.1,3.5-2.1,5a24.74,24.74,0,0,1-4.05,4.2c-3.1,2.9-5.8,6.25-9.1,9-3.6,3-8.35,5.2-13.1,3.85-4-1.15-7.15-4.5-9.2-8a23.92,23.92,0,0,1-.55-22.85c-.55,0-1.05-.15-1.6-.2a89.15,89.15,0,0,0,2.7,12.45c.95,3.25,2.1,6.65,4.3,9.25,4.55,5.4,11,4.3,16,.1,4.45-3.75,8.45-9.5,7.15-15.6-1-4.7-6.05-9.9-11.2-7.35-2.1,1-2.45,3.85-1.85,5.95.8,2.75,3,2.15,4.75.6C47.8,71.14,46.55,69.89,45.7,70.64Z"/><path class="cls-2" d="M33,42.24a100.57,100.57,0,0,0-10.85,14.3A41.05,41.05,0,0,0,17.2,71.39c-.1.55.75.8.85.25A40.86,40.86,0,0,1,22.9,57a94.3,94.3,0,0,1,10.7-14.1C34,42.44,33.35,41.84,33,42.24Z"/><path class="cls-2" d="M27.45,44.59A26.5,26.5,0,0,0,15,56a39.15,39.15,0,0,0-3.8,13.65c0,.55.8.55.9,0a39.12,39.12,0,0,1,3.7-13.2A25.59,25.59,0,0,1,28,45.39C28.4,45.14,28,44.39,27.45,44.59Z"/><path class="cls-2" d="M24.35,43.14a31.49,31.49,0,0,0-10.3,8A43.52,43.52,0,0,0,8.5,61.29c-.25.5.55,1,.75.45a48.84,48.84,0,0,1,5-9.45,29.49,29.49,0,0,1,10.5-8.35C25.3,43.69,24.85,42.89,24.35,43.14Z"/><path class="cls-2" d="M21.8,40.09c-7.6,4.65-12.8,11-17.25,18.6a.44.44,0,0,0,.75.45c4.4-7.45,9.5-13.7,17-18.25C22.7,40.54,22.25,39.79,21.8,40.09Z"/><path class="cls-2" d="M20.35,36.69A39.31,39.31,0,0,0,10.25,43,61.09,61.09,0,0,0,3.4,50.94c-.35.45.3,1.05.6.6A60.67,60.67,0,0,1,10.35,44a37.1,37.1,0,0,1,10.4-6.6C21.3,37.24,20.85,36.49,20.35,36.69Z"/><path class="cls-2" d="M18.2,32.14a23.29,23.29,0,0,0-7.15,4.15c-2,1.6-4.2,3.1-5.7,5.15-.35.45.45.9.75.45,1.35-1.8,3.4-3.15,5.1-4.55A24.74,24.74,0,0,1,18.4,33C19,32.79,18.7,31.94,18.2,32.14Z"/><path class="cls-2" d="M57,19.74c.75,6.25-1,12.8-2.45,18.85A42.17,42.17,0,0,1,45.9,56c-.35.45.25,1,.6.6a42.46,42.46,0,0,0,8.65-17.05c1.6-6.25,3.45-13.25,2.7-19.8C57.8,19.19,56.9,19.19,57,19.74Z"/><path class="cls-2" d="M64.2,24.94A67,67,0,0,1,50,55c-.35.45.25,1,.6.6a68.07,68.07,0,0,0,14.5-30.45C65.15,24.64,64.3,24.39,64.2,24.94Z"/><path class="cls-2" d="M69,33.64A109.45,109.45,0,0,1,54.1,55.19c-.4.4.25,1.05.6.6A112,112,0,0,0,69.65,34C70,33.59,69.25,33.14,69,33.64Z"/><path class="cls-2" d="M72.65,35.54c-1.45,4-2.6,7.85-5,11.4a42.7,42.7,0,0,1-9,9.55c-.45.35.2.95.6.6a46.51,46.51,0,0,0,9.1-9.7c2.45-3.6,3.65-7.55,5.1-11.6A.44.44,0,0,0,72.65,35.54Z"/><path class="cls-2" d="M73.65,44.39c-1.55,2.2-3,4.55-4.5,6.8a50.2,50.2,0,0,1-7.3,8.3.42.42,0,0,0,.6.6,51.45,51.45,0,0,0,7.1-8c1.65-2.4,3.15-4.9,4.8-7.3C74.75,44.39,74,43.94,73.65,44.39Z"/><path class="cls-2" d="M71.25,55c-1,1.35-1.9,2.8-2.9,4.15a19.49,19.49,0,0,1-5.4,4.7.44.44,0,0,0,.45.75,21.39,21.39,0,0,0,5.25-4.45c1.2-1.5,2.2-3.15,3.35-4.7C72.35,55,71.55,54.54,71.25,55Z"/><path class="cls-3" d="M18.8,22.39a1.18,1.18,0,0,0,1.7-.75,1.13,1.13,0,0,0-.65-1.05,1,1,0,0,0-1.35.4A1,1,0,0,0,18.8,22.39Z"/><path class="cls-2" d="M18.7,22.49a1.31,1.31,0,0,0,1.6-.3,1,1,0,0,0-.2-1.55,1.23,1.23,0,0,0-1.65.2,1.19,1.19,0,0,0,.25,1.65c.1.1.2-.1.1-.2a.94.94,0,0,1-.05-1.5,1,1,0,0,1,1.3.15c.8.8-.45,1.8-1.3,1.35C18.7,22.24,18.6,22.44,18.7,22.49Z"/><path class="cls-3" d="M22.9,25a1.23,1.23,0,0,0,0,2.3c.7.15,1.7-.85,1.45-1.6A1.27,1.27,0,0,0,22.9,25Z"/><path class="cls-2" d="M22.85,24.94A1.33,1.33,0,0,0,22,26.59a1,1,0,0,0,1.4.8,1.64,1.64,0,0,0,1-1.5c0-.7-.85-1.05-1.55-.95-.15,0-.1.25,0,.2.55-.1,1.3.25,1.25.95a1.71,1.71,0,0,1-.75,1.1c-1.2.7-1.75-1.55-.5-2C23.05,25.14,23,24.89,22.85,24.94Z"/><path class="cls-3" d="M36.45,7.69c.5,0,1.15.35,1.2.75S37,9.44,36.2,10c-1.1.75-3,1.95-4,1.3a1.08,1.08,0,0,1-.5-1c.1-.45.75-.5,1.8-1C35.25,8.44,35.45,7.64,36.45,7.69Z"/><path class="cls-2" d="M36.45,7.79q.9,0,.9,1.2a5,5,0,0,1-.8.65,8.22,8.22,0,0,1-1.1.7A8.55,8.55,0,0,1,34.3,11a2.46,2.46,0,0,1-.85.3c-.5.2-.8,0-.9-.65-.6-.5-.55-.8.05-.9a3.06,3.06,0,0,0,.6-.25,12,12,0,0,0,1.15-.55c.65-.4,1.25-1.15,2.1-1.15.15,0,.15-.2,0-.2a2.23,2.23,0,0,0-1.45.6A21.83,21.83,0,0,1,32.2,9.64c-.9.5-.45,1.65.5,1.85,1.4.3,3.25-1.15,4.25-2s1-1.75-.45-2C36.35,7.59,36.3,7.79,36.45,7.79Z"/><path class="cls-3" d="M10.2,52.74c.15.1.6-.4,3.15-2.4,5.8-4.55,9-6.35,8.8-6.8s-2.45.3-4.3,1.2C12.7,47.34,9.85,52.39,10.2,52.74Z"/><path class="cls-2" d="M10.2,52.84c.35.1,1-.65,1.2-.8,2.25-1.85,4.55-3.6,6.9-5.3.4-.3,4.25-2.45,3.95-3.25-.65-1.55-7.3,2.95-8,3.55-.85.75-4.75,4.2-4.1,5.75,0,.15.25,0,.2-.1-.2-.5.9-1.85,1.15-2.2a18.25,18.25,0,0,1,2.95-3.25,17.26,17.26,0,0,1,4.95-3,5.27,5.27,0,0,1,1.9-.6c1.25.15.45.2.15.6a10.43,10.43,0,0,1-2.25,1.65c-1.05.75-2.1,1.5-3.15,2.3s-2.25,1.7-3.35,2.6c-.2.15-2.1,2-2.4,1.9S10.05,52.79,10.2,52.84Z"/><path class="cls-3" d="M5,54.34c.35.25,1.65-1.7,4.85-4.9,3.7-3.75,5.5-4.75,5.35-5.1-.3-.5-5.3,1-8.25,5.1C5.4,51.54,4.6,54.09,5,54.34Z"/><path class="cls-2" d="M5,54.44c.5.15,1-.75,1.35-1,1.6-1.75,3.2-3.55,4.9-5.2.35-.35,4.4-3.35,4.05-3.95-.65-1.15-5.5,2.2-5.9,2.5a14,14,0,0,0-3.8,4.75c-.3.65-1.15,2.15-.65,2.85.1.1.25,0,.2-.1-.65-1,1.05-3.45,1.55-4.3a12.43,12.43,0,0,1,3.7-3.7,16.17,16.17,0,0,1,3.2-1.65c.65-.2,1.45-.6,1.15.15-.2.5-1.4,1.2-1.75,1.55-1.1,1-2.15,2-3.2,3.05s-2,2.15-3,3.25c-.25.3-1.25,1.75-1.7,1.6C4.85,54.24,4.8,54.44,5,54.44Z"/><path class="cls-3" d="M17.65,49.69c.15-.5.7-1.7,4-3.4.4-.2,2.45-1.25,2.6-1s-.7.7-2.35,2.1c-2.75,2.35-3.9,3.65-4.3,3.4C17.35,50.59,17.55,49.89,17.65,49.69Z"/><path class="cls-2" d="M17.75,49.69a5.45,5.45,0,0,1,2.35-2.4c.2-.1,3.75-2.2,3.9-1.95.05.1-.85.8-1.1,1-.8.65-1.6,1.35-2.4,2-.6.55-1.2,1-1.8,1.6s-1.4,1.2-.95-.25c.05-.15-.15-.2-.2,0-.5,1.55.35,1.25,1.25.5,1.2-1,2.3-2,3.5-3,.25-.2,2.1-1.4,2-1.8-.15-.7-2.35.65-2.7.85-1.45.75-3.45,1.8-4.05,3.5C17.5,49.79,17.7,49.84,17.75,49.69Z"/><path class="cls-3" d="M18.45,83.39c.35,0,.85,1,1.05,1.45a17.32,17.32,0,0,1,.4,2c.25,1.15.4,1.25.55,2.2.1.7.25,1.65,0,1.8s-1.9-1.75-2.35-4C17.85,85.29,18,83.49,18.45,83.39Z"/><path class="cls-2" d="M18.45,83.54c1,.25,1.15,2.1,1.3,2.9.2,1.1.9,2.4.8,3.6-.1,1-.45.5-.9-.05a7.65,7.65,0,0,1-1-2c-.3-.8-1.1-3.85-.05-4.45.1-.05,0-.25-.1-.2-1.15.7-.45,3.5-.15,4.45.15.5,1.3,3.5,2.2,3.15s-.2-3-.3-3.4c-.3-1.05-.3-3.85-1.7-4.2C18.35,83.29,18.3,83.49,18.45,83.54Z"/><path class="cls-3" d="M19,76.89a1.59,1.59,0,0,0-.75,1.8c.2.85,1.05,1.45,1.6,1.3a2,2,0,0,0,.4-2.8A1.06,1.06,0,0,0,19,76.89Z"/><path class="cls-2" d="M19,76.79A1.68,1.68,0,0,0,18.3,79c.25.6,1.1,1.35,1.8,1a2.09,2.09,0,0,0,.7-2A1.37,1.37,0,0,0,19,76.79a.11.11,0,0,0,.1.2c1.6-.5,2.05,1.9,1.05,2.7s-2.6-2-1-2.75C19.2,76.89,19.1,76.74,19,76.79Z"/><path class="cls-3" d="M42.65,27.24c-.45-.1-1.35.7-1.15,1.55a1.21,1.21,0,0,0,1.55.8C43.6,29.24,43.25,27.34,42.65,27.24Z"/><path class="cls-2" d="M42.65,27.14c-.65-.05-1.25.7-1.3,1.3a1.33,1.33,0,0,0,1.3,1.35c1.25,0,.9-2.4,0-2.65-.1-.05-.15.15,0,.2.6.2.95,2.1.15,2.2a1.19,1.19,0,0,1-1.2-1c0-.5.5-1.25,1.05-1.2C42.8,27.34,42.8,27.14,42.65,27.14Z"/><path class="cls-3" d="M30.1,42.19c-.3.2-.8.65-.75,1.15a1.24,1.24,0,0,0,1.35.8c1.1-.15,1.8-2,1.35-2.5C31.75,41.24,30.7,41.69,30.1,42.19Z"/><path class="cls-2" d="M30,42.09c-.65.55-1.15,1.4-.2,1.9a1.44,1.44,0,0,0,2-.55c.3-.45.75-1.35.4-1.9s-1.75.2-2.2.55c-.1,0,0,.25.15.15.35-.25,1.45-1,1.9-.6s0,1.1-.2,1.4a1.39,1.39,0,0,1-1.45.9.91.91,0,0,1-.85-.75c-.05-.45.35-.75.65-1C30.25,42.14,30.1,42,30,42.09Z"/><path class="cls-3" d="M57.5,32.39a1.17,1.17,0,0,0-.65,1.45A1.42,1.42,0,0,0,59,34C59.2,33.54,58.25,32.19,57.5,32.39Z"/><path class="cls-2" d="M57.5,32.29a1.23,1.23,0,0,0-.65,1.7c.3.55,1.15.6,1.7.45a.71.71,0,0,0,.5-1.1c-.3-.55-.9-1.15-1.55-1.05-.15.05-.1.25,0,.2.5-.1,1,.4,1.2.8s.2.8-.3.9a1.51,1.51,0,0,1-1.3-.2c-.5-.4-.15-1.35.4-1.5C57.7,32.44,57.65,32.24,57.5,32.29Z"/><path class="cls-3" d="M70.1,24.49c-.1,0-.25.4-1.15,2.35-.75,1.7-1,2.2-.8,2.8s.65.95.95.9.4-.65.75-3.05C70.2,24.84,70.2,24.54,70.1,24.49Z"/><path class="cls-2" d="M70.1,24.39c-.2,0-.3.35-.4.5-.5,1-1,2.05-1.4,3.1A2.83,2.83,0,0,0,68,29.54c.1.4.6,1.25,1.1,1.1.75-.15.7-2.2.8-2.75.05-.35.75-3.25.25-3.5-.15-.05-.25.15-.1.2a10.68,10.68,0,0,1-.15,1.7c-.1.9-.2,1.8-.35,2.65a4.26,4.26,0,0,1-.2,1.15c-.5.65-1.2-.6-1.1-1.2a9.18,9.18,0,0,1,.75-1.8,14.46,14.46,0,0,1,1.1-2.5C70.25,24.59,70.25,24.39,70.1,24.39Z"/><path class="cls-3" d="M27.4,84.44c-.4.1-.65.85-.5,1.35a1.77,1.77,0,0,0,2.4.75C29.65,86,28.2,84.24,27.4,84.44Z"/><path class="cls-2" d="M27.35,84.39c-.8.35-.7,1.6-.15,2.1a2.11,2.11,0,0,0,1.95.35c1.15-.5-.9-2.7-1.8-2.45-.1,0-.05.25.1.2.65-.15,2.35,1.6,1.7,2a1.89,1.89,0,0,1-1.55-.15c-.65-.35-1-1.55-.15-1.9C27.6,84.49,27.5,84.29,27.35,84.39Z"/><path class="cls-3" d="M36.05,93a1.11,1.11,0,0,0-.3,1.15c.2.75,1.45,1.15,2.35.8.5-.2,1.15-.75,1-1.2C39,92.94,36.9,92.24,36.05,93Z"/><path class="cls-2" d="M36,92.94a1.23,1.23,0,0,0,.3,2,2.16,2.16,0,0,0,2.7-.5c.55-.7,0-1.3-.6-1.6a2.3,2.3,0,0,0-2.4.1.11.11,0,0,0,.15.15c.65-.55,2.9-.35,2.8.8-.1.85-1.2,1.15-1.9,1-.9-.15-1.65-1-.9-1.85A.11.11,0,1,0,36,92.94Z"/><path class="cls-3" d="M58.75,82.29c-1.1.15-1.35,1.1-2.9,2.75-1.75,1.85-3.1,2.45-2.9,3.15.15.45.85.6.95.65,2.85.65,7.3-4.6,6.45-6C60.05,82.29,59.2,82.24,58.75,82.29Z"/><path class="cls-2" d="M58.7,82.19c-1.1.25-1.6,1.2-2.3,2-1,1.15-2.5,2-3.35,3.25s1.1,1.65,2.05,1.45a8.53,8.53,0,0,0,4.85-4c.85-1.4.85-2.85-1.25-2.7-.1,0-.1.25,0,.2,3.1-.2.8,2.9,0,3.75a7.86,7.86,0,0,1-3.6,2.5c-.75.2-2.7,0-1.8-1.25a10.48,10.48,0,0,1,1.75-1.55c1.05-1,2.2-3.2,3.65-3.5C58.9,82.34,58.85,82.14,58.7,82.19Z"/><path class="cls-3" d="M63,70.19a1.22,1.22,0,0,0-1.7.55c-.15.65.8,1.5,1.35,1.3A1.27,1.27,0,0,0,63,70.19Z"/><path class="cls-2" d="M63.05,70.09a1.3,1.3,0,0,0-1.65.3c-.45.5,0,1.15.4,1.5a.87.87,0,0,0,1.35-.1,1.35,1.35,0,0,0-.1-1.7c-.1-.1-.25.1-.15.15a1.05,1.05,0,0,1,.1,1.25c-.25.55-.75.5-1.15.15s-.65-.85-.25-1.25a1.07,1.07,0,0,1,1.3-.15C63.05,70.34,63.2,70.14,63.05,70.09Z"/><path class="cls-3" d="M62.05,67.34a1.36,1.36,0,0,0-.9,1.55c.3,1,2.35,1.1,2.65.55S63,67.14,62.05,67.34Z"/><path class="cls-2" d="M62,67.24a1.4,1.4,0,0,0-.85,2,2.31,2.31,0,0,0,2.1.65c1.7-.3,0-2.75-1.25-2.6-.15,0-.1.25,0,.2.65-.1,1.15.55,1.45,1a1.51,1.51,0,0,1,.25.8c0,.3-.3.35-.55.4a2.14,2.14,0,0,1-1.55-.3,1.1,1.1,0,0,1,.4-1.9C62.2,67.44,62.15,67.19,62,67.24Z"/><path class="cls-3" d="M61.65,64.14c-1,0-2.1.75-2,1.3.15.9,3.55,1.55,4,.8C63.85,65.74,63,64.19,61.65,64.14Z"/><path class="cls-2" d="M61.65,64c-.65,0-2.6.6-2,1.6.4.75,1.75,1,2.5,1,.55,0,1.7.1,1.7-.7A2.57,2.57,0,0,0,61.65,64a.1.1,0,1,0,0,.2c.75.1,1.9.8,1.9,1.7,0,.6-1,.5-1.45.45a4.86,4.86,0,0,1-1.85-.5c-1.3-.75.6-1.65,1.4-1.65C61.8,64.24,61.8,64,61.65,64Z"/><path class="cls-3" d="M55.5,60.19a1.81,1.81,0,0,0-2,.8,1.77,1.77,0,0,0,1.15,2.25A2.1,2.1,0,0,0,56.9,61,1.71,1.71,0,0,0,55.5,60.19Z"/><path class="cls-2" d="M55.5,60c-.9-.1-2,.25-2.15,1.25a1.89,1.89,0,0,0,1.55,2.1A2.36,2.36,0,0,0,57,61.79c.3-1-.55-1.55-1.45-1.75-.1,0-.15.2,0,.2.85.15,1.6.7,1.2,1.65a2.18,2.18,0,0,1-1.55,1.25,1.57,1.57,0,0,1-1.55-1.7c.05-1,1.15-1.25,2-1.2C55.65,60.29,55.65,60.09,55.5,60Z"/><path class="cls-3" d="M48.8,59c0,.05-1.25,1-1,1.8s2.15,1.6,3.4.8a2.24,2.24,0,0,0,1-2.75C51.55,58,49.8,58.29,48.8,59Z"/><path class="cls-2" d="M48.75,58.94c-.7.5-1.55,1.5-.85,2.35a2.8,2.8,0,0,0,3.3.45c.85-.5,1.65-2,1-2.9-.8-1.1-2.6-.45-3.45.1-.1.1,0,.25.1.2a3,3,0,0,1,2.65-.55c1.35.55.45,2.4-.45,2.95a2.6,2.6,0,0,1-2.75-.15c-.95-.7-.2-1.7.55-2.25C49,59,48.85,58.84,48.75,58.94Z"/><path class="cls-3" d="M45,62.69a1.58,1.58,0,0,0-.25,1c.2.7,1.8,1.1,2.2.65s-.75-2.55-1.35-2.4C45.3,61.89,45.15,62.24,45,62.69Z"/><path class="cls-2" d="M44.85,62.64c-.15.4-.4.8-.2,1.25a1.38,1.38,0,0,0,.8.6c.45.15,1.45.35,1.6-.35a2.51,2.51,0,0,0-.85-2c-.15-.15-.4-.4-.65-.4s-.6.55-.7.85.15.25.2.1c.15-.3.3-.85.7-.7.2.05.35.3.45.45a2.59,2.59,0,0,1,.65,1.4c0,.65-.7.6-1.1.45a1.57,1.57,0,0,1-.75-.4c-.35-.35-.15-.8,0-1.2C45.1,62.59,44.9,62.49,44.85,62.64Z"/><path class="cls-3" d="M41.3,74c-.1.05-.85.5-.8,1.05s1.3,1.1,2.25.9,1.65-1,1.55-1.55C44.1,73.69,42.4,73.34,41.3,74Z"/><path class="cls-2" d="M41.25,73.89c-.55.35-1.2,1-.65,1.6a2.33,2.33,0,0,0,2.9.2c.6-.35,1.3-1.2.55-1.75a2.68,2.68,0,0,0-2.8,0c-.15,0,0,.25.1.2a2.88,2.88,0,0,1,2-.2c.35.1.85.3.8.8s-.5.7-.75.85a2.26,2.26,0,0,1-2.25.1c-.85-.45-.4-1.15.2-1.55C41.45,74,41.35,73.79,41.25,73.89Z"/></g></g></svg>