<svg xmlns="http://www.w3.org/2000/svg" viewBox="0 0 30.34 25.54"><defs><style>.cls-1{fill:#a34a27;}.cls-2{fill:#38301f;}.cls-3{fill:#f26733;}.cls-4{fill:#ad9689;}</style></defs><title>tack2</title><g id="Layer_2" data-name="Layer 2"><g id="Layer_9" data-name="Layer 9"><path class="cls-1" d="M21.72,4.36c2.45.15,3.5,1.6,3.7,3.85l-6.55,6.3c-2-2.55-3.75-4-5.35-4.5Z"/><path class="cls-2" d="M21.72,5.26c1.65.2,1.85.9,2.65,2.05.1.15.2,1,.4.35,0,0-.15.15-.2.2A17.1,17.1,0,0,1,22.42,10l-4.1,3.95h1.25C18,12,16.27,10,13.87,9.16c.05.55.15,1.05.2,1.6,2.7-1.9,5.45-3.75,8.15-5.65,1-.65.05-2.15-.9-1.5-2.7,1.9-5.45,3.75-8.15,5.65a.89.89,0,0,0,.2,1.6c2.1.75,3.6,2.65,5,4.3a.88.88,0,0,0,1.25,0c2.05-1.95,4.25-3.8,6.15-5.9,2.35-2.55-1.5-5.5-3.9-5.75C20.57,3.36,20.62,5.11,21.72,5.26Z"/><path class="cls-3" d="M24,5.21c1.75,2,1.45,2.6,2.05,3.15.75.7,1.2,1.15,1.8,1.1a1.77,1.77,0,0,0,1.5-1c1-2.25-5.8-8.65-7.9-7.5a1.75,1.75,0,0,0-.7,1.35C20.47,4.46,22.52,4.16,24,5.21Z"/><path class="cls-2" d="M23.37,5.81c.95,1.1,1.35,2.55,2.45,3.55s2.7,1.45,3.9.15c1.85-2-.9-5-2.3-6.35s-4.25-4-6.35-2.9A2.89,2.89,0,0,0,20,3.61c.55,1.5,2.35,1.6,3.55,2.4.95.6,1.85-.9.9-1.5-.7-.45-1.8-.55-2.4-1.1-.4-.35-.75-1.25-.05-1.6.15-.1.5.1.65.1,1.45.25,3,1.85,3.95,2.9.35.4,3.4,4.15,1,3.75-.7-.1-1.1-1.1-1.4-1.65a12.57,12.57,0,0,0-1.6-2.3C23.87,3.71,22.62,5,23.37,5.81Z"/><path class="cls-3" d="M9,15.61a4.28,4.28,0,0,1-3.25-3.8A2.25,2.25,0,0,1,6.17,10c1.15-1.45,4.1-.65,5.3-.35a12.31,12.31,0,0,1,5.1,2.9c1.25,1.2,2.45,2.3,2.5,4a4,4,0,0,1-1.35,3c-1.3,1-2.95.5-3.65.45-1.85-.15-2.9-2.3-2.9-2.3"/><path class="cls-2" d="M9.22,14.76c-1.7-.35-4.35-3.9-1.05-4.75,1.4-.35,3.8.6,5.05,1.2,2,1,5.25,3.35,4.85,5.95-.55,3.45-5.15,2.05-6.2,0-.55-1-2-.1-1.5.9,1.5,2.85,6.1,4.25,8.45,1.55,3.15-3.6-1-7.8-4.1-9.6-2.35-1.35-7.8-3.35-9.5-.15-1.35,2.55.8,6.05,3.5,6.6C9.87,16.71,10.32,15,9.22,14.76Z"/><path class="cls-4" d="M11.07,14.31.47,25.11l12-9Z"/><path class="cls-2" d="M10.73,14c-3.55,3.6-7,7.2-10.6,10.75-.35.35.09,1,.55.7l12-9c.15-.15.31-.4.16-.6-.45-.6-.91-1.2-1.41-1.8-.35-.45-1.1,0-.75.45s.91,1.15,1.31,1.7c-.35-.4.55-.6-.5,0a45,45,0,0,0-3.95,2.95C5.08,21,2.63,22.81.23,24.66l.55.7c3.55-3.6,7.05-7.2,10.59-10.75C11.78,14.21,11.13,13.61,10.73,14Z"/></g></g></svg>