<svg xmlns="http://www.w3.org/2000/svg" viewBox="0 0 18.05 34.54"><defs><style>.cls-1{fill:#bfcbc8;}.cls-2{fill:#38301f;}.cls-3{fill:#82c6d7;}.cls-4{fill:#ad9689;}</style></defs><title>tack1</title><g id="Layer_2" data-name="Layer 2"><g id="Layer_9" data-name="Layer 9"><path class="cls-1" d="M4.16,7c1-2.25,2.7-2.75,4.9-2.15l3.65,8.35c-3.1,1-5.1,2.15-6.1,3.45Z"/><path class="cls-2" d="M5,7.42c.6-1.2,2.55-2.75,3.55-1.75a10,10,0,0,1,1.25,2.9c.75,1.65,1.45,3.35,2.2,5,.2-.45.35-.85.55-1.3-2.35.8-4.85,1.7-6.45,3.65.5.15,1,.25,1.45.4-.8-3.2-1.65-6.4-2.45-9.6a.88.88,0,0,0-1.7.45c.8,3.2,1.65,6.4,2.45,9.6a.88.88,0,0,0,1.45.4c1.4-1.75,3.65-2.5,5.7-3.2a.92.92,0,0,0,.55-1.3c-1.1-2.5-2.15-5-3.3-7.55-1.45-3.1-5.6-.9-6.75,1.4C2.91,7.57,4.41,8.47,5,7.42Z"/><path class="cls-3" d="M5.71,5.17c2.5-1,3-.45,3.65-.8.9-.45,1.45-.75,1.65-1.3a1.82,1.82,0,0,0-.4-1.75C8.81-.43.51,3.77.86,6.17a1.72,1.72,0,0,0,1,1.15C3.81,8.17,4.26,6.17,5.71,5.17Z"/><path class="cls-2" d="M6,6c2.05-.75,7.4-.9,5.8-4.6C10.71-1,7.06.27,5.31,1.07S-.19,3.67,0,6.12a2.8,2.8,0,0,0,2.8,2.25c1.6,0,2.4-1.7,3.5-2.6.9-.7-.35-1.95-1.25-1.25C4.46,5,3.91,6,3.26,6.32c-1.2.65-1.7-.35-1-1.2A9.7,9.7,0,0,1,6,2.62c.55-.25,5.35-1.9,3.85.45-.35.5-1.15.5-1.65.55a27.37,27.37,0,0,0-2.75.65C4.41,4.67,4.86,6.37,6,6Z"/><path class="cls-3" d="M10.36,22.82a4.18,4.18,0,0,1-4.7,1.7,2.53,2.53,0,0,1-1.55-1.05c-1-1.55.8-4,1.5-5.1a12,12,0,0,1,4.45-3.8c1.55-.75,3-1.5,4.6-1A3.82,3.82,0,0,1,17,15.92c.5,1.55-.55,3-.85,3.6C15.41,21.17,13,21.47,13,21.47"/><path class="cls-2" d="M9.61,22.37c-.9,1.45-4.45,2.35-4.9.1-.3-1.55,1.8-3.95,2.85-5,1.65-1.65,5.35-4.15,7.65-2.5,2.6,1.9-.05,5.35-2.4,5.7-1.1.15-.65,1.85.45,1.7,3.25-.45,6.1-4.55,4.15-7.65-2.55-3.9-7.7-1.45-10.4.9-2,1.7-5.4,5.8-3.5,8.5s6.15,1.5,7.65-.85A.9.9,0,0,0,9.61,22.37Z"/><path class="cls-4" d="M9.81,20.42l6.5,13.65L12,19.77Z"/><path class="cls-2" d="M9.46,20.67l6.45,13.65c.2.45.95.15.8-.35-1.45-4.8-2.85-9.55-4.3-14.35a.43.43,0,0,0-.55-.3c-.7.25-1.45.45-2.15.7a.44.44,0,0,0,.25.85c.3-.1,2.3-.7,1.85-.8s-.05.25,0,.75c.35,1.6,1,3.25,1.45,4.8.85,2.85,1.7,5.75,2.6,8.6l.8-.35L10.26,20.22A.46.46,0,0,0,9.46,20.67Z"/></g></g></svg>