<svg xmlns="http://www.w3.org/2000/svg" viewBox="0 0 16.4 35.34"><defs><style>.cls-1{fill:#f5bb3a;}.cls-2{fill:#38301f;}.cls-3{fill:#da9b36;}.cls-4{fill:#eae3ca;}</style></defs><title>tack4</title><g id="Layer_2" data-name="Layer 2"><g id="Layer_9" data-name="Layer 9"><path class="cls-1" d="M6,5.43c1.6-1.85,3.4-1.8,5.35-.6l1,9.05c-3.25,0-5.5.5-6.85,1.45Z"/><path class="cls-2" d="M6.65,6.08C8,4.68,9.35,4.73,10.9,5.63l-.45-.75c.3,3,.65,6.05,1,9.05l.9-.9c-2.45.05-5.15.2-7.3,1.55.45.25.9.5,1.3.75.2-3.3.35-6.6.55-9.9.05-1.15-1.7-1.15-1.75,0-.2,3.3-.35,6.6-.55,9.9a.87.87,0,0,0,1.3.75c1.85-1.25,4.25-1.3,6.4-1.35a.9.9,0,0,0,.9-.9c-.3-2.65-.55-5.35-.85-8-.15-1.35-.2-1.8-1.7-2.4a4.57,4.57,0,0,0-5.25,1.3C4.6,5.63,5.85,6.88,6.65,6.08Z"/><path class="cls-3" d="M8.05,4.13c2.65-.15,2.95.45,3.75.3,1-.15,1.6-.25,2-.75A1.93,1.93,0,0,0,14,1.88c-1.2-2.2-10.4-.7-10.75,1.65a1.83,1.83,0,0,0,.65,1.4C5.35,6.48,6.35,4.68,8.05,4.13Z"/><path class="cls-2" d="M8.05,5c2.15,0,7,1.4,6.9-2.45C14.85-.17,11.1-.12,9.1.08S3.35.78,2.45,3a2.44,2.44,0,0,0,.9,2.8c1.8,1.5,3.15-.1,4.9-.75,1.05-.4.6-2.1-.45-1.7A23.19,23.19,0,0,1,5.6,4.48c-2.2.45-1.6-.9-.8-1.4A11,11,0,0,1,9.35,1.83a9.83,9.83,0,0,1,2.1,0,6,6,0,0,1,1,.15c.6.35.7-.1.2.9-.7,1.25-3.3.35-4.55.4S6.9,5.08,8.05,5Z"/><path class="cls-3" d="M7.15,22.38a4.16,4.16,0,0,1-5,.2A2.6,2.6,0,0,1,1,21.13c-.45-1.8,2-3.65,3-4.4a11.83,11.83,0,0,1,5.4-2.25c1.7-.25,3.35-.5,4.7.5a3.88,3.88,0,0,1,1.55,2.9c0,1.65-1.4,2.65-1.9,3.15-1.25,1.35-3.6.9-3.6.9"/><path class="cls-2" d="M6.5,21.78c-1.9,1.6-6,.1-4-2.55a10.65,10.65,0,0,1,4.1-3c2.15-1,7.05-2.25,7.8,1,.55,2.25-2,4.3-4.15,3.9-1.1-.2-1.6,1.5-.45,1.7,2.95.5,6.6-1.6,6.6-4.9.05-5.2-6.4-4.85-9.75-3.6-2.5.9-7.4,3.85-6.55,7.15.8,3.15,5.5,3.45,7.65,1.6C8.65,22.28,7.4,21,6.5,21.78Z"/><path class="cls-4" d="M7.35,19.93l2.05,15,.25-15Z"/><path class="cls-2" d="M7,20.08c.7,5,1.35,10,2.05,15,.05.5.85.35.85-.1.05-5,.15-10,.2-14.95a.45.45,0,0,0-.45-.45H7.35a.45.45,0,0,0,0,.9c.35,0,2.35.05,2-.2s-.15.3-.15.75c-.15,1.65,0,3.35,0,5-.05,3-.1,6-.15,9a5.57,5.57,0,0,1,.85-.1c-.7-5-1.35-10-2-14.95C7.7,19.28,6.85,19.53,7,20.08Z"/></g></g></svg>