<svg xmlns="http://www.w3.org/2000/svg" viewBox="0 0 27 29.11"><defs><style>.cls-1{fill:#979b3d;}.cls-2{fill:#38301f;}.cls-3{fill:#eae3ca;}</style></defs><title>tack2_1</title><g id="Layer_2" data-name="Layer 2"><g id="Layer_9" data-name="Layer 9"><path class="cls-1" d="M22.54,20.26c0,2.45-1.35,3.6-3.6,4l-6.7-6.1c2.4-2.15,3.8-4.05,4.15-5.6Z"/><path class="cls-2" d="M21.64,20.26c-.05,1.6-.75,2.25-2.1,2.9-.6.3.3.45-.25.2A11,11,0,0,1,17,21.31c-1.4-1.25-2.8-2.55-4.2-3.8v1.25c1.8-1.7,3.7-3.55,4.4-6-.5.15-1,.25-1.45.4,2.05,2.6,4.1,5.2,6.15,7.75.7.9,1.95-.35,1.25-1.25-2.05-2.6-4.1-5.2-6.15-7.75a.86.86,0,0,0-1.45.4c-.6,2.15-2.35,3.75-3.9,5.25a.88.88,0,0,0,0,1.25c2.05,1.9,4.05,3.9,6.2,5.65,2.7,2.2,5.5-1.6,5.6-4.15A.93.93,0,0,0,21.64,20.26Z"/><path class="cls-1" d="M21.89,22.56c-1.9,1.9-2.5,1.6-3,2.25-.65.8-1.05,1.25-1,1.9a1.89,1.89,0,0,0,1.05,1.45c2.35.85,8.25-6.4,7-8.4-.35-.6-1.25-.6-1.4-.6C22.39,19.06,22.79,21.06,21.89,22.56Z"/><path class="cls-2" d="M21.24,22c-1.55,1.5-6.45,3.9-3.3,6.6,2.1,1.75,4.95-1.15,6.2-2.6s3.8-4.55,2.5-6.65a2.93,2.93,0,0,0-3.4-.85c-1.45.65-1.45,2.45-2.1,3.65-.55,1,1,1.9,1.5.9.4-.75.5-1.7.9-2.4s1.55-.95,1.65.1c.1,1.35-1.7,3.3-2.5,4.2a12,12,0,0,1-1.85,1.7,4.14,4.14,0,0,1-.8.45c-.65.25-.65.35-.9-.4-.3-1.05.4-1.35,1.15-1.8a12.08,12.08,0,0,0,2.2-1.75C23.34,22.41,22.09,21.16,21.24,22Z"/><path class="cls-1" d="M10.44,8.31A4.25,4.25,0,0,1,14,4.81a2.69,2.69,0,0,1,1.85.3c1.5,1,.95,4.05.7,5.25A11.88,11.88,0,0,1,14,15.61c-1.1,1.35-2.15,2.6-3.8,2.75a4,4,0,0,1-3.1-1.15c-1.1-1.25-.7-2.9-.7-3.65,0-1.85,2.1-3.05,2.1-3.05"/><path class="cls-2" d="M11.34,8.31c.2-1.4,3.25-4.05,4.55-1.75.75,1.35-.15,4.1-.65,5.45-.8,2-3.15,6-5.8,5.4-3-.75-2.55-4.8-.4-6.15a.87.87,0,0,0-.9-1.5c-2.7,1.7-3.9,6.35-1.05,8.55,3.9,3.05,8-1.65,9.5-4.95,1.15-2.45,2.65-8.1-.9-9.35-2.75-.95-5.7,1.55-6,4.25C9.44,9.46,11.19,9.46,11.34,8.31Z"/><path class="cls-3" d="M11.89,10.31.44.46l9.75,11.35Z"/><path class="cls-2" d="M12.19,10C8.39,6.66,4.54,3.41.74.11c-.45-.35-1,.2-.6.6,3.25,3.8,6.5,7.55,9.75,11.35a.41.41,0,0,0,.6,0c.55-.5,1.15-1,1.7-1.5a.42.42,0,0,0-.6-.6c-.55.45-1.05,1-1.6,1.45.5-.35.65.3.35-.15-.1-.15-.25-.25-.35-.4A34.4,34.4,0,0,0,6.69,7C4.74,4.71,2.74,2.41.79.11l-.6.6C4,4,7.84,7.26,11.64,10.56,12,11,12.64,10.36,12.19,10Z"/></g></g></svg>