<svg xmlns="http://www.w3.org/2000/svg" viewBox="0 0 64.78 139.27"><defs><style>.cls-1{fill:#723a29;}.cls-2{fill:#38301f;}.cls-3{fill:#da9b36;}</style></defs><title>talons</title><g id="Layer_2" data-name="Layer 2"><g id="glasses"><path class="cls-1" d="M48.42,1.67C33.32,21,18.27,40.27,4.77,60.72c-2,3.05-4.1,5.6-3.9,9.3.1,1.8.75,4.35.9,6.2.2,2.7-.8,6.9-.9,9.6-.1,4.1,1.8,6.45,3.65,10.15q8,16,16.7,31.5c1.25,2.25,2.65,4.6,4.75,6.05-.4-1.3,1.05-2.4,2.4-2.75s2.9-.5,3.6-1.65c1.2-2-1.25-4.15-3.45-4.6a8,8,0,0,1,2.95-1.2,12.49,12.49,0,0,1-4.85-1.3c-3.55-2.1-5.1-6.3-6.9-10a48.5,48.5,0,0,0-5.2-8.8c-2.15-2.7-4-6-3.65-9.4a10.91,10.91,0,0,1,5.85,9.1,21.32,21.32,0,0,0,.1,2.55c.45,2.55,2.95,4.4,5.55,4.9s5.2-.05,7.75-.6c-1.2-2.45-3.65-4.1-5.25-6.3-2.15-2.9-2.7-6.6-3.8-10a60,60,0,0,0-2.2-5.65c-.3-.75-3-2.1-2.3-2.55,1.15-.7-.3-4.85-3-8.45a7.68,7.68,0,0,0,4-3.15,12.23,12.23,0,0,1,1.2-1.9,7.08,7.08,0,0,1,2.45-1.45c3.25-1.35,7.35-1.9,10-4.25,1.45-1.3,1.85-3.85,3.45-5,2.2-1.65,4.9-2.4,7.4-3.65s3.15-3.25,3.7-5.9c-1.9-1.7-2.15-3.3-4.55-4.2s-4.25-1.55-6.05.25c-1.4,1.35-2.1,4.9-3.15,6.55s-3.45,3.35-5,4.5c-4.4,3.35-8.9,5.4-13.3,8.75-.8-1.9.5-4,1.8-5.65q14.48-19.05,28.9-38A17.85,17.85,0,0,1,47.72,20c1.3-1,2.85-1.65,4.1-2.75a11.29,11.29,0,0,0,3.1-6.2c.55-2.55.65-5.4-.75-7.65S49.52,0,47.42,1.57"/><path class="cls-2" d="M47.77,1c-13.55,17.35-27.1,34.7-39.55,52.9-2.55,3.75-6,7.7-7.6,12s.55,8.65.1,13.1c-.4,4.25-1.45,8.1.35,12.25,2,4.55,4.5,8.9,6.75,13.3,2.85,5.55,5.8,11.1,8.8,16.6,2.45,4.5,4.65,10,8.85,13.1a.86.86,0,0,0,1.3-.75c-.2-2.5,5.75-2,6.25-5,.4-2.55-2.25-4.3-4.35-4.85,0,.55.15,1,.2,1.6a10.91,10.91,0,0,1,2.75-1.1c1.05-.25.7-1.6-.25-1.75a10.31,10.31,0,0,1-8.2-5.25c-1.35-2.3-2.4-4.75-3.6-7.15a43.88,43.88,0,0,0-4.05-6.75c-2.15-2.9-4.15-5.7-3.9-9.45-.45.25-.9.5-1.3.75a10.09,10.09,0,0,1,5.2,6.8c.55,2.55-.1,4.85,1.65,7,3.25,3.95,8.7,3.15,13.1,2.2a.91.91,0,0,0,.55-1.3c-2-3.65-5.55-5.75-7-9.75-1.4-3.7-2.25-7.55-3.8-11.25a4.31,4.31,0,0,0-1.9-2.4,8.69,8.69,0,0,1-.75-.65c-.1.45-.05.5.15.2,0-.25.25-.6.3-.85.55-2.75-2-6.3-3.4-8.3-.2.45-.35.85-.55,1.3a8.7,8.7,0,0,0,3.9-2.8c.5-.65.8-1.45,1.3-2.1a7.5,7.5,0,0,1,3.7-2.15c3.2-1.1,7.15-1.8,9.45-4.45,1.35-1.55,1.7-3.6,3.5-4.85s4-1.9,5.95-2.8a7.31,7.31,0,0,0,3.45-2.8c.6-.95,1.65-3.15,1.45-4.2S44.72,49,44,48.17a8.75,8.75,0,0,0-4.15-2.3c-3.1-.85-5.4.2-6.7,3.1a37.33,37.33,0,0,1-1.95,4.6c-1.3,2-3.6,3.4-5.45,4.75-4,3-8.5,5.2-12.55,8.2l1.3.55c-.7-2.5,1.5-4.75,2.9-6.55s2.6-3.45,3.9-5.15c2.7-3.55,5.4-7.15,8.15-10.7,5.2-6.85,10.4-13.75,15.65-20.6a16.81,16.81,0,0,1,4.75-4.45,12.55,12.55,0,0,0,3.55-2.9,15.29,15.29,0,0,0,2.65-8c.2-2.7-.45-5.65-2.65-7.35a5.5,5.5,0,0,0-6.45-.5.87.87,0,0,0,.9,1.5,4.11,4.11,0,0,1,5.55,1.5,8.05,8.05,0,0,1,.85,5.5,14.08,14.08,0,0,1-1.4,4.95,10.25,10.25,0,0,1-4.25,4c-2.5,1.55-4.15,3.75-5.9,6.1-2.3,3.05-4.6,6.05-7,9.1L21.87,51.67c-2.2,2.9-4.45,5.8-6.65,8.7-1.6,2.15-3.25,4.35-2.45,7.15a.92.92,0,0,0,1.3.55c3.25-2.4,6.8-4.35,10.2-6.55,2.65-1.75,5.9-3.75,7.9-6.3,1.6-2,1.65-5.3,3.55-7.1,2.55-2.4,9.75,1.4,8.7,4.8-1.25,4-5.25,4.45-8.5,6.25a8,8,0,0,0-3,2.35c-1,1.4-1.45,3-2.85,4.2-2.6,2.1-6.2,2.5-9.2,3.75a6.78,6.78,0,0,0-2.85,1.8c-1.6,1.8-2.1,3.65-4.6,4.65a.91.91,0,0,0-.55,1.3,20.11,20.11,0,0,1,2.9,5.4,3.61,3.61,0,0,1,.1,2c-.05.25-.35.4-.3.7.05.8.75,1.25,1.35,1.75,1.4,1.2,1.9,2.7,2.55,4.45,1.25,3.35,1.85,7,3.4,10.15s4.8,5.25,6.5,8.45c.2-.45.35-.85.55-1.3-2.9.6-6.3,1.4-9.15,0a5.34,5.34,0,0,1-3.05-3.65c-.2-1.1-.1-2.2-.25-3.3a11.88,11.88,0,0,0-6.2-8.9.86.86,0,0,0-1.3.75c-.2,3.45,1.25,6.5,3.25,9.2a56.49,56.49,0,0,1,5.7,9.45c1.3,2.7,2.45,5.55,4.4,7.85,2.2,2.6,4.85,3.45,8.15,3.9-.1-.6-.15-1.15-.25-1.75a11.63,11.63,0,0,0-3.15,1.3.89.89,0,0,0,.2,1.6c1.95.55,4.15,2.55,1.75,4.05-.8.5-1.9.45-2.75.85a3.29,3.29,0,0,0-2.15,3.3c.45-.25.9-.5,1.3-.75-3.85-2.9-5.95-8.35-8.2-12.45-2.45-4.5-4.9-9-7.25-13.6s-4.5-9-6.85-13.35a15.85,15.85,0,0,1-2.35-6.65,34.84,34.84,0,0,1,.65-6.45,20.52,20.52,0,0,0,.15-5c-.3-2.6-1.2-5.15-.5-7.75.55-2.1,1.9-3.85,3.05-5.65,1.5-2.2,2.95-4.45,4.45-6.65q8.62-12.6,17.8-24.8c7.1-9.5,14.4-18.8,21.7-28.15C49.72,1.42,48.47.12,47.77,1Z"/><path class="cls-3" d="M64.27,39.77c-.35.65-8.55-3-15.9.15-7.65,3.2-3.5,7.25-7,7.7-2.2.3.25-2.35-4.7-1.3-4.15.85,4.7-10,11.45-11.45C56.37,32.92,65,38.32,64.27,39.77Z"/><path class="cls-2" d="M64,39.47c-.3.25-2.9-.6-3.3-.7a33.32,33.32,0,0,0-5-.55c-3.55,0-7.4.65-10.3,2.85-1.75,1.3-2.05,2.65-2.7,4.55-.35,1.1-1,2-2.1,1.2-.35-.25-.4-.75-.85-1-.75-.4-1.6-.1-2.4-.15-1.9,0-1-.95-.2-2.15a25.1,25.1,0,0,1,6.7-6.3,15.17,15.17,0,0,1,11.2-2.1,20.14,20.14,0,0,1,5.7,1.9c.6.3,3.35,1.65,3.1,2.6a.44.44,0,0,0,.85.25c.4-1.35-1.6-2.5-2.5-3.05A20.43,20.43,0,0,0,52.92,34c-6.4-.4-11.8,3.25-15.75,8.1-.7.85-2.4,2.65-2,3.9.6,1.75,3.25-.15,4.35.8,1,.8,1,1.75,2.65,1,1.4-.65,1.25-2.2,1.7-3.45,1.8-4.95,9.3-5.6,13.7-5.15,1.85.2,3.65.65,5.45,1,.5.1,1.1.3,1.55-.05S64.37,39.12,64,39.47Z"/><path class="cls-3" d="M29.27,115.22a12.77,12.77,0,0,0,6.15,1.4c3.4-.05,5.6-1.75,5.85-1.25s-1.45,2.45-3.75,3.65c-.85.45-6.75,2.4-11.4-.45-2.25-1.35-5.15-4.9-5-8,.05-1.35,3.55.1,4.55,0C27.17,110.22,25.37,113,29.27,115.22Z"/><path class="cls-2" d="M29.07,115.57a13.49,13.49,0,0,0,10.6.65c.75-.25,1.45-.9.7,0a9.13,9.13,0,0,1-3.2,2.45,13.39,13.39,0,0,1-5.25,1,10.22,10.22,0,0,1-7.5-3,9.76,9.76,0,0,1-2.6-4.15c-.1-.5-.25-1.8.3-2.1.25-.15,1.2.15,1.6.25,1.5.25,2.05.1,2.5,1.6a5.87,5.87,0,0,0,2.85,3.35c.5.3.9-.45.45-.75A5.37,5.37,0,0,1,27,112a5.68,5.68,0,0,0-.3-1.25,1.37,1.37,0,0,0-.7-.7,13.06,13.06,0,0,0-2.85-.4,3.05,3.05,0,0,0-2,0c-1.6,1.15.4,4.65,1.15,5.75a11.07,11.07,0,0,0,7,4.8,15,15,0,0,0,7.7-.5c1.55-.55,4.2-2,4.7-3.7.35-1.2-.45-1.15-1.35-.9-3.85,1-7,1.75-10.8-.2C29,114.57,28.57,115.32,29.07,115.57Z"/><path class="cls-3" d="M30.17,130.57c1.1-.1,1.35,1.6,3.65,2.55a23.09,23.09,0,0,0,5,1.3c4.4.3,7.95-4.6,9.1-3.75.55.4-.45,1.7-1,2.55-2.55,4.05-7.45,5.7-10.75,5.7-3.5,0-10-2.4-11-5.45C24.57,131.67,28.22,130.82,30.17,130.57Z"/><path class="cls-2" d="M30.17,131c.8,0,1.5,1.3,2,1.7a8.52,8.52,0,0,0,1.75.95,14.67,14.67,0,0,0,5.4,1.25,10.07,10.07,0,0,0,4.85-1.8,17,17,0,0,1,2.2-1.5c.5-.25.7-.85.85-.1,0,.5-.5,1.15-.8,1.55a12.5,12.5,0,0,1-12.7,5.2,15.43,15.43,0,0,1-6.5-2.8c-1.15-.9-2.45-2.15-.8-3.4a8.56,8.56,0,0,1,3.7-1c.55-.05.55-1,0-.9-1.6.2-4.8.55-5.4,2.45s1.75,3.5,3,4.25a14.84,14.84,0,0,0,15.4.55,13.34,13.34,0,0,0,3.65-3.25c.5-.7,1.75-2.05,1.65-3-.1-1.35-1.25-1-2.1-.55-3.25,1.7-5.25,4-9.3,3.1a11,11,0,0,1-5-2.35c-.65-.6-1-1.1-1.85-1.2C29.57,130.12,29.57,131,30.17,131Z"/><path class="cls-2" d="M44.27,10.52c-.05,2.25-3.3,5-4.75,6.55s-3,3.35-4.5,5.05c-2.25,2.45-5.65,5-6.9,8.15-.1.25.3.4.4.1,1-2.5,3.7-4.55,5.5-6.5,1.5-1.65,3-3.3,4.5-5s3-3.35,4.4-5.1c.9-1,1.7-1.85,1.7-3.25C44.67,10.22,44.27,10.22,44.27,10.52Z"/><path class="cls-2" d="M44.42,13.92c-.4,2.9-3.3,5.3-5.1,7.45q-2.48,2.93-4.8,6c-3.15,4.05-6.15,8.2-9.15,12.4-6.4,8.9-12.75,17.85-20,26.15-.2.2.1.55.3.3C13,57.92,19.32,48.92,25.77,40c3.4-4.75,6.85-9.5,10.5-14.05,1.7-2.15,3.4-4.2,5.15-6.3,1.45-1.7,3.15-3.25,3.5-5.6C44.87,13.77,44.42,13.62,44.42,13.92Z"/><path class="cls-2" d="M25.62,43.17c-2.9,3.85-5.75,7.65-8.7,11.45-2.45,3.15-5.1,6.2-7,9.75-.15.25.25.45.4.2,2.2-4,5.3-7.55,8.15-11.2,2.55-3.3,5.1-6.65,7.6-10C26.17,43.17,25.77,42.92,25.62,43.17Z"/><path class="cls-2" d="M50.67,9.67c-.85,2.4-2.8,4.35-4.45,6.25s-3,3.5-4.6,5.2a.21.21,0,1,0,.3.3c1.95-2.15,3.9-4.3,5.75-6.5a16.94,16.94,0,0,0,3.45-5.15C51.22,9.52,50.77,9.37,50.67,9.67Z"/><path class="cls-2" d="M15.47,70.62c.4,1.1.7,2.2,1,3.3.05.25.5.15.4-.1-.3-1.1-.65-2.2-1-3.3C15.82,70.22,15.37,70.37,15.47,70.62Z"/><path class="cls-2" d="M18.62,67.07a6.13,6.13,0,0,1,1.25,3c.05.3.45.15.4-.1a6.35,6.35,0,0,0-1.3-3.1C18.82,66.62,18.47,66.87,18.62,67.07Z"/><path class="cls-2" d="M24.22,66a3.63,3.63,0,0,1,1.3,2.5c0,.3.4.3.45,0a4.1,4.1,0,0,0-1.4-2.8C24.37,65.47,24,65.77,24.22,66Z"/><path class="cls-2" d="M29.12,60.67a6.83,6.83,0,0,1,1.7,5.1c0,.3.4.3.45,0a7.35,7.35,0,0,0-1.85-5.45C29.27,60.17,28.92,60.47,29.12,60.67Z"/><path class="cls-2" d="M32.42,57.87a3,3,0,0,1,1.3,2.65.23.23,0,0,0,.45,0,3.51,3.51,0,0,0-1.55-3.05C32.37,57.32,32.17,57.72,32.42,57.87Z"/><path class="cls-2" d="M35.67,53.87c1.15,1.25,2.7,2.45,2.6,4.35a.22.22,0,0,0,.45,0c.1-2-1.5-3.3-2.75-4.65C35.82,53.32,35.52,53.67,35.67,53.87Z"/><path class="cls-2" d="M40.67,51.57c.9,1.4,2.45,2.8,2,4.65-.05.3.35.4.4.1.5-2-1.1-3.45-2-5C40.92,51.07,40.52,51.32,40.67,51.57Z"/><path class="cls-2" d="M24.72,122.77a12.57,12.57,0,0,1-3,1c-.3.05-.15.5.1.4a10.81,10.81,0,0,0,3.1-1C25.17,123,25,122.62,24.72,122.77Z"/><path class="cls-2" d="M24.12,119.57c-.5,1.15-2.9,1.05-3.9,1.05a.22.22,0,1,0,0,.45c1.3.05,3.75.1,4.35-1.35C24.67,119.42,24.22,119.32,24.12,119.57Z"/><path class="cls-2" d="M21.47,117.17a7.37,7.37,0,0,1-3.25.75.23.23,0,0,0,0,.45,7.8,7.8,0,0,0,3.5-.8C22,117.42,21.72,117,21.47,117.17Z"/><path class="cls-2" d="M19.62,113c-.55,1.15-2.65,1.5-3.75,1.2-.25,0-.4.35-.1.4,1.3.35,3.6,0,4.2-1.4C20.12,113,19.77,112.72,19.62,113Z"/><path class="cls-2" d="M17.57,109.22c-.4,1.25-2.55,1-3.55,1a.23.23,0,1,0,0,.45c1.25,0,3.5.25,4-1.3C18.07,109.07,17.67,109,17.57,109.22Z"/><path class="cls-2" d="M14.77,104.42a3.33,3.33,0,0,1-3.45.45c-.25-.1-.5.25-.2.4a3.86,3.86,0,0,0,4-.5C15.27,104.52,15,104.22,14.77,104.42Z"/><path class="cls-2" d="M10.87,100.27a4.14,4.14,0,0,1-3,0c-.25-.1-.4.35-.1.4a4.83,4.83,0,0,0,3.25,0C11.22,100.57,11.12,100.17,10.87,100.27Z"/><path class="cls-2" d="M9.37,96.17c-.6.1-2.4.5-2.8-.2-.15-.25-.55,0-.4.2.6,1,2.4.6,3.3.4C9.72,96.52,9.62,96.12,9.37,96.17Z"/><path class="cls-2" d="M12.82,102.12a5.84,5.84,0,0,1-2.45.35c-.3,0-.3.4,0,.45a6.19,6.19,0,0,0,2.55-.35C13.22,102.42,13.12,102,12.82,102.12Z"/><path class="cls-2" d="M26.92,106.12a6.63,6.63,0,0,1-3.5,2.45c-.25.1-.15.5.1.4a7.22,7.22,0,0,0,3.75-2.65C27.42,106.12,27.07,105.92,26.92,106.12Z"/><path class="cls-2" d="M25,104c-1.1.7-2.2,1.35-3.35,2a.22.22,0,0,0,.2.4c1.15-.6,2.25-1.25,3.35-1.95C25.42,104.22,25.22,103.82,25,104Z"/><path class="cls-2" d="M22.22,101.12c.15.2-1.1.85-1.25.9a4.29,4.29,0,0,1-1.35.25.23.23,0,0,0,0,.45,4.28,4.28,0,0,0,2.2-.6c.35-.2,1.15-.7.85-1.2C22.42,100.67,22.07,100.87,22.22,101.12Z"/><path class="cls-2" d="M21.37,96.72c-.55,1.25-1.95,1.5-3.2,1.65-.3,0-.3.45,0,.45,1.4-.15,2.95-.45,3.55-1.85C21.87,96.72,21.52,96.47,21.37,96.72Z"/><path class="cls-2" d="M19.87,92.77c0,.9-.9,1.2-1.6,1.5a7,7,0,0,1-2.05.65c-.3,0-.15.45.1.4a9.38,9.38,0,0,0,2.8-1,1.86,1.86,0,0,0,1.15-1.55A.2.2,0,1,0,19.87,92.77Z"/><path class="cls-2" d="M18.57,88.17c-.6,1.8-2.8,2-4.25,2.9a.22.22,0,0,0,.2.4c1.6-.9,3.8-1.15,4.45-3.15C19.07,88,18.62,87.92,18.57,88.17Z"/><path class="cls-2" d="M14.82,83.67c-.75.7-1.45,1.4-2.2,2.1a.21.21,0,0,0,.3.3c.75-.7,1.45-1.4,2.2-2.1C15.37,83.77,15,83.47,14.82,83.67Z"/><path class="cls-2" d="M4.32,74.67a3.07,3.07,0,0,1,2.55,1c.4.55.8,1.15,1.2,1.7a4.42,4.42,0,0,0,2.1,1.85c.25.1.4-.35.1-.4-1.6-.55-2.2-2.45-3.25-3.65a3.44,3.44,0,0,0-2.75-1C4,74.22,4,74.67,4.32,74.67Z"/><path class="cls-2" d="M3,84.92c1.6-2.7,5-2.85,7.65-3.9.25-.1.15-.55-.1-.4-2.75,1.1-6.2,1.3-7.9,4.1C2.47,84.92,2.87,85.17,3,84.92Z"/><path class="cls-2" d="M6.27,89.82A27.77,27.77,0,0,1,11,87c.25-.1,0-.5-.2-.4a24.83,24.83,0,0,0-4.7,2.8C5.82,89.57,6.07,90,6.27,89.82Z"/><path class="cls-2" d="M39,46.37c.6-4.4,6.35-8,10.2-9.2,4.45-1.35,10.85-.55,14.5,2.55a.11.11,0,0,0,.15-.15c-3.7-3.2-10.15-4-14.7-2.6-4,1.2-9.75,4.85-10.35,9.4C38.82,46.47,39,46.52,39,46.37Z"/><path class="cls-2" d="M27.77,131.52c5.7,5.25,14.65,5.9,19.85-.35a.11.11,0,0,0-.15-.15c-5.15,6.15-13.95,5.55-19.55.35A.11.11,0,0,0,27.77,131.52Z"/><path class="cls-2" d="M24.42,109.82c.65,3.15,1.6,6.3,4.85,7.65,3.75,1.55,7.8,0,11.3-1.4.15,0,0-.25,0-.2-3.15,1.3-6.7,2.75-10.15,1.75-3.8-1.1-5-4.35-5.75-7.85C24.62,109.67,24.37,109.72,24.42,109.82Z"/></g></g></svg>