<svg xmlns="http://www.w3.org/2000/svg" viewBox="0 0 107.07 112.69"><defs><style>.cls-1{fill:#fff;}</style></defs><title>web_1</title><g id="Layer_2" data-name="Layer 2"><g id="Layer_9" data-name="Layer 9"><path class="cls-1" d="M54.74,0,73.43.6C78.6.86,83.76,1.93,88.16,4.85c6,3.75,9.3,9.16,10.63,16,1.11,5.28.93,10.7.67,15.88,0,7.77-.22,15.62-.2,23.39-.17,4.61-.26,9.47-2.05,14-3,8.44-8.92,13.51-17.46,15.37a48,48,0,0,1-13.37,1c-9.15-.09-18,0-27.2-.35-4.61-.17-9.47-.26-14-2-8.2-3.07-13.27-9-15.37-17.45a48.05,48.05,0,0,1-1-13.38c.09-9.15,0-18,.43-26.95.09-4.86.26-9.47,2-14C14.35,8.06,20,3.07,28.49,1c4.23-1,8.84-.88,13.37-1Zm1,82.28c5-.23,12.31-.09,19.69-.52S88.17,77,90.09,69.41a63.58,63.58,0,0,0,1-12.37c.3-7.6.29-15.38.35-22.9-.09-3.73-.26-7.7-.67-11.59A14.94,14.94,0,0,0,78.6,9.44c-4-.88-8.32-.88-12.44-1.21q-11.41-.45-22.59-.18c-3.72.09-7.69.26-11.59.67-7,.84-11.68,5.52-13.35,12.21a64.36,64.36,0,0,0-1,12.37c-.31,7.61-.37,15.13-.35,22.91A79.86,79.86,0,0,0,18,67.8,15.1,15.1,0,0,0,28.43,80.62a29.66,29.66,0,0,0,7.1,1.27C41.44,81.92,47.43,82.2,55.76,82.28Z"/><path class="cls-1" d="M53.84,68.4A23.2,23.2,0,1,1,77.12,45,22.93,22.93,0,0,1,53.84,68.4ZM54,60.3A15.06,15.06,0,1,0,39.06,45.12,15,15,0,0,0,54,60.3Z"/><path class="cls-1" d="M84,21.44a5.58,5.58,0,0,1-5.53,5.49A5.81,5.81,0,0,1,73,21.4a5.51,5.51,0,0,1,11,0Z"/><path class="cls-1" d="M9.85,105.73a4.13,4.13,0,0,0,.56-2.2,3.65,3.65,0,0,0-1.17-2.84,4.41,4.41,0,0,0-2.91-1.2,4.21,4.21,0,0,0-3.28,1.37,5.32,5.32,0,0,0-1.35,3.62,4.92,4.92,0,0,0,1.19,3.4A4.17,4.17,0,0,0,6,109.31a8.64,8.64,0,0,0,3.31-.8,3.5,3.5,0,0,1-3.41,1.64,6.22,6.22,0,0,1-4.27-1.59A5,5,0,0,1,0,104.64a5.6,5.6,0,0,1,1.89-4.22,6.38,6.38,0,0,1,4.5-1.68,6.06,6.06,0,0,1,3.78,1.45,4.57,4.57,0,0,1,1.55,3.37,3.89,3.89,0,0,1-1.18,3,4.34,4.34,0,0,1-2.75,1.21c-.92.07-1.8-.17-1.62-1a3.87,3.87,0,0,1-.76.6,1.59,1.59,0,0,1-1,.22,1.31,1.31,0,0,1-.81-.26,1.54,1.54,0,0,1-.51-.72,4.87,4.87,0,0,1-.22-.95,3.35,3.35,0,0,1,.07-1,4.11,4.11,0,0,1,.46-1.31,5,5,0,0,1,.77-1,3.51,3.51,0,0,1,1-.66,2.76,2.76,0,0,1,1.1-.2,2.64,2.64,0,0,1,1.18.29,2.48,2.48,0,0,1,.65.46l1-.66.11.11A1,1,0,0,0,9,102a1.5,1.5,0,0,0-.09.39l-.13.54-.66,3.48c-.08.24.08.26.3.27A1.76,1.76,0,0,0,9.85,105.73Zm-3.46.06.07-.24,0-.07L7,102.77c.1-.39.08-.68,0-.79a.45.45,0,0,0-.43-.23,1,1,0,0,0-.78.53,5.89,5.89,0,0,0-.61,1.79A8.73,8.73,0,0,0,5,106.15a.71.71,0,0,0,.69.59.47.47,0,0,0,.4-.12.52.52,0,0,1,.24-.15Z"/><path class="cls-1" d="M16.41,107c0,.5,0,1.16.78,1.35v.22l-4.08,0v-.22c.77-.1.81-.91.87-1.43l.11-6.94a1.54,1.54,0,0,0-.33-1.06,1.18,1.18,0,0,0-.59-.25l.05-.09,3.18-1,.2.16Z"/><path class="cls-1" d="M21.36,106.54c0,1.31.31,1.72.95,1.88v.22l-4.45-.07v-.22c.51,0,1-.68,1-1.85l0-3.2a1.52,1.52,0,0,0-.33-1.06,1,1,0,0,0-.65-.23l0-.09,3.19-1,.19.15Zm-2.91-7.31a1.54,1.54,0,1,1,3.07.07A1.48,1.48,0,0,1,20,100.8,1.55,1.55,0,0,1,18.45,99.23Z"/><path class="cls-1" d="M30.45,106.34l-.8,2.36-6.84-.07,0-.59,4.2-6.38-2.19,0c-.81,0-1.2.59-1.63,2l-.15,0,.5-2.62,6.49.1.12.83L26,108.15l2.41.06c.95,0,1.34-.85,1.84-1.81Z"/><path class="cls-1" d="M31.37,107.66l5,.11,0,1.1-5.05-.11Z"/><path class="cls-1" d="M44.12,107.79a2.12,2.12,0,0,1-.81.68c-.87.49-1.85.36-4.18.35-1.31,0-1.94-.64-1.91-1.95a2.07,2.07,0,0,1,1.63-2.25c.2-.06,1.93-.81,2.13-.88l0-.87c0-.6,0-1.32-.56-1.35s-.7.57-.67,1.14a1.38,1.38,0,0,1-1.15,1.45c-.77.09-1.32-.75-.46-1.75a4.06,4.06,0,0,1,2.92-1.12,2.06,2.06,0,0,1,2.1,1.17,2.58,2.58,0,0,1,.24,1.23l0,3.65c0,1,.38.75.72.43Zm-3.2-3.52a1.43,1.43,0,0,0-1.12,1.07,5.68,5.68,0,0,0,0,2.92.7.7,0,0,0,1.14-.06Z"/><path class="cls-1" d="M50.49,104.44c-.16-.53-.39-1.26-1.05-1.28a1.18,1.18,0,0,0-.78.53l-.32.61-.06,2.63c0,1.32.32,1.72.95,1.89V109L44.77,109v-.22c.5,0,1-.68,1-1.84l0-1.31,0-1.83a1.49,1.49,0,0,0-.33-1.06,1.29,1.29,0,0,0-.58-.25l0-.09,3.19-1,.19.16,0,2,.73-1.39a1.53,1.53,0,0,1,1.14-.79,1.25,1.25,0,0,1,1.18,1.24A3.18,3.18,0,0,1,50.49,104.44Z"/><path class="cls-1" d="M59.67,108.06a2,2,0,0,1-.8.69,3.86,3.86,0,0,1-2,.39l-2.41,0A2.1,2.1,0,0,1,53,108.6a4.06,4.06,0,0,1-1.19-2.9,4.41,4.41,0,0,1,2.11-4,3.31,3.31,0,0,1,2-.19,5.14,5.14,0,0,0,.54.12l0-1.1a1.54,1.54,0,0,0-.33-1.06,1.18,1.18,0,0,0-.59-.25l0-.14,3.18-1,.2.16-.16,9.13c0,1,.38.75.71.43Zm-3.15-5.49a1.54,1.54,0,0,0-.38-.53.82.82,0,0,0-1.25.17,5.4,5.4,0,0,0-.55,2.71,8.34,8.34,0,0,0,.39,3.36,1,1,0,0,0,1.4.3,2.61,2.61,0,0,0,.29-.24Z"/><path class="cls-1" d="M60.18,108.05l5,.11,0,1.1-5.05-.11Z"/><path class="cls-1" d="M73.16,110.58c0,1.32.31,1.72,1,1.89v.22l-4.45-.08v-.22c.51,0,1-.68,1-1.84l0-2a2.37,2.37,0,0,1-.85.77,2.24,2.24,0,0,1-1.14.28c-1.61,0-2.59-2-2.56-3.79,0-2.33,1.48-4.16,3.54-4.07a3.1,3.1,0,0,1,1.57.39,7,7,0,0,1,1,.57l1.09-.92.11.11c0,.15-.12.33-.14.48a3.4,3.4,0,0,0-.06.52Zm-2.45-2.51.11-4.61c0-.51,0-.86-.27-1.08a.64.64,0,0,0-.6-.32c-1,0-1.23,1.68-1.26,3,0,1.75.11,3.38,1.29,3.45a.73.73,0,0,0,.53-.16A.46.46,0,0,0,70.71,108.07Z"/><path class="cls-1" d="M82.37,107.23c0,.65,0,1.67.89,1.25l0,.28-3,.72-.37-.25V108a6.87,6.87,0,0,1-.86.77,2.74,2.74,0,0,1-1.7.6,1.63,1.63,0,0,1-1.57-1.55l0-3.71a1.46,1.46,0,0,0-.33-1.06,1.31,1.31,0,0,0-.59-.26l.05-.08,3.18-1,.2.16-.12,5.27c0,.65.22.94.66,1a1.44,1.44,0,0,0,1-.68l.08-3.29a1.54,1.54,0,0,0-.33-1.06,1,1,0,0,0-.65-.23l0-.09,3.18-1,.2.16Z"/><path class="cls-1" d="M90.17,107.57a3.15,3.15,0,0,1-2,1.56,2.31,2.31,0,0,1-1,.09,2.73,2.73,0,0,1-2.68-1.86c-.89-2.41.53-5.1,3.1-5,1.82,0,2.51,1.55,2.47,3.3l-3.51-.08c-.11,1,.09,3.1,1.42,3.2a2.53,2.53,0,0,0,2-1.28Zm-3.59-2.44,1.45,0c0-1.16.06-2.63-.71-2.54S86.6,104.47,86.58,105.13Z"/><path class="cls-1" d="M97.61,107.67a3.18,3.18,0,0,1-2,1.56,2.48,2.48,0,0,1-1,.09A2.74,2.74,0,0,1,92,107.46c-.89-2.41.53-5.1,3.1-5,1.82,0,2.51,1.54,2.47,3.3L94,105.66c-.11,1,.09,3.1,1.42,3.19a2.53,2.53,0,0,0,2-1.27ZM94,105.22h1.45c0-1.16.06-2.63-.71-2.54S94,104.57,94,105.22Z"/><path class="cls-1" d="M106.44,108.29c0,.72-.07,1.18.63,1.33v.22l-3.8-.07v-.22c.7-.07.67-.64.66-1.36l0-3.43a2.59,2.59,0,0,0-.13-.9.55.55,0,0,0-.45-.3,2.69,2.69,0,0,0-1.09.49l0,4.08c0,.59-.11,1.27.59,1.41v.22l-4-.06,0-.16c.69-.13.91-.57.93-1.45l0-3.64c0-.5,0-.86-.33-1.06a1.19,1.19,0,0,0-.58-.25l0-.09,3.18-1,.2.15,0,1.32c.9-.86,1.66-1.46,2.62-1.39a1.77,1.77,0,0,1,1.6,1.9Z"/></g></g></svg>